<?xml version="1.0" encoding="utf-8"?>
<!-- Generator: Adobe Illustrator 26.5.0, SVG Export Plug-In . SVG Version: 6.00 Build 0)  -->
<svg version="1.1" id="Layer_1" xmlns="http://www.w3.org/2000/svg" xmlns:xlink="http://www.w3.org/1999/xlink" x="0px" y="0px"
	 viewBox="0 0 125.8 30" style="enable-background:new 0 0 125.8 30;" xml:space="preserve">
<style type="text/css">
	.st0{fill-rule:evenodd;clip-rule:evenodd;fill:#009EE2;}
	.st1{fill-rule:evenodd;clip-rule:evenodd;}
	.st2{filter:url(#Adobe_OpacityMaskFilter);}
	.st3{fill-rule:evenodd;clip-rule:evenodd;fill:#FFFFFF;}
	.st4{mask:url(#mask-2_00000157290286920315261630000000267350708542702516_);fill-rule:evenodd;clip-rule:evenodd;}
	.st5{filter:url(#Adobe_OpacityMaskFilter_00000179604451770444761550000001237513131834114691_);}
	.st6{mask:url(#mask-2_00000158738926113713981060000000336358953257081780_);fill-rule:evenodd;clip-rule:evenodd;}
	.st7{filter:url(#Adobe_OpacityMaskFilter_00000067941875522997473840000013758426623710629816_);}
	.st8{mask:url(#mask-2_00000126284729559402004920000006852250463193312183_);fill-rule:evenodd;clip-rule:evenodd;}
</style>
<g id="Symbols">
	<g id="Sidebench-Logo">
		<g id="Sidebench-Logo_x2F_White">
			<path id="Fill-1" class="st0" d="M14.1,0L14,0l-0.1,0l-0.1,0.1L8.6,1.6L8.3,1.9L6.9,6.9l-5,1.4L1.7,8.4l0,0.1L1.5,8.7L0,14.1
				l0.1,0.4l3.7,3.6l-1.4,5l-0.1,0.1l0,0.1l0,0.1l0.1,0l0.1,0.3l3.9,3.9l0.4,0.1l5.1-1.4l3.7,3.6l0.2,0l0.1,0.1l5.5-1.6l0.3-0.1
				l0-0.1l0.1-0.1l1.4-5.1l5.1-1.4l0.1-0.2l0.1,0l1.5-5.6l-0.1-0.4l-3.7-3.6l1.4-5.1l-0.1-0.4l-3.9-3.9l-0.4-0.1l-5.1,1.4l-3.7-3.6
				L14.1,0L14.1,0z M9.3,2.5l4-1.1l-1.1,4l-4,1.1L9.3,2.5z M3.1,9.2l9.6-2.7L13,6.4l0-0.1l0.1-0.2l1.2-4.4l2.9,2.9L16,9.2L6,12
				L3.1,9.2z M19,4.7l4.1-1.2L26,6.4l-4.1,1.2L19,4.7z M15.6,14.8l2.6-9.3l2.9,2.9l-2.6,9.3L15.6,14.8z M19.5,18.6l2.8-10l4-1.1
				l-2.7,9.8l0.1,0.4l3.2,3.2l-4,1.1L19.5,18.6z M1.2,14L2.3,10l2.9,2.9l-1.1,4.1L1.2,14z M6.3,13.1l9.3-2.6l-1.1,4l-9.3,2.6
				L6.3,13.1z M24.8,17.1l1.1-4.1l2.9,2.9L27.7,20L24.8,17.1z M10.8,16.8l4-1.1l6.8,6.7l-4,1.1L10.8,16.8z M4.9,18.4l4.7-1.3
				l7.2,7.2l-1.1,4.1l-7-7l-0.2-0.1l-0.1,0l-0.2,0l-4.4,1.2L4.9,18.4z M4,23.6l4.1-1.2l2.9,2.9l-4.1,1.2L4,23.6z M17.8,24.6l4-1.1
				l-1.1,4l-4,1.1L17.8,24.6z"/>
		</g>
	</g>
</g>
<g id="Symbols_00000106841093710122805910000009192287158359220099_">
	<g id="Sidebench-Logo_00000038414759701193727000000001508173687987956143_" transform="translate(-33.000000, -7.000000)">
		<g id="Sidebench-text_x2F_-White">
			<path id="Fill-2" class="st1" d="M146.3,22.2c-0.3-0.3-0.7-0.6-1.1-0.8c-0.4-0.2-0.8-0.3-1.3-0.3c-0.5,0-0.9,0.1-1.3,0.3
				c-0.4,0.2-0.7,0.4-0.9,0.7c-0.2,0.3-0.4,0.7-0.6,1.1c-0.1,0.4-0.2,0.8-0.2,1.3c0,0.4,0.1,0.9,0.2,1.3c0.1,0.4,0.4,0.7,0.6,1
				s0.6,0.5,1,0.7c0.4,0.2,0.8,0.3,1.3,0.3c0.5,0,1-0.1,1.3-0.3c0.4-0.2,0.7-0.4,1-0.8l1.3,1.3c-0.5,0.5-1,0.9-1.6,1.1
				c-0.6,0.2-1.3,0.3-2,0.3c-0.7,0-1.4-0.1-2-0.4c-0.6-0.2-1.1-0.6-1.6-1s-0.8-1-1-1.6c-0.2-0.6-0.4-1.3-0.4-2c0-0.7,0.1-1.4,0.4-2
				c0.2-0.6,0.6-1.1,1-1.6c0.4-0.4,1-0.8,1.6-1c0.6-0.2,1.3-0.4,2.1-0.4c0.7,0,1.4,0.1,2,0.4c0.6,0.2,1.2,0.6,1.7,1.1L146.3,22.2
				L146.3,22.2z"/>
			<path id="Fill-4" class="st1" d="M129,19.7h1.8v1.5h0c0.2-0.5,0.6-0.9,1.2-1.2c0.6-0.3,1.2-0.5,2-0.5c0.5,0,0.9,0.1,1.3,0.2
				c0.4,0.1,0.8,0.4,1.1,0.7c0.3,0.3,0.6,0.7,0.8,1.1c0.2,0.5,0.3,1,0.3,1.6v6.1h-1.8v-5.6c0-0.4-0.1-0.8-0.2-1.1
				c-0.1-0.3-0.3-0.6-0.5-0.8c-0.2-0.2-0.4-0.3-0.7-0.4c-0.3-0.1-0.5-0.1-0.8-0.1c-0.4,0-0.7,0.1-1.1,0.2c-0.3,0.1-0.6,0.3-0.8,0.6
				c-0.2,0.3-0.4,0.6-0.6,1c-0.1,0.4-0.2,0.9-0.2,1.4v4.9H129V19.7z"/>
			<path id="Fill-6" class="st1" d="M125.3,23.7c0-0.4-0.1-0.8-0.2-1.1c-0.1-0.3-0.3-0.6-0.5-0.9c-0.2-0.2-0.5-0.4-0.9-0.6
				c-0.3-0.1-0.7-0.2-1.2-0.2c-0.4,0-0.9,0.1-1.2,0.3c-0.4,0.2-0.7,0.4-0.9,0.7c-0.3,0.3-0.5,0.6-0.6,0.9c-0.1,0.3-0.2,0.7-0.2,1
				H125.3z M119.5,25.1c0,0.4,0.1,0.8,0.3,1.1c0.2,0.3,0.4,0.6,0.7,0.9c0.3,0.2,0.6,0.4,1,0.6c0.4,0.1,0.8,0.2,1.2,0.2
				c0.6,0,1.1-0.1,1.5-0.4c0.4-0.3,0.8-0.6,1.2-1l1.4,1c-1,1.3-2.4,2-4.2,2c-0.8,0-1.4-0.1-2.1-0.4c-0.6-0.3-1.1-0.6-1.6-1.1
				c-0.4-0.4-0.8-1-1-1.6c-0.2-0.6-0.3-1.3-0.3-2s0.1-1.4,0.4-2c0.2-0.6,0.6-1.1,1-1.6c0.4-0.5,1-0.8,1.6-1.1c0.6-0.3,1.3-0.4,2-0.4
				c0.8,0,1.6,0.1,2.2,0.4c0.6,0.3,1.1,0.7,1.4,1.2c0.4,0.5,0.7,1,0.8,1.6c0.2,0.6,0.3,1.2,0.3,1.8v0.6H119.5z"/>
			<path id="Fill-8" class="st1" d="M110.8,27.8c0.5,0,0.9-0.1,1.3-0.3c0.4-0.2,0.7-0.4,1-0.7c0.3-0.3,0.5-0.6,0.6-1
				c0.1-0.4,0.2-0.9,0.2-1.3c0-0.5-0.1-0.9-0.2-1.3c-0.1-0.4-0.4-0.8-0.6-1c-0.3-0.3-0.6-0.5-1-0.7c-0.4-0.2-0.8-0.3-1.3-0.3
				c-0.5,0-0.9,0.1-1.3,0.3c-0.4,0.2-0.7,0.4-1,0.7c-0.3,0.3-0.5,0.6-0.6,1c-0.1,0.4-0.2,0.9-0.2,1.3c0,0.5,0.1,0.9,0.2,1.3
				s0.4,0.8,0.6,1c0.3,0.3,0.6,0.5,1,0.7C109.8,27.7,110.3,27.8,110.8,27.8L110.8,27.8z M105.8,14h1.8v7.1h0
				c0.3-0.5,0.8-0.9,1.4-1.2c0.6-0.3,1.3-0.4,1.9-0.4c0.7,0,1.4,0.1,2,0.4c0.6,0.3,1.1,0.6,1.5,1.1c0.4,0.4,0.8,1,1,1.6
				c0.2,0.6,0.3,1.3,0.3,2s-0.1,1.4-0.3,2c-0.2,0.6-0.6,1.1-1,1.6c-0.4,0.5-0.9,0.8-1.5,1.1c-0.6,0.3-1.3,0.4-2,0.4
				c-0.6,0-1.3-0.1-1.9-0.4c-0.6-0.3-1.1-0.7-1.4-1.2h0v1.4h-1.8V14z"/>
			<path id="Fill-10" class="st1" d="M102.1,23.7c0-0.4-0.1-0.8-0.2-1.1c-0.1-0.3-0.3-0.6-0.5-0.9c-0.2-0.2-0.5-0.4-0.9-0.6
				c-0.3-0.1-0.7-0.2-1.2-0.2c-0.4,0-0.9,0.1-1.2,0.3c-0.4,0.2-0.7,0.4-0.9,0.7c-0.3,0.3-0.5,0.6-0.6,0.9c-0.1,0.3-0.2,0.7-0.2,1
				H102.1z M96.3,25.1c0,0.4,0.1,0.8,0.3,1.1c0.2,0.3,0.4,0.6,0.7,0.9c0.3,0.2,0.6,0.4,1,0.6c0.4,0.1,0.8,0.2,1.2,0.2
				c0.6,0,1.1-0.1,1.5-0.4c0.4-0.3,0.8-0.6,1.2-1l1.4,1c-1,1.3-2.4,2-4.2,2c-0.8,0-1.4-0.1-2.1-0.4c-0.6-0.3-1.1-0.6-1.6-1.1
				c-0.4-0.4-0.8-1-1-1.6c-0.2-0.6-0.3-1.3-0.3-2s0.1-1.4,0.4-2c0.2-0.6,0.6-1.1,1-1.6c0.4-0.5,1-0.8,1.6-1.1c0.6-0.3,1.3-0.4,2-0.4
				c0.8,0,1.6,0.1,2.2,0.4c0.6,0.3,1.1,0.7,1.4,1.2c0.4,0.5,0.7,1,0.8,1.6c0.2,0.6,0.3,1.2,0.3,1.8v0.6H96.3z"/>
			<path id="Fill-12" class="st1" d="M87.6,27.8c0.5,0,0.9-0.1,1.3-0.3c0.4-0.2,0.7-0.4,1-0.7c0.3-0.3,0.5-0.6,0.6-1
				c0.1-0.4,0.2-0.9,0.2-1.3c0-0.5-0.1-0.9-0.2-1.3c-0.1-0.4-0.4-0.8-0.6-1c-0.3-0.3-0.6-0.5-1-0.7c-0.4-0.2-0.8-0.3-1.3-0.3
				c-0.5,0-0.9,0.1-1.3,0.3c-0.4,0.2-0.7,0.4-1,0.7c-0.3,0.3-0.5,0.6-0.6,1c-0.1,0.4-0.2,0.9-0.2,1.3c0,0.5,0.1,0.9,0.2,1.3
				s0.4,0.8,0.6,1c0.3,0.3,0.6,0.5,1,0.7C86.7,27.7,87.1,27.8,87.6,27.8L87.6,27.8z M92.6,29.3h-1.8v-1.4h0
				c-0.4,0.5-0.8,0.9-1.4,1.2c-0.6,0.3-1.2,0.4-1.9,0.4c-0.7,0-1.4-0.1-2-0.4c-0.6-0.3-1.1-0.6-1.5-1.1c-0.4-0.5-0.8-1-1-1.6
				c-0.2-0.6-0.3-1.3-0.3-2s0.1-1.4,0.3-2c0.2-0.6,0.6-1.1,1-1.6c0.4-0.5,0.9-0.8,1.5-1.1c0.6-0.3,1.3-0.4,2-0.4
				c0.7,0,1.3,0.1,1.9,0.4c0.6,0.3,1.1,0.7,1.4,1.2h0V14h1.8V29.3z"/>
			<g id="Clip-15">
			</g>
			<defs>
				<filter id="Adobe_OpacityMaskFilter" filterUnits="userSpaceOnUse" x="78.3" y="15" width="2.7" height="14.3">
					<feColorMatrix  type="matrix" values="1 0 0 0 0  0 1 0 0 0  0 0 1 0 0  0 0 0 1 0"/>
				</filter>
			</defs>
			
				<mask maskUnits="userSpaceOnUse" x="78.3" y="15" width="2.7" height="14.3" id="mask-2_00000157290286920315261630000000267350708542702516_">
				<g class="st2">
					<polygon id="path-1_00000180335102154545718170000000913372673285932472_" class="st3" points="33.4,36.8 158.1,36.8 
						158.1,6.8 33.4,6.8 					"/>
				</g>
			</mask>
			<path id="Fill-14" class="st4" d="M78.7,29.3h1.8v-9.6h-1.8V29.3z M78.3,16.3c0-0.4,0.1-0.7,0.4-0.9c0.3-0.3,0.6-0.4,0.9-0.4
				c0.4,0,0.7,0.1,0.9,0.4c0.3,0.3,0.4,0.6,0.4,0.9s-0.1,0.7-0.4,0.9c-0.3,0.3-0.6,0.4-0.9,0.4c-0.4,0-0.7-0.1-0.9-0.4
				C78.4,17,78.3,16.6,78.3,16.3L78.3,16.3z"/>
			<defs>
				
					<filter id="Adobe_OpacityMaskFilter_00000152231697532910796250000000594128375986451618_" filterUnits="userSpaceOnUse" x="67" y="14.6" width="9.5" height="15">
					<feColorMatrix  type="matrix" values="1 0 0 0 0  0 1 0 0 0  0 0 1 0 0  0 0 0 1 0"/>
				</filter>
			</defs>
			
				<mask maskUnits="userSpaceOnUse" x="67" y="14.6" width="9.5" height="15" id="mask-2_00000158738926113713981060000000336358953257081780_">
				<g style="filter:url(#Adobe_OpacityMaskFilter_00000152231697532910796250000000594128375986451618_);">
					<polygon id="path-1_00000073003236680610857800000011788871652464859545_" class="st3" points="33.4,36.8 158.1,36.8 
						158.1,6.8 33.4,6.8 					"/>
				</g>
			</mask>
			<path id="Fill-16" class="st6" d="M68.6,26.3c0.4,0.5,0.8,0.9,1.3,1.2c0.5,0.2,1.1,0.4,1.7,0.4c0.3,0,0.7-0.1,1-0.2
				c0.3-0.1,0.6-0.3,0.9-0.5c0.3-0.2,0.5-0.4,0.7-0.7c0.2-0.3,0.3-0.6,0.3-1c0-0.6-0.2-1-0.5-1.3c-0.4-0.3-0.8-0.5-1.3-0.7
				c-0.5-0.2-1.1-0.4-1.7-0.6c-0.6-0.2-1.2-0.4-1.7-0.8c-0.5-0.3-1-0.8-1.3-1.3c-0.4-0.5-0.5-1.3-0.5-2.2c0-0.4,0.1-0.9,0.3-1.3
				c0.2-0.5,0.5-0.9,0.9-1.3c0.4-0.4,0.9-0.7,1.5-1c0.6-0.3,1.4-0.4,2.2-0.4c0.8,0,1.5,0.1,2.2,0.3c0.7,0.2,1.3,0.7,1.9,1.3
				l-1.6,1.4c-0.2-0.4-0.6-0.7-1-0.9c-0.4-0.2-1-0.3-1.5-0.3c-0.5,0-1,0.1-1.3,0.2c-0.4,0.1-0.6,0.3-0.9,0.5
				c-0.2,0.2-0.4,0.5-0.5,0.7c-0.1,0.3-0.1,0.5-0.1,0.7c0,0.6,0.2,1.1,0.5,1.4c0.4,0.3,0.8,0.6,1.3,0.8c0.5,0.2,1.1,0.4,1.7,0.5
				c0.6,0.2,1.2,0.4,1.7,0.7c0.5,0.3,1,0.7,1.3,1.2c0.4,0.5,0.5,1.2,0.5,2c0,0.7-0.1,1.3-0.4,1.9c-0.3,0.6-0.6,1-1.1,1.4
				c-0.4,0.4-1,0.7-1.6,0.9c-0.6,0.2-1.3,0.3-1.9,0.3c-0.9,0-1.8-0.2-2.6-0.5c-0.8-0.3-1.5-0.8-2-1.5L68.6,26.3z"/>
			<defs>
				
					<filter id="Adobe_OpacityMaskFilter_00000094603175373389086020000006472634738494861979_" filterUnits="userSpaceOnUse" x="149.6" y="14" width="8.5" height="15.2">
					<feColorMatrix  type="matrix" values="1 0 0 0 0  0 1 0 0 0  0 0 1 0 0  0 0 0 1 0"/>
				</filter>
			</defs>
			
				<mask maskUnits="userSpaceOnUse" x="149.6" y="14" width="8.5" height="15.2" id="mask-2_00000126284729559402004920000006852250463193312183_">
				<g style="filter:url(#Adobe_OpacityMaskFilter_00000094603175373389086020000006472634738494861979_);">
					<polygon id="path-1_00000040548356680951772720000011520156674151252871_" class="st3" points="33.4,36.8 158.1,36.8 
						158.1,6.8 33.4,6.8 					"/>
				</g>
			</mask>
			<path id="Fill-17" class="st8" d="M149.6,29.3h1.8v-4.9c0-0.6,0.1-1,0.2-1.4c0.1-0.4,0.3-0.7,0.6-1c0.2-0.3,0.5-0.5,0.8-0.6
				c0.3-0.1,0.7-0.2,1.1-0.2c0.3,0,0.6,0,0.8,0.1c0.3,0.1,0.5,0.2,0.7,0.4c0.2,0.2,0.4,0.4,0.5,0.8c0.1,0.3,0.2,0.7,0.2,1.1v5.6h1.8
				v-6.1c0-0.6-0.1-1.2-0.3-1.6c-0.2-0.5-0.4-0.8-0.8-1.1c-0.3-0.3-0.7-0.5-1.1-0.7c-0.4-0.1-0.9-0.2-1.3-0.2c-0.7,0-1.4,0.2-2,0.5
				c-0.6,0.3-1,0.7-1.2,1.2h0V14h-1.8V29.3z"/>
		</g>
	</g>
</g>
</svg>
