<?xml version="1.0" ?><svg viewBox="0 0 60 60" xmlns="http://www.w3.org/2000/svg"><title/><g data-name="Bot 33" id="Bot_33"><path d="M26,9a5,5,0,1,0-5,5A5,5,0,0,0,26,9ZM18,9a3,3,0,1,1,3,3A3,3,0,0,1,18,9Z"/><path d="M21.71,9.71A1,1,0,1,0,21,10,1.05,1.05,0,0,0,21.71,9.71Z"/><path d="M38,15a6,6,0,1,0-6-6A6,6,0,0,0,38,15Zm0-2a4,4,0,0,1-3.86-3h7.72A4,4,0,0,1,38,13Zm0-8a4,4,0,0,1,3.86,3H34.14A4,4,0,0,1,38,5Z"/><path d="M34,25H31a2,2,0,0,0-2,2v9a2,2,0,0,0,2,2h6a2,2,0,0,0,2-2V27a2,2,0,0,0-2-2Zm-3,2h2v9H31Zm6,9H35V27h2Z"/><path d="M26,28H25V26a1,1,0,0,0-2,0v2H22a1,1,0,0,0,0,2h1v7a1,1,0,0,0,2,0V30h1a1,1,0,0,0,0-2Z"/><path d="M47,44a2,2,0,0,0-2,2v6a1,1,0,0,0,1,1,8,8,0,0,0,8-8,1,1,0,0,0-1-1H50V42a2,2,0,0,0,2-2V33a2,2,0,0,0-2-2h-.06c-.52-4.16-4.28-5.65-6.94-5.94V23h3a2,2,0,0,0,2-2V17.57l4-2.42a2,2,0,0,0,1-1.71V7.68a2,2,0,0,0-1.26-1.86L48,4.32V2a2,2,0,0,0-2-2H14a2,2,0,0,0-2,2V4.32L8.26,5.82A2,2,0,0,0,7,7.68v5.76a2,2,0,0,0,1,1.72l4,2.42V21a2,2,0,0,0,2,2h3v2.06c-2.66.29-6.42,1.78-6.94,5.94H10a2,2,0,0,0-2,2v7a2,2,0,0,0,2,2v2H7a1,1,0,0,0-1,1,8,8,0,0,0,8,8,1,1,0,0,0,1-1V46a2,2,0,0,0-2-2H12V42h1a2,2,0,0,0,2-2V33a2,2,0,0,0-2-2h-.9c.54-2.89,3.36-3.69,4.9-3.91V41a1,1,0,0,0,1,1h2v3a2,2,0,0,0-2,2v2a2,2,0,0,0,2,2v3H17.62a2,2,0,0,0-1.79,1.11l-1,2A2,2,0,0,0,16.62,60H26a2,2,0,0,0,2-2V56a2,2,0,0,0-2-2V51a2,2,0,0,0,2-2V47a2,2,0,0,0-2-2V42h8v3a2,2,0,0,0-2,2v2a2,2,0,0,0,2,2v3a2,2,0,0,0-2,2v2a2,2,0,0,0,2,2h9.38a2,2,0,0,0,1.79-2.89l-1-2A2,2,0,0,0,42.38,54H40V51a2,2,0,0,0,2-2V47a2,2,0,0,0-2-2V42h2a1,1,0,0,0,1-1V27.09c1.54.22,4.37,1,4.9,3.91H47a2,2,0,0,0-2,2v7a2,2,0,0,0,2,2h1v2ZM13,46v4.92A6,6,0,0,1,8.08,46Zm0-6H10V33h3ZM51,7.68v5.76l-3,1.8V6.48ZM9,13.43V7.68l3-1.2v8.76ZM14,17V2H46V5h0V17h0v4H38.91A6,6,0,0,0,33,16H27a6,6,0,0,0-5.91,5H14Zm22.87,4H23.13A4,4,0,0,1,27,18h6A4,4,0,0,1,36.87,21ZM26,58H16.62l1-2H26Zm-2-4H22V51h2Zm2-5H20V47h6Zm-2-4H22V42h2ZM43.38,58H34V56h8.38ZM38,54H36V51h2Zm2-5H34V47h6Zm-2-4H36V42h2Zm3-5H19V23H41Zm6-7h3v7H47Zm4.92,13A6,6,0,0,1,47,50.92V46Z"/></g></svg>