<?xml version="1.0" ?><svg height="100" id="svg2" version="1.1" width="100" xmlns="http://www.w3.org/2000/svg" xmlns:cc="http://creativecommons.org/ns#" xmlns:dc="http://purl.org/dc/elements/1.1/" xmlns:inkscape="http://www.inkscape.org/namespaces/inkscape" xmlns:rdf="http://www.w3.org/1999/02/22-rdf-syntax-ns#" xmlns:sodipodi="http://sodipodi.sourceforge.net/DTD/sodipodi-0.dtd" xmlns:svg="http://www.w3.org/2000/svg"><defs id="defs4"/><g id="layer1" transform="translate(0,-952.36218)"><path d="M 9.9375 11.46875 A 1.0001 1.0001 0 0 0 9.40625 13.28125 L 24.6875 24.75 C 24.404304 25.290472 24.200954 25.879711 24.09375 26.5 L 15 26.5 C 12.916667 26.5 11.345519 26.71698 10.28125 27.78125 C 9.2169807 28.84552 9 30.41665 9 32.5 L 9 82.5 C 9 84.5833 9.2169803 86.1232 10.28125 87.1875 C 11.34552 88.2518 12.916667 88.5 15 88.5 L 85 88.5 C 87.083333 88.5 88.65448 88.2518 89.71875 87.1875 C 90.117851 86.788387 90.39971 86.34895 90.59375 85.8125 C 90.91715 84.918416 91 83.802063 91 82.5 L 91 32.5 C 91 31.979163 90.974471 31.488144 90.9375 31.03125 C 90.863558 30.117462 90.71501 29.346517 90.375 28.6875 C 90.204995 28.357991 89.984817 28.047317 89.71875 27.78125 C 88.654481 26.71698 87.083333 26.5 85 26.5 L 35.90625 26.5 C 35.799046 25.879711 35.595696 25.290472 35.3125 24.75 L 50.59375 13.28125 A 1.0001 1.0001 0 0 0 49.9375 11.46875 A 1.0001 1.0001 0 0 0 49.40625 11.6875 L 34.09375 23.15625 C 33.0193 22.147895 31.581955 21.5 30 21.5 C 28.410129 21.5 26.95111 22.138943 25.875 23.15625 L 10.59375 11.6875 A 1.0001 1.0001 0 0 0 9.9375 11.46875 z M 30 23.5 C 31.86551 23.5 33.394193 24.782091 33.84375 26.5 L 26.15625 26.5 C 26.605807 24.782091 28.13449 23.5 30 23.5 z M 15 28.5 L 24.71875 28.5 L 24.8125 28.5 A 1.0001 1.0001 0 0 0 25.21875 28.5 L 34.8125 28.5 A 1.0001 1.0001 0 0 0 35.21875 28.5 L 85 28.5 C 86.916667 28.5 87.845519 28.75177 88.28125 29.1875 C 88.716981 29.62323 89 30.58332 89 32.5 L 89 82.5 C 89 84.4167 88.71698 85.34555 88.28125 85.78125 C 87.84552 86.21705 86.916667 86.5 85 86.5 L 15 86.5 C 14.041666 86.5 13.338763 86.437725 12.8125 86.3125 C 12.549369 86.249887 12.334552 86.181566 12.15625 86.09375 C 11.977948 86.005934 11.827682 85.8902 11.71875 85.78125 C 11.28302 85.34555 11 84.4167 11 82.5 L 11 32.5 C 11 32.02083 11.029159 31.61635 11.0625 31.25 C 11.162524 30.15095 11.391952 29.514298 11.71875 29.1875 C 11.936616 28.969635 12.286237 28.804909 12.8125 28.6875 C 13.075631 28.628796 13.386581 28.592912 13.75 28.5625 C 14.113419 28.532088 14.520833 28.5 15 28.5 z M 14.8125 31.5 A 1.0001 1.0001 0 0 0 14 32.5 L 14 82.5 A 1.0001 1.0001 0 0 0 15 83.5 L 75 83.5 A 1.0001 1.0001 0 0 0 76 82.5 L 76 32.5 A 1.0001 1.0001 0 0 0 75 31.5 L 15 31.5 A 1.0001 1.0001 0 0 0 14.8125 31.5 z M 16 33.5 L 74 33.5 L 74 81.5 L 16 81.5 L 16 33.5 z M 79.8125 41.5 A 1.0043849 1.0043849 0 0 0 80 43.5 L 85 43.5 A 1.0001 1.0001 0 1 0 85 41.5 L 80 41.5 A 1.0001 1.0001 0 0 0 79.8125 41.5 z M 79.8125 46.5 A 1.0043849 1.0043849 0 0 0 80 48.5 L 85 48.5 A 1.0001 1.0001 0 1 0 85 46.5 L 80 46.5 A 1.0001 1.0001 0 0 0 79.8125 46.5 z M 79.8125 51.5 A 1.0043849 1.0043849 0 0 0 80 53.5 L 85 53.5 A 1.0001 1.0001 0 1 0 85 51.5 L 80 51.5 A 1.0001 1.0001 0 0 0 79.8125 51.5 z M 82.5 57.5 C 81.13111 57.5 80 58.6311 80 60 C 80 61.3689 81.13111 62.5 82.5 62.5 C 83.86889 62.5 85 61.3689 85 60 C 85 58.6311 83.86889 57.5 82.5 57.5 z M 82.5 59.5 C 82.78797 59.5 83 59.7121 83 60 C 83 60.2879 82.78797 60.5 82.5 60.5 C 82.21203 60.5 82 60.2879 82 60 C 82 59.7121 82.21203 59.5 82.5 59.5 z M 82.5 66.5 C 80.578843 66.5 79 68.0789 79 70 C 79 71.9211 80.578843 73.5 82.5 73.5 C 84.421157 73.5 86 71.9211 86 70 C 86 68.0789 84.421157 66.5 82.5 66.5 z M 82.5 68.5 C 83.340263 68.5 84 69.1597 84 70 C 84 70.8403 83.340263 71.5 82.5 71.5 C 81.659737 71.5 81 70.8403 81 70 C 81 69.1597 81.659737 68.5 82.5 68.5 z M 82.5 76.5 C 80.578843 76.5 79 78.0789 79 80 C 79 81.9211 80.578843 83.5 82.5 83.5 C 84.421157 83.5 86 81.9211 86 80 C 86 78.0789 84.421157 76.5 82.5 76.5 z M 82.5 78.5 C 83.340263 78.5 84 79.1597 84 80 C 84 80.8403 83.340263 81.5 82.5 81.5 C 81.659737 81.5 81 80.8403 81 80 C 81 79.1597 81.659737 78.5 82.5 78.5 z " id="path7416" style="font-size:medium;font-style:normal;font-variant:normal;font-weight:normal;font-stretch:normal;text-indent:0;text-align:start;text-decoration:none;line-height:normal;letter-spacing:normal;word-spacing:normal;text-transform:none;direction:ltr;block-progression:tb;writing-mode:lr-tb;text-anchor:start;baseline-shift:baseline;color:#000000;fill:#000000;fill-opacity:1;stroke:none;stroke-width:2;marker:none;visibility:visible;display:inline;overflow:visible;enable-background:accumulate;font-family:Sans;-inkscape-font-specification:Sans" transform="translate(0,952.36218)"/></g></svg>