<svg xmlns="http://www.w3.org/2000/svg" viewBox="0 0 500 433.01"><g id="a9b79bf4-1ca6-4796-ac6f-d7234a3494a7" data-name="Layer 5"><polygon points="81.54 312.84 138.17 411.03 362.54 411.03 419.14 312.9 434.65 329.7 375 433.01 125 433.01 65.56 330.05 81.54 312.84" style="fill:#fff"/><polygon points="59.6 274.8 25.98 216.52 138.17 22.01 362.54 22.01 474.73 216.52 440.79 275.36 456.5 291.86 500 216.51 375 0 125 0 0 216.51 43.43 291.73 59.6 274.8" style="fill:#fff"/></g><g id="a06cb737-f401-4b4c-b0e8-d3ecc9fc3a4d" data-name="ART"><text y="-32.51"/><path d="M312.22,157.94" transform="translate(0 -32.51)" style="fill:#fff"/><path d="M312.7,172.76H286.2V128.67q1.62,0,16.23-.32t27-.33a226.89,226.89,0,0,1,27.43,1.63,96.24,96.24,0,0,1,26,7,58.55,58.55,0,0,1,25.49,20.07q9.42,13.23,9.42,31.1,0,23.07-14.2,38.42t-26.85,22.83v.81q22.27,26,48.87,53.7c17.72,18.44,25.53,26.56,26.83,28L438.83,355c-2.38-2.5-15.94-16.79-30.45-33.12s-36.88-41.78-67.09-76.38l.16-1.46q6.18-1.63,16.42-7.08a84.24,84.24,0,0,0,17.24-11.8,53,53,0,0,0,10.49-13.66q4.47-8.13,4.47-21.8,0-12.53-6.58-21.56a37.91,37.91,0,0,0-18.12-13.26,69.25,69.25,0,0,0-19.84-4.31q-10.39-.73-19.18-.73-5.85,0-8.94.08c-2.06.05-3.58.08-4.55.08Z" transform="translate(0 -32.51)" style="fill:#fff"/><path d="M187.14,150c-1,0-2.49,0-4.55-.08s-5-.08-8.94-.08q-8.78,0-19.18.73a69.25,69.25,0,0,0-19.84,4.31,37.91,37.91,0,0,0-18.12,13.26q-6.58,9-6.58,21.56,0,13.67,4.47,21.8a53,53,0,0,0,10.49,13.66,84.24,84.24,0,0,0,17.24,11.8q10.25,5.44,16.42,7.08l.16,1.46q-45.32,51.9-67.09,76.38c-14.51,16.33-27.85,31-30.23,33.5L47.64,331.53c1.3-1.41,9.11-9.53,26.83-28s34-36.34,48.87-53.7v-.81q-12.66-7.49-26.85-22.83T82.29,187.8q0-17.87,9.42-31.1a58.55,58.55,0,0,1,25.49-20.07,96.24,96.24,0,0,1,26-7A226.89,226.89,0,0,1,170.61,128q12.34,0,27,.33t16.23.32v44.09H187.3Z" transform="translate(0 -32.51)" style="fill:#fff"/><path d="M214.34,216.18l-26.92,25.67c0-4.89-.11-61.56-.17-65.79q-.42-29.4-.43-30.61,2.4-.16,18.92-.85t32.11-.69a211.49,211.49,0,0,1,32.53,2.32,115.89,115.89,0,0,1,25.18,6.43q15.58,6.17,24.48,17.74T329,198.77a48,48,0,0,1-11.18,31.29q-11.17,13.63-25.51,18.6v1.72a77.84,77.84,0,0,1,22.9,5.57,58.45,58.45,0,0,1,19.49,12.94,51.3,51.3,0,0,1,11.11,16.29q3.76,8.91,3.76,21.94A55.82,55.82,0,0,1,340.7,338q-8.82,13.72-25.6,22.46a122.3,122.3,0,0,1-32.71,11.23,211.53,211.53,0,0,1-40.76,3.52q-17,0-34.86-.6t-20-.78c.35-21.94.57-84,.69-103.51l27.9,26.17c.17,19.84-.3,54-.3,55.4l9.16.43q5.73.26,11,.26a302.84,302.84,0,0,0,36.54-2.06q16.86-2.06,28.5-8.57A39.18,39.18,0,0,0,315.16,328a41.25,41.25,0,0,0,2.13-35.75A46,46,0,0,0,308,279q-5.82-5.83-16-9.43a66.26,66.26,0,0,0-22.2-3.6q-9.6,0-15.51.17c-3.95.11-12.12.17-13.37.17l0-20.57c8.45-.23,18.7-1.23,25.15-3a54.82,54.82,0,0,0,17.23-8,41.49,41.49,0,0,0,11.83-13.12,35,35,0,0,0,4.63-17.92,31.61,31.61,0,0,0-5.13-18.08,35.83,35.83,0,0,0-14-12.09,69,69,0,0,0-18.48-5.4,144.56,144.56,0,0,0-23.44-1.8q-8,0-14.8.26t-8.64.25Z" transform="translate(0 -32.51)" style="fill:#fff"/><polygon points="242.59 247.81 242.59 200.08 203.74 223.95 242.59 247.81" style="fill:#fff"/></g></svg>