<svg xmlns="http://www.w3.org/2000/svg" xmlns:xlink="http://www.w3.org/1999/xlink" viewBox="0 0 485.22 363.19"><defs><linearGradient id="aa464ddd-2ad3-4613-80e3-6e5a49fce418" x1="161.25" y1="716.86" x2="326.14" y2="605.64" gradientTransform="matrix(1, 0, 0, -1, 0, 946.28)" gradientUnits="userSpaceOnUse"><stop offset="0" stop-color="#fff"/><stop offset="1" stop-color="#e6e6e6"/></linearGradient><linearGradient id="b7fd5359-9833-4b18-979f-1b653ceee808" x1="339.87" y1="906.93" x2="339.87" y2="711.97" gradientTransform="matrix(1, 0, 0, -1, 0, 946.28)" gradientUnits="userSpaceOnUse"><stop offset="0" stop-color="#e6e6e6"/><stop offset="1" stop-color="#fff"/></linearGradient><linearGradient id="beac2316-34fc-4488-b580-601b9e969526" x1="172.44" y1="897.96" x2="136.8" y2="714.6" xlink:href="#aa464ddd-2ad3-4613-80e3-6e5a49fce418"/><clipPath id="aeade617-d735-4320-95f7-26e9d526c8e0" transform="translate(-5.84 -17.14)"><path id="bc9f767a-c1bf-44af-9c9f-f0125f113de9" data-name="color" d="M244.36,375.85a99.44,99.44,0,1,1,0-198.88l1.47,0c.22.47.43.94.66,1.41a99.42,99.42,0,0,0,88.67,57.42,99.48,99.48,0,0,1-90.8,140Z" style="fill:url(#aa464ddd-2ad3-4613-80e3-6e5a49fce418)"/></clipPath><clipPath id="eeae3a98-dfec-453b-9aee-92982deae4f7" transform="translate(-5.84 -17.14)"><path d="M335.77,235.39l-1.48,0A99.45,99.45,0,0,1,245.62,178c.19-.47.4-.93.59-1.4a99.62,99.62,0,0,0-1.67-80.22,99.45,99.45,0,1,1,91.23,139.06Z" style="fill:url(#b7fd5359-9833-4b18-979f-1b653ceee808)"/></clipPath><clipPath id="acd1a31a-ca6c-4084-94b2-c821e615d1d7" transform="translate(-5.84 -17.14)"><path d="M246.55,177.69l-1.24,0-1.48,0A99.48,99.48,0,0,0,152,238.87a99.38,99.38,0,1,1,94.55-61.18Z" style="fill:url(#beac2316-34fc-4488-b580-601b9e969526)"/></clipPath></defs><title>venn-our-philosophies</title><g style="isolation:isolate"><g id="e45f7d34-aaff-4a7a-a1b0-77d53f51ccd9" data-name="background"><g id="bb3a8275-36c8-47de-93bd-0f62d2c7ca60" data-name="circles background" style="mix-blend-mode:color-dodge"><path d="M157,363.29l-.61-.28.39-.82.61.28c1.16.54,2.33,1.07,3.49,1.59l-.36.83c-1.18-.52-2.35-1.05-3.52-1.6ZM152.33,361c-1.34-.67-2.69-1.37-4-2.08l.42-.8c1.33.71,2.69,1.41,4,2.07l-.4.81Zm12.38,5.65.35-.84c1.38.57,2.79,1.13,4.19,1.67l-.32.85c-1.41-.54-2.83-1.11-4.22-1.68Zm-20.39-9.91c-1.32-.75-2.64-1.51-3.93-2.28l.47-.78c1.27.77,2.59,1.53,3.9,2.27l-.44.79Zm28.87,13.16.3-.86c1.42.51,2.86,1,4.27,1.46l-.28.86c-1.42-.46-2.86-1-4.29-1.46ZM136.53,352.1c-1.28-.81-2.56-1.64-3.81-2.47l.51-.75c1.23.82,2.51,1.65,3.78,2.46l-.48.76Zm45.28,20.64.26-.87c1.45.43,2.91.85,4.34,1.24l-.24.88c-1.44-.4-2.91-.81-4.36-1.25ZM129,347.06c-1.23-.87-2.47-1.76-3.68-2.66l.55-.72c1.19.89,2.43,1.78,3.65,2.64l-.52.74Zm61.59,28.07.21-.88c1.46.35,2.94.7,4.4,1l-.19.89c-1.47-.33-3-.67-4.42-1ZM121.7,341.65c-1.19-.93-2.38-1.88-3.54-2.84l.57-.7c1.16.95,2.34,1.9,3.52,2.83l-.55.71Zm77.73,35.42.17-.89c1.49.29,3,.56,4.45.8l-.15.9c-1.48-.25-3-.52-4.47-.81Zm-84.74-41.19c-1.13-1-2.27-2-3.39-3l.61-.67c1.11,1,2.25,2,3.38,3l-.6.68Zm93.69,42.69.13-.9c1.47.21,3,.4,4.48.58l-.11.9c-1.51-.18-3-.37-4.5-.58ZM108,329.75c-1.08-1-2.17-2.11-3.25-3.19l.65-.64c1.06,1.08,2.15,2.15,3.22,3.18l-.62.65ZM217.4,379.61l.08-.9c1.48.13,3,.25,4.5.35l-.06.9c-1.51-.1-3-.21-4.52-.35ZM101.57,323.28c-1-1.11-2.08-2.24-3.08-3.35l.68-.6c1,1.1,2,2.23,3.06,3.33l-.66.62ZM226.44,380.2l0-.91c1.49.06,3,.1,4.5.13v.9c-1.51,0-3-.06-4.52-.12ZM95.5,316.5c-1-1.14-2-2.32-2.9-3.5l.7-.57c1,1.18,1.92,2.35,2.89,3.49l-.69.58Zm140,63.83v-.9c1.49,0,3-.05,4.5-.1l0,.9c-1.51,0-3,.09-4.53.1Zm-145.7-70.9c-.92-1.2-1.83-2.43-2.72-3.64l.73-.54c.88,1.21,1.79,2.43,2.71,3.63l-.72.55ZM244.53,380l-.06-.91c1.49-.09,3-.2,4.5-.33l.07.91c-1.5.12-3,.24-4.51.33ZM84.43,302.08c-.86-1.24-1.71-2.51-2.54-3.77l.76-.5c.82,1.26,1.67,2.52,2.53,3.76l-.75.51Zm169.12,77.16-.1-.9c1.48-.16,3-.35,4.47-.55l.13.9c-1.5.2-3,.39-4.5.55ZM79.45,294.48c-.79-1.28-1.58-2.6-2.34-3.9l.78-.46c.76,1.3,1.55,2.6,2.33,3.88l-.77.48ZM262.53,378l-.15-.89c1.47-.24,3-.5,4.45-.78l.16.89c-1.48.28-3,.55-4.46.78ZM74.87,286.63c-.74-1.32-1.46-2.67-2.15-4l.8-.42c.69,1.32,1.41,2.66,2.14,4l-.79.43Zm196.57,89.72-.19-.88c1.46-.31,2.94-.65,4.4-1l.21.88c-1.47.35-3,.68-4.42,1ZM70.68,278.58c-.67-1.36-1.32-2.74-2-4.11l.83-.37c.62,1.36,1.27,2.73,1.93,4.08l-.81.4Zm209.57,95.67-.23-.88c1.44-.38,2.91-.79,4.35-1.21l.25.87c-1.45.42-2.91.83-4.37,1.22ZM66.89,270.32c-.59-1.38-1.17-2.79-1.73-4.19l.84-.34c.55,1.4,1.14,2.81,1.72,4.18l-.83.35ZM289,371.7l-.28-.86c1.42-.45,2.86-.93,4.29-1.43l.29.86c-1.43.49-2.88,1-4.3,1.43ZM63.53,261.9c-.53-1.42-1-2.85-1.53-4.28l.86-.29c.48,1.42,1,2.85,1.51,4.25l-.84.32Zm234,106.83-.32-.85c1.4-.53,2.82-1.08,4.21-1.64l.34.84c-1.4.56-2.82,1.12-4.23,1.65ZM60.58,253.31c-.45-1.43-.89-2.89-1.31-4.34l.87-.25c.42,1.44.85,2.89,1.3,4.32l-.86.27ZM306,365.33l-.36-.83c1.38-.6,2.76-1.22,4.12-1.85l.38.82c-1.36.63-2.76,1.26-4.14,1.86ZM58.07,244.6c-.38-1.45-.75-2.94-1.09-4.4l.88-.21c.34,1.46.71,2.93,1.08,4.38l-.87.23ZM314.19,361.51l-.41-.81c1.36-.66,2.71-1.35,4-2.05l.42.8c-1.32.7-2.68,1.39-4,2.06ZM56,235.77c-.3-1.47-.6-3-.87-4.44l.89-.17c.27,1.47.56,3,.87,4.43l-.89.18ZM322.23,357.29l-.44-.79c1.3-.72,2.62-1.48,3.92-2.25l.46.79c-1.31.76-2.63,1.53-3.94,2.25ZM54.36,226.86c-.24-1.5-.46-3-.65-4.48l.9-.12c.19,1.46.41,3,.64,4.46l-.89.14ZM330.05,352.68l-.48-.77c1.26-.79,2.55-1.61,3.81-2.44l.5.75c-1.27.84-2.56,1.67-3.83,2.46ZM53.17,217.88c-.16-1.5-.3-3-.42-4.51l.9-.07c.12,1.48.26,3,.42,4.48l-.9.1ZM337.64,347.67l-.52-.74c1.23-.85,2.47-1.74,3.68-2.63l.54.73c-1.22.89-2.47,1.78-3.7,2.64ZM52.43,208.85c-.08-1.51-.15-3-.2-4.52l.91,0c0,1.49.11,3,.2,4.5l-.91,0ZM345,342.29l-.56-.71c1.18-.92,2.38-1.86,3.55-2.82l.57.7c-1.18,1-2.38,1.92-3.56,2.83ZM52.15,199.81c0-1.5,0-3,0-4.53l.9,0c0,1.5,0,3,0,4.5ZM352,336.55l-.59-.69c1.14-1,2.28-2,3.4-3l.61.67c-1.13,1-2.28,2-3.42,3ZM52.32,190.76c.06-1.5.15-3,.25-4.53l.9.06c-.1,1.5-.18,3-.25,4.51l-.9,0ZM358.78,330.45l-.63-.65c1.1-1,2.19-2.1,3.25-3.16l.64.64c-1.07,1.06-2.16,2.13-3.26,3.17ZM52.94,181.71c.14-1.51.3-3,.48-4.51l.9.1c-.18,1.48-.34,3-.48,4.49l-.9-.08ZM365.22,324l-.66-.62c1-1.08,2.07-2.2,3.09-3.32l.67.61c-1,1.12-2.06,2.25-3.1,3.33ZM54,172.7c.21-1.49.45-3,.71-4.49l.89.16c-.25,1.48-.49,3-.71,4.46L54,172.7ZM371.33,317.28l-.69-.59c1-1.13,1.95-2.29,2.9-3.46l.7.58c-1,1.17-1.94,2.34-2.91,3.47ZM55.55,163.75c.29-1.47.6-3,.93-4.44l.88.2c-.32,1.46-.63,3-.92,4.42l-.89-.18ZM377.07,310.26l-.71-.56c.91-1.18,1.83-2.39,2.72-3.6l.73.54c-.9,1.21-1.82,2.43-2.74,3.62ZM57.53,154.9c.36-1.46.75-2.94,1.15-4.39l.87.24c-.39,1.44-.78,2.91-1.15,4.36l-.87-.21ZM382.45,303l-.74-.52c.87-1.23,1.72-2.49,2.54-3.73l.76.5c-.83,1.25-1.69,2.51-2.56,3.75ZM60,146.15c.43-1.44.9-2.89,1.37-4.33l.86.29c-.47,1.43-.93,2.87-1.36,4.3l-.87-.26ZM387.47,295.38l-.77-.47c.8-1.28,1.59-2.58,2.35-3.86l.78.46c-.77,1.29-1.56,2.6-2.36,3.87ZM62.8,137.54c.51-1.42,1-2.85,1.59-4.25l.84.32c-.54,1.4-1.07,2.83-1.58,4.23l-.85-.3Zm329.29,150-.79-.44c.74-1.31,1.46-2.65,2.16-4l.8.42c-.7,1.33-1.43,2.67-2.17,4Zm-326-158.51c.58-1.38,1.18-2.78,1.8-4.16l.82.37c-.61,1.37-1.21,2.77-1.78,4.14l-.84-.35ZM396.33,279.55l-.81-.4c.66-1.34,1.32-2.71,2-4.07l.82.39c-.64,1.36-1.3,2.73-2,4.08ZM70.59,121.18l-.82-.39c.65-1.35,1.32-2.72,2-4.07l.81.41c-.68,1.34-1.35,2.7-2,4.05ZM398.24,273.43c.62-1.37,1.23-2.76,1.81-4.13l.83.35c-.58,1.38-1.2,2.78-1.82,4.16l-.82-.38ZM74.67,113.12l-.8-.43c.71-1.33,1.45-2.66,2.19-4l.79.45c-.74,1.3-1.47,2.63-2.18,4Zm327.1,152c.55-1.4,1.09-2.82,1.61-4.22l.85.32c-.52,1.4-1.06,2.83-1.62,4.23l-.84-.33ZM79.13,105.28l-.77-.47c.78-1.29,1.58-2.59,2.39-3.86l.76.49c-.8,1.26-1.6,2.55-2.38,3.84ZM404.88,256.65c.49-1.43,1-2.88,1.4-4.3l.86.28c-.44,1.42-.91,2.87-1.4,4.31l-.86-.29ZM84,97.66l-.75-.5c.83-1.25,1.7-2.5,2.58-3.74l.74.53c-.87,1.22-1.74,2.47-2.57,3.71ZM407.57,248c.41-1.45.81-2.91,1.18-4.36l.88.23c-.37,1.45-.77,2.92-1.19,4.38l-.87-.25ZM89.22,90.3l-.73-.54c.9-1.2,1.83-2.41,2.77-3.6l.71.56c-.93,1.18-1.86,2.39-2.75,3.58Zm320.61,149c.34-1.48.66-3,1-4.42l.89.19c-.3,1.46-.63,2.95-1,4.43l-.88-.2ZM94.81,83.21l-.7-.58c1-1.16,2-2.32,2.94-3.45l.69.59c-1,1.13-2,2.29-2.93,3.44ZM411.64,230.44c.26-1.47.51-3,.74-4.45l.89.13c-.22,1.49-.47,3-.74,4.48l-.89-.16Zm-310.89-154-.67-.61c1-1.11,2.08-2.23,3.13-3.32l.65.63c-1,1.08-2.09,2.19-3.11,3.3ZM413,221.51c.19-1.5.36-3,.51-4.48l.9.09c-.15,1.48-.32,3-.52,4.51l-.89-.12ZM107.05,69.9l-.64-.65c1.08-1.06,2.19-2.12,3.29-3.15l.62.66c-1.1,1-2.2,2.08-3.27,3.14ZM413.92,212.53c.11-1.49.21-3,.29-4.51l.9,0c-.08,1.51-.17,3-.29,4.53l-.9-.07ZM113.67,63.71l-.61-.67c1.13-1,2.29-2,3.44-3l.59.69c-1.15,1-2.3,2-3.42,3ZM414.38,203.53c0-1.5.06-3,.06-4.5h.9c0,1.49,0,3,0,4.52l-.91,0ZM120.58,57.87l-.56-.7c1.17-1,2.38-1.89,3.58-2.8l.55.72c-1.2.91-2.4,1.84-3.57,2.78ZM414.39,194.53c0-1.5-.09-3-.17-4.51l.91,0c.07,1.5.13,3,.16,4.52l-.9,0ZM127.78,52.39l-.53-.73c1.22-.89,2.47-1.77,3.72-2.62l.51.75c-1.24.85-2.48,1.72-3.7,2.6ZM414,185.53c-.11-1.5-.25-3-.39-4.49l.9-.09c.15,1.49.28,3,.39,4.51l-.9.07ZM135.24,47.28l-.49-.76c1.26-.82,2.55-1.63,3.84-2.43l.47.78c-1.28.78-2.56,1.59-3.82,2.41ZM413.06,176.56c-.19-1.49-.4-3-.62-4.46l.9-.14c.22,1.48.43,3,.61,4.49l-.89.11ZM143,42.55l-.46-.78c1.31-.76,2.64-1.51,4-2.23l.43.79c-1.31.72-2.64,1.47-3.93,2.22Zm268.77,125.1c-.26-1.46-.54-3-.84-4.44l.89-.17c.3,1.48.58,3,.84,4.45l-.89.16ZM150.87,38.21l-.41-.8c1.34-.69,2.7-1.38,4.06-2l.4.81c-1.35.65-2.71,1.33-4,2Zm259.07,120.6c-.34-1.48-.7-2.95-1.06-4.39l.88-.22c.37,1.44.72,2.92,1.06,4.4l-.88.21ZM159,34.27l-.38-.82c1.37-.62,2.77-1.24,4.16-1.83l.35.84c-1.38.58-2.77,1.19-4.13,1.81ZM407.72,150.06c-.4-1.44-.83-2.89-1.27-4.33l.86-.27c.45,1.45.87,2.91,1.28,4.35l-.87.25ZM167.32,30.74,167,29.9c1.4-.55,2.83-1.09,4.24-1.61l.31.85c-1.41.51-2.83,1.05-4.22,1.6ZM405.07,141.43c-.48-1.43-1-2.87-1.49-4.26l.85-.31c.51,1.4,1,2.84,1.5,4.28l-.86.29ZM175.8,27.64l-.29-.86c1.43-.48,2.88-1,4.31-1.4l.27.86c-1.43.44-2.87.91-4.29,1.4ZM402,132.94c-.55-1.4-1.12-2.81-1.7-4.18l.84-.35c.58,1.38,1.15,2.79,1.7,4.2l-.84.33ZM184.42,25l-.25-.87c1.45-.41,2.92-.81,4.38-1.18l.22.87c-1.45.38-2.91.77-4.35,1.18Zm214.07,99.67c-.61-1.37-1.25-2.74-1.9-4.1l.82-.39c.65,1.36,1.29,2.75,1.91,4.11l-.83.38ZM193.15,22.7l-.2-.88c1.47-.34,3-.67,4.43-1l.18.89c-1.46.3-2.95.62-4.41,1Zm201.43,93.77c-.67-1.33-1.38-2.68-2.1-4l.8-.43c.72,1.33,1.43,2.68,2.11,4l-.81.41ZM202,20.89l-.16-.89c1.48-.27,3-.52,4.47-.75l.14.9c-1.48.22-3,.47-4.45.74Zm188.29,87.64c-.75-1.3-1.52-2.61-2.31-3.89l.78-.47c.78,1.29,1.56,2.6,2.31,3.9l-.78.46Zm-179.38-89-.12-.9c1.49-.19,3-.37,4.5-.52l.09.9c-1.48.15-3,.33-4.47.52ZM385.57,100.8c-.81-1.26-1.65-2.53-2.49-3.77l.75-.51c.84,1.25,1.69,2.52,2.5,3.79l-.76.49ZM219.86,18.59l-.07-.9c1.5-.12,3-.22,4.52-.3l.05.91c-1.5.08-3,.18-4.5.29ZM380.49,93.32c-.88-1.22-1.78-2.45-2.68-3.64l.72-.55c.91,1.2,1.81,2.44,2.7,3.67l-.74.52ZM228.86,18.12l0-.91c1.5,0,3-.06,4.53-.07v.91c-1.5,0-3,0-4.5.07ZM375,86.11c-.94-1.18-1.9-2.36-2.86-3.51l.69-.58c1,1.15,1.94,2.34,2.88,3.52l-.71.57Zm-137.17-68,0-.9c1.5,0,3,.08,4.52.15l0,.91c-1.5-.07-3-.12-4.5-.16ZM369.22,79.17c-1-1.13-2-2.26-3-3.36l.67-.62c1,1.11,2,2.25,3,3.38l-.68.6ZM246.87,18.52l.06-.9c1.5.1,3,.23,4.52.38l-.09.9c-1.49-.14-3-.27-4.49-.38Zm116.19,54c-1.05-1.08-2.13-2.16-3.2-3.2l.63-.65c1.08,1,2.16,2.14,3.22,3.22l-.65.63ZM255.85,19.4l.11-.9c1.5.19,3,.39,4.5.61l-.14.9c-1.48-.22-3-.43-4.47-.61ZM356.57,66.21c-1.1-1-2.23-2-3.35-3l.6-.68c1.13,1,2.26,2,3.37,3l-.62.67ZM264.78,20.73l.16-.89c1.47.26,3,.54,4.46.84l-.18.89c-1.48-.3-3-.58-4.44-.84Zm85,39.51c-1.15-1-2.33-1.92-3.5-2.86l.56-.7c1.18.93,2.36,1.9,3.52,2.86l-.58.7ZM273.63,22.51l.21-.88c1.46.33,3,.69,4.41,1.06l-.22.88c-1.46-.37-2.93-.73-4.4-1.06Zm69.1,32.11c-1.2-.9-2.43-1.8-3.64-2.68l.53-.73c1.22.87,2.45,1.78,3.65,2.69l-.54.72ZM282.39,24.73l.24-.87c1.45.41,2.92.84,4.35,1.28l-.26.87c-1.43-.44-2.89-.87-4.33-1.28Zm53,24.63c-1.24-.84-2.51-1.67-3.77-2.49l.49-.76c1.27.82,2.54,1.66,3.78,2.5l-.5.75ZM291,27.39l.28-.86c1.44.48,2.88,1,4.29,1.5l-.31.85c-1.41-.51-2.84-1-4.26-1.49Zm36.77,17.09c-1.28-.78-2.59-1.55-3.89-2.3l.45-.78c1.31.75,2.63,1.53,3.91,2.31l-.47.77Zm-28.29-14,.33-.85c1.4.55,2.82,1.13,4.21,1.71l-.35.84c-1.39-.59-2.8-1.16-4.19-1.7ZM320,40c-1.32-.71-2.66-1.42-4-2.1l.42-.8c1.34.68,2.69,1.39,4,2.11L320,40Zm-12.14-6,.37-.82,2.28,1,1.84.87-.39.82L310,35l-2.21-1Z" transform="translate(-5.84 -17.14)" style="fill:#02c9fb"/><path d="M363.35,245.88l.36-.83c1.37.61,2.77,1.18,4.17,1.72l-.33.84c-1.4-.53-2.82-1.12-4.2-1.73Zm-4.12-1.94c-1.35-.67-2.7-1.39-4-2.13l.45-.79c1.3.73,2.64,1.44,4,2.12l-.4.8Zm12.61,5.2.28-.87c1.42.47,2.87.9,4.31,1.3l-.24.87c-1.45-.4-2.91-.83-4.35-1.3Zm-20.53-9.67c-1.28-.8-2.55-1.65-3.78-2.52l.52-.74c1.22.86,2.48,1.7,3.74,2.5l-.48.76Zm29.3,12.06.19-.89c1.46.32,2.95.61,4.42.86l-.14.89c-1.49-.25-3-.54-4.47-.86Zm-36.73-17.29c-1.19-.93-2.37-1.91-3.51-2.89l.59-.69c1.13,1,2.3,1.94,3.47,2.86l-.55.72ZM389.58,253l.1-.9c1.49.17,3,.3,4.49.4l-.06.9c-1.5-.09-3-.23-4.53-.4ZM337,228.28c-1.1-1.05-2.18-2.14-3.21-3.24l.66-.62c1,1.09,2.09,2.17,3.17,3.21l-.62.65Zm61.63,25.34,0-.91c1.49,0,3,0,4.49-.05l0,.91c-1.5.05-3,.07-4.54.05Zm-67.88-32c-1-1.15-1.95-2.35-2.87-3.54l.72-.56c.91,1.19,1.87,2.37,2.84,3.51l-.69.59Zm77,31.64-.08-.9c1.49-.13,3-.29,4.47-.5l.12.9c-1.49.21-3,.37-4.51.5Zm-82.51-38.87c-.86-1.24-1.7-2.52-2.49-3.81l.76-.47c.79,1.27,1.62,2.54,2.47,3.77l-.74.51Zm91.51,37.65-.17-.89c1.47-.28,2.95-.59,4.41-.94l.21.88c-1.48.35-3,.67-4.45.95Zm-96.31-45.38c-.73-1.32-1.43-2.68-2.1-4l.82-.4c.65,1.35,1.35,2.69,2.08,4l-.8.44ZM425.56,250l-.25-.87c1.43-.42,2.87-.88,4.28-1.37l.3.86c-1.42.49-2.88,1-4.33,1.38ZM316.41,198.51c-.59-1.39-1.16-2.81-1.69-4.22l.85-.31c.52,1.39,1.09,2.8,1.68,4.18l-.84.35ZM434.15,247l-.34-.84c1.39-.57,2.78-1.17,4.13-1.79l.38.82c-1.36.63-2.77,1.24-4.17,1.81Zm-120.9-57c-.46-1.44-.88-2.91-1.26-4.37l.87-.23c.38,1.44.8,2.9,1.25,4.33l-.86.27Zm129.16,53.15-.43-.8c1.33-.7,2.66-1.43,3.94-2.19l.46.78c-1.3.76-2.64,1.51-4,2.21ZM310.94,181.2c-.31-1.48-.58-3-.82-4.48l.9-.14c.23,1.48.5,3,.81,4.43l-.89.19Zm139.3,57.31-.5-.75c1.25-.83,2.5-1.69,3.7-2.58l.54.73q-1.83,1.35-3.74,2.6ZM309.52,172.22c-.16-1.5-.28-3-.37-4.53l.91-.05c.08,1.49.21,3,.37,4.48l-.91.1Zm148.06,60.9-.57-.7c1.16-.95,2.32-1.93,3.42-2.94l.61.68c-1.12,1-2.28,2-3.46,3ZM309,163.15c0-1.51,0-3,.08-4.53l.91,0c-.07,1.48-.1,3-.09,4.49ZM464.35,227l-.64-.64c1.06-1.06,2.1-2.16,3.11-3.27l.67.61c-1,1.12-2.07,2.23-3.14,3.3Zm-155-72.94c.15-1.51.33-3,.54-4.52l.9.13c-.21,1.48-.4,3-.54,4.47l-.9-.08Zm161.06,66.19-.7-.57c.95-1.16,1.88-2.36,2.76-3.56l.73.54c-.9,1.21-1.83,2.42-2.79,3.59ZM310.71,145.08c.29-1.48.62-3,1-4.44l.88.22c-.36,1.45-.69,2.93-1,4.39l-.89-.17ZM475.85,213l-.75-.5c.83-1.25,1.63-2.53,2.39-3.82l.78.47c-.77,1.29-1.58,2.59-2.42,3.85Zm-162.94-76.7c.44-1.44.92-2.9,1.43-4.31l.85.3c-.5,1.41-1,2.84-1.41,4.28l-.87-.27Zm167.58,68.88-.8-.42c.69-1.32,1.37-2.68,2-4l.82.38c-.64,1.38-1.32,2.75-2,4.08ZM316,127.7c.5-1.2,1-2.39,1.57-3.56l.29-.6.81.39-.28.59c-.54,1.16-1.06,2.34-1.55,3.52l-.84-.34Zm167,70.05c.59-1.38,1.15-2.79,1.66-4.19l.85.32c-.52,1.4-1.08,2.83-1.67,4.23l-.84-.36ZM320.68,119.91l-.79-.43c.71-1.33,1.47-2.66,2.25-4l.77.47c-.77,1.28-1.52,2.59-2.23,3.91ZM486.1,189.3c.44-1.43.86-2.88,1.23-4.33l.88.22c-.38,1.47-.8,2.94-1.25,4.38l-.86-.27ZM325.33,112.2l-.75-.51c.84-1.25,1.73-2.5,2.63-3.7l.73.54c-.9,1.19-1.77,2.43-2.61,3.67Zm163,68.38c.3-1.46.57-3,.79-4.43l.9.14c-.23,1.49-.5,3-.8,4.47l-.89-.18ZM330.72,105l-.69-.58c1-1.16,2-2.31,3-3.42l.67.61c-1,1.1-2,2.24-3,3.39Zm159,66.69c.15-1.48.26-3,.34-4.49l.9.05c-.07,1.51-.19,3-.34,4.53l-.9-.09ZM336.83,98.36l-.64-.65c1.08-1.06,2.2-2.11,3.33-3.11l.6.67c-1.12,1-2.23,2-3.29,3.09ZM490.15,162.7c0-1.49,0-3-.11-4.49l.91-.05c.07,1.51.11,3,.11,4.54ZM343.57,92.36l-.57-.7c1.18-1,2.4-1.88,3.62-2.76l.53.73c-1.21.88-2.41,1.79-3.58,2.73Zm146.14,61.36c-.15-1.49-.34-3-.56-4.46l.89-.14c.23,1.49.42,3,.57,4.51l-.9.09ZM350.87,87.08l-.49-.76c1.26-.82,2.57-1.62,3.88-2.39l.45.79c-1.3.75-2.59,1.55-3.84,2.36Zm137.5,57.74c-.3-1.46-.64-2.94-1-4.38l.87-.23c.38,1.46.72,2.95,1,4.44l-.88.17ZM358.66,82.55l-.41-.8c1.34-.69,2.71-1.36,4.09-2l.38.83c-1.37.62-2.73,1.28-4.06,2ZM486.15,136.1c-.44-1.42-.92-2.86-1.43-4.27l.85-.31c.51,1.42,1,2.87,1.44,4.32l-.86.26ZM366.86,78.83l-.33-.85c1.41-.55,2.84-1.08,4.27-1.56l.29.85c-1.41.48-2.83,1-4.23,1.56Zm116.21,48.81c-.58-1.38-1.2-2.76-1.84-4.11l.81-.39c.66,1.36,1.28,2.76,1.87,4.15l-.84.35ZM375.39,75.93l-.25-.87c1.46-.41,2.94-.79,4.4-1.13l.21.88c-1.46.33-2.92.71-4.36,1.12Zm103.78,43.59c-.71-1.32-1.47-2.63-2.25-3.91l.78-.47c.78,1.29,1.54,2.62,2.27,4l-.8.43Zm-95-45.62L384,73c1.47-.27,3-.5,4.49-.69l.11.89c-1.48.2-3,.43-4.44.69Zm90.32,37.93c-.84-1.24-1.72-2.47-2.63-3.67l.72-.54c.92,1.2,1.81,2.45,2.66,3.7l-.75.51Zm-81.4-39.08-.07-.9c1.5-.12,3-.2,4.53-.24l0,.9c-1.49,0-3,.12-4.49.24Zm76,31.89c-1-1.15-2-2.29-3-3.39l.66-.61c1,1.11,2,2.26,3,3.41l-.7.59Zm-67-32.14,0-.91c1.51,0,3,.11,4.53.22l-.06.9c-1.49-.11-3-.18-4.49-.21ZM462.9,98c-1.07-1-2.18-2.07-3.3-3l.6-.68c1.13,1,2.25,2,3.33,3.09l-.63.64ZM411,73.15l.11-.9c1.5.18,3,.41,4.5.67l-.16.89c-1.47-.26-3-.48-4.45-.66Zm45.11,18.93c-1.17-.93-2.38-1.85-3.59-2.71l.53-.74c1.22.88,2.44,1.8,3.63,2.74l-.57.71ZM419.9,74.7l.2-.89c1.47.34,2.95.71,4.41,1.12l-.25.87c-1.44-.4-2.9-.77-4.36-1.1Zm28.92,12.14c-1.25-.81-2.55-1.59-3.85-2.34l.46-.78c1.3.75,2.61,1.54,3.88,2.36l-.49.76Zm-20.25-9.71.29-.86c1.43.48,2.87,1,4.27,1.55l-.33.84c-1.39-.54-2.81-1.06-4.23-1.53ZM441,82.36c-1.33-.68-2.69-1.34-4.06-2l.37-.82c1.38.61,2.76,1.28,4.11,2l-.42.81Z" transform="translate(-5.84 -17.14)" style="fill:#02c9fb"/><path d="M63.62,320.63c-.59-.27-1.18-.55-1.76-.84l.39-.81c1.35.66,2.72,1.29,4.1,1.89l-.37.83c-.79-.35-1.57-.7-2.36-1.07Zm-5.8-2.93c-1.33-.72-2.65-1.49-3.94-2.27l.47-.77c1.28.77,2.59,1.53,3.9,2.24l-.43.8Zm12.37,5.72.33-.85c1.39.54,2.81,1.05,4.24,1.52l-.29.86c-1.43-.48-2.88-1-4.28-1.53ZM50.05,313c-1.26-.84-2.51-1.72-3.72-2.61l.54-.73c1.2.88,2.44,1.75,3.68,2.59l-.5.75Zm28.77,13.31.24-.87c1.45.4,2.91.78,4.37,1.12l-.21.88c-1.47-.34-3-.72-4.4-1.13ZM42.74,307.58c-1.17-.95-2.33-1.94-3.46-2.95l.6-.67c1.12,1,2.27,2,3.43,2.92l-.57.7Zm44.93,20.78.16-.89c1.48.27,3,.51,4.45.72l-.12.89c-1.5-.2-3-.45-4.49-.72ZM35.94,301.52c-1.08-1.06-2.15-2.15-3.18-3.26l.66-.62c1,1.1,2.09,2.18,3.16,3.23l-.64.65Zm60.73,28.09.09-.9c1.49.13,3,.24,4.49.31l0,.9c-1.51-.07-3-.17-4.54-.31ZM29.73,294.86c-1-1.15-1.95-2.34-2.87-3.53l.71-.56c.92,1.19,1.88,2.36,2.85,3.5l-.69.59Zm76,35.17v-.9c1.49,0,3,0,4.49-.1l0,.9c-1.5.07-3,.1-4.54.1ZM24.15,287.66c-.87-1.23-1.73-2.51-2.54-3.77l.77-.49c.8,1.25,1.65,2.51,2.51,3.74l-.74.52Zm90.66,42-.08-.91c1.48-.13,3-.3,4.47-.5l.12.89c-1.49.21-3,.38-4.51.52ZM19.25,280c-.75-1.32-1.49-2.66-2.18-4l.8-.41c.69,1.32,1.42,2.65,2.17,4l-.79.46Zm104.56,48.4-.16-.89c1.46-.27,2.95-.57,4.41-.91l.2.88c-1.47.34-3,.65-4.45.92ZM15.07,271.92c-.63-1.38-1.24-2.78-1.81-4.18l.84-.34c.56,1.38,1.16,2.77,1.79,4.14l-.82.38Zm117.59,54.45-.24-.88c1.44-.4,2.89-.84,4.31-1.3l.28.86c-1.43.47-2.89.91-4.35,1.32Zm-121-62.87c-.51-1.43-1-2.88-1.43-4.32l.87-.26c.43,1.42.91,2.86,1.41,4.27l-.85.31Zm129.66,60-.32-.85c1.4-.53,2.8-1.09,4.18-1.69l.36.83c-1.39.6-2.81,1.17-4.22,1.71ZM9,254.81c-.37-1.47-.72-3-1-4.43l.89-.18c.3,1.46.65,2.93,1,4.38l-.88.23Zm140.67,65.13-.39-.81c1.35-.66,2.7-1.35,4-2.07l.43.8c-1.32.72-2.68,1.42-4,2.08Zm-142.53-74c-.24-1.48-.45-3-.63-4.49l.9-.11c.17,1.49.38,3,.62,4.46l-.89.14ZM157.65,315.6l-.47-.77c1.28-.78,2.56-1.59,3.81-2.42l.5.75c-1.25.84-2.55,1.66-3.84,2.44ZM6.07,236.9c-.11-1.51-.18-3-.22-4.54l.91,0c0,1.49.11,3,.21,4.49l-.9.07Zm159.15,73.65-.53-.73c1.2-.88,2.4-1.81,3.57-2.75l.57.7c-1.18,1-2.39,1.89-3.61,2.78ZM5.84,227.82c0-1.5.1-3,.2-4.53l.9.06c-.09,1.49-.16,3-.19,4.49l-.91,0Zm166.47,77-.6-.67c1.12-1,2.23-2,3.31-3.08l.63.65c-1.08,1-2.21,2.1-3.34,3.1ZM6.45,218.76c.16-1.5.37-3,.61-4.5l.89.14c-.23,1.47-.44,3-.6,4.47l-.9-.11Zm172.39,79.73-.66-.63c1-1.09,2-2.22,3-3.35l.69.59c-1,1.14-2,2.28-3,3.39Zm-171-88.7c.31-1.48.65-3,1-4.43l.88.22c-.37,1.45-.71,2.93-1,4.39l-.89-.18Zm176.89,81.79L184,291c.92-1.18,1.83-2.39,2.69-3.61l.74.52c-.87,1.23-1.78,2.46-2.71,3.65ZM10.12,201c.44-1.44.91-2.89,1.42-4.32l.85.3c-.5,1.42-1,2.85-1.41,4.28l-.86-.26ZM190,284.17l-.76-.49c.8-1.26,1.59-2.55,2.35-3.85l.78.46c-.76,1.31-1.56,2.61-2.37,3.88ZM13.15,192.41c.57-1.39,1.17-2.8,1.8-4.17l.83.37c-.63,1.37-1.23,2.76-1.79,4.14l-.84-.34ZM194.58,276.3l-.8-.41c.69-1.32,1.36-2.68,2-4,.18-.39.36-.77.53-1.15l.83.37-.54,1.16c-.64,1.37-1.31,2.74-2,4.07ZM17.75,184.56l-.81-.41c.69-1.35,1.42-2.69,2.17-4l.78.45c-.74,1.3-1.46,2.63-2.14,4Zm180.31,82c.55-1.39,1.08-2.81,1.57-4.22l.86.29c-.5,1.43-1,2.86-1.59,4.26l-.84-.33ZM22.22,176.74l-.76-.48c.8-1.28,1.65-2.55,2.52-3.79l.74.52c-.86,1.23-1.7,2.49-2.5,3.75ZM201,258c.43-1.44.83-2.9,1.19-4.35l.87.22c-.36,1.46-.76,2.94-1.19,4.39L201,258ZM27.39,169.36l-.72-.55c.92-1.2,1.88-2.39,2.85-3.54l.7.59c-1,1.14-1.92,2.32-2.83,3.5Zm175.79,79.93c.29-1.46.55-3,.78-4.43l.89.14c-.22,1.49-.49,3-.78,4.47l-.89-.18Zm-170-86.81-.66-.61c1-1.11,2.1-2.21,3.17-3.27l.64.64c-1.07,1-2.13,2.14-3.15,3.24Zm171.34,77.91c.15-1.48.28-3,.37-4.49l.9,0c-.09,1.51-.21,3-.37,4.53l-.9-.09ZM39.64,156.15l-.61-.67c1.13-1,2.3-2,3.46-3l.58.7c-1.16.95-2.31,1.94-3.43,2.94Zm165.43,75.26c0-1.49,0-3,0-4.5l.9,0c.05,1.5.06,3,0,4.53Zm-158.44-81-.55-.73c1.21-.9,2.46-1.78,3.72-2.63l.5.75c-1.24.84-2.48,1.72-3.67,2.61Zm158.16,72c-.11-1.49-.26-3-.44-4.48l.89-.11c.19,1.5.34,3,.45,4.52l-.9.07Zm-150.69-77-.47-.77c1.28-.79,2.61-1.56,3.93-2.29l.44.79c-1.31.73-2.63,1.49-3.9,2.27Zm149.59,68.1c-.24-1.47-.53-3-.85-4.42l.89-.19c.32,1.47.61,3,.86,4.46l-.9.15ZM62,141l-.39-.81c1.35-.67,2.74-1.32,4.12-1.92l.36.83c-1.37.6-2.74,1.24-4.09,1.9Zm139.8,63.65c-.38-1.44-.8-2.9-1.24-4.32l.86-.28c.45,1.44.87,2.91,1.26,4.37l-.88.23ZM70.25,137.42l-.33-.84c1.41-.54,2.85-1.06,4.28-1.54l.29.86c-1.42.47-2.84,1-4.24,1.52ZM199.1,196.1c-.51-1.41-1.06-2.82-1.63-4.21l.84-.34c.57,1.39,1.13,2.82,1.65,4.24l-.86.31ZM78.79,134.57l-.25-.87c1.46-.42,2.93-.8,4.4-1.15l.21.88c-1.45.35-2.92.73-4.36,1.14Zm116.86,53.2c-.64-1.35-1.31-2.71-2-4l.8-.43c.71,1.34,1.39,2.71,2,4.08l-.82.38ZM87.56,132.5l-.17-.89c1.48-.28,3-.53,4.48-.75l.13.9c-1.48.21-3,.46-4.44.74Zm103.89,47.3c-.76-1.3-1.55-2.59-2.36-3.85l.76-.49c.82,1.27,1.62,2.57,2.38,3.88l-.78.46Zm-95-48.57-.08-.9c1.49-.15,3-.26,4.53-.34l0,.9c-1.49.08-3,.19-4.49.34Zm90.09,41c-.87-1.21-1.78-2.43-2.71-3.61l.72-.55c.93,1.18,1.85,2.41,2.73,3.64l-.74.52Zm-81.1-41.45v-.91c1.51,0,3,0,4.54.08l0,.91c-1.49-.06-3-.09-4.49-.08ZM181,165.13c-1-1.13-2-2.26-3-3.35l.66-.62c1,1.1,2.07,2.23,3,3.38l-.69.59Zm-66.55-34,.08-.9c1.51.13,3,.29,4.52.49l-.12.9c-1.48-.2-3-.36-4.48-.49Zm60.35,27.44c-1.08-1-2.19-2.07-3.31-3l.6-.68c1.13,1,2.25,2,3.34,3.08l-.63.65Zm-51.42-26.26.16-.89c1.49.27,3,.57,4.46.91l-.2.88c-1.46-.33-2.94-.63-4.42-.9ZM168,152.62c-1.17-.94-2.37-1.86-3.58-2.74l.53-.73c1.22.89,2.44,1.82,3.62,2.76l-.57.71Zm-35.87-18.31.24-.88c1.45.4,2.92.85,4.35,1.31l-.28.86c-1.42-.46-2.87-.89-4.31-1.29Zm28.59,13c-1.24-.82-2.53-1.63-3.81-2.4l.46-.78c1.3.78,2.59,1.59,3.85,2.43l-.5.75Zm-20-10.22.31-.84c1.41.52,2.83,1.09,4.22,1.69l-.36.83c-1.37-.59-2.78-1.15-4.17-1.68Zm12.29,5.6c-1.31-.71-2.66-1.4-4-2.05l.39-.82c1.36.66,2.72,1.35,4.05,2.07l-.43.8Z" transform="translate(-5.84 -17.14)" style="fill:#02c9fb"/><path d="M369.7,80.73a4.53,4.53,0,1,1-2.19-6A4.53,4.53,0,0,1,369.7,80.73Z" transform="translate(-5.84 -17.14)" style="fill:#02c9fb"/><path d="M410.51,254.62a4.53,4.53,0,1,1-2.19-6A4.53,4.53,0,0,1,410.51,254.62Z" transform="translate(-5.84 -17.14)" style="fill:#02c9fb"/><path d="M109.17,330.93a4.53,4.53,0,1,1-2.19-6A4.54,4.54,0,0,1,109.17,330.93Z" transform="translate(-5.84 -17.14)" style="fill:#02c9fb"/><path d="M67.16,140.51a4.53,4.53,0,1,1-2.19-6A4.53,4.53,0,0,1,67.16,140.51Z" transform="translate(-5.84 -17.14)" style="fill:#02c9fb"/></g></g><g id="f7e4dbbb-5bfb-4e5b-bd94-f9bdff570bca" data-name="design"><g id="bfe96099-66c8-4644-bdd5-d262f607b208" data-name="paper venn diagram"><path id="f4f88d02-f9ca-4773-b441-5eb5f5f1cf1a" data-name="color" d="M244.36,375.85a99.44,99.44,0,1,1,0-198.88l1.47,0c.22.47.43.94.66,1.41a99.42,99.42,0,0,0,88.67,57.42,99.48,99.48,0,0,1-90.8,140Z" transform="translate(-5.84 -17.14)" style="fill:url(#aa464ddd-2ad3-4613-80e3-6e5a49fce418)"/><g style="clip-path:url(#aeade617-d735-4320-95f7-26e9d526c8e0)"><g style="mix-blend-mode:multiply"><path d="M321.92,249.57l-1.45-.31a99.44,99.44,0,0,1-75.82-73.56l.85-1.25a99.61,99.61,0,0,0,14-79,99.45,99.45,0,1,1,62.46,154.14Z" transform="translate(-5.84 -17.14)" style="fill:#fff;opacity:0"/><path d="M322.2,249.24l-1.44-.3a99.35,99.35,0,0,1-76.06-73.19l.85-1.25a99.55,99.55,0,0,0,13.61-79,99.37,99.37,0,1,1,63,153.75Z" transform="translate(-5.84 -17.14)" style="fill:#fefefe;opacity:0.02173913083970609"/><path d="M322.49,248.91l-1.44-.29a99.31,99.31,0,0,1-76.31-72.81c.29-.42.57-.83.85-1.26a99.48,99.48,0,0,0,13.28-79,99.28,99.28,0,1,1,63.62,153.36Z" transform="translate(-5.84 -17.14)" style="fill:#fcfcfc;opacity:0.04347826125608312"/><path d="M322.78,248.58c-.48-.08-1-.18-1.44-.28a99.21,99.21,0,0,1-76.55-72.43c.29-.42.56-.84.84-1.26a99.4,99.4,0,0,0,12.94-79,99.2,99.2,0,1,1,64.21,153Z" transform="translate(-5.84 -17.14)" style="fill:#fbfbfb;opacity:0.06521739167246014"/><path d="M323.07,248.26l-1.44-.28a99.13,99.13,0,0,1-76.79-72.06c.28-.42.56-.84.83-1.26a99.3,99.3,0,0,0,12.6-79,99.13,99.13,0,1,1,64.8,152.59Z" transform="translate(-5.84 -17.14)" style="fill:#f9f9fa;opacity:0.08695652208883717"/><path d="M323.36,247.93l-1.45-.27a99.05,99.05,0,0,1-77-71.68c.28-.42.55-.84.82-1.27a99.19,99.19,0,0,0,12.26-79,99.05,99.05,0,1,1,65.39,152.2Z" transform="translate(-5.84 -17.14)" style="fill:#f8f8f8;opacity:0.1086956525052142"/><path d="M323.65,247.6l-1.45-.26A99,99,0,0,1,244.94,176l.82-1.26a99.23,99.23,0,0,0,11.92-79,99,99,0,1,1,66,151.81Z" transform="translate(-5.84 -17.14)" style="fill:#f6f7f7;opacity:0.13043478292159122"/><path d="M323.94,247.28l-1.45-.26A98.93,98.93,0,0,1,245,176.09c.28-.42.55-.85.82-1.27a99.12,99.12,0,0,0,11.58-79,98.91,98.91,0,1,1,66.56,151.42Z" transform="translate(-5.84 -17.14)" style="fill:#f5f5f5;opacity:0.15217391333796826"/><path d="M324.23,247l-1.45-.25A98.85,98.85,0,0,1,245,176.14l.81-1.27a99,99,0,0,0,11.24-78.95,98.83,98.83,0,1,1,67.15,151Z" transform="translate(-5.84 -17.14)" style="fill:#f3f4f4;opacity:0.1739130437543453"/><path d="M324.51,246.62c-.48-.07-1-.16-1.44-.24a98.79,98.79,0,0,1-78-70.18c.27-.43.54-.85.8-1.28A99,99,0,0,0,256.79,96a98.76,98.76,0,1,1,67.72,150.64Z" transform="translate(-5.84 -17.14)" style="fill:#f2f2f3;opacity:0.19565217417072234"/><path d="M324.8,246.3l-1.44-.25a98.67,98.67,0,0,1-78.23-69.8c.27-.42.53-.85.79-1.27A98.89,98.89,0,0,0,256.49,96,98.7,98.7,0,1,1,324.8,246.3Z" transform="translate(-5.84 -17.14)" style="fill:#f0f1f1;opacity:0.21739130458709938"/><path d="M325.09,246l-1.44-.24a98.62,98.62,0,0,1-78.47-69.42L246,175A98.85,98.85,0,0,0,256.19,96.1,98.63,98.63,0,1,1,325.09,246Z" transform="translate(-5.84 -17.14)" style="fill:#efeff0;opacity:0.23913043500347642"/><path d="M325.38,245.64l-1.45-.23a98.56,98.56,0,0,1-78.71-69c.27-.42.53-.85.79-1.28a98.82,98.82,0,0,0,9.89-78.92,98.57,98.57,0,1,1,69.48,149.48Z" transform="translate(-5.84 -17.14)" style="fill:#eeeeef;opacity:0.26086956541985346"/><path d="M325.67,245.32l-1.45-.23a98.5,98.5,0,0,1-79-68.67l.78-1.29a98.71,98.71,0,0,0,9.55-78.9,98.51,98.51,0,1,1,70.07,149.09Z" transform="translate(-5.84 -17.14)" style="fill:#eceded;opacity:0.2826086958362305"/><path d="M326,245l-1.45-.22a98.43,98.43,0,0,1-79.19-68.3c.26-.42.52-.85.77-1.28a98.65,98.65,0,0,0,9.21-78.9A98.45,98.45,0,1,1,326,245Z" transform="translate(-5.84 -17.14)" style="fill:#ebebec;opacity:0.30434782625260753"/><path d="M326.25,244.66c-.49-.06-1-.14-1.45-.21a98.38,98.38,0,0,1-79.43-67.92c.26-.43.51-.86.76-1.29A98.57,98.57,0,0,0,255,96.35a98.39,98.39,0,1,1,71.25,148.31Z" transform="translate(-5.84 -17.14)" style="fill:#e9eaea;opacity:0.3260869566689846"/><path d="M326.54,244.34l-1.45-.21a98.34,98.34,0,0,1-79.68-67.55c.26-.42.52-.85.76-1.29a98.52,98.52,0,0,0,8.54-78.88,98.33,98.33,0,1,1,71.83,147.93Z" transform="translate(-5.84 -17.14)" style="fill:#e8e8e9;opacity:0.3478260870853616"/><path d="M326.82,244l-1.44-.2a98.27,98.27,0,0,1-79.92-67.17c.26-.43.51-.86.76-1.29a98.52,98.52,0,0,0,8.19-78.88A98.28,98.28,0,1,1,326.82,244Z" transform="translate(-5.84 -17.14)" style="fill:#e6e7e8;opacity:0.36956521750173865"/><path d="M327.11,243.68l-1.44-.19a98.22,98.22,0,0,1-80.16-66.8l.75-1.29a98.44,98.44,0,0,0,7.85-78.87,98.23,98.23,0,1,1,73,147.15Z" transform="translate(-5.84 -17.14)" style="fill:#e5e6e6;opacity:0.3913043479181157"/><path d="M327.4,243.36l-1.44-.19a98.16,98.16,0,0,1-80.4-66.42c.25-.43.5-.86.74-1.3a98.42,98.42,0,0,0,7.52-78.86A98.17,98.17,0,1,1,327.4,243.36Z" transform="translate(-5.84 -17.14)" style="fill:#e3e4e5;opacity:0.41304347833449273"/><path d="M327.69,243l-1.45-.18a98.11,98.11,0,0,1-80.63-66l.73-1.31a98.32,98.32,0,0,0,7.18-78.84A98.12,98.12,0,1,1,327.69,243Z" transform="translate(-5.84 -17.14)" style="fill:#e2e3e4;opacity:0.43478260875086977"/><path d="M328,242.7l-1.45-.17a98.09,98.09,0,0,1-80.88-65.67c.25-.43.5-.87.73-1.3a98.28,98.28,0,0,0,6.84-78.84A98.07,98.07,0,1,1,328,242.7Z" transform="translate(-5.84 -17.14)" style="fill:#e0e1e2;opacity:0.4565217391672468"/><path d="M328.27,242.38l-1.45-.17a98.06,98.06,0,0,1-81.12-65.29l.73-1.31a98.26,98.26,0,0,0,6.49-78.83,98,98,0,1,1,75.35,145.6Z" transform="translate(-5.84 -17.14)" style="fill:#dfe0e1;opacity:0.47826086958362385"/><path d="M328.56,242.05l-1.45-.16A98,98,0,0,1,245.75,177l.72-1.31a98.23,98.23,0,0,0,6.16-78.82,98,98,0,1,1,75.93,145.21Z" transform="translate(-5.84 -17.14)" style="fill:#dddee0;opacity:0.5000000000000009"/><path d="M328.85,241.72c-.49,0-1-.1-1.45-.15A97.94,97.94,0,0,1,245.8,177c.24-.44.48-.87.71-1.31a98.19,98.19,0,0,0,5.82-78.82,97.94,97.94,0,1,1,76.52,144.82Z" transform="translate(-5.84 -17.14)" style="fill:#dcddde;opacity:0.5217391304163779"/><path d="M329.13,241.4l-1.44-.15a97.89,97.89,0,0,1-81.84-64.17l.7-1.31A98.12,98.12,0,0,0,252,97a97.9,97.9,0,1,1,77.1,144.44Z" transform="translate(-5.84 -17.14)" style="fill:#dbdcdd;opacity:0.5434782608327549"/><path d="M329.42,241.07l-1.44-.14a97.89,97.89,0,0,1-82.09-63.79c.24-.44.47-.88.7-1.32A98.08,98.08,0,0,0,251.74,97a97.86,97.86,0,1,1,77.68,144Z" transform="translate(-5.84 -17.14)" style="fill:#d9dadb;opacity:0.5652173912491318"/><path d="M329.71,240.74l-1.45-.14a97.8,97.8,0,0,1-82.32-63.41c.24-.44.47-.87.7-1.32a98.08,98.08,0,0,0,4.8-78.78,97.82,97.82,0,1,1,78.27,143.65Z" transform="translate(-5.84 -17.14)" style="fill:#d8d9da;opacity:0.5869565216655088"/><path d="M330,240.42l-1.45-.14a97.79,97.79,0,0,1-82.56-63l.69-1.32a98,98,0,0,0,4.46-78.78A97.79,97.79,0,1,1,330,240.42Z" transform="translate(-5.84 -17.14)" style="fill:#d6d7d9;opacity:0.6086956520818858"/><path d="M330.29,240.09l-1.45-.13A97.74,97.74,0,0,1,246,177.3c.23-.44.46-.88.68-1.32a98,98,0,0,0,4.13-78.77,97.75,97.75,0,1,1,79.44,142.88Z" transform="translate(-5.84 -17.14)" style="fill:#d5d6d7;opacity:0.6304347824982628"/><path d="M330.58,239.76c-.49,0-1-.08-1.45-.12a97.73,97.73,0,0,1-83-62.28c.23-.44.46-.88.68-1.33a97.86,97.86,0,0,0,3.79-78.76,97.72,97.72,0,1,1,80,142.49Z" transform="translate(-5.84 -17.14)" style="fill:#d3d5d6;opacity:0.6521739129146398"/><path d="M330.87,239.43l-1.45-.11a97.69,97.69,0,0,1-83.29-61.91c.23-.44.45-.88.67-1.32a97.83,97.83,0,0,0,3.45-78.76,97.69,97.69,0,1,1,80.62,142.1Z" transform="translate(-5.84 -17.14)" style="fill:#d2d3d5;opacity:0.6739130433310168"/><path d="M331.16,239.11l-1.45-.11a97.66,97.66,0,0,1-83.53-61.53c.23-.44.45-.89.67-1.33A97.83,97.83,0,0,0,250,97.39a97.67,97.67,0,1,1,81.21,141.72Z" transform="translate(-5.84 -17.14)" style="fill:#d0d2d3;opacity:0.6956521737473937"/><path d="M331.45,238.78l-1.45-.1a97.63,97.63,0,0,1-83.77-61.16l.66-1.33a97.81,97.81,0,0,0,2.77-78.73,97.64,97.64,0,1,1,81.79,141.32Z" transform="translate(-5.84 -17.14)" style="fill:#cfd0d2;opacity:0.7173913041637707"/><path d="M331.73,238.45c-.48,0-1-.06-1.44-.09a97.59,97.59,0,0,1-84-60.78c.22-.44.44-.89.65-1.34a97.75,97.75,0,0,0,2.43-78.72,97.61,97.61,0,1,1,82.37,140.93Z" transform="translate(-5.84 -17.14)" style="fill:#cdcfd0;opacity:0.7391304345801477"/><path d="M332,238.13l-1.45-.09a97.6,97.6,0,0,1-84.25-60.41c.22-.44.44-.88.65-1.33a97.73,97.73,0,0,0,2.09-78.72,97.59,97.59,0,1,1,83,140.55Z" transform="translate(-5.84 -17.14)" style="fill:#cccdcf;opacity:0.7608695649965247"/><path d="M332.31,237.8l-1.45-.08a97.57,97.57,0,0,1-84.49-60c.22-.45.43-.89.64-1.34a97.73,97.73,0,0,0,1.76-78.71A97.57,97.57,0,1,1,332.31,237.8Z" transform="translate(-5.84 -17.14)" style="fill:#cbccce;opacity:0.7826086954129017"/><path d="M332.6,237.47c-.48,0-1,0-1.45-.07a97.57,97.57,0,0,1-84.73-59.65c.21-.45.43-.9.63-1.35a97.69,97.69,0,0,0,1.42-78.7A97.55,97.55,0,1,1,332.6,237.47Z" transform="translate(-5.84 -17.14)" style="fill:#c9cbcc;opacity:0.8043478258292787"/><path d="M332.89,237.15l-1.45-.07a97.52,97.52,0,0,1-85-59.28l.63-1.34a97.72,97.72,0,0,0,1.07-78.7,97.54,97.54,0,1,1,84.72,139.39Z" transform="translate(-5.84 -17.14)" style="fill:#c8c9cb;opacity:0.8260869562456556"/><path d="M333.18,236.82c-.49,0-1,0-1.45-.06a97.52,97.52,0,0,1-85.21-58.9c.21-.45.42-.9.62-1.35a97.71,97.71,0,0,0,.74-78.68,97.51,97.51,0,1,1,85.3,139Z" transform="translate(-5.84 -17.14)" style="fill:#c6c8ca;opacity:0.8478260866620326"/><path d="M333.47,236.49l-1.45-.05a97.52,97.52,0,0,1-85.46-58.53c.21-.45.42-.9.62-1.35a97.67,97.67,0,0,0,.4-78.67,97.5,97.5,0,1,1,85.89,138.6Z" transform="translate(-5.84 -17.14)" style="fill:#c5c6c8;opacity:0.8695652170784096"/><path d="M333.76,236.17l-1.45,0A97.49,97.49,0,0,1,246.61,178c.21-.45.41-.9.61-1.36A97.63,97.63,0,0,0,247.28,98a97.49,97.49,0,1,1,86.48,138.22Z" transform="translate(-5.84 -17.14)" style="fill:#c3c5c7;opacity:0.8913043474947866"/><path d="M334,235.84l-1.44,0A97.5,97.5,0,0,1,246.66,178c.2-.45.41-.9.6-1.35A97.62,97.62,0,0,0,247,98,97.48,97.48,0,1,1,334,235.84Z" transform="translate(-5.84 -17.14)" style="fill:#c2c4c6;opacity:0.9130434779111636"/><path d="M334.33,235.51c-.48,0-1,0-1.45,0a97.45,97.45,0,0,1-86.17-57.39l.6-1.36a97.69,97.69,0,0,0-.62-78.65,97.47,97.47,0,1,1,87.64,137.44Z" transform="translate(-5.84 -17.14)" style="fill:#c0c2c4;opacity:0.9347826083275406"/><path d="M334.62,235.19l-1.45,0a97.46,97.46,0,0,1-86.42-57c.21-.45.41-.9.6-1.36a97.66,97.66,0,0,0-1-78.64,97.47,97.47,0,1,1,88.23,137.06Z" transform="translate(-5.84 -17.14)" style="fill:#bfc1c3;opacity:0.9565217387439175"/><path d="M334.91,234.86l-1.45,0a97.45,97.45,0,0,1-86.66-56.64c.2-.46.4-.91.59-1.36a97.65,97.65,0,0,0-1.3-78.64,97.46,97.46,0,1,1,88.82,136.67Z" transform="translate(-5.84 -17.14)" style="fill:#bdbfc1;opacity:0.9782608691602945"/><path d="M335.2,234.53l-1.45,0a97.44,97.44,0,0,1-86.9-56.27c.2-.45.39-.9.58-1.36a97.65,97.65,0,0,0-1.63-78.62,97.46,97.46,0,1,1,89.4,136.27Z" transform="translate(-5.84 -17.14)" style="fill:#b3b3b3"/></g></g><path d="M335.77,235.39l-1.48,0A99.45,99.45,0,0,1,245.62,178c.19-.47.4-.93.59-1.4a99.62,99.62,0,0,0-1.67-80.22,99.45,99.45,0,1,1,91.23,139.06Z" transform="translate(-5.84 -17.14)" style="fill:url(#b7fd5359-9833-4b18-979f-1b653ceee808)"/><g style="clip-path:url(#eeae3a98-dfec-453b-9aee-92982deae4f7)"><g style="mix-blend-mode:multiply"><path d="M246.58,177.58l-1.21-.28-1.45-.32a99.44,99.44,0,0,0-102.51,40.85,99.38,99.38,0,1,1,105.17-40.25Z" transform="translate(-5.84 -17.14)" style="fill:#fff;opacity:0"/><path d="M246.58,177.58l-1.22-.28-1.44-.31a99.36,99.36,0,0,0-102.25,41.26,99.27,99.27,0,1,1,104.91-40.67Z" transform="translate(-5.84 -17.14)" style="fill:#fefefe;opacity:0.02173913083970609"/><path d="M246.57,177.57l-1.21-.26c-.48-.11-1-.22-1.44-.31a99.28,99.28,0,0,0-102,41.67,99.22,99.22,0,1,1,104.64-41.1Z" transform="translate(-5.84 -17.14)" style="fill:#fcfcfc;opacity:0.04347826125608312"/><path d="M246.57,177.57l-1.22-.26-1.44-.31a99.22,99.22,0,0,0-101.72,42.08,99.12,99.12,0,1,1,104.38-41.51Z" transform="translate(-5.84 -17.14)" style="fill:#fbfbfb;opacity:0.06521739167246014"/><path d="M246.56,177.57l-1.21-.26-1.44-.3A99.16,99.16,0,0,0,142.45,219.5a99,99,0,1,1,104.11-41.93Z" transform="translate(-5.84 -17.14)" style="fill:#f9f9fa;opacity:0.08695652208883717"/><path d="M246.56,177.56l-1.22-.25L243.9,177a99.06,99.06,0,0,0-101.18,42.89,99,99,0,1,1,103.84-42.35Z" transform="translate(-5.84 -17.14)" style="fill:#f8f8f8;opacity:0.1086956525052142"/><path d="M246.55,177.56l-1.21-.25L243.9,177A99,99,0,0,0,143,220.33a98.9,98.9,0,1,1,103.57-42.77Z" transform="translate(-5.84 -17.14)" style="fill:#f6f7f7;opacity:0.13043478292159122"/><path d="M246.55,177.55l-1.22-.23c-.48-.1-1-.2-1.44-.28a98.89,98.89,0,0,0-100.65,43.7,98.82,98.82,0,1,1,103.31-43.19Z" transform="translate(-5.84 -17.14)" style="fill:#f5f5f5;opacity:0.15217391333796826"/><path d="M246.54,177.55l-1.21-.23c-.48-.09-1-.19-1.44-.27A98.82,98.82,0,0,0,143.5,221.16a98.75,98.75,0,1,1,103-43.61Z" transform="translate(-5.84 -17.14)" style="fill:#f3f4f4;opacity:0.1739130437543453"/><path d="M246.54,177.55l-1.22-.23-1.44-.27a98.77,98.77,0,0,0-100.12,44.53,98.67,98.67,0,1,1,102.78-44Z" transform="translate(-5.84 -17.14)" style="fill:#f2f2f3;opacity:0.19565217417072234"/><path d="M246.54,177.54l-1.22-.22-1.44-.26A98.71,98.71,0,0,0,144,222a98.6,98.6,0,1,1,102.52-44.45Z" transform="translate(-5.84 -17.14)" style="fill:#f0f1f1;opacity:0.21739130458709938"/><path d="M246.53,177.54l-1.22-.22-1.44-.25a98.59,98.59,0,0,0-99.58,45.34,98.52,98.52,0,1,1,102.24-44.87Z" transform="translate(-5.84 -17.14)" style="fill:#efeff0;opacity:0.23913043500347642"/><path d="M246.53,177.54l-1.22-.22-1.44-.24a98.54,98.54,0,0,0-99.32,45.74,98.44,98.44,0,1,1,102-45.28Z" transform="translate(-5.84 -17.14)" style="fill:#eeeeef;opacity:0.26086956541985346"/><path d="M246.52,177.53l-1.21-.2c-.48-.08-1-.17-1.45-.24a98.47,98.47,0,0,0-99.05,46.15,98.42,98.42,0,1,1,101.71-45.71Z" transform="translate(-5.84 -17.14)" style="fill:#eceded;opacity:0.2826086958362305"/><path d="M246.52,177.53l-1.22-.2-1.44-.23a98.42,98.42,0,0,0-98.79,46.55,98.34,98.34,0,1,1,101.45-46.12Z" transform="translate(-5.84 -17.14)" style="fill:#ebebec;opacity:0.30434782625260753"/><path d="M246.51,177.53l-1.21-.2-1.45-.23a98.39,98.39,0,0,0-98.52,47,98.27,98.27,0,1,1,101.18-46.54Z" transform="translate(-5.84 -17.14)" style="fill:#e9eaea;opacity:0.3260869566689846"/><path d="M246.51,177.52l-1.22-.19-1.44-.22a98.35,98.35,0,0,0-98.26,47.37,98.22,98.22,0,1,1,100.92-47Z" transform="translate(-5.84 -17.14)" style="fill:#e8e8e9;opacity:0.3478260870853616"/><path d="M246.5,177.52l-1.21-.19-1.45-.21a98.25,98.25,0,0,0-98,47.78A98.18,98.18,0,1,1,246.5,177.52Z" transform="translate(-5.84 -17.14)" style="fill:#e6e7e8;opacity:0.36956521750173865"/><path d="M246.5,177.52c-.4-.07-.81-.12-1.22-.18l-1.44-.21a98.19,98.19,0,0,0-97.72,48.19,98.09,98.09,0,1,1,100.38-47.8Z" transform="translate(-5.84 -17.14)" style="fill:#e5e6e6;opacity:0.3913043479181157"/><path d="M246.49,177.51l-1.21-.17-1.45-.2a98.14,98.14,0,0,0-97.45,48.59,98.07,98.07,0,1,1,100.11-48.22Z" transform="translate(-5.84 -17.14)" style="fill:#e3e4e5;opacity:0.41304347833449273"/><path d="M246.49,177.51l-1.22-.17-1.44-.19a98.09,98.09,0,0,0-97.19,49,98,98,0,1,1,99.85-48.64Z" transform="translate(-5.84 -17.14)" style="fill:#e2e3e4;opacity:0.43478260875086977"/><path d="M246.48,177.5l-1.21-.16c-.48-.06-1-.13-1.45-.18a98,98,0,0,0-96.92,49.4,98,98,0,1,1,99.58-49.06Z" transform="translate(-5.84 -17.14)" style="fill:#e0e1e2;opacity:0.4565217391672468"/><path d="M246.48,177.5l-1.22-.16-1.44-.18A98,98,0,0,0,147.16,227a97.91,97.91,0,1,1,99.32-49.48Z" transform="translate(-5.84 -17.14)" style="fill:#dfe0e1;opacity:0.47826086958362385"/><path d="M246.48,177.5l-1.22-.15c-.48-.06-1-.13-1.45-.18a98,98,0,0,0-96.38,50.22,97.85,97.85,0,1,1,99-49.89Z" transform="translate(-5.84 -17.14)" style="fill:#dddee0;opacity:0.5000000000000009"/><path d="M246.47,177.49l-1.22-.14-1.44-.17a97.91,97.91,0,0,0-96.12,50.63,97.85,97.85,0,1,1,98.78-50.32Z" transform="translate(-5.84 -17.14)" style="fill:#dcddde;opacity:0.5217391304163779"/><path d="M246.47,177.49l-1.22-.14-1.45-.16a97.86,97.86,0,0,0-95.85,51,97.77,97.77,0,1,1,98.52-50.74Z" transform="translate(-5.84 -17.14)" style="fill:#dbdcdd;opacity:0.5434782608327549"/><path d="M246.46,177.49l-1.22-.14-1.44-.15a97.84,97.84,0,0,0-95.59,51.44,97.74,97.74,0,1,1,98.25-51.15Z" transform="translate(-5.84 -17.14)" style="fill:#d9dadb;opacity:0.5652173912491318"/><path d="M246.46,177.48l-1.22-.13-1.45-.14a97.8,97.8,0,0,0-95.32,51.85,97.72,97.72,0,1,1,98-51.58Z" transform="translate(-5.84 -17.14)" style="fill:#d8d9da;opacity:0.5869565216655088"/><path d="M246.45,177.48c-.4,0-.81-.08-1.22-.12l-1.44-.15a97.79,97.79,0,0,0-95.06,52.26,97.69,97.69,0,1,1,97.72-52Z" transform="translate(-5.84 -17.14)" style="fill:#d6d7d9;opacity:0.6086956520818858"/><path d="M246.45,177.48l-1.22-.12-1.45-.14A97.72,97.72,0,0,0,149,229.89a97.63,97.63,0,1,1,97.45-52.41Z" transform="translate(-5.84 -17.14)" style="fill:#d5d6d7;opacity:0.6304347824982628"/><path d="M246.44,177.47l-1.22-.11-1.44-.13a97.71,97.71,0,0,0-94.52,53.07,97.62,97.62,0,1,1,97.18-52.83Z" transform="translate(-5.84 -17.14)" style="fill:#d3d5d6;opacity:0.6521739129146398"/><path d="M246.44,177.47l-1.22-.11c-.48,0-1-.09-1.45-.12a97.67,97.67,0,0,0-94.25,53.48,97.59,97.59,0,1,1,96.92-53.25Z" transform="translate(-5.84 -17.14)" style="fill:#d2d3d5;opacity:0.6739130433310168"/><path d="M246.43,177.46l-1.22-.1-1.44-.11a97.65,97.65,0,0,0-94,53.88,97.56,97.56,0,1,1,96.65-53.67Z" transform="translate(-5.84 -17.14)" style="fill:#d0d2d3;opacity:0.6956521737473937"/><path d="M246.43,177.46c-.4,0-.81-.06-1.22-.09l-1.45-.11A97.63,97.63,0,0,0,150,231.55a97.53,97.53,0,1,1,96.39-54.09Z" transform="translate(-5.84 -17.14)" style="fill:#cfd0d2;opacity:0.7173913041637707"/><path d="M246.43,177.46l-1.22-.09-1.45-.11A97.61,97.61,0,0,0,150.3,232a97.5,97.5,0,1,1,96.13-54.51Z" transform="translate(-5.84 -17.14)" style="fill:#cdcfd0;opacity:0.7391304345801477"/><path d="M246.42,177.45l-1.22-.08-1.45-.1a97.57,97.57,0,0,0-93.18,55.11,97.51,97.51,0,1,1,95.85-54.93Z" transform="translate(-5.84 -17.14)" style="fill:#cccdcf;opacity:0.7608695649965247"/><path d="M246.42,177.45l-1.22-.08-1.45-.09a97.55,97.55,0,0,0-92.92,55.52,97.45,97.45,0,1,1,95.59-55.35Z" transform="translate(-5.84 -17.14)" style="fill:#cbccce;opacity:0.7826086954129017"/><path d="M246.41,177.45l-1.22-.08-1.45-.08a97.53,97.53,0,0,0-92.65,55.92,97.45,97.45,0,1,1,95.32-55.76Z" transform="translate(-5.84 -17.14)" style="fill:#c9cbcc;opacity:0.8043478258292787"/><path d="M246.41,177.44l-1.22-.07-1.45-.07a97.54,97.54,0,0,0-92.39,56.33,97.45,97.45,0,1,1,95.06-56.19Z" transform="translate(-5.84 -17.14)" style="fill:#c8c9cb;opacity:0.8260869562456556"/><path d="M246.4,177.44c-.4,0-.81,0-1.22-.06s-1-.06-1.44-.07A97.53,97.53,0,0,0,151.61,234a97.42,97.42,0,1,1,94.79-56.6Z" transform="translate(-5.84 -17.14)" style="fill:#c6c8ca;opacity:0.8478260866620326"/><path d="M246.4,177.44l-1.22-.06c-.48,0-1,0-1.45-.06a97.5,97.5,0,0,0-91.86,57.14,97.4,97.4,0,1,1,94.53-57Z" transform="translate(-5.84 -17.14)" style="fill:#c5c6c8;opacity:0.8695652170784096"/><path d="M246.39,177.43l-1.22-.05-1.44-.06a97.5,97.5,0,0,0-91.59,57.56,97.43,97.43,0,1,1,94.25-57.45Z" transform="translate(-5.84 -17.14)" style="fill:#c3c5c7;opacity:0.8913043474947866"/><path d="M246.39,177.43l-1.22-.05-1.45,0a97.49,97.49,0,0,0-91.32,58,97.4,97.4,0,1,1,94-57.86Z" transform="translate(-5.84 -17.14)" style="fill:#c2c4c6;opacity:0.9130434779111636"/><path d="M246.38,177.42l-1.22,0-1.44,0a97.48,97.48,0,0,0-91.06,58.37,97.41,97.41,0,1,1,93.72-58.29Z" transform="translate(-5.84 -17.14)" style="fill:#c0c2c4;opacity:0.9347826083275406"/><path d="M246.38,177.42l-1.22,0-1.45,0a97.49,97.49,0,0,0-90.79,58.77,97.39,97.39,0,1,1,93.46-58.7Z" transform="translate(-5.84 -17.14)" style="fill:#bfc1c3;opacity:0.9565217387439175"/><path d="M246.38,177.42l-1.23,0-1.44,0a97.47,97.47,0,0,0-90.53,59.18,97.38,97.38,0,1,1,93.2-59.12Z" transform="translate(-5.84 -17.14)" style="fill:#bdbfc1;opacity:0.9782608691602945"/><path d="M246.37,177.41l-1.22,0-1.45,0A97.44,97.44,0,0,0,153.45,237a97.38,97.38,0,1,1,92.92-59.54Z" transform="translate(-5.84 -17.14)" style="fill:#b3b3b3"/></g></g><path d="M246.55,177.69l-1.24,0-1.48,0A99.48,99.48,0,0,0,152,238.87a99.38,99.38,0,1,1,94.55-61.18Z" transform="translate(-5.84 -17.14)" style="fill:url(#beac2316-34fc-4488-b580-601b9e969526)"/><g style="clip-path:url(#acd1a31a-ca6c-4084-94b2-c821e615d1d7)"><g style="mix-blend-mode:multiply"><path d="M197.81,370.78a99.44,99.44,0,1,1,46.63-193.34l1.44.36c.09.52.19,1,.3,1.53a99.44,99.44,0,0,0,72.73,76.61,99.47,99.47,0,0,1-121.1,114.84Z" transform="translate(-5.84 -17.14)" style="fill:#fff;opacity:0"/><path d="M198.85,370.84a99.34,99.34,0,1,1,45.59-193.37l1.44.35c.09.51.2,1,.3,1.53a99.38,99.38,0,0,0,73.06,76.16A99.38,99.38,0,0,1,198.85,370.84Z" transform="translate(-5.84 -17.14)" style="fill:#fefefe;opacity:0.02173913083970609"/><path d="M199.88,370.9a99.24,99.24,0,1,1,44.56-193.41l1.44.35c.1.51.2,1,.31,1.52a99.25,99.25,0,0,0,73.37,75.71A99.29,99.29,0,0,1,199.88,370.9Z" transform="translate(-5.84 -17.14)" style="fill:#fcfcfc;opacity:0.04347826125608312"/><path d="M200.91,371a99.14,99.14,0,1,1,43.53-193.44l1.44.34c.1.51.21,1,.32,1.52a99.13,99.13,0,0,0,73.68,75.25A99.18,99.18,0,0,1,200.91,371Z" transform="translate(-5.84 -17.14)" style="fill:#fbfbfb;opacity:0.06521739167246014"/><path d="M202,371a99,99,0,1,1,42.49-193.48l1.44.34.33,1.51a99.05,99.05,0,0,0,74,74.81A99.08,99.08,0,0,1,202,371Z" transform="translate(-5.84 -17.14)" style="fill:#f9f9fa;opacity:0.08695652208883717"/><path d="M203,371.08a99,99,0,1,1,41.46-193.51c.49.1,1,.22,1.44.33.11.5.22,1,.34,1.51a98.94,98.94,0,0,0,74.3,74.35A99,99,0,0,1,203,371.08Z" transform="translate(-5.84 -17.14)" style="fill:#f8f8f8;opacity:0.1086956525052142"/><path d="M204,371.14A98.86,98.86,0,1,1,244.45,177.6l1.43.32c.11.5.23,1,.35,1.5a98.85,98.85,0,0,0,74.61,73.91A98.89,98.89,0,0,1,204,371.14Z" transform="translate(-5.84 -17.14)" style="fill:#f6f7f7;opacity:0.13043478292159122"/><path d="M205.05,371.2a98.77,98.77,0,1,1,39.4-193.58l1.43.31c.12.51.23,1,.35,1.51a98.79,98.79,0,0,0,74.94,73.45A98.83,98.83,0,0,1,205.05,371.2Z" transform="translate(-5.84 -17.14)" style="fill:#f5f5f5;opacity:0.15217391333796826"/><path d="M206.08,371.26a98.69,98.69,0,1,1,38.37-193.61l1.43.3c.12.51.24,1,.36,1.5a98.7,98.7,0,0,0,75.25,73,98.73,98.73,0,0,1-115.41,118.8Z" transform="translate(-5.84 -17.14)" style="fill:#f3f4f4;opacity:0.1739130437543453"/><path d="M207.11,371.32a98.6,98.6,0,1,1,37.34-193.64l1.43.29c.12.5.25,1,.37,1.5A98.62,98.62,0,0,0,321.81,252a98.65,98.65,0,0,1-114.7,119.3Z" transform="translate(-5.84 -17.14)" style="fill:#f2f2f3;opacity:0.19565217417072234"/><path d="M208.15,371.38a98.53,98.53,0,1,1,36.3-193.68l1.44.29c.12.5.24,1,.37,1.49a98.53,98.53,0,0,0,75.87,72.11,98.55,98.55,0,0,1-114,119.79Z" transform="translate(-5.84 -17.14)" style="fill:#f0f1f1;opacity:0.21739130458709938"/><path d="M209.18,371.44a98.45,98.45,0,1,1,35.27-193.71l1.44.28c.12.5.25,1,.38,1.49a98.44,98.44,0,0,0,76.18,71.65A98.48,98.48,0,0,1,209.18,371.44Z" transform="translate(-5.84 -17.14)" style="fill:#efeff0;opacity:0.23913043500347642"/><path d="M210.21,371.5a98.38,98.38,0,1,1,34.24-193.75l1.44.28c.12.5.25,1,.39,1.49a98.37,98.37,0,0,0,76.49,71.2A98.41,98.41,0,0,1,210.21,371.5Z" transform="translate(-5.84 -17.14)" style="fill:#eeeeef;opacity:0.26086956541985346"/><path d="M211.25,371.56a98.3,98.3,0,1,1,33.2-193.78l1.44.27.39,1.48a98.31,98.31,0,0,0,76.82,70.75A98.34,98.34,0,0,1,211.25,371.56Z" transform="translate(-5.84 -17.14)" style="fill:#eceded;opacity:0.2826086958362305"/><path d="M212.28,371.62a98.23,98.23,0,1,1,32.17-193.81l1.44.25c.13.5.26,1,.4,1.49a98.27,98.27,0,0,0,77.13,70.3A98.28,98.28,0,0,1,212.28,371.62Z" transform="translate(-5.84 -17.14)" style="fill:#ebebec;opacity:0.30434782625260753"/><path d="M213.31,371.68a98.17,98.17,0,1,1,31.14-193.85l1.44.25c.13.5.27,1,.41,1.48a98.18,98.18,0,0,0,77.44,69.85A98.2,98.2,0,0,1,213.31,371.68Z" transform="translate(-5.84 -17.14)" style="fill:#e9eaea;opacity:0.3260869566689846"/><path d="M214.35,371.74a98.1,98.1,0,1,1,30.1-193.88l1.44.24.42,1.48A98.12,98.12,0,0,0,324.06,249,98.14,98.14,0,0,1,214.35,371.74Z" transform="translate(-5.84 -17.14)" style="fill:#e8e8e9;opacity:0.3478260870853616"/><path d="M215.38,371.8a98,98,0,1,1,29.07-193.91l1.44.23c.14.49.28,1,.43,1.47a98,98,0,0,0,78.06,68.95,98.08,98.08,0,0,1-109,123.26Z" transform="translate(-5.84 -17.14)" style="fill:#e6e7e8;opacity:0.36956521750173865"/><path d="M216.41,371.86a98,98,0,1,1,28-194l1.44.23c.14.49.29,1,.44,1.47a98,98,0,0,0,78.37,68.5A98,98,0,0,1,216.41,371.86Z" transform="translate(-5.84 -17.14)" style="fill:#e5e6e6;opacity:0.3913043479181157"/><path d="M217.45,371.92a97.93,97.93,0,1,1,27-194l1.44.22c.15.49.29,1,.45,1.46a97.92,97.92,0,0,0,78.69,68A98,98,0,0,1,217.45,371.92Z" transform="translate(-5.84 -17.14)" style="fill:#e3e4e5;opacity:0.41304347833449273"/><path d="M218.48,372a97.88,97.88,0,1,1,26-194l1.44.22.45,1.46a97.89,97.89,0,0,0,79,67.6A97.9,97.9,0,0,1,218.48,372Z" transform="translate(-5.84 -17.14)" style="fill:#e2e3e4;opacity:0.43478260875086977"/><path d="M219.51,372a97.82,97.82,0,1,1,24.94-194l1.45.2c.14.49.3,1,.45,1.46a97.83,97.83,0,0,0,79.32,67.15A97.86,97.86,0,0,1,219.51,372Z" transform="translate(-5.84 -17.14)" style="fill:#e0e1e2;opacity:0.4565217391672468"/><path d="M220.55,372.1A97.77,97.77,0,1,1,244.45,178l1.45.19c.15.49.3,1,.46,1.46A97.79,97.79,0,0,0,326,246.37,97.81,97.81,0,0,1,220.55,372.1Z" transform="translate(-5.84 -17.14)" style="fill:#dfe0e1;opacity:0.47826086958362385"/><path d="M221.58,372.16A97.73,97.73,0,1,1,244.46,178l1.44.19c.15.49.31,1,.47,1.45a97.73,97.73,0,0,0,79.94,66.25A97.76,97.76,0,0,1,221.58,372.16Z" transform="translate(-5.84 -17.14)" style="fill:#dddee0;opacity:0.5000000000000009"/><path d="M222.61,372.22a97.69,97.69,0,1,1,21.85-194.15l1.44.18c.15.49.31,1,.48,1.45a97.66,97.66,0,0,0,80.26,65.79,97.74,97.74,0,0,1-104,126.73Z" transform="translate(-5.84 -17.14)" style="fill:#dcddde;opacity:0.5217391304163779"/><path d="M223.65,372.28A97.65,97.65,0,1,1,244.46,178.1l1.44.17c.16.48.32,1,.49,1.45A97.65,97.65,0,0,0,327,245.06,97.68,97.68,0,0,1,223.65,372.28Z" transform="translate(-5.84 -17.14)" style="fill:#dbdcdd;opacity:0.5434782608327549"/><path d="M224.68,372.34a97.61,97.61,0,1,1,19.78-194.22l1.44.17.49,1.44a97.61,97.61,0,0,0,80.89,64.89,97.65,97.65,0,0,1-102.6,127.72Z" transform="translate(-5.84 -17.14)" style="fill:#d9dadb;opacity:0.5652173912491318"/><path d="M225.71,372.41a97.58,97.58,0,1,1,18.75-194.26l1.44.16c.16.48.33,1,.5,1.44a97.59,97.59,0,0,0,81.2,64.44A97.63,97.63,0,0,1,225.71,372.41Z" transform="translate(-5.84 -17.14)" style="fill:#d8d9da;opacity:0.5869565216655088"/><path d="M226.75,372.47a97.55,97.55,0,1,1,17.71-194.3l1.44.15c.17.49.34,1,.51,1.44a97.52,97.52,0,0,0,81.51,64A97.58,97.58,0,0,1,226.75,372.47Z" transform="translate(-5.84 -17.14)" style="fill:#d6d7d9;opacity:0.6086956520818858"/><path d="M227.78,372.53A97.52,97.52,0,1,1,244.46,178.2l1.44.14c.17.48.34,1,.52,1.44a97.53,97.53,0,0,0,81.82,63.54A97.56,97.56,0,0,1,227.78,372.53Z" transform="translate(-5.84 -17.14)" style="fill:#d5d6d7;opacity:0.6304347824982628"/><path d="M228.81,372.59a97.49,97.49,0,1,1,15.65-194.36l1.44.13c.17.48.35,1,.53,1.43a97.48,97.48,0,0,0,82.14,63.09,97.54,97.54,0,0,1-99.76,129.71Z" transform="translate(-5.84 -17.14)" style="fill:#d3d5d6;opacity:0.6521739129146398"/><path d="M229.85,372.65a97.47,97.47,0,1,1,14.61-194.4l1.44.13c.18.48.35,1,.54,1.43a97.47,97.47,0,0,0,82.45,62.64,97.51,97.51,0,0,1-99,130.2Z" transform="translate(-5.84 -17.14)" style="fill:#d2d3d5;opacity:0.6739130433310168"/><path d="M230.88,372.71a97.45,97.45,0,1,1,13.58-194.43l1.45.12c.17.48.35.95.53,1.42A97.45,97.45,0,0,0,329.21,242a97.5,97.5,0,0,1-98.33,130.7Z" transform="translate(-5.84 -17.14)" style="fill:#d0d2d3;opacity:0.6956521737473937"/><path d="M231.91,372.77a97.43,97.43,0,1,1,12.55-194.46l1.45.11c.17.47.36,1,.54,1.42a97.44,97.44,0,0,0,83.08,61.74,97.47,97.47,0,0,1-97.62,131.19Z" transform="translate(-5.84 -17.14)" style="fill:#cfd0d2;opacity:0.7173913041637707"/><path d="M233,372.83a97.42,97.42,0,1,1,11.51-194.5l1.45.11c.18.47.36.94.55,1.41a97.4,97.4,0,0,0,83.39,61.29A97.46,97.46,0,0,1,233,372.83Z" transform="translate(-5.84 -17.14)" style="fill:#cdcfd0;opacity:0.7391304345801477"/><path d="M234,372.89a97.41,97.41,0,1,1,10.48-194.53l1.45.09c.18.48.37,1,.56,1.42a97.41,97.41,0,0,0,83.7,60.84A97.43,97.43,0,0,1,234,372.89Z" transform="translate(-5.84 -17.14)" style="fill:#cccdcf;opacity:0.7608695649965247"/><path d="M235,373a97.4,97.4,0,1,1,9.45-194.57l1.45.09c.18.48.37.95.57,1.42a97.39,97.39,0,0,0,84,60.38A97.45,97.45,0,0,1,235,373Z" transform="translate(-5.84 -17.14)" style="fill:#cbccce;opacity:0.7826086954129017"/><path d="M236.05,373a97.39,97.39,0,1,1,8.41-194.6l1.45.08c.19.47.38.94.58,1.41a97.39,97.39,0,0,0,84.33,59.94A97.44,97.44,0,0,1,236.05,373Z" transform="translate(-5.84 -17.14)" style="fill:#c9cbcc;opacity:0.8043478258292787"/><path d="M237.08,373.07a97.38,97.38,0,1,1,7.38-194.63l1.45.07.58,1.41a97.39,97.39,0,0,0,84.65,59.48,97.42,97.42,0,0,1-94.06,133.67Z" transform="translate(-5.84 -17.14)" style="fill:#c8c9cb;opacity:0.8260869562456556"/><path d="M238.11,373.13a97.39,97.39,0,1,1,6.35-194.67l1.45.07c.19.47.39.94.59,1.4a97.4,97.4,0,0,0,85,59,97.42,97.42,0,0,1-93.35,134.16Z" transform="translate(-5.84 -17.14)" style="fill:#c6c8ca;opacity:0.8478260866620326"/><path d="M239.15,373.19a97.39,97.39,0,1,1,5.31-194.7c.49,0,1,0,1.45.06l.6,1.4a97.38,97.38,0,0,0,85.27,58.58,97.41,97.41,0,0,1-92.63,134.66Z" transform="translate(-5.84 -17.14)" style="fill:#c5c6c8;opacity:0.8695652170784096"/><path d="M240.18,373.25a97.39,97.39,0,1,1,4.29-194.73l1.44,0c.2.46.4.93.61,1.39A97.39,97.39,0,0,0,332.1,238.1a97.42,97.42,0,0,1-91.92,135.15Z" transform="translate(-5.84 -17.14)" style="fill:#c3c5c7;opacity:0.8913043474947866"/><path d="M241.21,373.31a97.4,97.4,0,1,1,3.26-194.77l1.44,0c.2.47.41.94.62,1.4a97.38,97.38,0,0,0,85.9,57.68,97.45,97.45,0,0,1-91.22,135.65Z" transform="translate(-5.84 -17.14)" style="fill:#c2c4c6;opacity:0.9130434779111636"/><path d="M242.25,373.37a97.41,97.41,0,1,1,2.22-194.8l1.45,0c.2.47.41.93.62,1.39a97.41,97.41,0,0,0,86.21,57.24,97.44,97.44,0,0,1-90.5,136.14Z" transform="translate(-5.84 -17.14)" style="fill:#c0c2c4;opacity:0.9347826083275406"/><path d="M243.28,373.43a97.42,97.42,0,1,1,1.19-194.84l1.45,0c.2.47.41.93.62,1.39a97.43,97.43,0,0,0,86.53,56.78,97.46,97.46,0,0,1-89.79,136.64Z" transform="translate(-5.84 -17.14)" style="fill:#bfc1c3;opacity:0.9565217387439175"/><path d="M244.31,373.49a97.44,97.44,0,1,1,.16-194.87l1.45,0c.2.46.42.93.63,1.38a97.43,97.43,0,0,0,86.84,56.33,97.47,97.47,0,0,1-89.08,137.14Z" transform="translate(-5.84 -17.14)" style="fill:#bdbfc1;opacity:0.9782608691602945"/><path d="M245.35,373.55a97.45,97.45,0,1,1-.88-194.9h1.45c.21.46.42.92.64,1.38a97.45,97.45,0,0,0,87.15,55.88,97.48,97.48,0,0,1-88.36,137.63Z" transform="translate(-5.84 -17.14)" style="fill:#b3b3b3"/></g></g></g></g><g id="f5032527-4010-41a7-88ef-47a35c2331f6" data-name="Text"><text transform="translate(89.17 121.17)" style="font-size:35px;fill:#02c9fb;font-family:Merriweather-Bold, Merriweather;font-weight:700">RIGHT<tspan style="font-size:20px"><tspan x="14.03" y="26">QUALITY</tspan></tspan></text><text transform="translate(273.34 120.7)" style="font-size:35px;fill:#02c9fb;font-family:Merriweather-Bold, Merriweather;font-weight:700">RIGHT<tspan style="font-size:20px"><tspan x="13.61" y="26">PROCESS</tspan></tspan></text><text transform="translate(183.41 260.65)" style="font-size:35px;fill:#02c9fb;font-family:Merriweather-Bold, Merriweather;font-weight:700">RIGHT<tspan style="font-size:20px"><tspan x="-21.93" y="26">ARCHITECTURE</tspan></tspan></text></g></g></svg>