<svg id="eaf01247-d468-460a-975e-afd1fca804b3" data-name="Layer 1" xmlns="http://www.w3.org/2000/svg" viewBox="0 0 46.72 46.04"><rect x="23.61" y="9.43" width="9.99" height="36.61" rx="2.22" style="fill:#5f64a2"/><path d="M698.23,382.21h-5.54a2.21,2.21,0,0,0-2.22,2.22v8.31a9.35,9.35,0,0,1,2.24,17.2h5.52a2.21,2.21,0,0,0,2.22-2.21v-23.3A2.21,2.21,0,0,0,698.23,382.21Z" transform="translate(-680.17 -363.9)" style="fill:#46496b"/><path d="M687.62,401.29v-7.36a7.93,7.93,0,0,0-6.24,12.12l6.24-4.52Z" transform="translate(-680.17 -363.9)" style="fill:#46496b"/><path d="M690.47,394.28a8,8,0,0,0-1.78-.35v7.36H696A7.92,7.92,0,0,0,690.47,394.28Z" transform="translate(-680.17 -363.9)" style="fill:#f09d37"/><rect x="36.74" width="9.99" height="46.04" rx="2.22" style="fill:#f09d37"/><path d="M688.69,402.36h-.39l-6.3,4.56a7.94,7.94,0,0,0,6.12,2.89,8,8,0,0,0,7.93-7.45h-7.36Z" transform="translate(-680.17 -363.9)" style="fill:#5f64a2"/><path d="M709.12,396.82l-.06.55h-.25V396l2.25-.7.64-.17-.64-.15-2.25-.7V393h.25l.06.55,3.11-.4,0-.44h.25v1.44h-.25l0-.45-2.24.22-1,.11.72.21,2.62.83v.33l-2.4.81-.94.29,1,.09,2.24.2,0-.49h.25v1.3h-.25l0-.42Z" transform="translate(-680.17 -363.9)" style="fill:#e6e9f2"/><path d="M709.12,392.05l-.06.41h-.25v-2.55l.78-.07v.29l-.49.14,0,1.24h1.41v-.83l-.42-.07v-.28h1.15v.28l-.43.07v.83h1.49l0-1.41-.63-.26.09-.3.87.15v2.77h-.25l0-.41Z" transform="translate(-680.17 -363.9)" style="fill:#e6e9f2"/><path d="M709.08,388l0,.86,1,.17v.33l-1.34-.08v-3.12l1.34-.06v.32l-1,.16,0,.87h3.15l0-.71h.25v1.91h-.25l0-.65Z" transform="translate(-680.17 -363.9)" style="fill:#e6e9f2"/><path d="M712.28,385.75l0-.42h-3.11l-.06.39h-.25v-.65a2.83,2.83,0,0,0,0-.38c0-.17,0-.3,0-.39a1.77,1.77,0,0,1,.24-1.05.88.88,0,0,1,.75-.31,1.15,1.15,0,0,1,.65.19,1,1,0,0,1,.4.55.82.82,0,0,1,.29-.3l.58-.34a4.57,4.57,0,0,0,.41-.24c.09-.05.13-.1.14-.15l0-.2h.25v.69c0,.06-.06.12-.17.18l-.54.27c-.26.12-.47.22-.62.31a.73.73,0,0,0-.3.26c0,.36,0,.57,0,.64h1.34l0-.5h.25v1.45Zm-1.86-2.05a.9.9,0,0,0-.63-.19.74.74,0,0,0-.55.19.87.87,0,0,0-.2.65c0,.1,0,.21,0,.32a.78.78,0,0,1,0,.13h1.55a2.29,2.29,0,0,0,0-.31v-.29A.63.63,0,0,0,710.42,383.7Z" transform="translate(-680.17 -363.9)" style="fill:#e6e9f2"/><path d="M709.12,381.72l-.06.47h-.25v-1.47h.25l.06.46h3.11l.06-.46h.24v1.46h-.25l0-.46Z" transform="translate(-680.17 -363.9)" style="fill:#e6e9f2"/><path d="M712.35,379.49a1.54,1.54,0,0,1-.67.59,2.43,2.43,0,0,1-1,.2,2,2,0,0,1-1-.24,1.65,1.65,0,0,1-.67-.64,1.8,1.8,0,0,1-.24-.92,4.38,4.38,0,0,1,.12-.93l0-.16.9.05v.33l-.63.13a.55.55,0,0,0-.1.24,1.61,1.61,0,0,0-.05.42.89.89,0,0,0,.19.57,1.14,1.14,0,0,0,.53.39,2.19,2.19,0,0,0,.85.15,2.59,2.59,0,0,0,.86-.13,1.3,1.3,0,0,0,.61-.38.92.92,0,0,0,.23-.63,1.42,1.42,0,0,0,0-.41.7.7,0,0,0-.13-.24l-.49-.21,0-.31.71.12a2.36,2.36,0,0,0,.07.31,2.46,2.46,0,0,1,.09.34,2.58,2.58,0,0,1,0,.42A1.84,1.84,0,0,1,712.35,379.49Z" transform="translate(-680.17 -363.9)" style="fill:#e6e9f2"/><path d="M712.54,376.19q0,.21-.12.45a.7.7,0,0,0-.06.23l-.91,0v-.32l.65-.09a.61.61,0,0,0,.15-.28,1.33,1.33,0,0,0,.06-.42.91.91,0,0,0-.17-.58.58.58,0,0,0-.47-.19.51.51,0,0,0-.34.11,1,1,0,0,0-.24.28c-.06.12-.14.28-.23.49a3,3,0,0,1-.26.48,1.16,1.16,0,0,1-.34.36.92.92,0,0,1-1,0,1,1,0,0,1-.34-.43,1.59,1.59,0,0,1-.13-.64,2.37,2.37,0,0,1,0-.41c0-.12.05-.25.09-.4a1,1,0,0,0,.05-.17l.84,0v.3l-.62.1a.61.61,0,0,0-.09.21,1.21,1.21,0,0,0-.05.34.77.77,0,0,0,.15.52.52.52,0,0,0,.42.18.47.47,0,0,0,.33-.11,1,1,0,0,0,.23-.26,5.64,5.64,0,0,0,.26-.51c.11-.22.2-.4.28-.53a1.42,1.42,0,0,1,.33-.36.87.87,0,0,1,.48-.14,1,1,0,0,1,.51.14,1.13,1.13,0,0,1,.41.45,1.68,1.68,0,0,1,.15.74A2.13,2.13,0,0,1,712.54,376.19Z" transform="translate(-680.17 -363.9)" style="fill:#e6e9f2"/><path d="M719.75,396.47v-2.13h.4l.1.71,3.75-1.32,1-.29-1-.27L720.25,392l-.1.64h-.4v-1.79h.4l.1.51,5.51,1.9v.69L720.25,396l-.1.49Z" transform="translate(-680.17 -363.9)" style="fill:#e6e9f2"/><path d="M719.7,388.66v-.88l5.52-1.94.08-.5h.39v2.12h-.39l-.08-.67-1.18.38v2.33l1.18.38.08-.69h.39v1.9h-.39l-.08-.5Zm1.28-.5-.7.2.72.19,2.57.81v-2Z" transform="translate(-680.17 -363.9)" style="fill:#e6e9f2"/><path d="M720.25,384.4l-.1.65h-.4v-2.3h.4l.1.79h5l-.07-2.06-1.34-.47.07-.49,1.81.28v4.26h-.39l-.08-.66Z" transform="translate(-680.17 -363.9)" style="fill:#e6e9f2"/><path d="M725.13,379.06a2.89,2.89,0,0,1-2,.56h-2.93l-.1.56h-.4v-2.13h.4l.1.68h3a2.49,2.49,0,0,0,1.57-.39,1.36,1.36,0,0,0,.48-1.12,1.25,1.25,0,0,0-.51-1.09,2.6,2.6,0,0,0-1.49-.36h-3.07l-.1.67h-.4v-1.86h.4l.1.58h3a2.61,2.61,0,0,1,1.86.59,2.1,2.1,0,0,1,.62,1.58A2.19,2.19,0,0,1,725.13,379.06Z" transform="translate(-680.17 -363.9)" style="fill:#e6e9f2"/><path d="M720.25,373.42l-.1.66h-.4V370l1.24-.11v.45l-.78.23,0,2h2.25l0-1.34-.67-.11v-.44h1.84v.44l-.68.11,0,1.34h2.39l-.08-2.26-1-.42.14-.47,1.39.23v4.44h-.39l-.08-.67Z" transform="translate(-680.17 -363.9)" style="fill:#e6e9f2"/><path d="M725.71,367.67c-.05.22-.11.46-.19.72a1.69,1.69,0,0,0-.1.36l-1.45-.06v-.52l1-.13a1,1,0,0,0,.23-.45,2,2,0,0,0,.1-.67,1.37,1.37,0,0,0-.27-.92.91.91,0,0,0-.75-.32.89.89,0,0,0-.54.17,1.44,1.44,0,0,0-.38.46c-.11.19-.23.45-.38.78a5.61,5.61,0,0,1-.41.78,1.86,1.86,0,0,1-.55.57,1.37,1.37,0,0,1-.84.25,1.39,1.39,0,0,1-.79-.24,1.55,1.55,0,0,1-.54-.68,2.4,2.4,0,0,1-.2-1,4.23,4.23,0,0,1,0-.66c0-.19.09-.4.15-.64a1.5,1.5,0,0,0,.08-.27l1.34,0v.49l-1,.16a.82.82,0,0,0-.16.34,2.28,2.28,0,0,0-.07.54,1.33,1.33,0,0,0,.23.84.83.83,0,0,0,.68.28.79.79,0,0,0,.53-.17,1.41,1.41,0,0,0,.37-.43q.15-.25.42-.81a9.13,9.13,0,0,1,.44-.85,1.89,1.89,0,0,1,.53-.56,1.24,1.24,0,0,1,.77-.24,1.58,1.58,0,0,1,.82.24,1.72,1.72,0,0,1,.64.71,2.54,2.54,0,0,1,.25,1.18A3.38,3.38,0,0,1,725.71,367.67Z" transform="translate(-680.17 -363.9)" style="fill:#e6e9f2"/><path d="M697.33,396.53l0,.23h-.15v-.39c0-.08,0-.15,0-.22s0-.21,0-.3a.92.92,0,0,1,.16-.62.59.59,0,0,1,.48-.18.82.82,0,0,1,.42.11.91.91,0,0,1,.27.31,1.06,1.06,0,0,1,.09.45,1.09,1.09,0,0,1,0,.18v.11h.66l0-.41h.15v1h-.15l0-.25Zm1.06-.61a.49.49,0,0,0-.15-.38.62.62,0,0,0-.47-.15.46.46,0,0,0-.37.13.62.62,0,0,0-.11.4,1.41,1.41,0,0,0,0,.2.55.55,0,0,0,0,.09h1.06A1.75,1.75,0,0,0,698.39,395.92Z" transform="translate(-680.17 -363.9)" style="fill:#e6e9f2"/><path d="M699.23,394.84l0-.25h-1.87l0,.23h-.14v-.39c0-.06,0-.13,0-.23s0-.18,0-.23a1,1,0,0,1,.15-.63.5.5,0,0,1,.44-.19.65.65,0,0,1,.39.12.57.57,0,0,1,.24.33.52.52,0,0,1,.18-.18,2.9,2.9,0,0,1,.35-.21,1.93,1.93,0,0,0,.24-.14.19.19,0,0,0,.09-.09l0-.12h.15v.42s0,.06-.11.1a2.32,2.32,0,0,1-.32.16,4,4,0,0,0-.37.19c-.1,0-.16.1-.18.16v.38h.8l0-.3h.15v.87Zm-1.12-1.23a.51.51,0,0,0-.37-.11.5.5,0,0,0-.34.11.51.51,0,0,0-.11.39,1.21,1.21,0,0,0,0,.19v.08h.93a.82.82,0,0,0,0-.19v-.17A.38.38,0,0,0,698.11,393.61Z" transform="translate(-680.17 -363.9)" style="fill:#e6e9f2"/><path d="M699.27,392.33a.91.91,0,0,1-.4.32,1.38,1.38,0,0,1-.59.11,1.28,1.28,0,0,1-.61-.13,1,1,0,0,1-.4-.36,1,1,0,0,1,.15-1.23,1.27,1.27,0,0,1,.82-.24,1.31,1.31,0,0,1,.61.13.93.93,0,0,1,.41.37.91.91,0,0,1,.15.52A.93.93,0,0,1,699.27,392.33Zm-1.74-.09a1.39,1.39,0,0,0,.75.16,1.33,1.33,0,0,0,.71-.16.53.53,0,0,0,0-.91,1.7,1.7,0,0,0-1.46,0,.51.51,0,0,0-.25.46A.53.53,0,0,0,697.53,392.24Z" transform="translate(-680.17 -363.9)" style="fill:#e6e9f2"/><path d="M699.27,390.13a1,1,0,0,1-.4.35,1.48,1.48,0,0,1-.61.12,1.25,1.25,0,0,1-.59-.14,1,1,0,0,1-.4-.39,1,1,0,0,1-.15-.55,2.67,2.67,0,0,1,.08-.56v-.09l.54,0v.21l-.38.07a.57.57,0,0,0-.06.15.9.9,0,0,0,0,.25.57.57,0,0,0,.1.34.83.83,0,0,0,.33.24,1.52,1.52,0,0,0,.51.08,1.61,1.61,0,0,0,.51-.07.87.87,0,0,0,.37-.23.55.55,0,0,0,.13-.38.79.79,0,0,0,0-.24.53.53,0,0,0-.08-.15l-.29-.12,0-.19.42.07a1.86,1.86,0,0,0,.05.19,1.94,1.94,0,0,1,0,.2,1.69,1.69,0,0,1,0,.25A1.15,1.15,0,0,1,699.27,390.13Z" transform="translate(-680.17 -363.9)" style="fill:#e6e9f2"/><path d="M697.33,388.35l0,.25h-.15v-1.53l.46,0v.17l-.29.09,0,.74h.85v-.5l-.25,0v-.17h.69v.17l-.26,0v.5h.9l0-.85-.38-.15.05-.18.53.09v1.66h-.15l0-.25Z" transform="translate(-680.17 -363.9)" style="fill:#e6e9f2"/><path d="M699.38,386.2c0,.08,0,.17-.07.26l0,.14-.54,0v-.2l.39-.05a.57.57,0,0,0,.09-.16,1,1,0,0,0,0-.26.49.49,0,0,0-.1-.34.35.35,0,0,0-.28-.12.32.32,0,0,0-.2.06.58.58,0,0,0-.14.17q-.06.1-.15.3a2.57,2.57,0,0,1-.15.29.7.7,0,0,1-.21.21.46.46,0,0,1-.31.1.53.53,0,0,1-.3-.09.67.67,0,0,1-.2-.26.93.93,0,0,1-.08-.39,1.66,1.66,0,0,1,0-.24l.06-.24a.62.62,0,0,1,0-.1h.5v.19l-.37.06a.23.23,0,0,0-.05.12.71.71,0,0,0,0,.21.46.46,0,0,0,.09.31.3.3,0,0,0,.25.11.27.27,0,0,0,.2-.07A.56.56,0,0,0,698,386a2,2,0,0,0,.15-.3,3,3,0,0,1,.17-.32.8.8,0,0,1,.2-.21.48.48,0,0,1,.29-.09.55.55,0,0,1,.3.09.64.64,0,0,1,.24.27.84.84,0,0,1,.1.44A1.27,1.27,0,0,1,699.38,386.2Z" transform="translate(-680.17 -363.9)" style="fill:#e6e9f2"/><path d="M699.38,384.41c0,.09,0,.17-.07.27l0,.14-.54,0v-.19l.39-.05a.52.52,0,0,0,.09-.17,1,1,0,0,0,0-.25.52.52,0,0,0-.1-.35.38.38,0,0,0-.28-.11.32.32,0,0,0-.2.06.47.47,0,0,0-.14.17l-.15.29a2.79,2.79,0,0,1-.15.3.7.7,0,0,1-.21.21.52.52,0,0,1-.31.09.61.61,0,0,1-.3-.08.67.67,0,0,1-.2-.26.93.93,0,0,1-.08-.39,1.66,1.66,0,0,1,0-.24l.06-.24,0-.11.5,0v.18l-.37.07a.19.19,0,0,0-.05.12.64.64,0,0,0,0,.2.49.49,0,0,0,.09.32.3.3,0,0,0,.25.11.32.32,0,0,0,.2-.07.73.73,0,0,0,.14-.16,2.28,2.28,0,0,0,.15-.31,2.7,2.7,0,0,1,.17-.31.7.7,0,0,1,.2-.22.55.55,0,0,1,.29-.08.58.58,0,0,1,.54.35.89.89,0,0,1,.1.44A1.14,1.14,0,0,1,699.38,384.41Z" transform="translate(-680.17 -363.9)" style="fill:#e6e9f2"/></svg>