<svg id="b1b0ffbd-b40d-49d7-bb7d-25e895038583" data-name="Layer 1" xmlns="http://www.w3.org/2000/svg" viewBox="0 0 46.52 45.56"><g id="bd3a1137-582b-4849-8ba3-d79dc0c97302" data-name="graph-16"><rect y="45.33" width="46.29" height="0.23" style="fill:#d1d3d4"/><rect x="0.07" y="39.03" width="46.23" height="0.23" style="fill:#d1d3d4"/><rect x="0.07" y="31.35" width="46.23" height="0.23" style="fill:#d1d3d4"/><rect x="0.07" y="23.66" width="46.23" height="0.23" style="fill:#d1d3d4"/><rect x="0.07" y="15.98" width="46.23" height="0.23" style="fill:#d1d3d4"/><rect x="0.07" y="8.29" width="46.23" height="0.23" style="fill:#d1d3d4"/><rect x="0.03" width="0.23" height="45.51" style="fill:#d1d3d4"/><rect x="7.72" y="0.58" width="0.23" height="44.93" style="fill:#d1d3d4"/><rect x="15.4" y="0.58" width="0.23" height="44.93" style="fill:#d1d3d4"/><rect x="23.09" y="0.58" width="0.23" height="44.93" style="fill:#d1d3d4"/><rect x="30.77" y="0.58" width="0.23" height="44.93" style="fill:#d1d3d4"/><rect x="38.46" y="0.58" width="0.23" height="44.93" style="fill:#d1d3d4"/><polygon points="9.36 21.87 0.32 45.56 14.02 45.56 15.53 37.66 9.36 21.87" style="fill:#5f64a2"/><polygon points="23.12 1.41 13.7 45.56 28.51 45.56 31 36.93 23.12 1.41" style="fill:#f6c96d"/><polygon points="37.06 13.63 28.23 45.56 46.52 45.56 37.06 13.63" style="fill:#46496b"/></g><path d="M689.34,408.11l-.05.31h-.2v-.52a2.53,2.53,0,0,0,0-.28c0-.14,0-.28,0-.41a1.18,1.18,0,0,1,.21-.8.79.79,0,0,1,.63-.24,1,1,0,0,1,.55.15.91.91,0,0,1,.35.4,1.38,1.38,0,0,1,.12.59v.24c0,.07,0,.12,0,.14h.87l0-.54H692v1.29h-.19l0-.33Zm1.38-.8a.68.68,0,0,0-.19-.5.82.82,0,0,0-.62-.2.62.62,0,0,0-.48.17.8.8,0,0,0-.15.53,2.62,2.62,0,0,0,0,.27.59.59,0,0,1,0,.11h1.4A1.79,1.79,0,0,0,690.72,407.31Z" transform="translate(-681.12 -364.17)" style="fill:#f09d37"/><path d="M691.83,405.89l0-.33h-2.45l-.05.31h-.2v-.51c0-.08,0-.18,0-.31s0-.23,0-.3a1.45,1.45,0,0,1,.19-.83.7.7,0,0,1,.59-.25.91.91,0,0,1,.51.16.77.77,0,0,1,.32.43.73.73,0,0,1,.23-.24l.45-.26.33-.19a.24.24,0,0,0,.11-.12l0-.16H692v.55s0,.09-.13.14l-.42.21a4.83,4.83,0,0,0-.5.24.53.53,0,0,0-.23.21c0,.28,0,.45,0,.5h1.06l0-.39H692v1.14Zm-1.47-1.62a.77.77,0,0,0-.49-.14.59.59,0,0,0-.44.15.69.69,0,0,0-.15.51,2.18,2.18,0,0,0,0,.25.51.51,0,0,1,0,.1h1.22v-.47A.51.51,0,0,0,690.36,404.27Z" transform="translate(-681.12 -364.17)" style="fill:#f09d37"/><path d="M691.88,402.6a1.09,1.09,0,0,1-.52.42,2.13,2.13,0,0,1-.78.14,1.81,1.81,0,0,1-.8-.17,1.22,1.22,0,0,1-.53-.47,1.28,1.28,0,0,1-.19-.67,1.15,1.15,0,0,1,.39-.94,1.61,1.61,0,0,1,1.07-.33,1.8,1.8,0,0,1,.82.18,1.26,1.26,0,0,1,.54.48,1.31,1.31,0,0,1,.19.68A1.14,1.14,0,0,1,691.88,402.6Zm-2.28-.13a1.76,1.76,0,0,0,1,.22,1.78,1.78,0,0,0,.93-.21.69.69,0,0,0,.35-.6.67.67,0,0,0-.35-.6,1.75,1.75,0,0,0-1-.23,1.64,1.64,0,0,0-.93.22.67.67,0,0,0-.33.6A.68.68,0,0,0,689.6,402.47Z" transform="translate(-681.12 -364.17)" style="fill:#f09d37"/><path d="M691.88,399.7a1.19,1.19,0,0,1-.53.46,1.77,1.77,0,0,1-.79.16,1.5,1.5,0,0,1-.78-.19,1.28,1.28,0,0,1-.53-.5,1.5,1.5,0,0,1-.19-.73,3.15,3.15,0,0,1,.1-.73l0-.13.71,0v.26l-.5.1a.48.48,0,0,0-.08.2,1.55,1.55,0,0,0,0,.33.71.71,0,0,0,.14.45,1,1,0,0,0,.42.31,1.92,1.92,0,0,0,.67.11,2.11,2.11,0,0,0,.68-.1,1.16,1.16,0,0,0,.48-.3.71.71,0,0,0,.18-.5.92.92,0,0,0,0-.32.44.44,0,0,0-.1-.19l-.38-.16,0-.25.56.09a1.08,1.08,0,0,0,.05.25,2.68,2.68,0,0,1,.07.27,1.55,1.55,0,0,1,0,.33A1.43,1.43,0,0,1,691.88,399.7Z" transform="translate(-681.12 -364.17)" style="fill:#f09d37"/><path d="M689.34,397.37l-.05.32h-.2v-2l.61-.05v.22l-.38.12,0,1h1.11v-.65l-.33-.06V396H691v.21l-.34.06v.65h1.17l0-1.11-.49-.21.07-.23.68.12v2.18h-.19l0-.32Z" transform="translate(-681.12 -364.17)" style="fill:#f09d37"/><path d="M692,394.53a3.15,3.15,0,0,1-.09.36.62.62,0,0,0-.05.18l-.71,0v-.25l.51-.07a.51.51,0,0,0,.11-.21,1.27,1.27,0,0,0,.05-.34.71.71,0,0,0-.13-.45.46.46,0,0,0-.38-.16.39.39,0,0,0-.26.09.69.69,0,0,0-.19.22,3.93,3.93,0,0,0-.18.39l-.2.38a.93.93,0,0,1-.28.28.69.69,0,0,1-.41.12.71.71,0,0,1-.39-.11.85.85,0,0,1-.27-.34,1.29,1.29,0,0,1-.1-.51,1.51,1.51,0,0,1,0-.32c0-.09,0-.2.07-.32a.38.38,0,0,0,0-.13l.66,0v.24l-.48.08a.44.44,0,0,0-.08.17,1.12,1.12,0,0,0,0,.27.69.69,0,0,0,.11.41.42.42,0,0,0,.33.14.4.4,0,0,0,.27-.09.63.63,0,0,0,.18-.21,3.62,3.62,0,0,0,.2-.4c.08-.17.16-.31.22-.42a1.16,1.16,0,0,1,.26-.28.7.7,0,0,1,.38-.11.8.8,0,0,1,.4.11.87.87,0,0,1,.32.36,1.16,1.16,0,0,1,.13.58A1.32,1.32,0,0,1,692,394.53Z" transform="translate(-681.12 -364.17)" style="fill:#f09d37"/><path d="M692,392.19a3.15,3.15,0,0,1-.09.36.58.58,0,0,0-.05.17l-.71,0v-.25l.51-.07a.56.56,0,0,0,.11-.22,1.14,1.14,0,0,0,.05-.33.71.71,0,0,0-.13-.45.46.46,0,0,0-.38-.16.45.45,0,0,0-.26.08.87.87,0,0,0-.19.23c0,.09-.11.22-.18.38s-.14.28-.2.39a.93.93,0,0,1-.28.28.69.69,0,0,1-.41.12.71.71,0,0,1-.39-.11.85.85,0,0,1-.27-.34,1.36,1.36,0,0,1-.1-.51,1.51,1.51,0,0,1,0-.32c0-.09,0-.2.07-.32a.46.46,0,0,0,0-.13l.66,0v.24l-.48.08a.46.46,0,0,0-.08.16,1.24,1.24,0,0,0,0,.27.72.72,0,0,0,.11.42.42.42,0,0,0,.33.14.4.4,0,0,0,.27-.09.74.74,0,0,0,.18-.21,3.62,3.62,0,0,0,.2-.4c.08-.17.16-.31.22-.42a1.16,1.16,0,0,1,.26-.28.63.63,0,0,1,.38-.11.71.71,0,0,1,.4.11.87.87,0,0,1,.32.36,1.14,1.14,0,0,1,.13.57A1.4,1.4,0,0,1,692,392.19Z" transform="translate(-681.12 -364.17)" style="fill:#f09d37"/><path d="M716.69,407.66l-.06.54h-.25v-1.31l2.22-.69.63-.16-.63-.15-2.22-.69v-1.3h.25l.06.54,3.06-.39,0-.43h.25V405h-.25l0-.45-2.22.22-.95.11.71.2,2.58.83v.32l-2.36.8-.93.29.95.09,2.22.19,0-.49h.25v1.29h-.25l0-.42Z" transform="translate(-681.12 -364.17)" style="fill:#f09d37"/><path d="M716.69,403l-.06.4h-.25v-2.51l.77-.07v.28l-.48.15,0,1.22H718l0-.83-.4-.06v-.27h1.13v.27l-.42.06,0,.83h1.47l0-1.39-.62-.26.09-.29.86.14v2.73h-.25l0-.4Z" transform="translate(-681.12 -364.17)" style="fill:#f09d37"/><path d="M716.65,399l0,.85,1,.17v.33l-1.32-.08v-3.07l1.32-.06v.31l-1,.16,0,.85h3.11l0-.7h.25v1.89h-.25l0-.65Z" transform="translate(-681.12 -364.17)" style="fill:#f09d37"/><path d="M719.8,396.75l0-.41h-3.07l-.07.38h-.24v-.64a2.83,2.83,0,0,0,0-.38c0-.16,0-.29,0-.38a1.73,1.73,0,0,1,.24-1,.86.86,0,0,1,.73-.3,1.15,1.15,0,0,1,.65.19,1,1,0,0,1,.39.54.82.82,0,0,1,.29-.3c.14-.09.32-.2.57-.33l.4-.23a.36.36,0,0,0,.15-.16l0-.19h.25v.68c0,.05-.06.11-.17.18l-.53.26c-.26.12-.47.22-.62.31a.68.68,0,0,0-.29.25c0,.36,0,.56,0,.63h1.33l0-.49h.25v1.43Zm-1.83-2a.89.89,0,0,0-.62-.19.78.78,0,0,0-.55.19.84.84,0,0,0-.19.64c0,.1,0,.21,0,.31a.85.85,0,0,1,0,.13h1.53v-.59A.63.63,0,0,0,718,394.73Z" transform="translate(-681.12 -364.17)" style="fill:#f09d37"/><path d="M716.69,392.78l-.06.46h-.25v-1.45h.25l.06.46h3.07l0-.46h.24v1.44h-.25l0-.45Z" transform="translate(-681.12 -364.17)" style="fill:#f09d37"/><path d="M719.87,390.58a1.55,1.55,0,0,1-.66.58,2.38,2.38,0,0,1-1,.19,1.91,1.91,0,0,1-1-.23,1.55,1.55,0,0,1-.66-.63,1.74,1.74,0,0,1-.24-.91,4.22,4.22,0,0,1,.12-.91l0-.16.89.05v.33l-.63.12a.61.61,0,0,0-.1.24,1.62,1.62,0,0,0,0,.41,1,1,0,0,0,.18.57,1.19,1.19,0,0,0,.53.38,2.11,2.11,0,0,0,.84.14,2.75,2.75,0,0,0,.84-.12,1.39,1.39,0,0,0,.6-.37.92.92,0,0,0,.23-.63,1.4,1.4,0,0,0-.05-.4.68.68,0,0,0-.12-.24l-.49-.2,0-.31.7.12a2.3,2.3,0,0,0,.07.3,2.46,2.46,0,0,1,.09.34,2.37,2.37,0,0,1,0,.41A1.81,1.81,0,0,1,719.87,390.58Z" transform="translate(-681.12 -364.17)" style="fill:#f09d37"/><path d="M720.06,387.33c0,.13-.07.28-.12.44a.66.66,0,0,0-.06.22l-.89,0v-.31l.64-.08a.8.8,0,0,0,.14-.28,1.31,1.31,0,0,0,.06-.41.86.86,0,0,0-.17-.57.57.57,0,0,0-.46-.2.52.52,0,0,0-.33.11,1,1,0,0,0-.24.28c-.06.12-.14.28-.23.48a5.27,5.27,0,0,1-.25.48,1.26,1.26,0,0,1-.34.35.91.91,0,0,1-.52.15.85.85,0,0,1-.49-.14,1,1,0,0,1-.33-.42,1.55,1.55,0,0,1-.13-.64,2.35,2.35,0,0,1,0-.4c0-.12,0-.25.09-.4a.71.71,0,0,0,0-.16l.82,0v.3l-.6.09a.52.52,0,0,0-.09.21,1.21,1.21,0,0,0,0,.34.82.82,0,0,0,.14.51.52.52,0,0,0,.42.18.52.52,0,0,0,.33-.11.92.92,0,0,0,.22-.26,5.64,5.64,0,0,0,.26-.51,4.74,4.74,0,0,1,.28-.52,1.32,1.32,0,0,1,.32-.35.82.82,0,0,1,.47-.14,1,1,0,0,1,.51.14,1.09,1.09,0,0,1,.39.45,1.47,1.47,0,0,1,.16.72A2.19,2.19,0,0,1,720.06,387.33Z" transform="translate(-681.12 -364.17)" style="fill:#f09d37"/><path d="M701.53,408.56v-2h.38l.08.66L705.5,406l.91-.27-.92-.25-3.5-1.12-.08.6h-.38v-1.67h.38l.08.48,5.16,1.77v.65L702,408.1l-.08.46Z" transform="translate(-681.12 -364.17)" style="fill:#f09d37"/><path d="M701.49,401.26v-.82l5.15-1.82.08-.46h.37v2h-.37l-.08-.62-1.1.35v2.19l1.1.35.08-.64h.37v1.77h-.37l-.08-.47Zm1.19-.47L702,401l.68.18,2.4.75V400Z" transform="translate(-681.12 -364.17)" style="fill:#f09d37"/><path d="M702,397.28l-.08.6h-.38v-2.14h.38l.08.74h4.65l-.06-1.93-1.26-.44.07-.46,1.7.26v4h-.37l-.08-.62Z" transform="translate(-681.12 -364.17)" style="fill:#f09d37"/><path d="M706.56,392.29a2.73,2.73,0,0,1-1.82.52H702l-.08.53h-.38v-2h.38l.09.64h2.82a2.3,2.3,0,0,0,1.47-.37,1.27,1.27,0,0,0,.44-1,1.17,1.17,0,0,0-.47-1,2.46,2.46,0,0,0-1.39-.34H702l-.09.63h-.38V388.1h.38l.08.54h2.84a2.41,2.41,0,0,1,1.74.56,2,2,0,0,1,.58,1.47A2.07,2.07,0,0,1,706.56,392.29Z" transform="translate(-681.12 -364.17)" style="fill:#f09d37"/><path d="M702,387l-.08.61h-.38v-3.8l1.16-.11v.43l-.72.22-.05,1.85H704l0-1.25-.62-.1v-.41h1.71v.41l-.64.1,0,1.25h2.23l-.08-2.11-.94-.39.14-.44,1.3.21v4.15h-.37l-.08-.62Z" transform="translate(-681.12 -364.17)" style="fill:#f09d37"/><path d="M707.1,381.65a6.23,6.23,0,0,1-.18.67,1.94,1.94,0,0,0-.09.34l-1.35-.06v-.48l1-.13a1,1,0,0,0,.21-.42,1.81,1.81,0,0,0,.1-.63,1.28,1.28,0,0,0-.26-.86.87.87,0,0,0-.7-.3.8.8,0,0,0-.5.17,1.36,1.36,0,0,0-.36.42,7.39,7.39,0,0,0-.35.73,7,7,0,0,1-.38.73,1.78,1.78,0,0,1-.52.54,1.4,1.4,0,0,1-1.52,0,1.43,1.43,0,0,1-.51-.64,2.27,2.27,0,0,1-.19-1,3.67,3.67,0,0,1,0-.61c0-.17.09-.38.15-.6a1.76,1.76,0,0,0,.06-.25l1.26,0v.46l-.92.15a.69.69,0,0,0-.14.31,1.61,1.61,0,0,0-.07.51,1.19,1.19,0,0,0,.22.78.75.75,0,0,0,.63.27.85.85,0,0,0,.5-.16,1.52,1.52,0,0,0,.34-.41c.09-.15.22-.41.39-.76a6.84,6.84,0,0,1,.42-.79,1.89,1.89,0,0,1,.49-.53,1.23,1.23,0,0,1,.72-.22,1.52,1.52,0,0,1,.76.22,1.55,1.55,0,0,1,.6.68,2.28,2.28,0,0,1,.24,1.09A3,3,0,0,1,707.1,381.65Z" transform="translate(-681.12 -364.17)" style="fill:#f09d37"/></svg>