<?xml version="1.0" encoding="utf-8"?>
<!-- Generator: Adobe Illustrator 24.0.2, SVG Export Plug-In . SVG Version: 6.00 Build 0)  -->
<svg version="1.1" id="Layer_1" xmlns="http://www.w3.org/2000/svg" xmlns:xlink="http://www.w3.org/1999/xlink" x="0px" y="0px"
	 viewBox="0 0 60 60" style="enable-background:new 0 0 60 60;" xml:space="preserve">
<title></title>
<g id="Bot_33">
	<path d="M23,9c0-2.8-2.2-5-5-5s-5,2.2-5,5s2.2,5,5,5S23,11.8,23,9z M15,9c0-1.7,1.3-3,3-3s3,1.3,3,3s-1.3,3-3,3S15,10.7,15,9z"/>
	<path d="M42,14c2.8,0,5-2.2,5-5s-2.2-5-5-5s-5,2.2-5,5S39.2,14,42,14z M42,6c1.7,0,3,1.3,3,3s-1.3,3-3,3s-3-1.3-3-3S40.3,6,42,6z"
		/>
	<path d="M54.5,17h-1.7c0.1-0.3,0.2-0.7,0.2-1V3c0-1.7-1.3-3-3-3H10C8.3,0,7,1.3,7,3v13c0,0.3,0.1,0.7,0.2,1H5.5
		c-3-0.1-5.6,2.2-5.8,5.2S2,27.9,5,28v11.7c-3.5,1.7-4.9,5.9-3.3,9.3c0.5,1,1.2,1.9,2.1,2.6C4.2,51.9,4.6,52,5,52
		c0.3,0,0.6-0.1,0.9-0.2C6.6,51.5,7,50.8,7,50v-4c0-0.3,0.2-0.7,0.5-0.8C7.6,45.1,7.8,45,7.9,45c0.3,0,0.5,0.1,0.7,0.3
		C8.9,45.5,9,45.8,9,46.1V50c0,0.8,0.4,1.5,1.1,1.8c0.6,0.3,1.4,0.3,2-0.2c3.1-2.3,3.8-6.7,1.5-9.8c-0.7-0.9-1.6-1.7-2.6-2.2V28h4
		c0.2,2.3,0.8,4.5,2,6.5v17.6c-2.1,1.2-3.5,3.2-3.9,5.6c-0.1,0.6,0.1,1.2,0.4,1.6c0.4,0.5,0.9,0.7,1.5,0.7h11.8
		c0.6,0,1.2-0.3,1.5-0.7c0.4-0.4,0.5-1,0.5-1.6c-0.4-2.4-1.8-4.4-3.9-5.6v-11c3.2,1.1,6.8,1.1,10,0v11c-2.1,1.2-3.5,3.2-3.9,5.6
		c-0.1,0.6,0.1,1.2,0.5,1.6c0.4,0.5,0.9,0.7,1.5,0.7h11.8c0.6,0,1.2-0.3,1.5-0.7c0.4-0.4,0.5-1,0.5-1.6c-0.4-2.4-1.8-4.4-3.9-5.6
		V34.5c1.2-2,1.8-4.2,2-6.5h4v11.7c-3.5,1.7-5,5.9-3.3,9.3c0.5,1,1.2,1.9,2.1,2.6c0.6,0.4,1.4,0.5,2,0.2c0.7-0.3,1.1-1,1.2-1.8v-3.9
		c0-0.3,0.1-0.6,0.4-0.9c0.2-0.2,0.4-0.3,0.7-0.3c0.2,0,0.3,0.1,0.5,0.2c0.3,0.2,0.5,0.5,0.5,0.8v4c0,0.8,0.4,1.5,1.1,1.8
		c0.3,0.1,0.6,0.2,0.9,0.2c0.4,0,0.8-0.1,1.2-0.4c3.1-2.3,3.7-6.7,1.4-9.8c-0.7-0.9-1.6-1.6-2.6-2.1V28c3-0.1,5.4-2.7,5.2-5.8
		C60.1,19.2,57.5,16.9,54.5,17z M9,16V3c0-0.6,0.4-1,1-1h40c0.6,0,1,0.4,1,1v13c0,0.6-0.4,1-1,1H10C9.4,17,9,16.6,9,16z M13,46
		c0,1.6-0.7,3.1-2,4v-3.9c0-0.9-0.4-1.7-1-2.3C9.4,43.2,8.6,43,7.8,43C6.2,43.1,5,44.4,5,46v4c-2.2-1.6-2.7-4.8-1-7
		c0.6-0.8,1.4-1.4,2.3-1.7h0.1l0,0c0.2-0.1,0.4-0.1,0.5-0.1l0.3-0.1C7.4,41,7.7,41,8,41c0.6,0,1.1,0.1,1.6,0.3h0.1
		C11.7,42,13,43.9,13,46z M9,39.1C8.7,39,8.4,39,8.1,39l0,0c-0.3,0-0.6,0-0.9,0.1H7V28h2V39.1z M5.5,26C3.6,26,2,24.4,2,22.5
		S3.6,19,5.5,19H15v7H5.5z M20.8,38.9l0.3,0.2c0.2,0.2,0.5,0.3,0.7,0.5l0.4,0.2l0.7,0.4l0.2,0.1v11h-0.2l-0.4-0.1
		c-0.2,0-0.4-0.1-0.5-0.1h-0.3c-0.2,0-0.4,0-0.6,0s-0.4,0-0.6,0h-0.4l-0.5,0.1l-0.4,0.1H19v-14l0.1,0.1c0.2,0.2,0.5,0.5,0.7,0.7
		l0.1,0.1C20.2,38.4,20.5,38.6,20.8,38.9z M26.9,58H15.1c0.5-3.3,3.6-5.5,6.9-4.9c0.5,0.1,0.9,0.2,1.4,0.4l0.2,0.1
		C25.3,54.4,26.6,56.1,26.9,58z M24.4,38.8c-0.3-0.1-0.6-0.3-0.9-0.4C19.5,36,17,31.7,17,27v-8h26v8c0,7.2-5.8,13-13,13
		C28.1,40,26.2,39.6,24.4,38.8L24.4,38.8z M41,37.2v14h-0.2l-0.4-0.1c-0.2,0-0.4-0.1-0.5-0.1h-0.3c-0.2,0-0.4,0-0.6,0s-0.4,0-0.6,0
		h-0.3l-0.5,0.1l-0.4,0.1H37v-11l0.2-0.1l0.6-0.4l0.4-0.2c0.2-0.2,0.5-0.3,0.7-0.5l0.3-0.2c0.3-0.2,0.6-0.5,0.9-0.8l0.2-0.1
		C40.5,37.7,40.7,37.5,41,37.2L41,37.2z M44.9,58H33.1c0.5-3.3,3.6-5.5,6.9-4.9c0.5,0.1,0.9,0.2,1.4,0.4l0.2,0.1
		C43.3,54.4,44.6,56.1,44.9,58z M53,39.1c-0.3,0-0.7-0.1-1-0.1l0,0c-0.3,0-0.6,0-0.9,0.1H51V28h2V39.1z M57,46c0,1.6-0.7,3.1-2,4v-4
		c0-1.6-1.2-2.9-2.8-3c-0.8,0-1.6,0.2-2.2,0.8c-0.6,0.6-1,1.4-1,2.3l0,3.9c-2.2-1.6-2.7-4.8-1-7c0.6-0.8,1.3-1.4,2.2-1.7h0.1
		c0.5-0.2,1.1-0.3,1.6-0.3c0.6,0,1.2,0.1,1.7,0.3l0,0h0C55.7,42,57,43.9,57,46z M54.5,26H45v-7h9.5c1.9,0,3.5,1.6,3.5,3.5
		S56.4,26,54.5,26z"/>
</g>
</svg>
