<?xml version="1.0" ?><svg viewBox="0 0 60 60" xmlns="http://www.w3.org/2000/svg"><title/><g data-name="Bot 33" id="Bot_33"><path d="M16,20a9,9,0,0,0-2.35,17.69l7.05,15.87A14,14,0,0,0,17.86,57a1.94,1.94,0,0,0,0,2,2,2,0,0,0,1.74,1H40.39a2,2,0,0,0,1.74-1,2,2,0,0,0,0-2,14,14,0,0,0-10.35-6.88l-9.26-15A9,9,0,0,0,25,29a8.87,8.87,0,0,0-.11-1.32l14.6-13.87c.17,0,.34.08.51.11V27.07a6.62,6.62,0,0,0-1.27.32l-.13,0h0a7,7,0,0,0-1.76,12.2,1.94,1.94,0,0,0,2,.16A2,2,0,0,0,40,38V34.13a1.21,1.21,0,0,1,.37-.86.93.93,0,0,1,.69-.26,1,1,0,0,1,.47.15A1,1,0,0,1,42,34v4a2,2,0,0,0,1.11,1.8A2,2,0,0,0,44,40a1.93,1.93,0,0,0,1.15-.38,7,7,0,0,0-1.74-12.19h0l0,0A6.74,6.74,0,0,0,42,27.09V13.92A7,7,0,1,0,34,7a7.19,7.19,0,0,0,0,.83L18.14,20.28A9.07,9.07,0,0,0,16,20ZM40.39,58l-20.8,0a12,12,0,0,1,3-3.43A11.8,11.8,0,0,1,30,52a10.52,10.52,0,0,1,1.09.06A12,12,0,0,1,40.39,58ZM29,50l-.36,0-.8.1-.28,0q-.53.09-1,.22l-.2.06-.83.25-.34.12-.68.27-.34.15-.71.35-.25.13c-.29.16-.58.33-.86.52L16,38h0a8.92,8.92,0,0,0,1.19-.09l.23,0a9,9,0,0,0,1.11-.25l.21-.07a9,9,0,0,0,1-.39l.1,0a9.1,9.1,0,0,0,1-.57l.12-.07L29.36,50ZM20.61,34.27a7.09,7.09,0,0,1-5.49,1.66l-.55-.07A7,7,0,0,1,16,22a7.12,7.12,0,0,1,2.08.31,7,7,0,0,1,4.76,5.22A6.76,6.76,0,0,1,23,29,7,7,0,0,1,20.61,34.27Zm22.05-5,.05,0A5,5,0,0,1,44,38V34a3,3,0,0,0-2.81-3,2.9,2.9,0,0,0-2.18.8,3.2,3.2,0,0,0-1,2.32L38,38a5,5,0,0,1,1.25-8.71h0l.07,0A4.44,4.44,0,0,1,40.93,29a4.82,4.82,0,0,1,1.71.29ZM41,2a5,5,0,0,1,1,9.9V8a1,1,0,0,0-2,0v3.89a5.06,5.06,0,0,1-.51-.12,5,5,0,0,1-.62-.24A5,5,0,0,1,36.11,8,4.74,4.74,0,0,1,36,7,5,5,0,0,1,41,2ZM34.63,9.91l.07.13c.09.19.2.38.31.56s.12.2.18.3a7,7,0,0,0,.49.64l.11.14a7,7,0,0,0,.71.68l.23.17a6.93,6.93,0,0,0,.58.41l.09.07L24.29,25.49c-.08-.19-.17-.38-.27-.56l0-.09a8.94,8.94,0,0,0-.54-.89l-.13-.19a9,9,0,0,0-.65-.82l0,0a9,9,0,0,0-.73-.7l-.16-.14a9,9,0,0,0-.84-.62l-.13-.08-.43-.26Z"/><path d="M17.5,24.23A5.12,5.12,0,0,0,16,24a5,5,0,0,0-1.06,9.89A5.71,5.71,0,0,0,16,34a5,5,0,0,0,3.28-1.23A5,5,0,0,0,21,29a4.85,4.85,0,0,0-.12-1.06A5,5,0,0,0,17.5,24.23Zm.47,7a3.06,3.06,0,0,1-2.64.67A3,3,0,0,1,16,26a3.13,3.13,0,0,1,.91.14,3,3,0,0,1,2,2.23A2.84,2.84,0,0,1,19,29,3,3,0,0,1,18,31.26Z"/></g></svg>