<?xml version="1.0" ?><!DOCTYPE svg  PUBLIC '-//W3C//DTD SVG 1.1//EN'  'http://www.w3.org/Graphics/SVG/1.1/DTD/svg11.dtd'><svg height="100mm" style="shape-rendering:geometricPrecision; text-rendering:geometricPrecision; image-rendering:optimizeQuality; fill-rule:evenodd; clip-rule:evenodd" version="1.1" viewBox="0 0 10000 10000" width="100mm" xml:space="preserve" xmlns="http://www.w3.org/2000/svg" xmlns:xlink="http://www.w3.org/1999/xlink"><defs><style type="text/css">
   <![CDATA[
    .fil0 {fill:black;fill-rule:nonzero}
   ]]>
  </style></defs><g id="Слой_x0020_1"><path class="fil0" d="M6403.74 611.01c269.22,269.2 269.22,711.06 0,980.26 -79.86,79.87 -179.14,140.35 -290.13,173.74l0 670.3 -400 -90 0 -580.31c-110.99,-33.4 -210.27,-93.86 -290.13,-173.73 -269.22,-269.2 -269.22,-711.06 0,-980.26 269.2,-269.22 711.06,-269.22 980.26,0zm1165.7 3933.22c115.79,-49.57 175.75,-139.96 205.74,-264.76 73.57,-306.2 -92.82,-691.94 -368.19,-845.95 -111.37,-62.29 -229.72,-79.65 -328.51,-38.11l-49.52 20.82c272.91,314.81 464.3,702.05 540.48,1128zm-853.31 -1428.67l207.67 -87.33c218.29,-91.79 461.16,-63.85 676.95,56.85 431.14,241.13 677.29,806.5 561.93,1286.57 -87.6,364.53 -273.68,469.87 -556.62,590.96 -1.76,476.85 -314.08,898.66 -766.07,1043.25 115.96,93.21 217.23,201.34 303.23,322.64 105.11,-5.14 223.18,-0.24 329.72,-0.24 212.17,0 401.15,109.53 534.68,285.96 121.38,160.38 196.72,378.73 196.72,616.23 0,263.07 -400,263.07 -400,0 0,-148.66 -44.23,-281.47 -115.48,-375.61 -59.1,-78.09 -135.84,-126.58 -215.92,-126.58l-125.43 0c55.39,163.26 83.78,333.7 83.78,506.11 0,647 -264.54,1235.04 -690.72,1661.21 -927.08,927.1 -2545.73,927.1 -3472.81,0 -426.18,-426.17 -690.72,-1014.21 -690.72,-1661.21 0,-172.82 28.27,-342.49 83.78,-506.11l-133.76 0c-80.08,0 -156.82,48.49 -215.92,126.58 -71.25,94.14 -115.48,226.95 -115.48,375.61 0,263.07 -400,263.07 -400,0 0,-237.5 75.34,-455.85 196.72,-616.23 133.53,-176.43 322.51,-285.96 534.68,-285.96l337.67 0.79c85.95,-121.58 187.3,-229.66 303.6,-323.19 -452,-144.61 -764.32,-566.37 -766.06,-1043.25 -282.95,-121.08 -469.03,-226.42 -556.63,-590.96 -115.36,-480.07 130.8,-1045.44 561.93,-1286.57 215.79,-120.7 458.66,-148.64 676.95,-56.85l207.68 87.34c403.85,-323.05 915.21,-516.79 1469.77,-516.79l484.37 0c554.56,0 1065.94,193.74 1469.79,516.78zm-3736.77 300.68l-49.52 -20.83c-98.79,-41.54 -217.14,-24.18 -328.51,38.11 -275.37,154.01 -441.76,539.75 -368.19,845.95 29.99,124.79 89.95,215.22 205.75,264.76 76.18,-425.94 267.57,-813.18 540.47,-1127.99zm2266.98 -417.46l-484.37 0c-538.71,0 -1028.61,220.54 -1383.9,575.83 -355.29,355.3 -575.83,845.2 -575.83,1383.91 0,384.13 315.02,699.17 699.15,699.17l3005.53 0c384.12,0 699.17,-315.03 699.17,-699.16 0,-538.73 -220.54,-1028.63 -575.83,-1383.92 -355.3,-355.29 -845.21,-575.83 -1383.92,-575.83zm1157.67 991.96c269.22,269.2 269.22,711.06 0,980.26 -269.2,269.22 -711.06,269.22 -980.26,0 -269.22,-269.2 -269.22,-711.06 0,-980.26 269.2,-269.22 711.06,-269.22 980.26,0zm-282.82 282.82c-113.83,-113.85 -300.79,-113.85 -414.62,0 -113.85,113.83 -113.85,300.79 0,414.62 113.83,113.85 300.79,113.85 414.62,0 113.85,-113.83 113.85,-300.79 0,-414.62zm-1536.6 -281.11c269.23,269.21 269.21,711.06 0,980.27 -269.2,269.22 -711.06,269.22 -980.26,0 -269.21,-269.21 -269.23,-711.06 0,-980.27 269.2,-269.22 711.06,-269.22 980.26,0zm-282.82 282.82c-113.83,-113.85 -300.79,-113.85 -414.62,0 -113.86,113.84 -113.84,300.79 0,414.63 113.83,113.85 300.79,113.85 414.62,0 113.84,-113.84 113.86,-300.79 0,-414.63zm1553.49 1783.06l-1702.19 0c-323.19,0 -617.17,132.37 -830.41,345.62 -213.25,213.25 -345.62,507.23 -345.62,830.42 0,536.57 219.66,1024.52 573.54,1378.39 770.88,770.9 2136.29,770.9 2907.17,0 353.88,-353.87 573.54,-841.82 573.54,-1378.39 0,-323.19 -132.37,-617.17 -345.62,-830.42 -213.24,-213.25 -507.22,-345.62 -830.41,-345.62zm-1560.55 -4293.32l0 580.3 -400 90 0 -670.31c-110.99,-33.4 -210.27,-93.86 -290.13,-173.73 -269.22,-269.2 -269.22,-711.06 0,-980.26 269.2,-269.22 711.06,-269.22 980.26,0 269.22,269.2 269.22,711.06 0,980.26 -79.86,79.87 -179.14,140.35 -290.13,173.74zm7.31 -871.18c-113.83,-113.85 -300.79,-113.85 -414.62,0 -113.85,113.83 -113.85,300.79 0,414.62 113.83,113.85 300.79,113.85 414.62,0 113.85,-113.83 113.85,-300.79 0,-414.62zm1818.9 0c-113.83,-113.85 -300.79,-113.85 -414.62,0 -113.85,113.83 -113.85,300.79 0,414.62 113.83,113.85 300.79,113.85 414.62,0 113.85,-113.83 113.85,-300.79 0,-414.62z"/></g></svg>