<?xml version="1.0" ?><svg viewBox="0 0 60 60" xmlns="http://www.w3.org/2000/svg"><title/><g data-name="Bot 33" id="Bot_33"><path d="M30,12a7,7,0,1,0-7,7A7,7,0,0,0,30,12Zm-7,5a5,5,0,1,1,5-5A5,5,0,0,1,23,17Z"/><path d="M38,17a5,5,0,1,0-5-5A5,5,0,0,0,38,17Zm0-8a3,3,0,1,1-3,3A3,3,0,0,1,38,9Z"/><path d="M22.29,11.29a1,1,0,1,0,1.42,0A1.05,1.05,0,0,0,22.29,11.29Z"/><path d="M7.61,29.8a1.07,1.07,0,0,1-1.39-.16L3.47,26.88a2,2,0,0,0-2.06-.49A2,2,0,0,0,.08,28,7,7,0,0,0,7,36a6.89,6.89,0,0,0,2.42-.45l5,3A3,3,0,0,0,16,39a3.09,3.09,0,0,0,1.49-.39L19,37.72a11,11,0,0,0,2.75,6.58A10,10,0,0,0,22.91,57l0,0,0,0a10,10,0,0,0,14.08,0l0,0,0,0A10,10,0,0,0,38.21,44.3,11,11,0,0,0,41,37V26a5,5,0,0,0-1-3H41.5a6.5,6.5,0,0,0,6.32-5H48A6,6,0,0,0,48,6h0A6.5,6.5,0,0,0,41.5,0h-23A6.5,6.5,0,0,0,12,6h0a6,6,0,0,0,0,12h.18a6.5,6.5,0,0,0,6.32,5H20a5,5,0,0,0-1,3v4.83l-3,1.7L13.66,31.1a7,7,0,0,0-7.7-9A2,2,0,0,0,4.4,23.41a2,2,0,0,0,.48,2.06L7.7,28.3a1,1,0,0,1-.09,1.5ZM33.88,47.29l.36-.14.57-.26.32-.16c.22-.11.43-.24.63-.37l.21-.13q.39-.26.77-.55A8,8,0,0,1,37.93,49H36a1,1,0,0,0,0,2h1.93a7.91,7.91,0,0,1-1.62,3.9l-1.36-1.36a1,1,0,0,0-1.41,1.41l1.36,1.36A7.91,7.91,0,0,1,31,57.93V56a1,1,0,0,0-2,0v1.93a7.91,7.91,0,0,1-3.9-1.62l1.36-1.36a1,1,0,0,0-1.41-1.41L23.69,54.9A7.91,7.91,0,0,1,22.07,51H24a1,1,0,0,0,0-2H22.07a8,8,0,0,1,1.19-3.31c.25.19.51.38.77.55l.18.11c.22.14.44.27.67.39l.31.15.58.27.35.14.57.2.17.06A4,4,0,0,0,26,50a4,4,0,0,0,8,0,4,4,0,0,0-.86-2.45l.18-.06ZM32,50a2,2,0,1,1-2-2A2,2,0,0,1,32,50ZM52,12a4,4,0,0,1-4,4V8A4,4,0,0,1,52,12ZM8,12a4,4,0,0,1,4-4v8A4,4,0,0,1,8,12Zm6,4.5V6.5A4.5,4.5,0,0,1,18.5,2h23A4.5,4.5,0,0,1,46,6.5v10A4.5,4.5,0,0,1,41.5,21h-23A4.5,4.5,0,0,1,14,16.5ZM21,26a3,3,0,0,1,3-3H36a3,3,0,0,1,3,3V37a9,9,0,0,1-9,9q-.44,0-.87,0A9,9,0,0,1,21,37v-.4l10.49-6a3,3,0,0,0-3-5.22L21,29.68Zm-4,8.26,3.45-2h0l9-5.15a1,1,0,0,1,1,1.75l-5.23,3L19.5,35.15h0l-3,1.71a1,1,0,0,1-1,0l-4.05-2.43a6.57,6.57,0,0,0,.52-.47,6.93,6.93,0,0,0,.82-1l0,0L15,34.24A2,2,0,0,0,17,34.26ZM9.12,26.88,6.26,24.06a5,5,0,0,1,5.27,7h0a4.82,4.82,0,0,1-1,1.42,4.69,4.69,0,0,1-1.43,1,5,5,0,0,1-7-5.24l2.75,2.75a3,3,0,0,0,4.05.31,3,3,0,0,0,.26-4.47Z"/></g></svg>