<?xml version="1.0" ?><svg viewBox="0 0 60 60" xmlns="http://www.w3.org/2000/svg"><title/><g data-name="Bot 33" id="Bot_33"><path d="M23,9a5,5,0,1,0-5,5A5,5,0,0,0,23,9ZM15,9a3,3,0,1,1,3,3A3,3,0,0,1,15,9Z"/><path d="M42,14a5,5,0,1,0-5-5A5,5,0,0,0,42,14Zm0-8a3,3,0,1,1-3,3A3,3,0,0,1,42,6Z"/><path d="M54.5,17H52.82A3,3,0,0,0,53,16V3a3,3,0,0,0-3-3H10A3,3,0,0,0,7,3V16a3,3,0,0,0,.18,1H5.5A5.5,5.5,0,0,0,5,28V39.71A7,7,0,0,0,3.85,51.63,1.94,1.94,0,0,0,5,52a2,2,0,0,0,.89-.21A2,2,0,0,0,7,50V46a1,1,0,0,1,.46-.85A1,1,0,0,1,7.94,45a.94.94,0,0,1,.69.26,1.21,1.21,0,0,1,.37.86V50a2,2,0,0,0,1.11,1.8,1.94,1.94,0,0,0,2-.16A7,7,0,0,0,11,39.7V28h4a15,15,0,0,0,2,6.47V52.09a8,8,0,0,0-3.89,5.6,2,2,0,0,0,.45,1.6,2,2,0,0,0,1.54.71H26.91a2,2,0,0,0,1.54-.71,2,2,0,0,0,.45-1.6A8,8,0,0,0,25,52.09V41.14a15,15,0,0,0,10,0V52.09a8,8,0,0,0-3.89,5.6,2,2,0,0,0,.45,1.6,2,2,0,0,0,1.54.71H44.91a2,2,0,0,0,1.54-.71,2,2,0,0,0,.45-1.6A8,8,0,0,0,43,52.09V34.47A15,15,0,0,0,45,28h4V39.7a7,7,0,0,0-1.15,11.93,1.94,1.94,0,0,0,2,.16A2,2,0,0,0,51,50V46.13a1.21,1.21,0,0,1,.37-.86.9.9,0,0,1,.69-.26,1,1,0,0,1,.47.15A1,1,0,0,1,53,46v4a2,2,0,0,0,1.11,1.8A2,2,0,0,0,55,52a1.93,1.93,0,0,0,1.15-.38A7,7,0,0,0,55,39.71V28a5.5,5.5,0,0,0-.5-11ZM9,16V3a1,1,0,0,1,1-1H50a1,1,0,0,1,1,1V16a1,1,0,0,1-1,1H10A1,1,0,0,1,9,16Zm4,30a5,5,0,0,1-2,4V46.13a3.2,3.2,0,0,0-1-2.32A2.9,2.9,0,0,0,7.81,43,3,3,0,0,0,5,46l0,4a5,5,0,0,1,1.25-8.71l.05,0h0a4.7,4.7,0,0,1,.53-.14l.28-.08A5,5,0,0,1,8,41a4.42,4.42,0,0,1,1.63.29l.11,0A5,5,0,0,1,13,46ZM9,39.06A6.41,6.41,0,0,0,8.09,39h0a7.84,7.84,0,0,0-.9.06H7V28H9ZM5.5,26a3.5,3.5,0,0,1,0-7H15v7H5.5ZM20.82,38.87l.27.2c.23.17.46.34.7.49l.37.23.66.39.18.1v11l-.16,0-.38-.07c-.18,0-.37-.07-.55-.09l-.32,0c-.2,0-.39,0-.59,0s-.37,0-.56,0l-.35,0-.52.09-.42.08-.15,0v-14l.07.07c.23.25.47.48.71.71l.13.13Q20.35,38.51,20.82,38.87ZM26.92,58H15.08a6,6,0,0,1,8.28-4.52l.21.09A6,6,0,0,1,26.92,58Zm-2.5-19.25q-.43-.21-.85-.44A13,13,0,0,1,17,27V19H43v8A13,13,0,0,1,24.43,38.75ZM41,37.2v14l-.16,0-.38-.07c-.18,0-.37-.07-.55-.09l-.32,0c-.2,0-.39,0-.59,0s-.37,0-.56,0l-.35,0-.52.09-.42.08-.15,0v-11l.18-.1.64-.37.39-.24c.23-.15.46-.31.68-.48l.29-.21q.47-.36.91-.76l.15-.14c.24-.22.47-.45.7-.69ZM44.91,58H33.08a6,6,0,0,1,8.28-4.52l.21.09A5.94,5.94,0,0,1,44.91,58ZM53,39.07A6.77,6.77,0,0,0,52,39h0a6.51,6.51,0,0,0-.9.06H51V28h2ZM57,46a5,5,0,0,1-2,4V46a3,3,0,0,0-2.81-3,2.89,2.89,0,0,0-2.18.8,3.2,3.2,0,0,0-1,2.32L49,50a5,5,0,0,1,1.21-8.69l.11,0A4.44,4.44,0,0,1,51.93,41a5,5,0,0,1,1.72.29h0l.05,0A5,5,0,0,1,57,46ZM54.5,26H45V19h9.5a3.5,3.5,0,0,1,0,7Z"/><path d="M37.9,27.39a1,1,0,0,0-.9-.56H31.4l1.55-4.51A1,1,0,0,0,32,21H27a1,1,0,0,0-1,.69l-3,9.17a1,1,0,0,0,1,1.31h5.81L29,36.83a1,1,0,0,0,.59,1.09A1,1,0,0,0,30,38a1,1,0,0,0,.8-.39l7-9.17A1,1,0,0,0,37.9,27.39Zm-6.22,5.77L32,31.34a1,1,0,0,0-1-1.17H25.38L27.73,23H30.6l-1.55,4.51A1,1,0,0,0,30,28.83h5Z"/></g></svg>