<?xml version="1.0" encoding="utf-8"?>
<!-- Generator: Adobe Illustrator 24.0.1, SVG Export Plug-In . SVG Version: 6.00 Build 0)  -->
<svg version="1.1" id="Layer_1" xmlns="http://www.w3.org/2000/svg" xmlns:xlink="http://www.w3.org/1999/xlink" x="0px" y="0px"
	 viewBox="0 0 161.8 248.6" style="enable-background:new 0 0 161.8 248.6;" xml:space="preserve">
<g id="Слой_1">
	<path d="M76.8,231.9h-5.4c-1.1,0-2,0.9-2,2s0.9,2,2,2h5.4c1.1,0,2-0.9,2-2S77.9,231.9,76.8,231.9z"/>
	<path d="M88.6,231.9h-5.4c-1.1,0-2,0.9-2,2s0.9,2,2,2h5.4c1.1,0,2-0.9,2-2S89.7,231.9,88.6,231.9z"/>
	<path d="M76.8,225.4h-5.4c-1.1,0-2,0.9-2,2s0.9,2,2,2h5.4c1.1,0,2-0.9,2-2S77.9,225.4,76.8,225.4z"/>
	<path d="M88.6,225.4h-5.4c-1.1,0-2,0.9-2,2s0.9,2,2,2h5.4c1.1,0,2-0.9,2-2S89.7,225.4,88.6,225.4z"/>
	<path d="M4.6,173.1c-2.5,4.3-1.8,8.4,2.4,12.7c0.4,0.4,0.9,0.6,1.4,0.6s1-0.2,1.4-0.6c0.8-0.8,0.8-2,0.1-2.8
		c-3.3-3.4-3.6-5.7-1.1-9l8.1,0.1c2.2,3.4,1.8,5.7-1.4,8.8c-0.8,0.8-0.8,2-0.1,2.8c0.4,0.4,0.9,0.6,1.4,0.6s1-0.2,1.4-0.6
		c4.1-4,5-8,2.8-12.4c1.6-0.9,2.8-2.6,2.8-4.7c0-1.5-0.5-2.9-1.5-4c-0.8-0.9-1.9-1.4-3.1-1.6c1.3-21.7,6.3-30.1,10.4-33.3v0.1
		c0,4.7,3.1,8.5,6.9,8.9c0,0.6,0,1.1,0,1.7v14.9c0,15.3,3.1,29.7,8.9,41.8c4.2,8.7,9.2,15.2,14.8,19.3V228c0,0.1,0,0.1,0,0.2
		c0.8,8,8.6,16.6,19.7,16.6c10.8,0,19.3-8.8,19.7-16.8v-11.7c7.4-5.3,13.4-14.6,17.6-27.7c3.2-10,4.8-21,4.7-32.6l-0.1-16.2
		c0-0.4,0-0.8,0-1.2c3.8-0.5,6.7-4.3,6.7-8.9v-1.8c11.8-1.9,23.7-13.1,24.3-39.3c2.5-0.5,4.4-2.6,4.5-5.3c0-1.5-0.5-2.8-1.5-3.9
		c-0.3-0.3-0.6-0.5-0.9-0.7c2.5-4.3,1.7-8.3-2.4-12.6c-0.8-0.8-2-0.8-2.8,0s-0.8,2,0,2.8c3.3,3.3,3.6,5.6,1.1,8.8l-8.2-0.1
		c-2.2-3.3-1.8-5.6,1.4-8.6c0.8-0.8,0.8-2,0.1-2.8c-0.8-0.8-2-0.8-2.8-0.1c-4.1,3.9-5.1,7.9-2.8,12.2c-1.6,0.9-2.8,2.6-2.8,4.6
		c0,1.5,0.5,2.9,1.5,3.9c0.8,0.9,1.9,1.4,3.1,1.6c-1.1,20.5-7.1,24.2-11.8,25.9c-1.1-5.1-5.8-9-11.4-9h-6.9c-4.3-3.7-9.3-5.7-14.3-7
		c-1.5-0.4-3.3-0.7-5.3-1V97H108c14.6,0,26.4-13.3,26.4-29.7c0-14.4-9.2-26.5-21.4-29.1c-0.7-3.4-3.8-6.2-7.7-6.9V18.1
		c2.6-0.9,4.6-3.3,4.6-6.2c0-3.6-3-6.6-6.6-6.6s-6.6,3-6.6,6.6c0,2.9,1.9,5.4,4.6,6.2v13.6c-3.7,0.7-6.6,3.2-7.5,6.3h-29
		c-0.9-3.2-3.8-5.7-7.5-6.3V18.1c2.6-0.9,4.6-3.3,4.6-6.2c0-3.6-3-6.6-6.6-6.6s-6.6,3-6.6,6.6c0,2.9,1.9,5.4,4.6,6.2v13.6
		c-3.9,0.7-6.9,3.4-7.7,6.9c-12.2,2.7-21.4,14.7-21.4,29.1c0,16.4,11.9,29.7,26.5,29.7H67v0.4c-1.5,0.2-2.9,0.5-4.2,0.9
		c-5.4,1.5-10,3.8-13.7,7h-7.7c-5.8,0-10.7,4.2-11.5,9.6c-13.5,3-22.1,20.6-23.3,47.8c-2.5,0.5-4.4,2.7-4.5,5.3c0,1.5,0.5,2.9,1.5,4
		C3.9,172.7,4.2,172.9,4.6,173.1z M139.9,84.4c-0.3-0.3-0.4-0.6-0.4-1.1c0-0.8,0.7-1.4,1.5-1.4l0,0l10.8,0.1c0.4,0,0.8,0.2,1.1,0.5
		s0.4,0.6,0.4,1.1c0,0.8-0.7,1.4-1.5,1.4l0,0L141,84.9C140.6,84.8,140.2,84.7,139.9,84.4z M128.6,118.8c6.9-2.3,14.3-6.9,15.5-29.9
		h4.7c-0.6,23.1-10.4,33.2-20.3,35.1v-5.2H128.6z M80,241c-8.5,0-14.9-6.7-15.6-12.9V219c3.2,1.6,6.5,2.4,9.9,2.4h10.3
		c0.1,0,0.2,0,0.3,0c3.8,0,7.5-0.9,10.9-2.5v9.2C95.4,233.9,88.4,241,80,241z M116.9,109.7c4.2,0,7.7,3.2,7.7,7.2v0.4v9v3.6
		c0,2.3-1.3,4.4-2.9,4.8c-0.8-11.8-3.8-19.7-7.9-25H116.9z M100.8,11.9c0-1.4,1.2-2.6,2.6-2.6s2.6,1.2,2.6,2.6
		c0,1.4-1.2,2.6-2.6,2.6S100.8,13.3,100.8,11.9z M103.4,35.5c2.3,0,4.2,1,5.2,2.5c-0.2,0-0.4,0-0.5,0h-9.8
		C99.2,36.6,101.2,35.5,103.4,35.5z M52.7,11.9c0-1.4,1.2-2.6,2.6-2.6c1.4,0,2.6,1.2,2.6,2.6c0,1.4-1.2,2.6-2.6,2.6
		C53.8,14.5,52.7,13.3,52.7,11.9z M55.3,35.5c2.2,0,4.2,1,5.1,2.5h-9.8c-0.2,0-0.4,0-0.5,0C51.1,36.6,53,35.5,55.3,35.5z M50.6,93.4
		c-12.4,0-22.4-11.5-22.4-25.7S38.3,42,50.6,42H108c12.4,0,22.4,11.5,22.4,25.7c0,14.1-10.1,25.7-22.4,25.7
		C108,93.4,50.6,93.4,50.6,93.4z M86.5,97.4v2.6c0,2.6-3.5,4.9-7.7,4.9S71,102.6,71,100v-2.6L86.5,97.4L86.5,97.4z M63.8,102.6
		c1.1-0.3,2.2-0.5,3.4-0.7c1.1,4.1,5.8,7.1,11.5,7.1c5.8,0,10.5-3,11.5-7.2c1.7,0.2,3.2,0.5,4.5,0.9c11.8,3.1,22.8,9.8,23.2,37.5
		l0.1,16.1c0.1,11.2-1.4,21.8-4.5,31.4c-3.6,11.2-12.1,29.8-28.7,29.8c-0.1,0-0.2,0-0.3,0H74.2c-12.6,0-21.1-13.7-25-21.9
		c-5.5-11.5-8.5-25.4-8.5-40v-14.9C40.6,112.2,53.8,105.3,63.8,102.6z M33.7,117c0-4,3.4-7.2,7.7-7.2h3.8
		c-4.9,6.1-7.7,14.4-8.4,25.1c-1.7-0.4-3.1-2.4-3.1-4.9C33.7,130,33.7,117,33.7,117z M29.7,119.5v5.7c-6.1,3-12.9,12.2-14.4,37.9
		h-4.6C11.7,139,18.9,122.9,29.7,119.5z M7.6,167L7.6,167l10.8,0.1c0.4,0,0.8,0.2,1.1,0.5c0.3,0.3,0.4,0.7,0.4,1.1
		c0,0.8-0.7,1.4-1.5,1.4l0,0L7.6,170c-0.4,0-0.8-0.2-1.1-0.4c-0.3-0.3-0.4-0.7-0.4-1.1C6.2,167.7,6.8,167,7.6,167z"/>
	<path d="M67.4,170h24.3c8.4,0,15.2-8.6,15.2-19.1s-6.8-19.1-15.2-19.1H67.4c-8.4,0-15.2,8.6-15.2,19.1S59,170,67.4,170z
		 M67.4,135.8h24.3c6.1,0,11.1,6.8,11.1,15.1s-5,15.1-11.1,15.1H67.4c-6.1,0-11.1-6.8-11.1-15.1S61.2,135.8,67.4,135.8z"/>
	<path d="M55.5,58c-4.1,0-7.4,3.3-7.4,7.4s3.3,7.4,7.4,7.4s7.4-3.3,7.4-7.4C62.9,61.3,59.6,58,55.5,58z M55.5,68.7
		c-1.9,0-3.4-1.5-3.4-3.4s1.5-3.4,3.4-3.4s3.4,1.5,3.4,3.4S57.4,68.7,55.5,68.7z"/>
	<path d="M103.8,58c-4.1,0-7.4,3.3-7.4,7.4s3.3,7.4,7.4,7.4s7.4-3.3,7.4-7.4C111.1,61.3,107.8,58,103.8,58z M103.8,68.7
		c-1.9,0-3.4-1.5-3.4-3.4s1.5-3.4,3.4-3.4s3.4,1.5,3.4,3.4C107.1,67.2,105.6,68.7,103.8,68.7z"/>
	<path d="M87.7,70.3H71.6c-1.1,0-2,0.9-2,2c0,4.9,4.5,8.9,10.1,8.9s10.1-4,10.1-8.9C89.7,71.2,88.8,70.3,87.7,70.3z M79.6,77.2
		c-2.5,0-4.6-1.2-5.5-2.9h11.1C84.2,76,82.1,77.2,79.6,77.2z"/>
	<path d="M124.6,67.7c0-12.5-5.2-19.4-14.5-19.4H48.6c-8.4,0-14.5,8.2-14.5,19.4c0,11.6,5.8,19.4,14.5,19.4H110
		C119.4,87.2,124.6,80.3,124.6,67.7z M38.1,67.7c0-7.7,3.6-15.4,10.5-15.4H110c7,0,10.5,5.2,10.5,15.4S117,83.1,110,83.1H48.6
		C40.9,83.2,38.1,74.8,38.1,67.7z"/>
</g>
</svg>
