<?xml version="1.0" encoding="utf-8"?>
<!-- Generator: Adobe Illustrator 24.0.2, SVG Export Plug-In . SVG Version: 6.00 Build 0)  -->
<svg version="1.1" id="Layer_1" xmlns="http://www.w3.org/2000/svg" xmlns:xlink="http://www.w3.org/1999/xlink" x="0px" y="0px"
	 viewBox="0 0 60 60" style="enable-background:new 0 0 60 60;" xml:space="preserve">
<style type="text/css">
	.st0{fill:#02C9FB;}
	.st1{fill:#FFFFFF;}
</style>
<g id="Layer_3">
	<ellipse class="st0" cx="17.8" cy="9" rx="3.4" ry="3.5"/>
	<ellipse class="st0" cx="42" cy="9" rx="3.4" ry="3.5"/>
</g>
<g id="Layer_1_1_">
	<title></title>
	<g id="Bot_33">
		<path class="st1" d="M23.1,9c0-2.8-2.2-5-5-5s-5,2.2-5,5s2.2,5,5,5S23.1,11.8,23.1,9z M15.2,9c0-1.7,1.3-3,3-3s3,1.3,3,3
			s-1.3,3-3,3S15.2,10.7,15.2,9z"/>
		<path class="st1" d="M41.9,14c2.8,0,5-2.2,5-5s-2.2-5-5-5c-2.8,0-5,2.2-5,5S39.2,14,41.9,14z M41.9,6c1.7,0,3,1.3,3,3s-1.3,3-3,3
			s-3-1.3-3-3S40.3,6,41.9,6z"/>
		<path class="st1" d="M54.3,17h-1.7c0.1-0.3,0.2-0.7,0.2-1V3c0-1.7-1.3-3-3-3H10.2c-1.7,0-3,1.3-3,3v13c0,0.3,0.1,0.7,0.2,1H5.8
			c-3-0.1-5.6,2.2-5.7,5.2s2.3,5.7,5.3,5.8v11.7C1.8,41.4,0.4,45.6,2,49c0.5,1,1.2,1.9,2.1,2.6C4.5,51.9,4.9,52,5.3,52
			c0.3,0,0.6-0.1,0.9-0.2c0.7-0.3,1.1-1,1.1-1.8v-4c0-0.3,0.2-0.7,0.5-0.8C7.8,45.1,8,45,8.1,45c0.3,0,0.5,0.1,0.7,0.3
			c0.3,0.2,0.4,0.5,0.4,0.8V50c0,0.8,0.4,1.5,1.1,1.8c0.6,0.3,1.4,0.3,2-0.2c3.1-2.3,3.8-6.7,1.5-9.8c-0.7-0.9-1.6-1.7-2.6-2.2V28h4
			c0.2,2.3,0.8,4.5,2,6.5v17.6c-2.1,1.2-3.5,3.2-3.9,5.6c-0.1,0.6,0.1,1.2,0.4,1.6c0.4,0.5,0.9,0.7,1.5,0.7h11.7
			c0.6,0,1.2-0.3,1.5-0.7c0.4-0.4,0.5-1,0.5-1.6c-0.4-2.4-1.8-4.4-3.9-5.6v-11c3.2,1.1,6.7,1.1,9.9,0v11c-2.1,1.2-3.5,3.2-3.9,5.6
			c-0.1,0.6,0.1,1.2,0.5,1.6c0.4,0.5,0.9,0.7,1.5,0.7h11.7c0.6,0,1.2-0.3,1.5-0.7c0.4-0.4,0.5-1,0.5-1.6c-0.4-2.4-1.8-4.4-3.9-5.6
			V34.5c1.2-2,1.8-4.2,2-6.5h4v11.7c-3.5,1.7-5,5.9-3.3,9.3c0.5,1,1.2,1.9,2.1,2.6c0.6,0.4,1.4,0.5,2,0.2c0.7-0.3,1.1-1,1.2-1.8
			v-3.9c0-0.3,0.1-0.6,0.4-0.9c0.2-0.2,0.4-0.3,0.7-0.3c0.2,0,0.3,0.1,0.5,0.2c0.3,0.2,0.5,0.5,0.5,0.8v4c0,0.8,0.4,1.5,1.1,1.8
			c0.3,0.1,0.6,0.2,0.9,0.2c0.4,0,0.8-0.1,1.2-0.4c3.1-2.3,3.7-6.7,1.4-9.8c-0.7-0.9-1.6-1.6-2.6-2.1V28c3-0.1,5.4-2.7,5.2-5.8
			C59.9,19.2,57.3,16.9,54.3,17z M9.2,16V3c0-0.6,0.4-1,1-1h39.7c0.6,0,1,0.4,1,1v13c0,0.6-0.4,1-1,1H10.2C9.6,17,9.2,16.6,9.2,16z
			 M13.2,46c0,1.6-0.7,3.1-2,4v-3.9c0-0.9-0.4-1.7-1-2.3C9.6,43.2,8.8,43,8,43c-1.6,0.1-2.8,1.4-2.8,3v4c-2.2-1.6-2.7-4.8-1-7
			c0.6-0.8,1.4-1.4,2.3-1.7h0.1l0,0c0.2-0.1,0.4-0.1,0.5-0.1l0.3-0.1C7.6,41,7.9,41,8.2,41c0.6,0,1.1,0.1,1.6,0.3h0.1
			C11.9,42,13.2,43.9,13.2,46z M9.2,39.1C8.9,39,8.6,39,8.3,39l0,0c-0.3,0-0.6,0-0.9,0.1H7.2V28h2V39.1z M5.8,26
			c-1.9,0-3.5-1.6-3.5-3.5S3.9,19,5.8,19h9.4v7H5.8z M20.9,38.9l0.3,0.2c0.2,0.2,0.5,0.3,0.7,0.5l0.4,0.2l0.7,0.4l0.2,0.1v11H23
			l-0.4-0.1c-0.2,0-0.4-0.1-0.5-0.1h-0.3c-0.2,0-0.4,0-0.6,0s-0.4,0-0.6,0h-0.4l-0.5,0.1l-0.4,0.1h-0.2v-14l0.1,0.1
			c0.2,0.2,0.5,0.5,0.7,0.7l0.1,0.1C20.3,38.4,20.6,38.6,20.9,38.9z M27,58H15.3c0.5-3.3,3.6-5.5,6.8-4.9c0.5,0.1,0.9,0.2,1.4,0.4
			l0.2,0.1C25.4,54.4,26.7,56.1,27,58z M24.5,38.8c-0.3-0.1-0.6-0.3-0.9-0.4c-4-2.4-6.4-6.7-6.4-11.4v-8h25.8v8
			c0,7.2-5.7,13-12.9,13C28.2,40,26.3,39.6,24.5,38.8L24.5,38.8z M41,37.2v14h-0.2l-0.4-0.1c-0.2,0-0.4-0.1-0.5-0.1h-0.3
			c-0.2,0-0.4,0-0.6,0c-0.2,0-0.4,0-0.6,0h-0.3l-0.5,0.1l-0.4,0.1H37v-11l0.2-0.1l0.6-0.4l0.4-0.2c0.2-0.2,0.5-0.3,0.7-0.5l0.3-0.2
			c0.3-0.2,0.6-0.5,0.9-0.8l0.2-0.1C40.5,37.7,40.7,37.5,41,37.2L41,37.2z M44.8,58H33.1c0.5-3.3,3.6-5.5,6.8-4.9
			c0.5,0.1,0.9,0.2,1.4,0.4l0.2,0.1C43.2,54.4,44.5,56.1,44.8,58z M52.9,39.1c-0.3,0-0.7-0.1-1-0.1l0,0c-0.3,0-0.6,0-0.9,0.1h-0.1
			V28h2V39.1z M56.8,46c0,1.6-0.7,3.1-2,4v-4c0-1.6-1.2-2.9-2.8-3c-0.8,0-1.6,0.2-2.2,0.8c-0.6,0.6-1,1.4-1,2.3V50
			c-2.2-1.6-2.7-4.8-1-7c0.6-0.8,1.3-1.4,2.2-1.7h0.1c0.5-0.2,1.1-0.3,1.6-0.3c0.6,0,1.2,0.1,1.7,0.3l0,0l0,0
			C55.5,42,56.8,43.9,56.8,46z M54.3,26h-9.4v-7h9.4c1.9,0,3.5,1.6,3.5,3.5S56.2,26,54.3,26z"/>
	</g>
</g>
<g id="Layer_2_1_">
	<g id="bfbae864-1040-45ab-bd02-c801da7f6266">
		<path class="st0" d="M30.1,35.7l-0.3-0.2c-0.3-0.2-6.8-4.5-6.8-8.5c-0.2-2.2,1.5-4.1,3.7-4.3c0.1,0,0.2,0,0.3,0
			c1.2,0,2.4,0.6,3.2,1.6c1.3-1.7,3.8-2.1,5.6-0.8c1,0.8,1.7,2.1,1.6,3.5c0,3.9-6.5,8.2-6.8,8.5L30.1,35.7z"/>
	</g>
</g>
</svg>
