<?xml version="1.0" encoding="utf-8"?>
<!-- Generator: Adobe Illustrator 24.0.3, SVG Export Plug-In . SVG Version: 6.00 Build 0)  -->
<svg version="1.1" id="Layer_1" xmlns="http://www.w3.org/2000/svg" xmlns:xlink="http://www.w3.org/1999/xlink" x="0px" y="0px"
	 viewBox="0 0 283.5 283.5" style="enable-background:new 0 0 283.5 283.5;" xml:space="preserve">
<style type="text/css">
	.st0{fill:#02C9FB;}
	.st1{fill:#FFFFFF;}
</style>
<g id="Layer_2_1_">
	<ellipse class="st0" cx="115.8" cy="30.9" rx="11.6" ry="12.4"/>
	<ellipse class="st0" cx="167.6" cy="30.9" rx="11.6" ry="12.4"/>
</g>
<g id="Layer_1_1_">
	<g id="Слой_x0020_1">
		<path class="st1" d="M181.5,17.3c7.6,7.6,7.6,20.2,0,27.8c-2.3,2.3-5.1,4-8.2,4.9v19L162,66.5V50c-3.1-0.9-6-2.7-8.2-4.9
			c-7.6-7.6-7.6-20.2,0-27.8C161.4,9.7,173.9,9.7,181.5,17.3z M214.6,128.8c3.3-1.4,5-4,5.8-7.5c2.1-8.7-2.6-19.6-10.4-24
			c-3.2-1.8-6.5-2.3-9.3-1.1l-1.4,0.6C207,105.8,212.4,116.7,214.6,128.8L214.6,128.8z M190.4,88.3l5.9-2.5
			c6.2-2.6,13.1-1.8,19.2,1.6c12.2,6.8,19.2,22.9,15.9,36.5c-2.5,10.3-7.8,13.3-15.8,16.8c0,13.5-8.9,25.5-21.7,29.6
			c3.3,2.6,6.2,5.7,8.6,9.1c3-0.1,6.3,0,9.3,0c6,0,11.4,3.1,15.2,8.1c3.4,4.5,5.6,10.7,5.6,17.5c0,7.5-11.3,7.5-11.3,0
			c0-4.2-1.3-8-3.3-10.6c-1.7-2.2-3.9-3.6-6.1-3.6h-3.6c1.6,4.6,2.4,9.5,2.4,14.3c0,18.3-7.5,35-19.6,47.1
			c-26.3,26.3-72.2,26.3-98.4,0C80.5,240.1,73,223.4,73,205.1c0-4.9,0.8-9.7,2.4-14.3h-3.8c-2.3,0-4.4,1.4-6.1,3.6
			c-2,2.7-3.3,6.4-3.3,10.6c0,7.5-11.3,7.5-11.3,0c0-6.7,2.1-12.9,5.6-17.5c3.8-5,9.1-8.1,15.2-8.1h9.6c2.4-3.4,5.3-6.5,8.6-9.2
			c-12.8-4.1-21.7-16.1-21.7-29.6c-8-3.4-13.3-6.4-15.8-16.8C49,110.3,56,94.3,68.2,87.5c6.1-3.4,13-4.2,19.2-1.6l5.9,2.5
			c11.4-9.2,25.9-14.6,41.7-14.6h13.7C164.4,73.7,178.9,79.2,190.4,88.3L190.4,88.3z M84.5,96.8l-1.4-0.6c-2.8-1.2-6.2-0.7-9.3,1.1
			c-7.8,4.4-12.5,15.3-10.4,24c0.9,3.5,2.5,6.1,5.8,7.5C71.3,116.7,76.7,105.8,84.5,96.8L84.5,96.8z M148.7,85H135
			c-15.3,0-29.2,6.3-39.2,16.3c-10.1,10.1-16.3,24-16.3,39.2c0,10.9,8.9,19.8,19.8,19.8h85.2c10.9,0,19.8-8.9,19.8-19.8
			c0-15.3-6.3-29.2-16.3-39.2C177.9,91.3,164,85,148.7,85L148.7,85z M181.5,113.1c7.6,7.6,7.6,20.2,0,27.8c-7.6,7.6-20.2,7.6-27.8,0
			s-7.6-20.2,0-27.8C161.4,105.5,173.9,105.5,181.5,113.1L181.5,113.1z M173.5,121.1c-3.2-3.2-8.5-3.2-11.8,0
			c-3.2,3.2-3.2,8.5,0,11.8c3.2,3.2,8.5,3.2,11.8,0C176.7,129.7,176.7,124.4,173.5,121.1z M130,113.2c7.6,7.6,7.6,20.2,0,27.8
			c-7.6,7.6-20.2,7.6-27.8,0c-7.6-7.6-7.6-20.2,0-27.8C109.8,105.5,122.3,105.5,130,113.2z M121.9,121.2c-3.2-3.2-8.5-3.2-11.8,0
			c-3.2,3.2-3.2,8.5,0,11.8c3.2,3.2,8.5,3.2,11.8,0C125.2,129.7,125.2,124.4,121.9,121.2z M166,171.7h-48.3
			c-9.2,0-17.5,3.8-23.5,9.8s-9.8,14.4-9.8,23.5c0,15.2,6.2,29,16.3,39.1c21.9,21.9,60.6,21.9,82.4,0c10-10,16.3-23.9,16.3-39.1
			c0-9.2-3.8-17.5-9.8-23.5C183.5,175.5,175.1,171.7,166,171.7L166,171.7z M121.7,50v16.4L110.4,69V50c-3.1-0.9-6-2.7-8.2-4.9
			c-7.6-7.6-7.6-20.2,0-27.8s20.2-7.6,27.8,0c7.6,7.6,7.6,20.2,0,27.8C127.7,47.4,124.9,49.1,121.7,50z M121.9,25.3
			c-3.2-3.2-8.5-3.2-11.8,0c-3.2,3.2-3.2,8.5,0,11.8c3.2,3.2,8.5,3.2,11.8,0C125.2,33.9,125.2,28.6,121.9,25.3z M173.5,25.3
			c-3.2-3.2-8.5-3.2-11.8,0c-3.2,3.2-3.2,8.5,0,11.8c3.2,3.2,8.5,3.2,11.8,0C176.7,33.9,176.7,28.6,173.5,25.3z"/>
	</g>
</g>
<path class="st0" d="M141.7,243.6l-1.5-0.9c-1.2-0.9-30.5-20.2-30.5-37.7c0-12.4,8.8-18.9,17.5-18.9c5.6,0,10.8,2.6,14.5,7.1
	c3.7-4.5,8.9-7.1,14.5-7.1c8.7,0,17.5,6.5,17.5,18.9c0,17.5-29.3,36.8-30.5,37.7L141.7,243.6z"/>
</svg>
