<?xml version="1.0" encoding="utf-8"?>
<!-- Generator: Adobe Illustrator 24.0.3, SVG Export Plug-In . SVG Version: 6.00 Build 0)  -->
<svg version="1.1" id="f1dfb9b2-c578-4731-898e-26e2ea15c061"
	 xmlns="http://www.w3.org/2000/svg" xmlns:xlink="http://www.w3.org/1999/xlink" x="0px" y="0px" viewBox="0 0 89.8 80.7"
	 style="enable-background:new 0 0 89.8 80.7;" xml:space="preserve">
<style type="text/css">
	.st0{fill:#02C9FB;}
	.st1{fill:#FFFFFF;}
</style>
<title>heart</title>
<path class="st0" d="M44.9,80.7l-2.1-1.3C41.1,78.2,0,51,0,26.5C0,9.1,12.4,0,24.6,0C32.5,0.1,40,3.7,44.9,10
	C49.8,3.7,57.3,0,65.2,0c12.2,0,24.6,9.1,24.6,26.5C89.8,51,48.7,78.1,47,79.2L44.9,80.7z"/>
<path class="st1" d="M44.9,80.7l-1.5-0.9c-1.2-0.8-30.3-20-30.3-37.3c0-12.3,8.7-18.7,17.4-18.7c5.6,0.1,10.9,2.6,14.4,7
	c3.5-4.4,8.8-7,14.4-7.1c8.6,0,17.4,6.4,17.4,18.7c0,17.3-29,36.5-30.3,37.3L44.9,80.7z"/>
</svg>
