<?xml version="1.0" encoding="utf-8"?>
<!-- Generator: Adobe Illustrator 24.0.3, SVG Export Plug-In . SVG Version: 6.00 Build 0)  -->
<svg version="1.1" id="Layer_1" xmlns="http://www.w3.org/2000/svg" xmlns:xlink="http://www.w3.org/1999/xlink" x="0px" y="0px"
	 viewBox="0 0 226.5 150.4" style="enable-background:new 0 0 226.5 150.4;" xml:space="preserve">
<style type="text/css">
	.st0{fill:#FFFFFF;}
	.st1{fill:#02C9FB;}
	.st2{font-family:'HelveticaNeue-CondensedBlack';}
	.st3{font-size:11.9961px;}
</style>
<g id="Layer_1_1_">
	<g id="Layer_3">
	</g>
	<g id="Family">
		<g id="Dots">
			<circle class="st0" cx="152.9" cy="68" r="1.9"/>
			<circle class="st0" cx="152.9" cy="60.8" r="1.9"/>
			<circle class="st0" cx="152.8" cy="54.2" r="1.9"/>
		</g>
		<circle class="st1" cx="23.2" cy="74.9" r="8.2"/>
		<circle class="st1" cx="142.9" cy="83.9" r="4.4"/>
		<rect x="154.1" y="105.5" class="st1" width="9.8" height="13.6"/>
	</g>
	<g id="Layer_2_1_">
		<g id="Bot_33_2_">
			<path class="st0" d="M22.8,54.1C11.3,54.1,2,63.4,2,74.8c0,9.4,6.3,17.6,15.4,20.1l16.3,36.6c-2.6,2.3-4.8,5-6.6,7.9
				c-0.9,1.4-0.9,3.2,0,4.6c0.8,1.4,2.4,2.3,4,2.3h48c1.7,0,3.2-0.9,4-2.3c0.8-1.4,0.8-3.2,0-4.6c-5-8.7-13.9-14.6-23.9-15.9
				L37.8,89c3.6-3.8,5.7-8.9,5.7-14.1c0-1-0.1-2-0.3-3l33.7-32c0.4,0,0.8,0.2,1.2,0.3v30.3c-1,0.1-2,0.4-2.9,0.7h-0.3l0,0
				c-8.4,3.1-12.7,12.3-9.6,20.7c1.1,3,3,5.6,5.6,7.4c1.4,1,3.1,1.1,4.6,0.4c1.6-0.7,2.6-2.3,2.7-4v-8.9c0-0.7,0.3-1.5,0.9-2
				c0.4-0.4,1-0.6,1.6-0.6c0.4,0,0.8,0.1,1.1,0.3c0.7,0.4,1.1,1.1,1.1,1.9v9.2c0,1.8,1,3.4,2.6,4.2c0.6,0.3,1.3,0.5,2.1,0.5
				c1,0,1.9-0.3,2.7-0.9c7.2-5.3,8.7-15.4,3.4-22.6c-1.9-2.5-4.4-4.4-7.4-5.5l0,0l0,0c-1.1-0.4-2.1-0.6-3.3-0.8V40.1
				c8.8-1.3,15-9.5,13.7-18.3S87,6.8,78.1,8.1c-8,1.1-13.9,8-13.8,16c0,0.6,0,1.3,0,1.9L27.7,54.7C26.1,54.3,24.4,54.1,22.8,54.1z
				 M79,141.8H31c1.8-3.1,4.1-5.7,6.9-7.9c4.9-3.9,10.9-6,17.1-5.9c0.8,0,1.7,0,2.5,0.1C66.5,128.9,74.5,134,79,141.8z M52.8,123.3
				H52l-1.8,0.2h-0.6c-0.8,0.1-1.6,0.3-2.3,0.5l-0.5,0.1l-1.9,0.6l-0.8,0.3l-1.6,0.6l-0.8,0.3l-1.6,0.8l-0.6,0.3
				c-0.7,0.4-1.3,0.8-2,1.2L22.8,95.6l0,0c0.9,0,1.8-0.1,2.7-0.2H26c0.9-0.1,1.7-0.3,2.6-0.6l0.5-0.2c0.8-0.3,1.6-0.6,2.3-0.9h0.2
				c0.8-0.4,1.6-0.8,2.3-1.3l0.3-0.2l19.4,31L52.8,123.3L52.8,123.3z M33.4,87c-3.5,3-8.1,4.4-12.7,3.8l-1.3-0.2
				C10.7,88.8,5,80.3,6.8,71.6c1.5-7.6,8.2-13,15.9-12.9c1.6,0,3.2,0.2,4.8,0.7c5.6,1.7,9.8,6.3,11,12c0.2,1.1,0.4,2.3,0.4,3.4
				C38.9,79.5,36.9,84,33.4,87z M84.3,75.5L84.3,75.5c6.1,2.1,9.2,8.7,7.1,14.7c-0.8,2.2-2.2,4-4,5.4v-9.2c0-3.7-2.8-6.7-6.5-6.9
				c-1.9-0.1-3.7,0.6-5,1.8c-1.5,1.4-2.3,3.3-2.3,5.4v9c-5.1-3.8-6.2-11-2.4-16.1c1.3-1.8,3.2-3.2,5.3-4l0,0h0.2
				c1.2-0.5,2.4-0.7,3.7-0.7C81.6,74.8,83,75.1,84.3,75.5L84.3,75.5z M80.5,12.6c6.4,0,11.5,5.2,11.6,11.5c0,5.5-3.9,10.2-9.2,11.3
				v-9c0-1.3-1-2.3-2.3-2.3s-2.3,1-2.3,2.3v9c-0.4-0.1-0.8-0.2-1.2-0.3c-0.5-0.2-1-0.3-1.4-0.6c-3.3-1.6-5.7-4.6-6.4-8.1
				c-0.2-0.8-0.3-1.5-0.3-2.3C68.9,17.7,74.1,12.6,80.5,12.6z M65.7,30.8l0.2,0.3c0.2,0.4,0.5,0.9,0.7,1.3c0.3,0.4,0.3,0.5,0.4,0.7
				c0.3,0.5,0.7,1,1.1,1.5l0.3,0.3c0.5,0.6,1.1,1.1,1.6,1.6l0.5,0.4c0.4,0.3,0.9,0.7,1.3,0.9L72,38L41.9,66.8
				c-0.2-0.4-0.4-0.9-0.6-1.3v-0.2c-0.4-0.7-0.8-1.4-1.2-2.1l-0.3-0.4c-0.5-0.7-1-1.3-1.5-1.9l0,0c-0.5-0.6-1.1-1.1-1.7-1.6L36.2,59
				c-0.6-0.5-1.3-1-1.9-1.4L34,57.4l-1-0.6L65.7,30.8z"/>
			<path class="st0" d="M26.2,63.9c-1.1-0.3-2.3-0.5-3.5-0.5c-6.4,0-11.6,5.1-11.6,11.5c0,5.5,3.8,10.2,9.1,11.3
				c0.8,0.2,1.6,0.2,2.4,0.3c2.8,0,5.5-1,7.6-2.8c2.5-2.2,4-5.4,4-8.7c0-0.8-0.1-1.6-0.3-2.4C33.1,68.4,30.2,65.1,26.2,63.9z
				 M27.3,80c-1.7,1.4-3.9,2-6.1,1.5c-3.7-1-5.9-4.8-4.9-8.5c0.8-3,3.4-5.1,6.5-5.2c0.7,0,1.4,0.1,2.1,0.3c2.3,0.8,4.1,2.7,4.6,5.1
				c0.1,0.5,0.2,1,0.2,1.5C29.7,76.9,28.9,78.8,27.3,80L27.3,80z"/>
		</g>
		<g id="Bot_33_3_">
			<path class="st0" d="M149.1,84c0-3.5-2.8-6.3-6.3-6.3s-6.3,2.8-6.3,6.3s2.8,6.3,6.3,6.3S149.1,87.4,149.1,84z M139.1,84
				c0-2.1,1.7-3.8,3.8-3.8s3.8,1.7,3.8,3.8c0,2.1-1.7,3.8-3.8,3.8S139.1,86,139.1,84z"/>
			<path class="st0" d="M143.7,84.9c0.5-0.5,0.5-1.3,0-1.8s-1.3-0.5-1.8,0s-0.5,1.3,0,1.8c0.2,0.2,0.6,0.4,0.9,0.4
				C143.2,85.2,143.5,85.1,143.7,84.9z"/>
			<path class="st0" d="M164.2,91.5c4.2,0,7.5-3.4,7.5-7.5c0-4.2-3.4-7.5-7.5-7.5s-7.5,3.4-7.5,7.5C156.6,88.1,160,91.5,164.2,91.5z
				 M164.2,89c-2.3,0-4.3-1.6-4.8-3.8h9.7C168.4,87.4,166.4,89,164.2,89z M164.2,78.9c2.3,0,4.3,1.6,4.8,3.8h-9.7
				C159.9,80.5,161.9,78.9,164.2,78.9z"/>
			<path class="st0" d="M159.1,104h-3.8c-1.4,0-2.5,1.1-2.5,2.5v11.3c0,1.4,1.1,2.5,2.5,2.5h7.5c1.4,0,2.5-1.1,2.5-2.5v-11.3
				c0-1.4-1.1-2.5-2.5-2.5H159.1z M155.4,106.6h2.5v11.3h-2.5V106.6z M162.9,117.9h-2.5v-11.3h2.5V117.9z"/>
			<path class="st0" d="M149.1,107.8h-1.3v-2.5c0-0.7-0.6-1.3-1.3-1.3s-1.3,0.6-1.3,1.3v2.5h-1.3c-0.7,0-1.3,0.6-1.3,1.3
				s0.6,1.3,1.3,1.3h1.3v8.8c0,0.7,0.6,1.3,1.3,1.3s1.3-0.6,1.3-1.3v-8.8h1.3c0.7,0,1.3-0.6,1.3-1.3S149.8,107.8,149.1,107.8z"/>
			<path class="st0" d="M175.5,127.9c-1.4,0-2.5,1.1-2.5,2.5v7.5c0,0.7,0.6,1.3,1.3,1.3c5.5,0,10-4.5,10-10c0-0.7-0.6-1.3-1.3-1.3
				h-3.8v-2.5c1.4,0,2.5-1.1,2.5-2.5v-8.8c0-1.4-1.1-2.5-2.5-2.5h-0.1c-0.7-5.2-5.4-7.1-8.7-7.5v-2.6h3.8c1.4,0,2.5-1.1,2.5-2.5
				v-4.3l5-3c0.8-0.4,1.2-1.3,1.3-2.1v-7.2c0-1-0.6-2-1.6-2.3l-4.7-1.9v-2.9c0-1.4-1.1-2.5-2.5-2.5H134c-1.4,0-2.5,1.1-2.5,2.5v2.9
				l-4.7,1.9c-1,0.4-1.6,1.3-1.6,2.3v7.2c0,0.9,0.5,1.7,1.3,2.2l5,3V99c0,1.4,1.1,2.5,2.5,2.5h3.8v2.6c-3.3,0.4-8.1,2.2-8.7,7.5H129
				c-1.4,0-2.5,1.1-2.5,2.5v8.8c0,1.4,1.1,2.5,2.5,2.5v2.5h-3.8c-0.7,0-1.3,0.6-1.3,1.3c0,5.5,4.5,10,10,10c0.7,0,1.3-0.6,1.3-1.3
				v-7.5c0-1.4-1.1-2.5-2.5-2.5h-1.3v-2.5h1.3c1.4,0,2.5-1.1,2.5-2.5v-8.8c0-1.4-1.1-2.5-2.5-2.5h-1.1c0.7-3.6,4.2-4.6,6.2-4.9v17.5
				c0,0.7,0.6,1.3,1.3,1.3h2.5v3.8c-1.4,0-2.5,1.1-2.5,2.5v2.5c0,1.4,1.1,2.5,2.5,2.5v3.8h-3c-1,0-1.8,0.5-2.2,1.4l-1.3,2.5
				c-0.6,1.2-0.1,2.7,1.1,3.4c0.3,0.2,0.7,0.3,1.1,0.3h11.8c1.4,0,2.5-1.1,2.5-2.5V143c0-1.4-1.1-2.5-2.5-2.5v-3.8
				c1.4,0,2.5-1.1,2.5-2.5v-2.5c0-1.4-1.1-2.5-2.5-2.5v-3.8h10v3.8c-1.4,0-2.5,1.1-2.5,2.5v2.5c0,1.4,1.1,2.5,2.5,2.5v3.8
				c-1.4,0-2.5,1.1-2.5,2.5v2.5c0,1.4,1.1,2.5,2.5,2.5h11.8c1.4,0,2.5-1.1,2.5-2.5c0-0.4-0.1-0.8-0.3-1.1l-1.3-2.5
				c-0.4-0.9-1.3-1.4-2.2-1.4h-3v-3.8c1.4,0,2.5-1.1,2.5-2.5v-2.5c0-1.4-1.1-2.5-2.5-2.5v-3.8h2.5c0.7,0,1.3-0.6,1.3-1.3v-17.5
				c1.9,0.3,5.5,1.3,6.2,4.9h-1.1c-1.4,0-2.5,1.1-2.5,2.5v8.8c0,1.4,1.1,2.5,2.5,2.5h1.3v2.5L175.5,127.9L175.5,127.9z M132.8,130.4
				v6.2c-3.2-0.5-5.6-3-6.2-6.2C126.6,130.4,132.8,130.4,132.8,130.4z M132.8,122.9H129v-8.8h3.8V122.9z M180.5,82.3v7.2l-3.8,2.3
				v-11L180.5,82.3z M127.8,89.5v-7.2l3.8-1.5v11L127.8,89.5z M134,94V75.2h40.2V79l0,0v15l0,0v5h-8.9c-0.6-3.6-3.7-6.3-7.4-6.3
				h-7.5c-3.7,0-6.8,2.7-7.4,6.3h-9L134,94L134,94z M162.7,99h-17.2c0.6-2.2,2.6-3.8,4.9-3.8h7.5C160.2,95.3,162.2,96.8,162.7,99z
				 M149.1,145.5h-11.8l1.3-2.5h10.5V145.5z M146.6,140.5h-2.5v-3.8h2.5V140.5z M149.1,134.2h-7.5v-2.5h7.5V134.2z M146.6,129.2
				h-2.5v-3.8h2.5V129.2z M170.9,145.5h-11.8V143h10.5L170.9,145.5z M164.2,140.5h-2.5v-3.8h2.5V140.5z M166.7,134.2h-7.5v-2.5h7.5
				V134.2z M164.2,129.2h-2.5v-3.8h2.5V129.2z M167.9,122.9h-27.6v-21.4h27.6V122.9z M175.5,114.1h3.8v8.8h-3.8V114.1z M181.6,130.4
				c-0.5,3.2-3,5.6-6.2,6.2v-6.2C175.4,130.4,181.6,130.4,181.6,130.4z"/>
		</g>
	</g>
</g>
<g id="Layer_2_2_">
	<text transform="matrix(1.0004 0 0 1 105.7026 16.3289)" class="st0 st2 st3">GET ME THE TOOLBOX, </text>
	<text transform="matrix(1.0004 0 0 1 105.7026 30.7288)" class="st0 st2 st3">IT’S TIME TO ARCHITECT. </text>
	<text transform="matrix(1.0004 0 0 1 105.7026 45.1292)" class="st0 st2 st3">LET’S GET TO WORK!</text>
</g>
</svg>
