<?xml version="1.0" encoding="utf-8"?>
<!-- Generator: Adobe Illustrator 24.0.3, SVG Export Plug-In . SVG Version: 6.00 Build 0)  -->
<svg version="1.1" id="Family" xmlns="http://www.w3.org/2000/svg" xmlns:xlink="http://www.w3.org/1999/xlink" x="0px" y="0px"
	 viewBox="0 0 285.7 180.4" style="enable-background:new 0 0 285.7 180.4;" xml:space="preserve">
<style type="text/css">
	.st0{stroke:#000000;stroke-width:0.5;stroke-miterlimit:10;}
	.st1{display:none;stroke:#000000;stroke-width:0.5;stroke-miterlimit:10;}
	.st2{stroke:#000000;stroke-width:0.25;stroke-miterlimit:10;}
	.st3{fill:#02C9FB;}
	.st4{fill:none;}
	.st5{font-family:'HelveticaNeue-CondensedBlack';}
	.st6{font-size:11.9961px;}
</style>
<g id="Child_2_">
	<g id="Bot_33_1_">
		<path class="st0" d="M258.9,123.5c0-3.9-3.1-7-7-7s-7,3.1-7,7s3.1,7,7,7S258.9,127.4,258.9,123.5z M251.9,128.5c-2.8,0-5-2.2-5-5
			s2.2-5,5-5s5,2.2,5,5S254.7,128.5,251.9,128.5z"/>
		<path class="st0" d="M266.9,128.5c2.8,0,5-2.2,5-5s-2.2-5-5-5s-5,2.2-5,5S264.2,128.5,266.9,128.5z M266.9,120.5c1.7,0,3,1.3,3,3
			s-1.3,3-3,3s-3-1.3-3-3S265.3,120.5,266.9,120.5z"/>
		<path class="st0" d="M251.2,122.8c-0.4,0.4-0.4,1,0,1.4s1,0.4,1.4,0s0.4-1,0-1.4S251.6,122.4,251.2,122.8z"/>
		<path class="st0" d="M236.5,141.3c-0.4,0.3-1,0.2-1.4-0.2l-2.8-2.8c-0.5-0.5-1.3-0.7-2.1-0.5c-0.7,0.2-1.2,0.9-1.3,1.6
			c-0.6,3.8,2.1,7.4,5.9,7.9c0.3,0,0.7,0.1,1,0.1c0.8,0,1.6-0.2,2.4-0.4l5,3c0.5,0.3,1,0.4,1.6,0.4c0.5,0,1-0.1,1.5-0.4l1.5-0.9
			c0.2,2.4,1.1,4.8,2.8,6.6c-2.7,4-2.2,9.3,1.2,12.7l0,0l0,0c3.9,3.9,10.2,3.9,14.1,0l0,0l0,0c3.4-3.4,3.9-8.7,1.2-12.7
			c1.8-2,2.8-4.6,2.8-7.3v-11c0-1.1-0.4-2.1-1-3h1.5c3,0,5.6-2.1,6.3-5h0.2c3.3,0,6-2.7,6-6s-2.7-6-6-6l0,0c-0.3-3.4-3.1-6-6.5-6
			h-23c-3.4,0-6.2,2.6-6.5,6l0,0c-3.3,0-6,2.7-6,6s2.7,6,6,6h0.2c0.7,2.9,3.3,5,6.3,5h1.5c-0.6,0.9-1,1.9-1,3v4.8l-3,1.7l-2.3-1.4
			c1.1-3.7-0.9-7.6-4.6-8.8c-1-0.3-2.1-0.4-3.1-0.2c-0.7,0.1-1.3,0.6-1.6,1.3c-0.2,0.7-0.1,1.5,0.5,2.1l2.8,2.8
			C237,140.2,237,140.8,236.5,141.3C236.6,141.2,236.6,141.3,236.5,141.3z M262.8,158.8l0.4-0.1l0.6-0.3l0.3-0.2
			c0.2-0.1,0.4-0.2,0.6-0.4l0.2-0.1c0.3-0.2,0.5-0.4,0.8-0.6c0.6,1,1,2.1,1.2,3.3H265c-0.6,0-1,0.4-1,1s0.4,1,1,1h1.9
			c-0.2,1.4-0.7,2.8-1.6,3.9l-1.4-1.4c-0.4-0.4-1.1-0.3-1.4,0.1c-0.3,0.4-0.3,0.9,0,1.3l1.4,1.4c-1.1,0.9-2.5,1.4-3.9,1.6v-1.9
			c0-0.6-0.4-1-1-1s-1,0.4-1,1v1.9c-1.4-0.2-2.8-0.7-3.9-1.6l1.4-1.4c0.4-0.4,0.3-1.1-0.1-1.4c-0.4-0.3-0.9-0.3-1.3,0l-1.4,1.4
			c-0.9-1.1-1.4-2.5-1.6-3.9h1.9c0.6,0,1-0.4,1-1s-0.4-1-1-1h-2c0.1-1.2,0.6-2.3,1.2-3.3c0.2,0.2,0.5,0.4,0.8,0.6l0.2,0.1
			c0.2,0.1,0.4,0.3,0.7,0.4l0.3,0.1l0.6,0.3l0.4,0.1l0.6,0.2l0.2,0.1c-0.5,0.7-0.9,1.6-0.9,2.4c0,2.2,1.8,4,4,4s4-1.8,4-4
			c0-0.9-0.3-1.8-0.9-2.4l0.2-0.1L262.8,158.8z M260.9,161.5c0,1.1-0.9,2-2,2s-2-0.9-2-2s0.9-2,2-2S260.9,160.4,260.9,161.5z
			 M280.9,123.5c0,2.2-1.8,4-4,4v-8C279.1,119.5,280.9,121.3,280.9,123.5z M236.9,123.5c0-2.2,1.8-4,4-4v8
			C238.7,127.5,236.9,125.7,236.9,123.5z M242.9,128v-10c0-2.5,2-4.5,4.5-4.5h23c2.5,0,4.5,2,4.5,4.5v10c0,2.5-2,4.5-4.5,4.5h-23
			C244.9,132.5,242.9,130.5,242.9,128z M249.9,137.5c0-1.7,1.3-3,3-3h12c1.7,0,3,1.3,3,3v11c0,5-4,9-9,9c-0.3,0-0.6,0-0.9,0
			c-4.6-0.4-8.2-4.4-8.1-9v-0.4l10.5-6c1.4-0.8,1.9-2.7,1.1-4.1s-2.7-1.9-4.1-1.1l-7.5,4.3V137.5z M245.9,145.8l3.4-2l0,0l9-5.1
			c0.5-0.3,1.1-0.1,1.4,0.4s0.1,1.1-0.4,1.4l-5.2,3l-5.7,3.3l0,0l-3,1.7c-0.3,0.2-0.7,0.2-1,0l-4.1-2.4c0.2-0.1,0.4-0.3,0.5-0.5
			c0.3-0.3,0.6-0.6,0.8-1l0,0l2.2,1.3C244.6,146.1,245.3,146.1,245.9,145.8z M238.1,138.4l-2.9-2.8c2.7-0.4,5.3,1.5,5.7,4.2
			c0.1,0.9,0,1.9-0.4,2.8l0,0c-0.2,0.5-0.6,1-1,1.4s-0.9,0.8-1.4,1c-2.5,1.1-5.5,0-6.6-2.5c-0.4-0.9-0.5-1.8-0.4-2.7l2.8,2.8
			c1.1,1.1,2.8,1.3,4.1,0.3s1.5-2.9,0.5-4.2C238.3,138.5,238.2,138.4,238.1,138.4L238.1,138.4z"/>
	</g>
</g>
<g id="Child_1_">
	<g id="Bot_33">
		<path class="st0" d="M117,117.8c0-2.8-2.2-5-5-5s-5,2.2-5,5s2.2,5,5,5S117,120.6,117,117.8z M109,117.8c0-1.7,1.3-3,3-3s3,1.3,3,3
			s-1.3,3-3,3C110.4,120.8,109,119.5,109,117.8z"/>
		<path class="st0" d="M136,122.8c2.8,0,5-2.2,5-5s-2.2-5-5-5s-5,2.2-5,5C131,120.6,133.3,122.8,136,122.8z M136,114.8
			c1.7,0,3,1.3,3,3s-1.3,3-3,3s-3-1.3-3-3S134.4,114.8,136,114.8z"/>
		<path class="st0" d="M148.5,125.8h-1.7c0.1-0.3,0.2-0.7,0.2-1v-13c0-1.7-1.3-3-3-3h-40c-1.7,0-3,1.3-3,3v13c0,0.3,0.1,0.7,0.2,1
			h-1.7c-3-0.1-5.6,2.2-5.8,5.2c-0.1,3,2.2,5.6,5.2,5.8v11.7c-3.5,1.7-4.9,5.9-3.3,9.3c0.5,1,1.2,1.9,2.1,2.6
			c0.3,0.2,0.7,0.4,1.1,0.4c0.3,0,0.6-0.1,0.9-0.2c0.7-0.3,1.1-1,1.1-1.8v-4c0-0.3,0.2-0.7,0.5-0.8c0.1-0.1,0.3-0.1,0.5-0.2
			c0.3,0,0.5,0.1,0.7,0.3s0.4,0.5,0.4,0.9v3.9c0,0.8,0.4,1.5,1.1,1.8c0.6,0.3,1.4,0.3,2-0.2c3.1-2.3,3.8-6.7,1.5-9.8
			c-0.7-0.9-1.6-1.7-2.6-2.2v-11.7h4c0.2,2.3,0.8,4.5,2,6.5v17.6c-2.1,1.2-3.5,3.2-3.9,5.6c-0.1,0.6,0.1,1.2,0.4,1.6
			c0.4,0.5,0.9,0.7,1.5,0.7h11.8c0.6,0,1.2-0.3,1.5-0.7c0.4-0.4,0.5-1,0.5-1.6c-0.4-2.4-1.8-4.4-3.9-5.6V150c3.2,1.1,6.8,1.1,10,0
			v10.9c-2.1,1.2-3.5,3.2-3.9,5.6c-0.1,0.6,0.1,1.2,0.4,1.6c0.4,0.5,0.9,0.7,1.5,0.7h11.8c0.6,0,1.2-0.3,1.5-0.7
			c0.4-0.4,0.5-1,0.5-1.6c-0.4-2.4-1.8-4.4-3.9-5.6v-17.6c1.2-2,1.8-4.2,2-6.5h4v11.7c-3.5,1.7-5,5.9-3.3,9.3c0.5,1,1.2,1.9,2.1,2.6
			c0.6,0.4,1.4,0.5,2,0.2c0.7-0.3,1.1-1,1.1-1.8v-3.9c0-0.3,0.1-0.6,0.4-0.9c0.2-0.2,0.4-0.3,0.7-0.3c0.2,0,0.3,0.1,0.5,0.1
			c0.3,0.2,0.5,0.5,0.5,0.8v4c0,0.8,0.4,1.5,1.1,1.8c0.3,0.1,0.6,0.2,0.9,0.2c0.4,0,0.8-0.1,1.2-0.4c3.1-2.3,3.7-6.7,1.4-9.8
			c-0.7-0.9-1.6-1.6-2.6-2.1v-11.7c3-0.1,5.4-2.7,5.2-5.8C153.7,127.7,151.6,125.7,148.5,125.8z M103,124.8v-13c0-0.6,0.4-1,1-1h40
			c0.6,0,1,0.4,1,1v13c0,0.6-0.4,1-1,1h-40C103.5,125.8,103,125.4,103,124.8z M107,154.8c0,1.6-0.7,3.1-2,4v-3.9
			c0-0.9-0.4-1.7-1-2.3s-1.4-0.9-2.2-0.8c-1.6,0.1-2.8,1.4-2.8,3v4c-2.2-1.6-2.7-4.8-1-7c0.6-0.8,1.4-1.4,2.3-1.7h0.1l0,0
			c0.2-0.1,0.4-0.1,0.5-0.1l0.3-0.1c0.3,0,0.6-0.1,0.9-0.1c0.6,0,1.1,0.1,1.6,0.3h0.1C105.7,150.9,107,152.8,107,154.8z M103,147.9
			c-0.3,0-0.6-0.1-0.9-0.1l0,0c-0.3,0-0.6,0-0.9,0.1H101v-11.1h2V147.9z M99.5,134.8c-1.9,0-3.5-1.6-3.5-3.5s1.6-3.5,3.5-3.5h9.5v7
			H99.5z M114.9,147.7l0.3,0.2c0.2,0.2,0.5,0.3,0.7,0.5l0.4,0.2l0.7,0.4l0.2,0.1v11H117l-0.4-0.1c-0.2,0-0.4-0.1-0.6-0.1h-0.3
			c-0.2,0-0.4,0-0.6,0s-0.4,0-0.6,0h-0.3l-0.5,0.1l-0.4,0.1H113v-14l0.1,0.1c0.2,0.2,0.5,0.5,0.7,0.7l0.1,0.1
			C114.2,147.3,114.5,147.5,114.9,147.7z M121,166.8h-11.8c0.5-3.3,3.6-5.5,6.9-4.9c0.5,0.1,0.9,0.2,1.4,0.4l0.2,0.1
			C119.4,163.3,120.6,164.9,121,166.8z M118.5,147.6c-0.3-0.1-0.6-0.3-0.8-0.4c-4.1-2.3-6.6-6.6-6.6-11.3v-8h26v8
			c0,7.2-5.8,13-13,13C122.1,148.9,120.2,148.4,118.5,147.6L118.5,147.6z M135,146v14h-0.2l-0.4-0.1c-0.2,0-0.4-0.1-0.6-0.1h-0.3
			c-0.2,0-0.4,0-0.6,0s-0.4,0-0.6,0h-0.4l-0.5,0.1L131,160l0,0v-11l0.2-0.1l0.6-0.4l0.4-0.2c0.2-0.1,0.5-0.3,0.7-0.5l0.3-0.2
			c0.3-0.2,0.6-0.5,0.9-0.8l0.2-0.1C134.5,146.5,134.7,146.3,135,146L135,146z M138.9,166.8h-11.8c0.5-3.3,3.6-5.5,6.9-4.9
			c0.5,0.1,0.9,0.2,1.4,0.4l0.2,0.1C137.4,163.3,138.6,164.9,138.9,166.8z M147,147.9c-0.3,0-0.7-0.1-1-0.1l0,0
			c-0.3,0-0.6,0-0.9,0.1H145v-11.1h2V147.9z M151,154.8c0,1.6-0.7,3.1-2,4v-4c0-1.6-1.2-2.9-2.8-3c-0.8,0-1.6,0.2-2.2,0.8
			c-0.6,0.6-1,1.4-1,2.3v3.9c-2.2-1.6-2.7-4.8-1-7c0.6-0.8,1.3-1.4,2.2-1.7h0.1c0.5-0.2,1.1-0.3,1.6-0.3c0.6,0,1.2,0.1,1.7,0.3l0,0
			l0,0C149.7,150.9,151,152.7,151,154.8z M148.5,134.8H139v-7h9.5c1.9,0,3.5,1.6,3.5,3.5S150.5,134.8,148.5,134.8z"/>
		<path class="st1" d="M131.9,136.2c-0.2-0.3-0.5-0.6-0.9-0.6h-5.6l1.5-4.5c0.2-0.5-0.1-1.1-0.6-1.3c-0.1,0-0.2-0.1-0.3-0.1h-5
			c-0.5,0-0.9,0.3-1,0.7l-3,9.2c-0.2,0.5,0.1,1.1,0.6,1.3c0.1,0,0.2,0.1,0.4,0h5.8l-0.8,4.7c-0.1,0.5,0.2,0.9,0.6,1.1
			c0.1,0.1,0.3,0.1,0.4,0.1c0.3,0,0.6-0.1,0.8-0.4l7-9.2C132.1,137,132.1,136.6,131.9,136.2z M125.7,142l0.3-1.8
			c0.1-0.5-0.3-1.1-0.8-1.2c-0.1,0-0.1,0-0.2,0h-5.6l2.3-7.2h2.9l-1.6,4.5c-0.2,0.5,0.1,1.1,0.6,1.3c0.1,0,0.2,0.1,0.3,0.1h5
			L125.7,142z"/>
	</g>
</g>
<g id="Child">
	<g id="Слой_x0020_1">
		<path d="M202.8,106.5c2,2,2,5.2,0,7.2c-0.6,0.6-1.3,1-2.1,1.3v4.9l-2.9-0.7V115c-0.8-0.2-1.5-0.7-2.1-1.3c-2-2-2-5.2,0-7.2
			C197.6,104.6,200.8,104.6,202.8,106.5z M211.3,135.2c0.8-0.4,1.3-1,1.5-1.9c0.5-2.2-0.7-5-2.7-6.2c-0.8-0.5-1.7-0.6-2.4-0.3
			l-0.4,0.2C209.3,129.3,210.7,132.1,211.3,135.2L211.3,135.2z M205,124.8l1.5-0.6c1.6-0.7,3.4-0.5,4.9,0.4c3.1,1.8,4.9,5.9,4.1,9.4
			c-0.6,2.7-2,3.4-4.1,4.3c0,3.5-2.3,6.6-5.6,7.6c0.8,0.7,1.6,1.5,2.2,2.4c0.8,0,1.6,0,2.4,0c1.5,0,2.9,0.8,3.9,2.1
			c0.9,1.2,1.4,2.8,1.4,4.5c0,1.9-2.9,1.9-2.9,0c0-1.1-0.3-2.1-0.8-2.7c-0.4-0.6-1-0.9-1.6-0.9h-0.9c0.4,1.2,0.6,2.4,0.6,3.7
			c0,4.7-1.9,9-5,12.1c-6.8,6.8-18.6,6.8-25.3,0c-3.1-3.1-5-7.4-5-12.1c0-1.3,0.2-2.5,0.6-3.7h-1c-0.6,0-1.1,0.4-1.6,0.9
			c-0.5,0.7-0.8,1.7-0.8,2.7c0,1.9-2.9,1.9-2.9,0c0-1.7,0.5-3.3,1.4-4.5c1-1.3,2.4-2.1,3.9-2.1h2.5c0.6-0.9,1.4-1.7,2.2-2.4
			c-3.3-1.1-5.6-4.1-5.6-7.6c-2.1-0.9-3.4-1.7-4.1-4.3c-0.8-3.5,1-7.6,4.1-9.4c1.6-0.9,3.3-1.1,4.9-0.4l1.5,0.6
			c2.9-2.4,6.7-3.8,10.7-3.8h3.5C198.4,121,202.1,122.4,205,124.8L205,124.8z M177.8,127l-0.4-0.2c-0.7-0.3-1.6-0.2-2.4,0.3
			c-2,1.1-3.2,3.9-2.7,6.2c0.2,0.9,0.7,1.6,1.5,1.9C174.4,132.1,175.8,129.3,177.8,127L177.8,127z M194.3,123.9h-3.5
			c-3.9,0-7.5,1.6-10.1,4.2s-4.2,6.2-4.2,10.1c0,2.8,2.3,5.1,5.1,5.1h21.9c2.8,0,5.1-2.3,5.1-5.1c0-3.9-1.6-7.5-4.2-10.1
			C201.8,125.6,198.2,123.9,194.3,123.9L194.3,123.9z M202.8,131.2c2,2,2,5.2,0,7.2s-5.2,2-7.2,0s-2-5.2,0-7.2
			S200.8,129.2,202.8,131.2L202.8,131.2z M200.7,133.2c-0.8-0.8-2.2-0.8-3,0s-0.8,2.2,0,3s2.2,0.8,3,0S201.5,134.1,200.7,133.2z
			 M189.5,131.2c2,2,2,5.2,0,7.2s-5.2,2-7.2,0s-2-5.2,0-7.2S187.5,129.2,189.5,131.2z M187.4,133.3c-0.8-0.8-2.2-0.8-3,0
			s-0.8,2.2,0,3s2.2,0.8,3,0S188.2,134.1,187.4,133.3z M198.7,146.3h-12.4c-2.4,0-4.5,1-6.1,2.5c-1.6,1.6-2.5,3.7-2.5,6.1
			c0,3.9,1.6,7.5,4.2,10.1c5.6,5.6,15.6,5.6,21.2,0c2.6-2.6,4.2-6.1,4.2-10.1c0-2.4-1-4.5-2.5-6.1
			C203.3,147.2,201.1,146.3,198.7,146.3L198.7,146.3z M187.4,114.9v4.2l-2.9,0.7v-4.9c-0.8-0.2-1.5-0.7-2.1-1.3c-2-2-2-5.2,0-7.2
			s5.2-2,7.2,0s2,5.2,0,7.2C188.9,114.3,188.2,114.7,187.4,114.9z M187.4,108.6c-0.8-0.8-2.2-0.8-3,0s-0.8,2.2,0,3s2.2,0.8,3,0
			S188.2,109.4,187.4,108.6z M200.7,108.6c-0.8-0.8-2.2-0.8-3,0s-0.8,2.2,0,3s2.2,0.8,3,0S201.5,109.4,200.7,108.6z"/>
	</g>
</g>
<g id="Parent">
	<g id="Слой_1">
		<path class="st2" d="M55.3,163.2h-3.8c-0.8,0-1.4,0.6-1.4,1.4c0,0.8,0.6,1.4,1.4,1.4h3.8c0.8,0,1.4-0.6,1.4-1.4
			C56.7,163.9,56.1,163.2,55.3,163.2z"/>
		<path class="st2" d="M63.6,163.2h-3.8c-0.8,0-1.4,0.6-1.4,1.4c0,0.8,0.6,1.4,1.4,1.4h3.8c0.8,0,1.4-0.6,1.4-1.4
			C65,163.9,64.4,163.2,63.6,163.2z"/>
		<path class="st2" d="M55.3,158.6h-3.8c-0.8,0-1.4,0.6-1.4,1.4c0,0.8,0.6,1.4,1.4,1.4h3.8c0.8,0,1.4-0.6,1.4-1.4
			C56.7,159.3,56.1,158.6,55.3,158.6z"/>
		<path class="st2" d="M63.6,158.6h-3.8c-0.8,0-1.4,0.6-1.4,1.4c0,0.8,0.6,1.4,1.4,1.4h3.8c0.8,0,1.4-0.6,1.4-1.4
			C65,159.3,64.4,158.6,63.6,158.6z"/>
		<path class="st2" d="M4.4,121.8c-1.8,3-1.3,5.9,1.7,8.9c0.3,0.3,0.6,0.4,1,0.4s0.7-0.1,1-0.4c0.6-0.6,0.6-1.4,0.1-2
			c-2.3-2.4-2.5-4-0.8-6.3l5.7,0.1c1.5,2.4,1.3,4-1,6.2c-0.6,0.6-0.6,1.4-0.1,2c0.3,0.3,0.6,0.4,1,0.4s0.7-0.1,1-0.4
			c2.9-2.8,3.5-5.6,2-8.7c1.1-0.6,2-1.8,2-3.3c0-1.1-0.4-2-1.1-2.8c-0.6-0.6-1.3-1-2.2-1.1c0.9-15.3,4.4-21.2,7.3-23.5v0.1
			c0,3.3,2.2,6,4.9,6.3c0,0.4,0,0.8,0,1.2v10.5c0,10.8,2.2,20.9,6.3,29.4c3,6.1,6.5,10.7,10.4,13.6v8.2c0,0.1,0,0.1,0,0.1
			c0.6,5.6,6.1,11.7,13.9,11.7c7.6,0,13.6-6.2,13.9-11.8v-8.2c5.2-3.7,9.4-10.3,12.4-19.5c2.3-7,3.4-14.8,3.3-23L87,98.3
			c0-0.3,0-0.6,0-0.8c2.7-0.4,4.7-3,4.7-6.3V90c8.3-1.3,16.7-9.2,17.1-27.7c1.8-0.4,3.1-1.8,3.2-3.7c0-1.1-0.4-2-1.1-2.7
			c-0.2-0.2-0.4-0.4-0.6-0.5c1.8-3,1.2-5.8-1.7-8.9c-0.6-0.6-1.4-0.6-2,0s-0.6,1.4,0,2c2.3,2.3,2.5,3.9,0.8,6.2l-5.8-0.1
			c-1.5-2.3-1.3-3.9,1-6.1c0.6-0.6,0.6-1.4,0.1-2c-0.6-0.6-1.4-0.6-2-0.1c-2.9,2.7-3.6,5.6-2,8.6c-1.1,0.6-2,1.8-2,3.2
			c0,1.1,0.4,2,1.1,2.7c0.6,0.6,1.3,1,2.2,1.1c-0.8,14.4-5,17-8.3,18.2c-0.8-3.6-4.1-6.3-8-6.3h-4.9c-3-2.6-6.6-4-10.1-4.9
			c-1.1-0.3-2.3-0.5-3.7-0.7v-0.2h12.3c10.3,0,18.6-9.4,18.6-20.9c0-10.1-6.5-18.7-15.1-20.5c-0.5-2.4-2.7-4.4-5.4-4.9v-9.3
			c1.8-0.6,3.2-2.3,3.2-4.4c0-2.5-2.1-4.6-4.6-4.6s-4.6,2.1-4.6,4.6c0,2,1.3,3.8,3.2,4.4v9.6c-2.6,0.5-4.6,2.3-5.3,4.4H46.9
			c-0.6-2.3-2.7-4-5.3-4.4v-9.6c1.8-0.6,3.2-2.3,3.2-4.4c0-2.5-2.1-4.6-4.6-4.6s-4.6,2.1-4.6,4.6c0,2,1.3,3.8,3.2,4.4v9.6
			c-2.7,0.5-4.9,2.4-5.4,4.9c-8.6,1.9-15.1,10.4-15.1,20.5c0,11.6,8.4,20.9,18.7,20.9h11.5v0.3c-1.1,0.1-2,0.4-3,0.6
			c-3.8,1.1-7,2.7-9.7,4.9h-5.4c-4.1,0-7.5,3-8.1,6.8c-9.5,2.1-15.6,14.5-16.4,33.7c-1.8,0.4-3.1,1.9-3.2,3.7c0,1.1,0.4,2,1.1,2.8
			C4,121.5,4.2,121.7,4.4,121.8z M99.8,59.3c-0.2-0.2-0.3-0.4-0.3-0.8c0-0.6,0.5-1,1.1-1l0,0l7.6,0.1c0.3,0,0.6,0.1,0.8,0.4
			c0.2,0.2,0.3,0.4,0.3,0.8c0,0.6-0.5,1-1.1,1l0,0l-7.6-0.1C100.3,59.6,100,59.5,99.8,59.3z M91.8,83.5c4.9-1.6,10.1-4.9,10.9-21.1
			h3.3c-0.4,16.3-7.3,23.4-14.3,24.7L91.8,83.5L91.8,83.5z M57.6,169.6c-6,0-10.5-4.7-11-9.1v-6.4c2.3,1.1,4.6,1.7,7,1.7h7.3
			c0.1,0,0.1,0,0.2,0c2.7,0,5.3-0.6,7.7-1.8v6.5C68.4,164.6,63.5,169.6,57.6,169.6z M83.6,77.1c3,0,5.4,2.3,5.4,5.1v0.3v6.3v2.5
			c0,1.6-0.9,3.1-2,3.4c-0.6-8.3-2.7-13.9-5.6-17.6C81.4,77.1,83.6,77.1,83.6,77.1z M72.2,8.2c0-1,0.8-1.8,1.8-1.8s1.8,0.8,1.8,1.8
			S75,10,74,10C73.1,10.1,72.2,9.2,72.2,8.2z M74.1,24.9c1.6,0,3,0.7,3.7,1.8c-0.1,0-0.3,0-0.4,0h-6.9
			C71.1,25.6,72.5,24.9,74.1,24.9z M38.3,8.2c0-1,0.8-1.8,1.8-1.8S42,7.2,42,8.2S41.2,10,40.2,10C39.1,10.1,38.3,9.2,38.3,8.2z
			 M40.2,24.9c1.5,0,3,0.7,3.6,1.8h-6.9c-0.1,0-0.3,0-0.4,0C37.2,25.6,38.5,24.9,40.2,24.9z M36.9,65.7c-8.7,0-15.8-8.1-15.8-18.1
			s7.1-18.1,15.8-18.1h40.4c8.7,0,15.8,8.1,15.8,18.1c0,9.9-7.1,18.1-15.8,18.1H36.9z M62.1,68.5v1.8c0,1.8-2.5,3.5-5.4,3.5
			s-5.5-1.6-5.5-3.5v-1.8H62.1L62.1,68.5z M46.2,72.1c0.8-0.2,1.5-0.4,2.4-0.5c0.8,2.9,4.1,5,8.1,5c4.1,0,7.4-2.1,8.1-5.1
			c1.2,0.1,2.3,0.4,3.2,0.6c8.3,2.2,16.1,6.9,16.3,26.4l0.1,11.3c0.1,7.9-1,15.4-3.2,22.1c-2.5,7.9-8.5,21-20.2,21
			c-0.1,0-0.1,0-0.2,0h-7.3c-8.9,0-14.9-9.7-17.6-15.4c-3.9-8.1-6-17.9-6-28.2V99C29.8,78.9,39.1,74,46.2,72.1z M24.9,82.3
			c0-2.8,2.4-5.1,5.4-5.1H33c-3.5,4.3-5.4,10.1-5.9,17.7c-1.2-0.3-2.2-1.7-2.2-3.5C24.9,91.4,24.9,82.3,24.9,82.3z M22.1,84v4
			c-4.3,2.1-9.1,8.6-10.1,26.7H8.7C9.4,97.8,14.5,86.4,22.1,84z M6.6,117.5L6.6,117.5l7.6,0.1c0.3,0,0.6,0.1,0.8,0.4
			c0.2,0.2,0.3,0.5,0.3,0.8c0,0.6-0.5,1-1.1,1l0,0l-7.6-0.1c-0.3,0-0.6-0.1-0.8-0.3c-0.2-0.2-0.3-0.5-0.3-0.8
			C5.6,118,6,117.5,6.6,117.5z"/>
		<path class="st2" d="M48.7,119.6h17.1c5.9,0,10.7-6.1,10.7-13.5s-4.8-13.5-10.7-13.5H48.7c-5.9,0-10.7,6.1-10.7,13.5
			C38,113.6,42.8,119.6,48.7,119.6z M48.7,95.5h17.1c4.3,0,7.8,4.8,7.8,10.6s-3.5,10.6-7.8,10.6H48.7c-4.3,0-7.8-4.8-7.8-10.6
			S44.3,95.5,48.7,95.5z"/>
		<path class="st2" d="M40.3,40.7c-2.9,0-5.2,2.3-5.2,5.2s2.3,5.2,5.2,5.2s5.2-2.3,5.2-5.2S43.2,40.7,40.3,40.7z M40.3,48.2
			c-1.3,0-2.4-1.1-2.4-2.4c0-1.3,1.1-2.4,2.4-2.4c1.3,0,2.4,1.1,2.4,2.4C42.7,47.2,41.6,48.2,40.3,48.2z"/>
		<path class="st2" d="M74.3,40.7c-2.9,0-5.2,2.3-5.2,5.2s2.3,5.2,5.2,5.2s5.2-2.3,5.2-5.2S77.2,40.7,74.3,40.7z M74.3,48.2
			c-1.3,0-2.4-1.1-2.4-2.4c0-1.3,1.1-2.4,2.4-2.4s2.4,1.1,2.4,2.4C76.7,47.2,75.6,48.2,74.3,48.2z"/>
		<path class="st2" d="M63,49.4H51.6c-0.8,0-1.4,0.6-1.4,1.4c0,3.5,3.2,6.3,7.1,6.3s7.1-2.8,7.1-6.3C64.4,50,63.8,49.4,63,49.4z
			 M57.3,54.2c-1.8,0-3.2-0.8-3.9-2h7.8C60.5,53.4,59,54.2,57.3,54.2z"/>
		<path class="st2" d="M89,47.5c0-8.8-3.7-13.7-10.2-13.7H35.4c-5.9,0-10.2,5.8-10.2,13.7c0,8.2,4.1,13.7,10.2,13.7h43.3
			C85.3,61.3,89,56.4,89,47.5z M28,47.5c0-5.4,2.5-10.8,7.4-10.8h43.3c4.9,0,7.4,3.7,7.4,10.8s-2.5,10.8-7.4,10.8H35.4
			C30,58.5,28,52.5,28,47.5z"/>
	</g>
</g>
<g id="Heart">
	<path class="st3" d="M57.6,113.6l-0.4-0.2c-0.3-0.2-7.8-5.2-7.8-9.7c0-3.2,2.3-4.9,4.5-4.9c1.4,0,2.8,0.7,3.7,1.8
		c0.9-1.2,2.3-1.8,3.7-1.8c2.2,0,4.5,1.7,4.5,4.9c0,4.5-7.5,9.4-7.8,9.7L57.6,113.6z"/>
</g>
<g id="Phrase">
	<g id="Text">
		<rect x="126.9" y="26.7" class="st4" width="152.2" height="78.1"/>
		<text transform="matrix(1.0004 0 0 1 126.9326 36.1772)" class="st5 st6">A BOUTIQUE PRODUCT-CENTRIC </text>
		<text transform="matrix(1.0004 0 0 1 126.9326 50.5771)" class="st5 st6">BUSINESS FOCUSED ON </text>
		<text transform="matrix(1.0004 0 0 1 126.9326 64.9771)" class="st5 st6">DELIVERING MORE VALUE TO </text>
		<text transform="matrix(1.0004 0 0 1 126.9326 79.3774)" class="st5 st6">CUSTOMERS THAN COLLECTING </text>
		<text transform="matrix(1.0004 0 0 1 126.9326 93.7773)" class="st5 st6">IN REVENUE.</text>
	</g>
	<g id="Dots">
		<circle cx="99.7" cy="30.9" r="1.9"/>
		<circle cx="106.7" cy="30.9" r="1.9"/>
		<circle cx="113.9" cy="30.9" r="1.9"/>
		<circle cx="120.5" cy="30.9" r="1.9"/>
	</g>
</g>
</svg>
