<?xml version="1.0" encoding="utf-8"?>
<!-- Generator: Adobe Illustrator 23.0.1, SVG Export Plug-In . SVG Version: 6.00 Build 0)  -->
<svg version="1.1" id="Layer_1" xmlns="http://www.w3.org/2000/svg" xmlns:xlink="http://www.w3.org/1999/xlink" x="0px" y="0px"
	 viewBox="0 0 431.3 373.8" style="enable-background:new 0 0 431.3 373.8;" xml:space="preserve">
<style type="text/css">
	.st0{fill:#02C9FB;}
	.st1{fill:#FFFFFF;}
	.st2{font-family:'Teko-Bold';}
	.st3{font-size:17px;}
</style>
<g>
	<g>
		<g id="Layer_5">
			<polygon class="st0" points="70.3,269.8 119.2,354.5 312.7,354.5 361.5,269.9 374.9,284.4 323.4,373.5 107.8,373.5 56.5,284.7 
							"/>
			<polygon class="st0" points="51.4,237 22.4,186.8 119.2,19 312.7,19 409.5,186.8 380.2,237.5 393.7,251.7 431.3,186.7 323.4,0 
				107.8,0 0,186.7 37.5,251.6 			"/>
		</g>
	</g>
	<g id="Layer_3">
		<rect x="111.1" y="12" class="st0" width="210.5" height="351.3"/>
		
			<rect x="113.7" y="9.7" transform="matrix(0.5051 -0.863 0.863 0.5051 -56.5485 283.5066)" class="st0" width="210.5" height="362.7"/>
		<rect x="30.9" y="85.8" transform="matrix(0.866 -0.5 0.5 0.866 -67.0881 131.7203)" class="st0" width="362.7" height="210.5"/>
	</g>
	<g id="Family">
		<g id="Dots">
			<ellipse class="st1" cx="297.6" cy="174" rx="1.9" ry="1.9"/>
			<ellipse class="st1" cx="297.7" cy="166.7" rx="1.9" ry="1.9"/>
			<ellipse class="st1" cx="297.8" cy="160.1" rx="1.9" ry="1.9"/>
		</g>
	</g>
	<g id="Bot_33_2_">
		<path class="st1" d="M89.4,126.8c-20.2,0-36.6,16.3-36.6,36.3c0,16.5,11.1,31,27.1,35.3l28.6,64.5c-4.6,4-8.4,8.7-11.6,13.9
			c-1.6,2.5-1.6,5.6,0,8.2c1.3,2.5,4.2,4,7,4h84.3c3,0,5.6-1.6,7-4c1.3-2.5,1.3-5.6,0-8.2c-8.7-15.3-24.5-25.6-41.9-28l-37.6-60.6
			c6.4-6.7,10.1-15.7,10.1-24.8c0-1.8-0.1-3.6-0.6-5.3l59.3-56.2c0.7,0,1.3,0.3,2.1,0.6v53.2c-1.8,0.1-3.6,0.7-5,1.2H181l0,0
			c-14.8,5.5-22.4,21.6-16.9,36.3c1.9,5.3,5.3,9.8,9.8,13c2.5,1.8,5.5,1.9,8.2,0.7c2.8-1.2,4.6-4,4.7-7v-15.7c0-1.2,0.6-2.7,1.6-3.6
			c0.7-0.7,1.8-1,2.8-1c0.7,0,1.3,0.1,1.9,0.6c1.2,0.7,1.9,1.9,1.9,3.4v16.2c0,3.1,1.8,5.9,4.6,7.4c1,0.6,2.2,0.9,3.7,0.9
			c1.8,0,3.4-0.6,4.7-1.6c12.6-9.3,15.3-27.1,5.9-39.7c-3.4-4.4-7.7-7.7-13-9.6l0,0l0,0c-1.9-0.7-3.7-1-5.8-1.3v-53.4
			c15.4-2.2,26.4-16.7,24-32.2C217,54.6,202.2,43.8,186.6,46c-14.1,1.9-24.5,14.1-24.3,28.2c0,1,0,2.2,0,3.4L98,128
			C95.1,127.2,92.2,126.8,89.4,126.8z M188.1,280.9h-84.3c3.1-5.5,7.3-10.1,12.2-13.9c8.6-6.8,19.1-10.5,30.1-10.4
			c1.3,0,3,0,4.4,0.1C166.1,258.2,180.2,267.3,188.1,280.9z M142.1,248.5h-1.3l-3.1,0.3h-1c-1.3,0.1-2.8,0.6-4,0.9l-0.9,0.1l-3.4,1
			l-1.3,0.6l-2.8,1L123,253l-2.8,1.3l-1,0.6c-1.2,0.7-2.2,1.3-3.6,2.1l-25.8-57.4l0,0c1.6,0,3.1-0.1,4.7-0.3h0.9
			c1.6-0.1,3-0.6,4.6-1l0.9-0.3c1.3-0.6,2.8-1,4-1.6h0.3c1.3-0.7,2.8-1.3,4-2.2l0.6-0.3l34.1,54.5L142.1,248.5L142.1,248.5z
			 M108,184.6c-6.1,5.3-14.2,7.7-22.4,6.7l-2.2-0.3c-15.3-3.1-25.3-18.1-22.1-33.4c2.7-13.3,14.4-22.8,28-22.7
			c2.8,0,5.6,0.3,8.4,1.2c9.8,3,17.2,11.1,19.3,21c0.3,1.9,0.7,4,0.7,5.9C117.7,171.5,114.1,179.4,108,184.6z M197.4,164.4
			L197.4,164.4c10.7,3.7,16.2,15.3,12.5,25.8c-1.3,3.9-3.9,7-7,9.5v-16.2c0-6.5-4.9-11.7-11.4-12.2c-3.4-0.1-6.5,1-8.7,3.1
			c-2.7,2.5-4,5.8-4,9.5v15.9c-8.9-6.7-11-19.3-4.2-28.3c2.2-3.1,5.6-5.6,9.3-7l0,0h0.3c2.1-0.9,4.2-1.2,6.5-1.2
			C192.7,163.2,195.2,163.7,197.4,164.4L197.4,164.4z M190.7,53.8c11.3,0,20.2,9.2,20.5,20.2c0,9.6-6.8,17.9-16.2,19.9V78.1
			c0-2.2-1.8-4-4-4s-4,1.8-4,4V94c-0.7-0.1-1.3-0.3-2.1-0.6c-0.9-0.3-1.8-0.6-2.5-1c-5.8-2.8-10.1-8.2-11.3-14.2
			c-0.3-1.3-0.6-2.7-0.6-4C170.4,62.9,179.5,53.8,190.7,53.8z M164.8,85.9l0.3,0.6c0.3,0.7,0.9,1.6,1.2,2.2c0.6,0.7,0.6,0.9,0.7,1.2
			c0.6,0.9,1.2,1.8,1.9,2.7l0.6,0.6c0.9,1,1.9,1.9,2.8,2.8l0.9,0.7c0.7,0.6,1.6,1.2,2.2,1.6l0.3,0.3l-52.9,50.5
			c-0.3-0.7-0.7-1.6-1-2.2v-0.3c-0.7-1.2-1.3-2.5-2.1-3.7l-0.6-0.7c-0.9-1.2-1.8-2.2-2.7-3.4l0,0c-0.9-1-1.9-1.9-3-2.8l-0.7-0.6
			c-1-0.9-2.2-1.8-3.4-2.5l-0.6-0.3l-1.5-1L164.8,85.9z"/>
		<path class="st1" d="M95.3,144.1c-1.9-0.6-4-0.9-6.1-0.9c-11.3,0-20.5,8.9-20.5,20.2c0,9.6,6.7,17.9,16,19.9
			c1.3,0.3,2.8,0.3,4.2,0.6c4.9,0,9.6-1.8,13.3-4.9c4.4-3.9,7-9.5,7-15.3c0-1.3-0.1-2.8-0.6-4.2C107.4,152,102.4,146.2,95.3,144.1z
			 M97.4,172.3c-3,2.5-6.8,3.6-10.7,2.7c-6.5-1.8-10.4-8.4-8.6-15c1.3-5.3,5.9-8.9,11.4-9.2c1.2,0,2.5,0.1,3.7,0.6
			c4,1.3,7.3,4.7,8.2,8.9c0.1,0.9,0.3,1.8,0.3,2.7C101.5,166.9,100,170.2,97.4,172.3L97.4,172.3z"/>
	</g>
	<g id="Bot_33_3_">
		<path class="st1" d="M291.4,200.5c0-4.8-3.9-8.9-8.9-8.9c-4.8,0-8.9,3.9-8.9,8.9s3.9,8.9,8.9,8.9
			C287.4,209.3,291.4,205.2,291.4,200.5z M277.3,200.5c0-3,2.4-5.3,5.3-5.3s5.3,2.4,5.3,5.3c0,3-2.4,5.3-5.3,5.3
			S277.3,203.3,277.3,200.5z"/>
		<path class="st1" d="M283.8,201.8c0.7-0.7,0.7-1.8,0-2.5s-1.8-0.7-2.5,0s-0.7,1.8,0,2.5c0.2,0.2,0.8,0.6,1.3,0.6
			C283.1,202.1,283.5,202,283.8,201.8z"/>
		<path class="st1" d="M312.6,211c5.9,0,10.5-4.7,10.5-10.5c0-5.9-4.7-10.5-10.5-10.5s-10.5,4.7-10.5,10.5
			C301.8,206.3,306.7,211,312.6,211z M312.6,207.5c-3.2,0-6-2.2-6.7-5.3h13.6C318.4,205.2,315.6,207.5,312.6,207.5z M312.6,193.3
			c3.2,0,6,2.2,6.7,5.3h-13.6C306.5,195.5,309.3,193.3,312.6,193.3z"/>
		<path class="st1" d="M305.4,228.5H300c-2,0-3.5,1.5-3.5,3.5v15.8c0,2,1.5,3.5,3.5,3.5h10.5c2,0,3.5-1.5,3.5-3.5V232
			c0-2-1.5-3.5-3.5-3.5H305.4z M300.2,232.2h3.5V248h-3.5V232.2z M310.7,248h-3.5v-15.8h3.5V248z"/>
		<path class="st1" d="M291.4,233.8h-1.8v-3.5c0-0.9-0.8-1.8-1.8-1.8s-1.8,0.8-1.8,1.8v3.5h-1.8c-0.9,0-1.8,0.8-1.8,1.8
			c0,0.9,0.8,1.8,1.8,1.8h1.8v12.3c0,0.9,0.8,1.8,1.8,1.8s1.8-0.8,1.8-1.8v-12.2h1.8c0.9,0,1.8-0.8,1.8-1.8
			C293.2,234.6,292.4,233.8,291.4,233.8z"/>
		<path class="st1" d="M328.4,261.9c-2,0-3.5,1.5-3.5,3.5V276c0,0.9,0.8,1.8,1.8,1.8c7.7,0,14.1-6.3,14.1-14.1
			c0-0.9-0.8-1.8-1.8-1.8h-5.3v-3.5c2,0,3.5-1.5,3.5-3.5v-12.3c0-2-1.5-3.5-3.5-3.5h-0.1c-0.9-7.3-7.6-9.9-12.2-10.5v-3.7h5.3
			c2,0,3.5-1.5,3.5-3.5v-6l7-4.3c1.1-0.6,1.7-1.8,1.8-3v-10c0-1.4-0.8-2.8-2.2-3.2l-6.6-2.7v-4c0-2-1.5-3.5-3.5-3.5h-56.4
			c-2,0-3.5,1.5-3.5,3.5v4l-6.6,2.7c-1.4,0.6-2.2,1.8-2.2,3.2v10c0,1.3,0.7,2.4,1.8,3.1l7,4.3v5.9c0,2,1.5,3.5,3.5,3.5h5.3v3.7
			c-4.6,0.6-11.3,3.1-12.2,10.5H263c-2,0-3.5,1.5-3.5,3.5v12.3c0,2,1.5,3.5,3.5,3.5v3.5h-5.3c-0.9,0-1.8,0.8-1.8,1.8
			c0,7.7,6.3,14.1,14.1,14.1c0.9,0,1.8-0.8,1.8-1.8v-10.5c0-2-1.5-3.5-3.5-3.5h-1.8v-3.5h1.8c2,0,3.5-1.5,3.5-3.5v-12.3
			c0-2-1.5-3.5-3.5-3.5h-1.5c0.9-5.1,5.9-6.5,8.7-6.9v24.5c0,0.9,0.8,1.8,1.8,1.8h3.5v5.3c-2,0-3.5,1.5-3.5,3.5v3.5
			c0,2,1.5,3.5,3.5,3.5v5.3h-4.3c-1.4,0-2.5,0.7-3.1,2l-1.8,3.5c-0.8,1.7-0.1,3.8,1.5,4.7c0.5,0.2,0.9,0.5,1.5,0.5h16.5
			c2,0,3.5-1.5,3.5-3.5v-3.8c0-2-1.5-3.5-3.5-3.5v-5.3c2,0,3.5-1.5,3.5-3.5v-3.5c0-2-1.5-3.5-3.5-3.5v-5.3h14.1v5.3
			c-2,0-3.5,1.5-3.5,3.5v3.5c0,2,1.5,3.5,3.5,3.5v5.3c-2,0-3.5,1.5-3.5,3.5v3.5c0,2,1.5,3.5,3.5,3.5h16.5c2,0,3.5-1.5,3.5-3.5
			c0-0.6-0.1-1.1-0.5-1.5l-1.8-3.5c-0.6-1.3-1.8-2-3.1-2h-4.3v-5.3c2,0,3.5-1.5,3.5-3.5v-3.5c0-2-1.5-3.5-3.5-3.5v-5.3h3.5
			c0.9,0,1.8-0.8,1.8-1.8V232c2.7,0.5,7.7,1.8,8.7,6.9H328c-2,0-3.5,1.5-3.5,3.5v12.3c0,2,1.5,3.5,3.5,3.5h1.8v3.5L328.4,261.9
			L328.4,261.9z M268.5,265.5v8.7c-4.5-0.7-7.8-4.3-8.7-8.7H268.5z M268.5,255h-5.3v-12.3h5.3V255z M335.4,198.1v10l-5.3,3.2V196
			L335.4,198.1z M261.5,208.2v-10l5.3-2.1v15.4L261.5,208.2z M270.2,214.4V188h56.4v5.3l0,0v21l0,0v7h-12.5
			c-0.8-5.1-5.2-8.9-10.4-8.9h-10.5c-5.2,0-9.6,3.8-10.4,8.9h-12.6V214.4L270.2,214.4z M310.4,221.5h-24.1c0.8-3.1,3.7-5.3,6.9-5.3
			h10.5C306.9,216.3,309.7,218.4,310.4,221.5z M291.4,286.6h-16.5l1.8-3.5h14.7V286.6L291.4,286.6z M287.9,279.7h-3.5v-5.3h3.5
			V279.7z M291.4,270.8h-10.5v-3.5h10.5V270.8z M287.9,263.8h-3.5v-5.3h3.5V263.8z M321.9,286.6h-16.5v-3.5h14.8L321.9,286.6z
			 M312.6,279.7H309v-5.3h3.5v5.3H312.6z M316,270.8h-10.5v-3.5H316V270.8z M312.6,263.8H309v-5.3h3.5v5.3H312.6z M317.6,255H279
			v-30h38.6V255z M328.4,242.7h5.3V255h-5.3V242.7z M336.9,265.5c-0.7,4.5-4.3,7.8-8.7,8.7v-8.7H336.9z"/>
	</g>
	<g id="Layer_3_1_">
		<path class="st1" d="M219.4,356.5l-1.1-0.7c-0.9-0.6-22.1-14.6-22.1-27.2c0-9,6.3-13.6,12.7-13.6c4.1,0.1,8,1.9,10.5,5.1
			c2.6-3.2,6.4-5.1,10.5-5.2c6.3,0,12.7,4.7,12.7,13.6c0,12.6-21.2,26.6-22.1,27.2L219.4,356.5z"/>
	</g>
</g>
<g>
	<text transform="matrix(1 0 0 1 222.35 122.765)" class="st1 st2 st3">GET ME THE TOOLBOX. </text>
	<text transform="matrix(1 0 0 1 222.35 137.165)" class="st1 st2 st3">IT&apos;S TIME TO ARCHITECT. </text>
	<text transform="matrix(1 0 0 1 222.35 151.565)" class="st1 st2 st3">LET&apos;S GET TO WORK!</text>
</g>
</svg>
