<?xml version="1.0" encoding="utf-8"?>
<!-- Generator: Adobe Illustrator 24.0.3, SVG Export Plug-In . SVG Version: 6.00 Build 0)  -->
<svg version="1.1" xmlns="http://www.w3.org/2000/svg" xmlns:xlink="http://www.w3.org/1999/xlink" x="0px" y="0px"
	 viewBox="0 0 1117 1049.2" style="enable-background:new 0 0 1117 1049.2;" xml:space="preserve">
<style type="text/css">
	.st0{display:none;}
	.st1{display:inline;}
	.st2{fill:#FFFFFF;}
	.st3{fill:#02C9FB;}
	.st4{fill:none;}
	.st5{font-family:'HelveticaNeue-CondensedBlack';}
	.st6{font-size:26px;}
</style>
<g id="BKGD" class="st0">
	<rect class="st1" width="1117" height="1049.2"/>
</g>
<g id="TB_BKGD">
	<g>
		<g>
			<g>
				<rect x="79.6" y="284.9" class="st2" width="815.5" height="679.2"/>
				<rect x="895.1" y="215.7" class="st2" width="204.5" height="815.6"/>
				<rect x="9.3" y="953.9" class="st2" width="912.4" height="84.8"/>
				<rect x="9.3" y="253" class="st2" width="74.5" height="728.2"/>
				<rect x="23.1" y="225.3" class="st2" width="1081.7" height="68.1"/>
			</g>
			<rect x="224.3" y="166.8" class="st2" width="121.4" height="53.2"/>
			<rect x="251.3" y="151.9" class="st2" width="66.4" height="29.5"/>
		</g>
		<rect x="985" y="647.9" width="29.8" height="26.2"/>
		<rect x="967.5" y="769.3" width="67.8" height="53.5"/>
		<rect x="970.1" y="907.3" width="56.9" height="56.9"/>
	</g>
</g>
<g id="Shell">
	<g>
		<g id="a79de169-09ec-4a7a-ab9c-8cdea5ef464a">
			<g id="ab7f11b5-6281-41fc-8479-8d7f2085a121">
				<polygon class="st3" points="264.3,752.5 339.3,882.4 636.3,882.4 711.2,752.5 731.7,774.8 652.8,911.5 321.9,911.5 
					243.2,775.2 				"/>
				<polygon class="st3" points="235.3,702.1 190.8,625 339.3,367.5 636.3,367.5 784.8,625 739.8,702.9 760.6,724.7 818.2,625 
					652.8,338.4 321.9,338.4 156.4,625 213.9,724.5 				"/>
			</g>
		</g>
		<g id="a6f45107-d82c-43d7-9f86-2a039e347489">
			<rect x="325.6" y="353.9" class="st3" width="324.7" height="541.9"/>
			
				<rect x="329.6" y="350.4" transform="matrix(0.5051 -0.863 0.863 0.5051 -300.3128 736.438)" class="st3" width="324.7" height="559.4"/>
			
				<rect x="201.9" y="467.7" transform="matrix(0.866 -0.5 0.5 0.866 -250.5232 325.2251)" class="st3" width="559.4" height="324.7"/>
		</g>
	</g>
</g>
<g id="TV">
	<g id="layer1" transform="translate(0,-952.36218)">
		<path id="path7416" class="st3" d="M12.9,952.4c-7.5,0.4-13.3,6.8-12.9,14.3c0.2,4.2,2.3,8,5.7,10.4l208.1,156.2
			c-3.9,7.4-6.6,15.4-8.1,23.8H81.9c-28.4,0-49.8,3-64.3,17.5s-17.5,35.9-17.5,64.3v681c0,28.4,3,49.3,17.5,63.8
			c14.5,14.5,35.9,17.9,64.3,17.9h953.4c28.4,0,49.8-3.4,64.3-17.9c5.4-5.4,9.3-11.4,11.9-18.7c4.4-12.2,5.5-27.4,5.5-45.1v-681
			c0-7.1-0.3-13.8-0.9-20c-1-12.4-3-22.9-7.7-31.9c-2.3-4.5-5.3-8.7-8.9-12.3c-14.5-14.5-35.9-17.5-64.3-17.5H366.6
			c-1.5-8.4-4.2-16.5-8.1-23.8l208.1-156.2c6.1-4.4,7.6-12.9,3.2-19c-2.8-3.9-7.4-6.1-12.2-5.7c-2.7,0.3-5.2,1.3-7.2,3l-208.6,156.2
			c-14.6-13.7-34.2-22.6-55.8-22.6c-21.7,0-41.5,8.7-56.2,22.6L21.9,955.4C19.3,953.4,16.2,952.3,12.9,952.4z M286.2,1116.3
			c25.4,0,46.2,17.5,52.4,40.9H233.8C240,1133.7,260.8,1116.3,286.2,1116.3z M81.9,1184.4h132.4h1.3c1.8,0.4,3.7,0.4,5.5,0h130.7
			c1.8,0.4,3.7,0.4,5.5,0h678c26.1,0,38.8,3.4,44.7,9.4s9.8,19,9.8,45.1v681c0,26.1-3.9,38.8-9.8,44.7c-5.9,5.9-18.6,9.8-44.7,9.8
			H81.9c-13.1,0-22.6-0.8-29.8-2.6c-3.6-0.9-6.5-1.8-8.9-3c-2.4-1.2-4.5-2.8-6-4.3c-5.9-5.9-9.8-18.6-9.8-44.7v-681
			c0-6.5,0.4-12,0.9-17c1.4-15,4.5-23.6,8.9-28.1c3-3,7.7-5.2,14.9-6.8c3.6-0.8,7.8-1.3,12.8-1.7
			C69.8,1184.8,75.4,1184.4,81.9,1184.4z M79.3,1225.2c-6.5,1.2-11.2,7-11.1,13.6v681c0,7.5,6.1,13.6,13.6,13.6h817.2
			c7.5,0,13.6-6.1,13.6-13.6v-681c0-7.5-6.1-13.6-13.6-13.6H81.9C81,1225.2,80.2,1225.2,79.3,1225.2z M95.5,1252.5h790v653.8h-790
			V1252.5z M964.6,1361.4c-7.5,0.7-13,7.4-12.3,14.9c0.7,7.5,7.4,13,14.9,12.3h68.1c7.5,0.1,13.7-5.9,13.8-13.4
			c0.1-7.5-5.9-13.7-13.4-13.8c-0.1,0-0.3,0-0.4,0h-68.1C966.3,1361.4,965.5,1361.4,964.6,1361.4z M964.6,1429.5
			c-7.5,0.7-13,7.4-12.3,14.9s7.4,13,14.9,12.3l0,0h68.1c7.5,0.1,13.7-5.9,13.8-13.4c0.1-7.5-5.9-13.7-13.4-13.8c-0.1,0-0.3,0-0.4,0
			h-68.1C966.3,1429.5,965.5,1429.5,964.6,1429.5z M964.6,1497.6c-7.5,0.7-13,7.4-12.3,14.9c0.7,7.5,7.4,13,14.9,12.3h68.1
			c7.5,0.1,13.7-5.9,13.8-13.4c0.1-7.5-5.9-13.7-13.4-13.8c-0.1,0-0.3,0-0.4,0h-68.1C966.3,1497.6,965.5,1497.6,964.6,1497.6z
			 M1001.2,1579.4c-18.6,0-34.1,15.4-34.1,34.1c0,18.6,15.4,34.1,34.1,34.1s34.1-15.4,34.1-34.1
			C1035.3,1594.8,1019.9,1579.4,1001.2,1579.4z M1001.2,1606.6c3.9,0,6.8,2.9,6.8,6.8c0,3.9-2.9,6.8-6.8,6.8c-3.9,0-6.8-2.9-6.8-6.8
			C994.4,1609.5,997.3,1606.6,1001.2,1606.6z M1001.2,1701.9c-26.2,0-47.7,21.5-47.7,47.7s21.5,47.7,47.7,47.7s47.7-21.5,47.7-47.7
			S1027.4,1701.9,1001.2,1701.9z M1001.2,1729.2c11.4,0,20.4,9,20.4,20.4c0,11.4-9,20.4-20.4,20.4s-20.4-9-20.4-20.4
			C980.8,1738.2,989.8,1729.2,1001.2,1729.2z M1001.2,1838.1c-26.2,0-47.7,21.5-47.7,47.7s21.5,47.7,47.7,47.7s47.7-21.5,47.7-47.7
			S1027.4,1838.1,1001.2,1838.1z M1001.2,1865.4c11.4,0,20.4,9,20.4,20.4s-9,20.4-20.4,20.4s-20.4-9-20.4-20.4
			S989.8,1865.4,1001.2,1865.4z"/>
	</g>
</g>
<g id="Robot">
	<g id="Bot_33">
		<path class="st2" d="M481.1,754.4c0-6.8-5.3-12.1-12.1-12.1c-6.8,0-12.1,5.3-12.1,12.1s5.3,12.1,12.1,12.1
			C475.8,766.5,481.1,761.1,481.1,754.4z M461.8,754.4c0-4.1,3.1-7.3,7.3-7.3c4.1,0,7.3,3.1,7.3,7.3s-3.1,7.3-7.3,7.3
			C464.9,761.6,461.8,758.5,461.8,754.4z"/>
		<path class="st2" d="M527.1,766.5c6.8,0,12.1-5.3,12.1-12.1s-5.3-12.1-12.1-12.1c-6.8,0-12.1,5.3-12.1,12.1
			S520.3,766.5,527.1,766.5z M527.1,747.1c4.1,0,7.3,3.1,7.3,7.3s-3.1,7.3-7.3,7.3c-4.1,0-7.3-3.1-7.3-7.3S523,747.1,527.1,747.1z"
			/>
		<path class="st2" d="M557.3,773.7h-4.1c0.2-0.7,0.5-1.7,0.5-2.4v-31.4c0-4.1-3.1-7.3-7.3-7.3h-96.8c-4.1,0-7.3,3.1-7.3,7.3v31.4
			c0,0.7,0.2,1.7,0.5,2.4h-4.1c-7.3-0.2-13.5,5.3-14,12.6s5.6,13.8,12.8,14v28.3c-8.5,4.1-11.9,14.3-8,22.5c1.2,2.4,2.9,4.6,5.1,6.3
			c1,0.7,1.9,1,2.9,1c0.7,0,1.5-0.2,2.2-0.5c1.7-0.7,2.7-2.4,2.7-4.4v-9.7c0-0.7,0.5-1.7,1.2-1.9c0.2-0.2,0.7-0.5,1-0.5
			c0.7,0,1.2,0.2,1.7,0.7c0.7,0.5,1,1.2,1,1.9v9.4c0,1.9,1,3.6,2.7,4.4c1.5,0.7,3.4,0.7,4.8-0.5c7.5-5.6,9.2-16.2,3.6-23.7
			c-1.7-2.2-3.9-4.1-6.3-5.3v-28.1h9.7c0.5,5.6,1.9,10.9,4.8,15.7v42.6c-5.1,2.9-8.5,7.7-9.4,13.5c-0.2,1.5,0.2,2.9,1,3.9
			c1,1.2,2.2,1.7,3.6,1.7h28.5c1.5,0,2.9-0.7,3.6-1.7c1-1,1.2-2.4,1.2-3.9c-1-5.8-4.4-10.6-9.4-13.5V832c7.7,2.7,16.4,2.7,24.2,0
			v26.6c-5.1,2.9-8.5,7.7-9.4,13.5c-0.2,1.5,0.2,2.9,1.2,3.9c1,1.2,2.2,1.7,3.6,1.7h28.5c1.5,0,2.9-0.7,3.6-1.7c1-1,1.2-2.4,1.2-3.9
			c-1-5.8-4.4-10.6-9.4-13.5v-42.6c2.9-4.8,4.4-10.2,4.8-15.7h9.7v28.3c-8.5,4.1-12.1,14.3-8,22.5c1.2,2.4,2.9,4.6,5.1,6.3
			c1.5,1,3.4,1.2,4.8,0.5c1.7-0.7,2.7-2.4,2.9-4.4v-9.4c0-0.7,0.2-1.5,1-2.2c0.5-0.5,1-0.7,1.7-0.7c0.5,0,0.7,0.2,1.2,0.5
			c0.7,0.5,1.2,1.2,1.2,1.9v9.7c0,1.9,1,3.6,2.7,4.4c0.7,0.2,1.5,0.5,2.2,0.5c1,0,1.9-0.2,2.9-1c7.5-5.6,8.9-16.2,3.4-23.7
			c-1.7-2.2-3.9-3.9-6.3-5.1v-28.1c7.3-0.2,13.1-6.5,12.6-14C570.9,779,564.6,773.5,557.3,773.7z M447.3,771.3v-31.4
			c0-1.5,1-2.4,2.4-2.4h96.8c1.5,0,2.4,1,2.4,2.4v31.4c0,1.5-1,2.4-2.4,2.4h-96.8C448.2,773.7,447.3,772.8,447.3,771.3z
			 M456.9,843.9c0,3.9-1.7,7.5-4.8,9.7v-9.4c0-2.2-1-4.1-2.4-5.6c-1.5-1.5-3.4-1.9-5.3-1.9c-3.9,0.2-6.8,3.4-6.8,7.3v9.7
			c-5.3-3.9-6.5-11.6-2.4-16.9c1.5-1.9,3.4-3.4,5.6-4.1h0.2l0,0c0.5-0.2,1-0.2,1.2-0.2l0.7-0.2c0.5-0.2,1.2-0.2,1.9-0.2
			c1.5,0,2.7,0.2,3.9,0.7h0.2C453.8,834.2,456.9,838.8,456.9,843.9z M447.3,827.2c-0.7-0.2-1.5-0.2-2.2-0.2l0,0
			c-0.7,0-1.5,0-2.2,0.2h-0.5v-26.8h4.8V827.2z M438.8,795.5c-4.6,0-8.5-3.9-8.5-8.5c0-4.6,3.9-8.5,8.5-8.5h23v16.9H438.8z
			 M475.8,826.7l0.7,0.5c0.5,0.5,1.2,0.7,1.7,1.2l1,0.5l1.7,1l0.5,0.2v26.6h-0.5l-1-0.2c-0.5,0-1-0.2-1.2-0.2H478c-0.5,0-1,0-1.5,0
			s-1,0-1.5,0h-1l-1.2,0.2l-1,0.2h-0.5v-33.9l0.2,0.2c0.5,0.5,1.2,1.2,1.7,1.7l0.2,0.2C474.3,825.5,475.1,826,475.8,826.7z
			 M490.6,872.9H462c1.2-8,8.7-13.3,16.7-11.9c1.2,0.2,2.2,0.5,3.4,1l0.5,0.2C486.7,864.2,489.8,868.3,490.6,872.9z M484.5,826.5
			c-0.7-0.2-1.5-0.7-2.2-1c-9.7-5.8-15.7-16.2-15.7-27.6v-19.4h62.9v19.4c0,17.4-14,31.4-31.4,31.4
			C493.5,829.4,488.9,828.4,484.5,826.5L484.5,826.5z M524.7,822.6v33.9h-0.5l-1-0.2c-0.5,0-1-0.2-1.2-0.2h-0.7c-0.5,0-1,0-1.5,0
			s-1,0-1.5,0h-0.7l-1.2,0.2l-1,0.2H515v-26.6l0.5-0.2l1.5-1l1-0.5c0.5-0.5,1.2-0.7,1.7-1.2l0.7-0.5c0.7-0.5,1.5-1.2,2.2-1.9
			l0.5-0.2C523.5,823.8,523.9,823.3,524.7,822.6L524.7,822.6z M534.1,872.9h-28.5c1.2-8,8.7-13.3,16.7-11.9c1.2,0.2,2.2,0.5,3.4,1
			l0.5,0.2C530.2,864.2,533.4,868.3,534.1,872.9z M553.7,827.2c-0.7,0-1.7-0.2-2.4-0.2l0,0c-0.7,0-1.5,0-2.2,0.2h-0.2v-26.8h4.8
			V827.2z M563.4,843.9c0,3.9-1.7,7.5-4.8,9.7v-9.7c0-3.9-2.9-7-6.8-7.3c-1.9,0-3.9,0.5-5.3,1.9c-1.5,1.5-2.4,3.4-2.4,5.6v9.4
			c-5.3-3.9-6.5-11.6-2.4-16.9c1.5-1.9,3.1-3.4,5.3-4.1h0.2c1.2-0.5,2.7-0.7,3.9-0.7c1.5,0,2.9,0.2,4.1,0.7l0,0l0,0
			C560.2,834.2,563.4,838.8,563.4,843.9z M557.3,795.5h-23v-16.9h23c4.6,0,8.5,3.9,8.5,8.5C565.8,791.6,561.9,795.5,557.3,795.5z"/>
	</g>
</g>
<g id="Layer_8">
	<path d="M487.3,497.3l-2.5-1.5c-2-1.4-50.3-33.3-50.3-62.1c0-20.5,14.6-31.2,28.9-31.2c9.2,0,17.8,4.2,23.9,11.6
		c6.1-7.4,14.7-11.6,23.9-11.6c14.3,0,28.9,10.7,28.9,31.2c0,28.8-48.3,60.7-50.3,62.1L487.3,497.3z"/>
</g>
<g id="Dots_1_">
	<g id="Dots">
		<circle class="st2" cx="413.7" cy="711.5" r="2.3"/>
		<circle class="st2" cx="420.4" cy="716.8" r="2.3"/>
		<circle class="st2" cx="427.3" cy="722.3" r="2.3"/>
		<circle class="st2" cx="433.6" cy="727.3" r="2.3"/>
	</g>
</g>
<g id="Text">
	<rect x="234.5" y="527.3" class="st4" width="527" height="233.6"/>
	<text transform="matrix(1 0 0 1 234.4555 545.8822)"><tspan x="0" y="0" class="st2 st5 st6">Thomas A. Edison once said: &quot;I have not failed. </tspan><tspan x="0" y="31.2" class="st2 st5 st6">I&apos;ve just found 10,000 ways that won&apos;t work.&quot;  </tspan><tspan x="0" y="62.4" class="st2 st5 st6">We have products under construction, and never </tspan><tspan x="0" y="93.6" class="st2 st5 st6">stop trying to bring the most value to our </tspan><tspan x="0" y="124.8" class="st2 st5 st6">customers. Stay tuned for announcements and </tspan><tspan x="0" y="156" class="st2 st5 st6">opportunities to connect. Robots never give up. </tspan></text>
</g>
</svg>
