<?xml version="1.0" encoding="utf-8"?>
<!-- Generator: Adobe Illustrator 24.0.3, SVG Export Plug-In . SVG Version: 6.00 Build 0)  -->
<svg version="1.1" id="Layer_1" xmlns="http://www.w3.org/2000/svg" xmlns:xlink="http://www.w3.org/1999/xlink" x="0px" y="0px"
	 viewBox="0 0 1117 1049.2" style="enable-background:new 0 0 1117 1049.2;" xml:space="preserve">
<style type="text/css">
	.st0{display:none;}
	.st1{display:inline;}
	.st2{fill:#FFFFFF;}
	.st3{fill:#02C9FB;}
</style>
<g id="BKGD" class="st0">
	<rect class="st1" width="1117" height="1049.2"/>
</g>
<g id="TV_BKGD">
	<rect x="87.9" y="299.6" class="st2" width="810.6" height="663.1"/>
	<rect x="898.5" y="232" class="st2" width="203.3" height="796.3"/>
	<rect x="18" y="952.8" class="st2" width="906.9" height="69.3"/>
	<rect x="18" y="268.5" class="st2" width="74.1" height="711"/>
	<rect x="21.2" y="221.9" class="st2" width="1073.2" height="86"/>
	<rect x="230.5" y="163.9" class="st2" width="120" height="43.2"/>
	<rect x="257.2" y="153.1" class="st2" width="65.6" height="14.9"/>
	<rect x="979.9" y="653.2" width="29.8" height="26.2"/>
	<rect x="967.4" y="769.6" width="67.8" height="53.5"/>
	<rect x="971" y="905.6" width="56.9" height="56.9"/>
</g>
<g id="Shell">
	<g>
		<g id="a79de169-09ec-4a7a-ab9c-8cdea5ef464a">
			<g id="ab7f11b5-6281-41fc-8479-8d7f2085a121">
				<polygon class="st3" points="264.3,752.5 339.3,882.4 636.3,882.4 711.2,752.5 731.7,774.8 652.8,911.5 321.9,911.5 
					243.2,775.2 				"/>
				<polygon class="st3" points="235.3,702.1 190.8,625 339.3,367.5 636.3,367.5 784.8,625 739.8,702.9 760.6,724.7 818.2,625 
					652.8,338.4 321.9,338.4 156.4,625 213.9,724.5 				"/>
			</g>
		</g>
		<g id="a6f45107-d82c-43d7-9f86-2a039e347489">
			<rect x="325.6" y="353.9" class="st3" width="324.7" height="541.9"/>
			
				<rect x="329.6" y="350.5" transform="matrix(0.5051 -0.863 0.863 0.5051 -300.4455 736.4236)" class="st3" width="324.7" height="559.4"/>
			
				<rect x="201.9" y="467.7" transform="matrix(0.866 -0.5 0.5 0.866 -250.4978 325.2138)" class="st3" width="559.4" height="324.7"/>
		</g>
	</g>
</g>
<g id="TV">
	<g id="layer1" transform="translate(0,-952.36218)">
		<path id="path7416" class="st3" d="M12.9,952.4c-7.5,0.4-13.3,6.8-12.9,14.3c0.2,4.2,2.3,8,5.7,10.4l208.1,156.2
			c-3.9,7.4-6.6,15.4-8.1,23.8H81.9c-28.4,0-49.8,3-64.3,17.5s-17.5,35.9-17.5,64.3v681c0,28.4,3,49.3,17.5,63.8
			s35.9,17.9,64.3,17.9h953.4c28.4,0,49.8-3.4,64.3-17.9c5.4-5.4,9.3-11.4,11.9-18.7c4.4-12.2,5.5-27.4,5.5-45.1v-681
			c0-7.1-0.3-13.8-0.9-20c-1-12.4-3-22.9-7.7-31.9c-2.3-4.5-5.3-8.7-8.9-12.3c-14.5-14.5-35.9-17.5-64.3-17.5H366.6
			c-1.5-8.4-4.2-16.5-8.1-23.8l208.1-156.2c6.1-4.4,7.6-12.9,3.2-19c-2.8-3.9-7.4-6.1-12.2-5.7c-2.7,0.3-5.2,1.3-7.2,3l-208.6,156.2
			c-14.6-13.7-34.2-22.6-55.8-22.6c-21.7,0-41.5,8.7-56.2,22.6L21.9,955.4C19.3,953.4,16.2,952.3,12.9,952.4z M286.2,1116.3
			c25.4,0,46.2,17.5,52.4,40.9H233.8C240,1133.7,260.8,1116.3,286.2,1116.3z M81.9,1184.4h132.4h1.3c1.8,0.4,3.7,0.4,5.5,0h130.7
			c1.8,0.4,3.7,0.4,5.5,0h678c26.1,0,38.8,3.4,44.7,9.4s9.8,19,9.8,45.1v681c0,26.1-3.9,38.8-9.8,44.7c-5.9,5.9-18.6,9.8-44.7,9.8
			H81.9c-13.1,0-22.6-0.8-29.8-2.6c-3.6-0.9-6.5-1.8-8.9-3c-2.4-1.2-4.5-2.8-6-4.3c-5.9-5.9-9.8-18.6-9.8-44.7v-681
			c0-6.5,0.4-12,0.9-17c1.4-15,4.5-23.6,8.9-28.1c3-3,7.7-5.2,14.9-6.8c3.6-0.8,7.8-1.3,12.8-1.7
			C69.8,1184.8,75.4,1184.4,81.9,1184.4z M79.3,1225.2c-6.5,1.2-11.2,7-11.1,13.6v681c0,7.5,6.1,13.6,13.6,13.6H899
			c7.5,0,13.6-6.1,13.6-13.6v-681c0-7.5-6.1-13.6-13.6-13.6H81.9C81,1225.2,80.2,1225.2,79.3,1225.2z M95.5,1252.5h790v653.8h-790
			V1252.5z M964.6,1361.4c-7.5,0.7-13,7.4-12.3,14.9s7.4,13,14.9,12.3h68.1c7.5,0.1,13.7-5.9,13.8-13.4c0.1-7.5-5.9-13.7-13.4-13.8
			c-0.1,0-0.3,0-0.4,0h-68.1C966.3,1361.4,965.5,1361.4,964.6,1361.4z M964.6,1429.5c-7.5,0.7-13,7.4-12.3,14.9s7.4,13,14.9,12.3
			l0,0h68.1c7.5,0.1,13.7-5.9,13.8-13.4c0.1-7.5-5.9-13.7-13.4-13.8c-0.1,0-0.3,0-0.4,0h-68.1
			C966.3,1429.5,965.5,1429.5,964.6,1429.5z M964.6,1497.6c-7.5,0.7-13,7.4-12.3,14.9s7.4,13,14.9,12.3h68.1
			c7.5,0.1,13.7-5.9,13.8-13.4c0.1-7.5-5.9-13.7-13.4-13.8c-0.1,0-0.3,0-0.4,0h-68.1C966.3,1497.6,965.5,1497.6,964.6,1497.6z
			 M1001.2,1579.4c-18.6,0-34.1,15.4-34.1,34.1c0,18.6,15.4,34.1,34.1,34.1s34.1-15.4,34.1-34.1S1019.9,1579.4,1001.2,1579.4z
			 M1001.2,1606.6c3.9,0,6.8,2.9,6.8,6.8s-2.9,6.8-6.8,6.8c-3.9,0-6.8-2.9-6.8-6.8S997.3,1606.6,1001.2,1606.6z M1001.2,1701.9
			c-26.2,0-47.7,21.5-47.7,47.7s21.5,47.7,47.7,47.7s47.7-21.5,47.7-47.7S1027.4,1701.9,1001.2,1701.9z M1001.2,1729.2
			c11.4,0,20.4,9,20.4,20.4s-9,20.4-20.4,20.4s-20.4-9-20.4-20.4S989.8,1729.2,1001.2,1729.2z M1001.2,1838.1
			c-26.2,0-47.7,21.5-47.7,47.7s21.5,47.7,47.7,47.7s47.7-21.5,47.7-47.7S1027.4,1838.1,1001.2,1838.1z M1001.2,1865.4
			c11.4,0,20.4,9,20.4,20.4s-9,20.4-20.4,20.4s-20.4-9-20.4-20.4S989.8,1865.4,1001.2,1865.4z"/>
	</g>
</g>
<g id="Robot">
	<g id="Bot_33">
		<path class="st2" d="M469.3,669c0-10.2-8-18.2-18.2-18.2s-18.2,8-18.2,18.2s8,18.2,18.2,18.2C461.3,687.3,469.3,679.1,469.3,669z
			 M440.2,669c0-6.2,4.7-11,11-11c6.2,0,11,4.7,11,11s-4.7,11-11,11C444.9,679.9,440.2,675.2,440.2,669z"/>
		<path class="st2" d="M538.6,687.3c10.2,0,18.2-8,18.2-18.2s-8-18.2-18.2-18.2s-18.2,8-18.2,18.2S528.3,687.3,538.6,687.3z
			 M538.6,658.1c6.2,0,11,4.7,11,11s-4.7,11-11,11c-6.2,0-11-4.7-11-11S532.4,658.1,538.6,658.1z"/>
		<path class="st2" d="M584.1,698.1h-6.2c0.3-1.1,0.8-2.6,0.8-3.6v-47.3c0-6.2-4.7-11-11-11H421.8c-6.2,0-11,4.7-11,11v47.3
			c0,1.1,0.3,2.6,0.8,3.6h-6.2c-11-0.3-20.3,8-21.1,19c-0.8,11,8.4,20.8,19.3,21.1v42.6c-12.8,6.2-17.9,21.5-12.1,33.9
			c1.8,3.6,4.4,6.9,7.7,9.5c1.5,1.1,2.9,1.5,4.4,1.5c1.1,0,2.3-0.3,3.3-0.8c2.6-1.1,4.1-3.6,4.1-6.6v-14.6c0-1.1,0.8-2.6,1.8-2.9
			c0.3-0.3,1.1-0.8,1.5-0.8c1.1,0,1.8,0.3,2.6,1.1c1.1,0.8,1.5,1.8,1.5,2.9v14.2c0,2.9,1.5,5.4,4.1,6.6c2.3,1.1,5.1,1.1,7.2-0.8
			c11.3-8.4,13.9-24.4,5.4-35.7c-2.6-3.3-5.9-6.2-9.5-8V738h14.6c0.8,8.4,2.9,16.4,7.2,23.7v64.2c-7.7,4.4-12.8,11.6-14.2,20.3
			c-0.3,2.3,0.3,4.4,1.5,5.9c1.5,1.8,3.3,2.6,5.4,2.6H483c2.3,0,4.4-1.1,5.4-2.6c1.5-1.5,1.8-3.6,1.8-5.9c-1.5-8.7-6.6-16-14.2-20.3
			v-40c11.6,4.1,24.7,4.1,36.5,0V826c-7.7,4.4-12.8,11.6-14.2,20.3c-0.3,2.3,0.3,4.4,1.8,5.9c1.5,1.8,3.3,2.6,5.4,2.6h43.2
			c2.3,0,4.4-1.1,5.4-2.6c1.5-1.5,1.8-3.6,1.8-5.9c-1.5-8.7-6.6-16-14.2-20.3v-64.2c4.4-7.2,6.6-15.4,7.2-23.7h14.6v42.6
			c-12.8,6.2-18.2,21.5-12.1,33.9c1.8,3.6,4.4,6.9,7.7,9.5c2.3,1.5,5.1,1.8,7.2,0.8c2.6-1.1,4.1-3.6,4.4-6.6v-14.2
			c0-1.1,0.3-2.3,1.5-3.3c0.8-0.8,1.5-1.1,2.6-1.1c0.8,0,1.1,0.3,1.8,0.8c1.1,0.8,1.8,1.8,1.8,2.9V818c0,2.9,1.5,5.4,4.1,6.6
			c1.1,0.3,2.3,0.8,3.3,0.8c1.5,0,2.9-0.3,4.4-1.5c11.3-8.4,13.4-24.4,5.1-35.7c-2.6-3.3-5.9-5.9-9.5-7.7v-42.3
			c11-0.3,19.7-9.8,19-21.1C604.5,706.1,595.1,697.8,584.1,698.1z M418.4,694.5v-47.3c0-2.3,1.5-3.6,3.6-3.6h145.8
			c2.3,0,3.6,1.5,3.6,3.6v47.3c0,2.3-1.5,3.6-3.6,3.6H422C419.7,698.1,418.4,696.8,418.4,694.5z M432.8,803.9
			c0,5.9-2.6,11.3-7.2,14.6v-14.2c0-3.3-1.5-6.2-3.6-8.4c-2.3-2.3-5.1-2.9-8-2.9c-5.9,0.3-10.2,5.1-10.2,11v14.6
			c-8-5.9-9.8-17.5-3.6-25.5c2.3-2.9,5.1-5.1,8.4-6.2h0.3l0,0c0.8-0.3,1.5-0.3,1.8-0.3l1.1-0.3c0.8-0.3,1.8-0.3,2.9-0.3
			c2.3,0,4.1,0.3,5.9,1.1h0.3C428.1,789.3,432.8,796.2,432.8,803.9z M418.4,778.7c-1.1-0.3-2.3-0.3-3.3-0.3l0,0
			c-1.1,0-2.3,0-3.3,0.3H411v-40.4h7.2v40.4H418.4z M405.5,731c-6.9,0-12.8-5.9-12.8-12.8c0-6.9,5.9-12.8,12.8-12.8h34.6v25.5
			L405.5,731L405.5,731z M461.3,778l1.1,0.8c0.8,0.8,1.8,1.1,2.6,1.8l1.5,0.8l2.6,1.5l0.8,0.3v40.1h-0.8l-1.5-0.3
			c-0.8,0-1.5-0.3-1.8-0.3h-1.1c-0.8,0-1.5,0-2.3,0s-1.5,0-2.3,0h-1.5l-1.8,0.3l-1.5,0.3h-0.8v-51.1l0.3,0.3
			c0.8,0.8,1.8,1.8,2.6,2.6l0.3,0.3C459,776.2,460.2,776.9,461.3,778z M483.6,847.6h-43.1c1.8-12.1,13.1-20,25.2-17.9
			c1.8,0.3,3.3,0.8,5.1,1.5l0.8,0.3C477.7,834.5,482.4,840.6,483.6,847.6z M474.4,777.7c-1.1-0.3-2.3-1.1-3.3-1.5
			c-14.6-8.7-23.7-24.4-23.7-41.6v-29.2h94.8v29.2c0,26.2-21.1,47.3-47.3,47.3C488,782,481,780.5,474.4,777.7L474.4,777.7z
			 M535,771.8v51.1h-0.8l-1.5-0.3c-0.8,0-1.5-0.3-1.8-0.3h-1.1c-0.8,0-1.5,0-2.3,0s-1.5,0-2.3,0h-1.1l-1.8,0.3l-1.5,0.3h-0.6v-40.1
			l0.8-0.3l2.3-1.5l1.5-0.8c0.8-0.8,1.8-1.1,2.6-1.8l1.1-0.8c1.1-0.8,2.3-1.8,3.3-2.9l0.8-0.3C533.1,773.6,533.7,772.8,535,771.8
			L535,771.8z M549.1,847.6h-42.9c1.8-12.1,13.1-20,25.2-17.9c1.8,0.3,3.3,0.8,5.1,1.5l0.8,0.3C543.2,834.5,548.1,840.6,549.1,847.6
			z M578.6,778.7c-1.1,0-2.6-0.3-3.6-0.3l0,0c-1.1,0-2.3,0-3.3,0.3h-0.3v-40.4h7.2L578.6,778.7L578.6,778.7z M593.3,803.9
			c0,5.9-2.6,11.3-7.2,14.6v-14.6c0-5.9-4.4-10.5-10.2-11c-2.9,0-5.9,0.8-8,2.9c-2.3,2.3-3.6,5.1-3.6,8.4v14.2
			c-8-5.9-9.8-17.5-3.6-25.5c2.3-2.9,4.7-5.1,8-6.2h0.3c1.8-0.8,4.1-1.1,5.9-1.1c2.3,0,4.4,0.3,6.2,1.1l0,0l0,0
			C588.4,789.3,593.3,796.2,593.3,803.9z M584.1,731h-34.6v-25.5h34.6c6.9,0,12.8,5.9,12.8,12.8C596.9,725.1,591,731,584.1,731z"/>
	</g>
</g>
<g id="Layer_8">
	<path d="M494.6,579.1l-3.8-2.2c-3-2.1-75.8-50.2-75.8-93.6c0-30.9,22-47,43.6-47c13.8,0,26.8,6.3,36,17.5
		c9.2-11.1,22.1-17.5,36-17.5c21.6,0,43.6,16.1,43.6,47c0,43.4-72.8,91.4-75.8,93.6L494.6,579.1z"/>
</g>
</svg>
