<svg id="a78ce7c1-b6f2-4a5c-a69b-ee8f141c1180" data-name="Layer 1" xmlns="http://www.w3.org/2000/svg" viewBox="0 0 181.7 260.33"><title>contact-child-one-with-heart</title><g id="bb65822d-17cf-4c26-ae4d-5a6598684138" data-name="Layer 2"><ellipse cx="64.9" cy="19.3" rx="11.6" ry="12.4" style="fill:#02c9fb"/><ellipse cx="116.7" cy="19.3" rx="11.6" ry="12.4" style="fill:#02c9fb"/></g><g id="f9cc77de-1089-44af-9c9f-cd9ae01d41aa" data-name="Layer 1"><g id="b825a12e-ca02-48f8-bd05-0e1b38c1d841" data-name="Слой_1"><path d="M181.5,17.3a19.8,19.8,0,0,1,0,27.8,19.17,19.17,0,0,1-8.2,4.9V69L162,66.5V50a19.57,19.57,0,0,1-8.2-4.9,19.62,19.62,0,0,1,27.7-27.8Zm33.1,111.5c3.3-1.4,5-4,5.8-7.5,2.1-8.7-2.6-19.6-10.4-24-3.2-1.8-6.5-2.3-9.3-1.1l-1.4.6a67.75,67.75,0,0,1,15.3,32ZM190.4,88.3l5.9-2.5c6.2-2.6,13.1-1.8,19.2,1.6,12.2,6.8,19.2,22.9,15.9,36.5-2.5,10.3-7.8,13.3-15.8,16.8a31.25,31.25,0,0,1-21.7,29.6,43.64,43.64,0,0,1,8.6,9.1c3-.1,6.3,0,9.3,0,6,0,11.4,3.1,15.2,8.1a29.25,29.25,0,0,1,5.6,17.5c0,7.5-11.3,7.5-11.3,0a17.61,17.61,0,0,0-3.3-10.6c-1.7-2.2-3.9-3.6-6.1-3.6h-3.6a43.8,43.8,0,0,1,2.4,14.3,66.53,66.53,0,0,1-19.6,47.1c-26.3,26.3-72.2,26.3-98.4,0A66.21,66.21,0,0,1,73,205.1a43.36,43.36,0,0,1,2.4-14.3H71.6c-2.3,0-4.4,1.4-6.1,3.6A17.83,17.83,0,0,0,62.2,205c0,7.5-11.3,7.5-11.3,0a29,29,0,0,1,5.6-17.5c3.8-5,9.1-8.1,15.2-8.1h9.6a46.77,46.77,0,0,1,8.6-9.2,31.25,31.25,0,0,1-21.7-29.6c-8-3.4-13.3-6.4-15.8-16.8C49,110.3,56,94.3,68.2,87.5c6.1-3.4,13-4.2,19.2-1.6l5.9,2.5A66.07,66.07,0,0,1,135,73.8h13.7a66.4,66.4,0,0,1,41.7,14.5ZM84.5,96.8l-1.4-.6c-2.8-1.2-6.2-.7-9.3,1.1-7.8,4.4-12.5,15.3-10.4,24,.9,3.5,2.5,6.1,5.8,7.5a65.93,65.93,0,0,1,15.3-32ZM148.7,85H135a55.65,55.65,0,0,0-55.5,55.5,19.85,19.85,0,0,0,19.8,19.8h85.2a19.85,19.85,0,0,0,19.8-19.8A55.65,55.65,0,0,0,148.7,85Zm32.8,28.1a19.66,19.66,0,1,1-27.8,0,19.8,19.8,0,0,1,27.8,0Zm-8,8a8.34,8.34,0,1,0,0,11.8A8.45,8.45,0,0,0,173.5,121.1ZM130,113.2a19.66,19.66,0,1,1-27.8,0A19.8,19.8,0,0,1,130,113.2Zm-8.1,8a8.34,8.34,0,1,0,0,11.8A8.27,8.27,0,0,0,121.9,121.2ZM166,171.7H117.7A33.46,33.46,0,0,0,84.4,205a55.11,55.11,0,0,0,16.3,39.1c21.9,21.9,60.6,21.9,82.4,0A55.35,55.35,0,0,0,199.4,205a33.18,33.18,0,0,0-9.8-23.5,33.78,33.78,0,0,0-23.6-9.8ZM121.7,50V66.4L110.4,69V50a19.57,19.57,0,0,1-8.2-4.9,19.66,19.66,0,1,1,27.8,0A18.93,18.93,0,0,1,121.7,50Zm.2-24.7a8.34,8.34,0,1,0,0,11.8A8.27,8.27,0,0,0,121.9,25.3Zm51.6,0a8.34,8.34,0,1,0,0,11.8A8.45,8.45,0,0,0,173.5,25.3Z" transform="translate(-50.9 -11.6)" style="fill:#fff"/></g></g><path d="M141.7,243.6l-1.5-.9c-1.2-.9-30.5-20.2-30.5-37.7,0-12.4,8.8-18.9,17.5-18.9a18.73,18.73,0,0,1,14.5,7.1,18.73,18.73,0,0,1,14.5-7.1c8.7,0,17.5,6.5,17.5,18.9,0,17.5-29.3,36.8-30.5,37.7Z" transform="translate(-50.9 -11.6)" style="fill:#02c9fb"/></svg>