<svg id="ad763eb6-0e34-4868-af59-7ca07b0f1723" data-name="f1dfb9b2-c578-4731-898e-26e2ea15c061" xmlns="http://www.w3.org/2000/svg" viewBox="0 0 89.8 80.7"><title>contact-heart</title><path d="M44.9,80.7l-2.1-1.3C41.1,78.2,0,51,0,26.5,0,9.1,12.4,0,24.6,0A26.07,26.07,0,0,1,44.9,10,25.77,25.77,0,0,1,65.2,0C77.4,0,89.8,9.1,89.8,26.5,89.8,51,48.7,78.1,47,79.2Z" style="fill:#fff"/><path d="M44.9,80.7l-1.5-.9c-1.2-.8-30.3-20-30.3-37.3,0-12.3,8.7-18.7,17.4-18.7a18.75,18.75,0,0,1,14.4,7,18.85,18.85,0,0,1,14.4-7.1c8.6,0,17.4,6.4,17.4,18.7,0,17.3-29,36.5-30.3,37.3Z" style="fill:#02c9fb"/></svg>