<svg xmlns="http://www.w3.org/2000/svg" viewBox="0 0 500 433.01"><defs><style>.cls-1{fill:#080708;}</style></defs><title>logo-black</title><g id="Layer_5" data-name="Layer 5"><polygon class="cls-1" points="81.54 312.84 138.17 411.03 362.54 411.03 419.14 312.9 434.65 329.7 375 433.01 125 433.01 65.56 330.05 81.54 312.84"/><polygon class="cls-1" points="59.6 274.8 25.98 216.52 138.17 22.01 362.54 22.01 474.73 216.52 440.79 275.36 456.5 291.86 500 216.51 375 0 125 0 0 216.51 43.43 291.73 59.6 274.8"/></g><g id="ART"><text/><path class="cls-1" d="M312.22,125.43"/><path class="cls-1" d="M312.7,140.25H286.2V96.16q1.62,0,16.23-.32t27-.33a226.89,226.89,0,0,1,27.43,1.63,96.24,96.24,0,0,1,26,7,58.6,58.6,0,0,1,25.49,20.06q9.42,13.24,9.42,31.11,0,23.07-14.2,38.42t-26.85,22.82v.82q22.27,26,48.87,53.7c17.72,18.44,25.53,26.56,26.83,28l-13.53,23.43c-2.38-2.49-15.94-16.78-30.45-33.11S371.5,247.56,341.29,213l.16-1.47q6.18-1.62,16.42-7.07a85,85,0,0,0,17.24-11.8A53.16,53.16,0,0,0,385.6,179q4.47-8.15,4.47-21.8,0-12.54-6.58-21.56a37.91,37.91,0,0,0-18.12-13.26A68.92,68.92,0,0,0,345.53,118q-10.39-.73-19.18-.73c-3.9,0-6.88,0-8.94.08s-3.58.08-4.55.08Z"/><path class="cls-1" d="M187.14,117.46c-1,0-2.49,0-4.55-.08s-5-.08-8.94-.08q-8.78,0-19.18.73a68.92,68.92,0,0,0-19.84,4.31,37.91,37.91,0,0,0-18.12,13.26q-6.58,9-6.58,21.56,0,13.67,4.47,21.8a53.16,53.16,0,0,0,10.49,13.66,85,85,0,0,0,17.24,11.8q10.25,5.45,16.42,7.07l.16,1.47q-45.32,51.9-67.09,76.38c-14.51,16.33-27.85,31-30.23,33.5L47.64,299c1.3-1.41,9.11-9.53,26.83-28s34-36.35,48.87-53.7v-.82q-12.66-7.47-26.85-22.82t-14.2-38.42q0-17.86,9.42-31.11a58.6,58.6,0,0,1,25.49-20.06,96.24,96.24,0,0,1,26-7,226.89,226.89,0,0,1,27.43-1.63q12.34,0,27,.33t16.23.32v44.09H187.3Z"/><path class="cls-1" d="M214.34,183.66l-26.92,25.68c0-4.89-.11-61.56-.17-65.8q-.42-29.4-.43-30.6,2.4-.16,18.92-.85t32.11-.69a212.81,212.81,0,0,1,32.53,2.31,117.06,117.06,0,0,1,25.18,6.43q15.58,6.18,24.48,17.75T329,166.26a48,48,0,0,1-11.18,31.29q-11.17,13.63-25.51,18.6v1.71a78.18,78.18,0,0,1,22.9,5.58,58.45,58.45,0,0,1,19.49,12.94,51.3,51.3,0,0,1,11.11,16.29q3.76,8.91,3.76,21.94a55.82,55.82,0,0,1-8.82,30.86q-8.82,13.72-25.6,22.46a122.3,122.3,0,0,1-32.71,11.23,212.38,212.38,0,0,1-40.76,3.51q-17,0-34.86-.6t-20-.77c.35-21.94.57-84,.69-103.52L215.41,264c.17,19.83-.3,54-.3,55.4l9.16.43q5.73.25,11,.25A302.93,302.93,0,0,0,271.85,318q16.86-2.07,28.5-8.58a39.15,39.15,0,0,0,14.81-13.88,41.25,41.25,0,0,0,2.13-35.75A45.87,45.87,0,0,0,308,246.49q-5.82-5.82-16-9.42a66.26,66.26,0,0,0-22.2-3.6q-9.6,0-15.51.17c-3.95.11-12.12.17-13.37.17l0-20.57c8.45-.23,18.7-1.23,25.15-3a54.84,54.84,0,0,0,17.23-8,41.45,41.45,0,0,0,11.83-13.11,35,35,0,0,0,4.63-17.92,31.61,31.61,0,0,0-5.13-18.08,35.83,35.83,0,0,0-14-12.09,69,69,0,0,0-18.48-5.4,144.56,144.56,0,0,0-23.44-1.8q-8,0-14.8.26t-8.64.25Z"/><polygon class="cls-1" points="242.59 247.81 242.59 200.08 203.74 223.95 242.59 247.81"/></g></svg>