<svg xmlns="http://www.w3.org/2000/svg" viewBox="0 0 41.01 60.01"><title>robot-engagements-crane</title><g id="ac670cd0-c07d-408f-bba3-fc74913616cb" data-name="Layer 2"><circle cx="8.97" cy="29.03" r="3.54" style="fill:#02c9fb;stroke:#000;stroke-miterlimit:10"/><circle cx="34.01" cy="6.96" r="5.46" style="fill:#02c9fb;stroke:#000;stroke-miterlimit:10"/><ellipse cx="22.82" cy="55.14" rx="9.36" ry="3.93" style="fill:#02c9fb"/><rect x="11.98" y="56.28" width="21.96" height="2.63" style="fill:#02c9fb"/><rect x="13.55" y="55.31" width="19.45" height="3.13" style="fill:#02c9fb"/></g><g id="e5b7c1b4-d524-4ca6-81f7-930ce1ede984" data-name="Layer 1"><g id="fb0c0cfb-5be4-4366-b22d-caf552184f6a" data-name="Bot 33"><path d="M16,20a9,9,0,0,0-2.35,17.69l7,15.87A14.24,14.24,0,0,0,17.86,57a1.94,1.94,0,0,0,0,2,2,2,0,0,0,1.74,1H40.39a2,2,0,0,0,1.74-1,2,2,0,0,0,0-2,14,14,0,0,0-10.35-6.88l-9.26-15A9,9,0,0,0,25,29a8.4,8.4,0,0,0-.11-1.32l14.6-13.87a3.1,3.1,0,0,1,.51.11V27.07a6.22,6.22,0,0,0-1.27.32H38.6a7,7,0,0,0-1.76,12.2,2,2,0,0,0,2,.16A2,2,0,0,0,40,38V34.13a1.23,1.23,0,0,1,.37-.86.92.92,0,0,1,.69-.26,1,1,0,0,1,.47.15A1,1,0,0,1,42,34v4a2,2,0,0,0,1.11,1.8A2.1,2.1,0,0,0,44,40a1.91,1.91,0,0,0,1.15-.38,7,7,0,0,0-1.74-12.19h0A6.9,6.9,0,0,0,42,27.09V13.92A7,7,0,1,0,34,7a5.75,5.75,0,0,0,0,.83L18.14,20.28A9.1,9.1,0,0,0,16,20ZM40.39,58H19.59a12,12,0,0,1,3-3.43A11.79,11.79,0,0,1,30,52a10,10,0,0,1,1.09.06A12,12,0,0,1,40.39,58ZM29,50h-.36l-.8.1h-.28a9.22,9.22,0,0,0-1,.22l-.2.06-.83.25-.34.12-.68.27-.34.15-.71.35-.25.13c-.29.16-.58.33-.86.52L16,38h0a7.85,7.85,0,0,0,1.19-.09h.23a8.48,8.48,0,0,0,1.11-.25l.21-.07a9.4,9.4,0,0,0,1-.39h.1a8.91,8.91,0,0,0,1-.57l.12-.07L29.36,50ZM20.61,34.27a7.11,7.11,0,0,1-5.49,1.66l-.55-.07a7,7,0,1,1,8.27-8.33A6.62,6.62,0,0,1,23,29,7,7,0,0,1,20.61,34.27Zm22-5h.05A5,5,0,0,1,44,38V34a3,3,0,0,0-2.81-3,2.88,2.88,0,0,0-2.18.8,3.18,3.18,0,0,0-1,2.32V38a5,5,0,0,1,1.25-8.71h.07A4.41,4.41,0,0,1,40.93,29a4.77,4.77,0,0,1,1.71.29ZM41,2a5,5,0,0,1,1,9.9V8a1,1,0,0,0-2,0v3.89a4.7,4.7,0,0,1-.51-.12,6.62,6.62,0,0,1-.62-.24A5,5,0,0,1,36.11,8,4.79,4.79,0,0,1,36,7,5,5,0,0,1,41,2ZM34.63,9.91l.07.13a6.12,6.12,0,0,0,.31.56l.18.3a6,6,0,0,0,.49.64l.11.14a7.6,7.6,0,0,0,.71.68l.23.17c.19.15.38.28.58.41l.09.07L24.29,25.49a5.77,5.77,0,0,0-.27-.56v-.09a8.11,8.11,0,0,0-.54-.89l-.13-.19a8.67,8.67,0,0,0-.65-.82h0a8,8,0,0,0-.73-.7l-.16-.14a10.1,10.1,0,0,0-.84-.62l-.13-.08-.43-.26Z" transform="translate(-6.99 0.01)" style="fill:#fff"/><path d="M17.5,24.23A5.1,5.1,0,0,0,16,24a5,5,0,0,0-1.06,9.89A5.37,5.37,0,0,0,16,34a5,5,0,0,0,5-5,4.72,4.72,0,0,0-.12-1.06A5,5,0,0,0,17.5,24.23Zm.47,7a3.08,3.08,0,0,1-2.64.67A3,3,0,0,1,16,26a3.09,3.09,0,0,1,.91.14,3,3,0,0,1,2,2.23A3.42,3.42,0,0,1,19,29a3,3,0,0,1-1,2.26Z" transform="translate(-6.99 0.01)" style="fill:#fff"/></g></g></svg>