<svg id="e5e43701-a506-40d1-840c-7c0fb0223716" data-name="f1dfb9b2-c578-4731-898e-26e2ea15c061" xmlns="http://www.w3.org/2000/svg" viewBox="0 0 89.82 80.71"><title>robot-heart</title><path d="M44.91,80.66l-2.08-1.33C41.08,78.15,0,51,0,26.53,0,9.11,12.37,0,24.59,0A26.28,26.28,0,0,1,44.91,10,26.27,26.27,0,0,1,65.23,0C77.45,0,89.82,9.06,89.82,26.48,89.82,51,48.74,78.1,47,79.24Z" transform="translate(0 0.05)" style="fill:#02c9fb"/><path d="M44.91,80.66l-1.47-.94c-1.24-.83-30.27-20-30.27-37.32,0-12.31,8.74-18.75,17.38-18.75a18.59,18.59,0,0,1,14.36,7,18.56,18.56,0,0,1,14.36-7.07c8.64,0,17.38,6.44,17.38,18.75,0,17.29-29,36.48-30.27,37.29Z" transform="translate(0 0.05)" style="fill:#fff"/></svg>