<?xml version="1.0" encoding="utf-8"?>
<!-- Generator: Adobe Illustrator 24.0.3, SVG Export Plug-In . SVG Version: 6.00 Build 0)  -->
<svg version="1.1" id="Your_Icon" xmlns="http://www.w3.org/2000/svg" xmlns:xlink="http://www.w3.org/1999/xlink" x="0px" y="0px"
	 viewBox="0 0 100 100" style="enable-background:new 0 0 100 100;" xml:space="preserve">
<style type="text/css">
	.st0{fill:#02C9FB;}
	.st1{fill:#FFFFFF;}
</style>
<path class="st0" d="M50,90.3L47.9,89C46.2,87.8,5.1,60.7,5.1,36.2c0-17.4,12.4-26.5,24.6-26.5c7.8,0,15.1,3.6,20.3,9.9
	c5.2-6.3,12.5-9.9,20.3-9.9c12.2,0,24.6,9.1,24.6,26.5c0,24.5-41.1,51.6-42.8,52.8L50,90.3z"/>
<path class="st1" d="M50,90.3l-1.8-1c-1.4-1-36.1-22.6-36.1-42.1c0-13.9,10.5-21.1,20.8-21.1c6.6,0,12.7,2.9,17.1,7.9
	c4.4-5,10.6-7.9,17.1-7.9c10.3,0,20.8,7.3,20.8,21.1c0,19.5-34.7,41.1-36.1,42.1L50,90.3z"/>
<path class="st0" d="M50,86.8L48.6,86c-1.1-0.7-27.9-17.4-27.9-32.5c0-10.7,8.1-16.3,16.1-16.3c5.1,0,9.9,2.2,13.2,6.1
	c3.4-3.9,8.2-6.1,13.2-6.1c8,0,16.1,5.6,16.1,16.3c0,15.1-26.8,31.8-27.9,32.5L50,86.8z"/>
</svg>
