<svg id="aca0a897-6469-421f-be6d-d4dca633a89e" data-name="Layer 1" xmlns="http://www.w3.org/2000/svg" viewBox="0 0 60.01 60"><title>robot-home-child-three-without-heart</title><g id="a204624c-ca08-457d-b946-b6e09328a3fc" data-name="Layer 3"><ellipse cx="17.7" cy="9" rx="3.4" ry="3.5" style="fill:#02c9fb"/><ellipse cx="41.9" cy="9" rx="3.4" ry="3.5" style="fill:#02c9fb"/></g><g id="b8643f77-bc8d-4b1b-8278-4a7f72df377b" data-name="Layer 1"><g id="a58f5032-3784-4ce8-836c-111365471a60" data-name="Bot 33"><path d="M23.1,9a5,5,0,1,0-10,0,5,5,0,1,0,10,0ZM15.2,9a3,3,0,0,1,6,0,3,3,0,0,1-6,0Z" transform="translate(-0.1)" style="fill:#fff"/><path d="M41.9,14a5,5,0,0,0,5-5,5,5,0,0,0-10,0A5,5,0,0,0,41.9,14Zm0-8a3,3,0,0,1,3,3,3,3,0,0,1-6,0A3,3,0,0,1,41.9,6Z" transform="translate(-0.1)" style="fill:#fff"/><path d="M54.3,17H52.6a3.55,3.55,0,0,0,.2-1V3a3,3,0,0,0-3-3H10.2a3,3,0,0,0-3,3V16a3.55,3.55,0,0,0,.2,1H5.8A5.47,5.47,0,0,0,.1,22.2,5.64,5.64,0,0,0,5.4,28V39.7A7,7,0,0,0,2,49a7.55,7.55,0,0,0,2.1,2.6,1.92,1.92,0,0,0,1.2.4,2.92,2.92,0,0,0,.9-.2A1.89,1.89,0,0,0,7.3,50V46a.89.89,0,0,1,.5-.8c0-.1.2-.2.3-.2a.91.91,0,0,1,.7.3.91.91,0,0,1,.4.8V50a1.89,1.89,0,0,0,1.1,1.8,1.84,1.84,0,0,0,2-.2,7,7,0,0,0,1.5-9.8,7.84,7.84,0,0,0-2.6-2.2V28h4a15,15,0,0,0,2,6.5V52.1a7.85,7.85,0,0,0-3.9,5.6,2.15,2.15,0,0,0,.4,1.6,1.8,1.8,0,0,0,1.5.7H26.9a2,2,0,0,0,1.5-.7,2.2,2.2,0,0,0,.5-1.6A7.85,7.85,0,0,0,25,52.1v-11a15.26,15.26,0,0,0,9.9,0v11A7.85,7.85,0,0,0,31,57.7a1.84,1.84,0,0,0,.5,1.6A1.8,1.8,0,0,0,33,60H44.7a2,2,0,0,0,1.5-.7,2.2,2.2,0,0,0,.5-1.6,7.85,7.85,0,0,0-3.9-5.6V34.5a15,15,0,0,0,2-6.5h4V39.7A7,7,0,0,0,45.5,49a7.55,7.55,0,0,0,2.1,2.6,2.06,2.06,0,0,0,2,.2A2.15,2.15,0,0,0,50.8,50V46.1a1.22,1.22,0,0,1,.4-.9.91.91,0,0,1,.7-.3c.2,0,.3.1.5.2a1,1,0,0,1,.5.8v4A1.89,1.89,0,0,0,54,51.7a2.92,2.92,0,0,0,.9.2,1.92,1.92,0,0,0,1.2-.4,7,7,0,0,0,1.4-9.8,7.55,7.55,0,0,0-2.6-2.1V28a5.43,5.43,0,0,0,5.2-5.8A5.63,5.63,0,0,0,54.3,17ZM9.2,16V3a.94.94,0,0,1,1-1H49.9a.94.94,0,0,1,1,1V16a.94.94,0,0,1-1,1H10.2A.94.94,0,0,1,9.2,16Zm4,30a4.79,4.79,0,0,1-2,4V46.1a3.26,3.26,0,0,0-1-2.3A3,3,0,0,0,8,43a3,3,0,0,0-2.8,3v4a5,5,0,0,1-1-7,4.81,4.81,0,0,1,2.3-1.7h.1a1.09,1.09,0,0,1,.5-.1l.3-.1a2,2,0,0,1,.8-.1,4.15,4.15,0,0,1,1.6.3h.1A5,5,0,0,1,13.2,46Zm-4-6.9a2.77,2.77,0,0,0-.9-.1h0a2.77,2.77,0,0,0-.9.1H7.2V28h2ZM5.8,26a3.5,3.5,0,0,1,0-7h9.4v7ZM20.9,38.9l.3.2c.2.2.5.3.7.5l.4.2.7.4.2.1v11H23l-.4-.1a4.33,4.33,0,0,1-.5-.1H20.2l-.5.1-.4.1h-.2v-14l.1.1.7.7.1.1A5.5,5.5,0,0,1,20.9,38.9ZM27,58H15.3a5.83,5.83,0,0,1,6.8-4.9,7.37,7.37,0,0,1,1.4.4l.2.1A6,6,0,0,1,27,58ZM24.5,38.8c-.3-.1-.6-.3-.9-.4A13.21,13.21,0,0,1,17.2,27V19H43v8A12.89,12.89,0,0,1,30.1,40a13.76,13.76,0,0,1-5.6-1.2ZM41,37.2v14h-.2l-.4-.1a4.33,4.33,0,0,1-.5-.1H38.1l-.5.1-.4.1H37v-11l.2-.1.6-.4.4-.2c.2-.2.5-.3.7-.5l.3-.2a6.47,6.47,0,0,0,.9-.8l.2-.1.7-.7ZM44.8,58H33.1a5.83,5.83,0,0,1,6.8-4.9,7.37,7.37,0,0,1,1.4.4l.2.1A6,6,0,0,1,44.8,58Zm8.1-18.9c-.3,0-.7-.1-1-.1h0a2.77,2.77,0,0,0-.9.1h-.1V28h2ZM56.8,46a4.79,4.79,0,0,1-2,4V46A3,3,0,0,0,52,43a3,3,0,0,0-2.2.8,3.26,3.26,0,0,0-1,2.3V50a5,5,0,0,1-1-7A4.56,4.56,0,0,1,50,41.3h.1a4.53,4.53,0,0,1,1.6-.3,4.67,4.67,0,0,1,1.7.3h0A4.92,4.92,0,0,1,56.8,46ZM54.3,26H44.9V19h9.4a3.5,3.5,0,0,1,0,7Z" transform="translate(-0.1)" style="fill:#fff"/></g></g></svg>