<svg id="ab4b7b2b-ac35-4449-8a2d-165f97d4d227" data-name="Layer 1" xmlns="http://www.w3.org/2000/svg" viewBox="0 0 60 60"><title>robot-home-child-three</title><g id="b72e9942-4411-4008-99d2-24861cdb5a13" data-name="Layer 3"><ellipse cx="17.8" cy="9" rx="3.4" ry="3.5" style="fill:#02c9fb"/><ellipse cx="42" cy="9" rx="3.4" ry="3.5" style="fill:#02c9fb"/></g><g id="a654fa0f-1b4f-490b-8596-48ddf8002a99" data-name="Layer 1"><g id="b5c24813-8867-4eff-95e5-24a31604fe84" data-name="Bot 33"><path d="M23.11,9A5,5,0,1,0,13.2,9a5,5,0,1,0,9.91,0ZM15.18,9a3,3,0,1,1,5.95,0,3,3,0,1,1-5.95,0Z" transform="translate(0)" style="fill:#fff"/><path d="M42,14A4.93,4.93,0,0,0,46.9,9,5,5,0,1,0,37,9,4.93,4.93,0,0,0,42,14Zm0-8a2.93,2.93,0,0,1,3,3,3,3,0,1,1-6,0A2.94,2.94,0,0,1,42,6Z" transform="translate(0)" style="fill:#fff"/><path d="M54.34,17H52.65a3.55,3.55,0,0,0,.2-1V3a2.93,2.93,0,0,0-3-3H10.22a2.93,2.93,0,0,0-3,3V16a3.55,3.55,0,0,0,.2,1H5.76a5.51,5.51,0,1,0-.49,11V39.7A7.08,7.08,0,0,0,2,49a7.52,7.52,0,0,0,2.09,2.6,1.88,1.88,0,0,0,1.19.4,2.92,2.92,0,0,0,.89-.2A1.9,1.9,0,0,0,7.25,50V46a.9.9,0,0,1,.49-.8.76.76,0,0,1,.4-.2.87.87,0,0,1,.69.3.91.91,0,0,1,.4.8V50a1.9,1.9,0,0,0,1.09,1.8,1.8,1.8,0,0,0,2-.2,7.06,7.06,0,0,0,1.49-9.8,7.77,7.77,0,0,0-2.58-2.2V28h4a15.07,15.07,0,0,0,2,6.5V52.1a7.83,7.83,0,0,0-3.86,5.6,2.15,2.15,0,0,0,.39,1.6,1.78,1.78,0,0,0,1.49.7h11.7a1.91,1.91,0,0,0,1.48-.7,2.2,2.2,0,0,0,.5-1.6A7.84,7.84,0,0,0,25,52.1v-11a15.32,15.32,0,0,0,9.92,0v11A7.87,7.87,0,0,0,31,57.7a1.84,1.84,0,0,0,.5,1.6A1.76,1.76,0,0,0,33,60h11.7a1.93,1.93,0,0,0,1.49-.7,2.2,2.2,0,0,0,.49-1.6,7.83,7.83,0,0,0-3.86-5.6V34.5a15.07,15.07,0,0,0,2-6.5h4V39.7A7,7,0,0,0,45.51,49a7.52,7.52,0,0,0,2.09,2.6,2,2,0,0,0,2,.2A2.16,2.16,0,0,0,50.77,50V46.1a1.22,1.22,0,0,1,.4-.9.87.87,0,0,1,.69-.3c.2,0,.3.1.49.2a1,1,0,0,1,.5.8v4a1.9,1.9,0,0,0,1.09,1.8,2.92,2.92,0,0,0,.89.2A1.88,1.88,0,0,0,56,51.5a7,7,0,0,0,1.39-9.8,7.48,7.48,0,0,0-2.58-2.1V28a5.51,5.51,0,0,0-.49-11ZM9.23,16V3a.94.94,0,0,1,1-1H49.88a.94.94,0,0,1,1,1V16a.94.94,0,0,1-1,1H10.22A.94.94,0,0,1,9.23,16Zm4,30a4.81,4.81,0,0,1-2,4V46.1a3.25,3.25,0,0,0-1-2.3,2.93,2.93,0,0,0-5,2.2v4a5,5,0,0,1-1-7,4.8,4.8,0,0,1,2.28-1.7h.1a1.09,1.09,0,0,1,.5-.1l.3-.1a1.88,1.88,0,0,1,.79-.1,4.13,4.13,0,0,1,1.59.3h.09A5,5,0,0,1,13.2,46Zm-4-6.9a2.71,2.71,0,0,0-.89-.1h0a2.68,2.68,0,0,0-.89.1h-.2V28h2ZM5.76,26a3.5,3.5,0,0,1,0-7h9.42v7ZM20.93,38.9l.3.2c.19.2.49.3.69.5l.4.2.69.4.2.1v11H23l-.4-.1a4.55,4.55,0,0,1-.49-.1H20.23l-.49.1-.4.1h-.2v-14l.1.1.7.7.1.1A5.9,5.9,0,0,1,20.93,38.9ZM27,58H15.28a5.83,5.83,0,0,1,6.84-4.9,7.49,7.49,0,0,1,1.39.4l.19.1A6,6,0,0,1,27,58ZM24.5,38.8c-.3-.1-.6-.3-.89-.4A13.33,13.33,0,0,1,17.16,27V19H42.94v8A12.92,12.92,0,0,1,30.05,40a13.53,13.53,0,0,1-5.55-1.2ZM41,37.2v14h-.19l-.4-.1a4.33,4.33,0,0,1-.5-.1H38.08l-.5.1-.39.1H37v-11l.2-.1.59-.4.4-.2c.2-.2.49-.3.69-.5l.3-.2a6.42,6.42,0,0,0,.89-.8l.2-.1.69-.7ZM44.82,58H33.12A5.83,5.83,0,0,1,40,53.1a7.07,7.07,0,0,1,1.39.4l.2.1A6,6,0,0,1,44.82,58Zm8-18.9c-.3,0-.69-.1-1-.1h0a2.68,2.68,0,0,0-.89.1h-.1V28h2Zm4,6.9a4.81,4.81,0,0,1-2,4V46a2.93,2.93,0,0,0-4.95-2.2,3.25,3.25,0,0,0-1,2.3V50a5,5,0,0,1-1-7,4.55,4.55,0,0,1,2.18-1.7h.1a4.48,4.48,0,0,1,1.59-.3,4.66,4.66,0,0,1,1.69.3h0A4.92,4.92,0,0,1,56.82,46ZM54.34,26H44.92V19h9.42a3.5,3.5,0,0,1,0,7Z" transform="translate(0)" style="fill:#fff"/></g></g><g id="adba2a77-17a4-489a-9fa3-80362779b473" data-name="Layer 2"><g id="fd6dcb50-a671-4851-ac37-a6042027af79" data-name="bfbae864-1040-45ab-bd02-c801da7f6266"><path d="M30.05,35.7l-.35-.18c-.26-.17-6.8-4.53-6.8-8.46a4,4,0,0,1,3.66-4.28h.26a4.28,4.28,0,0,1,3.23,1.58,4,4,0,0,1,5.59-.79,4.08,4.08,0,0,1,1.57,3.49c0,3.93-6.55,8.2-6.81,8.46Z" transform="translate(0)" style="fill:#02c9fb"/></g></g></svg>