<?xml version="1.0" encoding="utf-8"?>
<!-- Generator: Adobe Illustrator 24.0.2, SVG Export Plug-In . SVG Version: 6.00 Build 0)  -->
<svg version="1.1" xmlns="http://www.w3.org/2000/svg" xmlns:xlink="http://www.w3.org/1999/xlink" x="0px" y="0px"
	 viewBox="0 0 60 60" style="enable-background:new 0 0 60 60;" xml:space="preserve">
<style type="text/css">
	.st0{fill:#02C9FB;}
	.st1{fill:#FFFFFF;}
</style>
<g id="Layer_2">
	<g id="Layer_3">
		<ellipse class="st0" cx="23" cy="12" rx="5.5" ry="5.7"/>
	</g>
</g>
<g id="Layer_1">
	<title></title>
	<g id="Bot_33">
		<path class="st1" d="M30,12c0-3.9-3.1-7-7-7s-7,3.1-7,7s3.1,7,7,7S30,15.9,30,12z M23,17c-2.8,0-5-2.2-5-5s2.2-5,5-5s5,2.2,5,5
			S25.8,17,23,17z"/>
		<path class="st1" d="M38,17c2.8,0,5-2.2,5-5s-2.2-5-5-5s-5,2.2-5,5S35.2,17,38,17z M38,9c1.7,0,3,1.3,3,3s-1.3,3-3,3s-3-1.3-3-3
			S36.3,9,38,9z"/>
		<path class="st1" d="M22.3,11.3c-0.4,0.4-0.4,1,0,1.4s1,0.4,1.4,0c0.4-0.4,0.4-1,0-1.4C23.3,10.9,22.7,10.9,22.3,11.3z"/>
		<path class="st1" d="M7.6,29.8c-0.4,0.3-1,0.2-1.4-0.2l-2.8-2.8c-0.5-0.5-1.3-0.7-2.1-0.5c-0.7,0.2-1.2,0.9-1.3,1.6
			c-0.6,3.8,2.1,7.4,5.9,7.9C6.3,36,6.7,36,7,36c0.8,0,1.6-0.2,2.4-0.5l5,3c0.5,0.3,1,0.4,1.6,0.5c0.5,0,1-0.1,1.5-0.4l1.5-0.9
			c0.2,2.4,1.1,4.8,2.8,6.6c-2.7,4-2.2,9.3,1.2,12.7l0,0l0,0c3.9,3.9,10.2,3.9,14.1,0l0,0l0,0c3.4-3.4,3.9-8.7,1.2-12.7
			c1.8-2,2.8-4.6,2.8-7.3V26c0-1.1-0.4-2.1-1-3h1.5c3,0,5.6-2.1,6.3-5H48c3.3,0,6-2.7,6-6s-2.7-6-6-6l0,0c-0.3-3.4-3.1-6-6.5-6h-23
			c-3.4,0-6.2,2.6-6.5,6l0,0c-3.3,0-6,2.7-6,6s2.7,6,6,6h0.2c0.7,2.9,3.3,5,6.3,5H20c-0.6,0.9-1,1.9-1,3v4.8l-3,1.7l-2.3-1.4
			c1.1-3.7-0.9-7.6-4.6-8.8C8,22,7,21.9,6,22.1c-0.7,0.1-1.3,0.6-1.6,1.3c-0.2,0.7-0.1,1.5,0.5,2.1l2.8,2.8
			C8.1,28.7,8.1,29.3,7.6,29.8C7.7,29.7,7.6,29.8,7.6,29.8z M33.9,47.3l0.4-0.1l0.6-0.3l0.3-0.2c0.2-0.1,0.4-0.2,0.6-0.4l0.2-0.1
			c0.3-0.2,0.5-0.4,0.8-0.5c0.6,1,1,2.1,1.2,3.3H36c-0.6,0-1,0.4-1,1s0.4,1,1,1h1.9c-0.2,1.4-0.7,2.8-1.6,3.9L35,53.5
			c-0.4-0.4-1.1-0.3-1.4,0.1c-0.3,0.4-0.3,0.9,0,1.3l1.4,1.4c-1.1,0.9-2.5,1.4-3.9,1.6V56c0-0.6-0.4-1-1-1s-1,0.4-1,1v1.9
			c-1.4-0.2-2.8-0.7-3.9-1.6l1.4-1.4c0.4-0.4,0.3-1.1-0.1-1.4c-0.4-0.3-0.9-0.3-1.3,0l-1.4,1.4c-0.9-1.1-1.4-2.5-1.6-3.9H24
			c0.6,0,1-0.4,1-1s-0.4-1-1-1h-1.9c0.1-1.2,0.6-2.3,1.2-3.3c0.2,0.2,0.5,0.4,0.8,0.5l0.2,0.1c0.2,0.1,0.4,0.3,0.7,0.4l0.3,0.2
			l0.6,0.3l0.4,0.1l0.6,0.2l0.2,0.1C26.3,48.3,26,49.1,26,50c0,2.2,1.8,4,4,4s4-1.8,4-4c0-0.9-0.3-1.8-0.9-2.5l0.2-0.1L33.9,47.3z
			 M32,50c0,1.1-0.9,2-2,2s-2-0.9-2-2s0.9-2,2-2S32,48.9,32,50z M52,12c0,2.2-1.8,4-4,4V8C50.2,8,52,9.8,52,12z M8,12
			c0-2.2,1.8-4,4-4v8C9.8,16,8,14.2,8,12z M14,16.5v-10C14,4,16,2,18.5,2h23C44,2,46,4,46,6.5v10c0,2.5-2,4.5-4.5,4.5h-23
			C16,21,14,19,14,16.5z M21,26c0-1.7,1.3-3,3-3h12c1.7,0,3,1.3,3,3v11c0,5-4,9-9,9c-0.3,0-0.6,0-0.9,0c-4.6-0.4-8.2-4.4-8.1-9v-0.4
			l10.5-6c1.4-0.8,1.9-2.7,1.1-4.1c-0.8-1.4-2.7-1.9-4.1-1.1L21,29.7V26z M17,34.3l3.5-2l0,0l9-5.1c0.5-0.3,1.1-0.1,1.4,0.4
			s0.1,1.1-0.4,1.4l-5.2,3l-5.7,3.3l0,0l-3,1.7c-0.3,0.2-0.7,0.2-1,0l-4.1-2.4c0.2-0.1,0.4-0.3,0.5-0.5c0.3-0.3,0.6-0.6,0.8-1l0,0
			l2.2,1.3C15.6,34.6,16.4,34.6,17,34.3z M9.1,26.9l-2.9-2.8c2.7-0.4,5.3,1.5,5.7,4.2c0.1,0.9,0,1.9-0.4,2.8l0,0
			c-0.2,0.5-0.6,1-1,1.4c-0.4,0.4-0.9,0.8-1.4,1c-2.5,1.1-5.5,0-6.6-2.5c-0.4-0.9-0.5-1.8-0.4-2.7L4.9,31c1.1,1.1,2.8,1.3,4.1,0.3
			c1.3-1,1.5-2.9,0.5-4.2C9.3,27,9.2,26.9,9.1,26.9L9.1,26.9z"/>
	</g>
</g>
</svg>
