<svg xmlns="http://www.w3.org/2000/svg" viewBox="0 0 280.25 168.73"><title>robot-home-page</title><g id="a4125aa5-c4c0-4d3b-8966-380106d94ce9" data-name="Child"><g id="e7522823-7825-47dc-9db2-e51e4772aca4" data-name="Bot 33"><path d="M258.94,123.5a7,7,0,1,0-7,7A7,7,0,0,0,258.94,123.5Zm-7,5a5,5,0,1,1,5-5A5,5,0,0,1,251.94,128.5Z" transform="translate(-2.68 -3.58)"/><path d="M266.94,128.5a5,5,0,1,0-5-5A5,5,0,0,0,266.94,128.5Zm0-8a3,3,0,1,1-3,3A3,3,0,0,1,266.94,120.5Z" transform="translate(-2.68 -3.58)"/><path d="M251.23,122.79a1,1,0,0,0,0,1.41,1,1,0,0,0,1.42-1.41A1,1,0,0,0,251.23,122.79Z" transform="translate(-2.68 -3.58)"/><path d="M236.55,141.3a1.07,1.07,0,0,1-1.39-.16l-2.75-2.76a2,2,0,0,0-2.06-.49A2,2,0,0,0,229,139.5a7,7,0,0,0,5.92,7.93,6.63,6.63,0,0,0,1,.07,7,7,0,0,0,2.42-.45l5,3a3,3,0,0,0,1.58.45,3.12,3.12,0,0,0,1.49-.39l1.51-.89a11,11,0,0,0,2.75,6.58,10,10,0,0,0,1.16,12.7h0a10,10,0,0,0,14.08,0h0a10,10,0,0,0,1.22-12.7,11,11,0,0,0,2.79-7.3v-11a5.08,5.08,0,0,0-1-3h1.5a6.5,6.5,0,0,0,6.32-5h.18a6,6,0,0,0,0-12h0a6.51,6.51,0,0,0-6.5-6h-23a6.5,6.5,0,0,0-6.5,6h0a6,6,0,0,0,0,12h.18a6.48,6.48,0,0,0,6.32,5h1.5a5,5,0,0,0-1,3v4.83l-3,1.7-2.34-1.43a7,7,0,0,0-7.7-9,2,2,0,0,0-1.08,3.37l2.82,2.83a1,1,0,0,1,0,1.41A.76.76,0,0,1,236.55,141.3Zm26.27,17.49.36-.14.57-.26.32-.16a6.5,6.5,0,0,0,.63-.37l.21-.13c.26-.17.51-.36.77-.55a8.18,8.18,0,0,1,1.19,3.32h-1.93a1,1,0,0,0,0,2h1.93a8,8,0,0,1-1.62,3.9L263.89,165a1,1,0,0,0-1.41.11,1,1,0,0,0,0,1.3l1.36,1.36a8,8,0,0,1-3.9,1.62V167.5a1,1,0,0,0-2,0v1.93a7.91,7.91,0,0,1-3.9-1.62l1.36-1.36A1,1,0,0,0,254,165l-1.36,1.36a7.8,7.8,0,0,1-1.62-3.9h1.93a1,1,0,0,0,0-2H251a7.86,7.86,0,0,1,1.19-3.31c.25.19.51.38.77.55l.18.11c.22.14.44.27.67.39l.31.15.58.27.35.14.57.2.17.06a3.94,3.94,0,0,0-.86,2.44,4,4,0,1,0,7.14-2.45l.18-.06Zm-1.88,2.71a2,2,0,1,1-2-2A2,2,0,0,1,260.94,161.5Zm20-38a4,4,0,0,1-4,4v-8A4,4,0,0,1,280.94,123.5Zm-44,0a4,4,0,0,1,4-4v8A4,4,0,0,1,236.94,123.5Zm6,4.5V118a4.49,4.49,0,0,1,4.5-4.5h23a4.5,4.5,0,0,1,4.5,4.5v10a4.5,4.5,0,0,1-4.5,4.5h-23A4.49,4.49,0,0,1,242.94,128Zm7,9.5a3,3,0,0,1,3-3h12a3,3,0,0,1,3,3v11a9,9,0,0,1-9,9h-.87a9,9,0,0,1-8.13-9v-.4l10.49-6a3,3,0,0,0-3-5.22l-7.49,4.3Zm-4,8.26,3.45-2h0l9-5.15a1,1,0,0,1,1,1.75l-5.23,3-5.72,3.29h0l-3,1.71a1,1,0,0,1-1,0l-4.05-2.43c.18-.15.35-.3.52-.47a7.94,7.94,0,0,0,.82-1h0l2.21,1.28A2,2,0,0,0,245.94,145.76Zm-7.88-7.38-2.86-2.82a5,5,0,0,1,5.27,7h0a5.07,5.07,0,0,1-1,1.42,4.73,4.73,0,0,1-1.43,1,5,5,0,0,1-6.61-2.52,4.88,4.88,0,0,1-.39-2.72l2.75,2.75a3,3,0,0,0,4.53-3.9,2.75,2.75,0,0,0-.22-.26Z" transform="translate(-2.68 -3.58)"/></g></g><g id="f5abf274-de9a-48c6-9d99-4d6a869f20fc" data-name="Child"><g id="b9b755c4-f0b2-4243-b7ca-ebf00237cb0b" data-name="Bot 33"><path d="M184,120.45a5,5,0,1,0-5,5A5,5,0,0,0,184,120.45Zm-8,0a3,3,0,1,1,3,3A3,3,0,0,1,176,120.45Z" transform="translate(-2.68 -3.58)"/><path d="M203,125.45a5,5,0,1,0-5-5A5,5,0,0,0,203,125.45Zm0-8a3,3,0,1,1-3,3A3,3,0,0,1,203,117.45Z" transform="translate(-2.68 -3.58)"/><path d="M215.53,128.45h-1.68a2.85,2.85,0,0,0,.18-1v-13a3,3,0,0,0-3-3H171a3,3,0,0,0-3,3v13a3.39,3.39,0,0,0,.18,1h-1.68a5.51,5.51,0,1,0-.5,11v11.71a7,7,0,0,0-3.27,9.34,7.08,7.08,0,0,0,2.12,2.58,2,2,0,0,0,1.15.37,1.94,1.94,0,0,0,.89-.21,2,2,0,0,0,1.11-1.79v-4a1,1,0,0,1,.46-.85,1,1,0,0,1,.48-.15.92.92,0,0,1,.69.26,1.16,1.16,0,0,1,.37.86v3.88a2,2,0,0,0,1.11,1.8,1.94,1.94,0,0,0,2-.16A7,7,0,0,0,172,151.15v-11.7h4a15.11,15.11,0,0,0,2,6.47v17.62a8,8,0,0,0-3.89,5.6,2,2,0,0,0,2,2.31h11.81a2,2,0,0,0,1.54-.71,2,2,0,0,0,.45-1.6,7.94,7.94,0,0,0-3.9-5.6V152.59a15,15,0,0,0,10,0v10.95a8,8,0,0,0-3.89,5.6,2,2,0,0,0,2,2.31h11.81a2,2,0,0,0,1.54-.71,2,2,0,0,0,.45-1.6,7.94,7.94,0,0,0-3.9-5.6V145.92a14.84,14.84,0,0,0,2-6.47h4v11.7a7,7,0,0,0-1.15,11.93,2,2,0,0,0,2,.16,2,2,0,0,0,1.15-1.79v-3.87a1.24,1.24,0,0,1,.37-.86.91.91,0,0,1,.69-.26,1,1,0,0,1,.47.15,1,1,0,0,1,.47.84v4a2,2,0,0,0,1.11,1.8,2.14,2.14,0,0,0,.89.2,1.89,1.89,0,0,0,1.15-.38A7,7,0,0,0,216,151.16V139.45a5.51,5.51,0,1,0-.5-11Zm-45.5-1v-13a1,1,0,0,1,1-1h40a1,1,0,0,1,1,1v13a1,1,0,0,1-1,1H171A1,1,0,0,1,170,127.45Zm4,30a5,5,0,0,1-2,4v-3.87a3.18,3.18,0,0,0-1-2.32,2.86,2.86,0,0,0-2.19-.81,3,3,0,0,0-2.81,3v4a5,5,0,0,1,1.25-8.71h.05c.18-.06.36-.1.53-.14l.28-.08a5.42,5.42,0,0,1,.89-.07,4.31,4.31,0,0,1,1.63.29h.11A5,5,0,0,1,174,157.45Zm-4-6.94a6.84,6.84,0,0,0-.91-.06h0a6.8,6.8,0,0,0-.9.06H168V139.45h2Zm-3.5-13.06a3.5,3.5,0,0,1,0-7H176v7Zm15.32,12.87.27.2c.23.17.46.34.7.49l.37.23.66.39.18.1v11h-.16l-.38-.07a5.25,5.25,0,0,1-.55-.09h-1.82l-.52.09-.42.08H180v-14l.07.07c.23.25.47.48.71.71l.13.13C181.24,149.86,181.54,150.08,181.85,150.32Zm6.1,19.13H176.11a6,6,0,0,1,6.92-4.92,5.76,5.76,0,0,1,1.36.4l.21.09A6,6,0,0,1,188,169.45Zm-2.5-19.25-.85-.44A13,13,0,0,1,178,138.45v-8h26v8a13,13,0,0,1-18.57,11.75ZM202,148.65v14h-.16l-.38-.07a5.25,5.25,0,0,1-.55-.09h-1.82l-.52.09-.42.08H198v-11l.18-.1.64-.37.39-.24c.23-.15.46-.31.68-.48l.29-.21a11.1,11.1,0,0,0,.91-.76l.15-.14c.24-.22.47-.45.7-.69Zm3.91,20.8H194.11a6,6,0,0,1,6.92-4.92,5.76,5.76,0,0,1,1.36.4l.21.09A5.92,5.92,0,0,1,205.94,169.45ZM214,150.52a6.63,6.63,0,0,0-1-.07h0a6.8,6.8,0,0,0-.9.06H212V139.45h2Zm4,6.93a5,5,0,0,1-2,4v-4a3,3,0,0,0-2.81-3,2.91,2.91,0,0,0-2.18.8,3.26,3.26,0,0,0-1,2.32v3.88a5,5,0,0,1-1-7,5.07,5.07,0,0,1,2.24-1.69h.11a4.47,4.47,0,0,1,1.61-.31,4.79,4.79,0,0,1,1.72.29h0A5,5,0,0,1,218,157.45Zm-2.5-20H206v-7h9.5a3.5,3.5,0,1,1,0,7Z" transform="translate(-2.68 -3.58)"/></g></g><g id="eaf4095c-e782-4b56-9e6b-5b1ab6eff684" data-name="Child"><g id="ad797c05-e0d4-416c-b2db-2f811044da23" data-name="Слой_1"><path d="M136.85,105.42a5.06,5.06,0,0,1-2.12,8.42v4.89l-2.91-.66v-4.23a5.06,5.06,0,1,1,5-8.42Zm8.51,28.7a2.56,2.56,0,0,0,1.5-1.93,6,6,0,0,0-2.69-6.17,2.73,2.73,0,0,0-2.39-.28l-.37.15a17.16,17.16,0,0,1,4,8.23Zm-6.23-10.42,1.52-.64a5.59,5.59,0,0,1,4.94.41,8.87,8.87,0,0,1,4.1,9.39c-.64,2.66-2,3.43-4.06,4.32a8.06,8.06,0,0,1-5.59,7.61,11.8,11.8,0,0,1,2.21,2.36c.77,0,1.63,0,2.41,0a4.92,4.92,0,0,1,3.9,2.09,7.52,7.52,0,0,1,1.43,4.5,1.46,1.46,0,0,1-2.92,0,4.53,4.53,0,0,0-.84-2.74,2.06,2.06,0,0,0-1.57-.93h-.92a11.62,11.62,0,0,1,.61,3.7,17.11,17.11,0,0,1-5,12.12,18.36,18.36,0,0,1-25.35,0,17.11,17.11,0,0,1-5-12.12,11.4,11.4,0,0,1,.62-3.7h-1A2.06,2.06,0,0,0,107,151a4.53,4.53,0,0,0-.84,2.74,1.46,1.46,0,0,1-2.92,0,7.46,7.46,0,0,1,1.44-4.5,4.89,4.89,0,0,1,3.9-2.09H111a11.56,11.56,0,0,1,2.22-2.36,8,8,0,0,1-5.59-7.61c-2.07-.89-3.43-1.66-4.06-4.32a8.84,8.84,0,0,1,4.1-9.39,5.58,5.58,0,0,1,4.94-.41l1.51.64a17.13,17.13,0,0,1,10.73-3.78h3.53a17.13,17.13,0,0,1,10.73,3.78Zm-27.27,2.19-.36-.15a2.75,2.75,0,0,0-2.4.28,6,6,0,0,0-2.69,6.17,2.55,2.55,0,0,0,1.51,1.93,17.14,17.14,0,0,1,3.94-8.23Zm16.54-3h-3.53a14.36,14.36,0,0,0-14.3,14.31,5.12,5.12,0,0,0,5.1,5.1H137.6a5.12,5.12,0,0,0,5.11-5.1,14.36,14.36,0,0,0-14.31-14.31Zm8.45,7.24a5.06,5.06,0,1,1-7.15,0,5.08,5.08,0,0,1,7.15,0Zm-2.06,2.07a2.14,2.14,0,1,0,0,3A2.15,2.15,0,0,0,134.79,132.15Zm-11.21-2.05a5.06,5.06,0,1,1-7.16,0A5.08,5.08,0,0,1,123.58,130.1Zm-2.07,2.06a2.14,2.14,0,1,0,0,3A2.14,2.14,0,0,0,121.51,132.16Zm11.34,13H120.43a8.64,8.64,0,0,0-8.59,8.59A14.24,14.24,0,0,0,116,163.82a15.46,15.46,0,0,0,21.22,0,14.23,14.23,0,0,0,4.18-10.06,8.62,8.62,0,0,0-8.58-8.59Zm-11.39-31.33v4.23l-2.92.66v-4.89a5.06,5.06,0,1,1,2.92,0Zm.05-6.36a2.14,2.14,0,1,0,0,3A2.14,2.14,0,0,0,121.51,107.48Zm13.28,0a2.14,2.14,0,1,0,0,3A2.15,2.15,0,0,0,134.79,107.48Z" transform="translate(-2.68 -3.58)"/></g></g><g id="bd514264-f157-49d2-a5e2-6fa7c5afb396" data-name="Parent"><g id="f50df401-e01c-49b5-8dc3-52db3eb73e63" data-name="Слой 1"><path d="M55.31,163.23h-3.8a1.41,1.41,0,0,0,0,2.82h3.8a1.41,1.41,0,0,0,0-2.82Z" transform="translate(-2.68 -3.58)"/><path d="M63.62,163.23h-3.8a1.41,1.41,0,0,0,0,2.82h3.8a1.41,1.41,0,1,0,0-2.82Z" transform="translate(-2.68 -3.58)"/><path d="M55.31,158.65h-3.8a1.41,1.41,0,1,0,0,2.82h3.8a1.41,1.41,0,1,0,0-2.82Z" transform="translate(-2.68 -3.58)"/><path d="M63.62,158.65h-3.8a1.41,1.41,0,0,0,0,2.82h3.8a1.41,1.41,0,1,0,0-2.82Z" transform="translate(-2.68 -3.58)"/><path d="M4.44,121.8c-1.76,3-1.26,5.92,1.7,9a1.38,1.38,0,0,0,1,.42,1.4,1.4,0,0,0,1-.42,1.43,1.43,0,0,0,.07-2c-2.33-2.4-2.54-4-.78-6.34l5.71.07c1.55,2.39,1.27,4-1,6.2a1.37,1.37,0,1,0,1.91,2c2.88-2.82,3.52-5.64,2-8.74a3.78,3.78,0,0,0,2-3.31,4.11,4.11,0,0,0-1.06-2.82,3.63,3.63,0,0,0-2.18-1.12c.92-15.29,4.44-21.21,7.33-23.46v.07c0,3.31,2.18,6,4.86,6.27v11.69a68.36,68.36,0,0,0,6.27,29.45c3,6.13,6.48,10.71,10.43,13.6v8.31c.56,5.64,6.06,11.7,13.88,11.7,7.6,0,13.59-6.2,13.87-11.84v-8.24c5.22-3.74,9.45-10.29,12.4-19.52a73.13,73.13,0,0,0,3.32-23L87,98.34V97.5c2.67-.36,4.72-3,4.72-6.27V90c8.31-1.34,16.69-9.23,17.12-27.69A3.91,3.91,0,0,0,112,58.54,4,4,0,0,0,111,55.79a4.59,4.59,0,0,0-.63-.5c1.76-3,1.19-5.84-1.7-8.87a1.35,1.35,0,0,0-2,0,1.37,1.37,0,0,0,0,2c2.33,2.33,2.54,4,.78,6.2l-5.78-.07c-1.55-2.33-1.27-4,1-6.06a1.4,1.4,0,1,0-1.91-2c-2.89,2.75-3.59,5.56-2,8.59a3.77,3.77,0,0,0-2,3.24,3.84,3.84,0,0,0,1,2.75,3.64,3.64,0,0,0,2.19,1.13c-.78,14.44-5,17.05-8.31,18.25a8.2,8.2,0,0,0-8-6.35H78.84A24.62,24.62,0,0,0,68.77,69.1,36.1,36.1,0,0,0,65,68.4v-.21H77.29c10.29,0,18.6-9.37,18.6-20.93,0-10.14-6.48-18.67-15.07-20.5a6.61,6.61,0,0,0-5.43-4.86V12.6a4.69,4.69,0,0,0,3.24-4.37,4.65,4.65,0,1,0-9.3,0,4.54,4.54,0,0,0,3.24,4.37v9.58a6.66,6.66,0,0,0-5.28,4.44H46.86a6.45,6.45,0,0,0-5.29-4.44V12.6a4.69,4.69,0,0,0,3.24-4.37,4.65,4.65,0,0,0-9.3,0,4.54,4.54,0,0,0,3.24,4.37v9.58A6.59,6.59,0,0,0,33.33,27C24.73,29,18.25,37.4,18.25,47.54c0,11.56,8.39,20.93,18.67,20.93H48.41v.28a18.17,18.17,0,0,0-3,.63,24.46,24.46,0,0,0-9.65,4.94H30.37a8.13,8.13,0,0,0-8.1,6.76C12.76,83.19,6.7,95.59,5.85,114.76a4,4,0,0,0-3.17,3.73,4.15,4.15,0,0,0,1.06,2.82A2.51,2.51,0,0,0,4.44,121.8ZM99.77,59.31a1,1,0,0,1-.28-.77,1,1,0,0,1,1.05-1h0l7.61.07a1.17,1.17,0,0,1,.78.35,1,1,0,0,1,.28.78,1,1,0,0,1-1.06,1h0l-7.61-.07A1.55,1.55,0,0,1,99.77,59.31Zm-8,24.24c4.86-1.62,10.07-4.87,10.92-21.07H106c-.43,16.28-7.33,23.39-14.3,24.73V83.55ZM57.57,169.64c-6,0-10.5-4.72-11-9.09v-6.41a15.34,15.34,0,0,0,7,1.69H61a18,18,0,0,0,7.68-1.76v6.48C68.42,164.64,63.48,169.64,57.57,169.64Zm26-92.51A5.28,5.28,0,0,1,89,82.21v9.16c0,1.62-.92,3.1-2,3.38-.56-8.32-2.67-13.88-5.56-17.62ZM72.22,8.23a1.83,1.83,0,1,1,1.83,1.83A1.87,1.87,0,0,1,72.22,8.23Zm1.83,16.63a4.33,4.33,0,0,1,3.67,1.76H70.46A4.34,4.34,0,0,1,74.05,24.86ZM38.33,8.23a1.84,1.84,0,1,1,1.83,1.83A1.82,1.82,0,0,1,38.33,8.23Zm1.83,16.63a4.2,4.2,0,0,1,3.6,1.76H36.5A4.48,4.48,0,0,1,40.16,24.86ZM36.85,65.65c-8.73,0-15.78-8.1-15.78-18.11s7.12-18.1,15.78-18.1H77.29c8.74,0,15.78,8.1,15.78,18.1S86,65.65,77.29,65.65Zm25.3,2.82V70.3c0,1.83-2.47,3.45-5.43,3.45s-5.49-1.62-5.49-3.45V68.47Zm-16,3.66a24.23,24.23,0,0,1,2.4-.49c.77,2.89,4.08,5,8.1,5s7.4-2.11,8.1-5.07a17.94,17.94,0,0,1,3.17.63C76.24,74.39,84,79.11,84.27,98.62L84.34,110a70.16,70.16,0,0,1-3.17,22.12c-2.54,7.89-8.53,21-20.22,21H53.48c-8.88,0-14.87-9.65-17.61-15.43a65.81,65.81,0,0,1-6-28.18V99C29.81,78.9,39.11,74,46.15,72.13ZM25,82.28a5.22,5.22,0,0,1,5.42-5.07h2.68c-3.45,4.29-5.43,10.14-5.92,17.68A3.38,3.38,0,0,1,25,91.44ZM22.13,84v4C17.83,90.17,13,96.65,12,114.76H8.74C9.45,97.78,14.52,86.43,22.13,84ZM6.56,117.5h0l7.61.07a1.14,1.14,0,0,1,.77.36,1.05,1.05,0,0,1,.28.77,1,1,0,0,1-1.05,1h0l-7.61-.07a1.5,1.5,0,0,1-.78-.28,1.09,1.09,0,0,1-.28-.78A1.14,1.14,0,0,1,6.56,117.5Z" transform="translate(-2.68 -3.58)"/><path d="M48.69,119.62H65.81c5.92,0,10.71-6.06,10.71-13.46S71.73,92.7,65.81,92.7H48.69C42.77,92.7,38,98.76,38,106.16S42.77,119.62,48.69,119.62Zm0-24.1H65.81c4.3,0,7.82,4.79,7.82,10.64s-3.52,10.64-7.82,10.64H48.69c-4.3,0-7.82-4.79-7.82-10.64S44.32,95.52,48.69,95.52Z" transform="translate(-2.68 -3.58)"/><path d="M40.3,40.71a5.22,5.22,0,1,0,5.22,5.21A5.21,5.21,0,0,0,40.3,40.71Zm0,7.54a2.4,2.4,0,1,1,2.4-2.4A2.38,2.38,0,0,1,40.3,48.25Z" transform="translate(-2.68 -3.58)"/><path d="M74.33,40.71a5.22,5.22,0,1,0,5.22,5.21A5.3,5.3,0,0,0,74.33,40.71Zm0,7.54a2.4,2.4,0,1,1,2.4-2.4A2.47,2.47,0,0,1,74.33,48.25Z" transform="translate(-2.68 -3.58)"/><path d="M63,49.38H51.65a1.41,1.41,0,0,0-1.41,1.41c0,3.45,3.17,6.27,7.11,6.27s7.12-2.82,7.12-6.27A1.52,1.52,0,0,0,63,49.38Zm-5.71,4.86a4.3,4.3,0,0,1-3.87-2.05h7.82A4.53,4.53,0,0,1,57.28,54.24Z" transform="translate(-2.68 -3.58)"/><path d="M89,47.54c0-8.8-3.67-13.66-10.22-13.66H35.44c-5.91,0-10.21,5.77-10.21,13.66,0,8.18,4.08,13.67,10.21,13.67H78.7C85.32,61.28,89,56.42,89,47.54Zm-60.94,0c0-5.42,2.53-10.85,7.39-10.85H78.7c4.93,0,7.4,3.67,7.4,10.85s-2.47,10.85-7.4,10.85H35.44C30,58.46,28.05,52.55,28.05,47.54Z" transform="translate(-2.68 -3.58)"/></g></g><g id="a9fdb97a-08a9-435e-987c-9eef7b33e67c" data-name="Heart"><path d="M57.57,113.6l-.38-.25c-.32-.21-7.84-5.17-7.84-9.65a4.53,4.53,0,0,1,4.5-4.85,4.83,4.83,0,0,1,3.72,1.82,4.79,4.79,0,0,1,3.71-1.82,4.53,4.53,0,0,1,4.5,4.85c0,4.48-7.51,9.44-7.83,9.65Z" transform="translate(-2.68 -3.58)" style="fill:#02c9fb"/></g><g id="ba8c3b2f-c4cd-4b15-bb14-e4553583eeee" data-name="Phrase"><g id="a7c40f39-3c3a-4e9b-b1df-fe6889623b10" data-name="Text"><rect x="124.25" y="23.12" width="152.2" height="78.1" style="fill:none"/><text transform="translate(124.25 32.6)" style="isolation:isolate;font-size:11.996100425720215px;font-family:Impact">A BOUTIQUE PRODUC<tspan x="96.02" y="0" style="letter-spacing:-0.06693021144883572em">T</tspan><tspan x="100.74" y="0">-CENTRIC </tspan></text><text transform="translate(124.25 47)" style="isolation:isolate;font-size:11.996100425720215px;font-family:Impact">BUSINESS FOCUSED ON </text><text transform="translate(124.25 61.4)" style="isolation:isolate;font-size:11.996100425720215px;font-family:Impact">DELIVERING MORE <tspan x="84.75" y="0" style="letter-spacing:-0.01318260699660959em">V</tspan><tspan x="90.87" y="0">ALUE TO </tspan></text><text transform="translate(124.25 75.8)" style="isolation:isolate;font-size:11.996100425720215px;font-family:Impact">CUSTOMERS THAN COLLECTING </text><text transform="translate(124.25 90.2)" style="isolation:isolate;font-size:11.996100425720215px;font-family:Impact">IN REVENUE.</text></g><g id="a13e29cc-84e3-4686-91da-88246e2fdab0" data-name="Dots"><circle cx="97" cy="27.35" r="1.94"/><circle cx="104" cy="27.35" r="1.94"/><circle cx="111.23" cy="27.35" r="1.94"/><circle cx="117.85" cy="27.35" r="1.94"/></g></g></svg>