<svg id="a025157c-a076-4475-84d5-e462f56558fc" data-name="Family" xmlns="http://www.w3.org/2000/svg" viewBox="0 0 280.57 169.15"><title>robot-home-page</title><g id="a5fc1ba9-fc66-4846-81a8-1454bc39bcfa" data-name="Child"><g id="e5a04a60-f31d-4e82-9ea6-4edbd6ac36c4" data-name="Bot 33"><path d="M258.9,123.5a7,7,0,1,0-7,7A7,7,0,0,0,258.9,123.5Zm-7,5a5,5,0,1,1,5-5A5,5,0,0,1,251.9,128.5Z" transform="translate(-2.58 -3.38)" style="stroke:#000;stroke-miterlimit:10;stroke-width:0.5px"/><path d="M266.9,128.5a5,5,0,1,0-5-5A5,5,0,0,0,266.9,128.5Zm0-8a3,3,0,1,1-3,3A3,3,0,0,1,266.9,120.5Z" transform="translate(-2.58 -3.38)" style="stroke:#000;stroke-miterlimit:10;stroke-width:0.5px"/><path d="M251.2,122.8a1,1,0,1,0,1.4,0A1,1,0,0,0,251.2,122.8Z" transform="translate(-2.58 -3.38)" style="stroke:#000;stroke-miterlimit:10;stroke-width:0.5px"/><path d="M236.5,141.3a1.09,1.09,0,0,1-1.4-.2l-2.8-2.8a2.21,2.21,0,0,0-2.1-.5,2,2,0,0,0-1.3,1.6,6.92,6.92,0,0,0,5.9,7.9c.3,0,.7.1,1,.1a10,10,0,0,0,2.4-.4l5,3a2.93,2.93,0,0,0,1.6.4,2.82,2.82,0,0,0,1.5-.4l1.5-.9a10.91,10.91,0,0,0,2.8,6.6,10,10,0,0,0,1.2,12.7h0a10,10,0,0,0,14.1,0h0a10,10,0,0,0,1.2-12.7,10.91,10.91,0,0,0,2.8-7.3v-11a5.39,5.39,0,0,0-1-3h1.5a6.52,6.52,0,0,0,6.3-5h.2a6,6,0,0,0,0-12h0a6.53,6.53,0,0,0-6.5-6h-23a6.53,6.53,0,0,0-6.5,6h0a6,6,0,0,0,0,12h.2a6.52,6.52,0,0,0,6.3,5h1.5a5.39,5.39,0,0,0-1,3v4.8l-3,1.7-2.3-1.4a7.09,7.09,0,0,0-4.6-8.8,6.54,6.54,0,0,0-3.1-.2,2,2,0,0,0-1.1,3.4l2.8,2.8a1.12,1.12,0,0,1-.1,1.6C236.6,141.2,236.6,141.3,236.5,141.3Zm26.3,17.5.4-.1.6-.3.3-.2a2.09,2.09,0,0,0,.6-.4l.2-.1c.3-.2.5-.4.8-.6a9.33,9.33,0,0,1,1.2,3.3H265a1,1,0,0,0,0,2h1.9a7.92,7.92,0,0,1-1.6,3.9l-1.4-1.4a1,1,0,0,0-1.4.1,1.05,1.05,0,0,0,0,1.3l1.4,1.4a7.92,7.92,0,0,1-3.9,1.6v-1.9a1,1,0,1,0-2,0v1.9a7.92,7.92,0,0,1-3.9-1.6l1.4-1.4a1,1,0,0,0-.1-1.4,1.05,1.05,0,0,0-1.3,0l-1.4,1.4a7.92,7.92,0,0,1-1.6-3.9H253a1,1,0,0,0,0-2h-2a7.74,7.74,0,0,1,1.2-3.3,5.55,5.55,0,0,0,.8.6l.2.1a4.35,4.35,0,0,0,.7.4l.3.1.6.3.4.1.6.2.2.1a4.44,4.44,0,0,0-.9,2.4,4,4,0,1,0,8,0,3.41,3.41,0,0,0-.9-2.4l.2-.1Zm-1.9,2.7a2,2,0,1,1-2-2A2,2,0,0,1,260.9,161.5Zm20-38a4,4,0,0,1-4,4v-8A4,4,0,0,1,280.9,123.5Zm-44,0a4,4,0,0,1,4-4v8A4,4,0,0,1,236.9,123.5Zm6,4.5V118a4.48,4.48,0,0,1,4.5-4.5h23a4.48,4.48,0,0,1,4.5,4.5v10a4.48,4.48,0,0,1-4.5,4.5h-23A4.48,4.48,0,0,1,242.9,128Zm7,9.5a3,3,0,0,1,3-3h12a3,3,0,0,1,3,3v11a9,9,0,0,1-9,9H258a8.94,8.94,0,0,1-8.1-9v-.4l10.5-6a3,3,0,0,0-3-5.2l-7.5,4.3Zm-4,8.3,3.4-2h0l9-5.1a1,1,0,0,1,1,1.8l-5.2,3-5.7,3.3h0l-3,1.7a.91.91,0,0,1-1,0l-4.1-2.4a1.21,1.21,0,0,0,.5-.5,3.92,3.92,0,0,0,.8-1h0l2.2,1.3A3,3,0,0,0,245.9,145.8Zm-7.8-7.4-2.9-2.8a5.05,5.05,0,0,1,5.7,4.2,5.48,5.48,0,0,1-.4,2.8h0a5.23,5.23,0,0,1-2.4,2.4,5,5,0,0,1-6.6-2.5,5.11,5.11,0,0,1-.4-2.7l2.8,2.8a3.07,3.07,0,0,0,4.1.3,3,3,0,0,0,.5-4.2c-.2-.2-.3-.3-.4-.3Z" transform="translate(-2.58 -3.38)" style="stroke:#000;stroke-miterlimit:10;stroke-width:0.5px"/></g></g><g id="e5b57762-1450-45d1-86e0-b629d152a91d" data-name="Child"><g id="f76bbf36-3d2b-4eb7-8f40-a0b25d9e52a0" data-name="Bot 33"><path d="M117,117.8a5,5,0,1,0-5,5A5,5,0,0,0,117,117.8Zm-8,0a3,3,0,1,1,3,3A3,3,0,0,1,109,117.8Z" transform="translate(-2.58 -3.38)" style="stroke:#000;stroke-miterlimit:10;stroke-width:0.5px"/><path d="M136,122.8a5,5,0,1,0-5-5A5,5,0,0,0,136,122.8Zm0-8a3,3,0,1,1-3,3A3,3,0,0,1,136,114.8Z" transform="translate(-2.58 -3.38)" style="stroke:#000;stroke-miterlimit:10;stroke-width:0.5px"/><path d="M148.5,125.8h-1.7a3.55,3.55,0,0,0,.2-1v-13a3,3,0,0,0-3-3H104a3,3,0,0,0-3,3v13a3.55,3.55,0,0,0,.2,1H99.5a5.51,5.51,0,1,0-.6,11v11.7a7,7,0,0,0-3.3,9.3,7.55,7.55,0,0,0,2.1,2.6,2.1,2.1,0,0,0,1.1.4,2.92,2.92,0,0,0,.9-.2,1.89,1.89,0,0,0,1.1-1.8v-4a.89.89,0,0,1,.5-.8c.1-.1.3-.1.5-.2a.91.91,0,0,1,.7.3,1.27,1.27,0,0,1,.4.9v3.9a1.89,1.89,0,0,0,1.1,1.8,1.84,1.84,0,0,0,2-.2,7,7,0,0,0,1.5-9.8,7.84,7.84,0,0,0-2.6-2.2V136.8h4a15,15,0,0,0,2,6.5v17.6a7.85,7.85,0,0,0-3.9,5.6,2.15,2.15,0,0,0,.4,1.6,1.8,1.8,0,0,0,1.5.7h11.8a2,2,0,0,0,1.5-.7,2.2,2.2,0,0,0,.5-1.6,7.85,7.85,0,0,0-3.9-5.6V150a15.56,15.56,0,0,0,10,0v10.9a7.85,7.85,0,0,0-3.9,5.6,2.15,2.15,0,0,0,.4,1.6,1.8,1.8,0,0,0,1.5.7h11.8a2,2,0,0,0,1.5-.7,2.2,2.2,0,0,0,.5-1.6,7.85,7.85,0,0,0-3.9-5.6V143.3a15,15,0,0,0,2-6.5h4v11.7a7,7,0,0,0-3.3,9.3,7.55,7.55,0,0,0,2.1,2.6,2.06,2.06,0,0,0,2,.2,1.89,1.89,0,0,0,1.1-1.8v-3.9a1.22,1.22,0,0,1,.4-.9.91.91,0,0,1,.7-.3c.2,0,.3.1.5.1a1,1,0,0,1,.5.8v4a1.89,1.89,0,0,0,1.1,1.8,2.92,2.92,0,0,0,.9.2,1.92,1.92,0,0,0,1.2-.4,7,7,0,0,0,1.4-9.8,7.55,7.55,0,0,0-2.6-2.1V136.6a5.43,5.43,0,0,0,5.2-5.8A5,5,0,0,0,148.5,125.8Zm-45.5-1v-13a.94.94,0,0,1,1-1h40a.94.94,0,0,1,1,1v13a.94.94,0,0,1-1,1H104A1,1,0,0,1,103,124.8Zm4,30a4.79,4.79,0,0,1-2,4v-3.9a3.26,3.26,0,0,0-1-2.3,2.65,2.65,0,0,0-2.2-.8,3,3,0,0,0-2.8,3v4a5,5,0,0,1-1-7,4.81,4.81,0,0,1,2.3-1.7h.1a1.09,1.09,0,0,1,.5-.1l.3-.1c.3,0,.6-.1.9-.1a4.15,4.15,0,0,1,1.6.3h.1A5.22,5.22,0,0,1,107,154.8Zm-4-6.9c-.3,0-.6-.1-.9-.1h0a2.77,2.77,0,0,0-.9.1H101V136.8h2Zm-3.5-13.1a3.5,3.5,0,0,1,0-7H109v7Zm15.4,12.9.3.2c.2.2.5.3.7.5l.4.2.7.4.2.1v11H117l-.4-.1c-.2,0-.4-.1-.6-.1h-1.8l-.5.1-.4.1H113v-14l.1.1.7.7.1.1A3.59,3.59,0,0,0,114.9,147.7Zm6.1,19.1H109.2a5.87,5.87,0,0,1,6.9-4.9,7.37,7.37,0,0,1,1.4.4l.2.1A6.46,6.46,0,0,1,121,166.8Zm-2.5-19.2a5.94,5.94,0,0,1-.8-.4,12.91,12.91,0,0,1-6.6-11.3v-8h26v8a13,13,0,0,1-13,13,13.16,13.16,0,0,1-5.6-1.3ZM135,146v14h-.2l-.4-.1c-.2,0-.4-.1-.6-.1h-1.9l-.5.1-.4.1h0V149l.2-.1.6-.4.4-.2a3,3,0,0,0,.7-.5l.3-.2a6.47,6.47,0,0,0,.9-.8l.2-.1.7-.7Zm3.9,20.8H127.1a5.87,5.87,0,0,1,6.9-4.9,7.37,7.37,0,0,1,1.4.4l.2.1A5.94,5.94,0,0,1,138.9,166.8Zm8.1-18.9c-.3,0-.7-.1-1-.1h0a2.77,2.77,0,0,0-.9.1H145V136.8h2Zm4,6.9a4.79,4.79,0,0,1-2,4v-4a3,3,0,0,0-2.8-3,3,3,0,0,0-2.2.8,3.26,3.26,0,0,0-1,2.3v3.9a5,5,0,0,1-1-7,4.56,4.56,0,0,1,2.2-1.7h.1a4.53,4.53,0,0,1,1.6-.3,4.67,4.67,0,0,1,1.7.3h0A5,5,0,0,1,151,154.8Zm-2.5-20H139v-7h9.5a3.54,3.54,0,0,1,3.5,3.5A3.48,3.48,0,0,1,148.5,134.8Z" transform="translate(-2.58 -3.38)" style="stroke:#000;stroke-miterlimit:10;stroke-width:0.5px"/></g></g><g id="e00696b3-3168-459a-b248-f635eb3eac46" data-name="Child"><g id="e930f6b0-1abb-4422-8927-6ec65d6019a2" data-name="Слой_1"><path d="M202.8,106.5a5.07,5.07,0,0,1,0,7.2,5.71,5.71,0,0,1-2.1,1.3v4.9l-2.9-.7V115a4.65,4.65,0,0,1-2.1-1.3,5.07,5.07,0,0,1,0-7.2A5.13,5.13,0,0,1,202.8,106.5Zm8.5,28.7a2.65,2.65,0,0,0,1.5-1.9,6.17,6.17,0,0,0-2.7-6.2,2.63,2.63,0,0,0-2.4-.3l-.4.2a17.54,17.54,0,0,1,4,8.2ZM205,124.8l1.5-.6a5.33,5.33,0,0,1,4.9.4,9,9,0,0,1,4.1,9.4c-.6,2.7-2,3.4-4.1,4.3a8,8,0,0,1-5.6,7.6,12.56,12.56,0,0,1,2.2,2.4h2.4a5,5,0,0,1,3.9,2.1,7.53,7.53,0,0,1,1.4,4.5,1.45,1.45,0,0,1-2.9,0,4.34,4.34,0,0,0-.8-2.7,1.92,1.92,0,0,0-1.6-.9h-.9a11.48,11.48,0,0,1,.6,3.7,17.08,17.08,0,0,1-5,12.1c-6.8,6.8-18.6,6.8-25.3,0a17.08,17.08,0,0,1-5-12.1,11.48,11.48,0,0,1,.6-3.7h-1a2.4,2.4,0,0,0-1.6.9,4.78,4.78,0,0,0-.8,2.7,1.45,1.45,0,0,1-2.9,0,7.53,7.53,0,0,1,1.4-4.5,5,5,0,0,1,3.9-2.1h2.5a12.56,12.56,0,0,1,2.2-2.4,8,8,0,0,1-5.6-7.6c-2.1-.9-3.4-1.7-4.1-4.3a9,9,0,0,1,4.1-9.4,5.35,5.35,0,0,1,4.9-.4l1.5.6a16.83,16.83,0,0,1,10.7-3.8h3.5a16.78,16.78,0,0,1,10.9,3.8ZM177.8,127l-.4-.2a2.63,2.63,0,0,0-2.4.3,6,6,0,0,0-2.7,6.2,2.47,2.47,0,0,0,1.5,1.9,17.54,17.54,0,0,1,4-8.2Zm16.5-3.1h-3.5a14.34,14.34,0,0,0-14.3,14.3,5.12,5.12,0,0,0,5.1,5.1h21.9a5.12,5.12,0,0,0,5.1-5.1,14.29,14.29,0,0,0-4.2-10.1,14.73,14.73,0,0,0-10.1-4.2Zm8.5,7.3a5.09,5.09,0,1,1-7.2,0,5.07,5.07,0,0,1,7.2,0Zm-2.1,2a2.12,2.12,0,1,0,0,3A2.17,2.17,0,0,0,200.7,133.2Zm-11.2-2a5.09,5.09,0,1,1-7.2,0A5.07,5.07,0,0,1,189.5,131.2Zm-2.1,2.1a2.12,2.12,0,1,0,0,3A2.18,2.18,0,0,0,187.4,133.3Zm11.3,13H186.3a8.88,8.88,0,0,0-6.1,2.5,8.45,8.45,0,0,0-2.5,6.1,14.29,14.29,0,0,0,4.2,10.1,15.48,15.48,0,0,0,21.2,0,14.12,14.12,0,0,0,4.2-10.1,8.88,8.88,0,0,0-2.5-6.1,8.29,8.29,0,0,0-6.1-2.5Zm-11.3-31.4v4.2l-2.9.7v-4.9a4.65,4.65,0,0,1-2.1-1.3,5.09,5.09,0,1,1,7.2,0A4.6,4.6,0,0,1,187.4,114.9Zm0-6.3a2.12,2.12,0,1,0,0,3A2.18,2.18,0,0,0,187.4,108.6Zm13.3,0a2.12,2.12,0,1,0,0,3A2.17,2.17,0,0,0,200.7,108.6Z" transform="translate(-2.58 -3.38)"/></g></g><g id="ecf70ab7-6520-412a-b11b-f7778c680bd5" data-name="Parent"><g id="aa99a5b8-09b1-45c3-b743-7247ab4ebb12" data-name="Слой 1"><path d="M55.3,163.2H51.5a1.4,1.4,0,1,0,0,2.8h3.8a1.37,1.37,0,0,0,1.4-1.4A1.43,1.43,0,0,0,55.3,163.2Z" transform="translate(-2.58 -3.38)" style="stroke:#000;stroke-miterlimit:10;stroke-width:0.25px"/><path d="M63.6,163.2H59.8a1.4,1.4,0,1,0,0,2.8h3.8a1.37,1.37,0,0,0,1.4-1.4A1.43,1.43,0,0,0,63.6,163.2Z" transform="translate(-2.58 -3.38)" style="stroke:#000;stroke-miterlimit:10;stroke-width:0.25px"/><path d="M55.3,158.6H51.5a1.4,1.4,0,1,0,0,2.8h3.8a1.37,1.37,0,0,0,1.4-1.4A1.43,1.43,0,0,0,55.3,158.6Z" transform="translate(-2.58 -3.38)" style="stroke:#000;stroke-miterlimit:10;stroke-width:0.25px"/><path d="M63.6,158.6H59.8a1.4,1.4,0,1,0,0,2.8h3.8A1.37,1.37,0,0,0,65,160,1.43,1.43,0,0,0,63.6,158.6Z" transform="translate(-2.58 -3.38)" style="stroke:#000;stroke-miterlimit:10;stroke-width:0.25px"/><path d="M4.4,121.8c-1.8,3-1.3,5.9,1.7,8.9a1.28,1.28,0,0,0,1,.4,1.28,1.28,0,0,0,1-.4,1.42,1.42,0,0,0,.1-2c-2.3-2.4-2.5-4-.8-6.3l5.7.1c1.5,2.4,1.3,4-1,6.2a1.42,1.42,0,0,0-.1,2,1.28,1.28,0,0,0,1,.4,1.28,1.28,0,0,0,1-.4c2.9-2.8,3.5-5.6,2-8.7a3.79,3.79,0,0,0,2-3.3,4.11,4.11,0,0,0-1.1-2.8,3.58,3.58,0,0,0-2.2-1.1c.9-15.3,4.4-21.2,7.3-23.5v.1c0,3.3,2.2,6,4.9,6.3v11.7a67.87,67.87,0,0,0,6.3,29.4c3,6.1,6.5,10.7,10.4,13.6v8.3c.6,5.6,6.1,11.7,13.9,11.7,7.6,0,13.6-6.2,13.9-11.8v-8.2c5.2-3.7,9.4-10.3,12.4-19.5a71.11,71.11,0,0,0,3.3-23L87,98.3v-.8c2.7-.4,4.7-3,4.7-6.3V90c8.3-1.3,16.7-9.2,17.1-27.7a3.94,3.94,0,0,0,3.2-3.7,3.69,3.69,0,0,0-1.1-2.7,2.65,2.65,0,0,0-.6-.5c1.8-3,1.2-5.8-1.7-8.9a1.41,1.41,0,0,0-2,2c2.3,2.3,2.5,3.9.8,6.2l-5.8-.1c-1.5-2.3-1.3-3.9,1-6.1a1.42,1.42,0,1,0-1.9-2.1c-2.9,2.7-3.6,5.6-2,8.6a3.75,3.75,0,0,0-2,3.2,3.69,3.69,0,0,0,1.1,2.7A3.58,3.58,0,0,0,100,62c-.8,14.4-5,17-8.3,18.2a8.17,8.17,0,0,0-8-6.3H78.8A24.35,24.35,0,0,0,68.7,69a30.62,30.62,0,0,0-3.7-.7v-.2H77.3c10.3,0,18.6-9.4,18.6-20.9,0-10.1-6.5-18.7-15.1-20.5a6.68,6.68,0,0,0-5.4-4.9V12.5a4.6,4.6,0,1,0-2.8,0v9.6a6.92,6.92,0,0,0-5.3,4.4H46.9a6.28,6.28,0,0,0-5.3-4.4V12.5a4.6,4.6,0,1,0-2.8,0v9.6A6.54,6.54,0,0,0,33.4,27c-8.6,1.9-15.1,10.4-15.1,20.5,0,11.6,8.4,20.9,18.7,20.9H48.5v.3a26.53,26.53,0,0,0-3,.6,26.89,26.89,0,0,0-9.7,4.9H30.4A8.19,8.19,0,0,0,22.3,81C12.8,83.1,6.7,95.5,5.9,114.7a4,4,0,0,0-3.2,3.7,4.11,4.11,0,0,0,1.1,2.8A1.7,1.7,0,0,0,4.4,121.8ZM99.8,59.3a1,1,0,0,1-.3-.8,1,1,0,0,1,1.1-1h0l7.6.1a.91.91,0,0,1,.8.4,1,1,0,0,1,.3.8,1,1,0,0,1-1.1,1h0l-7.6-.1A2,2,0,0,1,99.8,59.3Zm-8,24.2c4.9-1.6,10.1-4.9,10.9-21.1H106c-.4,16.3-7.3,23.4-14.3,24.7l.1-3.6ZM57.6,169.6c-6,0-10.5-4.7-11-9.1v-6.4a16,16,0,0,0,7,1.7h7.5a17.08,17.08,0,0,0,7.7-1.8v6.5C68.4,164.6,63.5,169.6,57.6,169.6Zm26-92.5A5.26,5.26,0,0,1,89,82.2v9.1c0,1.6-.9,3.1-2,3.4-.6-8.3-2.7-13.9-5.6-17.6ZM72.2,8.2A1.8,1.8,0,1,1,74,10,1.79,1.79,0,0,1,72.2,8.2Zm1.9,16.7a4.33,4.33,0,0,1,3.7,1.8H70.5A4,4,0,0,1,74.1,24.9ZM38.3,8.2a1.79,1.79,0,0,1,1.8-1.8A1.88,1.88,0,0,1,42,8.2,1.79,1.79,0,0,1,40.2,10,1.76,1.76,0,0,1,38.3,8.2Zm1.9,16.7a4.14,4.14,0,0,1,3.6,1.8H36.5A4.2,4.2,0,0,1,40.2,24.9ZM36.9,65.7c-8.7,0-15.8-8.1-15.8-18.1s7.1-18.1,15.8-18.1H77.3c8.7,0,15.8,8.1,15.8,18.1S86,65.7,77.3,65.7Zm25.2,2.8v1.8c0,1.8-2.5,3.5-5.4,3.5s-5.5-1.6-5.5-3.5V68.5ZM46.2,72.1a17,17,0,0,1,2.4-.5c.8,2.9,4.1,5,8.1,5s7.4-2.1,8.1-5.1a22.94,22.94,0,0,1,3.2.6c8.3,2.2,16.1,6.9,16.3,26.4l.1,11.3a68.3,68.3,0,0,1-3.2,22.1c-2.5,7.9-8.5,21-20.2,21H53.5c-8.9,0-14.9-9.7-17.6-15.4a65.58,65.58,0,0,1-6-28.2V99C29.8,78.9,39.1,74,46.2,72.1ZM24.9,82.3a5.26,5.26,0,0,1,5.4-5.1H33c-3.5,4.3-5.4,10.1-5.9,17.7a3.45,3.45,0,0,1-2.2-3.5ZM22.1,84v4C17.8,90.1,13,96.6,12,114.7H8.7C9.4,97.8,14.5,86.4,22.1,84ZM6.6,117.5h0l7.6.1a.91.91,0,0,1,.8.4,1.14,1.14,0,0,1,.3.8,1,1,0,0,1-1.1,1h0l-7.6-.1a1,1,0,0,1-1.1-1.1A1.18,1.18,0,0,1,6.6,117.5Z" transform="translate(-2.58 -3.38)" style="stroke:#000;stroke-miterlimit:10;stroke-width:0.25px"/><path d="M48.7,119.6H65.8c5.9,0,10.7-6.1,10.7-13.5S71.7,92.6,65.8,92.6H48.7c-5.9,0-10.7,6.1-10.7,13.5S42.8,119.6,48.7,119.6Zm0-24.1H65.8c4.3,0,7.8,4.8,7.8,10.6s-3.5,10.6-7.8,10.6H48.7c-4.3,0-7.8-4.8-7.8-10.6S44.3,95.5,48.7,95.5Z" transform="translate(-2.58 -3.38)" style="stroke:#000;stroke-miterlimit:10;stroke-width:0.25px"/><path d="M40.3,40.7a5.2,5.2,0,1,0,5.2,5.2A5.16,5.16,0,0,0,40.3,40.7Zm0,7.5a2.4,2.4,0,1,1,2.4-2.4A2.37,2.37,0,0,1,40.3,48.2Z" transform="translate(-2.58 -3.38)" style="stroke:#000;stroke-miterlimit:10;stroke-width:0.25px"/><path d="M74.3,40.7a5.2,5.2,0,1,0,5.2,5.2A5.16,5.16,0,0,0,74.3,40.7Zm0,7.5a2.4,2.4,0,1,1,2.4-2.4A2.37,2.37,0,0,1,74.3,48.2Z" transform="translate(-2.58 -3.38)" style="stroke:#000;stroke-miterlimit:10;stroke-width:0.25px"/><path d="M63,49.4H51.6a1.37,1.37,0,0,0-1.4,1.4c0,3.5,3.2,6.3,7.1,6.3s7.1-2.8,7.1-6.3A1.37,1.37,0,0,0,63,49.4Zm-5.7,4.8a4.35,4.35,0,0,1-3.9-2h7.8A4.47,4.47,0,0,1,57.3,54.2Z" transform="translate(-2.58 -3.38)" style="stroke:#000;stroke-miterlimit:10;stroke-width:0.25px"/><path d="M89,47.5c0-8.8-3.7-13.7-10.2-13.7H35.4c-5.9,0-10.2,5.8-10.2,13.7,0,8.2,4.1,13.7,10.2,13.7H78.7C85.3,61.3,89,56.4,89,47.5Zm-61,0c0-5.4,2.5-10.8,7.4-10.8H78.7c4.9,0,7.4,3.7,7.4,10.8s-2.5,10.8-7.4,10.8H35.4C30,58.5,28,52.5,28,47.5Z" transform="translate(-2.58 -3.38)" style="stroke:#000;stroke-miterlimit:10;stroke-width:0.25px"/></g></g><g id="a6f9417a-eb67-42c5-be13-09094309c42a" data-name="Heart"><path d="M57.6,113.6l-.4-.2c-.3-.2-7.8-5.2-7.8-9.7a4.58,4.58,0,0,1,4.5-4.9,4.9,4.9,0,0,1,3.7,1.8,4.57,4.57,0,0,1,8.2,3.1c0,4.5-7.5,9.4-7.8,9.7Z" transform="translate(-2.58 -3.38)" style="fill:#02c9fb"/></g><g id="e60c6593-c213-40df-ba3b-8350ce186b8f" data-name="Phrase"><g id="e5b86b6a-4d0e-4b59-a9b8-cc130e782b3f" data-name="Text"><rect x="124.32" y="23.32" width="152.2" height="78.1" style="fill:none"/><text transform="translate(124.36 32.8)" style="isolation:isolate;font-size:11.996100425720215px;font-family:HelveticaNeue-CondensedBlack, Helvetica Neue;font-weight:800">A BOUTIQUE PRODUC<tspan x="101.13" y="0" style="letter-spacing:-0.053991726804015205em">T</tspan><tspan x="106.02" y="0" style="letter-spacing:-0.00004068705863151108em">-CENTRIC </tspan></text><text transform="translate(124.36 47.2)" style="isolation:isolate;font-size:11.996100425720215px;font-family:HelveticaNeue-CondensedBlack, Helvetica Neue;font-weight:800">BUSINESS FOCUSED ON </text><text transform="translate(124.36 61.6)" style="isolation:isolate;font-size:11.996100425720215px;font-family:HelveticaNeue-CondensedBlack, Helvetica Neue;font-weight:800">DELIVERING MORE<tspan x="89.33" y="0" xml:space="preserve" style="letter-spacing:-0.03698453629604357em"> V</tspan><tspan x="97.8" y="0" style="letter-spacing:0.00004068705863151108em">ALUE</tspan><tspan x="122.7" y="0" style="letter-spacing:-0.03698453629604357em"> </tspan><tspan x="125.37" y="0">TO </tspan></text><text transform="translate(124.36 76)" style="isolation:isolate;font-size:11.996100425720215px;font-family:HelveticaNeue-CondensedBlack, Helvetica Neue;font-weight:800">CUSTOMERS<tspan x="60.18" y="0" style="letter-spacing:-0.03698453629604357em"> </tspan><tspan x="62.86" y="0">THAN COLLECTING </tspan></text><text transform="translate(124.36 90.4)" style="isolation:isolate;font-size:11.996100425720215px;font-family:HelveticaNeue-CondensedBlack, Helvetica Neue;font-weight:800">IN REVENUE.</text></g><g id="a834e0e0-13de-4923-8514-1c1a4fe538f7" data-name="Dots"><circle cx="97.12" cy="27.52" r="1.9"/><circle cx="104.12" cy="27.52" r="1.9"/><circle cx="111.32" cy="27.52" r="1.9"/><circle cx="117.92" cy="27.52" r="1.9"/></g></g></svg>