<svg id="b5078b54-e91f-4747-a260-4fbd6d5fdd1d" data-name="Layer 1" xmlns="http://www.w3.org/2000/svg" viewBox="0 0 224.62 142.18"><title>robot-contact-page</title><g id="a21352c2-f096-4cf2-ae28-627736d7b693" data-name="Layer 1"><g id="a06858b9-9339-4103-baa6-c78c0c9cb20f" data-name="Family"><g id="b3b1f77d-cd92-4d32-a228-41e0e03b0c2a" data-name="Dots"><circle cx="150.9" cy="61.98" r="1.9" style="fill:#fff"/><circle cx="150.9" cy="54.78" r="1.9" style="fill:#fff"/><circle cx="150.8" cy="48.18" r="1.9" style="fill:#fff"/></g><circle cx="21.2" cy="68.88" r="8.2" style="fill:#02c9fb"/><circle cx="140.9" cy="77.88" r="4.4" style="fill:#02c9fb"/><rect x="152.1" y="99.48" width="9.8" height="13.6" style="fill:#02c9fb"/></g><g id="aff11042-4e5a-44ca-a147-30b96c285127" data-name="Layer 2"><g id="b5954df8-0a60-4a98-ad1f-675bbda42dbe" data-name="Bot 33"><path d="M22.8,54.13a20.75,20.75,0,0,0-5.4,40.8l16.3,36.6a35.56,35.56,0,0,0-6.6,7.9,4.26,4.26,0,0,0,0,4.6,4.7,4.7,0,0,0,4,2.3h48a4.58,4.58,0,0,0,4-2.3,4.71,4.71,0,0,0,0-4.6,32.43,32.43,0,0,0-23.9-15.9L37.8,89a20.69,20.69,0,0,0,5.7-14.1,15.26,15.26,0,0,0-.3-3l33.7-32a5.27,5.27,0,0,1,1.2.3v30.3a13.65,13.65,0,0,0-2.9.7h-.3a16.08,16.08,0,0,0-9.6,20.7,15.31,15.31,0,0,0,5.6,7.4,4.49,4.49,0,0,0,4.6.4,4.64,4.64,0,0,0,2.7-4v-8.9a2.66,2.66,0,0,1,.9-2,2.27,2.27,0,0,1,1.6-.6,2,2,0,0,1,1.1.3,2.14,2.14,0,0,1,1.1,1.9v9.2a4.71,4.71,0,0,0,4.7,4.7,4.39,4.39,0,0,0,2.7-.9,16.08,16.08,0,0,0-4-28.1h0a17.67,17.67,0,0,0-3.3-.8V40.13a16.21,16.21,0,0,0,13.7-18.3A16.44,16.44,0,0,0,78.1,8.13a16,16,0,0,0-13.8,16V26L27.7,54.73A20.53,20.53,0,0,0,22.8,54.13ZM79,141.83H31a27.51,27.51,0,0,1,6.9-7.9A26.73,26.73,0,0,1,55,128a20.9,20.9,0,0,1,2.5.1A27.59,27.59,0,0,1,79,141.83Zm-26.2-18.5H52l-1.8.2h-.6a15.54,15.54,0,0,0-2.3.5l-.5.1-1.9.6-.8.3-1.6.6-.8.3-1.6.8-.6.3c-.7.4-1.3.8-2,1.2L22.8,95.63h0a24.52,24.52,0,0,0,2.7-.2H26a12.21,12.21,0,0,0,2.6-.6l.5-.2c.8-.3,1.6-.6,2.3-.9h.2a17.1,17.1,0,0,0,2.3-1.3l.3-.2,19.4,31-.8.1ZM33.4,87a16.27,16.27,0,0,1-12.7,3.8l-1.3-.2a16.11,16.11,0,0,1,3.3-31.9,16,16,0,0,1,15.8,12.7,19.7,19.7,0,0,1,.4,3.4A16.08,16.08,0,0,1,33.4,87Zm50.9-11.5h0a11.49,11.49,0,0,1,7.1,14.7,12,12,0,0,1-4,5.4v-9.2a6.86,6.86,0,0,0-11.5-5.1,7.25,7.25,0,0,0-2.3,5.4v9a11.51,11.51,0,0,1-2.4-16.1,11.72,11.72,0,0,1,5.3-4h.2a9.37,9.37,0,0,1,3.7-.7,10.91,10.91,0,0,1,3.9.6Zm-3.8-62.9a11.52,11.52,0,0,1,2.4,22.8v-9a2.3,2.3,0,0,0-4.6,0v9l-1.2-.3a5.91,5.91,0,0,1-1.4-.6,11.64,11.64,0,0,1-6.4-8.1,9.08,9.08,0,0,1-.3-2.3A11.38,11.38,0,0,1,80.5,12.63ZM65.7,30.83l.2.3c.2.4.5.9.7,1.3a2.74,2.74,0,0,1,.4.7,14.31,14.31,0,0,0,1.1,1.5l.3.3c.5.6,1.1,1.1,1.6,1.6l.5.4a10.14,10.14,0,0,0,1.3.9l.2.2L41.9,66.83c-.2-.4-.4-.9-.6-1.3v-.2l-1.2-2.1-.3-.4c-.5-.7-1-1.3-1.5-1.9h0a12.88,12.88,0,0,0-1.7-1.6l-.4-.3a23.07,23.07,0,0,0-1.9-1.4l-.3-.2-1-.6Z" transform="translate(-2 -6.05)" style="fill:#fff"/><path d="M26.2,63.93a13.45,13.45,0,0,0-3.5-.5,11.53,11.53,0,0,0-2.5,22.8,19.67,19.67,0,0,0,2.4.3A11.53,11.53,0,0,0,34.2,75a9.86,9.86,0,0,0-.3-2.4A11.08,11.08,0,0,0,26.2,63.93ZM27.3,80a7.06,7.06,0,0,1-6.1,1.5,7,7,0,0,1,1.6-13.7,7.61,7.61,0,0,1,2.1.3,7,7,0,0,1,4.6,5.1,7.72,7.72,0,0,1,.2,1.5A6.38,6.38,0,0,1,27.3,80Z" transform="translate(-2 -6.05)" style="fill:#fff"/></g><g id="bbd8d732-ad05-44c4-b41a-cf0ec93c59da" data-name="Bot 33"><path d="M149.1,84a6.3,6.3,0,1,0-6.3,6.3A6.34,6.34,0,0,0,149.1,84Zm-10,0a3.8,3.8,0,1,1,3.8,3.8A3.86,3.86,0,0,1,139.1,84Z" transform="translate(-2 -6.05)" style="fill:#fff"/><path d="M143.7,84.93a1.27,1.27,0,1,0-1.8,0,1.49,1.49,0,0,0,.9.4A1.88,1.88,0,0,0,143.7,84.93Z" transform="translate(-2 -6.05)" style="fill:#fff"/><path d="M164.2,91.53a7.5,7.5,0,1,0-7.5-7.5A7.49,7.49,0,0,0,164.2,91.53Zm0-2.5a4.93,4.93,0,0,1-4.8-3.8h9.7A5.32,5.32,0,0,1,164.2,89Zm0-10.1a4.93,4.93,0,0,1,4.8,3.8h-9.7A5.13,5.13,0,0,1,164.2,78.93Z" transform="translate(-2 -6.05)" style="fill:#fff"/><path d="M159.1,104h-3.8a2.48,2.48,0,0,0-2.5,2.5v11.3a2.48,2.48,0,0,0,2.5,2.5h7.5a2.48,2.48,0,0,0,2.5-2.5v-11.3a2.48,2.48,0,0,0-2.5-2.5Zm-3.7,2.6h2.5v11.3h-2.5Zm7.5,11.3h-2.5v-11.3h2.5Z" transform="translate(-2 -6.05)" style="fill:#fff"/><path d="M149.1,107.83h-1.3v-2.5a1.3,1.3,0,0,0-2.6,0v2.5h-1.3a1.3,1.3,0,1,0,0,2.6h1.3v8.8a1.3,1.3,0,1,0,2.6,0v-8.8h1.3a1.3,1.3,0,1,0,0-2.6Z" transform="translate(-2 -6.05)" style="fill:#fff"/><path d="M175.5,127.93a2.48,2.48,0,0,0-2.5,2.5v7.5a1.32,1.32,0,0,0,1.3,1.3,10,10,0,0,0,10-10,1.32,1.32,0,0,0-1.3-1.3h-3.8v-2.5a2.48,2.48,0,0,0,2.5-2.5v-8.8a2.48,2.48,0,0,0-2.5-2.5h-.1c-.7-5.2-5.4-7.1-8.7-7.5v-2.6h3.8a2.48,2.48,0,0,0,2.5-2.5v-4.3l5-3a2.67,2.67,0,0,0,1.3-2.1v-7.2a2.37,2.37,0,0,0-1.6-2.3l-4.7-1.9v-2.9a2.48,2.48,0,0,0-2.5-2.5H134a2.48,2.48,0,0,0-2.5,2.5v2.9l-4.7,1.9a2.47,2.47,0,0,0-1.6,2.3v7.2a2.61,2.61,0,0,0,1.3,2.2l5,3V99a2.48,2.48,0,0,0,2.5,2.5h3.8v2.6c-3.3.4-8.1,2.2-8.7,7.5H129a2.48,2.48,0,0,0-2.5,2.5v8.8a2.48,2.48,0,0,0,2.5,2.5v2.5h-3.8a1.32,1.32,0,0,0-1.3,1.3,10,10,0,0,0,10,10,1.32,1.32,0,0,0,1.3-1.3v-7.5a2.48,2.48,0,0,0-2.5-2.5h-1.3v-2.5h1.3a2.48,2.48,0,0,0,2.5-2.5v-8.8a2.48,2.48,0,0,0-2.5-2.5h-1.1c.7-3.6,4.2-4.6,6.2-4.9v17.5a1.32,1.32,0,0,0,1.3,1.3h2.5v3.8a2.48,2.48,0,0,0-2.5,2.5v2.5a2.48,2.48,0,0,0,2.5,2.5v3.8h-3a2.3,2.3,0,0,0-2.2,1.4l-1.3,2.5a2.63,2.63,0,0,0,1.1,3.4,2,2,0,0,0,1.1.3h11.8a2.48,2.48,0,0,0,2.5-2.5V143a2.48,2.48,0,0,0-2.5-2.5v-3.8a2.48,2.48,0,0,0,2.5-2.5v-2.5a2.48,2.48,0,0,0-2.5-2.5v-3.8h10v3.8a2.48,2.48,0,0,0-2.5,2.5v2.5a2.48,2.48,0,0,0,2.5,2.5v3.8a2.48,2.48,0,0,0-2.5,2.5v2.5a2.48,2.48,0,0,0,2.5,2.5h11.8a2.48,2.48,0,0,0,2.5-2.5,2,2,0,0,0-.3-1.1l-1.3-2.5a2.4,2.4,0,0,0-2.2-1.4h-3v-3.8a2.48,2.48,0,0,0,2.5-2.5v-2.5a2.48,2.48,0,0,0-2.5-2.5v-3.8h2.5a1.32,1.32,0,0,0,1.3-1.3v-17.5c1.9.3,5.5,1.3,6.2,4.9h-1.1A2.48,2.48,0,0,0,173,114v8.8a2.48,2.48,0,0,0,2.5,2.5h1.3v2.5h-1.3Zm-42.7,2.5v6.2a7.54,7.54,0,0,1-6.2-6.2Zm0-7.5H129v-8.8h3.8Zm47.7-40.6v7.2l-3.8,2.3v-11Zm-52.7,7.2v-7.2l3.8-1.5v11ZM134,94V75.23h40.2V79h0V94h0v5h-8.9a7.52,7.52,0,0,0-7.4-6.3h-7.5A7.52,7.52,0,0,0,143,99h-9V94Zm28.7,5H145.5a5.13,5.13,0,0,1,4.9-3.8h7.5A5,5,0,0,1,162.7,99Zm-13.6,46.5H137.3l1.3-2.5h10.5Zm-2.5-5h-2.5v-3.8h2.5Zm2.5-6.3h-7.5v-2.5h7.5Zm-2.5-5h-2.5v-3.8h2.5Zm24.3,16.3H159.1V143h10.5Zm-6.7-5h-2.5v-3.8h2.5Zm2.5-6.3h-7.5v-2.5h7.5Zm-2.5-5h-2.5v-3.8h2.5Zm3.7-6.3H140.3v-21.4h27.6Zm7.6-8.8h3.8v8.8h-3.8Zm6.1,16.3a7.54,7.54,0,0,1-6.2,6.2v-6.2Z" transform="translate(-2 -6.05)" style="fill:#fff"/></g></g></g><g id="bc344a3a-68ca-4588-aa24-44bba6b84bdd" data-name="Layer 2"><text transform="translate(103.7 10.28)" style="isolation:isolate;font-size:11.996100425720215px;fill:#fff;font-family:HelveticaNeue-CondensedBlack, Helvetica Neue;font-weight:800">GET ME<tspan x="36.42" y="0" style="letter-spacing:-0.03698453629604357em"> </tspan><tspan x="39.1" y="0" style="letter-spacing:-0.00004068705863151108em">THE</tspan><tspan x="57.52" y="0" style="letter-spacing:-0.03698453629604357em"> </tspan><tspan x="60.2" y="0">TOOLBOX</tspan><tspan x="104.62" y="0" style="letter-spacing:-0.03698453629604357em">,</tspan><tspan x="107.29" y="0"> </tspan></text><text transform="translate(103.7 24.68)" style="isolation:isolate;font-size:11.996100425720215px;fill:#fff;font-family:HelveticaNeue-CondensedBlack, Helvetica Neue;font-weight:800">IT’S<tspan x="18.22" y="0" style="letter-spacing:-0.03698453629604357em"> </tspan><tspan x="20.9" y="0">TIME</tspan><tspan x="44.65" y="0" style="letter-spacing:-0.03694384923741206em"> </tspan><tspan x="47.32" y="0" style="letter-spacing:-0.00004068705863151108em">TO</tspan><tspan x="59.54" y="0" style="letter-spacing:-0.03698453629604357em"> </tspan><tspan x="62.21" y="0">ARCHITEC</tspan><tspan x="110.19" y="0" style="letter-spacing:-0.09199343956584655em">T</tspan><tspan x="114.63" y="0">. </tspan></text><text transform="translate(103.7 39.08)" style="isolation:isolate;font-size:11.996100425720215px;fill:#fff;font-family:HelveticaNeue-CondensedBlack, Helvetica Neue;font-weight:800">LET’S GET<tspan x="47.98" y="0" style="letter-spacing:-0.03698453629604357em"> </tspan><tspan x="50.66" y="0">TO</tspan><tspan x="62.87" y="0" style="letter-spacing:-0.03698453629604357em"> </tspan><tspan x="65.55" y="0">WORK!</tspan></text></g></svg>