<svg id="b1ca49c0-2ce6-43d8-86d9-236f8e255621" data-name="Layer 1" xmlns="http://www.w3.org/2000/svg" viewBox="0 0 147.54 82.73"><path d="M623,388.36a23.55,23.55,0,0,0,3.78-1.63c11-7.08,22-14,32.83-21.4,11.42-7.78,22.58-15.94,33.84-23.95a7.15,7.15,0,0,0,2.1-2.17c-13.5,6.82-25.73,15.76-39.11,23.3,3.39-4.86,41.13-27.1,45.34-26.53a21.57,21.57,0,0,1-2.3,2.35c-10.14,7.57-20.21,15.24-30.49,22.61-7.77,5.58-15.83,10.77-23.75,16.15a34.76,34.76,0,0,0-4.13,3.19c17.42-6.91,32.51-18.68,50.31-24.75l.86,1.12-11,13a57.61,57.61,0,0,0,6.51.49,52.77,52.77,0,0,0,19.73-5c10.76-4.88,21.36-10.07,32.06-15.08,1.67-.78,3.47-1.29,5.21-1.93l.28.57a5,5,0,0,1-1,.89c-14.94,7.66-29.56,16.12-45.89,20.57-4.74,1.29-9.87,1.26-14.83,1.57-1.4.08-2.86-.81-5-1.49l10.18-11.39-.33-.46c-1.19.51-2.41.94-3.56,1.53-14.33,7.42-28.44,15.3-43,22.16-11.56,5.44-23.69,9.67-35.6,14.35a9.94,9.94,0,0,1-4.4.53c-4-.39-5.17-3.48-3-6.85,17.75-27.31,41.26-48.86,67.68-67.45a47.42,47.42,0,0,1,18.52-8.32,6.19,6.19,0,0,1,4.47,1.27c1.49,1.2,1.28,3.25.27,4.82-3.19,5.05-6.4,10.1-9.83,15a56.07,56.07,0,0,1-5.77,6.57c-15.13,15.62-30.6,30.86-48.5,43.38-.82.57-1.58,1.22-2.35,1.85a2.27,2.27,0,0,0-.38.57Zm32.77-38.62c-1.69,0-3-.34-4,.06-5.08,2-10.39,3.7-15,6.49-7.7,4.63-14.94,10-22.36,15.09a2.16,2.16,0,0,0-.44.58c-1.67,2.32-3.37,4.63-5,7-1.85,2.65-3.84,5.24-5.41,8.05-1.4,2.52-.21,4.58,2.6,5.19a12.16,12.16,0,0,0,10.17-2.2c5.62-4.15,11.31-8.23,16.75-12.61a364.23,364.23,0,0,0,46.21-43.75,88.83,88.83,0,0,0,9.3-13.79c1.43-2.44-.39-4.47-3.2-4a13,13,0,0,0-4.06,1.12c-6.58,3.52-13.43,6.68-19.56,10.88-16.64,11.4-30.84,25.62-44.81,40.07a17.83,17.83,0,0,0-1.39,1.82l.46.44c1.62-1.37,3.3-2.67,4.83-4.12a79.34,79.34,0,0,1,26.65-16.77,26.3,26.3,0,0,1,7.8-1.16,2.84,2.84,0,0,1,2.13,1.77c.32,1.43-2.29,4.22-4.38,4.76Zm-54.07,39.68c-2.27,1.33-2.68,2.88-1.93,4.65.59,1.4,4,1.56,7,.25C604.27,393.32,601.28,393.14,601.73,389.42Z" transform="translate(-597.51 -314.31)" style="fill:#fff"/></svg>