<svg id="ad9f162d-e8c3-440e-8ea5-fbf7de661e9f" data-name="Layer 1" xmlns="http://www.w3.org/2000/svg" viewBox="0 0 157.04 72.81"><path d="M673.66,348c-.26,2.06-.17,3.69-.69,5.09-3.33,9.09-6.8,18.14-10.23,27.2-.29.75-.65,1.47-1.27,2.89,3.29-.57,6.08-1,8.81-1.61.48-.11.87-1.16,1.07-1.84q4.2-14.58,8.31-29.17a32.72,32.72,0,0,0,.51-4.5L676.52,349c.29-2.22,2.84-4.82,4.44-4.45.55.13,1.25,1.67,1.11,2.41-.85,4.39-1.76,8.78-3,13.08-1.66,6-3.59,11.9-5.4,17.85-.28.93-.54,1.87-.86,3,2.35.53,3.82-.66,5.28-1.85,1.28-1.06,2.53-1.47,3.77-.19-1.8,1.84-4.06,3.31-5,5.39s-.7,4.74-1,7.15l1.31.32c.74-2.24,1.46-4.49,2.22-6.72.27-.78.67-1.52,1-2.28a17.43,17.43,0,0,1,1.05,2.18,26.45,26.45,0,0,1,.59,2.82c4-1.5,4.17-5.6,6.69-8.51.34,3.33.62,6.13.9,8.92l1.23.19c1-1.93,1.92-3.89,3-5.77a17.06,17.06,0,0,1,1.78-2.23,17.83,17.83,0,0,1,.2,2.9c-.12,1.41-.45,2.81-.72,4.4,3.53-.77,7.16-5.1,7.3-8,.28-5.75,2.32-11,4.82-16.07.25-.53.52-1,.78-1.56l.94.52a8.65,8.65,0,0,1,0,2.16c-1.23,4.72-2.54,9.43-3.81,14.14-.13.47-.4,1.2-.2,1.39,1.29,1.19,1,2.15,0,3.35-.23.26.31,1.66.85,2.05a16.82,16.82,0,0,0,4.52,2.53c4.5,1.46,9,2.93,13.62,3.94,5.54,1.22,8.63,4.59,10.08,9.81.2.72.5,1.42.64,2.15.66,3.66,2.26,6.39,6.43,6.68.2,0,.37.29.56.45-2,1.83-5.68.92-7.09-1.92a25,25,0,0,1-2.13-5.82c-1.22-5.76-4.82-8.52-10.45-9.87A127,127,0,0,1,706,388c-1.26-.49-2.13-2-3.56-3.38-.4.66-1.47,1.64-1.32,2.36s1.47,1.37,2.27,2l.6-.36c.11,2.05.38,4.11.3,6.15-.18,4.64-.5,9.27-.87,13.9,0,.64-.71,1.24-1.09,1.86a6.48,6.48,0,0,1-.85-2.26c.16-4.15.51-8.28.73-12.42a10.87,10.87,0,0,0-.19-3.47,49.6,49.6,0,0,0-2-5l-4.17,2.23-2.65-1.89,0,.74c-1.44.35-3.18,1.36-4.23.87s-1.51-2.45-2.27-3.87c-2.54,3.89-2.54,3.89-6.89,3.45a7.79,7.79,0,0,1-.94,2.7c-.71.85-1.85,1.86-2.8,1.84-.69,0-1.86-1.5-2-2.41a28.34,28.34,0,0,1,.4-5.64c.11-1,.35-2,.56-3.2-2.55.27-3.31,1.7-3.68,3.53q-1.83,8.88-3.68,17.76c-.12.56-.32,1.11-.5,1.74-1.78-.37-1.72-1.52-1.42-2.83q1.86-8.12,3.7-16.24c.18-.78.33-1.56.63-3a66.76,66.76,0,0,0-8,2.28c-.74.3-1.39,2.08-1.21,3a32.58,32.58,0,0,0,2,5.31c.56,1.47,1.06,2.95,1.59,4.43l-1,.45-4.29-9.18c-.64,1.34-1.08,2.09-1.36,2.89-2.42,6.87-4.78,13.77-7.25,20.62a16.64,16.64,0,0,1-2,3.12c0-1.2-.45-2.53-.07-3.58,2.61-7.16,5.36-14.26,8.11-21.37,4.78-12.36,9.6-24.71,14.34-37.09a6,6,0,0,0,.08-2.62C670.93,349.91,671.33,348.78,673.66,348Z" transform="translate(-584.54 -343.31)" style="fill:#fff"/><path d="M622.2,364.83c.83-1.19,1.26-1.75,1.63-2.34,4-6.45,9.23-11.72,14.92-16.62a8,8,0,0,1,1-.72c1.72-1.11,3.61-2.9,5.53-1,1.62,1.59-.07,3.42-.91,4.93-6.9,12.31-15.73,23.19-25.21,33.57-1.18,1.29-2.3,2.62-3.43,3.95a5.36,5.36,0,0,0-.35,1.2,23.14,23.14,0,0,0,3.17-1.93c4.65-4.14,9.23-8.35,13.88-12.49a20.89,20.89,0,0,1,2.69-1.78l.54.61c-.62.79-1.2,1.64-1.89,2.36-3.67,3.85-7.4,7.64-11,11.5a21.82,21.82,0,0,0-2,2.82l.56.66c1.3-.39,2.59-.8,3.9-1.18,4.53-1.29,9-2.68,13.61-3.79,2.2-.54,4.09.44,6,1.76,1.5,1,3.56,1.25,5.33,1.81-1.1,1.73-3.52,2.3-5.72.36-3.32-2.94-6.72-2.16-10.26-1.13-3.74,1.09-7.42,2.4-11.17,3.46a27.46,27.46,0,0,1-4.61.48l1.87-4.53-.38-.53c-3.59,2.4-7.23,4.73-10.75,7.23-3.17,2.26-6.22,4.69-9.29,7.09s-6.59,2.56-10.2,2.39a3.11,3.11,0,0,1-1.84-1c-3.78-3.92-4.35-8.22-1.29-13.94s6.51-11.56,10.07-17.16a100.11,100.11,0,0,1,8.64-11.81,16.94,16.94,0,0,1,6.48-4.43c5-2,8.9.46,9.92,5.72C621.85,361.55,621.94,362.79,622.2,364.83Zm-19-.25c1.66-1.08,3.25-2.28,5-3.21,2.7-1.44,6-1.06,7.6.86.41.5.29,1.44.41,2.18l-1.91-.76c-1.12-.46-2.26-1.34-3.34-1.27a8.28,8.28,0,0,0-3.88,1.53,40.12,40.12,0,0,0-15.32,20,5.64,5.64,0,0,0-.32,2c0,3.06,2.2,5.14,5.14,4.38a20.23,20.23,0,0,0,7-2.95c6.57-4.9,11.17-11.5,15.07-18.62,1.84-3.35,1.66-6.68.33-10.07a4.51,4.51,0,0,0-5.23-2.81A17,17,0,0,0,603.25,364.58Zm40.94-18.41-.89-.88c-1.7,1.17-3.75,2-5,3.56q-9.24,10.72-18.11,21.76c-3.57,4.46-6.86,9.14-10.21,13.76-.95,1.32-3,2.8-1.13,4.43s3.34-.35,4.48-1.67c10.13-11.76,20-23.75,28.54-36.72C642.71,349.06,643.4,347.59,644.19,346.17Zm-54.8,39.64c-1.8,3.86-3.49,7.06-2.58,10.87.86,3.54,3.23,5.09,6.84,4.36,6.24-1.26,10.35-5.78,15.11-9.76l-2.76-3a56.84,56.84,0,0,1-5.14,2.83C594.75,393.72,591.68,392.44,589.39,385.81Z" transform="translate(-584.54 -343.31)" style="fill:#fff"/></svg>