<svg id="adeca563-6d50-4472-83b6-7599816ac523" data-name="Layer 1" xmlns="http://www.w3.org/2000/svg" viewBox="0 0 133.36 86.43"><path d="M682.91,393.21c-1.79.12-3.58.19-5.37.38-3.89.42-7.78.81-11.65,1.4a5.13,5.13,0,0,0-3.18,1.58c-3.29,4.7-6.4,9.52-9.46,14.37a8.14,8.14,0,0,0-.59,2.73l.6.4,6-5c-.7,2.9-4.36,6.89-6.56,7.17a2.64,2.64,0,0,1-2.09-1.53,5.32,5.32,0,0,1,.53-3.36c2.26-4.15,4.68-8.2,7.07-12.28.56-1,1.21-1.86,2.21-3.38-1.46.08-2.23.1-3,.16-8.81.77-17.63,1.27-26.41-.31-4.73-.85-9.16-2.42-12.65-6-2.85-2.89-3.88-6.39-2.34-10.07a37.88,37.88,0,0,1,5.39-9.42,40.7,40.7,0,0,1,8.31-7.51c17.58-12.21,36.55-21.18,58-23.85,5.2-.65,10.47-1,15.57.78,3.43,1.23,4.62,3.19,3.76,6.49-.56-.51-1.14-.81-1.37-1.28-1.35-2.76-3.7-3.54-6.55-3.72-15-1-29,2.74-42.54,9-9.69,4.47-19.17,9.31-27.55,16-4,3.19-7.62,6.75-9.78,11.5-2.6,5.72-1.33,9.71,4.08,12.86,4.68,2.73,9.9,3.52,15.15,3.59,7.4.1,14.82-.16,22.22-.53a6,6,0,0,0,3.75-2.28c5.65-7.31,11.11-14.76,16.69-22.13a10,10,0,0,1,2.16-1.63l.69.51a11.45,11.45,0,0,1-1.22,3c-5.11,6.45-10.31,12.82-15.45,19.24a15.29,15.29,0,0,0-1.08,1.84,6.6,6.6,0,0,0,2.21.56c5.46-.59,10.92-1.2,16.36-2a5.38,5.38,0,0,0,3.13-1.77c3.66-4.63,7.2-9.36,10.68-14.14,2.05-2.82,3.88-5.8,5.83-8.7a6.09,6.09,0,0,1,1.41-1.71c.46-.3,1.2-.16,1.81-.22,0,.6.27,1.31,0,1.79a16.51,16.51,0,0,1-2,3.17c-5.06,6.28-10.17,12.52-15.25,18.79-.4.49-.7,1.06-1.37,2.1a22.85,22.85,0,0,0,3.26,0c11.23-2,22.43-4,33.67-5.93,5.33-.9,10.7-1.54,16.07-2.14a14.63,14.63,0,0,1,4.7.38c1.44.33,2.34,1.26,1.43,2.89-8.72-2.45-17,.43-25.37,1.75-11.25,1.77-22.45,3.89-33.69,5.76a7.56,7.56,0,0,0-5.23,3c-3.59,4.91-7.33,9.71-10.75,14.72-2.72,4-5.33,8.1-5.32,13.24,0,.4-.6.8-.91,1.19-.4-.33-1-.61-1.15-1a3.89,3.89,0,0,1,0-2.19c.88-2.67,1.43-5.6,2.94-7.88,4-6,8.35-11.6,12.58-17.36.58-.79,1.24-1.52,1.86-2.28Z" transform="translate(-615.29 -338.14)" style="fill:#fff"/></svg>