<?xml version="1.0" encoding="utf-8"?>
<!-- Generator: Adobe Illustrator 24.0.3, SVG Export Plug-In . SVG Version: 6.00 Build 0)  -->
<svg version="1.1" xmlns="http://www.w3.org/2000/svg" xmlns:xlink="http://www.w3.org/1999/xlink" x="0px" y="0px"
	 viewBox="0 0 431.3 373.8" style="enable-background:new 0 0 431.3 373.8;" xml:space="preserve">
<style type="text/css">
	.st0{display:none;}
	.st1{display:inline;stroke:#000000;stroke-miterlimit:10;}
	.st2{fill:#02C9FB;}
	.st3{fill:#FFFFFF;}
	.st4{font-family:'Teko-Bold';}
	.st5{font-size:30px;}
</style>
<g id="Layer_2" class="st0">
	<rect x="-52.5" y="-68.8" class="st1" width="558.1" height="536.6"/>
</g>
<g id="Layer_1">
	<g>
		<g id="Layer_5">
			<polygon class="st2" points="70.3,269.8 119.2,354.5 312.7,354.5 361.5,269.9 374.9,284.4 323.4,373.5 107.8,373.5 56.5,284.7 
							"/>
			<polygon class="st2" points="51.4,237 22.4,186.8 119.2,19 312.7,19 409.5,186.8 380.2,237.5 393.7,251.7 431.3,186.7 323.4,0 
				107.8,0 0,186.7 37.5,251.6 			"/>
		</g>
	</g>
	<g>
		<rect x="111.1" y="12" class="st2" width="210.5" height="351.3"/>
		<polygon class="st2" points="9.3,189.1 114.3,8.6 423.5,190.7 318.5,371.2 		"/>
		<rect x="30.9" y="85.8" transform="matrix(0.866 -0.5 0.5 0.866 -67.088 131.7218)" class="st2" width="362.7" height="210.5"/>
		
			<rect x="371.4" y="256" transform="matrix(0.5042 -0.8636 0.8636 0.5042 -33.3048 461.0927)" class="st2" width="27.1" height="7.2"/>
		<rect x="369.9" y="277" transform="matrix(0.5 -0.866 0.866 0.5 -53.3098 465.1445)" class="st2" width="12.5" height="3.4"/>
		<rect x="367.7" y="274.1" transform="matrix(0.5 -0.866 0.866 0.5 -52.1362 463.4499)" class="st2" width="15.2" height="5.6"/>
		<rect x="373.7" y="272" class="st2" width="2.2" height="0.8"/>
		
			<rect x="379.6" y="272.5" transform="matrix(0.4241 -0.9056 0.9056 0.4241 -27.7041 502.166)" class="st2" width="2.7" height="0.8"/>
	</g>
	<g id="Bot_33_3_">
		<path class="st3" d="M102.6,99.5c4.1,2.4,9.7,1.1,12.2-3.2c2.4-4.1,1.1-9.7-3.2-12.2c-4.3-2.5-9.7-1.1-12.2,3.2
			C96.9,91.6,98.5,97.1,102.6,99.5z M109.7,87.4c2.6,1.5,3.3,4.7,1.9,7.2s-4.8,3.3-7.2,1.9c-2.6-1.5-3.3-4.7-1.9-7.2
			S107.3,85.9,109.7,87.4z"/>
		<path class="st3" d="M105.3,92.3c0.2,1,1.2,1.5,2.2,1.3c1-0.2,1.6-1.2,1.3-2.2c-0.2-1-1.2-1.5-2.2-1.3c-0.3,0.1-0.9,0.3-1.2,0.9
			C105.4,91.5,105.3,91.9,105.3,92.3z"/>
		<path class="st3" d="M82.7,112.4c-3,5.1-1.2,11.5,3.7,14.3c5.1,3,11.5,1.2,14.4-3.7c3-5.1,1.2-11.5-3.7-14.3
			C92.2,105.5,85.7,107.3,82.7,112.4z M85.7,114.3c1.7-2.8,4.9-4,8-3.1l-6.9,11.7C84.8,120.4,84.2,116.8,85.7,114.3z M98,121.4
			c-1.7,2.8-4.9,4-8,3.1l6.9-11.7C99.2,115,99.7,118.6,98,121.4z"/>
		<path class="st3" d="M59.1,84.3c3.8,2.3,7.6,4.5,11.5,6.8l-1.8,3c-3.8-2.2-7.6-4.5-11.4-6.7c-0.6,1-1.2,2-1.8,3.1
			c3.8,2.3,7.6,4.5,11.5,6.8l-1.8,3c-3.8-2.2-7.6-4.5-11.4-6.7c-0.5,0.9-1.1,1.9-1.6,2.8c3.8,2.3,7.7,4.5,11.5,6.8
			c1.8,1,3.8,0.5,4.8-1.2l2.7-4.4l2.8-4.6c1-1.8,0.5-3.8-1.2-4.7c-3.9-2.3-7.8-4.6-11.8-6.9C60.4,82.1,59.7,83.2,59.1,84.3z"/>
		<path class="st3" d="M74.3,74.6l-0.9,1.5c-2.4-1.4-4.7-2.8-7.1-4.2C65.7,73,65,74,64.4,75.1c2.3,1.4,4.7,2.7,7,4.1l-0.9,1.5
			c-0.5,0.8-0.2,1.9,0.6,2.5c1,0.6,2.1,0.3,2.6-0.6l0.9-1.5l3,1.8c0.8,0.5,1.9,0.2,2.5-0.6c0.5-0.8,0.2-1.9-0.6-2.5l-3-1.8l0.9-1.5
			c0.5-0.8,0.2-1.9-0.6-2.5C76,73.5,74.9,73.7,74.3,74.6z"/>
		<path class="st3" d="M109.4,66.6l-7.2,3.9l-5.1-3c-1.8-1-3.8-0.5-4.8,1.2l-2.7,4.5l-3.2-1.8c1.8-4.3,3.1-11.4-2.9-15.9l0.2-0.3
			c1-1.8,0.5-3.8-1.2-4.7c-0.9-0.6-1.9-1.2-2.8-1.8c-0.7,1.2-1.3,2.3-2,3.5c0.9,0.5,1.8,1.1,2.7,1.6l-2.7,4.5
			c-0.9-0.5-1.8-1-2.6-1.5c-0.5,0.9-1,1.7-1.5,2.6c0.9,0.5,1.8,1.1,2.7,1.6c1.8,1,3.8,0.5,4.8-1.2l0.7-1.3c4,3.3,2.6,8.4,1.5,11
			c-3.9-2.2-7.8-4.5-11.7-6.7c-0.6,1-1.2,2.1-1.8,3.1c5.9,3.5,11.9,6.9,17.8,10.4L68,109.6c-5.9-3.4-11.7-6.8-17.6-10.2
			c-0.5,0.9-1.1,1.9-1.6,2.8c3.8,2.2,7.7,4.5,11.5,6.7c-1.8,2.1-5.4,5.8-10.4,4l0.7-1.3c1-1.8,0.5-3.8-1.2-4.7
			c-0.8-0.5-1.7-1-2.5-1.5c-0.7,1.1-1.3,2.3-2,3.4c0.7,0.4,1.5,0.8,2.2,1.3l-2.7,4.5c-0.7-0.4-1.4-0.9-2.1-1.3
			c-0.6,1-1.2,2.1-1.8,3.1c0.7,0.4,1.5,0.9,2.2,1.3c1.8,1,3.8,0.5,4.8-1.2l0.1-0.1c6.8,2.9,12.4-1.5,15.3-5.3l3.2,1.8l-2.7,4.5
			c-1,1.8-0.5,3.8,1.2,4.7l5.2,3.1l0.2,8.2c0,1.2,0.7,2.4,1.7,3l8.7,5.1c1.2,0.7,2.9,0.8,3.9-0.3l5.7-4.3l3.4,2
			c1.8,1,3.8,0.5,4.8-1.2L127,89.1c1-1.8,0.5-3.8-1.2-4.7l-3.4-2l1.1-7.1c0.2-1.5-0.4-2.8-1.7-3.5l-8.7-5.1
			C111.9,66,110.6,66.1,109.4,66.6z M86.7,135.1l-4.4,3.5l-8.7-5.1l-0.1-6.2L86.7,135.1z M86.9,84.5c2.3,2.3,2.7,5.9,1.1,8.7
			l-5.3,9.1c-1.8,2.7-5,4-8.1,3.1L86.9,84.5z M124.2,87.6l-28.7,48.7l-4.6-2.7l-18.2-10.6l-6.1-3.5l6.3-10.8
			c4.8,1.9,10.3,0,12.9-4.4l5.3-9.1c2.6-4.5,1.6-10.2-2.5-13.5l6.4-10.8l6.2,3.4L124.2,87.6z M119.7,74.9l-0.8,5.6l-13.3-7.8l5.5-3
			L119.7,74.9z"/>
	</g>
	<g id="Слой_x0020_1">
		<path class="st3" d="M312.6,108.4l5.7-3.2l-1.4-4.4l-6.5,3.8c-1-0.9-2.1-1.6-3.3-1.9c-4.2-1.1-8.6,1.3-9.6,5.5
			c-1.2,4.1,1.3,8.5,5.4,9.7c4.2,1.1,8.6-1.3,9.6-5.5C312.9,111,312.9,109.7,312.6,108.4z M304.1,113.4c-1.7-0.5-2.7-2.3-2.3-4.1
			c0.4-1.8,2.3-2.8,4-2.3c1.7,0.5,2.7,2.3,2.3,4.1C307.7,112.9,305.9,113.9,304.1,113.4z"/>
		<path class="st3" d="M340.2,83.8c-4.2-1.1-8.6,1.3-9.6,5.5c-1.1,4.2,1.4,8.6,5.5,9.8c4.2,1.1,8.6-1.3,9.6-5.5
			C346.8,89.3,344.3,84.9,340.2,83.8z M337.1,94.6c-1.7-0.5-2.7-2.3-2.3-4.1c0.5-1.8,2.3-2.8,4-2.3c1.7,0.5,2.7,2.3,2.3,4.1
			C340.7,94,338.9,95,337.1,94.6z"/>
		<path class="st3" d="M350.5,101.9c-4.2-1.1-8.6,1.3-9.6,5.5c-1.2,4.1,1.3,8.5,5.5,9.8c4.2,1.1,8.6-1.3,9.6-5.5
			C357.1,107.4,354.6,103,350.5,101.9z M347.4,112.6c-1.7-0.5-2.7-2.3-2.3-4.1c0.4-1.7,2.3-2.7,4-2.3c1.7,0.5,2.7,2.3,2.3,4.1
			C351,112,349.2,113,347.4,112.6z"/>
		<path class="st3" d="M322.9,126.6l6.5-3.8l-3.1-3.5l-5.7,3.2c-1-0.9-2.1-1.6-3.3-1.8c-4.2-1.1-8.6,1.3-9.6,5.5
			c-1.1,4.3,1.4,8.6,5.5,9.8c4.2,1.1,8.6-1.3,9.6-5.5C323.2,129.2,323.2,127.9,322.9,126.6z M314.3,131.4c-1.7-0.5-2.7-2.3-2.3-4.1
			c0.5-1.8,2.3-2.8,4-2.3c1.7,0.5,2.7,2.3,2.3,4.1C317.9,130.9,316.1,131.9,314.3,131.4z"/>
		<path class="st3" d="M373.3,111.2l1.9,3.4c1.1,2,3.3,3.3,5.8,3.7c2.3,0.4,4.9-0.1,7.2-1.5c1.1-0.7,1.3-1.8,1-2.7l-0.5-0.8
			c-0.6-0.7-1.7-1.1-2.8-0.4c-1.4,0.9-3,1.1-4.3,1c-1.1-0.2-2-0.7-2.4-1.5l-0.8-1.3c1.9-0.4,3.7-1.1,5.4-2c0.6-0.3,1.2-0.7,1.8-1.1
			l-2.1-3.7c-0.6,0.4-1.2,0.8-1.8,1.2c-3.1,1.8-6.8,2.1-10,1.2c-3.3-1-6.3-3.1-8.1-6.3l-9.5-16.9c-1.8-3.3-2.1-6.9-1.4-10
			c1-3.4,3-6.3,6.2-8.1c0.6-0.3,1.1-0.6,1.7-0.9l-2.4-4.3c-0.6,0.3-1.1,0.5-1.7,0.9c-1.6,0.9-3.1,2.2-4.4,3.6l-0.7-1.2
			c-0.4-0.8-0.4-1.9,0.1-2.9c0.5-1.2,1.6-2.3,3-3.2c0.7-0.4,1-1,1.1-1.7l-1.4-2.5c-0.6-0.2-1.2-0.3-2,0.2c-2.3,1.3-4,3.4-4.9,5.4
			c-0.9,2.3-1,4.8,0.2,6.9c0.6,1,1.1,2.2,1.8,3.3c-0.7,1.6-1.3,3.2-1.5,4.8c-4-3.6-9.8-4.4-14.5-1.8c-2.7-2.1-4.8-3.3-8.9-2.2
			c-5.3,1.5-9.5,7.2-9.4,12.8c0,2.8,1.1,5.3,3.2,7l2,1.6c-0.8,5.9,0.1,12,3.1,17.3l2.8,4.8c3.1,5.5,7.9,9.5,13.3,11.7l0.3,2.5
			c0.2,2.7,1.9,4.9,4.3,6.4c4.8,2.9,11.8,2.3,15.8-1.6c3.1-2.9,3.1-5.3,2.7-8.8c4.7-2.6,7.1-8,6-13.4
			C370,110.6,371.6,111.1,373.3,111.2z M320.9,86c-1-0.7-1.5-1.9-1.5-3.4c0-3.6,2.8-7.4,6.2-8.4c1.4-0.5,2.6-0.3,3.8,0.5
			c-3.7,3.2-6.4,7.2-8,11.7L320.9,86z M358.3,125.5c0.2,1.5-0.5,2.6-1.5,3.5c-2.5,2.4-7.3,3-10.3,1.1c-1.3-0.7-2-1.9-2.2-3.1
			l-0.1-0.6C348.8,127.4,353.7,127.1,358.3,125.5z M360.4,119.6c-5.3,3-11.3,3.6-16.8,2c-5.5-1.6-10.4-5.1-13.5-10.5l-2.8-4.8
			c-3.1-5.4-3.6-11.5-2-16.9c1.5-5.5,5-10.4,10.3-13.4c3.7-2.2,8.5-0.7,10.7,3l16.9,29.8C365.5,112.6,364.1,117.4,360.4,119.6z"/>
	</g>
	<g>
		<g>
			<path class="st3" d="M207.2,334.1c-4,1.1-7.4,2.8-10.1,5.2h-5.7c-4.3,0-7.9,3.1-8.5,7.1c-8.6,1.9-14.4,11.7-16.5,27.2h3
				c1.8-13.2,6.6-21.9,13.3-24v4.2c-3.8,1.8-7.9,6.9-9.8,19.8h2.9c1.5-10.2,4.4-14.6,6.9-16.6v0.1c0,3.5,2.3,6.3,5.1,6.6v9.9h3.1
				v-8.4c-0.1-20.9,9.6-26,17-28c0.8-0.2,1.6-0.4,2.5-0.5c0.8,3,4.3,5.2,8.5,5.2c4.3,0,7.8-2.2,8.5-5.3c1.3,0.1,2.4,0.4,3.3,0.7
				c8.7,2.3,16.9,7.2,17.1,27.6l0.1,8.7h3l-0.1-9v-0.9c2.8-0.4,5-3.2,5-6.6v-1.3c8.7-1.4,17.5-9.7,18-29c1.8-0.4,3.3-1.9,3.3-3.9
				c0-1.1-0.4-2.1-1.1-2.9c-0.2-0.2-0.4-0.4-0.7-0.5c1.8-3.2,1.3-6.1-1.8-9.3c-0.6-0.6-1.5-0.6-2.1,0c-0.6,0.6-0.6,1.5,0,2.1
				c2.4,2.4,2.7,4.1,0.8,6.5l-6.1-0.1c-1.6-2.4-1.3-4.1,1-6.4c0.6-0.6,0.6-1.5,0.1-2.1c-0.6-0.6-1.5-0.6-2.1-0.1
				c-3,2.9-3.8,5.8-2.1,9c-1.2,0.7-2.1,1.9-2.1,3.4c0,1.1,0.4,2.1,1.1,2.9c0.6,0.7,1.4,1,2.3,1.2c-0.8,15.2-5.2,17.8-8.7,19
				c-0.8-3.8-4.3-6.7-8.4-6.7h-5.1c-3.2-2.7-6.9-4.2-10.6-5.2c-1.1-0.3-2.4-0.5-3.9-0.7v-0.2h12.9c10.8,0,19.5-9.8,19.5-21.9
				c0-10.6-6.8-19.5-15.8-21.4c-0.5-2.5-2.8-4.6-5.7-5.1v-9.8c1.9-0.7,3.4-2.4,3.4-4.6c0-2.7-2.2-4.9-4.9-4.9s-4.9,2.2-4.9,4.9
				c0,2.1,1.4,4,3.4,4.6v10.1c-2.7,0.5-4.9,2.4-5.5,4.7h-21.4c-0.7-2.4-2.8-4.2-5.5-4.7v-10.1c1.9-0.7,3.4-2.4,3.4-4.6
				c0-2.7-2.2-4.9-4.9-4.9c-2.7,0-4.9,2.2-4.9,4.9c0,2.1,1.4,4,3.4,4.6v10.1c-2.9,0.5-5.1,2.5-5.7,5.1c-9,2-15.8,10.9-15.8,21.4
				c0,12.1,8.8,21.9,19.6,21.9h12v0.3C209.2,333.5,208.2,333.8,207.2,334.1z M188,360.9c-1.3-0.3-2.3-1.8-2.3-3.6c0-0.1,0-9.7,0-9.7
				c0-3,2.5-5.3,5.7-5.3h2.8C190.6,346.8,188.5,352.9,188,360.9z M264.2,323.6c-0.2-0.2-0.3-0.4-0.3-0.8c0-0.6,0.5-1,1.1-1l8,0.1
				c0.3,0,0.6,0.1,0.8,0.4c0.2,0.2,0.3,0.4,0.3,0.8c0,0.6-0.5,1-1.1,1l-8-0.1C264.7,323.9,264.4,323.8,264.2,323.6z M255.8,348.9
				c5.1-1.7,10.6-5.1,11.5-22h3.5c-0.4,17-7.7,24.4-15,25.8V348.9z M247.2,342.3c3.1,0,5.7,2.4,5.7,5.3v9.7c0,1.7-1,3.3-2.1,3.5
				c-0.6-8.7-2.8-14.6-5.8-18.4H247.2z M224.7,335.1c0,1.9-2.6,3.6-5.7,3.6s-5.8-1.7-5.8-3.6v-1.9h11.5V335.1z M235.3,270.2
				c0-1,0.9-1.9,1.9-1.9s1.9,0.9,1.9,1.9c0,1-0.9,1.9-1.9,1.9S235.3,271.3,235.3,270.2z M237.2,287.6c1.7,0,3.1,0.7,3.8,1.8h-7.6
				C234.1,288.4,235.6,287.6,237.2,287.6z M199.7,270.2c0-1,0.9-1.9,1.9-1.9s1.9,0.9,1.9,1.9c0,1-0.9,1.9-1.9,1.9
				C200.5,272.1,199.7,271.3,199.7,270.2z M201.7,287.6c1.6,0,3.1,0.7,3.8,1.8h-7.6C198.5,288.4,200,287.6,201.7,287.6z
				 M198.2,330.3c-9.2,0-16.6-8.5-16.6-18.9s7.5-18.9,16.6-18.9h42.4c9.2,0,16.6,8.5,16.6,18.9c0,10.4-7.5,18.9-16.6,18.9H198.2z"/>
			<path class="st3" d="M202.4,373.5c0-0.3,0-0.6,0-0.8c0-6.2,3.6-11.2,8.2-11.2h18c4.5,0,8.2,5,8.2,11.2c0,0.3,0,0.6,0,0.8h3
				c0-0.3,0-0.6,0-0.8c0-7.7-5-14.1-11.2-14.1h-18c-6.2,0-11.2,6.4-11.2,14.1c0,0.3,0,0.6,0,0.8H202.4z"/>
			<path class="st3" d="M201.8,304.2c-3,0-5.5,2.4-5.5,5.5c0,3,2.4,5.5,5.5,5.5c3,0,5.5-2.4,5.5-5.5S204.8,304.2,201.8,304.2z
				 M201.8,312.1c-1.4,0-2.5-1.1-2.5-2.5s1.1-2.5,2.5-2.5s2.5,1.1,2.5,2.5S203.2,312.1,201.8,312.1z"/>
			<path class="st3" d="M237.5,304.2c-3,0-5.5,2.4-5.5,5.5c0,3,2.4,5.5,5.5,5.5c3,0,5.5-2.4,5.5-5.5
				C242.9,306.6,240.5,304.2,237.5,304.2z M237.5,312.1c-1.4,0-2.5-1.1-2.5-2.5s1.1-2.5,2.5-2.5s2.5,1.1,2.5,2.5
				C239.9,311,238.8,312.1,237.5,312.1z"/>
			<path class="st3" d="M225.6,313.2h-11.9c-0.8,0-1.5,0.7-1.5,1.5c0,3.6,3.3,6.6,7.5,6.6c4.1,0,7.5-3,7.5-6.6
				C227.1,313.9,226.4,313.2,225.6,313.2z M219.6,318.3c-1.8,0-3.4-0.9-4.1-2.1h8.2C223,317.4,221.5,318.3,219.6,318.3z"/>
		</g>
		<path class="st3" d="M252.9,311.4c0-9.2-3.8-14.3-10.7-14.3h-45.5c-6.2,0-10.7,6.1-10.7,14.3c0,8.6,4.3,14.3,10.7,14.3h45.4
			C249,325.7,252.9,320.6,252.9,311.4z M188.9,311.4c0-5.7,2.7-11.4,7.8-11.4h45.4c5.2,0,7.8,3.8,7.8,11.4c0,7.5-2.6,11.4-7.8,11.4
			h-45.4C191,322.7,188.9,316.5,188.9,311.4z"/>
	</g>
	<g id="Layer_3">
		<g id="Bot_33_1_">
			<path class="st3" d="M247.2,8.9l-4-8.9h-5l3.7,8.2c-0.9,0-1.8,0.1-2.6,0.2h-0.5c-0.8,0.1-1.7,0.3-2.5,0.6l-0.5,0.2
				c-0.8,0.2-1.5,0.5-2.2,0.9h-0.2c-0.8,0.4-1.5,0.8-2.2,1.3l-0.3,0.2L223.6,0h-5.3l9.1,14.6c-3.5,3.7-5.4,8.5-5.5,13.7
				c0,1,0.1,2,0.3,2.9l-32.4,31c-0.4,0-0.8-0.2-1.1-0.2l-0.1-29.3c1-0.1,1.9-0.4,2.8-0.7h0.3c8.1-3,12.2-12,9.2-20.1
				c-1.1-2.9-2.9-5.3-5.4-7.1c-1.3-0.9-3-1.1-4.4-0.3c-1.5,0.7-2.5,2.2-2.6,3.9v8.6c0,0.7-0.3,1.4-0.8,1.9c-0.4,0.4-1,0.6-1.5,0.6
				c-0.4,0-0.7-0.1-1-0.3c-0.6-0.4-1-1.1-1-1.9V8.4c0-1.7-1-3.2-2.5-4c-0.6-0.3-1.3-0.4-2-0.4c-0.9,0-1.8,0.3-2.6,0.9
				c-6.9,5.1-8.3,15-3.2,21.9c1.8,2.4,4.3,4.3,7.1,5.3c1,0.4,2.1,0.6,3.1,0.7l0.1,29.4c-8.5,1.2-14.4,9.1-13.1,17.7
				c1.2,8.5,9.1,14.5,17.6,13.2c7.7-1.1,13.3-7.7,13.3-15.5v-1.8l35.2-28c1.6,0.4,3.2,0.6,4.8,0.6c11,0,20-9,20-20.1
				C262,19.3,255.9,11.2,247.2,8.9z M182.7,27.9h-0.1c-5.8-2-8.8-8.4-6.8-14.3c0.7-2.1,2.1-3.9,3.8-5.2v8.9c0,3.5,2.7,6.4,6.3,6.6
				c1.8,0.1,3.5-0.5,4.8-1.8c1.4-1.3,2.2-3.2,2.2-5.2V8.3c4.9,3.6,6,10.6,2.4,15.6c-1.3,1.7-3.1,3.1-5.1,3.8H190
				c-1.1,0.4-2.4,0.7-3.6,0.7C185.2,28.5,183.9,28.3,182.7,27.9z M186.5,88.8c-6.1,0-11.1-4.9-11.1-11.1c0-5.3,3.7-9.9,8.9-10.9v8.7
				c0,1.2,1,2.2,2.2,2.2s2.2-1,2.2-2.2v-8.6c0.4,0.1,0.8,0.2,1.1,0.3c0.5,0.1,0.9,0.3,1.4,0.5c3.2,1.5,5.5,4.4,6.2,7.8
				c0.2,0.7,0.2,1.5,0.2,2.2C197.6,83.8,192.6,88.8,186.5,88.8z M200.6,71.1l-0.2-0.3c-0.2-0.4-0.4-0.8-0.7-1.2
				c-0.2-0.4-0.3-0.4-0.4-0.7c-0.3-0.5-0.7-1-1.1-1.4l-0.2-0.3c-0.5-0.5-1-1-1.6-1.5l-0.5-0.4c-0.4-0.3-0.8-0.6-1.3-0.9l-0.2-0.2
				l29.1-27.9c0.2,0.4,0.4,0.8,0.6,1.2v0.2c0.4,0.7,0.8,1.3,1.2,2l0.3,0.4c0.4,0.6,0.9,1.2,1.4,1.8l1.6,1.6l0.4,0.3
				c0.6,0.5,1.2,1,1.9,1.4l0.3,0.2l1,0.6L200.6,71.1z M257.2,31.5c-1.5,7.3-7.9,12.6-15.3,12.6c-1.6,0-3.1-0.2-4.6-0.7
				c-5.4-1.7-9.4-6.1-10.6-11.7c-0.2-1.1-0.4-2.2-0.4-3.3c0-4.5,2-8.8,5.3-11.8c3.4-2.9,7.8-4.3,12.2-3.7l1.2,0.2
				C253.4,14.8,258.9,23.1,257.2,31.5z"/>
			<path class="st3" d="M238.6,39.1c1.1,0.3,2.2,0.5,3.3,0.5c6.1,0,11.1-5,11.1-11.1c0-5.3-3.7-9.8-8.8-10.9
				c-0.8-0.2-1.6-0.2-2.4-0.2c-2.7,0-5.3,1-7.3,2.8c-2.4,2.1-3.8,5.2-3.8,8.4c0,0.8,0.1,1.6,0.3,2.4
				C231.9,34.6,234.8,37.9,238.6,39.1z M237.5,23.4c1.6-1.4,3.8-1.9,5.9-1.5c3.6,0.9,5.7,4.6,4.8,8.1c-0.7,2.9-3.3,4.9-6.2,5
				c-0.7,0-1.4-0.1-2-0.3c-2.3-0.7-4-2.6-4.5-4.9c-0.1-0.5-0.2-0.9-0.2-1.4C235.2,26.4,236,24.6,237.5,23.4L237.5,23.4z"/>
		</g>
	</g>
	<g id="Bot_33_2_">
		<path class="st3" d="M88.4,225.8c4.6-2.4,6.2-8,3.7-12.5c-2.5-4.6-8.2-6.1-12.7-3.7c-4.6,2.4-6.2,8-3.7,12.5
			C78.2,226.7,83.8,228.3,88.4,225.8z M81.2,212.8c2.8-1.5,6.1-0.6,7.6,2.2c1.6,2.8,0.6,6-2.2,7.5s-6.1,0.6-7.6-2.2
			C77.4,217.6,78.3,214.4,81.2,212.8z"/>
		<path class="st3" d="M97.3,261c2.5,4.6,8.2,6.1,12.7,3.7c4.6-2.4,6.2-8,3.7-12.5c-2.5-4.6-8.2-6.1-12.7-3.7
			C96.4,251,94.8,256.4,97.3,261z M110.5,253.9c1.6,2.8,0.6,6-2.2,7.5c-2.8,1.5-6.1,0.6-7.6-2.2c-1.6-2.8-0.6-6,2.2-7.5
			C105.6,250.2,109,251.1,110.5,253.9z"/>
		<path class="st3" d="M40.7,213.5c-6.4,3.4-12.9,6.9-19.3,10.3c1.9,3.2,3.7,6.4,5.6,9.6c6.4-3.4,12.8-6.9,19.2-10.3l3.6,6.5
			c-3.6,2.3-6.7,5.3-8.9,9.1c-2.8,1.5-5.5,3-8.3,4.5c0.6,1.1,1.3,2.2,1.9,3.4c1.2-0.7,2.5-1.3,3.7-2l0,0.3c-0.2,0.5-0.3,1.3-0.5,1.8
			l0,0.3c-0.3,0.6-0.2,1.2-0.5,2l-0.1,0.7c0,0.1,0,0.2-0.1,0.3c-0.1,0.2-0.2,0.4-0.3,0.5c1.4,2.2,2.8,4.5,4.2,6.7
			c-0.2-0.8-0.3-1.6-0.4-2.4c-0.1-0.6-0.1-1.2-0.1-1.8c0.3-8.6,5.2-16.5,12.9-20.6l13.2-7.1l23.5,42.1l-13.2,7.1
			c-1.8,1-7.3,3.7-14.7,2.8c-7-0.9-11.6-4.6-13.2-6c1.3,2.3,2.6,4.5,3.9,6.8c0.1,0,0.1,0.1,0.2,0.1c0.1,0.1,0.2,0.1,0.2,0.2l0.6,0.3
			c0.6,0.3,1.4,0.5,2.2,0.7l0.4,0.2c0.5,0.3,1,0.5,1.8,0.7c-1,0.6-2.1,1.1-3.1,1.7c0.4,1,0.9,2,1.3,3c2.6-1.4,5.3-2.7,7.9-4.1
			c4.4,0.1,8.6-0.8,12.5-2.6l3.6,6.5l-18.5,10l5.5,9.8l18.5-10.1c2.9,4.8,9.4,6.4,14.3,3.2c4.8-2.6,6.2-8.9,3.4-13.7l-1.6-2.8
			c0.6-0.1,1.4-0.3,1.8-0.5l21.4-11.5c2.8-1.5,3.8-4.7,2.2-7.5l-36.2-64.8c-1.6-2.8-4.8-3.7-7.6-2.2l-21.4,11.5
			c-0.5,0.2-1.1,0.8-1.5,1.3l-1.6-2.8c-2.5-5-8.7-7.1-13.8-4.8C40.4,202.1,38.3,208.6,40.7,213.5z M26.2,229.9
			c-0.1-0.6-0.4-1-0.7-1.6c-0.3-0.5-0.5-1-1-1.4l-0.2-0.3l18.3-9.8l1.8,3.2L26.2,229.9z M65.3,299.5c-0.3-0.5-0.5-1-1-1.4l-0.1-0.2
			l18.3-9.9l1.8,3.2l-18.3,10C65.7,300.6,65.5,299.9,65.3,299.5z M100.4,285.7c1.7,3.1,0.5,7.1-2.5,8.8c-3.1,1.6-7.2,0.5-8.9-2.6
			l-8.6-15.3l11.5-6.2L100.4,285.7z M85.6,197.8c1-0.5,2-0.2,2.6,0.8l36.2,64.8c0.5,1,0.2,1.9-0.8,2.5l-21.4,11.5
			c-1,0.5-2,0.2-2.6-0.8l-36.2-64.8c-0.5-1-0.2-1.9,0.8-2.5L85.6,197.8z M56.1,206.3l8.6,15.3l-11.6,6.3l-8.5-15.3
			c-1.7-3.1-0.5-7.1,2.5-8.8C50.2,202.1,54.4,203.3,56.1,206.3z"/>
	</g>
	<g id="Layer_3_1_">
		<path class="st3" d="M219.6,248.5l-0.9-0.6c-0.8-0.5-18.9-12.5-18.9-23.2c0-7.7,5.4-11.6,10.8-11.6c3.5,0.1,6.8,1.6,9,4.4
			c2.2-2.7,5.5-4.4,9-4.4c5.4,0,10.8,4,10.8,11.6c0,10.8-18.1,22.7-18.9,23.2L219.6,248.5z"/>
	</g>
	<g id="Layer_2_1_">
		<text transform="matrix(1 0 0 1 133.1594 160.1549)" class="st3 st4 st5">REMOTE WORK</text>
		<text transform="matrix(1 0 0 1 175.0594 196.1549)" class="st3 st4 st5">IS NOW</text>
	</g>
	<g>
		<path class="st3" d="M341.2,234c-6.4-3.6-14.5-1.5-18.2,4.9c-3.7,6.4-1.5,14.5,4.9,18.1c6.4,3.6,14.5,1.5,18.2-4.9
			C349.9,245.6,347.6,237.5,341.2,234z M343,250.1c-2.6,4.5-8.4,6.2-13,3.5c-4.5-2.6-6.2-8.3-3.5-13c2.6-4.5,8.4-6.2,13-3.5
			C344.1,239.8,345.5,245.6,343,250.1z"/>
		<path class="st3" d="M357.1,225.4c2.6-4.5,1-10.3-3.5-13s-10.3-1-13,3.5c-2.7,4.5-1,10.3,3.5,13S354.4,230,357.1,225.4z
			 M343.9,217.9c1.6-2.8,5-3.7,7.8-2.1c2.8,1.6,3.7,5,2.1,7.8c-1.6,2.8-5,3.7-7.8,2.1C343.2,224.2,342.3,220.6,343.9,217.9z"/>
		<path class="st3" d="M332.9,246c0.3,1,1.4,1.6,2.4,1.3c1-0.3,1.6-1.4,1.3-2.4c-0.3-1-1.4-1.6-2.4-1.3
			C333.2,243.9,332.7,244.9,332.9,246z"/>
		<path class="st3" d="M372.8,282.5c0.5-0.8,0.8-1.8,0.8-2.9l-0.1-3.4c0.7,0.3,1.5,0.7,2.4,1c0.9,0.3,1.8,0.6,2.7,0.8
			c0.7-1.2,1.4-2.4,2.1-3.6c-0.9-0.1-2.1-0.3-3.4-0.8c-1.2-0.4-2.2-0.9-3-1.4l-0.6-0.4l0-22.9c-0.1-3.2-2.6-5.7-5.7-5.7
			c-3.2,0.1-5.7,2.6-5.7,5.7l0,16.4l-6.2-3.4c-2.8-1.6-3.7-5-2.1-7.8l11.3-19.8c1.6-2.8,5-3.7,7.8-2.1l18.2,10.3
			c2.1,1.2,3.8,2.7,5.2,4.5l1.9-3.3c-1.5-1.7-3.3-3.2-5.3-4.4l-18.2-10.3c-1.8-1-3.8-1.5-5.9-1.2l1.4-2.5c2.9-4.9,1.8-11.2-2.3-15.1
			l0.2-0.3c3.2-5.5,1.2-12.5-4.3-15.5c-5.5-3.2-12.5-1.2-15.5,4.3c-5.9-2.7-12.9-0.6-16,5.1l-21.6,37.9c-3.3,5.6-1.6,12.8,3.8,16.3
			c-3.2,5.5-1.2,12.5,4.3,15.5c5.5,3.2,12.5,1.2,15.5-4.3l0.2-0.3c5.4,1.6,11.4-0.7,14.2-5.7l1.4-2.5c0.9,1.9,2.2,3.4,4,4.5l8,4.5
			l0,6.5l-4.5,2.5c-5-5.4-13.5-5.6-18.8-0.7c-1.4,1.4-2.6,3-3.3,4.9c-0.5,1.3-0.3,2.8,0.7,3.8c0.9,1.1,2.5,1.5,3.9,1.1l7.3-2
			c1-0.3,2,0.3,2.4,1.3c0.1,0.1,0.1,0.2,0.1,0.2c0.1,1-0.6,1.9-1.6,2.2l-7.1,2c-1.4,0.3-2.4,1.5-2.7,2.9c-0.3,1.4,0.3,2.8,1.4,3.7
			c5.8,4.5,14.2,3.5,18.6-2.3c0.4-0.5,0.7-1,1.1-1.5c0.8-1.3,1.3-2.9,1.5-4.4l9.7-5.4C371.5,284.1,372.3,283.4,372.8,282.5z
			 M362,197.7c3.6,2.1,4.9,6.7,2.9,10.3l-13.2-7.5C353.7,196.9,358.4,195.7,362,197.7z M320.6,270.2c-3.6-2.1-4.9-6.7-2.9-10.3
			l13.2,7.5C328.9,271,324.2,272.3,320.6,270.2z M345.3,261.3c-2.4,4.1-7.6,5.5-11.7,3.2l-16.5-9.4c-4.1-2.4-5.6-7.5-3.2-11.7
			l21.6-37.9c2.4-4.1,7.6-5.5,11.7-3.2l16.5,9.4c4.1,2.4,5.6,7.5,3.2,11.7L345.3,261.3z M357,288.6c-0.5,5.2-5.1,9.1-10.4,8.6
			c-1.7-0.2-3.5-0.8-4.8-1.9l7.1-2c2.8-0.7,4.7-3.5,4.4-6.4c-0.5-3.1-3.4-5.2-6.5-4.8c-0.2,0-0.4,0.1-0.6,0.1l0,0.1l-7.3,2.1
			c1.9-4.8,7.4-7.3,12.4-5.3c1.6,0.7,3.1,1.8,4.1,3.3c0.6,0.9,1.2,1.9,1.4,3C357.1,286.4,357.2,287.6,357,288.6z M360.5,284.3
			c-0.2-0.8-0.5-1.5-0.9-2.3l4.2-2.4c1.2-0.7,1.9-2,2-3.3l0-7.5l-0.1-19.7c0-1,0.9-2,1.9-1.9c1,0,2,0.9,1.9,1.9l0,11.4l0,12.5l0,6.5
			c0,0.7-0.4,1.3-1,1.6l-7.8,4.4C360.7,285.3,360.7,284.7,360.5,284.3z"/>
		<path class="st3" d="M381.1,274.2"/>
	</g>
	<path class="st3" d="M54.7,283.5"/>
	<path class="st3" d="M61.2,81.2"/>
</g>
</svg>
