<svg id="Layer_1" data-name="Layer 1" xmlns="http://www.w3.org/2000/svg" viewBox="0 0 431.3 373.8"><defs><style>.cls-1{fill:#02c9fb;}.cls-2{fill:#fff;}.cls-3{isolation:isolate;}</style></defs><title>Artboard 1</title><g id="Layer_5" data-name="Layer 5"><polygon class="cls-1" points="70.3 269.8 119.2 354.5 312.7 354.5 361.5 269.9 374.9 284.4 323.4 373.5 107.8 373.5 56.5 284.7 70.3 269.8"/><polygon class="cls-1" points="51.4 237 22.4 186.8 119.2 19 312.7 19 409.5 186.8 380.2 237.5 393.7 251.7 431.3 186.7 323.4 0 107.8 0 0 186.7 37.5 251.6 51.4 237"/></g><g id="Layer_3" data-name="Layer 3"><rect class="cls-1" x="111.1" y="12" width="210.5" height="351.3"/><rect class="cls-1" x="113.67" y="9.71" width="210.49" height="362.68" transform="translate(-56.55 283.48) rotate(-59.66)"/><rect class="cls-1" x="30.9" y="85.8" width="362.69" height="210.5" transform="translate(-67.09 131.72) rotate(-30)"/></g><g id="Family"><g id="Dots"><circle class="cls-2" cx="297.6" cy="174" r="1.9"/><circle class="cls-2" cx="297.7" cy="166.7" r="1.9"/><circle class="cls-2" cx="297.8" cy="160.1" r="1.9"/></g></g><g id="Bot_33" data-name="Bot 33"><path class="cls-2" d="M89.4,126.8a36.4,36.4,0,0,0-9.5,71.6l28.6,64.5a59.6,59.6,0,0,0-11.6,13.9,7.6,7.6,0,0,0,0,8.2,8,8,0,0,0,7,4h84.3a8.07,8.07,0,0,0,7-4,9.11,9.11,0,0,0,0-8.2,57.32,57.32,0,0,0-41.9-28l-37.6-60.6a36.26,36.26,0,0,0,10.1-24.8,18.76,18.76,0,0,0-.6-5.3l59.3-56.2a6.12,6.12,0,0,1,2.1.6v53.2a18.33,18.33,0,0,0-5,1.2H181a28.16,28.16,0,0,0-16.9,36.3,27.07,27.07,0,0,0,9.8,13,8.07,8.07,0,0,0,8.2.7,7.91,7.91,0,0,0,4.7-7V184.2a5.19,5.19,0,0,1,1.6-3.6,4,4,0,0,1,2.8-1,2.7,2.7,0,0,1,1.9.6,3.79,3.79,0,0,1,1.9,3.4v16.2a8.46,8.46,0,0,0,4.6,7.4,7,7,0,0,0,3.7.9,7.62,7.62,0,0,0,4.7-1.6,28.2,28.2,0,0,0-7.1-49.3h0a27.21,27.21,0,0,0-5.8-1.3V102.5a28.36,28.36,0,0,0,24-32.2C217,54.6,202.2,43.8,186.6,46a28.1,28.1,0,0,0-24.3,28.2v3.4L98,128A32.42,32.42,0,0,0,89.4,126.8Zm98.7,154.1H103.8A46.54,46.54,0,0,1,116,267a47.64,47.64,0,0,1,30.1-10.4c1.3,0,3,0,4.4.1A49.16,49.16,0,0,1,188.1,280.9Zm-46-32.4h-1.3l-3.1.3h-1a25.85,25.85,0,0,0-4,.9l-.9.1-3.4,1-1.3.6-2.8,1-1.3.6-2.8,1.3-1,.6c-1.2.7-2.2,1.3-3.6,2.1L89.8,199.6h0a37.08,37.08,0,0,0,4.7-.3h.9a25.25,25.25,0,0,0,4.6-1l.9-.3c1.3-.6,2.8-1,4-1.6h.3a31.13,31.13,0,0,0,4-2.2l.6-.3,34.1,54.5-1.8.1ZM108,184.6a28.7,28.7,0,0,1-22.4,6.7l-2.2-.3a28.34,28.34,0,0,1,5.9-56.1,27.1,27.1,0,0,1,8.4,1.2,28.17,28.17,0,0,1,19.3,21,39.55,39.55,0,0,1,.7,5.9A28.31,28.31,0,0,1,108,184.6Zm89.4-20.2h0a20.19,20.19,0,0,1,12.5,25.8,20.79,20.79,0,0,1-7,9.5V183.5a12.16,12.16,0,0,0-11.4-12.2,11.94,11.94,0,0,0-8.7,3.1,12.54,12.54,0,0,0-4,9.5v15.9a20.17,20.17,0,0,1-4.2-28.3,20.4,20.4,0,0,1,9.3-7h.3a16,16,0,0,1,6.5-1.2,20.41,20.41,0,0,1,6.7,1.1ZM190.7,53.8A20.67,20.67,0,0,1,211.2,74,20.42,20.42,0,0,1,195,93.9V78.1a4,4,0,0,0-8,0V94a9.65,9.65,0,0,1-2.1-.6,14.47,14.47,0,0,1-2.5-1,20.68,20.68,0,0,1-11.3-14.2,18.44,18.44,0,0,1-.6-4A20.19,20.19,0,0,1,190.7,53.8ZM164.8,85.9l.3.6c.3.7.9,1.6,1.2,2.2a2.56,2.56,0,0,1,.7,1.2c.6.9,1.2,1.8,1.9,2.7l.6.6c.9,1,1.9,1.9,2.8,2.8l.9.7a23.91,23.91,0,0,0,2.2,1.6l.3.3-52.9,50.5c-.3-.7-.7-1.6-1-2.2v-.3c-.7-1.2-1.3-2.5-2.1-3.7l-.6-.7c-.9-1.2-1.8-2.2-2.7-3.4h0a26.82,26.82,0,0,0-3-2.8l-.7-.6a21.28,21.28,0,0,0-3.4-2.5l-.6-.3-1.5-1Z"/><path class="cls-2" d="M95.3,144.1a20.33,20.33,0,1,0-10.6,39.2c1.3.3,2.8.3,4.2.6a20.18,20.18,0,0,0,20.3-20.2,12.56,12.56,0,0,0-.6-4.2A18.76,18.76,0,0,0,95.3,144.1Zm2.1,28.2a12.08,12.08,0,1,1-7.9-21.5,9.58,9.58,0,0,1,3.7.6,12.3,12.3,0,0,1,8.2,8.9,24.77,24.77,0,0,1,.3,2.7,12.45,12.45,0,0,1-4.3,9.3Z"/></g><g id="Bot_33-2" data-name="Bot 33"><path class="cls-2" d="M291.4,200.5a8.9,8.9,0,0,0-17.8,0,8.79,8.79,0,0,0,8.9,8.9A9.12,9.12,0,0,0,291.4,200.5Zm-14.1,0a5.27,5.27,0,0,1,5.3-5.3,5.34,5.34,0,0,1,5.3,5.3,5.27,5.27,0,0,1-5.3,5.3A5.4,5.4,0,0,1,277.3,200.5Z"/><path class="cls-2" d="M283.8,201.8a1.77,1.77,0,1,0-2.5,0,2.26,2.26,0,0,0,1.3.6C283.1,202.1,283.5,202,283.8,201.8Z"/><path class="cls-2" d="M312.6,211a10.5,10.5,0,1,0-10.5-10.5C301.8,206.3,306.7,211,312.6,211Zm0-3.5a6.86,6.86,0,0,1-6.7-5.3h13.6C318.4,205.2,315.6,207.5,312.6,207.5Zm0-14.2a6.86,6.86,0,0,1,6.7,5.3H305.7A7.08,7.08,0,0,1,312.6,193.3Z"/><path class="cls-2" d="M305.4,228.5H300a3.42,3.42,0,0,0-3.5,3.5v15.8a3.42,3.42,0,0,0,3.5,3.5h10.5a3.42,3.42,0,0,0,3.5-3.5V232a3.42,3.42,0,0,0-3.5-3.5Zm-5.2,3.7h3.5V248h-3.5ZM310.7,248h-3.5V232.2h3.5Z"/><path class="cls-2" d="M291.4,233.8h-1.8v-3.5a1.86,1.86,0,0,0-1.8-1.8,1.79,1.79,0,0,0-1.8,1.8v3.5h-1.8a1.8,1.8,0,0,0,0,3.6H286v12.3a1.86,1.86,0,0,0,1.8,1.8,1.79,1.79,0,0,0,1.8-1.8V237.5h1.8a1.86,1.86,0,0,0,1.8-1.8A1.82,1.82,0,0,0,291.4,233.8Z"/><path class="cls-2" d="M328.4,261.9a3.42,3.42,0,0,0-3.5,3.5V276a1.86,1.86,0,0,0,1.8,1.8,14.15,14.15,0,0,0,14.1-14.1,1.86,1.86,0,0,0-1.8-1.8h-5.3v-3.5a3.42,3.42,0,0,0,3.5-3.5V242.6a3.42,3.42,0,0,0-3.5-3.5h-.1c-.9-7.3-7.6-9.9-12.2-10.5v-3.7h5.3a3.42,3.42,0,0,0,3.5-3.5v-6l7-4.3a3.72,3.72,0,0,0,1.8-3v-10a3.24,3.24,0,0,0-2.2-3.2l-6.6-2.7v-4a3.42,3.42,0,0,0-3.5-3.5H270.3a3.42,3.42,0,0,0-3.5,3.5v4l-6.6,2.7a3.43,3.43,0,0,0-2.2,3.2v10a3.65,3.65,0,0,0,1.8,3.1l7,4.3v5.9a3.42,3.42,0,0,0,3.5,3.5h5.3v3.7c-4.6.6-11.3,3.1-12.2,10.5H263a3.42,3.42,0,0,0-3.5,3.5v12.3a3.42,3.42,0,0,0,3.5,3.5v3.5h-5.3a1.86,1.86,0,0,0-1.8,1.8A14.15,14.15,0,0,0,270,277.8a1.86,1.86,0,0,0,1.8-1.8V265.5a3.42,3.42,0,0,0-3.5-3.5h-1.8v-3.5h1.8a3.42,3.42,0,0,0,3.5-3.5V242.7a3.42,3.42,0,0,0-3.5-3.5h-1.5c.9-5.1,5.9-6.5,8.7-6.9v24.5a1.86,1.86,0,0,0,1.8,1.8h3.5v5.3a3.42,3.42,0,0,0-3.5,3.5v3.5a3.42,3.42,0,0,0,3.5,3.5v5.3h-4.3a3.26,3.26,0,0,0-3.1,2l-1.8,3.5a3.68,3.68,0,0,0,1.5,4.7,3.81,3.81,0,0,0,1.5.5h16.5a3.42,3.42,0,0,0,3.5-3.5v-3.8a3.42,3.42,0,0,0-3.5-3.5v-5.3a3.42,3.42,0,0,0,3.5-3.5v-3.5a3.42,3.42,0,0,0-3.5-3.5v-5.3h14.1v5.3a3.42,3.42,0,0,0-3.5,3.5v3.5a3.42,3.42,0,0,0,3.5,3.5v5.3a3.42,3.42,0,0,0-3.5,3.5v3.5a3.42,3.42,0,0,0,3.5,3.5h16.5a3.42,3.42,0,0,0,3.5-3.5,2,2,0,0,0-.5-1.5l-1.8-3.5a3.36,3.36,0,0,0-3.1-2h-4.3v-5.3a3.42,3.42,0,0,0,3.5-3.5v-3.5a3.42,3.42,0,0,0-3.5-3.5v-5.3H319a1.86,1.86,0,0,0,1.8-1.8V232c2.7.5,7.7,1.8,8.7,6.9H328a3.42,3.42,0,0,0-3.5,3.5v12.3a3.42,3.42,0,0,0,3.5,3.5h1.8v3.5l-1.4.2Zm-59.9,3.6v8.7a10.74,10.74,0,0,1-8.7-8.7Zm0-10.5h-5.3V242.7h5.3Zm66.9-56.9v10l-5.3,3.2V196Zm-73.9,10.1v-10l5.3-2.1v15.4Zm8.7,6.2V188h56.4v5.3h0v21h0v7H314.1a10.54,10.54,0,0,0-10.4-8.9H293.2a10.54,10.54,0,0,0-10.4,8.9H270.2v-6.9Zm40.2,7.1H286.3a7.17,7.17,0,0,1,6.9-5.3h10.5A7,7,0,0,1,310.4,221.5Zm-19,65.1H274.9l1.8-3.5h14.7v3.5Zm-3.5-6.9h-3.5v-5.3h3.5Zm3.5-8.9H280.9v-3.5h10.5Zm-3.5-7h-3.5v-5.3h3.5Zm34,22.8H305.4v-3.5h14.8Zm-9.3-6.9H309v-5.3h3.5v5.3Zm3.4-8.9H305.5v-3.5H316Zm-3.4-7H309v-5.3h3.5v5.3Zm5-8.8H279V225h38.6Zm10.8-12.3h5.3V255h-5.3Zm8.5,22.8a10.74,10.74,0,0,1-8.7,8.7v-8.7Z"/></g><g id="Layer_3-2" data-name="Layer 3"><path class="cls-2" d="M219.4,356.5l-1.1-.7c-.9-.6-22.1-14.6-22.1-27.2,0-9,6.3-13.6,12.7-13.6a13.68,13.68,0,0,1,10.5,5.1,13.93,13.93,0,0,1,10.5-5.2c6.3,0,12.7,4.7,12.7,13.6,0,12.6-21.2,26.6-22.1,27.2Z"/></g><g class="cls-3"><path class="cls-2" d="M227.38,115.59v-1.41c0-.25-.13-.37-.42-.37h-.62c-.28,0-.42.12-.42.37v6.26c0,.25.14.37.42.37H227c.29,0,.42-.12.42-.37v-1.82h-.85v-1.89h3.83v3.93c0,1.27-.68,2.11-2.5,2.11h-2.42c-1.82,0-2.5-.84-2.5-2.11V114c0-1.27.68-2.11,2.5-2.11h2.42c1.82,0,2.5.84,2.5,2.11v1.63Z"/><path class="cls-2" d="M238.24,120.64v2.13h-6.69V111.85h6.54V114h-3.57v2.22h3.08v2.13h-3.08v2.31Z"/><path class="cls-2" d="M245.76,114h-2.11v8.79h-3V114h-2.09v-2.13h7.18Z"/><path class="cls-2" d="M253.92,120.4l-1.34-4.54v6.91h-2.66V111.85h3.25l1.77,5.83,1.77-5.83H260v10.92h-2.63v-6.94L256,120.4Z"/><path class="cls-2" d="M268,120.64v2.13h-6.7V111.85h6.55V114h-3.57v2.22h3.07v2.13h-3.07v2.31Z"/><path class="cls-2" d="M278.92,114h-2.1v8.79h-3V114h-2.09v-2.13h7.17Z"/><path class="cls-2" d="M287.68,111.85v10.92h-2.93v-4.32h-2.14v4.32h-2.92V111.85h2.92v4.47h2.14v-4.47Z"/><path class="cls-2" d="M295.74,120.64v2.13H289V111.85h6.54V114H292v2.22h3.08v2.13H292v2.31Z"/><path class="cls-2" d="M306.65,114h-2.11v8.79h-3V114h-2.09v-2.13h7.17Z"/><path class="cls-2" d="M312.38,111.85c1.82,0,2.5.84,2.5,2.11v6.7c0,1.27-.68,2.11-2.5,2.11h-2.52c-1.82,0-2.49-.84-2.49-2.11V114c0-1.27.67-2.11,2.49-2.11Zm-.48,2.5c0-.25-.13-.37-.42-.37h-.72c-.28,0-.42.12-.42.37v5.92c0,.25.14.37.42.37h.72c.29,0,.42-.12.42-.37Z"/><path class="cls-2" d="M321.15,111.85c1.82,0,2.5.84,2.5,2.11v6.7c0,1.27-.68,2.11-2.5,2.11h-2.51c-1.82,0-2.5-.84-2.5-2.11V114c0-1.27.68-2.11,2.5-2.11Zm-.47,2.5c0-.25-.14-.37-.43-.37h-.71c-.29,0-.43.12-.43.37v5.92c0,.25.14.37.43.37h.71c.29,0,.43-.12.43-.37Z"/><path class="cls-2" d="M331.32,120.64v2.13H325V111.85h3v8.79Z"/><path class="cls-2" d="M337,111.85c1.81,0,2.49.84,2.49,2.11v1.39c0,.89-.15,1.57-.81,1.92.66.29.81.89.81,1.76v1.63c0,1.27-.68,2.11-2.49,2.11h-5V111.85Zm-.43,2.33c0-.25-.14-.37-.43-.37h-1.22v2.51h1.22c.29,0,.43-.12.43-.37Zm0,4.47c0-.25-.14-.37-.43-.37h-1.22v2.53h1.22c.29,0,.43-.12.43-.37Z"/><path class="cls-2" d="M345.73,111.85c1.82,0,2.5.84,2.5,2.11v6.7c0,1.27-.68,2.11-2.5,2.11h-2.51c-1.82,0-2.5-.84-2.5-2.11V114c0-1.27.68-2.11,2.5-2.11Zm-.47,2.5c0-.25-.14-.37-.43-.37h-.71c-.29,0-.43.12-.43.37v5.92c0,.25.14.37.43.37h.71c.29,0,.43-.12.43-.37Z"/><path class="cls-2" d="M357.72,122.77h-3.35l-1.17-3.06L352,122.77h-3.16l2.67-5.55-2.6-5.37h3.36l.91,2.79.91-2.79h3.2l-2.43,5.37Z"/><path class="cls-2" d="M358.4,120h2.92v2.79H358.4Z"/></g><g class="cls-3"><path class="cls-2" d="M226,126.25v10.92h-3V126.25Z"/><path class="cls-2" d="M233.94,128.38h-2.11v8.79h-3v-8.79h-2.09v-2.13h7.17Z"/><path class="cls-2" d="M237.48,126.25v4.52h-2.77v-4.52Z"/><path class="cls-2" d="M243,133.12c0-.26-.14-.37-.42-.37H241c-1.76,0-2.29-.87-2.29-2.15v-2.24c0-1.28.66-2.11,2.48-2.11h2.33c1.82,0,2.48.83,2.48,2.11v1.31h-3v-.92c0-.25-.14-.37-.43-.37h-.49c-.29,0-.43.12-.43.37v1.62c0,.25.14.37.43.37h1.6c1.76,0,2.33.8,2.33,2.07v2.25c0,1.27-.67,2.11-2.49,2.11H241.2c-1.82,0-2.5-.84-2.5-2.11v-1.31h3v.92c0,.25.13.37.42.37h.5c.28,0,.42-.12.42-.37Z"/><path class="cls-2" d="M257.16,128.38h-2.1v8.79h-3v-8.79H250v-2.13h7.17Z"/><path class="cls-2" d="M260.9,126.25v10.92h-3V126.25Z"/><path class="cls-2" d="M266.26,134.8l-1.34-4.54v6.91h-2.66V126.25h3.25l1.77,5.83,1.77-5.83h3.24v10.92h-2.63v-6.94l-1.36,4.57Z"/><path class="cls-2" d="M280.35,135v2.13h-6.7V126.25h6.55v2.13h-3.57v2.22h3.08v2.13h-3.08V135Z"/><path class="cls-2" d="M291.27,128.38h-2.11v8.79h-3v-8.79h-2.09v-2.13h7.18Z"/><path class="cls-2" d="M297,126.25c1.81,0,2.49.83,2.49,2.11v6.7c0,1.27-.68,2.11-2.49,2.11h-2.52c-1.82,0-2.5-.84-2.5-2.11v-6.7c0-1.28.68-2.11,2.5-2.11Zm-.48,2.5c0-.25-.14-.37-.43-.37h-.71c-.29,0-.42.12-.42.37v5.92c0,.25.13.37.42.37h.71c.29,0,.43-.12.43-.37Z"/><path class="cls-2" d="M309.42,135.53H306.8l-.35,1.64h-2.93l2.81-10.92H310l2.8,10.92h-3Zm-.46-2.1-.83-3.93-.87,3.93Z"/><path class="cls-2" d="M316.6,133.29h-.19v3.88h-3V126.25h5.05c1.82,0,2.5.83,2.5,2.11v2.82a1.83,1.83,0,0,1-1.46,2l2,4h-3.2Zm-.19-4.91v2.89h1.17c.29,0,.43-.12.43-.38v-2.14c0-.25-.14-.37-.43-.37Z"/><path class="cls-2" d="M326.51,130.33v-1.75c0-.25-.14-.37-.43-.37h-.59c-.29,0-.43.12-.43.37v6.26c0,.25.14.37.43.37h.59c.29,0,.43-.12.43-.37v-1.69h3v1.91c0,1.27-.68,2.11-2.5,2.11h-2.39c-1.82,0-2.5-.84-2.5-2.11v-6.7c0-1.28.68-2.11,2.5-2.11H327c1.82,0,2.5.83,2.5,2.11v2Z"/><path class="cls-2" d="M338.58,126.25v10.92h-2.93v-4.32h-2.14v4.32h-2.92V126.25h2.92v4.47h2.14v-4.47Z"/><path class="cls-2" d="M342.91,126.25v10.92h-3V126.25Z"/><path class="cls-2" d="M350.85,128.38h-2.11v8.79h-3v-8.79h-2.09v-2.13h7.17Z"/><path class="cls-2" d="M358.31,135v2.13h-6.69V126.25h6.54v2.13h-3.57v2.22h3.08v2.13h-3.08V135Z"/><path class="cls-2" d="M363.58,130.33v-1.75c0-.25-.13-.37-.42-.37h-.6c-.29,0-.42.12-.42.37v6.26c0,.25.13.37.42.37h.6c.29,0,.42-.12.42-.37v-1.69h3v1.91c0,1.27-.68,2.11-2.5,2.11h-2.4c-1.82,0-2.5-.84-2.5-2.11v-6.7c0-1.28.68-2.11,2.5-2.11h2.4c1.82,0,2.5.83,2.5,2.11v2Z"/><path class="cls-2" d="M374.24,128.38h-2.11v8.79h-3v-8.79h-2.09v-2.13h7.17Z"/><path class="cls-2" d="M375,134.38h2.92v2.79H375Z"/></g><g class="cls-3"><path class="cls-2" d="M229.39,149.44v2.12H223V140.65h3v8.79Z"/><path class="cls-2" d="M236.76,149.44v2.12h-6.69V140.65h6.54v2.13H233V145h3.08v2.13H233v2.31Z"/><path class="cls-2" d="M244.28,142.78h-2.11v8.78h-3v-8.78h-2.09v-2.13h7.17Z"/><path class="cls-2" d="M247.81,140.65v4.52H245v-4.52Z"/><path class="cls-2" d="M253.36,147.52c0-.26-.14-.37-.43-.37H251.3c-1.77,0-2.3-.87-2.3-2.15v-2.24c0-1.28.67-2.11,2.49-2.11h2.33c1.81,0,2.48.83,2.48,2.11v1.31h-3v-.92c0-.25-.13-.37-.42-.37h-.5c-.28,0-.42.12-.42.37v1.62c0,.25.14.37.42.37H254c1.77,0,2.33.8,2.33,2.07v2.25c0,1.27-.66,2.1-2.48,2.1h-2.31c-1.82,0-2.5-.83-2.5-2.1v-1.31h3v.92c0,.25.14.37.43.37h.49c.29,0,.43-.12.43-.37Z"/><path class="cls-2" d="M265.27,144.39V143c0-.25-.13-.37-.42-.37h-.61c-.29,0-.43.12-.43.37v6.26c0,.25.14.37.43.37h.61c.29,0,.42-.12.42-.37v-1.82h-.85v-1.89h3.83v3.93c0,1.27-.68,2.1-2.5,2.1h-2.41c-1.82,0-2.5-.83-2.5-2.1v-6.7c0-1.28.68-2.11,2.5-2.11h2.41c1.82,0,2.5.83,2.5,2.11v1.63Z"/><path class="cls-2" d="M276.14,149.44v2.12h-6.7V140.65H276v2.13h-3.57V145h3.08v2.13h-3.08v2.31Z"/><path class="cls-2" d="M283.65,142.78h-2.11v8.78h-3v-8.78h-2.09v-2.13h7.17Z"/><path class="cls-2" d="M294.39,142.78h-2.1v8.78h-3v-8.78h-2.09v-2.13h7.17Z"/><path class="cls-2" d="M300.12,140.65c1.82,0,2.5.83,2.5,2.11v6.7c0,1.27-.68,2.1-2.5,2.1h-2.51c-1.82,0-2.5-.83-2.5-2.1v-6.7c0-1.28.68-2.11,2.5-2.11Zm-.47,2.5c0-.25-.14-.37-.43-.37h-.71c-.29,0-.43.12-.43.37v5.92c0,.25.14.37.43.37h.71c.29,0,.43-.12.43-.37Z"/><path class="cls-2" d="M320.69,140.65l-2.31,10.91H315l-1.2-6.51-1.21,6.51h-3.42l-2.31-10.91h3.1l.91,7.35,1.46-7.35h2.91l1.46,7.35,1.09-7.35Z"/><path class="cls-2" d="M326.51,140.65c1.82,0,2.5.83,2.5,2.11v6.7c0,1.27-.68,2.1-2.5,2.1H324c-1.82,0-2.5-.83-2.5-2.1v-6.7c0-1.28.68-2.11,2.5-2.11Zm-.48,2.5c0-.25-.14-.37-.42-.37h-.72c-.29,0-.42.12-.42.37v5.92c0,.25.13.37.42.37h.72c.28,0,.42-.12.42-.37Z"/><path class="cls-2" d="M333.48,147.69h-.19v3.87h-3V140.65h5.05c1.82,0,2.5.83,2.5,2.11v2.82a1.83,1.83,0,0,1-1.46,2l2,4h-3.2Zm-.19-4.91v2.89h1.17c.29,0,.43-.12.43-.38v-2.14c0-.25-.14-.37-.43-.37Z"/><path class="cls-2" d="M339.05,140.65h3v10.91h-3Zm8.23,10.91h-3.2L342,146l2-5.34h3.19L345.14,146Z"/><path class="cls-2" d="M351.58,140.65l-.51,6.95h-2.33l-.51-6.95Zm-3.14,8.13h2.92v2.78h-2.92Z"/></g></svg>