<svg xmlns="http://www.w3.org/2000/svg" viewBox="0 0 41.01 60.01"><title>robot-engagements-crane-black</title><g id="f64bb5df-2d1c-4223-9ae3-9c8a3b71eddd" data-name="Layer 2"><circle cx="34.1" cy="7.16" r="5.83" style="fill:#02c9fb"/></g><g id="f1491f72-6f4b-4833-a302-d8686e7b0585" data-name="Layer 1"><g id="a765c8da-42ca-4333-9119-a202c4bc5ef7" data-name="ac670cd0-c07d-408f-bba3-fc74913616cb"><circle cx="8.97" cy="29.03" r="3.54" style="fill:#02c9fb;stroke:#000;stroke-miterlimit:10"/><ellipse cx="22.82" cy="55.14" rx="9.36" ry="3.93" style="fill:#02c9fb"/><rect x="11.98" y="56.28" width="21.96" height="2.63" style="fill:#02c9fb"/><rect x="13.55" y="55.31" width="19.45" height="3.13" style="fill:#02c9fb"/></g><g id="f17b503a-3928-4b03-a9b9-d5854f60767d" data-name="e5b7c1b4-d524-4ca6-81f7-930ce1ede984"><g id="a6ce9a44-820b-40bd-9926-1480e4f24ef8" data-name="fb0c0cfb-5be4-4366-b22d-caf552184f6a"><path d="M9,20A9,9,0,0,0,6.66,37.7l7,15.87A14,14,0,0,0,10.87,57a1.94,1.94,0,0,0,0,2,2,2,0,0,0,1.74,1H33.4a2,2,0,0,0,1.74-1,2,2,0,0,0,0-2,14,14,0,0,0-10.35-6.88l-9.26-15A9,9,0,0,0,18,29a8.4,8.4,0,0,0-.11-1.32L32.5,13.82a3.1,3.1,0,0,1,.51.11V27.08a6.22,6.22,0,0,0-1.27.32h-.13a7,7,0,0,0-1.76,12.2A2,2,0,0,0,33,38V34.14a1.27,1.27,0,0,1,.37-.86.92.92,0,0,1,.69-.26,1,1,0,0,1,.47.15A1,1,0,0,1,35,34v4a2,2,0,0,0,1.11,1.8A2.1,2.1,0,0,0,37,40a1.91,1.91,0,0,0,1.15-.38,7,7,0,0,0-1.74-12.19h0A6.9,6.9,0,0,0,35,27.1V13.93A7,7,0,1,0,27,7a5.75,5.75,0,0,0,0,.83L11.15,20.29A9.1,9.1,0,0,0,9,20ZM33.4,58H12.6a12,12,0,0,1,3-3.43A11.79,11.79,0,0,1,23,52a10,10,0,0,1,1.09.06A12,12,0,0,1,33.4,58ZM22,50h-.36l-.8.1h-.28a8.49,8.49,0,0,0-1,.22l-.2.06-.83.25-.34.12-.68.27-.34.15-.71.35-.25.13c-.29.16-.58.33-.86.52L9,38H9a7.85,7.85,0,0,0,1.19-.09h.23a8.13,8.13,0,0,0,1.11-.25l.21-.07a9.4,9.4,0,0,0,1-.39h.1a8.91,8.91,0,0,0,1-.57l.12-.07L22.37,50ZM13.62,34.28a7.12,7.12,0,0,1-5.49,1.66l-.55-.07a7,7,0,1,1,8.27-8.33A6.62,6.62,0,0,1,16,29,7,7,0,0,1,13.62,34.28Zm22-5h.05A5,5,0,0,1,37,38V34a3,3,0,0,0-2.81-3,2.88,2.88,0,0,0-2.18.8,3.18,3.18,0,0,0-1,2.32V38a5,5,0,0,1,1.25-8.71h.07a4.36,4.36,0,0,1,1.6-.29,4.77,4.77,0,0,1,1.71.29ZM34,2a5,5,0,0,1,1,9.9V8a1,1,0,1,0-2,0V11.9l-.51-.12a6.62,6.62,0,0,1-.62-.24A5,5,0,0,1,29.12,8,4.79,4.79,0,0,1,29,7,5,5,0,0,1,34,2ZM27.64,9.92l.07.13a6.12,6.12,0,0,0,.31.56l.18.3a6,6,0,0,0,.49.64l.11.14a7.6,7.6,0,0,0,.71.68l.23.17c.19.15.38.28.58.41l.09.07L17.3,25.5a5.77,5.77,0,0,0-.27-.56v-.09a7.27,7.27,0,0,0-.54-.89l-.13-.19a8.67,8.67,0,0,0-.65-.82h0a8,8,0,0,0-.73-.7l-.16-.14a10.1,10.1,0,0,0-.84-.62l-.13-.08-.43-.26Z" transform="translate(0 0)"/><path d="M10.51,24.24A5.1,5.1,0,0,0,9,24,5,5,0,0,0,8,33.9,5.37,5.37,0,0,0,9,34a5,5,0,0,0,5-5A4.72,4.72,0,0,0,13.89,28,5,5,0,0,0,10.51,24.24Zm.47,7a3.08,3.08,0,0,1-2.64.67A3,3,0,0,1,9,26a3.09,3.09,0,0,1,.91.14,3,3,0,0,1,2,2.23A3.42,3.42,0,0,1,12,29a3,3,0,0,1-1,2.26Z" transform="translate(0 0)"/></g></g></g></svg>