<svg id="bbcd0d22-2694-4200-8cc3-675162d18d34" data-name="Layer 1" xmlns="http://www.w3.org/2000/svg" viewBox="0 0 431.3 373.8"><title>Artboard 1</title><g id="eab727e2-8a6b-47ae-bcbe-18f36fdfdd0d" data-name="Layer 1"><g id="b576ce67-71fb-4982-ae73-93954f441425" data-name="Layer 5"><polygon points="70.3 269.8 119.2 354.5 312.7 354.5 361.5 269.9 374.9 284.4 323.4 373.5 107.8 373.5 56.5 284.7 70.3 269.8" style="fill:#02c9fb"/><polygon points="51.4 237 22.4 186.8 119.2 19 312.7 19 409.5 186.8 380.2 237.5 393.7 251.7 431.3 186.7 323.4 0 107.8 0 0 186.7 37.5 251.6 51.4 237" style="fill:#02c9fb"/></g><rect x="111.1" y="12" width="210.5" height="351.3" style="fill:#02c9fb"/><polygon points="9.3 189.1 114.3 8.6 423.5 190.7 318.5 371.2 9.3 189.1" style="fill:#02c9fb"/><rect x="30.9" y="85.8" width="362.69" height="210.5" transform="translate(-67.09 131.72) rotate(-30)" style="fill:#02c9fb"/><rect x="371.43" y="255.94" width="27.1" height="7.2" transform="translate(-33.26 461.14) rotate(-59.72)" style="fill:#02c9fb"/><rect x="369.87" y="277.05" width="12.5" height="3.4" transform="translate(-53.35 465.1) rotate(-60)" style="fill:#02c9fb"/><rect x="367.71" y="274.09" width="15.2" height="5.6" transform="translate(-52.14 463.47) rotate(-60)" style="fill:#02c9fb"/><rect x="373.7" y="272" width="2.2" height="0.8" style="fill:#02c9fb"/><rect x="379.65" y="272.51" width="2.7" height="0.8" transform="translate(-27.74 502.2) rotate(-64.91)" style="fill:#02c9fb"/><g id="aea33997-574b-40f4-9c97-08bd43ac1780" data-name="Bot 33"><path d="M102.6,99.5a8.92,8.92,0,1,0,9-15.4,8.86,8.86,0,0,0-12.2,3.2A9,9,0,0,0,102.6,99.5Zm7.1-12.1a5.26,5.26,0,0,1,1.9,7.2,5.35,5.35,0,0,1-7.2,1.9,5.27,5.27,0,0,1,5.3-9.1Z" style="fill:#fff"/><path d="M105.3,92.3a1.78,1.78,0,0,0,2.2,1.3,1.71,1.71,0,0,0,1.3-2.2,1.78,1.78,0,0,0-2.2-1.3,1.91,1.91,0,0,0-1.2.9C105.4,91.5,105.3,91.9,105.3,92.3Z" style="fill:#fff"/><path d="M82.7,112.4a10.38,10.38,0,0,0,3.7,14.3,10.52,10.52,0,0,0,14.4-3.7,10.38,10.38,0,0,0-3.7-14.3A10.25,10.25,0,0,0,82.7,112.4Zm3,1.9a6.94,6.94,0,0,1,8-3.1l-6.9,11.7C84.8,120.4,84.2,116.8,85.7,114.3ZM98,121.4a6.94,6.94,0,0,1-8,3.1l6.9-11.7A7,7,0,0,1,98,121.4Z" style="fill:#fff"/><path d="M59.1,84.3c3.8,2.3,7.6,4.5,11.5,6.8l-1.8,3c-3.8-2.2-7.6-4.5-11.4-6.7-.6,1-1.2,2-1.8,3.1,3.8,2.3,7.6,4.5,11.5,6.8l-1.8,3c-3.8-2.2-7.6-4.5-11.4-6.7-.5.9-1.1,1.9-1.6,2.8,3.8,2.3,7.7,4.5,11.5,6.8a3.43,3.43,0,0,0,4.8-1.2l2.7-4.4L74.1,93a3.29,3.29,0,0,0-1.2-4.7C69,86,65.1,83.7,61.1,81.4A13.38,13.38,0,0,0,59.1,84.3Z" style="fill:#fff"/><path d="M74.3,74.6l-.9,1.5c-2.4-1.4-4.7-2.8-7.1-4.2C65.7,73,65,74,64.4,75.1c2.3,1.4,4.7,2.7,7,4.1l-.9,1.5a1.93,1.93,0,0,0,.6,2.5,1.8,1.8,0,0,0,2.6-.6l.9-1.5,3,1.8a1.82,1.82,0,1,0,1.9-3.1l-3-1.8.9-1.5a1.93,1.93,0,0,0-.6-2.5A1.83,1.83,0,0,0,74.3,74.6Z" style="fill:#fff"/><path d="M109.4,66.6l-7.2,3.9-5.1-3a3.43,3.43,0,0,0-4.8,1.2l-2.7,4.5-3.2-1.8c1.8-4.3,3.1-11.4-2.9-15.9l.2-.3a3.29,3.29,0,0,0-1.2-4.7c-.9-.6-1.9-1.2-2.8-1.8-.7,1.2-1.3,2.3-2,3.5.9.5,1.8,1.1,2.7,1.6l-2.7,4.5c-.9-.5-1.8-1-2.6-1.5-.5.9-1,1.7-1.5,2.6.9.5,1.8,1.1,2.7,1.6a3.43,3.43,0,0,0,4.8-1.2l.7-1.3c4,3.3,2.6,8.4,1.5,11-3.9-2.2-7.8-4.5-11.7-6.7-.6,1-1.2,2.1-1.8,3.1,5.9,3.5,11.9,6.9,17.8,10.4L68,109.6c-5.9-3.4-11.7-6.8-17.6-10.2-.5.9-1.1,1.9-1.6,2.8,3.8,2.2,7.7,4.5,11.5,6.7-1.8,2.1-5.4,5.8-10.4,4l.7-1.3a3.29,3.29,0,0,0-1.2-4.7c-.8-.5-1.7-1-2.5-1.5-.7,1.1-1.3,2.3-2,3.4a25.29,25.29,0,0,1,2.2,1.3l-2.7,4.5c-.7-.4-1.4-.9-2.1-1.3-.6,1-1.2,2.1-1.8,3.1.7.4,1.5.9,2.2,1.3a3.43,3.43,0,0,0,4.8-1.2l.1-.1c6.8,2.9,12.4-1.5,15.3-5.3l3.2,1.8-2.7,4.5a3.29,3.29,0,0,0,1.2,4.7l5.2,3.1.2,8.2a3.62,3.62,0,0,0,1.7,3l8.7,5.1a3.16,3.16,0,0,0,3.9-.3l5.7-4.3,3.4,2a3.43,3.43,0,0,0,4.8-1.2L127,89.1a3.29,3.29,0,0,0-1.2-4.7l-3.4-2,1.1-7.1a3.29,3.29,0,0,0-1.7-3.5l-8.7-5.1A4,4,0,0,0,109.4,66.6ZM86.7,135.1l-4.4,3.5-8.7-5.1-.1-6.2Zm.2-50.6A7.26,7.26,0,0,1,88,93.2l-5.3,9.1a7.27,7.27,0,0,1-8.1,3.1Zm37.3,3.1L95.5,136.3l-4.6-2.7L72.7,123l-6.1-3.5,6.3-10.8a10.53,10.53,0,0,0,12.9-4.4l5.3-9.1a10.51,10.51,0,0,0-2.5-13.5L95,70.9l6.2,3.4Zm-4.5-12.7-.8,5.6-13.3-7.8,5.5-3Z" style="fill:#fff"/></g><g id="a043ee75-3535-456e-90ca-93a1c4635d30" data-name="Слой_1"><path d="M312.6,108.4l5.7-3.2-1.4-4.4-6.5,3.8a7.91,7.91,0,0,0-3.3-1.9,7.75,7.75,0,0,0-9.6,5.5,7.93,7.93,0,0,0,5.4,9.7,7.94,7.94,0,0,0,9.7-9.5Zm-8.5,5a3.45,3.45,0,0,1-2.3-4.1,3.18,3.18,0,0,1,4-2.3,3.45,3.45,0,0,1,2.3,4.1A3.14,3.14,0,0,1,304.1,113.4Z" style="fill:#fff"/><path d="M340.2,83.8a7.75,7.75,0,0,0-9.6,5.5,8.14,8.14,0,0,0,5.5,9.8,7.75,7.75,0,0,0,9.6-5.5A8,8,0,0,0,340.2,83.8Zm-3.1,10.8a3.45,3.45,0,0,1-2.3-4.1,3.22,3.22,0,0,1,4-2.3,3.45,3.45,0,0,1,2.3,4.1A3.29,3.29,0,0,1,337.1,94.6Z" style="fill:#fff"/><path d="M350.5,101.9a7.75,7.75,0,0,0-9.6,5.5,8.06,8.06,0,0,0,5.5,9.8,7.75,7.75,0,0,0,9.6-5.5A8,8,0,0,0,350.5,101.9Zm-3.1,10.7a3.45,3.45,0,0,1-2.3-4.1,3.34,3.34,0,0,1,4-2.3,3.45,3.45,0,0,1,2.3,4.1A3.29,3.29,0,0,1,347.4,112.6Z" style="fill:#fff"/><path d="M322.9,126.6l6.5-3.8-3.1-3.5-5.7,3.2a6.76,6.76,0,0,0-3.3-1.8,7.75,7.75,0,0,0-9.6,5.5,8.09,8.09,0,0,0,5.5,9.8,7.75,7.75,0,0,0,9.6-5.5A7.38,7.38,0,0,0,322.9,126.6Zm-8.6,4.8a3.45,3.45,0,0,1-2.3-4.1,3.22,3.22,0,0,1,4-2.3,3.45,3.45,0,0,1,2.3,4.1A3.14,3.14,0,0,1,314.3,131.4Z" style="fill:#fff"/><path d="M373.3,111.2l1.9,3.4a7.89,7.89,0,0,0,5.8,3.7,10.55,10.55,0,0,0,7.2-1.5,2.25,2.25,0,0,0,1-2.7l-.5-.8a2.1,2.1,0,0,0-2.8-.4,7,7,0,0,1-4.3,1,3.19,3.19,0,0,1-2.4-1.5l-.8-1.3a20.63,20.63,0,0,0,5.4-2,17.39,17.39,0,0,0,1.8-1.1l-2.1-3.7-1.8,1.2a13.06,13.06,0,0,1-10,1.2,13.7,13.7,0,0,1-8.1-6.3l-9.5-16.9a14.32,14.32,0,0,1-1.4-10,13.26,13.26,0,0,1,6.2-8.1c.6-.3,1.1-.6,1.7-.9l-2.4-4.3a14,14,0,0,0-1.7.9,18.78,18.78,0,0,0-4.4,3.6l-.7-1.2a3.3,3.3,0,0,1,.1-2.9,7.57,7.57,0,0,1,3-3.2,2.17,2.17,0,0,0,1.1-1.7l-1.4-2.5a2.1,2.1,0,0,0-2,.2,12,12,0,0,0-4.9,5.4,7.94,7.94,0,0,0,.2,6.9c.6,1,1.1,2.2,1.8,3.3a17.74,17.74,0,0,0-1.5,4.8A12.58,12.58,0,0,0,333.3,72c-2.7-2.1-4.8-3.3-8.9-2.2A13.67,13.67,0,0,0,315,82.6a8.78,8.78,0,0,0,3.2,7l2,1.6a27.49,27.49,0,0,0,3.1,17.3l2.8,4.8A26.91,26.91,0,0,0,339.4,125l.3,2.5a8.41,8.41,0,0,0,4.3,6.4c4.8,2.9,11.8,2.3,15.8-1.6,3.1-2.9,3.1-5.3,2.7-8.8a12.37,12.37,0,0,0,6-13.4A18.68,18.68,0,0,0,373.3,111.2ZM320.9,86a3.94,3.94,0,0,1-1.5-3.4,9.29,9.29,0,0,1,6.2-8.4,4,4,0,0,1,3.8.5,27.6,27.6,0,0,0-8,11.7Zm37.4,39.5a3.86,3.86,0,0,1-1.5,3.5,9.07,9.07,0,0,1-10.3,1.1,4.27,4.27,0,0,1-2.2-3.1l-.1-.6A26.13,26.13,0,0,0,358.3,125.5Zm2.1-5.9a21.64,21.64,0,0,1-16.8,2,22.63,22.63,0,0,1-13.5-10.5l-2.8-4.8a21.55,21.55,0,0,1-2-16.9A21.84,21.84,0,0,1,335.6,76a7.9,7.9,0,0,1,10.7,3l16.9,29.8A7.85,7.85,0,0,1,360.4,119.6Z" style="fill:#fff"/></g><path d="M207.2,334.1a24.86,24.86,0,0,0-10.1,5.2h-5.7a8.53,8.53,0,0,0-8.5,7.1c-8.6,1.9-14.4,11.7-16.5,27.2h3c1.8-13.2,6.6-21.9,13.3-24v4.2c-3.8,1.8-7.9,6.9-9.8,19.8h2.9c1.5-10.2,4.4-14.6,6.9-16.6v.1c0,3.5,2.3,6.3,5.1,6.6v9.9h3.1v-8.4c-.1-20.9,9.6-26,17-28a18.43,18.43,0,0,1,2.5-.5c.8,3,4.3,5.2,8.5,5.2s7.8-2.2,8.5-5.3a13.58,13.58,0,0,1,3.3.7c8.7,2.3,16.9,7.2,17.1,27.6l.1,8.7h3l-.1-9v-.9c2.8-.4,5-3.2,5-6.6v-1.3c8.7-1.4,17.5-9.7,18-29a4.06,4.06,0,0,0,3.3-3.9A4.36,4.36,0,0,0,276,320a1.79,1.79,0,0,0-.7-.5c1.8-3.2,1.3-6.1-1.8-9.3a1.48,1.48,0,0,0-2.1,2.1c2.4,2.4,2.7,4.1.8,6.5l-6.1-.1c-1.6-2.4-1.3-4.1,1-6.4a1.49,1.49,0,0,0-2-2.2c-3,2.9-3.8,5.8-2.1,9a4,4,0,0,0-2.1,3.4,4.36,4.36,0,0,0,1.1,2.9,4,4,0,0,0,2.3,1.2c-.8,15.2-5.2,17.8-8.7,19a8.59,8.59,0,0,0-8.4-6.7h-5.1a26.92,26.92,0,0,0-10.6-5.2,30.82,30.82,0,0,0-3.9-.7v-.2h12.9c10.8,0,19.5-9.8,19.5-21.9,0-10.6-6.8-19.5-15.8-21.4a6.88,6.88,0,0,0-5.7-5.1v-9.8a5,5,0,0,0,3.4-4.6,4.9,4.9,0,0,0-9.8,0,4.83,4.83,0,0,0,3.4,4.6v10.1a6.89,6.89,0,0,0-5.5,4.7H208.6a6.87,6.87,0,0,0-5.5-4.7V274.6a5,5,0,0,0,3.4-4.6,4.9,4.9,0,0,0-9.8,0,4.83,4.83,0,0,0,3.4,4.6v10.1a6.87,6.87,0,0,0-5.7,5.1c-9,2-15.8,10.9-15.8,21.4,0,12.1,8.8,21.9,19.6,21.9h12v.3A16.28,16.28,0,0,0,207.2,334.1ZM188,360.9a3.53,3.53,0,0,1-2.3-3.6v-9.7a5.43,5.43,0,0,1,5.7-5.3h2.8C190.6,346.8,188.5,352.9,188,360.9Zm76.2-37.3a1,1,0,0,1-.3-.8,1,1,0,0,1,1.1-1l8,.1a.91.91,0,0,1,.8.4,1,1,0,0,1,.3.8,1,1,0,0,1-1.1,1l-8-.1A2,2,0,0,1,264.2,323.6Zm-8.4,25.3c5.1-1.7,10.6-5.1,11.5-22h3.5c-.4,17-7.7,24.4-15,25.8v-3.8Zm-8.6-6.6a5.56,5.56,0,0,1,5.7,5.3v9.7c0,1.7-1,3.3-2.1,3.5-.6-8.7-2.8-14.6-5.8-18.4h2.2Zm-22.5-7.2c0,1.9-2.6,3.6-5.7,3.6s-5.8-1.7-5.8-3.6v-1.9h11.5Zm10.6-64.9a1.9,1.9,0,1,1,1.9,1.9A1.9,1.9,0,0,1,235.3,270.2Zm1.9,17.4a4.39,4.39,0,0,1,3.8,1.8h-7.6A4.79,4.79,0,0,1,237.2,287.6Zm-37.5-17.4a1.9,1.9,0,1,1,1.9,1.9A1.84,1.84,0,0,1,199.7,270.2Zm2,17.4a4.52,4.52,0,0,1,3.8,1.8h-7.6A4.51,4.51,0,0,1,201.7,287.6Zm-3.5,42.7c-9.2,0-16.6-8.5-16.6-18.9s7.5-18.9,16.6-18.9h42.4c9.2,0,16.6,8.5,16.6,18.9s-7.5,18.9-16.6,18.9Z" style="fill:#fff"/><path d="M202.4,373.5v-.8c0-6.2,3.6-11.2,8.2-11.2h18c4.5,0,8.2,5,8.2,11.2v.8h3v-.8c0-7.7-5-14.1-11.2-14.1h-18c-6.2,0-11.2,6.4-11.2,14.1v.8Z" style="fill:#fff"/><path d="M201.8,304.2a5.5,5.5,0,1,0,5.5,5.5A5.48,5.48,0,0,0,201.8,304.2Zm0,7.9a2.5,2.5,0,1,1,2.5-2.5A2.48,2.48,0,0,1,201.8,312.1Z" style="fill:#fff"/><path d="M237.5,304.2a5.5,5.5,0,1,0,5.5,5.5A5.55,5.55,0,0,0,237.5,304.2Zm0,7.9a2.5,2.5,0,1,1,2.5-2.5A2.61,2.61,0,0,1,237.5,312.1Z" style="fill:#fff"/><path d="M225.6,313.2H213.7a1.54,1.54,0,0,0-1.5,1.5c0,3.6,3.3,6.6,7.5,6.6s7.5-3,7.5-6.6A1.71,1.71,0,0,0,225.6,313.2Zm-6,5.1a4.78,4.78,0,0,1-4.1-2.1h8.2A4.65,4.65,0,0,1,219.6,318.3Z" style="fill:#fff"/><path d="M252.9,311.4c0-9.2-3.8-14.3-10.7-14.3H196.7c-6.2,0-10.7,6.1-10.7,14.3,0,8.6,4.3,14.3,10.7,14.3h45.4C249,325.7,252.9,320.6,252.9,311.4Zm-64,0c0-5.7,2.7-11.4,7.8-11.4h45.4q7.8,0,7.8,11.4c0,7.5-2.6,11.4-7.8,11.4H196.7C191,322.7,188.9,316.5,188.9,311.4Z" style="fill:#fff"/><g id="e4f1a932-c6cc-447a-9bbf-345cc68ab154" data-name="Layer 3"><g id="ab5d89c1-3c59-4e87-85d0-37deb919d09a" data-name="Bot 33"><path d="M247.2,8.9l-4-8.9h-5l3.7,8.2a21.12,21.12,0,0,0-2.6.2h-.5a11.36,11.36,0,0,0-2.5.6l-.5.2a8.49,8.49,0,0,0-2.2.9h-.2a15.92,15.92,0,0,0-2.2,1.3l-.3.2L223.6,0h-5.3l9.1,14.6a20.26,20.26,0,0,0-5.5,13.7,13.58,13.58,0,0,0,.3,2.9l-32.4,31c-.4,0-.8-.2-1.1-.2l-.1-29.3a12.76,12.76,0,0,0,2.8-.7h.3a15.62,15.62,0,0,0,9.2-20.1,15.23,15.23,0,0,0-5.4-7.1,4.13,4.13,0,0,0-4.4-.3,4.58,4.58,0,0,0-2.6,3.9V17a2.73,2.73,0,0,1-.8,1.9,2.2,2.2,0,0,1-1.5.6,1.69,1.69,0,0,1-1-.3,2.28,2.28,0,0,1-1-1.9V8.4a4.57,4.57,0,0,0-2.5-4,4.48,4.48,0,0,0-2-.4,4.32,4.32,0,0,0-2.6.9,15.73,15.73,0,0,0-3.2,21.9,15.53,15.53,0,0,0,7.1,5.3,11.56,11.56,0,0,0,3.1.7l.1,29.4A15.61,15.61,0,1,0,202,77.6V75.8l35.2-28a19.73,19.73,0,0,0,4.8.6,20.11,20.11,0,0,0,5.2-39.5Zm-64.5,19h-.1a11.22,11.22,0,0,1-6.8-14.3,11,11,0,0,1,3.8-5.2v8.9a6.6,6.6,0,0,0,6.3,6.6,6.17,6.17,0,0,0,4.8-1.8,7.09,7.09,0,0,0,2.2-5.2V8.3a11.26,11.26,0,0,1,2.4,15.6,11.28,11.28,0,0,1-5.1,3.8H190a11,11,0,0,1-3.6.7A9.47,9.47,0,0,1,182.7,27.9Zm3.8,60.9a11.11,11.11,0,0,1-2.2-22v8.7a2.2,2.2,0,1,0,4.4,0V66.9c.4.1.8.2,1.1.3a7.84,7.84,0,0,1,1.4.5,11.13,11.13,0,0,1,6.2,7.8,8.2,8.2,0,0,1,.2,2.2A11.14,11.14,0,0,1,186.5,88.8Zm14.1-17.7-.2-.3a7.46,7.46,0,0,0-.7-1.2c-.2-.4-.3-.4-.4-.7a7.55,7.55,0,0,0-1.1-1.4l-.2-.3c-.5-.5-1-1-1.6-1.5l-.5-.4a14.63,14.63,0,0,0-1.3-.9l-.2-.2,29.1-27.9.6,1.2v.2c.4.7.8,1.3,1.2,2l.3.4a22,22,0,0,0,1.4,1.8l1.6,1.6.4.3a13.3,13.3,0,0,0,1.9,1.4l.3.2,1,.6Zm56.6-39.6a15.71,15.71,0,0,1-15.3,12.6,14.26,14.26,0,0,1-4.6-.7,15.57,15.57,0,0,1-10.6-11.7,18.59,18.59,0,0,1-.4-3.3,16.07,16.07,0,0,1,5.3-11.8,15.57,15.57,0,0,1,12.2-3.7l1.2.2A15.68,15.68,0,0,1,257.2,31.5Z" style="fill:#fff"/><path d="M238.6,39.1a12.57,12.57,0,0,0,3.3.5,11.12,11.12,0,0,0,2.3-22,9.74,9.74,0,0,0-2.4-.2,10.91,10.91,0,0,0-7.3,2.8,11.23,11.23,0,0,0-3.8,8.4A9.86,9.86,0,0,0,231,31,11.65,11.65,0,0,0,238.6,39.1Zm-1.1-15.7a7,7,0,0,1,5.9-1.5A6.66,6.66,0,0,1,242,35a6.45,6.45,0,0,1-2-.3,6.58,6.58,0,0,1-4.5-4.9,6.75,6.75,0,0,1-.2-1.4,5.9,5.9,0,0,1,2.2-5Z" style="fill:#fff"/></g></g><g id="b6fd9fb2-8de8-4263-98ea-aaebad069b35" data-name="Bot 33"><path d="M88.4,225.8a9,9,0,0,0,3.7-12.5,9.38,9.38,0,0,0-12.7-3.7,9,9,0,0,0-3.7,12.5A9.27,9.27,0,0,0,88.4,225.8Zm-7.2-13a5.49,5.49,0,0,1,7.6,2.2,5.3,5.3,0,0,1-2.2,7.5,5.49,5.49,0,0,1-7.6-2.2A5.27,5.27,0,0,1,81.2,212.8Z" style="fill:#fff"/><path d="M97.3,261a9.38,9.38,0,0,0,12.7,3.7,9,9,0,0,0,3.7-12.5,9.38,9.38,0,0,0-12.7-3.7A9,9,0,0,0,97.3,261Zm13.2-7.1a5.3,5.3,0,0,1-2.2,7.5,5.49,5.49,0,0,1-7.6-2.2,5.3,5.3,0,0,1,2.2-7.5A5.51,5.51,0,0,1,110.5,253.9Z" style="fill:#fff"/><path d="M40.7,213.5c-6.4,3.4-12.9,6.9-19.3,10.3,1.9,3.2,3.7,6.4,5.6,9.6,6.4-3.4,12.8-6.9,19.2-10.3l3.6,6.5a26.73,26.73,0,0,0-8.9,9.1c-2.8,1.5-5.5,3-8.3,4.5.6,1.1,1.3,2.2,1.9,3.4,1.2-.7,2.5-1.3,3.7-2v.3c-.2.5-.3,1.3-.5,1.8v.3c-.3.6-.2,1.2-.5,2l-.1.7a.37.37,0,0,1-.1.3,2.19,2.19,0,0,1-.3.5c1.4,2.2,2.8,4.5,4.2,6.7a20,20,0,0,1-.4-2.4,10.87,10.87,0,0,1-.1-1.8,24.36,24.36,0,0,1,12.9-20.6l13.2-7.1L90,267.4l-13.2,7.1a24.53,24.53,0,0,1-14.7,2.8,25.08,25.08,0,0,1-13.2-6c1.3,2.3,2.6,4.5,3.9,6.8.1,0,.1.1.2.1s.2.1.2.2l.6.3a11.39,11.39,0,0,0,2.2.7l.4.2a6.14,6.14,0,0,0,1.8.7c-1,.6-2.1,1.1-3.1,1.7.4,1,.9,2,1.3,3,2.6-1.4,5.3-2.7,7.9-4.1a28.06,28.06,0,0,0,12.5-2.6l3.6,6.5-18.5,10,5.5,9.8,18.5-10.1a10.23,10.23,0,0,0,14.3,3.2c4.8-2.6,6.2-8.9,3.4-13.7l-1.6-2.8a7.76,7.76,0,0,0,1.8-.5l21.4-11.5a5.3,5.3,0,0,0,2.2-7.5L91.2,196.9a5.51,5.51,0,0,0-7.6-2.2L62.2,206.2a4.54,4.54,0,0,0-1.5,1.3l-1.6-2.8a10.64,10.64,0,0,0-13.8-4.8C40.4,202.1,38.3,208.6,40.7,213.5ZM26.2,229.9a5.58,5.58,0,0,0-.7-1.6,4.51,4.51,0,0,0-1-1.4l-.2-.3,18.3-9.8,1.8,3.2Zm39.1,69.6a4.51,4.51,0,0,0-1-1.4l-.1-.2L82.5,288l1.8,3.2L66,301.2C65.7,300.6,65.5,299.9,65.3,299.5Zm35.1-13.8a6.61,6.61,0,0,1-2.5,8.8,6.76,6.76,0,0,1-8.9-2.6l-8.6-15.3,11.5-6.2ZM85.6,197.8a1.88,1.88,0,0,1,2.6.8l36.2,64.8a1.77,1.77,0,0,1-.8,2.5l-21.4,11.5a1.88,1.88,0,0,1-2.6-.8L63.4,211.8a1.77,1.77,0,0,1,.8-2.5Zm-29.5,8.5,8.6,15.3-11.6,6.3-8.5-15.3a6.61,6.61,0,0,1,2.5-8.8A6.85,6.85,0,0,1,56.1,206.3Z" style="fill:#fff"/></g><g id="fa82edaf-e5ab-448b-9275-8e057ef22396" data-name="Layer 3"><path d="M219.6,248.5l-.9-.6c-.8-.5-18.9-12.5-18.9-23.2,0-7.7,5.4-11.6,10.8-11.6a11.73,11.73,0,0,1,9,4.4,11.73,11.73,0,0,1,9-4.4c5.4,0,10.8,4,10.8,11.6,0,10.8-18.1,22.7-18.9,23.2Z" style="fill:#fff"/></g><g id="b3edde81-0ccc-41a0-8506-8274e8345984" data-name="Layer 2"><g style="isolation:isolate"><path d="M139.61,153.31v6.84h-5.25V140.9h8.91q4.41,0,4.41,3.71v5a3.22,3.22,0,0,1-2.58,3.5l3.54,7.05H143l-3.06-6.84Zm2.07-8.66h-2.07v5.09h2.07q.75,0,.75-.66v-3.77C142.43,144.86,142.18,144.65,141.68,144.65Z" style="fill:#fff"/><path d="M155,156.4h6.57v3.75H149.78V140.9h11.55v3.75H155v3.92h5.43v3.75H155Z" style="fill:#fff"/><path d="M167.93,160.15h-4.68V140.9H169l3.12,10.29,3.12-10.29H181v19.25H176.3V147.91L173.9,156h-3.6l-2.37-8Z" style="fill:#fff"/><path d="M187.67,140.9h4.44q4.41,0,4.41,3.71v11.83q0,3.7-4.41,3.71h-4.44q-4.41,0-4.41-3.71V144.61Q183.26,140.9,187.67,140.9Zm3.6,14.84V145.31c0-.45-.25-.66-.75-.66h-1.26c-.5,0-.75.21-.75.66v10.43c0,.45.25.66.75.66h1.26C191,156.4,191.27,156.19,191.27,155.74Z" style="fill:#fff"/><path d="M210.44,140.9v3.75h-3.72v15.5h-5.25v-15.5h-3.69V140.9Z" style="fill:#fff"/><path d="M217,156.4h6.57v3.75H211.79V140.9h11.55v3.75H217v3.92h5.43v3.75H217Z" style="fill:#fff"/><path d="M249.65,140.9h5.19l-4.08,19.25h-6l-2.13-11.49-2.13,11.49h-6l-4.08-19.25h5.46l1.62,12.95L240,140.9h5.13l2.58,12.95Z" style="fill:#fff"/><path d="M260.66,140.9h4.44q4.41,0,4.41,3.71v11.83q0,3.7-4.41,3.71h-4.44q-4.41,0-4.41-3.71V144.61Q256.25,140.9,260.66,140.9Zm3.6,14.84V145.31c0-.45-.25-.66-.75-.66h-1.26c-.5,0-.75.21-.75.66v10.43c0,.45.25.66.75.66h1.26C264,156.4,264.26,156.19,264.26,155.74Z" style="fill:#fff"/><path d="M277.07,153.31v6.84h-5.25V140.9h8.91q4.41,0,4.41,3.71v5a3.22,3.22,0,0,1-2.58,3.5l3.54,7.05h-5.64l-3.06-6.84Zm2.07-8.66h-2.07v5.09h2.07q.75,0,.75-.66v-3.77C279.89,144.86,279.64,144.65,279.14,144.65Z" style="fill:#fff"/><path d="M287.24,160.15V140.9h5.25v19.25ZM298,150.31l3.78,9.84h-5.64l-3.6-9.84,3.57-9.41h5.64Z" style="fill:#fff"/></g><g style="isolation:isolate"><path d="M176.26,176.9h5.25v19.26h-5.25Z" style="fill:#fff"/><path d="M191.29,191.75V189q0-.66-.75-.66h-2.88a4.19,4.19,0,0,1-3.14-1,3.94,3.94,0,0,1-.91-2.81v-4q0-3.71,4.38-3.71h4.11q4.38,0,4.38,3.71v2.31h-5.25v-1.61c0-.45-.25-.66-.75-.66h-.87c-.5,0-.75.21-.75.66v2.84c0,.45.25.66.75.66h2.82a4.45,4.45,0,0,1,3.16.93,3.68,3.68,0,0,1,.95,2.74v4q0,3.72-4.38,3.72h-4.08q-4.41,0-4.41-3.72v-2.32h5.25v1.63q0,.66.75.66h.87Q191.29,192.41,191.29,191.75Z" style="fill:#fff"/><path d="M213.43,176.9h4.8v19.26h-4.5L209.44,186v10.12h-4.8V176.9h4.5l4.29,10.29Z" style="fill:#fff"/><path d="M225,176.9h4.44q4.41,0,4.41,3.71v11.83q0,3.72-4.41,3.72H225q-4.41,0-4.41-3.72V180.61Q220.54,176.9,225,176.9Zm3.6,14.85V181.31c0-.45-.25-.66-.75-.66h-1.26c-.5,0-.75.21-.75.66v10.44q0,.66.75.66h1.26Q228.55,192.41,228.55,191.75Z" style="fill:#fff"/><path d="M254.5,176.9h5.19l-4.08,19.26h-6l-2.13-11.5-2.13,11.5h-6l-4.08-19.26h5.46l1.62,13,2.58-13H250l2.58,13Z" style="fill:#fff"/></g></g><path d="M341.2,234a13.37,13.37,0,0,0-18.2,4.9,13.15,13.15,0,0,0,4.9,18.1,13.37,13.37,0,0,0,18.2-4.9A13,13,0,0,0,341.2,234Zm1.8,16.1a9.52,9.52,0,1,1-3.5-13A9.62,9.62,0,0,1,343,250.1Z" style="fill:#fff"/><path d="M357.1,225.4a9.52,9.52,0,1,0-13,3.5A9.45,9.45,0,0,0,357.1,225.4Zm-13.2-7.5a5.71,5.71,0,1,1,2.1,7.8A5.62,5.62,0,0,1,343.9,217.9Z" style="fill:#fff"/><path d="M332.9,246a1.93,1.93,0,1,0,1.3-2.4A2,2,0,0,0,332.9,246Z" style="fill:#fff"/><path d="M372.8,282.5a5.47,5.47,0,0,0,.8-2.9l-.1-3.4c.7.3,1.5.7,2.4,1a27.59,27.59,0,0,0,2.7.8l2.1-3.6a13.57,13.57,0,0,1-3.4-.8,14,14,0,0,1-3-1.4l-.6-.4V248.9a5.7,5.7,0,0,0-11.4,0v16.4l-6.2-3.4a5.62,5.62,0,0,1-2.1-7.8l11.3-19.8a5.62,5.62,0,0,1,7.8-2.1l18.2,10.3a17.46,17.46,0,0,1,5.2,4.5l1.9-3.3a22.6,22.6,0,0,0-5.3-4.4L374.9,229a9.31,9.31,0,0,0-5.9-1.2l1.4-2.5a12.32,12.32,0,0,0-2.3-15.1l.2-.3a11.37,11.37,0,0,0-19.8-11.2,12.28,12.28,0,0,0-16,5.1l-21.6,37.9a12.11,12.11,0,0,0,3.8,16.3,11.37,11.37,0,1,0,19.8,11.2l.2-.3a12.33,12.33,0,0,0,14.2-5.7l1.4-2.5a10.26,10.26,0,0,0,4,4.5l8,4.5v6.5l-4.5,2.5A13.38,13.38,0,0,0,339,278a13.69,13.69,0,0,0-3.3,4.9,3.54,3.54,0,0,0,.7,3.8,3.76,3.76,0,0,0,3.9,1.1l7.3-2a2,2,0,0,1,2.4,1.3.31.31,0,0,1,.1.2,2.14,2.14,0,0,1-1.6,2.2l-7.1,2a3.66,3.66,0,0,0-2.7,2.9,3.79,3.79,0,0,0,1.4,3.7,13.21,13.21,0,0,0,18.6-2.3c.4-.5.7-1,1.1-1.5a11.51,11.51,0,0,0,1.5-4.4l9.7-5.4A7.2,7.2,0,0,0,372.8,282.5ZM362,197.7a7.67,7.67,0,0,1,2.9,10.3l-13.2-7.5A7.61,7.61,0,0,1,362,197.7Zm-41.4,72.5a7.67,7.67,0,0,1-2.9-10.3l13.2,7.5A7.52,7.52,0,0,1,320.6,270.2Zm24.7-8.9a8.65,8.65,0,0,1-11.7,3.2l-16.5-9.4a8.54,8.54,0,0,1-3.2-11.7l21.6-37.9a8.65,8.65,0,0,1,11.7-3.2l16.5,9.4a8.54,8.54,0,0,1,3.2,11.7ZM357,288.6a9.54,9.54,0,0,1-10.4,8.6,9.21,9.21,0,0,1-4.8-1.9l7.1-2a6,6,0,0,0,4.4-6.4,5.81,5.81,0,0,0-6.5-4.8c-.2,0-.4.1-.6.1v.1l-7.3,2.1a9.41,9.41,0,0,1,16.5-2,8.26,8.26,0,0,1,1.4,3A7,7,0,0,1,357,288.6Zm3.5-4.3a11,11,0,0,0-.9-2.3l4.2-2.4a4.2,4.2,0,0,0,2-3.3v-7.5l-.1-19.7a1.9,1.9,0,1,1,3.8,0v30.4a1.78,1.78,0,0,1-1,1.6l-7.8,4.4A3,3,0,0,0,360.5,284.3Z" style="fill:#fff"/></g></svg>