<svg xmlns="http://www.w3.org/2000/svg" viewBox="0 0 431.25 373.47"><title>contact copy</title><g id="a79de169-09ec-4a7a-ab9c-8cdea5ef464a" data-name="Layer 2"><g id="ab7f11b5-6281-41fc-8479-8d7f2085a121" data-name="Layer 5"><polygon points="70.33 269.83 119.17 354.52 312.69 354.52 361.51 269.88 374.89 284.37 323.44 373.48 107.81 373.48 56.55 284.67 70.33 269.83" style="fill:#02c9fb"/><polygon points="51.41 237.02 22.41 186.75 119.17 18.98 312.69 18.98 409.46 186.75 380.19 237.5 393.74 251.73 431.25 186.74 323.44 0 107.81 0 0 186.74 37.46 251.62 51.41 237.02" style="fill:#02c9fb"/></g></g><g id="a6f45107-d82c-43d7-9f86-2a039e347489" data-name="Layer 3"><rect x="111.07" y="11.97" width="210.53" height="351.33" style="fill:#02c9fb"/><rect x="113.68" y="9.68" width="210.53" height="362.68" transform="translate(-56.51 283.48) rotate(-59.66)" style="fill:#02c9fb"/><rect x="106.94" y="9.68" width="210.53" height="362.68" transform="translate(152.88 470.3) rotate(-120)" style="fill:#02c9fb"/></g><g id="b3fc37f7-7ea7-4bdb-bf45-cb79b1987e24" data-name="Layer 1"><g id="f2fe0143-91ec-466c-a178-e4aceeed42d5" data-name="Family"><g id="ae98494e-21d4-469d-b86e-2c34c075a817" data-name="Dots"><circle cx="297.63" cy="173.99" r="1.9" transform="translate(-16.79 315.41) rotate(-54.53)" style="fill:#fff"/><circle cx="297.77" cy="166.71" r="1.9" transform="translate(125.73 461.44) rotate(-88.97)" style="fill:#fff"/><circle cx="297.8" cy="160.1" r="1.9" transform="matrix(0.02, -1, 1, 0.02, 132.38, 454.98)" style="fill:#fff"/></g></g><g id="b5cf4f12-a622-45c8-b824-3f65f4d050ef" data-name="Bot 33"><path d="M89.35,126.77a36.39,36.39,0,0,0-9.48,71.59l28.61,64.48a58.11,58.11,0,0,0-11.57,13.93,7.42,7.42,0,0,0,0,8.16,7.91,7.91,0,0,0,7,4h84.34a8,8,0,0,0,7-4,8.84,8.84,0,0,0,0-8.16,57.38,57.38,0,0,0-41.95-28l-37.65-60.63a36.31,36.31,0,0,0,10.08-24.75,22.08,22.08,0,0,0-.59-5.34l59.29-56.17a5.4,5.4,0,0,1,2.07.59v53.21a25.13,25.13,0,0,0-5,1.19h-.59a28.17,28.17,0,0,0-16.9,36.31,27.79,27.79,0,0,0,9.79,13.05,8.09,8.09,0,0,0,8.15.74,8,8,0,0,0,4.74-7V184.28a5,5,0,0,1,1.63-3.56,3.91,3.91,0,0,1,2.82-1,3,3,0,0,1,1.93.59,3.93,3.93,0,0,1,1.92,3.41v16.15a8.41,8.41,0,0,0,4.6,7.42,7.24,7.24,0,0,0,3.7.88,7.67,7.67,0,0,0,4.75-1.63,28.23,28.23,0,0,0-7.12-49.36h0a25.32,25.32,0,0,0-5.78-1.33V102.46a28.4,28.4,0,0,0,24-32.17C217,54.58,202.16,43.76,186.59,46a28.17,28.17,0,0,0-24.31,28.17v3.41L98,128A34.33,34.33,0,0,0,89.35,126.77Zm98.72,154.15H103.73A48,48,0,0,1,115.89,267,47.23,47.23,0,0,1,146,256.62c1.33,0,3,0,4.44.14A48.82,48.82,0,0,1,188.07,280.92Zm-45.95-32.46h-1.33l-3.11.3h-1a31.29,31.29,0,0,0-4,.89l-.89.15-3.41,1-1.34.6-2.81,1-1.34.59L120,254.39l-1,.59c-1.19.75-2.22,1.34-3.56,2.08L89.65,199.7h0c1.63,0,3.11-.15,4.74-.3h.89a25.39,25.39,0,0,0,4.6-1l.89-.29c1.33-.6,2.81-1,4-1.64h.3a35.07,35.07,0,0,0,4-2.22l.59-.3,34.09,54.55ZM108,184.58a28.44,28.44,0,0,1-22.38,6.67l-2.22-.3a28.3,28.3,0,0,1,5.92-56,27.66,27.66,0,0,1,8.45,1.19,28,28,0,0,1,19.27,21,40.21,40.21,0,0,1,.74,5.93A28.78,28.78,0,0,1,108,184.58Zm89.38-20.16h0a20.15,20.15,0,0,1,12.45,25.79,21.19,21.19,0,0,1-7,9.49V183.54a12.05,12.05,0,0,0-20.16-9,12.64,12.64,0,0,0-4,9.48v15.86a20.26,20.26,0,0,1,5.18-35.27h.3a16,16,0,0,1,6.52-1.19,18.32,18.32,0,0,1,6.67,1ZM190.74,53.84A20.64,20.64,0,0,1,211.2,74,20.32,20.32,0,0,1,195,93.86V78.15a4,4,0,0,0-8,0V94a11.59,11.59,0,0,1-2.08-.59,13.3,13.3,0,0,1-2.52-1,20.55,20.55,0,0,1-11.26-14.23,18.53,18.53,0,0,1-.6-4A20,20,0,0,1,190.74,53.84Zm-25.94,32,.3.59c.3.74.89,1.63,1.18,2.22a4.07,4.07,0,0,1,.75,1.19A29.61,29.61,0,0,0,169,92.53l.6.59c.89,1,1.92,1.93,2.81,2.82l.89.74c.74.59,1.63,1.18,2.23,1.63l.29.29-52.92,50.55c-.29-.74-.74-1.63-1-2.22v-.3c-.74-1.19-1.34-2.52-2.08-3.71l-.59-.74c-.89-1.18-1.78-2.22-2.67-3.41h0a28.09,28.09,0,0,0-3-2.81l-.75-.6a29.55,29.55,0,0,0-3.4-2.51l-.6-.3-1.48-1Z" transform="translate(0)" style="fill:#fff"/><path d="M95.28,144.11a20.83,20.83,0,0,0-6.07-.89,20.23,20.23,0,0,0-4.45,40c1.33.3,2.82.3,4.15.6a20.81,20.81,0,0,0,13.34-4.9,20.25,20.25,0,0,0,7-15.26,13.2,13.2,0,0,0-.6-4.15A18.67,18.67,0,0,0,95.28,144.11Zm2.08,28.16a12.07,12.07,0,1,1-7.86-21.49,10.9,10.9,0,0,1,3.71.59,12.37,12.37,0,0,1,8.15,8.9,16.17,16.17,0,0,1,.3,2.67c-.15,4-1.63,7.26-4.3,9.33Z" transform="translate(0)" style="fill:#fff"/></g><g id="ae8302c2-4bd2-4c14-8768-c6fb11cf9783" data-name="Bot 33"><path d="M291.41,200.49a8.87,8.87,0,1,0-8.87,8.86A9,9,0,0,0,291.41,200.49Zm-14.07,0a5.32,5.32,0,1,1,5.32,5.31A5.37,5.37,0,0,1,277.34,200.49Z" transform="translate(0)" style="fill:#fff"/><path d="M283.84,201.79a1.76,1.76,0,1,0-2.48,0,2.28,2.28,0,0,0,1.3.59A12.93,12.93,0,0,0,283.84,201.79Z" transform="translate(0)" style="fill:#fff"/><path d="M312.56,211A10.52,10.52,0,1,0,302,200.49,10.32,10.32,0,0,0,312.56,211Zm0-3.54a7,7,0,0,1-6.74-5.32h13.6A7.56,7.56,0,0,1,312.56,207.46Zm0-14.18a7,7,0,0,1,6.74,5.31H305.71A7.08,7.08,0,0,1,312.56,193.28Z" transform="translate(0)" style="fill:#fff"/><path d="M305.35,228.5H300a3.47,3.47,0,0,0-3.54,3.54v15.84a3.47,3.47,0,0,0,3.54,3.54h10.52a3.48,3.48,0,0,0,3.55-3.54V232a3.48,3.48,0,0,0-3.55-3.54Zm-5.2,3.66h3.55V248h-3.55ZM310.67,248h-3.55V232.16h3.55Z" transform="translate(0)" style="fill:#fff"/><path d="M291.41,233.81h-1.78v-3.54a1.77,1.77,0,1,0-3.54,0v3.54h-1.78a1.78,1.78,0,0,0,0,3.55h1.78v12.29a1.77,1.77,0,1,0,3.54,0V237.48h1.78a1.82,1.82,0,0,0,1.77-1.78A1.85,1.85,0,0,0,291.41,233.81Z" transform="translate(0)" style="fill:#fff"/><path d="M328.4,261.94a3.49,3.49,0,0,0-3.55,3.55V276a1.82,1.82,0,0,0,1.77,1.77,14.09,14.09,0,0,0,14.07-14.06,1.82,1.82,0,0,0-1.77-1.78H333.6V258.4a3.48,3.48,0,0,0,3.54-3.55V242.56A3.48,3.48,0,0,0,333.6,239h-.12c-1-7.32-7.56-9.92-12.17-10.51v-3.67h5.31a3.48,3.48,0,0,0,3.55-3.54v-6l7-4.26a3.75,3.75,0,0,0,1.78-2.95V198a3.2,3.2,0,0,0-2.25-3.19l-6.62-2.72v-4a3.48,3.48,0,0,0-3.54-3.55H270.13a3.48,3.48,0,0,0-3.54,3.55v4L260,194.81a3.4,3.4,0,0,0-2.25,3.19v10.05a3.68,3.68,0,0,0,1.77,3.07l7,4.26v5.91a3.47,3.47,0,0,0,3.54,3.54h5.32v3.67c-4.61.59-11.34,3.07-12.17,10.51H263a3.49,3.49,0,0,0-3.55,3.55v12.29A3.49,3.49,0,0,0,263,258.4v3.54h-5.32a1.82,1.82,0,0,0-1.77,1.78A14.09,14.09,0,0,0,270,277.78a1.82,1.82,0,0,0,1.78-1.77V265.49a3.49,3.49,0,0,0-3.55-3.55h-1.77V258.4h1.77a3.49,3.49,0,0,0,3.55-3.55V242.56a3.49,3.49,0,0,0-3.55-3.55H266.7c.95-5.08,5.91-6.5,8.75-6.85v24.46a1.82,1.82,0,0,0,1.77,1.78h3.55v5.32a3.48,3.48,0,0,0-3.55,3.54v3.55a3.48,3.48,0,0,0,3.55,3.54v5.32h-4.26a3.21,3.21,0,0,0-3.07,2l-1.77,3.55A3.67,3.67,0,0,0,273.2,290a3.36,3.36,0,0,0,1.54.48h16.55a3.48,3.48,0,0,0,3.54-3.55V283.1a3.48,3.48,0,0,0-3.54-3.55v-5.32a3.47,3.47,0,0,0,3.54-3.54v-3.55a3.47,3.47,0,0,0-3.54-3.54v-5.32h14.06v5.32a3.47,3.47,0,0,0-3.54,3.54v3.55a3.47,3.47,0,0,0,3.54,3.54v5.32a3.48,3.48,0,0,0-3.54,3.55v3.54a3.48,3.48,0,0,0,3.54,3.55H321.9a3.48,3.48,0,0,0,3.54-3.55,2.38,2.38,0,0,0-.47-1.53l-1.77-3.55a3.33,3.33,0,0,0-3.08-2h-4.25v-5.32a3.48,3.48,0,0,0,3.55-3.54v-3.55a3.48,3.48,0,0,0-3.55-3.54v-5.32h3.55a1.82,1.82,0,0,0,1.77-1.77V232c2.72.47,7.68,1.77,8.74,6.86H328.4a3.48,3.48,0,0,0-3.55,3.54v12.29a3.49,3.49,0,0,0,3.55,3.55h1.77v3.54l-1.77.12Zm-59.92,3.55v8.74a10.82,10.82,0,0,1-8.75-8.74Zm0-10.52h-5.32V242.68h5.32Zm66.89-56.85v10l-5.32,3.19V196Zm-73.87,10v-10l5.32-2.13v15.37Zm8.75,6.26V188.08h56.37v5.31h0v21h0v7H314.1a10.54,10.54,0,0,0-10.4-8.86H293.18a10.53,10.53,0,0,0-10.4,8.86H270.13l.12-7Zm40.18,7.09H286.32a7.21,7.21,0,0,1,6.86-5.32H303.7A7.09,7.09,0,0,1,310.43,221.52Zm-19,65.12H274.86l1.77-3.54h14.66v3.54Zm-3.55-7h-3.55v-5.32h3.55Zm3.55-8.86H280.89v-3.55h10.52Zm-3.55-7h-3.55v-5.32h3.55Zm34,22.81H305.35V283.1h14.77Zm-9.34-7H309v-5.32h3.55Zm3.43-8.86H305.47v-3.55H316Zm-3.43-7H309v-5.32h3.55Zm5.08-8.86H279V225h38.64Zm10.76-12.29h5.32V255H328.4Zm8.51,22.81a10.81,10.81,0,0,1-8.75,8.74v-8.74Z" transform="translate(0)" style="fill:#fff"/></g><g id="ad2803d0-fcd0-43f3-994c-03cab5bb6354" data-name="Layer 2"><g style="isolation:isolate"><path d="M239.42,94.11v7.61h-1.68v-1.3h0c-.11.32-.23.49-.34.81-.11.16-.33.32-.44.49a.77.77,0,0,1-.56.16h-.68a1.93,1.93,0,0,1-1.45-.49,2.76,2.76,0,0,1-.78-1.29,9.08,9.08,0,0,1-.34-2.27c0-1-.11-1.94-.11-3.07a25.87,25.87,0,0,1,.11-3.08,7,7,0,0,1,.56-2.27A4,4,0,0,1,234.83,88a3.11,3.11,0,0,1,1.79-.49,3,3,0,0,1,1.23.32,4.78,4.78,0,0,1,1,.81,3.68,3.68,0,0,1,.67,1.46,11.9,11.9,0,0,1,.22,2.11h-2.68a5.87,5.87,0,0,0-.11-1.62c-.12-.33-.34-.65-.56-.65s-.34,0-.45.16a1.17,1.17,0,0,0-.23.81,5.2,5.2,0,0,0-.11,1.46v4.53a5.23,5.23,0,0,0,.11,1.46,7.41,7.41,0,0,0,.23.81c.11.16.22.16.45.16a.33.33,0,0,0,.33-.16c.11-.17.23-.17.23-.49a4.42,4.42,0,0,0,.22-1,5.86,5.86,0,0,0,.11-1.46h-.89V93.78h3Z" transform="translate(0)" style="fill:#fff"/><path d="M246.13,87.79v2.92H243v2.43h3v2.75h-3v2.75h3.35v2.91h-5.93V87.79Z" transform="translate(0)" style="fill:#fff"/><path d="M246.58,90.87V87.79h6.26v3.08h-1.9v10.85h-2.46V90.87Z" transform="translate(0)" style="fill:#fff"/><path d="M260.34,87.79l1,8.26h0l1-8.26h3.59v13.93h-2.35V91.36h0l-1.35,10.36h-1.79l-1.34-10.36h0v10.36h-2.35V87.79Z" transform="translate(0)" style="fill:#fff"/><path d="M272.76,87.79v2.92h-3.24v2.43h3v2.75h-3v2.75h3.35v2.91h-5.82V87.79Z" transform="translate(0)" style="fill:#fff"/><path d="M276.23,90.87V87.79h6.27v3.08h-1.91v10.85h-2.46V90.87Z" transform="translate(0)" style="fill:#fff"/><path d="M285.52,87.79v5h1.56v-5h2.46v13.93h-2.46V95.89h-1.56v5.66h-2.58V87.79Z" transform="translate(0)" style="fill:#fff"/><path d="M296.37,87.79v2.92h-3.13v2.43h3v2.75h-3v2.75h3.35v2.91h-5.81V87.79Z" transform="translate(0)" style="fill:#fff"/><path d="M299.84,90.87V87.79h6.26v3.08h-1.9v10.85h-2.46V90.87Z" transform="translate(0)" style="fill:#fff"/><path d="M306.44,91.36a9.75,9.75,0,0,1,.56-2.27,3.14,3.14,0,0,1,1-1.3,2.57,2.57,0,0,1,1.56-.32,4.27,4.27,0,0,1,1.57.32,2.5,2.5,0,0,1,1,1.3,10.29,10.29,0,0,1,.56,2.27,26.46,26.46,0,0,1,.22,3.23,24.32,24.32,0,0,1-.22,3.24,10.43,10.43,0,0,1-.56,2.27,3.18,3.18,0,0,1-1,1.29,2.55,2.55,0,0,1-1.57.33,4.16,4.16,0,0,1-1.56-.33,2.43,2.43,0,0,1-1-1.29,9.89,9.89,0,0,1-.56-2.27,26.49,26.49,0,0,1-.22-3.24C306.33,93.3,306.33,92.33,306.44,91.36ZM308.9,97a5.23,5.23,0,0,0,.11,1.46,6.81,6.81,0,0,0,.23.81c.11.16.22.16.45.16s.33,0,.44-.16a1.19,1.19,0,0,0,.23-.81,5.23,5.23,0,0,0,.11-1.46V92.49a5.23,5.23,0,0,0-.11-1.46,6.81,6.81,0,0,0-.23-.81c-.11-.16-.22-.16-.44-.16s-.34,0-.45.16A1.19,1.19,0,0,0,309,91a5.23,5.23,0,0,0-.11,1.46V97Z" transform="translate(0)" style="fill:#fff"/><path d="M313.94,91.36a9.27,9.27,0,0,1,.56-2.27,3.21,3.21,0,0,1,1-1.3,2.61,2.61,0,0,1,1.57-.32,4.82,4.82,0,0,1,1.57.32,2.49,2.49,0,0,1,1,1.3,9.27,9.27,0,0,1,.56,2.27,24.44,24.44,0,0,1,.23,3.23,22.53,22.53,0,0,1-.23,3.24,9.39,9.39,0,0,1-.56,2.27,3.17,3.17,0,0,1-1,1.29,2.55,2.55,0,0,1-1.57.33,4.82,4.82,0,0,1-1.57-.33,2.46,2.46,0,0,1-1-1.29,9.39,9.39,0,0,1-.56-2.27,26.3,26.3,0,0,1-.23-3.24C313.83,93.3,313.83,92.33,313.94,91.36ZM316.4,97c0,.65.11,1.13.11,1.46a5.5,5.5,0,0,0,.22.81c.12.16.23.16.45.16s.34,0,.45-.16a1.2,1.2,0,0,0,.22-.81A4.81,4.81,0,0,0,318,97V92.49c0-.65-.12-1.13-.12-1.46a5.5,5.5,0,0,0-.22-.81c-.11-.16-.22-.16-.45-.16s-.33,0-.45.16a1.2,1.2,0,0,0-.22.81,5.23,5.23,0,0,0-.11,1.46V97Z" transform="translate(0)" style="fill:#fff"/><path d="M324,87.79V98.64h3v2.91h-5.6V87.79Z" transform="translate(0)" style="fill:#fff"/><path d="M331.62,87.79a2.29,2.29,0,0,1,2,1,4.31,4.31,0,0,1,.67,2.59,4.57,4.57,0,0,1-.11,1.13c-.11.32-.11.65-.22,1a1.23,1.23,0,0,1-.45.65l-.67.48h0a1.29,1.29,0,0,1,.78.33,1.76,1.76,0,0,1,.56.81l.34,1a3.43,3.43,0,0,1,.11,1.13,7.27,7.27,0,0,1-.11,1.62,2.58,2.58,0,0,1-.56,1.29,2.48,2.48,0,0,1-.9.81,2.9,2.9,0,0,1-1.34.33h-3.81V87.79Zm-.68,5.35a.63.63,0,0,0,.56-.49,2.16,2.16,0,0,0,0-1.94.62.62,0,0,0-.56-.49h-.55v2.92Zm.12,5.82c.22,0,.44-.16.67-.48a2.14,2.14,0,0,0,.22-1.3,4.22,4.22,0,0,0-.22-1.29c-.23-.33-.34-.49-.67-.49h-.67v3.4h.67Z" transform="translate(0)" style="fill:#fff"/><path d="M335.31,91.36a9.27,9.27,0,0,1,.56-2.27,3.14,3.14,0,0,1,1-1.3,2.57,2.57,0,0,1,1.56-.32,4.82,4.82,0,0,1,1.57.32,2.5,2.5,0,0,1,1,1.3,9.8,9.8,0,0,1,.55,2.27,24.44,24.44,0,0,1,.23,3.23,22.53,22.53,0,0,1-.23,3.24,9.93,9.93,0,0,1-.55,2.27,3.27,3.27,0,0,1-1,1.29,2.55,2.55,0,0,1-1.57.33,4.7,4.7,0,0,1-1.56-.33,2.43,2.43,0,0,1-1-1.29,9.39,9.39,0,0,1-.56-2.27,26.3,26.3,0,0,1-.23-3.24C335.2,93.3,335.2,92.33,335.31,91.36ZM337.77,97c0,.65.11,1.13.11,1.46a4.36,4.36,0,0,0,.23.81c.11.16.22.16.44.16s.34,0,.45-.16a1.2,1.2,0,0,0,.22-.81,4.81,4.81,0,0,0,.12-1.46V92.49c0-.65-.12-1.13-.12-1.46a5.5,5.5,0,0,0-.22-.81c-.11-.16-.22-.16-.45-.16s-.33,0-.44.16a1.14,1.14,0,0,0-.23.81,5.23,5.23,0,0,0-.11,1.46V97Z" transform="translate(0)" style="fill:#fff"/><path d="M345.16,87.79l.78,4h0l.78-4h2.8l-2.13,6.8,2.24,7h-2.8l-1-4.2h0l-1,4.2h-2.57l2.23-7-2.12-6.8Z" transform="translate(0)" style="fill:#fff"/><path d="M352.43,97.83v3.56a5.72,5.72,0,0,1-.56,2.75,1.76,1.76,0,0,1-1.68,1V103.5a.65.65,0,0,0,.67-.49,3.18,3.18,0,0,0,.23-1.13v-.16h-.9V98h2.24Z" transform="translate(0)" style="fill:#fff"/></g><g style="isolation:isolate"><path d="M235.39,111.11V125h-2.46V111.11Z" transform="translate(0)" style="fill:#fff"/><path d="M236,114.18v-3.07h6.26v3.07h-1.9V125h-2.46V114.18Z" transform="translate(0)" style="fill:#fff"/><path d="M245,111.11v3.56a5.23,5.23,0,0,1-.56,2.75,1.73,1.73,0,0,1-1.68,1v-1.62a.67.67,0,0,0,.68-.48,3.25,3.25,0,0,0,.22-1.14V115h-.9v-3.72H245Z" transform="translate(0)" style="fill:#fff"/><path d="M249.93,114.67a3.25,3.25,0,0,0-.22-1.14.62.62,0,0,0-.56-.48.75.75,0,0,0-.56.32,2.28,2.28,0,0,0-.22.81,1.83,1.83,0,0,0,.33,1.13,1.77,1.77,0,0,0,.79.65,3.55,3.55,0,0,1,1,.65,4,4,0,0,1,1,.81,4.11,4.11,0,0,1,.78,1.29,5,5,0,0,1,.34,2.11,5.12,5.12,0,0,1-.89,3.24,3.31,3.31,0,0,1-2.58,1,3.25,3.25,0,0,1-1.34-.16,2,2,0,0,1-1-.65,7.16,7.16,0,0,1-.67-1.14,8.24,8.24,0,0,1-.22-1.78v-.48h2.46v.32a3.51,3.51,0,0,0,.22,1.3c.11.32.34.32.56.32a.74.74,0,0,0,.56-.32,3.16,3.16,0,0,0,.22-1,1.88,1.88,0,0,0-.33-1.14,2.7,2.7,0,0,0-.67-.65,6,6,0,0,1-.9-.64,2.54,2.54,0,0,1-.89-.81,2.08,2.08,0,0,1-.67-1.3,8.76,8.76,0,0,1-.34-1.94,5.38,5.38,0,0,1,.78-3.24,3.16,3.16,0,0,1,4.7-.16,5.88,5.88,0,0,1,.79,3.24h-2.35v-.16Z" transform="translate(0)" style="fill:#fff"/><path d="M255.87,114.18v-3.07h6.26v3.07h-1.9V125h-2.46V114.18Z" transform="translate(0)" style="fill:#fff"/><path d="M265,111.11V125h-2.46V111.11Z" transform="translate(0)" style="fill:#fff"/><path d="M269.63,111.11l1,8.25h0l1-8.25h3.58V125h-2.35V114.67h0L271.53,125h-1.79l-1.34-10.36h0V125h-2.35V111.11Z" transform="translate(0)" style="fill:#fff"/><path d="M281.94,111.11V114H278.8v2.43h3v2.91h-3v2.75h3.36V125h-5.93V111.11Z" transform="translate(0)" style="fill:#fff"/><path d="M285.4,114.18v-3.07h6.27v3.07h-1.9V125h-2.46V114.18Z" transform="translate(0)" style="fill:#fff"/><path d="M292.12,114.67a9.39,9.39,0,0,1,.56-2.27,3.1,3.1,0,0,1,1-1.29,2.55,2.55,0,0,1,1.57-.33,4.57,4.57,0,0,1,1.57.33,2.38,2.38,0,0,1,1,1.29,9.39,9.39,0,0,1,.56,2.27,24.44,24.44,0,0,1,.23,3.23,22.53,22.53,0,0,1-.23,3.24,9.39,9.39,0,0,1-.56,2.27,3.1,3.1,0,0,1-1,1.29,2.55,2.55,0,0,1-1.57.33,4.57,4.57,0,0,1-1.57-.33,2.42,2.42,0,0,1-1-1.29,9.39,9.39,0,0,1-.56-2.27,22.87,22.87,0,0,1,0-6.47Zm2.35,5.66c0,.65.11,1.14.11,1.46a5.5,5.5,0,0,0,.22.81c.12.16.23.16.45.16s.34,0,.45-.16a1.2,1.2,0,0,0,.22-.81,5.2,5.2,0,0,0,.11-1.46V115.8c0-.65-.11-1.13-.11-1.46a5.88,5.88,0,0,0-.22-.81c-.11-.16-.22-.16-.45-.16s-.33,0-.45.16a1.22,1.22,0,0,0-.22.81,5.23,5.23,0,0,0-.11,1.46v4.53Z" transform="translate(0)" style="fill:#fff"/><path d="M307.34,111.11,309.69,125H307l-.22-2.43h-2l-.22,2.43H302l2.35-13.92Zm-1.57,2.75-.67,5.82h1.34l-.67-5.82Z" transform="translate(0)" style="fill:#fff"/><path d="M314.05,111.11a3,3,0,0,1,1.23.32,2.1,2.1,0,0,1,.78.81,2.91,2.91,0,0,1,.45,1.13,8.53,8.53,0,0,1-.22,3.72,1.28,1.28,0,0,1-1.23,1h0a1.27,1.27,0,0,1,1.23,1,6,6,0,0,1,.33,2.26v2.59c0,.17,0,.33.11.33l.12.16s.11.16.22.16v.16h-2.69a1,1,0,0,1-.11-.64,2,2,0,0,0-.11-.81v-3.08a5.26,5.26,0,0,0-.11-.65c-.11-.16-.11-.32-.22-.32s-.23-.16-.34-.16h-.67v5.5h-2.46V110.62h3.69Zm-.9,5.82a.8.8,0,0,0,.79-.48,1.86,1.86,0,0,0,.22-1.14,3.45,3.45,0,0,0-.22-1.29c-.11-.32-.45-.32-.79-.32h-.44v3.23Z" transform="translate(0)" style="fill:#fff"/><path d="M321.43,113.7a.62.62,0,0,0-.56-.49c-.22,0-.33,0-.44.16a1.19,1.19,0,0,0-.23.81,5.2,5.2,0,0,0-.11,1.46v4.53a5.23,5.23,0,0,0,.11,1.46,7.41,7.41,0,0,0,.23.81c.11.16.22.16.44.16a.34.34,0,0,0,.34-.16,1,1,0,0,0,.22-.49c0-.32.12-.65.12-1v-1.62H324v1a13.18,13.18,0,0,1-.23,2.43,3.55,3.55,0,0,1-.67,1.46c-.33.32-.67.65-1,.65s-.79.16-1.12.16a4.68,4.68,0,0,1-1.68-.33,2.39,2.39,0,0,1-1-1.29,9.89,9.89,0,0,1-.56-2.27,28.78,28.78,0,0,1-.11-3.24,16.13,16.13,0,0,1,.22-3.4,10.33,10.33,0,0,1,.56-2.26,3.22,3.22,0,0,1,1-1.3,2.8,2.8,0,0,1,1.68-.32,4.06,4.06,0,0,1,1.45.32,3,3,0,0,1,1,.81,3.73,3.73,0,0,1,.56,1.46,8.85,8.85,0,0,1,.11,1.78v.81h-2.46v-.49A5.77,5.77,0,0,0,321.43,113.7Z" transform="translate(0)" style="fill:#fff"/><path d="M327.48,111.11v5H329v-5h2.46V125H329v-5.67h-1.56V125H325V111.11Z" transform="translate(0)" style="fill:#fff"/><path d="M335.2,111.11V125h-2.46V111.11Z" transform="translate(0)" style="fill:#fff"/><path d="M335.64,114.18v-3.07h6.27v3.07H340V125h-2.46V114.18Z" transform="translate(0)" style="fill:#fff"/><path d="M348.06,111.11V114h-3.13v2.43h3v2.91h-3v2.75h3.36V125h-5.82V111.11Z" transform="translate(0)" style="fill:#fff"/><path d="M352.76,113.7a.62.62,0,0,0-.56-.49c-.22,0-.33,0-.44.16a1.19,1.19,0,0,0-.23.81,5.2,5.2,0,0,0-.11,1.46v4.53c0,.65.11,1.13.11,1.46a7.41,7.41,0,0,0,.23.81c.11.16.22.16.44.16a.34.34,0,0,0,.34-.16,1,1,0,0,0,.22-.49c0-.32.12-.65.12-1v-1.62h2.46v1a13.18,13.18,0,0,1-.23,2.43,3.55,3.55,0,0,1-.67,1.46c-.33.32-.67.65-1,.65s-.79.16-1.12.16a4.68,4.68,0,0,1-1.68-.33,2.39,2.39,0,0,1-1-1.29,9.89,9.89,0,0,1-.56-2.27,28.78,28.78,0,0,1-.11-3.24,16.13,16.13,0,0,1,.22-3.4,10.33,10.33,0,0,1,.56-2.26,3.22,3.22,0,0,1,1-1.3,2.8,2.8,0,0,1,1.68-.32,4.06,4.06,0,0,1,1.45.32,3,3,0,0,1,1,.81,3.73,3.73,0,0,1,.56,1.46,8.32,8.32,0,0,1,.22,1.78v.81h-2.46v-.49A10.84,10.84,0,0,0,352.76,113.7Z" transform="translate(0)" style="fill:#fff"/><path d="M355.79,114.18v-3.07h6.26v3.07h-1.9V125h-2.46V114.18Z" transform="translate(0)" style="fill:#fff"/><path d="M363.62,121.14V125h-2.24v-3.89Z" transform="translate(0)" style="fill:#fff"/></g><g style="isolation:isolate"><path d="M235.5,134.42v10.84h3v2.92h-5.59V134.25h2.57Z" transform="translate(0)" style="fill:#fff"/><path d="M244.9,134.42v2.91h-3.13v2.43h3v2.91h-3v2.75h3.35v2.92h-5.81V134.42Z" transform="translate(0)" style="fill:#fff"/><path d="M245.35,137.49v-3.07h6.26v3.07h-1.9v10.85h-2.46V137.49Z" transform="translate(0)" style="fill:#fff"/><path d="M254.41,134.42V138a5.23,5.23,0,0,1-.56,2.75,1.73,1.73,0,0,1-1.68,1v-1.62a.65.65,0,0,0,.67-.48,3,3,0,0,0,.23-1.14v-.16h-.9v-3.72h2.24Z" transform="translate(0)" style="fill:#fff"/><path d="M259.33,138a3.25,3.25,0,0,0-.22-1.14.63.63,0,0,0-.56-.48.75.75,0,0,0-.56.32,2.28,2.28,0,0,0-.22.81,1.83,1.83,0,0,0,.33,1.13,1.77,1.77,0,0,0,.79.65,3.55,3.55,0,0,1,1,.65,4.48,4.48,0,0,1,1,.81,4.11,4.11,0,0,1,.78,1.29,5,5,0,0,1,.34,2.11,5,5,0,0,1-.9,3.24,3.29,3.29,0,0,1-2.57,1,3.25,3.25,0,0,1-1.34-.16,2,2,0,0,1-1-.65,7.49,7.49,0,0,1-.67-1.13,8.42,8.42,0,0,1-.22-1.79v-.48h2.46v.32a3.51,3.51,0,0,0,.22,1.3.65.65,0,0,0,1.12,0,3.16,3.16,0,0,0,.22-1,1.88,1.88,0,0,0-.33-1.14,2.63,2.63,0,0,0-.67-.64,3.39,3.39,0,0,1-.9-.65,2.54,2.54,0,0,1-.89-.81,2.08,2.08,0,0,1-.67-1.3,4.56,4.56,0,0,1-.34-1.94,5.38,5.38,0,0,1,.78-3.24,3.16,3.16,0,0,1,4.7-.16,5.88,5.88,0,0,1,.79,3.24h-2.35V138Z" transform="translate(0)" style="fill:#fff"/><path d="M272.76,140.73v7.61h-1.68V147h0c-.11.33-.22.49-.33.81-.12.16-.34.33-.45.49s-.34.16-.56.16h-.67a2,2,0,0,1-1.46-.49,2.85,2.85,0,0,1-.78-1.29,9.58,9.58,0,0,1-.34-2.27c0-1-.11-1.94-.11-3.07a25.87,25.87,0,0,1,.11-3.08,7.56,7.56,0,0,1,.56-2.27,3.15,3.15,0,0,1,1.12-1.45,3.11,3.11,0,0,1,1.79-.49,2.8,2.8,0,0,1,1.23.33,4,4,0,0,1,1,.81,5.68,5.68,0,0,1,.67,1.45,6.14,6.14,0,0,1,.23,2.11h-2.46a5.4,5.4,0,0,0-.12-1.62c-.11-.33-.33-.65-.56-.65s-.33,0-.44.16a1.14,1.14,0,0,0-.23.81,5.23,5.23,0,0,0-.11,1.46v4.53a5.86,5.86,0,0,0,.11,1.46,4.36,4.36,0,0,0,.23.81c.11.16.22.16.44.16a.34.34,0,0,0,.34-.16c.11-.16.22-.16.22-.49a3.65,3.65,0,0,0,.23-1c0-.32.11-.81.11-1.46h-1.34v-2.42h3.24Z" transform="translate(0)" style="fill:#fff"/><path d="M279.47,134.42v2.91h-3.13v2.43h3v2.91h-3v2.75h3.36v2.92h-5.82V134.42Z" transform="translate(0)" style="fill:#fff"/><path d="M279.92,137.49v-3.07h6.27v3.07h-1.9v10.85h-2.47V137.49Z" transform="translate(0)" style="fill:#fff"/><path d="M289.1,137.49v-3.07h6.26v3.07h-1.9v10.85H291V137.49Z" transform="translate(0)" style="fill:#fff"/><path d="M295.81,138a9.89,9.89,0,0,1,.56-2.27,3,3,0,0,1,1-1.29,2.5,2.5,0,0,1,1.56-.33,4,4,0,0,1,1.57.33,2.44,2.44,0,0,1,1,1.29,10.43,10.43,0,0,1,.56,2.27,26.46,26.46,0,0,1,.22,3.23,24.32,24.32,0,0,1-.22,3.24,10.43,10.43,0,0,1-.56,2.27,3.12,3.12,0,0,1-1,1.29,2.55,2.55,0,0,1-1.57.33,4,4,0,0,1-1.56-.33,2.39,2.39,0,0,1-1-1.29,9.89,9.89,0,0,1-.56-2.27,23.89,23.89,0,0,1,0-6.47Zm2.46,5.66a5.2,5.2,0,0,0,.11,1.46,6.81,6.81,0,0,0,.23.81c.11.16.22.16.45.16s.33,0,.44-.16a1.12,1.12,0,0,0,.23-.81,5.2,5.2,0,0,0,.11-1.46v-4.53a5.23,5.23,0,0,0-.11-1.46,4.61,4.61,0,0,0-.23-.81c-.11-.16-.22-.16-.44-.16s-.34,0-.45.16a1.21,1.21,0,0,0-.23.81,5.23,5.23,0,0,0-.11,1.46v2.27A15.45,15.45,0,0,0,298.27,143.64Z" transform="translate(0)" style="fill:#fff"/><path d="M312.15,134.42l1,9.55h0l.68-9.55h2.46l-1.68,13.92h-2.69l-.78-9.39h0l-.78,9.39h-2.69L306,134.42h2.46l.79,9.55h0l.89-9.55Z" transform="translate(0)" style="fill:#fff"/><path d="M316.73,138a10.43,10.43,0,0,1,.56-2.27,3.2,3.2,0,0,1,1-1.29,2.55,2.55,0,0,1,1.57-.33,4,4,0,0,1,1.56.33,2.39,2.39,0,0,1,1,1.29A9.89,9.89,0,0,1,323,138a26.46,26.46,0,0,1,.22,3.23,24.32,24.32,0,0,1-.22,3.24,9.89,9.89,0,0,1-.56,2.27,3,3,0,0,1-1,1.29,2.5,2.5,0,0,1-1.56.33,4.07,4.07,0,0,1-1.57-.33,2.44,2.44,0,0,1-1-1.29,10.43,10.43,0,0,1-.56-2.27,23.89,23.89,0,0,1,0-6.47Zm2.47,5.66a5.2,5.2,0,0,0,.11,1.46,5.5,5.5,0,0,0,.22.81c.11.16.23.16.45.16s.34,0,.45-.16a1.18,1.18,0,0,0,.22-.81,5.2,5.2,0,0,0,.11-1.46v-4.53a5.23,5.23,0,0,0-.11-1.46,5.88,5.88,0,0,0-.22-.81c-.11-.16-.23-.16-.45-.16s-.34,0-.45.16a1.22,1.22,0,0,0-.22.81,5.23,5.23,0,0,0-.11,1.46v2.27A7.12,7.12,0,0,0,319.2,143.64Z" transform="translate(0)" style="fill:#fff"/><path d="M328.15,134.42a3,3,0,0,1,1.23.32,2.25,2.25,0,0,1,.78.81,2.91,2.91,0,0,1,.45,1.13,6.53,6.53,0,0,1,.11,1.46,6.64,6.64,0,0,1-.33,2.27,1.3,1.3,0,0,1-1.24,1h0a1.29,1.29,0,0,1,1.24,1,6,6,0,0,1,.33,2.26v2.59c0,.17,0,.33.11.33l.11.16s.12.16.23.16V148h-2.69a1,1,0,0,1-.11-.64,2,2,0,0,0-.11-.81v-3.08a5.63,5.63,0,0,0-.11-.65c-.11-.16-.11-.32-.23-.32s-.22-.16-.33-.16h-.67v5.5h-2.58V133.93h3.81Zm-.9,5.82a.81.81,0,0,0,.79-.48,1.86,1.86,0,0,0,.22-1.14,3.45,3.45,0,0,0-.22-1.29c-.12-.32-.45-.32-.79-.32h-.45v3.23Z" transform="translate(0)" style="fill:#fff"/><path d="M334.41,134.42v5.34h0l1.91-5.34H339l-2.46,6,2.68,7.77h-2.79L335,143.32l-.56,1.13v3.73H332V134.25h2.46Z" transform="translate(0)" style="fill:#fff"/><path d="M339.78,134.42h2.35v4.69l-.33,5.18H340l-.23-5.18Zm2.35,10.68v3.08H339.9V145.1Z" transform="translate(0)" style="fill:#fff"/></g></g><g id="bffe48e0-cb32-40e6-a1b2-558152695066" data-name="Layer 3"><path d="M219.44,356.52l-1.1-.7c-.9-.6-22.1-14.6-22.1-27.2,0-9,6.3-13.6,12.7-13.6a13.68,13.68,0,0,1,10.5,5.1,13.93,13.93,0,0,1,10.5-5.2c6.3,0,12.7,4.7,12.7,13.6,0,12.6-21.2,26.6-22.1,27.2Z" transform="translate(0)" style="fill:#fff"/></g></g></svg>