<svg id="Family" xmlns="http://www.w3.org/2000/svg" viewBox="0 0 285.7 180.4"><defs><style>.cls-1,.cls-2{stroke:#000;stroke-miterlimit:10;}.cls-1{stroke-width:0.5px;}.cls-2{stroke-width:0.25px;}.cls-3{fill:#02c9fb;}.cls-4{fill:none;}.cls-5{isolation:isolate;}</style></defs><title>Artboard 1</title><g id="Child"><g id="Bot_33" data-name="Bot 33"><path class="cls-1" d="M258.9,123.5a7,7,0,1,0-7,7A7,7,0,0,0,258.9,123.5Zm-7,5a5,5,0,1,1,5-5A5,5,0,0,1,251.9,128.5Z"/><path class="cls-1" d="M266.9,128.5a5,5,0,1,0-5-5A5,5,0,0,0,266.9,128.5Zm0-8a3,3,0,1,1-3,3A3,3,0,0,1,266.9,120.5Z"/><path class="cls-1" d="M251.2,122.8a1,1,0,1,0,1.4,0A1,1,0,0,0,251.2,122.8Z"/><path class="cls-1" d="M236.5,141.3a1.09,1.09,0,0,1-1.4-.2l-2.8-2.8a2.21,2.21,0,0,0-2.1-.5,2,2,0,0,0-1.3,1.6,6.92,6.92,0,0,0,5.9,7.9c.3,0,.7.1,1,.1a10,10,0,0,0,2.4-.4l5,3a2.93,2.93,0,0,0,1.6.4,2.82,2.82,0,0,0,1.5-.4l1.5-.9a10.91,10.91,0,0,0,2.8,6.6,10,10,0,0,0,1.2,12.7h0a10,10,0,0,0,14.1,0h0a10,10,0,0,0,1.2-12.7,10.91,10.91,0,0,0,2.8-7.3v-11a5.39,5.39,0,0,0-1-3h1.5a6.52,6.52,0,0,0,6.3-5h.2a6,6,0,0,0,0-12h0a6.53,6.53,0,0,0-6.5-6h-23a6.53,6.53,0,0,0-6.5,6h0a6,6,0,0,0,0,12h.2a6.52,6.52,0,0,0,6.3,5h1.5a5.39,5.39,0,0,0-1,3v4.8l-3,1.7-2.3-1.4a7.09,7.09,0,0,0-4.6-8.8,6.54,6.54,0,0,0-3.1-.2,2,2,0,0,0-1.1,3.4l2.8,2.8a1.12,1.12,0,0,1-.1,1.6C236.6,141.2,236.6,141.3,236.5,141.3Zm26.3,17.5.4-.1.6-.3.3-.2a2.09,2.09,0,0,0,.6-.4l.2-.1c.3-.2.5-.4.8-.6a9.33,9.33,0,0,1,1.2,3.3H265a1,1,0,0,0,0,2h1.9a7.92,7.92,0,0,1-1.6,3.9l-1.4-1.4a1,1,0,0,0-1.4.1,1.05,1.05,0,0,0,0,1.3l1.4,1.4a7.92,7.92,0,0,1-3.9,1.6v-1.9a1,1,0,1,0-2,0v1.9a7.92,7.92,0,0,1-3.9-1.6l1.4-1.4a1,1,0,0,0-.1-1.4,1.05,1.05,0,0,0-1.3,0l-1.4,1.4a7.92,7.92,0,0,1-1.6-3.9H253a1,1,0,0,0,0-2h-2a7.74,7.74,0,0,1,1.2-3.3,5.55,5.55,0,0,0,.8.6l.2.1a4.35,4.35,0,0,0,.7.4l.3.1.6.3.4.1.6.2.2.1a4.44,4.44,0,0,0-.9,2.4,4,4,0,1,0,8,0,3.41,3.41,0,0,0-.9-2.4l.2-.1Zm-1.9,2.7a2,2,0,1,1-2-2A2,2,0,0,1,260.9,161.5Zm20-38a4,4,0,0,1-4,4v-8A4,4,0,0,1,280.9,123.5Zm-44,0a4,4,0,0,1,4-4v8A4,4,0,0,1,236.9,123.5Zm6,4.5V118a4.48,4.48,0,0,1,4.5-4.5h23a4.48,4.48,0,0,1,4.5,4.5v10a4.48,4.48,0,0,1-4.5,4.5h-23A4.48,4.48,0,0,1,242.9,128Zm7,9.5a3,3,0,0,1,3-3h12a3,3,0,0,1,3,3v11a9,9,0,0,1-9,9H258a8.94,8.94,0,0,1-8.1-9v-.4l10.5-6a3,3,0,0,0-3-5.2l-7.5,4.3Zm-4,8.3,3.4-2h0l9-5.1a1,1,0,0,1,1,1.8l-5.2,3-5.7,3.3h0l-3,1.7a.91.91,0,0,1-1,0l-4.1-2.4a1.21,1.21,0,0,0,.5-.5,3.92,3.92,0,0,0,.8-1h0l2.2,1.3A3,3,0,0,0,245.9,145.8Zm-7.8-7.4-2.9-2.8a5.05,5.05,0,0,1,5.7,4.2,5.48,5.48,0,0,1-.4,2.8h0a5.23,5.23,0,0,1-2.4,2.4,5,5,0,0,1-6.6-2.5,5.11,5.11,0,0,1-.4-2.7l2.8,2.8a3.07,3.07,0,0,0,4.1.3,3,3,0,0,0,.5-4.2c-.2-.2-.3-.3-.4-.3Z"/></g></g><g id="Child-2" data-name="Child"><g id="Bot_33-2" data-name="Bot 33"><path class="cls-1" d="M117,117.8a5,5,0,1,0-5,5A5,5,0,0,0,117,117.8Zm-8,0a3,3,0,1,1,3,3A3,3,0,0,1,109,117.8Z"/><path class="cls-1" d="M136,122.8a5,5,0,1,0-5-5A5,5,0,0,0,136,122.8Zm0-8a3,3,0,1,1-3,3A3,3,0,0,1,136,114.8Z"/><path class="cls-1" d="M148.5,125.8h-1.7a3.55,3.55,0,0,0,.2-1v-13a3,3,0,0,0-3-3H104a3,3,0,0,0-3,3v13a3.55,3.55,0,0,0,.2,1H99.5a5.51,5.51,0,1,0-.6,11v11.7a7,7,0,0,0-3.3,9.3,7.55,7.55,0,0,0,2.1,2.6,2.1,2.1,0,0,0,1.1.4,2.92,2.92,0,0,0,.9-.2,1.89,1.89,0,0,0,1.1-1.8v-4a.89.89,0,0,1,.5-.8c.1-.1.3-.1.5-.2a.91.91,0,0,1,.7.3,1.27,1.27,0,0,1,.4.9v3.9a1.89,1.89,0,0,0,1.1,1.8,1.84,1.84,0,0,0,2-.2,7,7,0,0,0,1.5-9.8,7.84,7.84,0,0,0-2.6-2.2V136.8h4a15,15,0,0,0,2,6.5v17.6a7.85,7.85,0,0,0-3.9,5.6,2.15,2.15,0,0,0,.4,1.6,1.8,1.8,0,0,0,1.5.7h11.8a2,2,0,0,0,1.5-.7,2.2,2.2,0,0,0,.5-1.6,7.85,7.85,0,0,0-3.9-5.6V150a15.56,15.56,0,0,0,10,0v10.9a7.85,7.85,0,0,0-3.9,5.6,2.15,2.15,0,0,0,.4,1.6,1.8,1.8,0,0,0,1.5.7h11.8a2,2,0,0,0,1.5-.7,2.2,2.2,0,0,0,.5-1.6,7.85,7.85,0,0,0-3.9-5.6V143.3a15,15,0,0,0,2-6.5h4v11.7a7,7,0,0,0-3.3,9.3,7.55,7.55,0,0,0,2.1,2.6,2.06,2.06,0,0,0,2,.2,1.89,1.89,0,0,0,1.1-1.8v-3.9a1.22,1.22,0,0,1,.4-.9.91.91,0,0,1,.7-.3c.2,0,.3.1.5.1a1,1,0,0,1,.5.8v4a1.89,1.89,0,0,0,1.1,1.8,2.92,2.92,0,0,0,.9.2,1.92,1.92,0,0,0,1.2-.4,7,7,0,0,0,1.4-9.8,7.55,7.55,0,0,0-2.6-2.1V136.6a5.43,5.43,0,0,0,5.2-5.8A5,5,0,0,0,148.5,125.8Zm-45.5-1v-13a.94.94,0,0,1,1-1h40a.94.94,0,0,1,1,1v13a.94.94,0,0,1-1,1H104A1,1,0,0,1,103,124.8Zm4,30a4.79,4.79,0,0,1-2,4v-3.9a3.26,3.26,0,0,0-1-2.3,2.65,2.65,0,0,0-2.2-.8,3,3,0,0,0-2.8,3v4a5,5,0,0,1-1-7,4.81,4.81,0,0,1,2.3-1.7h.1a1.09,1.09,0,0,1,.5-.1l.3-.1c.3,0,.6-.1.9-.1a4.15,4.15,0,0,1,1.6.3h.1A5.22,5.22,0,0,1,107,154.8Zm-4-6.9c-.3,0-.6-.1-.9-.1h0a2.77,2.77,0,0,0-.9.1H101V136.8h2Zm-3.5-13.1a3.5,3.5,0,0,1,0-7H109v7Zm15.4,12.9.3.2c.2.2.5.3.7.5l.4.2.7.4.2.1v11H117l-.4-.1c-.2,0-.4-.1-.6-.1h-1.8l-.5.1-.4.1H113v-14l.1.1.7.7.1.1A3.59,3.59,0,0,0,114.9,147.7Zm6.1,19.1H109.2a5.87,5.87,0,0,1,6.9-4.9,7.37,7.37,0,0,1,1.4.4l.2.1A6.46,6.46,0,0,1,121,166.8Zm-2.5-19.2a5.94,5.94,0,0,1-.8-.4,12.91,12.91,0,0,1-6.6-11.3v-8h26v8a13,13,0,0,1-13,13,13.16,13.16,0,0,1-5.6-1.3ZM135,146v14h-.2l-.4-.1c-.2,0-.4-.1-.6-.1h-1.9l-.5.1-.4.1h0V149l.2-.1.6-.4.4-.2a3,3,0,0,0,.7-.5l.3-.2a6.47,6.47,0,0,0,.9-.8l.2-.1.7-.7Zm3.9,20.8H127.1a5.87,5.87,0,0,1,6.9-4.9,7.37,7.37,0,0,1,1.4.4l.2.1A5.94,5.94,0,0,1,138.9,166.8Zm8.1-18.9c-.3,0-.7-.1-1-.1h0a2.77,2.77,0,0,0-.9.1H145V136.8h2Zm4,6.9a4.79,4.79,0,0,1-2,4v-4a3,3,0,0,0-2.8-3,3,3,0,0,0-2.2.8,3.26,3.26,0,0,0-1,2.3v3.9a5,5,0,0,1-1-7,4.56,4.56,0,0,1,2.2-1.7h.1a4.53,4.53,0,0,1,1.6-.3,4.67,4.67,0,0,1,1.7.3h0A5,5,0,0,1,151,154.8Zm-2.5-20H139v-7h9.5a3.54,3.54,0,0,1,3.5,3.5A3.48,3.48,0,0,1,148.5,134.8Z"/></g></g><g id="Child-3" data-name="Child"><g id="Слой_1"><path d="M202.8,106.5a5.07,5.07,0,0,1,0,7.2,5.71,5.71,0,0,1-2.1,1.3v4.9l-2.9-.7V115a4.65,4.65,0,0,1-2.1-1.3,5.07,5.07,0,0,1,0-7.2A5.13,5.13,0,0,1,202.8,106.5Zm8.5,28.7a2.65,2.65,0,0,0,1.5-1.9,6.17,6.17,0,0,0-2.7-6.2,2.63,2.63,0,0,0-2.4-.3l-.4.2a17.54,17.54,0,0,1,4,8.2ZM205,124.8l1.5-.6a5.33,5.33,0,0,1,4.9.4,9,9,0,0,1,4.1,9.4c-.6,2.7-2,3.4-4.1,4.3a8,8,0,0,1-5.6,7.6,12.56,12.56,0,0,1,2.2,2.4h2.4a5,5,0,0,1,3.9,2.1,7.53,7.53,0,0,1,1.4,4.5,1.45,1.45,0,0,1-2.9,0,4.34,4.34,0,0,0-.8-2.7,1.92,1.92,0,0,0-1.6-.9h-.9a11.48,11.48,0,0,1,.6,3.7,17.08,17.08,0,0,1-5,12.1c-6.8,6.8-18.6,6.8-25.3,0a17.08,17.08,0,0,1-5-12.1,11.48,11.48,0,0,1,.6-3.7h-1a2.4,2.4,0,0,0-1.6.9,4.78,4.78,0,0,0-.8,2.7,1.45,1.45,0,0,1-2.9,0,7.53,7.53,0,0,1,1.4-4.5,5,5,0,0,1,3.9-2.1h2.5a12.56,12.56,0,0,1,2.2-2.4,8,8,0,0,1-5.6-7.6c-2.1-.9-3.4-1.7-4.1-4.3a9,9,0,0,1,4.1-9.4,5.35,5.35,0,0,1,4.9-.4l1.5.6a16.83,16.83,0,0,1,10.7-3.8h3.5a16.78,16.78,0,0,1,10.9,3.8ZM177.8,127l-.4-.2a2.63,2.63,0,0,0-2.4.3,6,6,0,0,0-2.7,6.2,2.47,2.47,0,0,0,1.5,1.9,17.54,17.54,0,0,1,4-8.2Zm16.5-3.1h-3.5a14.34,14.34,0,0,0-14.3,14.3,5.12,5.12,0,0,0,5.1,5.1h21.9a5.12,5.12,0,0,0,5.1-5.1,14.29,14.29,0,0,0-4.2-10.1,14.73,14.73,0,0,0-10.1-4.2Zm8.5,7.3a5.09,5.09,0,1,1-7.2,0,5.07,5.07,0,0,1,7.2,0Zm-2.1,2a2.12,2.12,0,1,0,0,3A2.17,2.17,0,0,0,200.7,133.2Zm-11.2-2a5.09,5.09,0,1,1-7.2,0A5.07,5.07,0,0,1,189.5,131.2Zm-2.1,2.1a2.12,2.12,0,1,0,0,3A2.18,2.18,0,0,0,187.4,133.3Zm11.3,13H186.3a8.88,8.88,0,0,0-6.1,2.5,8.45,8.45,0,0,0-2.5,6.1,14.29,14.29,0,0,0,4.2,10.1,15.48,15.48,0,0,0,21.2,0,14.12,14.12,0,0,0,4.2-10.1,8.88,8.88,0,0,0-2.5-6.1,8.29,8.29,0,0,0-6.1-2.5Zm-11.3-31.4v4.2l-2.9.7v-4.9a4.65,4.65,0,0,1-2.1-1.3,5.09,5.09,0,1,1,7.2,0A4.6,4.6,0,0,1,187.4,114.9Zm0-6.3a2.12,2.12,0,1,0,0,3A2.18,2.18,0,0,0,187.4,108.6Zm13.3,0a2.12,2.12,0,1,0,0,3A2.17,2.17,0,0,0,200.7,108.6Z"/></g></g><g id="Parent"><g id="Слой_1-2" data-name="Слой 1"><path class="cls-2" d="M55.3,163.2H51.5a1.4,1.4,0,1,0,0,2.8h3.8a1.37,1.37,0,0,0,1.4-1.4A1.43,1.43,0,0,0,55.3,163.2Z"/><path class="cls-2" d="M63.6,163.2H59.8a1.4,1.4,0,1,0,0,2.8h3.8a1.37,1.37,0,0,0,1.4-1.4A1.43,1.43,0,0,0,63.6,163.2Z"/><path class="cls-2" d="M55.3,158.6H51.5a1.4,1.4,0,1,0,0,2.8h3.8a1.37,1.37,0,0,0,1.4-1.4A1.43,1.43,0,0,0,55.3,158.6Z"/><path class="cls-2" d="M63.6,158.6H59.8a1.4,1.4,0,1,0,0,2.8h3.8A1.37,1.37,0,0,0,65,160,1.43,1.43,0,0,0,63.6,158.6Z"/><path class="cls-2" d="M4.4,121.8c-1.8,3-1.3,5.9,1.7,8.9a1.28,1.28,0,0,0,1,.4,1.28,1.28,0,0,0,1-.4,1.42,1.42,0,0,0,.1-2c-2.3-2.4-2.5-4-.8-6.3l5.7.1c1.5,2.4,1.3,4-1,6.2a1.42,1.42,0,0,0-.1,2,1.28,1.28,0,0,0,1,.4,1.28,1.28,0,0,0,1-.4c2.9-2.8,3.5-5.6,2-8.7a3.79,3.79,0,0,0,2-3.3,4.11,4.11,0,0,0-1.1-2.8,3.58,3.58,0,0,0-2.2-1.1c.9-15.3,4.4-21.2,7.3-23.5v.1c0,3.3,2.2,6,4.9,6.3v11.7a67.87,67.87,0,0,0,6.3,29.4c3,6.1,6.5,10.7,10.4,13.6v8.3c.6,5.6,6.1,11.7,13.9,11.7,7.6,0,13.6-6.2,13.9-11.8v-8.2c5.2-3.7,9.4-10.3,12.4-19.5a71.11,71.11,0,0,0,3.3-23L87,98.3v-.8c2.7-.4,4.7-3,4.7-6.3V90c8.3-1.3,16.7-9.2,17.1-27.7a3.94,3.94,0,0,0,3.2-3.7,3.69,3.69,0,0,0-1.1-2.7,2.65,2.65,0,0,0-.6-.5c1.8-3,1.2-5.8-1.7-8.9a1.41,1.41,0,0,0-2,2c2.3,2.3,2.5,3.9.8,6.2l-5.8-.1c-1.5-2.3-1.3-3.9,1-6.1a1.42,1.42,0,1,0-1.9-2.1c-2.9,2.7-3.6,5.6-2,8.6a3.75,3.75,0,0,0-2,3.2,3.69,3.69,0,0,0,1.1,2.7A3.58,3.58,0,0,0,100,62c-.8,14.4-5,17-8.3,18.2a8.17,8.17,0,0,0-8-6.3H78.8A24.35,24.35,0,0,0,68.7,69a30.62,30.62,0,0,0-3.7-.7v-.2H77.3c10.3,0,18.6-9.4,18.6-20.9,0-10.1-6.5-18.7-15.1-20.5a6.68,6.68,0,0,0-5.4-4.9V12.5a4.6,4.6,0,1,0-2.8,0v9.6a6.92,6.92,0,0,0-5.3,4.4H46.9a6.28,6.28,0,0,0-5.3-4.4V12.5a4.6,4.6,0,1,0-2.8,0v9.6A6.54,6.54,0,0,0,33.4,27c-8.6,1.9-15.1,10.4-15.1,20.5,0,11.6,8.4,20.9,18.7,20.9H48.5v.3a26.53,26.53,0,0,0-3,.6,26.89,26.89,0,0,0-9.7,4.9H30.4A8.19,8.19,0,0,0,22.3,81C12.8,83.1,6.7,95.5,5.9,114.7a4,4,0,0,0-3.2,3.7,4.11,4.11,0,0,0,1.1,2.8A1.7,1.7,0,0,0,4.4,121.8ZM99.8,59.3a1,1,0,0,1-.3-.8,1,1,0,0,1,1.1-1h0l7.6.1a.91.91,0,0,1,.8.4,1,1,0,0,1,.3.8,1,1,0,0,1-1.1,1h0l-7.6-.1A2,2,0,0,1,99.8,59.3Zm-8,24.2c4.9-1.6,10.1-4.9,10.9-21.1H106c-.4,16.3-7.3,23.4-14.3,24.7l.1-3.6ZM57.6,169.6c-6,0-10.5-4.7-11-9.1v-6.4a16,16,0,0,0,7,1.7h7.5a17.08,17.08,0,0,0,7.7-1.8v6.5C68.4,164.6,63.5,169.6,57.6,169.6Zm26-92.5A5.26,5.26,0,0,1,89,82.2v9.1c0,1.6-.9,3.1-2,3.4-.6-8.3-2.7-13.9-5.6-17.6ZM72.2,8.2A1.8,1.8,0,1,1,74,10,1.79,1.79,0,0,1,72.2,8.2Zm1.9,16.7a4.33,4.33,0,0,1,3.7,1.8H70.5A4,4,0,0,1,74.1,24.9ZM38.3,8.2a1.79,1.79,0,0,1,1.8-1.8A1.88,1.88,0,0,1,42,8.2,1.79,1.79,0,0,1,40.2,10,1.76,1.76,0,0,1,38.3,8.2Zm1.9,16.7a4.14,4.14,0,0,1,3.6,1.8H36.5A4.2,4.2,0,0,1,40.2,24.9ZM36.9,65.7c-8.7,0-15.8-8.1-15.8-18.1s7.1-18.1,15.8-18.1H77.3c8.7,0,15.8,8.1,15.8,18.1S86,65.7,77.3,65.7Zm25.2,2.8v1.8c0,1.8-2.5,3.5-5.4,3.5s-5.5-1.6-5.5-3.5V68.5ZM46.2,72.1a17,17,0,0,1,2.4-.5c.8,2.9,4.1,5,8.1,5s7.4-2.1,8.1-5.1a22.94,22.94,0,0,1,3.2.6c8.3,2.2,16.1,6.9,16.3,26.4l.1,11.3a68.3,68.3,0,0,1-3.2,22.1c-2.5,7.9-8.5,21-20.2,21H53.5c-8.9,0-14.9-9.7-17.6-15.4a65.58,65.58,0,0,1-6-28.2V99C29.8,78.9,39.1,74,46.2,72.1ZM24.9,82.3a5.26,5.26,0,0,1,5.4-5.1H33c-3.5,4.3-5.4,10.1-5.9,17.7a3.45,3.45,0,0,1-2.2-3.5ZM22.1,84v4C17.8,90.1,13,96.6,12,114.7H8.7C9.4,97.8,14.5,86.4,22.1,84ZM6.6,117.5h0l7.6.1a.91.91,0,0,1,.8.4,1.14,1.14,0,0,1,.3.8,1,1,0,0,1-1.1,1h0l-7.6-.1a1,1,0,0,1-1.1-1.1A1.18,1.18,0,0,1,6.6,117.5Z"/><path class="cls-2" d="M48.7,119.6H65.8c5.9,0,10.7-6.1,10.7-13.5S71.7,92.6,65.8,92.6H48.7c-5.9,0-10.7,6.1-10.7,13.5S42.8,119.6,48.7,119.6Zm0-24.1H65.8c4.3,0,7.8,4.8,7.8,10.6s-3.5,10.6-7.8,10.6H48.7c-4.3,0-7.8-4.8-7.8-10.6S44.3,95.5,48.7,95.5Z"/><path class="cls-2" d="M40.3,40.7a5.2,5.2,0,1,0,5.2,5.2A5.16,5.16,0,0,0,40.3,40.7Zm0,7.5a2.4,2.4,0,1,1,2.4-2.4A2.37,2.37,0,0,1,40.3,48.2Z"/><path class="cls-2" d="M74.3,40.7a5.2,5.2,0,1,0,5.2,5.2A5.16,5.16,0,0,0,74.3,40.7Zm0,7.5a2.4,2.4,0,1,1,2.4-2.4A2.37,2.37,0,0,1,74.3,48.2Z"/><path class="cls-2" d="M63,49.4H51.6a1.37,1.37,0,0,0-1.4,1.4c0,3.5,3.2,6.3,7.1,6.3s7.1-2.8,7.1-6.3A1.37,1.37,0,0,0,63,49.4Zm-5.7,4.8a4.35,4.35,0,0,1-3.9-2h7.8A4.47,4.47,0,0,1,57.3,54.2Z"/><path class="cls-2" d="M89,47.5c0-8.8-3.7-13.7-10.2-13.7H35.4c-5.9,0-10.2,5.8-10.2,13.7,0,8.2,4.1,13.7,10.2,13.7H78.7C85.3,61.3,89,56.4,89,47.5Zm-61,0c0-5.4,2.5-10.8,7.4-10.8H78.7c4.9,0,7.4,3.7,7.4,10.8s-2.5,10.8-7.4,10.8H35.4C30,58.5,28,52.5,28,47.5Z"/></g></g><g id="Heart"><path class="cls-3" d="M57.6,113.6l-.4-.2c-.3-.2-7.8-5.2-7.8-9.7a4.58,4.58,0,0,1,4.5-4.9,4.9,4.9,0,0,1,3.7,1.8,4.57,4.57,0,0,1,8.2,3.1c0,4.5-7.5,9.4-7.8,9.7Z"/></g><g id="Phrase"><g id="Text"><rect class="cls-4" x="126.9" y="26.7" width="152.2" height="78.1"/><g class="cls-5"><path d="M131.09,35h-1.84L129,36.18h-2.07l2-7.7h2.56l2,7.7h-2.12Zm-.32-1.49-.59-2.77-.61,2.77Z"/><path d="M139.86,28.48c1.28,0,1.76.58,1.76,1.48v1c0,.62-.11,1.1-.58,1.35.47.21.58.63.58,1.24v1.15c0,.9-.48,1.49-1.76,1.49h-3.53v-7.7Zm-.3,1.64c0-.18-.1-.26-.3-.26h-.87v1.77h.87c.2,0,.3-.08.3-.26Zm0,3.15c0-.18-.1-.26-.3-.26h-.87V34.8h.87q.3,0,.3-.27Z"/><path d="M146,28.48c1.29,0,1.77.58,1.77,1.48v4.73c0,.9-.48,1.49-1.77,1.49h-1.77c-1.28,0-1.76-.59-1.76-1.49V30c0-.9.48-1.48,1.76-1.48Zm-.33,1.76c0-.18-.1-.26-.3-.26h-.51c-.2,0-.3.08-.3.26v4.17q0,.27.3.27h.51q.3,0,.3-.27Z"/><path d="M154,28.48v6.21c0,.9-.48,1.49-1.77,1.49h-1.77c-1.29,0-1.77-.59-1.77-1.49V28.48h2.1v5.93q0,.27.3.27h.51q.3,0,.3-.27V28.48Z"/><path d="M159.62,30h-1.49v6.2H156V30h-1.47v-1.5h5.06Z"/><path d="M162.26,28.48v7.7h-2.1v-7.7Z"/><path d="M166.77,37l-.75-.81H165c-1.28,0-1.76-.59-1.76-1.49V30c0-.9.48-1.48,1.76-1.48h1.77c1.29,0,1.77.58,1.77,1.48v4.73A1.34,1.34,0,0,1,168,35.8L169.16,37Zm-1.48-2.58c0,.18.09.27.29.27h.51q.3,0,.3-.27V30.24c0-.18-.1-.26-.3-.26h-.51c-.2,0-.29.08-.29.26Z"/><path d="M174.72,28.48v6.21c0,.9-.48,1.49-1.77,1.49h-1.77c-1.29,0-1.77-.59-1.77-1.49V28.48h2.1v5.93q0,.27.3.27h.51q.3,0,.3-.27V28.48Z"/><path d="M180.4,34.68v1.5h-4.72v-7.7h4.62V30h-2.52v1.57H180v1.5h-2.17v1.63Z"/><path d="M187,28.48c1.28,0,1.76.58,1.76,1.48v2.21c0,.9-.48,1.49-1.76,1.49h-1.46v2.52h-2.1v-7.7Zm-.34,1.76c0-.18-.09-.26-.3-.26h-.82v2.18h.82c.21,0,.3-.08.3-.26Z"/><path d="M191.75,33.44h-.14v2.74h-2.09v-7.7h3.56c1.28,0,1.76.58,1.76,1.48v2a1.29,1.29,0,0,1-1,1.4l1.41,2.82H193ZM191.61,30v2h.83c.21,0,.3-.08.3-.26V30.24c0-.18-.09-.26-.3-.26Z"/><path d="M199.19,28.48c1.28,0,1.76.58,1.76,1.48v4.73c0,.9-.48,1.49-1.76,1.49h-1.78c-1.28,0-1.76-.59-1.76-1.49V30c0-.9.48-1.48,1.76-1.48Zm-.34,1.76c0-.18-.1-.26-.3-.26h-.5c-.21,0-.3.08-.3.26v4.17c0,.18.09.27.3.27h.5q.3,0,.3-.27Z"/><path d="M205.53,28.48c1.29,0,1.77.58,1.77,1.48v4.73c0,.9-.48,1.49-1.77,1.49H202v-7.7Zm-.33,1.64c0-.18-.1-.26-.3-.26h-.81V34.8h.81q.3,0,.3-.27Z"/><path d="M213.53,28.48v6.21c0,.9-.48,1.49-1.77,1.49H210c-1.28,0-1.77-.59-1.77-1.49V28.48h2.1v5.93q0,.27.3.27h.51q.3,0,.3-.27V28.48Z"/><path d="M217.55,31.36V30.12c0-.18-.1-.26-.3-.26h-.42c-.21,0-.3.08-.3.26v4.41c0,.18.09.27.3.27h.42q.3,0,.3-.27V33.35h2.1v1.34c0,.9-.48,1.49-1.77,1.49h-1.69c-1.28,0-1.76-.59-1.76-1.49V30c0-.9.48-1.48,1.76-1.48h1.69c1.29,0,1.77.58,1.77,1.48v1.4Z"/><path d="M225.07,30h-1.49v6.2h-2.09V30H220v-1.5h5.06Z"/><path d="M225.37,31.86H229v1.38h-3.64Z"/><path d="M232.79,31.36V30.12c0-.18-.1-.26-.3-.26h-.42c-.21,0-.3.08-.3.26v4.41c0,.18.09.27.3.27h.42q.3,0,.3-.27V33.35h2.1v1.34c0,.9-.48,1.49-1.77,1.49h-1.69c-1.28,0-1.76-.59-1.76-1.49V30c0-.9.48-1.48,1.76-1.48h1.69c1.29,0,1.77.58,1.77,1.48v1.4Z"/><path d="M240.4,34.68v1.5h-4.73v-7.7h4.62V30h-2.52v1.57h2.17v1.5h-2.17v1.63Z"/><path d="M246.49,28.48v7.7h-1.8l-1.71-4v4h-1.92v-7.7h1.8l1.71,4.11V28.48Z"/><path d="M252.1,30h-1.49v6.2h-2.1V30H247v-1.5h5.06Z"/><path d="M254.87,33.44h-.13v2.74h-2.1v-7.7h3.56c1.28,0,1.76.58,1.76,1.48v2a1.28,1.28,0,0,1-1,1.4l1.42,2.82h-2.26ZM254.74,30v2h.83c.2,0,.3-.08.3-.26V30.24c0-.18-.1-.26-.3-.26Z"/><path d="M260.91,28.48v7.7h-2.1v-7.7Z"/><path d="M264.93,31.36V30.12c0-.18-.1-.26-.3-.26h-.42c-.21,0-.3.08-.3.26v4.41c0,.18.09.27.3.27h.42q.3,0,.3-.27V33.35H267v1.34c0,.9-.48,1.49-1.76,1.49h-1.69c-1.28,0-1.76-.59-1.76-1.49V30c0-.9.48-1.48,1.76-1.48h1.69c1.28,0,1.76.58,1.76,1.48v1.4Z"/></g><g class="cls-5"><path d="M130.94,42.88c1.28,0,1.76.58,1.76,1.48v1c0,.62-.11,1.1-.57,1.35.46.21.57.63.57,1.24v1.15c0,.9-.48,1.49-1.76,1.49h-3.53v-7.7Zm-.3,1.64c0-.18-.1-.26-.3-.26h-.86V46h.86c.2,0,.3-.08.3-.26Zm0,3.15c0-.17-.1-.26-.3-.26h-.86V49.2h.86q.3,0,.3-.27Z"/><path d="M138.91,42.88v6.21c0,.9-.48,1.49-1.77,1.49h-1.77c-1.29,0-1.77-.59-1.77-1.49V42.88h2.1v5.93q0,.27.3.27h.51q.3,0,.3-.27V42.88Z"/><path d="M142.82,47.72c0-.18-.1-.26-.3-.26h-1.15c-1.25,0-1.62-.61-1.62-1.51V44.36c0-.9.47-1.48,1.75-1.48h1.64c1.29,0,1.75.58,1.75,1.48v.93H142.8v-.65c0-.18-.1-.26-.3-.26h-.35c-.21,0-.3.08-.3.26v1.14c0,.18.09.26.3.26h1.13c1.24,0,1.64.57,1.64,1.47v1.58c0,.9-.47,1.49-1.75,1.49h-1.63c-1.29,0-1.77-.59-1.77-1.49v-.92h2.1v.64q0,.27.3.27h.35q.3,0,.3-.27Z"/><path d="M147.86,42.88v7.7h-2.1v-7.7Z"/><path d="M154.25,42.88v7.7h-1.79l-1.72-4v4h-1.92v-7.7h1.8L152.34,47V42.88Z"/><path d="M159.94,49.08v1.5h-4.72v-7.7h4.62v1.5h-2.52V46h2.17v1.5h-2.17v1.63Z"/><path d="M163.56,47.72c0-.18-.1-.26-.3-.26H162.1c-1.24,0-1.61-.61-1.61-1.51V44.36c0-.9.46-1.48,1.75-1.48h1.64c1.28,0,1.75.58,1.75,1.48v.93h-2.1v-.65c0-.18-.09-.26-.3-.26h-.35c-.2,0-.3.08-.3.26v1.14c0,.18.1.26.3.26H164c1.25,0,1.65.57,1.65,1.47v1.58c0,.9-.47,1.49-1.76,1.49h-1.63c-1.28,0-1.76-.59-1.76-1.49v-.92h2.1v.64c0,.18.09.27.3.27h.35q.3,0,.3-.27Z"/><path d="M169.45,47.72c0-.18-.1-.26-.3-.26H168c-1.25,0-1.62-.61-1.62-1.51V44.36c0-.9.47-1.48,1.75-1.48h1.64c1.29,0,1.75.58,1.75,1.48v.93h-2.1v-.65c0-.18-.09-.26-.3-.26h-.34c-.21,0-.3.08-.3.26v1.14c0,.18.09.26.3.26h1.12c1.25,0,1.65.57,1.65,1.47v1.58c0,.9-.47,1.49-1.75,1.49h-1.63c-1.29,0-1.77-.59-1.77-1.49v-.92h2.1v.64q0,.27.3.27h.35q.3,0,.3-.27Z"/><path d="M176.89,44.38v1.87h2.18v1.38h-2.18v2.95h-2.1v-7.7h4.62v1.5Z"/><path d="M183.57,42.88c1.29,0,1.77.58,1.77,1.48v4.73c0,.9-.48,1.49-1.77,1.49H181.8c-1.28,0-1.76-.59-1.76-1.49V44.36c0-.9.48-1.48,1.76-1.48Zm-.33,1.76c0-.18-.1-.26-.3-.26h-.51c-.2,0-.3.08-.3.26v4.17q0,.27.3.27h.51q.3,0,.3-.27Z"/><path d="M189.32,45.76V44.52c0-.18-.09-.26-.3-.26h-.42c-.2,0-.3.08-.3.26v4.41q0,.27.3.27H189c.21,0,.3-.09.3-.27V47.75h2.1v1.34c0,.9-.48,1.49-1.76,1.49H188c-1.29,0-1.77-.59-1.77-1.49V44.36c0-.9.48-1.48,1.77-1.48h1.69c1.28,0,1.76.58,1.76,1.48v1.4Z"/><path d="M197.51,42.88v6.21c0,.9-.48,1.49-1.77,1.49H194c-1.29,0-1.77-.59-1.77-1.49V42.88h2.1v5.93q0,.27.3.27h.51q.3,0,.3-.27V42.88Z"/><path d="M201.42,47.72c0-.18-.1-.26-.3-.26H200c-1.25,0-1.62-.61-1.62-1.51V44.36c0-.9.47-1.48,1.75-1.48h1.64c1.29,0,1.75.58,1.75,1.48v.93h-2.1v-.65c0-.18-.09-.26-.3-.26h-.34c-.21,0-.3.08-.3.26v1.14c0,.18.09.26.3.26h1.12c1.25,0,1.65.57,1.65,1.47v1.58c0,.9-.47,1.49-1.75,1.49h-1.64c-1.28,0-1.76-.59-1.76-1.49v-.92h2.1v.64q0,.27.3.27h.35q.3,0,.3-.27Z"/><path d="M209.09,49.08v1.5h-4.73v-7.7H209v1.5h-2.52V46h2.17v1.5h-2.17v1.63Z"/><path d="M213.41,42.88c1.28,0,1.76.58,1.76,1.48v4.73c0,.9-.48,1.49-1.76,1.49h-3.54v-7.7Zm-.34,1.64c0-.18-.09-.26-.3-.26H212V49.2h.8c.21,0,.3-.09.3-.27Z"/><path d="M222,42.88c1.28,0,1.76.58,1.76,1.48v4.73c0,.9-.48,1.49-1.76,1.49h-1.78c-1.28,0-1.76-.59-1.76-1.49V44.36c0-.9.48-1.48,1.76-1.48Zm-.34,1.76c0-.18-.09-.26-.3-.26h-.5c-.2,0-.3.08-.3.26v4.17q0,.27.3.27h.5c.21,0,.3-.09.3-.27Z"/><path d="M230.12,42.88v7.7h-1.8l-1.71-4v4h-1.92v-7.7h1.8L228.2,47V42.88Z"/></g><g class="cls-5"><path d="M131.07,57.28c1.28,0,1.76.59,1.76,1.48v4.73c0,.9-.48,1.49-1.76,1.49h-3.54v-7.7Zm-.34,1.64c0-.18-.09-.26-.3-.26h-.8V63.6h.8c.21,0,.3-.09.3-.27Z"/><path d="M138.49,63.48V65h-4.73v-7.7h4.62v1.5h-2.52v1.57H138v1.5h-2.17v1.63Z"/><path d="M143.63,63.48V65h-4.48v-7.7h2.1v6.2Z"/><path d="M146.22,57.28V65h-2.1v-7.7Z"/><path d="M153,57.28l-1.9,7.7h-2.43l-1.9-7.7H149l.93,5.14.93-5.14Z"/><path d="M158.3,63.48V65h-4.73v-7.7h4.62v1.5h-2.52v1.57h2.17v1.5h-2.17v1.63Z"/><path d="M161.19,62.24h-.13V65H159v-7.7h3.56c1.29,0,1.77.59,1.77,1.48v2a1.29,1.29,0,0,1-1,1.4L164.67,65h-2.25Zm-.13-3.46v2h.83q.3,0,.3-.27V59c0-.18-.1-.26-.3-.26Z"/><path d="M167.23,57.28V65h-2.1v-7.7Z"/><path d="M173.62,57.28V65h-1.8l-1.71-4v4h-1.92v-7.7H170l1.72,4.11V57.28Z"/><path d="M177.66,59.92v-1c0-.18-.1-.26-.3-.26h-.43c-.21,0-.3.08-.3.26v4.41c0,.18.09.27.3.27h.43q.3,0,.3-.27V62.05h-.6V60.72h2.7v2.77c0,.9-.48,1.49-1.77,1.49h-1.7c-1.28,0-1.76-.59-1.76-1.49V58.76c0-.89.48-1.48,1.76-1.48H178c1.29,0,1.77.59,1.77,1.48v1.16Z"/><path d="M185.82,63.31l-.95-3.2V65H183v-7.7h2.29l1.25,4.11,1.24-4.11h2.3V65h-1.86v-4.9l-1,3.23Z"/><path d="M194.54,57.28c1.29,0,1.77.59,1.77,1.48v4.73c0,.9-.48,1.49-1.77,1.49h-1.77c-1.29,0-1.77-.59-1.77-1.49V58.76c0-.89.48-1.48,1.77-1.48ZM194.21,59c0-.18-.1-.26-.3-.26h-.51c-.2,0-.3.08-.3.26v4.17q0,.27.3.27h.51q.3,0,.3-.27Z"/><path d="M199.46,62.24h-.13V65h-2.1v-7.7h3.56c1.29,0,1.77.59,1.77,1.48v2a1.29,1.29,0,0,1-1,1.4L202.94,65h-2.25Zm-.13-3.46v2h.83q.3,0,.3-.27V59c0-.18-.1-.26-.3-.26Z"/><path d="M208.13,63.48V65H203.4v-7.7H208v1.5H205.5v1.57h2.17v1.5H205.5v1.63Z"/><path d="M217,57.28l-1.9,7.7h-2.43l-1.9-7.7H213l.92,5.14.93-5.14Z"/><path d="M221.27,63.83h-1.85L219.17,65h-2.06l2-7.7h2.56l2,7.7h-2.11Zm-.33-1.49-.58-2.77-.62,2.77Z"/><path d="M228.59,63.48V65H224.1v-7.7h2.1v6.2Z"/><path d="M234.37,57.28v6.21c0,.9-.48,1.49-1.76,1.49h-1.78c-1.28,0-1.76-.59-1.76-1.49V57.28h2.1v5.93c0,.18.09.27.3.27h.5c.21,0,.3-.09.3-.27V57.28Z"/><path d="M240.06,63.48V65h-4.73v-7.7H240v1.5h-2.52v1.57h2.17v1.5h-2.17v1.63Z"/><path d="M247.76,58.78h-1.48V65h-2.1v-6.2H242.7v-1.5h5.06Z"/><path d="M251.81,57.28c1.28,0,1.76.59,1.76,1.48v4.73c0,.9-.48,1.49-1.76,1.49H250c-1.28,0-1.76-.59-1.76-1.49V58.76c0-.89.48-1.48,1.76-1.48ZM251.47,59c0-.18-.09-.26-.3-.26h-.5c-.2,0-.3.08-.3.26v4.17q0,.27.3.27h.5c.21,0,.3-.09.3-.27Z"/></g><g class="cls-5"><path d="M130.47,74.56V73.32c0-.18-.09-.26-.3-.26h-.42c-.2,0-.3.08-.3.26v4.41q0,.27.3.27h.42c.21,0,.3-.09.3-.27V76.55h2.1v1.34c0,.9-.48,1.49-1.76,1.49h-1.69c-1.29,0-1.77-.59-1.77-1.49V73.16c0-.9.48-1.48,1.77-1.48h1.69c1.28,0,1.76.58,1.76,1.48v1.4Z"/><path d="M138.65,71.68v6.21c0,.9-.48,1.49-1.76,1.49h-1.77c-1.29,0-1.77-.59-1.77-1.49V71.68h2.1v5.93q0,.27.3.27h.5c.21,0,.3-.09.3-.27V71.68Z"/><path d="M142.57,76.52c0-.18-.1-.26-.3-.26h-1.15c-1.25,0-1.62-.61-1.62-1.51V73.16c0-.9.46-1.48,1.75-1.48h1.64c1.28,0,1.75.58,1.75,1.48v.93h-2.1v-.65c0-.18-.09-.26-.3-.26h-.34c-.21,0-.3.08-.3.26v1.14c0,.18.09.26.3.26H143c1.25,0,1.65.57,1.65,1.47v1.58c0,.9-.47,1.49-1.75,1.49h-1.64c-1.28,0-1.76-.59-1.76-1.49V77h2.1v.64q0,.27.3.27h.35q.3,0,.3-.27Z"/><path d="M150.15,73.18h-1.49v6.2h-2.1v-6.2h-1.47v-1.5h5.06Z"/><path d="M154.2,71.68c1.28,0,1.76.58,1.76,1.48v4.73c0,.9-.48,1.49-1.76,1.49h-1.78c-1.28,0-1.76-.59-1.76-1.49V73.16c0-.9.48-1.48,1.76-1.48Zm-.34,1.76c0-.18-.1-.26-.3-.26h-.5c-.21,0-.3.08-.3.26v4.17c0,.18.09.27.3.27h.5q.3,0,.3-.27Z"/><path d="M159.7,77.71l-.94-3.2v4.87h-1.87v-7.7h2.29l1.24,4.11,1.25-4.11H164v7.7H162.1v-4.9l-1,3.23Z"/><path d="M169.65,77.88v1.5h-4.72v-7.7h4.61v1.5H167v1.57h2.17v1.5H167v1.63Z"/><path d="M172.55,76.64h-.14v2.74h-2.1v-7.7h3.57c1.28,0,1.76.58,1.76,1.48v2a1.29,1.29,0,0,1-1,1.4L176,79.38h-2.25Zm-.14-3.46v2h.83c.21,0,.3-.08.3-.26V73.44c0-.18-.09-.26-.3-.26Z"/><path d="M179.43,76.52c0-.18-.09-.26-.3-.26H178c-1.24,0-1.62-.61-1.62-1.51V73.16c0-.9.47-1.48,1.76-1.48h1.64c1.28,0,1.75.58,1.75,1.48v.93h-2.1v-.65c0-.18-.1-.26-.3-.26h-.35c-.2,0-.3.08-.3.26v1.14c0,.18.1.26.3.26h1.13c1.25,0,1.64.57,1.64,1.47v1.58c0,.9-.46,1.49-1.75,1.49h-1.63c-1.28,0-1.76-.59-1.76-1.49V77h2.1v.64c0,.18.09.27.3.27h.34c.21,0,.3-.09.3-.27Z"/><path d="M189.42,73.18h-1.49v6.2h-2.1v-6.2h-1.47v-1.5h5.06Z"/><path d="M195.6,71.68v7.7h-2.07v-3H192v3H190v-7.7H192v3.15h1.51V71.68Z"/><path d="M200.24,78.23H198.4l-.26,1.15h-2.06l2-7.7h2.55l2,7.7h-2.11Zm-.32-1.49L199.33,74l-.61,2.77Z"/><path d="M208.51,71.68v7.7h-1.8l-1.71-4v4h-1.92v-7.7h1.8l1.71,4.11V71.68Z"/><path d="M214.93,74.56V73.32c0-.18-.09-.26-.3-.26h-.42c-.2,0-.3.08-.3.26v4.41q0,.27.3.27h.42c.21,0,.3-.09.3-.27V76.55H217v1.34c0,.9-.48,1.49-1.76,1.49h-1.69c-1.29,0-1.77-.59-1.77-1.49V73.16c0-.9.48-1.48,1.77-1.48h1.69c1.28,0,1.76.58,1.76,1.48v1.4Z"/><path d="M221.32,71.68c1.28,0,1.76.58,1.76,1.48v4.73c0,.9-.48,1.49-1.76,1.49h-1.78c-1.28,0-1.76-.59-1.76-1.49V73.16c0-.9.48-1.48,1.76-1.48ZM221,73.44c0-.18-.1-.26-.3-.26h-.5c-.21,0-.3.08-.3.26v4.17c0,.18.09.27.3.27h.5q.3,0,.3-.27Z"/><path d="M228.49,77.88v1.5H224v-7.7h2.09v6.2Z"/><path d="M233.46,77.88v1.5H229v-7.7h2.1v6.2Z"/><path d="M238.67,77.88v1.5h-4.73v-7.7h4.62v1.5H236v1.57h2.17v1.5H236v1.63Z"/><path d="M242.39,74.56V73.32c0-.18-.1-.26-.3-.26h-.42c-.2,0-.3.08-.3.26v4.41q0,.27.3.27h.42q.3,0,.3-.27V76.55h2.1v1.34c0,.9-.48,1.49-1.76,1.49H241c-1.28,0-1.76-.59-1.76-1.49V73.16c0-.9.48-1.48,1.76-1.48h1.7c1.28,0,1.76.58,1.76,1.48v1.4Z"/><path d="M249.91,73.18h-1.49v6.2h-2.09v-6.2h-1.48v-1.5h5.06Z"/><path d="M252.55,71.68v7.7h-2.09v-7.7Z"/><path d="M259,71.68v7.7h-1.8l-1.72-4v4h-1.91v-7.7h1.79L257,75.79V71.68Z"/><path d="M263,74.32v-1c0-.18-.09-.26-.3-.26h-.43c-.2,0-.3.08-.3.26v4.41q0,.27.3.27h.43c.21,0,.3-.09.3-.27V76.45h-.6V75.12h2.7v2.77c0,.9-.48,1.49-1.76,1.49h-1.7c-1.29,0-1.77-.59-1.77-1.49V73.16c0-.9.48-1.48,1.77-1.48h1.7c1.28,0,1.76.58,1.76,1.48v1.16Z"/></g><g class="cls-5"><path d="M129.51,86.08v7.7h-2.1v-7.7Z"/><path d="M135.91,86.08v7.7h-1.8l-1.72-4v4h-1.92v-7.7h1.8L134,90.19V86.08Z"/><path d="M141.5,91h-.13v2.74h-2.1v-7.7h3.56c1.28,0,1.76.59,1.76,1.48v2a1.28,1.28,0,0,1-1,1.4L145,93.78h-2.26Zm-.13-3.46v2h.83q.3,0,.3-.27V87.84c0-.18-.1-.26-.3-.26Z"/><path d="M150.16,92.28v1.5h-4.72v-7.7h4.62v1.5h-2.52v1.57h2.17v1.5h-2.17v1.63Z"/><path d="M156.65,86.08l-1.89,7.7h-2.44l-1.89-7.7h2.18l.93,5.14.93-5.14Z"/><path d="M162,92.28v1.5h-4.73v-7.7h4.62v1.5h-2.52v1.57h2.17v1.5h-2.17v1.63Z"/><path d="M168,86.08v7.7h-1.8l-1.71-4v4h-1.92v-7.7h1.8l1.71,4.11V86.08Z"/><path d="M174.31,86.08v6.21c0,.9-.48,1.49-1.77,1.49h-1.77c-1.28,0-1.76-.59-1.76-1.49V86.08h2.09V92q0,.27.3.27h.51q.3,0,.3-.27V86.08Z"/><path d="M180,92.28v1.5h-4.73v-7.7h4.62v1.5h-2.52v1.57h2.17v1.5h-2.17v1.63Z"/><path d="M180.66,91.81h2.06v2h-2.06Z"/></g></g><g id="Dots"><circle cx="99.7" cy="30.9" r="1.9"/><circle cx="106.7" cy="30.9" r="1.9"/><circle cx="113.9" cy="30.9" r="1.9"/><circle cx="120.5" cy="30.9" r="1.9"/></g></g></svg>