<svg id="ba6d07a0-c73e-40b9-8655-12472f424b30" data-name="Family" xmlns="http://www.w3.org/2000/svg" viewBox="0 0 280.57 169.15"><title>robot-home-page</title><g id="ea4db0cc-bda2-4c53-8ed6-693f9dd98464" data-name="Child"><g id="b2852efc-a44b-4f19-b7b2-4b571e269991" data-name="Bot 33"><path d="M258.9,123.5a7,7,0,1,0-7,7A7,7,0,0,0,258.9,123.5Zm-7,5a5,5,0,1,1,5-5A5,5,0,0,1,251.9,128.5Z" transform="translate(-2.58 -3.38)" style="stroke:#000;stroke-miterlimit:10;stroke-width:0.5px"/><path d="M266.9,128.5a5,5,0,1,0-5-5A5,5,0,0,0,266.9,128.5Zm0-8a3,3,0,1,1-3,3A3,3,0,0,1,266.9,120.5Z" transform="translate(-2.58 -3.38)" style="stroke:#000;stroke-miterlimit:10;stroke-width:0.5px"/><path d="M251.2,122.8a1,1,0,1,0,1.4,0A1,1,0,0,0,251.2,122.8Z" transform="translate(-2.58 -3.38)" style="stroke:#000;stroke-miterlimit:10;stroke-width:0.5px"/><path d="M236.5,141.3a1.09,1.09,0,0,1-1.4-.2l-2.8-2.8a2.21,2.21,0,0,0-2.1-.5,2,2,0,0,0-1.3,1.6,6.92,6.92,0,0,0,5.9,7.9c.3,0,.7.1,1,.1a10,10,0,0,0,2.4-.4l5,3a2.93,2.93,0,0,0,1.6.4,2.82,2.82,0,0,0,1.5-.4l1.5-.9a10.91,10.91,0,0,0,2.8,6.6,10,10,0,0,0,1.2,12.7h0a10,10,0,0,0,14.1,0h0a10,10,0,0,0,1.2-12.7,10.91,10.91,0,0,0,2.8-7.3v-11a5.39,5.39,0,0,0-1-3h1.5a6.52,6.52,0,0,0,6.3-5h.2a6,6,0,0,0,0-12h0a6.53,6.53,0,0,0-6.5-6h-23a6.53,6.53,0,0,0-6.5,6h0a6,6,0,0,0,0,12h.2a6.52,6.52,0,0,0,6.3,5h1.5a5.39,5.39,0,0,0-1,3v4.8l-3,1.7-2.3-1.4a7.09,7.09,0,0,0-4.6-8.8,6.54,6.54,0,0,0-3.1-.2,2,2,0,0,0-1.1,3.4l2.8,2.8a1.12,1.12,0,0,1-.1,1.6C236.6,141.2,236.6,141.3,236.5,141.3Zm26.3,17.5.4-.1.6-.3.3-.2a2.09,2.09,0,0,0,.6-.4l.2-.1c.3-.2.5-.4.8-.6a9.33,9.33,0,0,1,1.2,3.3H265a1,1,0,0,0,0,2h1.9a7.92,7.92,0,0,1-1.6,3.9l-1.4-1.4a1,1,0,0,0-1.4.1,1.05,1.05,0,0,0,0,1.3l1.4,1.4a7.92,7.92,0,0,1-3.9,1.6v-1.9a1,1,0,1,0-2,0v1.9a7.92,7.92,0,0,1-3.9-1.6l1.4-1.4a1,1,0,0,0-.1-1.4,1.05,1.05,0,0,0-1.3,0l-1.4,1.4a7.92,7.92,0,0,1-1.6-3.9H253a1,1,0,0,0,0-2h-2a7.74,7.74,0,0,1,1.2-3.3,5.55,5.55,0,0,0,.8.6l.2.1a4.35,4.35,0,0,0,.7.4l.3.1.6.3.4.1.6.2.2.1a4.44,4.44,0,0,0-.9,2.4,4,4,0,1,0,8,0,3.41,3.41,0,0,0-.9-2.4l.2-.1Zm-1.9,2.7a2,2,0,1,1-2-2A2,2,0,0,1,260.9,161.5Zm20-38a4,4,0,0,1-4,4v-8A4,4,0,0,1,280.9,123.5Zm-44,0a4,4,0,0,1,4-4v8A4,4,0,0,1,236.9,123.5Zm6,4.5V118a4.48,4.48,0,0,1,4.5-4.5h23a4.48,4.48,0,0,1,4.5,4.5v10a4.48,4.48,0,0,1-4.5,4.5h-23A4.48,4.48,0,0,1,242.9,128Zm7,9.5a3,3,0,0,1,3-3h12a3,3,0,0,1,3,3v11a9,9,0,0,1-9,9H258a8.94,8.94,0,0,1-8.1-9v-.4l10.5-6a3,3,0,0,0-3-5.2l-7.5,4.3Zm-4,8.3,3.4-2h0l9-5.1a1,1,0,0,1,1,1.8l-5.2,3-5.7,3.3h0l-3,1.7a.91.91,0,0,1-1,0l-4.1-2.4a1.21,1.21,0,0,0,.5-.5,3.92,3.92,0,0,0,.8-1h0l2.2,1.3A3,3,0,0,0,245.9,145.8Zm-7.8-7.4-2.9-2.8a5.05,5.05,0,0,1,5.7,4.2,5.48,5.48,0,0,1-.4,2.8h0a5.23,5.23,0,0,1-2.4,2.4,5,5,0,0,1-6.6-2.5,5.11,5.11,0,0,1-.4-2.7l2.8,2.8a3.07,3.07,0,0,0,4.1.3,3,3,0,0,0,.5-4.2c-.2-.2-.3-.3-.4-.3Z" transform="translate(-2.58 -3.38)" style="stroke:#000;stroke-miterlimit:10;stroke-width:0.5px"/></g></g><g id="a029d19b-19d3-4e8b-a7be-d4c4cd161765" data-name="Child"><g id="ea3b62ed-fd70-42e2-a5af-dc7607e22488" data-name="Bot 33"><path d="M117,117.8a5,5,0,1,0-5,5A5,5,0,0,0,117,117.8Zm-8,0a3,3,0,1,1,3,3A3,3,0,0,1,109,117.8Z" transform="translate(-2.58 -3.38)" style="stroke:#000;stroke-miterlimit:10;stroke-width:0.5px"/><path d="M136,122.8a5,5,0,1,0-5-5A5,5,0,0,0,136,122.8Zm0-8a3,3,0,1,1-3,3A3,3,0,0,1,136,114.8Z" transform="translate(-2.58 -3.38)" style="stroke:#000;stroke-miterlimit:10;stroke-width:0.5px"/><path d="M148.5,125.8h-1.7a3.55,3.55,0,0,0,.2-1v-13a3,3,0,0,0-3-3H104a3,3,0,0,0-3,3v13a3.55,3.55,0,0,0,.2,1H99.5a5.51,5.51,0,1,0-.6,11v11.7a7,7,0,0,0-3.3,9.3,7.55,7.55,0,0,0,2.1,2.6,2.1,2.1,0,0,0,1.1.4,2.92,2.92,0,0,0,.9-.2,1.89,1.89,0,0,0,1.1-1.8v-4a.89.89,0,0,1,.5-.8c.1-.1.3-.1.5-.2a.91.91,0,0,1,.7.3,1.27,1.27,0,0,1,.4.9v3.9a1.89,1.89,0,0,0,1.1,1.8,1.84,1.84,0,0,0,2-.2,7,7,0,0,0,1.5-9.8,7.84,7.84,0,0,0-2.6-2.2V136.8h4a15,15,0,0,0,2,6.5v17.6a7.85,7.85,0,0,0-3.9,5.6,2.15,2.15,0,0,0,.4,1.6,1.8,1.8,0,0,0,1.5.7h11.8a2,2,0,0,0,1.5-.7,2.2,2.2,0,0,0,.5-1.6,7.85,7.85,0,0,0-3.9-5.6V150a15.56,15.56,0,0,0,10,0v10.9a7.85,7.85,0,0,0-3.9,5.6,2.15,2.15,0,0,0,.4,1.6,1.8,1.8,0,0,0,1.5.7h11.8a2,2,0,0,0,1.5-.7,2.2,2.2,0,0,0,.5-1.6,7.85,7.85,0,0,0-3.9-5.6V143.3a15,15,0,0,0,2-6.5h4v11.7a7,7,0,0,0-3.3,9.3,7.55,7.55,0,0,0,2.1,2.6,2.06,2.06,0,0,0,2,.2,1.89,1.89,0,0,0,1.1-1.8v-3.9a1.22,1.22,0,0,1,.4-.9.91.91,0,0,1,.7-.3c.2,0,.3.1.5.1a1,1,0,0,1,.5.8v4a1.89,1.89,0,0,0,1.1,1.8,2.92,2.92,0,0,0,.9.2,1.92,1.92,0,0,0,1.2-.4,7,7,0,0,0,1.4-9.8,7.55,7.55,0,0,0-2.6-2.1V136.6a5.43,5.43,0,0,0,5.2-5.8A5,5,0,0,0,148.5,125.8Zm-45.5-1v-13a.94.94,0,0,1,1-1h40a.94.94,0,0,1,1,1v13a.94.94,0,0,1-1,1H104A1,1,0,0,1,103,124.8Zm4,30a4.79,4.79,0,0,1-2,4v-3.9a3.26,3.26,0,0,0-1-2.3,2.65,2.65,0,0,0-2.2-.8,3,3,0,0,0-2.8,3v4a5,5,0,0,1-1-7,4.81,4.81,0,0,1,2.3-1.7h.1a1.09,1.09,0,0,1,.5-.1l.3-.1c.3,0,.6-.1.9-.1a4.15,4.15,0,0,1,1.6.3h.1A5.22,5.22,0,0,1,107,154.8Zm-4-6.9c-.3,0-.6-.1-.9-.1h0a2.77,2.77,0,0,0-.9.1H101V136.8h2Zm-3.5-13.1a3.5,3.5,0,0,1,0-7H109v7Zm15.4,12.9.3.2c.2.2.5.3.7.5l.4.2.7.4.2.1v11H117l-.4-.1c-.2,0-.4-.1-.6-.1h-1.8l-.5.1-.4.1H113v-14l.1.1.7.7.1.1A3.59,3.59,0,0,0,114.9,147.7Zm6.1,19.1H109.2a5.87,5.87,0,0,1,6.9-4.9,7.37,7.37,0,0,1,1.4.4l.2.1A6.46,6.46,0,0,1,121,166.8Zm-2.5-19.2a5.94,5.94,0,0,1-.8-.4,12.91,12.91,0,0,1-6.6-11.3v-8h26v8a13,13,0,0,1-13,13,13.16,13.16,0,0,1-5.6-1.3ZM135,146v14h-.2l-.4-.1c-.2,0-.4-.1-.6-.1h-1.9l-.5.1-.4.1h0V149l.2-.1.6-.4.4-.2a3,3,0,0,0,.7-.5l.3-.2a6.47,6.47,0,0,0,.9-.8l.2-.1.7-.7Zm3.9,20.8H127.1a5.87,5.87,0,0,1,6.9-4.9,7.37,7.37,0,0,1,1.4.4l.2.1A5.94,5.94,0,0,1,138.9,166.8Zm8.1-18.9c-.3,0-.7-.1-1-.1h0a2.77,2.77,0,0,0-.9.1H145V136.8h2Zm4,6.9a4.79,4.79,0,0,1-2,4v-4a3,3,0,0,0-2.8-3,3,3,0,0,0-2.2.8,3.26,3.26,0,0,0-1,2.3v3.9a5,5,0,0,1-1-7,4.56,4.56,0,0,1,2.2-1.7h.1a4.53,4.53,0,0,1,1.6-.3,4.67,4.67,0,0,1,1.7.3h0A5,5,0,0,1,151,154.8Zm-2.5-20H139v-7h9.5a3.54,3.54,0,0,1,3.5,3.5A3.48,3.48,0,0,1,148.5,134.8Z" transform="translate(-2.58 -3.38)" style="stroke:#000;stroke-miterlimit:10;stroke-width:0.5px"/></g></g><g id="b3bf7ea1-b932-45ef-ae95-f1ecde9e6c81" data-name="Child"><g id="a191fb06-a762-4d66-86c6-85fec4817d0a" data-name="Слой_1"><path d="M202.8,106.5a5.07,5.07,0,0,1,0,7.2,5.71,5.71,0,0,1-2.1,1.3v4.9l-2.9-.7V115a4.65,4.65,0,0,1-2.1-1.3,5.07,5.07,0,0,1,0-7.2A5.13,5.13,0,0,1,202.8,106.5Zm8.5,28.7a2.65,2.65,0,0,0,1.5-1.9,6.17,6.17,0,0,0-2.7-6.2,2.63,2.63,0,0,0-2.4-.3l-.4.2a17.54,17.54,0,0,1,4,8.2ZM205,124.8l1.5-.6a5.33,5.33,0,0,1,4.9.4,9,9,0,0,1,4.1,9.4c-.6,2.7-2,3.4-4.1,4.3a8,8,0,0,1-5.6,7.6,12.56,12.56,0,0,1,2.2,2.4h2.4a5,5,0,0,1,3.9,2.1,7.53,7.53,0,0,1,1.4,4.5,1.45,1.45,0,0,1-2.9,0,4.34,4.34,0,0,0-.8-2.7,1.92,1.92,0,0,0-1.6-.9h-.9a11.48,11.48,0,0,1,.6,3.7,17.08,17.08,0,0,1-5,12.1c-6.8,6.8-18.6,6.8-25.3,0a17.08,17.08,0,0,1-5-12.1,11.48,11.48,0,0,1,.6-3.7h-1a2.4,2.4,0,0,0-1.6.9,4.78,4.78,0,0,0-.8,2.7,1.45,1.45,0,0,1-2.9,0,7.53,7.53,0,0,1,1.4-4.5,5,5,0,0,1,3.9-2.1h2.5a12.56,12.56,0,0,1,2.2-2.4,8,8,0,0,1-5.6-7.6c-2.1-.9-3.4-1.7-4.1-4.3a9,9,0,0,1,4.1-9.4,5.35,5.35,0,0,1,4.9-.4l1.5.6a16.83,16.83,0,0,1,10.7-3.8h3.5a16.78,16.78,0,0,1,10.9,3.8ZM177.8,127l-.4-.2a2.63,2.63,0,0,0-2.4.3,6,6,0,0,0-2.7,6.2,2.47,2.47,0,0,0,1.5,1.9,17.54,17.54,0,0,1,4-8.2Zm16.5-3.1h-3.5a14.34,14.34,0,0,0-14.3,14.3,5.12,5.12,0,0,0,5.1,5.1h21.9a5.12,5.12,0,0,0,5.1-5.1,14.29,14.29,0,0,0-4.2-10.1,14.73,14.73,0,0,0-10.1-4.2Zm8.5,7.3a5.09,5.09,0,1,1-7.2,0,5.07,5.07,0,0,1,7.2,0Zm-2.1,2a2.12,2.12,0,1,0,0,3A2.17,2.17,0,0,0,200.7,133.2Zm-11.2-2a5.09,5.09,0,1,1-7.2,0A5.07,5.07,0,0,1,189.5,131.2Zm-2.1,2.1a2.12,2.12,0,1,0,0,3A2.18,2.18,0,0,0,187.4,133.3Zm11.3,13H186.3a8.88,8.88,0,0,0-6.1,2.5,8.45,8.45,0,0,0-2.5,6.1,14.29,14.29,0,0,0,4.2,10.1,15.48,15.48,0,0,0,21.2,0,14.12,14.12,0,0,0,4.2-10.1,8.88,8.88,0,0,0-2.5-6.1,8.29,8.29,0,0,0-6.1-2.5Zm-11.3-31.4v4.2l-2.9.7v-4.9a4.65,4.65,0,0,1-2.1-1.3,5.09,5.09,0,1,1,7.2,0A4.6,4.6,0,0,1,187.4,114.9Zm0-6.3a2.12,2.12,0,1,0,0,3A2.18,2.18,0,0,0,187.4,108.6Zm13.3,0a2.12,2.12,0,1,0,0,3A2.17,2.17,0,0,0,200.7,108.6Z" transform="translate(-2.58 -3.38)"/></g></g><g id="f018268d-eee5-4824-98a1-03b807ebbb63" data-name="Parent"><g id="af71127e-1b3e-4fa7-aeaf-d0e93d1d1827" data-name="Слой 1"><path d="M55.3,163.2H51.5a1.4,1.4,0,1,0,0,2.8h3.8a1.37,1.37,0,0,0,1.4-1.4A1.43,1.43,0,0,0,55.3,163.2Z" transform="translate(-2.58 -3.38)" style="stroke:#000;stroke-miterlimit:10;stroke-width:0.25px"/><path d="M63.6,163.2H59.8a1.4,1.4,0,1,0,0,2.8h3.8a1.37,1.37,0,0,0,1.4-1.4A1.43,1.43,0,0,0,63.6,163.2Z" transform="translate(-2.58 -3.38)" style="stroke:#000;stroke-miterlimit:10;stroke-width:0.25px"/><path d="M55.3,158.6H51.5a1.4,1.4,0,1,0,0,2.8h3.8a1.37,1.37,0,0,0,1.4-1.4A1.43,1.43,0,0,0,55.3,158.6Z" transform="translate(-2.58 -3.38)" style="stroke:#000;stroke-miterlimit:10;stroke-width:0.25px"/><path d="M63.6,158.6H59.8a1.4,1.4,0,1,0,0,2.8h3.8A1.37,1.37,0,0,0,65,160,1.43,1.43,0,0,0,63.6,158.6Z" transform="translate(-2.58 -3.38)" style="stroke:#000;stroke-miterlimit:10;stroke-width:0.25px"/><path d="M4.4,121.8c-1.8,3-1.3,5.9,1.7,8.9a1.28,1.28,0,0,0,1,.4,1.28,1.28,0,0,0,1-.4,1.42,1.42,0,0,0,.1-2c-2.3-2.4-2.5-4-.8-6.3l5.7.1c1.5,2.4,1.3,4-1,6.2a1.42,1.42,0,0,0-.1,2,1.28,1.28,0,0,0,1,.4,1.28,1.28,0,0,0,1-.4c2.9-2.8,3.5-5.6,2-8.7a3.79,3.79,0,0,0,2-3.3,4.11,4.11,0,0,0-1.1-2.8,3.58,3.58,0,0,0-2.2-1.1c.9-15.3,4.4-21.2,7.3-23.5v.1c0,3.3,2.2,6,4.9,6.3v11.7a67.87,67.87,0,0,0,6.3,29.4c3,6.1,6.5,10.7,10.4,13.6v8.3c.6,5.6,6.1,11.7,13.9,11.7,7.6,0,13.6-6.2,13.9-11.8v-8.2c5.2-3.7,9.4-10.3,12.4-19.5a71.11,71.11,0,0,0,3.3-23L87,98.3v-.8c2.7-.4,4.7-3,4.7-6.3V90c8.3-1.3,16.7-9.2,17.1-27.7a3.94,3.94,0,0,0,3.2-3.7,3.69,3.69,0,0,0-1.1-2.7,2.65,2.65,0,0,0-.6-.5c1.8-3,1.2-5.8-1.7-8.9a1.41,1.41,0,0,0-2,2c2.3,2.3,2.5,3.9.8,6.2l-5.8-.1c-1.5-2.3-1.3-3.9,1-6.1a1.42,1.42,0,1,0-1.9-2.1c-2.9,2.7-3.6,5.6-2,8.6a3.75,3.75,0,0,0-2,3.2,3.69,3.69,0,0,0,1.1,2.7A3.58,3.58,0,0,0,100,62c-.8,14.4-5,17-8.3,18.2a8.17,8.17,0,0,0-8-6.3H78.8A24.35,24.35,0,0,0,68.7,69a30.62,30.62,0,0,0-3.7-.7v-.2H77.3c10.3,0,18.6-9.4,18.6-20.9,0-10.1-6.5-18.7-15.1-20.5a6.68,6.68,0,0,0-5.4-4.9V12.5a4.6,4.6,0,1,0-2.8,0v9.6a6.92,6.92,0,0,0-5.3,4.4H46.9a6.28,6.28,0,0,0-5.3-4.4V12.5a4.6,4.6,0,1,0-2.8,0v9.6A6.54,6.54,0,0,0,33.4,27c-8.6,1.9-15.1,10.4-15.1,20.5,0,11.6,8.4,20.9,18.7,20.9H48.5v.3a26.53,26.53,0,0,0-3,.6,26.89,26.89,0,0,0-9.7,4.9H30.4A8.19,8.19,0,0,0,22.3,81C12.8,83.1,6.7,95.5,5.9,114.7a4,4,0,0,0-3.2,3.7,4.11,4.11,0,0,0,1.1,2.8A1.7,1.7,0,0,0,4.4,121.8ZM99.8,59.3a1,1,0,0,1-.3-.8,1,1,0,0,1,1.1-1h0l7.6.1a.91.91,0,0,1,.8.4,1,1,0,0,1,.3.8,1,1,0,0,1-1.1,1h0l-7.6-.1A2,2,0,0,1,99.8,59.3Zm-8,24.2c4.9-1.6,10.1-4.9,10.9-21.1H106c-.4,16.3-7.3,23.4-14.3,24.7l.1-3.6ZM57.6,169.6c-6,0-10.5-4.7-11-9.1v-6.4a16,16,0,0,0,7,1.7h7.5a17.08,17.08,0,0,0,7.7-1.8v6.5C68.4,164.6,63.5,169.6,57.6,169.6Zm26-92.5A5.26,5.26,0,0,1,89,82.2v9.1c0,1.6-.9,3.1-2,3.4-.6-8.3-2.7-13.9-5.6-17.6ZM72.2,8.2A1.8,1.8,0,1,1,74,10,1.79,1.79,0,0,1,72.2,8.2Zm1.9,16.7a4.33,4.33,0,0,1,3.7,1.8H70.5A4,4,0,0,1,74.1,24.9ZM38.3,8.2a1.79,1.79,0,0,1,1.8-1.8A1.88,1.88,0,0,1,42,8.2,1.79,1.79,0,0,1,40.2,10,1.76,1.76,0,0,1,38.3,8.2Zm1.9,16.7a4.14,4.14,0,0,1,3.6,1.8H36.5A4.2,4.2,0,0,1,40.2,24.9ZM36.9,65.7c-8.7,0-15.8-8.1-15.8-18.1s7.1-18.1,15.8-18.1H77.3c8.7,0,15.8,8.1,15.8,18.1S86,65.7,77.3,65.7Zm25.2,2.8v1.8c0,1.8-2.5,3.5-5.4,3.5s-5.5-1.6-5.5-3.5V68.5ZM46.2,72.1a17,17,0,0,1,2.4-.5c.8,2.9,4.1,5,8.1,5s7.4-2.1,8.1-5.1a22.94,22.94,0,0,1,3.2.6c8.3,2.2,16.1,6.9,16.3,26.4l.1,11.3a68.3,68.3,0,0,1-3.2,22.1c-2.5,7.9-8.5,21-20.2,21H53.5c-8.9,0-14.9-9.7-17.6-15.4a65.58,65.58,0,0,1-6-28.2V99C29.8,78.9,39.1,74,46.2,72.1ZM24.9,82.3a5.26,5.26,0,0,1,5.4-5.1H33c-3.5,4.3-5.4,10.1-5.9,17.7a3.45,3.45,0,0,1-2.2-3.5ZM22.1,84v4C17.8,90.1,13,96.6,12,114.7H8.7C9.4,97.8,14.5,86.4,22.1,84ZM6.6,117.5h0l7.6.1a.91.91,0,0,1,.8.4,1.14,1.14,0,0,1,.3.8,1,1,0,0,1-1.1,1h0l-7.6-.1a1,1,0,0,1-1.1-1.1A1.18,1.18,0,0,1,6.6,117.5Z" transform="translate(-2.58 -3.38)" style="stroke:#000;stroke-miterlimit:10;stroke-width:0.25px"/><path d="M48.7,119.6H65.8c5.9,0,10.7-6.1,10.7-13.5S71.7,92.6,65.8,92.6H48.7c-5.9,0-10.7,6.1-10.7,13.5S42.8,119.6,48.7,119.6Zm0-24.1H65.8c4.3,0,7.8,4.8,7.8,10.6s-3.5,10.6-7.8,10.6H48.7c-4.3,0-7.8-4.8-7.8-10.6S44.3,95.5,48.7,95.5Z" transform="translate(-2.58 -3.38)" style="stroke:#000;stroke-miterlimit:10;stroke-width:0.25px"/><path d="M40.3,40.7a5.2,5.2,0,1,0,5.2,5.2A5.16,5.16,0,0,0,40.3,40.7Zm0,7.5a2.4,2.4,0,1,1,2.4-2.4A2.37,2.37,0,0,1,40.3,48.2Z" transform="translate(-2.58 -3.38)" style="stroke:#000;stroke-miterlimit:10;stroke-width:0.25px"/><path d="M74.3,40.7a5.2,5.2,0,1,0,5.2,5.2A5.16,5.16,0,0,0,74.3,40.7Zm0,7.5a2.4,2.4,0,1,1,2.4-2.4A2.37,2.37,0,0,1,74.3,48.2Z" transform="translate(-2.58 -3.38)" style="stroke:#000;stroke-miterlimit:10;stroke-width:0.25px"/><path d="M63,49.4H51.6a1.37,1.37,0,0,0-1.4,1.4c0,3.5,3.2,6.3,7.1,6.3s7.1-2.8,7.1-6.3A1.37,1.37,0,0,0,63,49.4Zm-5.7,4.8a4.35,4.35,0,0,1-3.9-2h7.8A4.47,4.47,0,0,1,57.3,54.2Z" transform="translate(-2.58 -3.38)" style="stroke:#000;stroke-miterlimit:10;stroke-width:0.25px"/><path d="M89,47.5c0-8.8-3.7-13.7-10.2-13.7H35.4c-5.9,0-10.2,5.8-10.2,13.7,0,8.2,4.1,13.7,10.2,13.7H78.7C85.3,61.3,89,56.4,89,47.5Zm-61,0c0-5.4,2.5-10.8,7.4-10.8H78.7c4.9,0,7.4,3.7,7.4,10.8s-2.5,10.8-7.4,10.8H35.4C30,58.5,28,52.5,28,47.5Z" transform="translate(-2.58 -3.38)" style="stroke:#000;stroke-miterlimit:10;stroke-width:0.25px"/></g></g><g id="ba9b5339-4dde-44d6-954f-ef9df130254f" data-name="Heart"><path d="M57.6,113.6l-.4-.2c-.3-.2-7.8-5.2-7.8-9.7a4.58,4.58,0,0,1,4.5-4.9,4.9,4.9,0,0,1,3.7,1.8,4.57,4.57,0,0,1,8.2,3.1c0,4.5-7.5,9.4-7.8,9.7Z" transform="translate(-2.58 -3.38)" style="fill:#02c9fb"/></g><g id="e6d87747-5266-42b1-afc0-4a961cbc3b5e" data-name="Phrase"><g id="aa1767b7-b5c2-4c54-b701-d55afa0c5244" data-name="Text"><rect x="124.32" y="23.32" width="152.2" height="78.1" style="fill:none"/><g style="isolation:isolate"><path d="M131.67,27.61l2.09,8.57h-2.38l-.22-1.5h-1.78l-.23,1.5h-2.34l2.05-8.57Zm-1.41,1.75L129.65,33h1.24l-.61-3.64Z" transform="translate(-2.58 -3.38)"/><path d="M140.7,27.61a2.42,2.42,0,0,1,1.77.58,2.14,2.14,0,0,1,.57,1.56,2.82,2.82,0,0,1-.08.65,1.87,1.87,0,0,1-.24.58,1.68,1.68,0,0,1-.41.43,1.66,1.66,0,0,1-.62.26v0a1.61,1.61,0,0,1,.72.22,1.84,1.84,0,0,1,.5.46,2.25,2.25,0,0,1,.28.61,2.52,2.52,0,0,1,.09.67,3.4,3.4,0,0,1-.15,1,1.92,1.92,0,0,1-.45.8,2,2,0,0,1-.79.52,3.27,3.27,0,0,1-1.19.19h-3.37V27.61ZM140.1,31a.59.59,0,0,0,.53-.26,1,1,0,0,0,.18-.6,1.11,1.11,0,0,0-.18-.63.61.61,0,0,0-.53-.26h-.54V31Zm.08,3.6a.74.74,0,0,0,.55-.26,1.14,1.14,0,0,0,.24-.8,1.08,1.08,0,0,0-.24-.76.71.71,0,0,0-.55-.27h-.62v2.09Z" transform="translate(-2.58 -3.38)"/><path d="M144.05,29.85a3.62,3.62,0,0,1,.51-1.38,2.06,2.06,0,0,1,.95-.78,4.27,4.27,0,0,1,2.88,0,2.06,2.06,0,0,1,1,.78,3.62,3.62,0,0,1,.51,1.38,10.89,10.89,0,0,1,.16,2,10.93,10.93,0,0,1-.16,2,3.62,3.62,0,0,1-.51,1.38,2,2,0,0,1-1,.76,4.62,4.62,0,0,1-2.88,0,2,2,0,0,1-.95-.76,3.62,3.62,0,0,1-.51-1.38,10.93,10.93,0,0,1-.16-2A10.89,10.89,0,0,1,144.05,29.85Zm2.17,3.48a4.69,4.69,0,0,0,.1.9.86.86,0,0,0,.23.47.68.68,0,0,0,.8,0,.86.86,0,0,0,.23-.47,4.69,4.69,0,0,0,.1-.9q0-.57,0-1.44c0-.57,0-1.05,0-1.43a4.69,4.69,0,0,0-.1-.9.86.86,0,0,0-.23-.47.68.68,0,0,0-.8,0,.86.86,0,0,0-.23.47,4.69,4.69,0,0,0-.1.9c0,.38,0,.86,0,1.43S146.2,33,146.22,33.33Z" transform="translate(-2.58 -3.38)"/><path d="M153,33.79a1.33,1.33,0,0,0,.18.83.68.68,0,0,0,1,0,1.33,1.33,0,0,0,.18-.83V27.61h2.24v5.62a4.91,4.91,0,0,1-.2,1.5,2.25,2.25,0,0,1-.55,1,2,2,0,0,1-.91.49,6,6,0,0,1-2.49,0,1.92,1.92,0,0,1-.91-.49,2.26,2.26,0,0,1-.56-1,4.93,4.93,0,0,1-.19-1.5V27.61H153Z" transform="translate(-2.58 -3.38)"/><path d="M157,29.51v-1.9h5.57v1.9h-1.68v6.67h-2.23V29.51Z" transform="translate(-2.58 -3.38)"/><path d="M165.18,27.61v8.57H163V27.61Z" transform="translate(-2.58 -3.38)"/><path d="M169.76,36.25l-.28,0-.3,0H169a4,4,0,0,1-1.44-.23,2,2,0,0,1-1-.76,3.79,3.79,0,0,1-.52-1.38,14,14,0,0,1,0-4.09,3.79,3.79,0,0,1,.52-1.38,2.06,2.06,0,0,1,1-.78,4.27,4.27,0,0,1,2.88,0,2.06,2.06,0,0,1,.95.78,3.62,3.62,0,0,1,.51,1.38,10.89,10.89,0,0,1,.16,2,11.15,11.15,0,0,1-.17,2.09,3.46,3.46,0,0,1-.55,1.39l1,1L171,37.57Zm-1.53-2.92a4.69,4.69,0,0,0,.1.9.86.86,0,0,0,.23.47.68.68,0,0,0,.8,0,.86.86,0,0,0,.23-.47,4.69,4.69,0,0,0,.1-.9c0-.38,0-.86,0-1.44s0-1.05,0-1.43a4.69,4.69,0,0,0-.1-.9.86.86,0,0,0-.23-.47.68.68,0,0,0-.8,0,.86.86,0,0,0-.23.47,4.69,4.69,0,0,0-.1.9c0,.38,0,.86,0,1.43S168.21,33,168.23,33.33Z" transform="translate(-2.58 -3.38)"/><path d="M175,33.79a1.33,1.33,0,0,0,.18.83.68.68,0,0,0,1,0,1.33,1.33,0,0,0,.18-.83V27.61h2.24v5.62a4.91,4.91,0,0,1-.2,1.5,2.25,2.25,0,0,1-.55,1,2,2,0,0,1-.91.49,6,6,0,0,1-2.49,0,1.92,1.92,0,0,1-.91-.49,2.26,2.26,0,0,1-.56-1,4.93,4.93,0,0,1-.19-1.5V27.61H175Z" transform="translate(-2.58 -3.38)"/><path d="M184.57,27.61v1.83h-2.84V30.9h2.66v1.75h-2.66v1.7h3v1.83H179.5V27.61Z" transform="translate(-2.58 -3.38)"/><path d="M191.88,27.61a2.75,2.75,0,0,1,1.11.21,2.17,2.17,0,0,1,.77.55,2.43,2.43,0,0,1,.45.84,3.84,3.84,0,0,1,.14,1,2.6,2.6,0,0,1-.71,2,3,3,0,0,1-2.1.66h-.77v3.27h-2.24V27.61Zm-.69,3.7a.82.82,0,0,0,.64-.26,1.2,1.2,0,0,0,.22-.79c0-.69-.29-1-.86-1h-.42v2.09Z" transform="translate(-2.58 -3.38)"/><path d="M198.55,27.61a3.16,3.16,0,0,1,1.09.17,1.88,1.88,0,0,1,.73.47,1.82,1.82,0,0,1,.41.73,3.28,3.28,0,0,1,.13.91,2.49,2.49,0,0,1-.35,1.39,1.56,1.56,0,0,1-1.12.65v0a1.31,1.31,0,0,1,1.1.57,2.5,2.5,0,0,1,.31,1.35V35c0,.12,0,.24,0,.35l0,.29a1,1,0,0,0,.06.2l.1.14a.36.36,0,0,0,.16.13v.12h-2.38a1.45,1.45,0,0,1-.13-.4l-.06-.45c0-.16,0-.3,0-.44s0-.26,0-.34V34a5,5,0,0,0,0-.6,1.05,1.05,0,0,0-.13-.38.48.48,0,0,0-.23-.19.84.84,0,0,0-.34,0h-.59v3.43h-2.23V27.61Zm-.81,3.62a.86.86,0,0,0,.71-.28,1.12,1.12,0,0,0,.22-.73,1.07,1.07,0,0,0-.22-.77,1,1,0,0,0-.72-.23h-.44v2Z" transform="translate(-2.58 -3.38)"/><path d="M201.85,29.85a3.79,3.79,0,0,1,.52-1.38,2.06,2.06,0,0,1,.95-.78,4.27,4.27,0,0,1,2.88,0,2.06,2.06,0,0,1,1,.78,3.62,3.62,0,0,1,.51,1.38,10.89,10.89,0,0,1,.16,2,10.93,10.93,0,0,1-.16,2,3.62,3.62,0,0,1-.51,1.38,2,2,0,0,1-1,.76,4.62,4.62,0,0,1-2.88,0,2,2,0,0,1-.95-.76,3.79,3.79,0,0,1-.52-1.38,14,14,0,0,1,0-4.09ZM204,33.33a4.69,4.69,0,0,0,.1.9.86.86,0,0,0,.23.47.68.68,0,0,0,.8,0,.86.86,0,0,0,.23-.47,5.67,5.67,0,0,0,.1-.9c0-.38,0-.86,0-1.44s0-1.05,0-1.43a5.67,5.67,0,0,0-.1-.9.86.86,0,0,0-.23-.47.68.68,0,0,0-.8,0,.86.86,0,0,0-.23.47,4.69,4.69,0,0,0-.1.9c0,.38,0,.86,0,1.43S204,33,204,33.33Z" transform="translate(-2.58 -3.38)"/><path d="M211.86,27.61a2.7,2.7,0,0,1,1.51.36,2.18,2.18,0,0,1,.81.94,4.11,4.11,0,0,1,.33,1.37c0,.52.06,1,.06,1.61s0,1.1-.06,1.62a4.11,4.11,0,0,1-.33,1.37,2.18,2.18,0,0,1-.81.94,2.7,2.7,0,0,1-1.51.36h-3.24V27.61Zm-.56,7a1.2,1.2,0,0,0,.51-.09.63.63,0,0,0,.3-.38,3,3,0,0,0,.13-.81c0-.36,0-.82,0-1.4s0-1,0-1.39a3,3,0,0,0-.13-.81.63.63,0,0,0-.3-.38,1.2,1.2,0,0,0-.51-.09h-.45v5.35Z" transform="translate(-2.58 -3.38)"/><path d="M217.65,33.79a1.33,1.33,0,0,0,.18.83.68.68,0,0,0,1,0,1.33,1.33,0,0,0,.18-.83V27.61h2.23v5.62a4.93,4.93,0,0,1-.19,1.5,2.26,2.26,0,0,1-.56,1,1.89,1.89,0,0,1-.9.49,5.22,5.22,0,0,1-1.25.13,5.13,5.13,0,0,1-1.24-.13,2,2,0,0,1-.92-.49,2.25,2.25,0,0,1-.55-1,4.91,4.91,0,0,1-.2-1.5V27.61h2.24Z" transform="translate(-2.58 -3.38)"/><path d="M225.46,29.22A.49.49,0,0,0,225,29a.57.57,0,0,0-.4.13.86.86,0,0,0-.23.47,5.67,5.67,0,0,0-.1.9c0,.38,0,.86,0,1.43s0,1.06,0,1.44a5.67,5.67,0,0,0,.1.9.86.86,0,0,0,.23.47.57.57,0,0,0,.4.13.53.53,0,0,0,.34-.1.66.66,0,0,0,.2-.34,3,3,0,0,0,.1-.64q0-.41,0-1h2.16v.64a3.92,3.92,0,0,1-.24,1.48,2.34,2.34,0,0,1-.63.9,2.22,2.22,0,0,1-.91.45,5.19,5.19,0,0,1-1,.11,4.4,4.4,0,0,1-1.53-.23,1.78,1.78,0,0,1-.94-.76,3.45,3.45,0,0,1-.46-1.38,13.32,13.32,0,0,1-.13-2,12.2,12.2,0,0,1,.15-2.07,3.49,3.49,0,0,1,.51-1.38,2,2,0,0,1,.95-.76,3.86,3.86,0,0,1,1.45-.24,3.76,3.76,0,0,1,1.29.2,2.11,2.11,0,0,1,.85.54,2.16,2.16,0,0,1,.48.85,4,4,0,0,1,.15,1.13v.53H225.6v-.47A2.48,2.48,0,0,0,225.46,29.22Z" transform="translate(-2.58 -3.38)"/><path d="M228.1,29.51v-1.9h5.57v1.9H232v6.67h-2.23V29.51Z" transform="translate(-2.58 -3.38)"/><path d="M237.08,31.8v1.82h-3.75V31.8Z" transform="translate(-2.58 -3.38)"/><path d="M241.22,29.22a.5.5,0,0,0-.47-.26.57.57,0,0,0-.4.13.86.86,0,0,0-.23.47,4.69,4.69,0,0,0-.1.9c0,.38,0,.86,0,1.43s0,1.06,0,1.44a4.69,4.69,0,0,0,.1.9.86.86,0,0,0,.23.47.57.57,0,0,0,.4.13.5.5,0,0,0,.33-.1.66.66,0,0,0,.21-.34,3,3,0,0,0,.1-.64q0-.41,0-1h2.16v.64a3.92,3.92,0,0,1-.24,1.48,2.26,2.26,0,0,1-.64.9,2.13,2.13,0,0,1-.9.45,5.19,5.19,0,0,1-1.05.11,4.42,4.42,0,0,1-1.54-.23,1.79,1.79,0,0,1-.93-.76,3.61,3.61,0,0,1-.47-1.38,14.88,14.88,0,0,1-.12-2,12.2,12.2,0,0,1,.15-2.07,3.49,3.49,0,0,1,.51-1.38,2,2,0,0,1,1-.76,3.82,3.82,0,0,1,1.45-.24,3.7,3.7,0,0,1,1.28.2A2,2,0,0,1,243.37,29a4,4,0,0,1,.15,1.13v.53h-2.16v-.47A2.48,2.48,0,0,0,241.22,29.22Z" transform="translate(-2.58 -3.38)"/><path d="M249.46,27.61v1.83h-2.84V30.9h2.66v1.75h-2.66v1.7h2.95v1.83h-5.19V27.61Z" transform="translate(-2.58 -3.38)"/><path d="M252.88,27.61l1.44,5.28h0V27.61h2.09v8.57H254l-1.48-5.29h0v5.29h-2.09V27.61Z" transform="translate(-2.58 -3.38)"/><path d="M257,29.51v-1.9h5.57v1.9h-1.68v6.67h-2.23V29.51Z" transform="translate(-2.58 -3.38)"/><path d="M266.53,27.61a3.14,3.14,0,0,1,1.08.17,1.77,1.77,0,0,1,1.14,1.2,2.94,2.94,0,0,1,.13.91,2.49,2.49,0,0,1-.35,1.39,1.54,1.54,0,0,1-1.12.65v0a1.35,1.35,0,0,1,1.11.57,2.6,2.6,0,0,1,.3,1.35V35c0,.12,0,.24,0,.35a2.54,2.54,0,0,0,0,.29.43.43,0,0,0,.06.2l.09.14a.43.43,0,0,0,.16.13v.12H266.8a1.45,1.45,0,0,1-.12-.4,3.47,3.47,0,0,1-.06-.45c0-.16,0-.3,0-.44V34a4.73,4.73,0,0,0,0-.6.89.89,0,0,0-.13-.38.5.5,0,0,0-.22-.19.92.92,0,0,0-.35,0h-.58v3.43H263V27.61Zm-.82,3.62a.85.85,0,0,0,.71-.28,1.12,1.12,0,0,0,.23-.73,1.07,1.07,0,0,0-.23-.77,1,1,0,0,0-.72-.23h-.43v2Z" transform="translate(-2.58 -3.38)"/><path d="M272.07,27.61v8.57h-2.23V27.61Z" transform="translate(-2.58 -3.38)"/><path d="M276.32,29.22a.49.49,0,0,0-.47-.26.57.57,0,0,0-.4.13.86.86,0,0,0-.23.47,4.69,4.69,0,0,0-.1.9c0,.38,0,.86,0,1.43s0,1.06,0,1.44a4.69,4.69,0,0,0,.1.9.86.86,0,0,0,.23.47.57.57,0,0,0,.4.13.53.53,0,0,0,.34-.1.73.73,0,0,0,.2-.34,3,3,0,0,0,.1-.64q0-.41,0-1h2.16v.64a3.92,3.92,0,0,1-.24,1.48,2.34,2.34,0,0,1-.63.9,2.22,2.22,0,0,1-.91.45,5.19,5.19,0,0,1-1,.11,4.46,4.46,0,0,1-1.54-.23,1.79,1.79,0,0,1-.93-.76,3.45,3.45,0,0,1-.46-1.38,13.32,13.32,0,0,1-.13-2,12.2,12.2,0,0,1,.15-2.07,3.49,3.49,0,0,1,.51-1.38,2,2,0,0,1,.95-.76,3.82,3.82,0,0,1,1.45-.24,3.7,3.7,0,0,1,1.28.2,2.08,2.08,0,0,1,.86.54,2.16,2.16,0,0,1,.48.85,4,4,0,0,1,.15,1.13v.53h-2.16v-.47A2.48,2.48,0,0,0,276.32,29.22Z" transform="translate(-2.58 -3.38)"/></g><g style="isolation:isolate"><path d="M130.9,42a2.4,2.4,0,0,1,1.77.58,2.11,2.11,0,0,1,.58,1.56,2.82,2.82,0,0,1-.08.65,2.15,2.15,0,0,1-.24.58,1.56,1.56,0,0,1-.42.43,1.54,1.54,0,0,1-.61.26v0a1.61,1.61,0,0,1,.72.22,1.8,1.8,0,0,1,.49.46,2.28,2.28,0,0,1,.29.61,2.52,2.52,0,0,1,.09.67,3.4,3.4,0,0,1-.15,1,1.92,1.92,0,0,1-.45.8,2,2,0,0,1-.8.52,3.23,3.23,0,0,1-1.19.19h-3.37V42Zm-.6,3.36a.58.58,0,0,0,.53-.26,1,1,0,0,0,.18-.6,1.11,1.11,0,0,0-.18-.63.6.6,0,0,0-.53-.26h-.54v1.75Zm.09,3.6a.74.74,0,0,0,.55-.26,1.14,1.14,0,0,0,.24-.8,1.08,1.08,0,0,0-.24-.76.71.71,0,0,0-.55-.27h-.63V49Z" transform="translate(-2.58 -3.38)"/><path d="M136.48,48.19a1.26,1.26,0,0,0,.19.83.68.68,0,0,0,1,0,1.33,1.33,0,0,0,.18-.83V42h2.23v5.62a4.93,4.93,0,0,1-.19,1.5,2.26,2.26,0,0,1-.56,1,1.89,1.89,0,0,1-.9.49,5.28,5.28,0,0,1-1.25.13,5.13,5.13,0,0,1-1.24-.13,2,2,0,0,1-.92-.49,2.37,2.37,0,0,1-.56-1,5.27,5.27,0,0,1-.19-1.5V42h2.23Z" transform="translate(-2.58 -3.38)"/><path d="M144.36,44.28a1.21,1.21,0,0,0-.16-.65.51.51,0,0,0-.48-.27.61.61,0,0,0-.53.23.89.89,0,0,0-.16.52.87.87,0,0,0,.27.67,2.56,2.56,0,0,0,.67.42l.88.37a4,4,0,0,1,.88.48,2.47,2.47,0,0,1,.67.79,2.6,2.6,0,0,1,.27,1.27,2.37,2.37,0,0,1-.78,2,3.57,3.57,0,0,1-2.25.62,6.31,6.31,0,0,1-1.23-.11,2.19,2.19,0,0,1-.9-.4,1.74,1.74,0,0,1-.56-.74,2.87,2.87,0,0,1-.19-1.13V48h2.16v.21a1.17,1.17,0,0,0,.2.77.68.68,0,0,0,.53.22.63.63,0,0,0,.53-.24,1,1,0,0,0-.07-1.25,2.43,2.43,0,0,0-.65-.42c-.26-.12-.54-.23-.84-.35a3.7,3.7,0,0,1-.85-.47,2.43,2.43,0,0,1-.65-.76,2.54,2.54,0,0,1-.25-1.22,2.67,2.67,0,0,1,.69-2,2.9,2.9,0,0,1,2.11-.69,3,3,0,0,1,2.12.63,2.67,2.67,0,0,1,.66,2h-2.09Z" transform="translate(-2.58 -3.38)"/><path d="M149.61,42v8.57h-2.23V42Z" transform="translate(-2.58 -3.38)"/><path d="M153.08,42l1.44,5.28h0V42h2.08v8.57h-2.44l-1.49-5.29h0v5.29h-2.08V42Z" transform="translate(-2.58 -3.38)"/><path d="M162.77,42v1.83h-2.85V45.3h2.67v1.75h-2.67v1.7h3v1.83h-5.19V42Z" transform="translate(-2.58 -3.38)"/><path d="M167,44.28a1.3,1.3,0,0,0-.16-.65.51.51,0,0,0-.48-.27.6.6,0,0,0-.53.23.89.89,0,0,0-.16.52.9.9,0,0,0,.26.67,2.81,2.81,0,0,0,.68.42l.88.37a4,4,0,0,1,.88.48,2.47,2.47,0,0,1,.67.79,2.6,2.6,0,0,1,.27,1.27,2.37,2.37,0,0,1-.78,2,3.57,3.57,0,0,1-2.25.62,6.31,6.31,0,0,1-1.23-.11,2.19,2.19,0,0,1-.9-.4,1.74,1.74,0,0,1-.56-.74,2.87,2.87,0,0,1-.19-1.13V48h2.16v.21a1.17,1.17,0,0,0,.2.77.68.68,0,0,0,.53.22.63.63,0,0,0,.53-.24,1,1,0,0,0-.07-1.25,2.43,2.43,0,0,0-.65-.42c-.26-.12-.54-.23-.84-.35a3.7,3.7,0,0,1-.85-.47,2.3,2.3,0,0,1-.65-.76,2.54,2.54,0,0,1-.25-1.22,2.67,2.67,0,0,1,.69-2,2.9,2.9,0,0,1,2.11-.69,3,3,0,0,1,2.12.63,2.67,2.67,0,0,1,.66,2H167Z" transform="translate(-2.58 -3.38)"/><path d="M173.47,44.28a1.3,1.3,0,0,0-.15-.65.53.53,0,0,0-.48-.27.6.6,0,0,0-.53.23.9.9,0,0,0-.17.52.87.87,0,0,0,.27.67,2.63,2.63,0,0,0,.68.42l.87.37a3.57,3.57,0,0,1,.88.48,2.5,2.5,0,0,1,.68.79,2.6,2.6,0,0,1,.27,1.27,2.37,2.37,0,0,1-.78,2,3.58,3.58,0,0,1-2.26.62,6.46,6.46,0,0,1-1.23-.11,2.31,2.31,0,0,1-.9-.4,1.82,1.82,0,0,1-.56-.74,3.06,3.06,0,0,1-.19-1.13V48H172v.21a1.11,1.11,0,0,0,.21.77.66.66,0,0,0,.52.22.64.64,0,0,0,.54-.24.93.93,0,0,0,.18-.58.88.88,0,0,0-.25-.67,2.6,2.6,0,0,0-.65-.42c-.26-.12-.54-.23-.85-.35a3.85,3.85,0,0,1-.84-.47,2.19,2.19,0,0,1-.65-.76,2.54,2.54,0,0,1-.26-1.22,2.64,2.64,0,0,1,.7-2,2.87,2.87,0,0,1,2.11-.69,3,3,0,0,1,2.12.63,2.71,2.71,0,0,1,.65,2h-2.09Z" transform="translate(-2.58 -3.38)"/><path d="M184.78,42v1.83h-2.85V45.3h2.67v1.75h-2.67v3.53H179.7V42Z" transform="translate(-2.58 -3.38)"/><path d="M185.38,44.25a3.62,3.62,0,0,1,.51-1.38,2.06,2.06,0,0,1,1-.78,4.27,4.27,0,0,1,2.88,0,2.06,2.06,0,0,1,.95.78,3.62,3.62,0,0,1,.51,1.38,13.15,13.15,0,0,1,0,4.09,3.62,3.62,0,0,1-.51,1.38,2,2,0,0,1-.95.76,4.62,4.62,0,0,1-2.88,0,2,2,0,0,1-1-.76,3.62,3.62,0,0,1-.51-1.38,13.15,13.15,0,0,1,0-4.09Zm2.17,3.48a4.69,4.69,0,0,0,.1.9.86.86,0,0,0,.23.47.68.68,0,0,0,.8,0,.86.86,0,0,0,.23-.47,4.69,4.69,0,0,0,.1-.9q0-.57,0-1.44c0-.57,0-1,0-1.43a4.69,4.69,0,0,0-.1-.9.86.86,0,0,0-.23-.47.68.68,0,0,0-.8,0,.86.86,0,0,0-.23.47,4.69,4.69,0,0,0-.1.9c0,.38,0,.86,0,1.43S187.53,47.35,187.55,47.73Z" transform="translate(-2.58 -3.38)"/><path d="M195.42,43.62a.49.49,0,0,0-.47-.26.58.58,0,0,0-.4.13.93.93,0,0,0-.23.47,5.67,5.67,0,0,0-.1.9c0,.38,0,.86,0,1.43s0,1.06,0,1.44a5.67,5.67,0,0,0,.1.9.93.93,0,0,0,.23.47.58.58,0,0,0,.4.13.53.53,0,0,0,.34-.1.66.66,0,0,0,.2-.34,3,3,0,0,0,.1-.64q0-.4,0-1h2.17v.64a3.72,3.72,0,0,1-.25,1.48,2.34,2.34,0,0,1-.63.9,2.22,2.22,0,0,1-.91.45,5.19,5.19,0,0,1-1.05.11,4.4,4.4,0,0,1-1.53-.23,1.81,1.81,0,0,1-.94-.76,3.61,3.61,0,0,1-.46-1.38,13.32,13.32,0,0,1-.13-2.05,12.2,12.2,0,0,1,.15-2.07,3.49,3.49,0,0,1,.51-1.38,2,2,0,0,1,.95-.76,3.86,3.86,0,0,1,1.45-.24,3.76,3.76,0,0,1,1.29.2,2,2,0,0,1,.85.54,2.16,2.16,0,0,1,.48.85,4,4,0,0,1,.15,1.13v.53h-2.16v-.47A2.31,2.31,0,0,0,195.42,43.62Z" transform="translate(-2.58 -3.38)"/><path d="M200.72,48.19a1.41,1.41,0,0,0,.18.83.64.64,0,0,0,.5.21.61.61,0,0,0,.49-.21,1.33,1.33,0,0,0,.18-.83V42h2.23v5.62a4.93,4.93,0,0,1-.19,1.5,2.37,2.37,0,0,1-.56,1,1.92,1.92,0,0,1-.91.49,5.08,5.08,0,0,1-1.24.13,5.28,5.28,0,0,1-1.25-.13,2,2,0,0,1-.91-.49,2.37,2.37,0,0,1-.56-1,5.27,5.27,0,0,1-.19-1.5V42h2.23Z" transform="translate(-2.58 -3.38)"/><path d="M208.6,44.28a1.3,1.3,0,0,0-.16-.65.51.51,0,0,0-.48-.27.6.6,0,0,0-.53.23.89.89,0,0,0-.16.52.87.87,0,0,0,.27.67,2.56,2.56,0,0,0,.67.42l.88.37a4,4,0,0,1,.88.48,2.47,2.47,0,0,1,.67.79,2.6,2.6,0,0,1,.27,1.27,2.37,2.37,0,0,1-.78,2,3.57,3.57,0,0,1-2.25.62,6.31,6.31,0,0,1-1.23-.11,2.19,2.19,0,0,1-.9-.4,1.74,1.74,0,0,1-.56-.74,2.87,2.87,0,0,1-.19-1.13V48h2.16v.21a1.17,1.17,0,0,0,.2.77.68.68,0,0,0,.53.22.63.63,0,0,0,.53-.24,1,1,0,0,0-.07-1.25,2.43,2.43,0,0,0-.65-.42c-.26-.12-.54-.23-.84-.35a3.7,3.7,0,0,1-.85-.47,2.43,2.43,0,0,1-.65-.76,2.54,2.54,0,0,1-.25-1.22,2.67,2.67,0,0,1,.69-2,2.9,2.9,0,0,1,2.11-.69,3,3,0,0,1,2.12.63,2.67,2.67,0,0,1,.66,2H208.6Z" transform="translate(-2.58 -3.38)"/><path d="M216.78,42v1.83h-2.84V45.3h2.66v1.75h-2.66v1.7h2.95v1.83h-5.18V42Z" transform="translate(-2.58 -3.38)"/><path d="M221,42a2.72,2.72,0,0,1,1.51.36,2.18,2.18,0,0,1,.81.94,4.11,4.11,0,0,1,.33,1.37c0,.52.06,1,.06,1.61s0,1.1-.06,1.62a4.11,4.11,0,0,1-.33,1.37,2.18,2.18,0,0,1-.81.94,2.72,2.72,0,0,1-1.51.36h-3.24V42Zm-.57,7a1.25,1.25,0,0,0,.52-.09.62.62,0,0,0,.29-.38,3,3,0,0,0,.13-.81c0-.36,0-.82,0-1.4s0-1,0-1.39a3,3,0,0,0-.13-.81.62.62,0,0,0-.29-.38,1.25,1.25,0,0,0-.52-.09h-.44V49Z" transform="translate(-2.58 -3.38)"/><path d="M227.62,44.25a3.62,3.62,0,0,1,.51-1.38,2.11,2.11,0,0,1,1-.78,4.27,4.27,0,0,1,2.88,0,2,2,0,0,1,.95.78,3.79,3.79,0,0,1,.52,1.38,14,14,0,0,1,0,4.09,3.79,3.79,0,0,1-.52,1.38,1.92,1.92,0,0,1-.95.76,4.62,4.62,0,0,1-2.88,0,2,2,0,0,1-1-.76,3.62,3.62,0,0,1-.51-1.38,13.15,13.15,0,0,1,0-4.09Zm2.17,3.48a5.67,5.67,0,0,0,.1.9.93.93,0,0,0,.23.47.58.58,0,0,0,.4.13.57.57,0,0,0,.4-.13.8.8,0,0,0,.23-.47,4,4,0,0,0,.1-.9q0-.57,0-1.44c0-.57,0-1,0-1.43a4,4,0,0,0-.1-.9.8.8,0,0,0-.23-.47.57.57,0,0,0-.4-.13.58.58,0,0,0-.4.13.93.93,0,0,0-.23.47,5.67,5.67,0,0,0-.1.9c0,.38,0,.86,0,1.43S229.77,47.35,229.79,47.73Z" transform="translate(-2.58 -3.38)"/><path d="M236.88,42l1.44,5.28h0V42h2.09v8.57H238l-1.49-5.29h0v5.29h-2.08V42Z" transform="translate(-2.58 -3.38)"/></g><g style="isolation:isolate"><path d="M130.7,56.41a2.7,2.7,0,0,1,1.51.36,2.18,2.18,0,0,1,.81.94,4.05,4.05,0,0,1,.33,1.37c0,.52.06,1.05.06,1.61s0,1.1-.06,1.62a4.11,4.11,0,0,1-.33,1.37,2.18,2.18,0,0,1-.81.94,2.7,2.7,0,0,1-1.51.36h-3.24V56.41Zm-.56,7a1.23,1.23,0,0,0,.51-.09.63.63,0,0,0,.3-.38,3.41,3.41,0,0,0,.13-.81c0-.36,0-.82,0-1.4s0-1,0-1.39a3.41,3.41,0,0,0-.13-.81.63.63,0,0,0-.3-.38,1.23,1.23,0,0,0-.51-.09h-.45v5.35Z" transform="translate(-2.58 -3.38)"/><path d="M139.43,56.41v1.83h-2.85V59.7h2.67v1.75h-2.67v1.7h2.95V65h-5.18V56.41Z" transform="translate(-2.58 -3.38)"/><path d="M142.58,56.41v6.74h2.75V65h-5V56.41Z" transform="translate(-2.58 -3.38)"/><path d="M148.05,56.41V65h-2.23V56.41Z" transform="translate(-2.58 -3.38)"/><path d="M150.71,56.41l.9,6.46h0l.9-6.46h2.38L153.06,65h-2.88l-1.81-8.57Z" transform="translate(-2.58 -3.38)"/><path d="M160.34,56.41v1.83H157.5V59.7h2.66v1.75H157.5v1.7h2.95V65h-5.18V56.41Z" transform="translate(-2.58 -3.38)"/><path d="M164.76,56.41a3.24,3.24,0,0,1,1.09.17,1.77,1.77,0,0,1,1.14,1.2,3.28,3.28,0,0,1,.12.91,2.41,2.41,0,0,1-.35,1.39,1.54,1.54,0,0,1-1.11.65v0a1.34,1.34,0,0,1,1.1.57,2.6,2.6,0,0,1,.3,1.35v1.08c0,.12,0,.24,0,.35a2.54,2.54,0,0,0,0,.29.6.6,0,0,0,.06.2.71.71,0,0,0,.1.14.39.39,0,0,0,.15.13V65H165a1.45,1.45,0,0,1-.13-.4,3.47,3.47,0,0,1-.06-.45c0-.16,0-.3,0-.44s0-.26,0-.34v-.58a3.39,3.39,0,0,0,0-.6.9.9,0,0,0-.12-.38.53.53,0,0,0-.23-.19.87.87,0,0,0-.34-.05h-.59V65h-2.23V56.41ZM163.94,60a.85.85,0,0,0,.71-.28,1.14,1.14,0,0,0,.23-.73,1.12,1.12,0,0,0-.22-.77,1,1,0,0,0-.73-.23h-.43v2Z" transform="translate(-2.58 -3.38)"/><path d="M170.3,56.41V65h-2.23V56.41Z" transform="translate(-2.58 -3.38)"/><path d="M173.77,56.41l1.44,5.28h0V56.41h2.08V65h-2.44l-1.49-5.29h0V65h-2.08V56.41Z" transform="translate(-2.58 -3.38)"/><path d="M184.14,60.32V65h-1.51l0-.76h0a1.29,1.29,0,0,1-.31.46,1.34,1.34,0,0,1-.44.27,2.27,2.27,0,0,1-.53.12,3.64,3.64,0,0,1-.57,0,2.71,2.71,0,0,1-1.35-.28,1.82,1.82,0,0,1-.74-.85,4.31,4.31,0,0,1-.32-1.39c0-.55-.06-1.18-.06-1.9a13.3,13.3,0,0,1,.12-1.9,3.79,3.79,0,0,1,.48-1.39,2.22,2.22,0,0,1,1-.86,4.14,4.14,0,0,1,2.69-.14,2.06,2.06,0,0,1,.86.5,2.48,2.48,0,0,1,.57.9,3.9,3.9,0,0,1,.2,1.32H182a3,3,0,0,0-.12-1,.49.49,0,0,0-.52-.37.63.63,0,0,0-.43.13.8.8,0,0,0-.24.46,4.8,4.8,0,0,0-.11.91c0,.38,0,.86,0,1.43s0,1.06,0,1.44a4.57,4.57,0,0,0,.11.9.86.86,0,0,0,.22.47.59.59,0,0,0,.41.13.62.62,0,0,0,.31-.07.59.59,0,0,0,.24-.27,2.22,2.22,0,0,0,.15-.55,7.39,7.39,0,0,0,.05-.91h-.79V60.32Z" transform="translate(-2.58 -3.38)"/><path d="M191.28,56.41l.9,5.08h0l.9-5.08h3.19V65h-2.09V58.6h0L193,65h-1.61L190.2,58.6h0V65h-2.09V56.41Z" transform="translate(-2.58 -3.38)"/><path d="M197.17,58.65a3.79,3.79,0,0,1,.52-1.38,2.06,2.06,0,0,1,.95-.78,4.27,4.27,0,0,1,2.88,0,2.06,2.06,0,0,1,.95.78,3.62,3.62,0,0,1,.51,1.38,13.15,13.15,0,0,1,0,4.09,3.62,3.62,0,0,1-.51,1.38,2,2,0,0,1-.95.76,4.62,4.62,0,0,1-2.88,0,2,2,0,0,1-.95-.76,3.79,3.79,0,0,1-.52-1.38,14,14,0,0,1,0-4.09Zm2.18,3.48a4.69,4.69,0,0,0,.1.9.86.86,0,0,0,.23.47.68.68,0,0,0,.8,0,.86.86,0,0,0,.23-.47,5.67,5.67,0,0,0,.1-.9c0-.38,0-.86,0-1.44s0-1,0-1.43a6,6,0,0,0-.1-.91.86.86,0,0,0-.23-.46.68.68,0,0,0-.8,0,.86.86,0,0,0-.23.46,4.92,4.92,0,0,0-.1.91c0,.38,0,.86,0,1.43S199.33,61.75,199.35,62.13Z" transform="translate(-2.58 -3.38)"/><path d="M207.43,56.41a3.16,3.16,0,0,1,1.09.17,1.88,1.88,0,0,1,.73.47,1.82,1.82,0,0,1,.41.73,3.28,3.28,0,0,1,.13.91,2.49,2.49,0,0,1-.35,1.39,1.56,1.56,0,0,1-1.12.65v0a1.35,1.35,0,0,1,1.11.57,2.6,2.6,0,0,1,.3,1.35v1.08c0,.12,0,.24,0,.35l0,.29a1,1,0,0,0,.06.2l.1.14a.36.36,0,0,0,.16.13V65h-2.38a1.45,1.45,0,0,1-.13-.4l-.06-.45c0-.16,0-.3,0-.44s0-.26,0-.34v-.58a5,5,0,0,0,0-.6,1.05,1.05,0,0,0-.13-.38.48.48,0,0,0-.23-.19.84.84,0,0,0-.34-.05h-.59V65h-2.23V56.41ZM206.62,60a.86.86,0,0,0,.71-.28,1.13,1.13,0,0,0,.22-.73,1.07,1.07,0,0,0-.22-.77,1,1,0,0,0-.72-.23h-.44v2Z" transform="translate(-2.58 -3.38)"/><path d="M215.91,56.41v1.83h-2.85V59.7h2.67v1.75h-2.67v1.7H216V65h-5.18V56.41Z" transform="translate(-2.58 -3.38)"/><path d="M221.19,56.41l.9,6.46h0l.9-6.46h2.38L223.54,65h-2.88l-1.81-8.57Z" transform="translate(-2.58 -3.38)"/><path d="M229.52,56.41,231.6,65h-2.37l-.23-1.5h-1.78L227,65h-2.35l2.06-8.57Zm-1.42,1.75-.61,3.64h1.25l-.62-3.64Z" transform="translate(-2.58 -3.38)"/><path d="M234.21,56.41v6.74H237V65h-5V56.41Z" transform="translate(-2.58 -3.38)"/><path d="M239.67,62.59a1.33,1.33,0,0,0,.18.83.68.68,0,0,0,1,0,1.33,1.33,0,0,0,.18-.83V56.41h2.23V62a4.93,4.93,0,0,1-.19,1.5,2.26,2.26,0,0,1-.56,1,1.89,1.89,0,0,1-.9.49,6,6,0,0,1-2.49,0,1.87,1.87,0,0,1-.91-.49,2.26,2.26,0,0,1-.56-1,4.93,4.93,0,0,1-.19-1.5V56.41h2.23Z" transform="translate(-2.58 -3.38)"/><path d="M249.28,56.41v1.83h-2.84V59.7h2.66v1.75h-2.66v1.7h2.95V65H244.2V56.41Z" transform="translate(-2.58 -3.38)"/><path d="M252.35,58.31v-1.9h5.57v1.9h-1.68V65H254V58.31Z" transform="translate(-2.58 -3.38)"/><path d="M258.33,58.65a3.62,3.62,0,0,1,.52-1.38,2,2,0,0,1,.94-.78,3.87,3.87,0,0,1,1.44-.25,3.79,3.79,0,0,1,1.44.25,2,2,0,0,1,.95.78,3.79,3.79,0,0,1,.52,1.38,14,14,0,0,1,0,4.09,3.79,3.79,0,0,1-.52,1.38,1.92,1.92,0,0,1-.95.76,4,4,0,0,1-1.44.23,4.1,4.1,0,0,1-1.44-.23,1.94,1.94,0,0,1-.94-.76,3.62,3.62,0,0,1-.52-1.38,13.15,13.15,0,0,1,0-4.09Zm2.17,3.48a5.67,5.67,0,0,0,.1.9.93.93,0,0,0,.23.47.58.58,0,0,0,.4.13.59.59,0,0,0,.41-.13.86.86,0,0,0,.22-.47,4.57,4.57,0,0,0,.11-.9c0-.38,0-.86,0-1.44s0-1,0-1.43a4.8,4.8,0,0,0-.11-.91.86.86,0,0,0-.22-.46.59.59,0,0,0-.41-.13.58.58,0,0,0-.4.13.94.94,0,0,0-.23.46,6,6,0,0,0-.1.91c0,.38,0,.86,0,1.43S260.49,61.75,260.5,62.13Z" transform="translate(-2.58 -3.38)"/></g><g style="isolation:isolate"><path d="M130.74,72.42a.5.5,0,0,0-.47-.26.57.57,0,0,0-.4.13.86.86,0,0,0-.23.47,4.69,4.69,0,0,0-.1.9c0,.38,0,.86,0,1.43s0,1.06,0,1.44a4.69,4.69,0,0,0,.1.9.86.86,0,0,0,.23.47.57.57,0,0,0,.4.13.5.5,0,0,0,.33-.1.66.66,0,0,0,.21-.34,3,3,0,0,0,.1-.64q0-.4,0-1h2.16v.64a3.92,3.92,0,0,1-.24,1.48,2.34,2.34,0,0,1-.63.9,2.22,2.22,0,0,1-.91.45,5.19,5.19,0,0,1-1,.11,4.46,4.46,0,0,1-1.54-.23,1.79,1.79,0,0,1-.93-.76,3.61,3.61,0,0,1-.47-1.38,14.88,14.88,0,0,1-.12-2,12.2,12.2,0,0,1,.15-2.07,3.49,3.49,0,0,1,.51-1.38,2,2,0,0,1,.95-.76,3.82,3.82,0,0,1,1.45-.24,3.7,3.7,0,0,1,1.28.2,2,2,0,0,1,1.34,1.39,4,4,0,0,1,.15,1.13v.54h-2.16v-.48A2.48,2.48,0,0,0,130.74,72.42Z" transform="translate(-2.58 -3.38)"/><path d="M136,77a1.33,1.33,0,0,0,.18.83.61.61,0,0,0,.49.21.63.63,0,0,0,.5-.21,1.33,1.33,0,0,0,.18-.83V70.81h2.23v5.62a5.27,5.27,0,0,1-.19,1.5,2.37,2.37,0,0,1-.56,1,2,2,0,0,1-.91.49,6,6,0,0,1-2.49,0,1.92,1.92,0,0,1-.91-.49,2.26,2.26,0,0,1-.56-1,4.93,4.93,0,0,1-.19-1.5V70.81H136Z" transform="translate(-2.58 -3.38)"/><path d="M143.91,73.08a1.3,1.3,0,0,0-.15-.65.53.53,0,0,0-.48-.27.6.6,0,0,0-.53.23.9.9,0,0,0-.17.52.87.87,0,0,0,.27.67,2.63,2.63,0,0,0,.68.42c.27.12.56.25.88.37a4.1,4.1,0,0,1,.87.48,2.5,2.5,0,0,1,.68.79,2.6,2.6,0,0,1,.27,1.27,2.37,2.37,0,0,1-.78,2,3.58,3.58,0,0,1-2.26.62A6.46,6.46,0,0,1,142,79.4a2.31,2.31,0,0,1-.9-.4,1.72,1.72,0,0,1-.55-.74,2.86,2.86,0,0,1-.2-1.13v-.3h2.16V77a1.11,1.11,0,0,0,.21.77.67.67,0,0,0,.53.22.63.63,0,0,0,.53-.24.94.94,0,0,0,.19-.58.89.89,0,0,0-.26-.67,2.43,2.43,0,0,0-.65-.42c-.26-.12-.54-.23-.85-.35a3.85,3.85,0,0,1-.84-.47,2.3,2.3,0,0,1-.65-.76,2.54,2.54,0,0,1-.26-1.22,2.64,2.64,0,0,1,.7-2,2.88,2.88,0,0,1,2.11-.69,3,3,0,0,1,2.12.63,2.71,2.71,0,0,1,.65,2h-2.09Z" transform="translate(-2.58 -3.38)"/><path d="M146.49,72.71v-1.9h5.57v1.9h-1.68v6.67h-2.23V72.71Z" transform="translate(-2.58 -3.38)"/><path d="M152.47,73.05a3.62,3.62,0,0,1,.52-1.38,2,2,0,0,1,.94-.78,3.88,3.88,0,0,1,1.45-.25,3.77,3.77,0,0,1,1.43.25,2,2,0,0,1,.95.78,3.79,3.79,0,0,1,.52,1.38,14,14,0,0,1,0,4.09,3.79,3.79,0,0,1-.52,1.38,1.92,1.92,0,0,1-.95.76,4,4,0,0,1-1.43.23,4.12,4.12,0,0,1-1.45-.23,1.94,1.94,0,0,1-.94-.76,3.62,3.62,0,0,1-.52-1.38,13.15,13.15,0,0,1,0-4.09Zm2.17,3.48a5.67,5.67,0,0,0,.1.9.93.93,0,0,0,.23.47.59.59,0,0,0,.41.13.58.58,0,0,0,.4-.13.86.86,0,0,0,.22-.47,4.57,4.57,0,0,0,.11-.9c0-.38,0-.86,0-1.44s0-1,0-1.43a4.57,4.57,0,0,0-.11-.9.86.86,0,0,0-.22-.47.58.58,0,0,0-.4-.13.59.59,0,0,0-.41.13.93.93,0,0,0-.23.47,5.67,5.67,0,0,0-.1.9c0,.38,0,.86,0,1.43S154.63,76.15,154.64,76.53Z" transform="translate(-2.58 -3.38)"/><path d="M162.35,70.81l.9,5.08h0l.9-5.08h3.19v8.57h-2.08V73h0l-1.19,6.38h-1.6L161.27,73h0v6.38h-2.09V70.81Z" transform="translate(-2.58 -3.38)"/><path d="M173.41,70.81v1.83h-2.84V74.1h2.66v1.75h-2.66v1.7h3v1.83h-5.19V70.81Z" transform="translate(-2.58 -3.38)"/><path d="M177.83,70.81a3.14,3.14,0,0,1,1.08.17,1.71,1.71,0,0,1,1.14,1.2,2.94,2.94,0,0,1,.13.91,2.49,2.49,0,0,1-.35,1.39,1.54,1.54,0,0,1-1.11.65v0a1.34,1.34,0,0,1,1.1.57,2.6,2.6,0,0,1,.3,1.35v1.08c0,.12,0,.24,0,.35a2.54,2.54,0,0,0,0,.29.43.43,0,0,0,.06.2l.09.14a.53.53,0,0,0,.16.13v.12H178.1A1.9,1.9,0,0,1,178,79a3.47,3.47,0,0,1-.06-.45c0-.16,0-.3,0-.44v-.92a3.39,3.39,0,0,0,0-.6.9.9,0,0,0-.12-.38.53.53,0,0,0-.23-.19.87.87,0,0,0-.34,0h-.59v3.43h-2.23V70.81ZM177,74.44a.86.86,0,0,0,.71-.29,1.36,1.36,0,0,0,0-1.5,1,1,0,0,0-.73-.23h-.43v2Z" transform="translate(-2.58 -3.38)"/><path d="M184.56,73.08a1.21,1.21,0,0,0-.16-.65.51.51,0,0,0-.48-.27.58.58,0,0,0-.52.23.83.83,0,0,0-.17.52.87.87,0,0,0,.27.67,2.47,2.47,0,0,0,.68.42c.27.12.56.25.87.37a4.17,4.17,0,0,1,.88.48,2.5,2.5,0,0,1,.68.79,2.6,2.6,0,0,1,.27,1.27,2.37,2.37,0,0,1-.78,2,3.6,3.6,0,0,1-2.26.62,6.46,6.46,0,0,1-1.23-.11,2.19,2.19,0,0,1-.9-.4,1.82,1.82,0,0,1-.56-.74,2.87,2.87,0,0,1-.19-1.13v-.3h2.16V77a1.17,1.17,0,0,0,.2.77.69.69,0,0,0,.53.22.66.66,0,0,0,.54-.24.93.93,0,0,0,.18-.58.85.85,0,0,0-.26-.67,2.37,2.37,0,0,0-.64-.42c-.26-.12-.55-.23-.85-.35a3.92,3.92,0,0,1-.85-.47,2.28,2.28,0,0,1-.64-.76,2.43,2.43,0,0,1-.26-1.22,2.67,2.67,0,0,1,.69-2,2.91,2.91,0,0,1,2.12-.69,3,3,0,0,1,2.11.63,2.67,2.67,0,0,1,.66,2h-2.09Z" transform="translate(-2.58 -3.38)"/><path d="M189.82,72.71v-1.9h5.56v1.9h-1.67v6.67h-2.24V72.71Z" transform="translate(-2.58 -3.38)"/><path d="M198.12,70.81V74h1.37V70.81h2.23v8.57h-2.23V75.85h-1.37v3.53h-2.23V70.81Z" transform="translate(-2.58 -3.38)"/><path d="M207,70.81l2.09,8.57H206.7l-.23-1.5H204.7l-.23,1.5h-2.34l2.05-8.57Zm-1.42,1.75L205,76.2h1.25l-.61-3.64Z" transform="translate(-2.58 -3.38)"/><path d="M212,70.81l1.44,5.28h0V70.81h2.09v8.57h-2.45l-1.49-5.29h0v5.29h-2.09V70.81Z" transform="translate(-2.58 -3.38)"/><path d="M223,72.42a.48.48,0,0,0-.47-.26.57.57,0,0,0-.4.13.86.86,0,0,0-.23.47,5.67,5.67,0,0,0-.1.9c0,.38,0,.86,0,1.43s0,1.06,0,1.44a5.67,5.67,0,0,0,.1.9.86.86,0,0,0,.23.47.57.57,0,0,0,.4.13.53.53,0,0,0,.34-.1.66.66,0,0,0,.2-.34,3,3,0,0,0,.1-.64q0-.4,0-1h2.16v.64a3.92,3.92,0,0,1-.24,1.48,2.34,2.34,0,0,1-.63.9,2.22,2.22,0,0,1-.91.45,5.19,5.19,0,0,1-1.05.11,4.4,4.4,0,0,1-1.53-.23,1.81,1.81,0,0,1-.94-.76,3.61,3.61,0,0,1-.46-1.38,13.32,13.32,0,0,1-.13-2,12.2,12.2,0,0,1,.15-2.07,3.49,3.49,0,0,1,.51-1.38,2,2,0,0,1,.95-.76,3.86,3.86,0,0,1,1.45-.24,3.76,3.76,0,0,1,1.29.2,2.11,2.11,0,0,1,.85.54,2.31,2.31,0,0,1,.49.85,4,4,0,0,1,.14,1.13v.54h-2.16v-.48A2.31,2.31,0,0,0,223,72.42Z" transform="translate(-2.58 -3.38)"/><path d="M226,73.05a3.79,3.79,0,0,1,.52-1.38,2,2,0,0,1,1-.78,4.27,4.27,0,0,1,2.88,0,2.06,2.06,0,0,1,.95.78,3.79,3.79,0,0,1,.51,1.38,13.15,13.15,0,0,1,0,4.09,3.79,3.79,0,0,1-.51,1.38,2,2,0,0,1-.95.76,4.62,4.62,0,0,1-2.88,0,1.92,1.92,0,0,1-1-.76,3.79,3.79,0,0,1-.52-1.38,14,14,0,0,1,0-4.09Zm2.18,3.48a4.69,4.69,0,0,0,.1.9.8.8,0,0,0,.23.47.55.55,0,0,0,.4.13.57.57,0,0,0,.4-.13.93.93,0,0,0,.23-.47,5.67,5.67,0,0,0,.1-.9c0-.38,0-.86,0-1.44s0-1,0-1.43a5.67,5.67,0,0,0-.1-.9.93.93,0,0,0-.23-.47.57.57,0,0,0-.4-.13.55.55,0,0,0-.4.13.8.8,0,0,0-.23.47,4.69,4.69,0,0,0-.1.9c0,.38,0,.86,0,1.43S228.18,76.15,228.2,76.53Z" transform="translate(-2.58 -3.38)"/><path d="M235,70.81v6.74h2.75v1.83h-5V70.81Z" transform="translate(-2.58 -3.38)"/><path d="M240.58,70.81v6.74h2.75v1.83h-5V70.81Z" transform="translate(-2.58 -3.38)"/><path d="M249,70.81v1.83h-2.84V74.1h2.66v1.75h-2.66v1.7h3v1.83H243.9V70.81Z" transform="translate(-2.58 -3.38)"/><path d="M253.18,72.42a.49.49,0,0,0-.47-.26.57.57,0,0,0-.4.13.86.86,0,0,0-.23.47,5.67,5.67,0,0,0-.1.9c0,.38,0,.86,0,1.43s0,1.06,0,1.44a5.67,5.67,0,0,0,.1.9.86.86,0,0,0,.23.47.57.57,0,0,0,.4.13.53.53,0,0,0,.34-.1.6.6,0,0,0,.2-.34,3.62,3.62,0,0,0,.11-.64c0-.27,0-.61,0-1h2.16v.64a3.92,3.92,0,0,1-.24,1.48,2.34,2.34,0,0,1-.63.9,2.22,2.22,0,0,1-.91.45,5.19,5.19,0,0,1-1,.11,4.4,4.4,0,0,1-1.53-.23,1.81,1.81,0,0,1-.94-.76,3.61,3.61,0,0,1-.46-1.38,13.32,13.32,0,0,1-.13-2A12.2,12.2,0,0,1,249.8,73a3.49,3.49,0,0,1,.51-1.38,2,2,0,0,1,.95-.76,3.86,3.86,0,0,1,1.45-.24,3.76,3.76,0,0,1,1.29.2,2.22,2.22,0,0,1,.86.54,2.27,2.27,0,0,1,.47.85,3.64,3.64,0,0,1,.15,1.13v.54h-2.16v-.48A2.31,2.31,0,0,0,253.18,72.42Z" transform="translate(-2.58 -3.38)"/><path d="M255.82,72.71v-1.9h5.57v1.9h-1.68v6.67h-2.23V72.71Z" transform="translate(-2.58 -3.38)"/><path d="M264,70.81v8.57h-2.23V70.81Z" transform="translate(-2.58 -3.38)"/><path d="M267.51,70.81,269,76.09h0V70.81h2.09v8.57h-2.45l-1.49-5.29h0v5.29H265V70.81Z" transform="translate(-2.58 -3.38)"/><path d="M277.88,74.72v4.66h-1.51l-.05-.76h0a1.15,1.15,0,0,1-.3.46,1.29,1.29,0,0,1-.45.27,2.19,2.19,0,0,1-.52.12,3.64,3.64,0,0,1-.57,0,2.71,2.71,0,0,1-1.35-.28,1.77,1.77,0,0,1-.74-.85A4.07,4.07,0,0,1,272,77c0-.55-.07-1.18-.07-1.9a13.29,13.29,0,0,1,.13-1.9,3.46,3.46,0,0,1,.48-1.39,2.22,2.22,0,0,1,1-.86,4.14,4.14,0,0,1,2.69-.14,2.12,2.12,0,0,1,.86.5,2.34,2.34,0,0,1,.56.9,3.65,3.65,0,0,1,.21,1.32h-2.16a3,3,0,0,0-.12-1,.49.49,0,0,0-.52-.37.68.68,0,0,0-.44.13.93.93,0,0,0-.24.47,5.67,5.67,0,0,0-.1.9c0,.38,0,.86,0,1.43s0,1.06,0,1.44a5.67,5.67,0,0,0,.1.9.93.93,0,0,0,.23.47.58.58,0,0,0,.4.13.66.66,0,0,0,.32-.07.65.65,0,0,0,.24-.27,2.22,2.22,0,0,0,.15-.55,7.39,7.39,0,0,0,.05-.91H275V74.72Z" transform="translate(-2.58 -3.38)"/></g><g style="isolation:isolate"><path d="M129.61,85.21v8.57h-2.23V85.21Z" transform="translate(-2.58 -3.38)"/><path d="M133.08,85.21l1.44,5.28h0V85.21h2.09v8.57h-2.45l-1.49-5.29h0v5.29h-2.09V85.21Z" transform="translate(-2.58 -3.38)"/><path d="M144.3,85.21a3.14,3.14,0,0,1,1.08.17,1.71,1.71,0,0,1,1.14,1.2,2.94,2.94,0,0,1,.13.91,2.49,2.49,0,0,1-.35,1.39,1.54,1.54,0,0,1-1.11.65v0a1.34,1.34,0,0,1,1.1.57,2.6,2.6,0,0,1,.3,1.35v1.08c0,.12,0,.24,0,.35a2.54,2.54,0,0,0,0,.29.43.43,0,0,0,.06.2l.09.14a.53.53,0,0,0,.16.13v.12h-2.38a1.9,1.9,0,0,1-.12-.4,3.47,3.47,0,0,1-.06-.45c0-.16,0-.3,0-.44v-.92a3.39,3.39,0,0,0,0-.6.9.9,0,0,0-.12-.38.53.53,0,0,0-.23-.19.87.87,0,0,0-.34-.05H143v3.43h-2.23V85.21Zm-.82,3.62a.85.85,0,0,0,.71-.28,1.36,1.36,0,0,0,0-1.5,1,1,0,0,0-.73-.23H143v2Z" transform="translate(-2.58 -3.38)"/><path d="M152.77,85.21V87h-2.84V88.5h2.66v1.75h-2.66V92h2.95v1.83h-5.19V85.21Z" transform="translate(-2.58 -3.38)"/><path d="M155.37,85.21l.9,6.46h0l.9-6.46h2.37l-1.84,8.57h-2.88L153,85.21Z" transform="translate(-2.58 -3.38)"/><path d="M165,85.21V87h-2.84V88.5h2.66v1.75h-2.66V92h3v1.83h-5.19V85.21Z" transform="translate(-2.58 -3.38)"/><path d="M168.43,85.21l1.44,5.28h0V85.21H172v8.57h-2.44l-1.49-5.29h0v5.29h-2.08V85.21Z" transform="translate(-2.58 -3.38)"/><path d="M175.18,91.39a1.33,1.33,0,0,0,.18.83.68.68,0,0,0,1,0,1.33,1.33,0,0,0,.18-.83V85.21h2.23v5.62a4.93,4.93,0,0,1-.19,1.5,2.33,2.33,0,0,1-.56,1,1.89,1.89,0,0,1-.9.49,5.22,5.22,0,0,1-1.25.13,5.13,5.13,0,0,1-1.24-.13,2,2,0,0,1-.92-.49,2.44,2.44,0,0,1-.56-1,5.27,5.27,0,0,1-.19-1.5V85.21h2.24Z" transform="translate(-2.58 -3.38)"/><path d="M184.79,85.21V87h-2.85V88.5h2.67v1.75h-2.67V92h3v1.83h-5.19V85.21Z" transform="translate(-2.58 -3.38)"/><path d="M187.75,91.4v2.38h-2V91.4Z" transform="translate(-2.58 -3.38)"/></g></g><g id="a1fa9fcf-3d64-4f7c-9208-d132526e37cf" data-name="Dots"><circle cx="97.12" cy="27.52" r="1.9"/><circle cx="104.12" cy="27.52" r="1.9"/><circle cx="111.32" cy="27.52" r="1.9"/><circle cx="117.92" cy="27.52" r="1.9"/></g></g></svg>