<svg id="Layer_1" data-name="Layer 1" xmlns="http://www.w3.org/2000/svg" viewBox="0 0 1117 1049.2"><defs><style>.cls-1{fill:#fff;}.cls-2{fill:#02c9fb;}</style></defs><title>Artboard 1</title><g id="TV_BKGD" data-name="TV BKGD"><rect class="cls-1" x="87.9" y="299.6" width="810.6" height="663.1"/><rect class="cls-1" x="898.5" y="232" width="203.3" height="796.3"/><rect class="cls-1" x="18" y="952.8" width="906.9" height="69.3"/><rect class="cls-1" x="18" y="268.5" width="74.1" height="711"/><rect class="cls-1" x="21.2" y="221.9" width="1073.2" height="86"/><rect class="cls-1" x="230.5" y="163.9" width="120" height="43.2"/><rect class="cls-1" x="257.2" y="153.1" width="65.6" height="14.9"/><rect x="979.9" y="653.2" width="29.8" height="26.2"/><rect x="967.4" y="769.6" width="67.8" height="53.5"/><rect x="971" y="905.6" width="56.9" height="56.9"/></g><g id="Shell"><g id="a79de169-09ec-4a7a-ab9c-8cdea5ef464a"><g id="ab7f11b5-6281-41fc-8479-8d7f2085a121"><polygon class="cls-2" points="264.3 752.5 339.3 882.4 636.3 882.4 711.2 752.5 731.7 774.8 652.8 911.5 321.9 911.5 243.2 775.2 264.3 752.5"/><polygon class="cls-2" points="235.3 702.1 190.8 625 339.3 367.5 636.3 367.5 784.8 625 739.8 702.9 760.6 724.7 818.2 625 652.8 338.4 321.9 338.4 156.4 625 213.9 724.5 235.3 702.1"/></g></g><g id="a6f45107-d82c-43d7-9f86-2a039e347489"><rect class="cls-2" x="325.6" y="353.9" width="324.7" height="541.9"/><rect class="cls-2" x="329.56" y="350.5" width="324.68" height="559.37" transform="matrix(0.51, -0.86, 0.86, 0.51, -300.45, 736.39)"/><rect class="cls-2" x="201.9" y="467.69" width="559.39" height="324.69" transform="translate(-250.5 325.21) rotate(-30)"/></g></g><g id="TV"><g id="layer1"><path id="path7416" class="cls-2" d="M12.9,0A13.63,13.63,0,0,0,0,14.34a13.46,13.46,0,0,0,5.7,10.4l208.1,156.2a81.7,81.7,0,0,0-8.1,23.8H81.9c-28.4,0-49.8,3-64.3,17.5S.1,258.14.1,286.54v681c0,28.4,3,49.3,17.5,63.8s35.9,17.9,64.3,17.9h953.4c28.4,0,49.8-3.4,64.3-17.9a49.05,49.05,0,0,0,11.9-18.7c4.4-12.2,5.5-27.4,5.5-45.1v-681c0-7.1-.3-13.8-.9-20-1-12.4-3-22.9-7.7-31.9a48.9,48.9,0,0,0-8.9-12.3c-14.5-14.5-35.9-17.5-64.3-17.5H366.6a80.7,80.7,0,0,0-8.1-23.8L566.6,24.84a13.64,13.64,0,0,0-9-24.7,13.28,13.28,0,0,0-7.2,3L341.8,159.34c-14.6-13.7-34.2-22.6-55.8-22.6a81.76,81.76,0,0,0-56.2,22.6L21.9,3A14,14,0,0,0,12.9,0Zm273.3,163.9c25.4,0,46.2,17.5,52.4,40.9H233.8C240,181.34,260.8,163.94,286.2,163.94ZM81.9,232H215.6a12.75,12.75,0,0,0,5.5,0H351.8a12.75,12.75,0,0,0,5.5,0h678c26.1,0,38.8,3.4,44.7,9.4s9.8,19,9.8,45.1v681c0,26.1-3.9,38.8-9.8,44.7s-18.6,9.8-44.7,9.8H81.9c-13.1,0-22.6-.8-29.8-2.6a43.87,43.87,0,0,1-8.9-3,23.72,23.72,0,0,1-6-4.3c-5.9-5.9-9.8-18.6-9.8-44.7v-681a166.37,166.37,0,0,1,.9-17c1.4-15,4.5-23.6,8.9-28.1,3-3,7.7-5.2,14.9-6.8a95.22,95.22,0,0,1,12.8-1.7C69.8,232.44,75.4,232,81.9,232Zm-2.6,40.8a13.64,13.64,0,0,0-11.1,13.6v681A13.61,13.61,0,0,0,81.8,981H899a13.61,13.61,0,0,0,13.6-13.6v-681a13.61,13.61,0,0,0-13.6-13.6H79.3Zm16.2,27.3h790v653.8H95.5ZM964.6,409a13.66,13.66,0,1,0,2.6,27.2h68.1a13.6,13.6,0,1,0,.4-27.2H964.6Zm0,68.1a13.66,13.66,0,1,0,2.6,27.2h68.1a13.6,13.6,0,1,0,.4-27.2H964.6Zm0,68.1a13.66,13.66,0,1,0,2.6,27.2h68.1a13.6,13.6,0,1,0,.4-27.2H964.6Zm36.6,81.8a34.1,34.1,0,1,0,34.1,34.1A34.34,34.34,0,0,0,1001.2,627Zm0,27.2a6.8,6.8,0,1,1-6.8,6.8A6.62,6.62,0,0,1,1001.2,654.24Zm0,95.3a47.7,47.7,0,1,0,47.7,47.7A47.89,47.89,0,0,0,1001.2,749.54Zm0,27.3a20.4,20.4,0,1,1-20.4,20.4A20.23,20.23,0,0,1,1001.2,776.84Zm0,108.9a47.7,47.7,0,1,0,47.7,47.7A47.89,47.89,0,0,0,1001.2,885.74Zm0,27.3a20.4,20.4,0,1,1-20.4,20.4A20.23,20.23,0,0,1,1001.2,913Z"/></g></g><g id="Robot"><g id="Bot_33" data-name="Bot 33"><path class="cls-1" d="M469.3,669a18.2,18.2,0,1,0-18.2,18.2A18,18,0,0,0,469.3,669Zm-29.1,0a11,11,0,1,1,11,11A10.78,10.78,0,0,1,440.2,669Z"/><path class="cls-1" d="M538.6,687.3a18.2,18.2,0,1,0-18.2-18.2A18,18,0,0,0,538.6,687.3Zm0-29.2a11,11,0,1,1-11,11A10.78,10.78,0,0,1,538.6,658.1Z"/><path class="cls-1" d="M584.1,698.1h-6.2a16.75,16.75,0,0,0,.8-3.6V647.2a10.78,10.78,0,0,0-11-11H421.8a10.78,10.78,0,0,0-11,11v47.3a9,9,0,0,0,.8,3.6h-6.2a20.51,20.51,0,0,0-21.1,19c-.8,11,8.4,20.8,19.3,21.1v42.6a25.71,25.71,0,0,0-12.1,33.9,28.1,28.1,0,0,0,7.7,9.5,7.09,7.09,0,0,0,4.4,1.5,7.64,7.64,0,0,0,3.3-.8,6.87,6.87,0,0,0,4.1-6.6V803.7a3.29,3.29,0,0,1,1.8-2.9,3.15,3.15,0,0,1,1.5-.8,3.27,3.27,0,0,1,2.6,1.1,3.39,3.39,0,0,1,1.5,2.9v14.2a7.06,7.06,0,0,0,4.1,6.6,6.39,6.39,0,0,0,7.2-.8,25.47,25.47,0,0,0,5.4-35.7,29,29,0,0,0-9.5-8V738h14.6a56.43,56.43,0,0,0,7.2,23.7v64.2a28.25,28.25,0,0,0-14.2,20.3,7.78,7.78,0,0,0,1.5,5.9,6.71,6.71,0,0,0,5.4,2.6H483a6.59,6.59,0,0,0,5.4-2.6c1.5-1.5,1.8-3.6,1.8-5.9A28.61,28.61,0,0,0,476,825.9v-40a55.69,55.69,0,0,0,36.5,0V826a28.25,28.25,0,0,0-14.2,20.3,6.85,6.85,0,0,0,1.8,5.9,6.71,6.71,0,0,0,5.4,2.6h43.2a6.59,6.59,0,0,0,5.4-2.6c1.5-1.5,1.8-3.6,1.8-5.9A28.61,28.61,0,0,0,541.7,826V761.8a52.44,52.44,0,0,0,7.2-23.7h14.6v42.6c-12.8,6.2-18.2,21.5-12.1,33.9a28.1,28.1,0,0,0,7.7,9.5,7.3,7.3,0,0,0,11.6-5.8V804.1a4.05,4.05,0,0,1,1.5-3.3,3.27,3.27,0,0,1,2.6-1.1c.8,0,1.1.3,1.8.8a3.74,3.74,0,0,1,1.8,2.9V818a7.06,7.06,0,0,0,4.1,6.6,14.37,14.37,0,0,0,3.3.8,6.53,6.53,0,0,0,4.4-1.5,25.59,25.59,0,0,0,5.1-35.7,28.1,28.1,0,0,0-9.5-7.7V738.2a19.75,19.75,0,0,0,19-21.1C604.5,706.1,595.1,697.8,584.1,698.1Zm-165.7-3.6V647.2a3.36,3.36,0,0,1,3.6-3.6H567.8a3.36,3.36,0,0,1,3.6,3.6v47.3a3.36,3.36,0,0,1-3.6,3.6H422A3.27,3.27,0,0,1,418.4,694.5Zm14.4,109.4a17.73,17.73,0,0,1-7.2,14.6V804.3a12.22,12.22,0,0,0-3.6-8.4c-2.3-2.3-5.1-2.9-8-2.9a10.75,10.75,0,0,0-10.2,11v14.6a18.22,18.22,0,0,1,4.8-31.7h.3a5,5,0,0,1,1.8-.3l1.1-.3a8.63,8.63,0,0,1,2.9-.3,13.81,13.81,0,0,1,5.9,1.1h.3C428.1,789.3,432.8,796.2,432.8,803.9Zm-14.4-25.2a12.68,12.68,0,0,0-3.3-.3h0a11.94,11.94,0,0,0-3.3.3H411V738.3h7.2v40.4ZM405.5,731a12.8,12.8,0,0,1,0-25.6h34.6v25.5l-34.6.1Zm55.8,47,1.1.8c.8.8,1.8,1.1,2.6,1.8l1.5.8,2.6,1.5.8.3v40.1h-.8l-1.5-.3a13,13,0,0,1-1.8-.3h-7.2l-1.8.3-1.5.3h-.8V772.2l.3.3,2.6,2.6.3.3A18.31,18.31,0,0,1,461.3,778Zm22.3,69.6H440.5a21.44,21.44,0,0,1,25.2-17.9,24.61,24.61,0,0,1,5.1,1.5l.8.3A22.45,22.45,0,0,1,483.6,847.6Zm-9.2-69.9a33.1,33.1,0,0,1-3.3-1.5,48.4,48.4,0,0,1-23.7-41.6V705.4h94.8v29.2a47.2,47.2,0,0,1-47.3,47.3,50.85,50.85,0,0,1-20.5-4.2Zm60.6-5.9v51.1h-.8l-1.5-.3a13,13,0,0,1-1.8-.3h-6.8l-1.8.3-1.5.3h-.6V782.8l.8-.3,2.3-1.5,1.5-.8c.8-.8,1.8-1.1,2.6-1.8l1.1-.8a22.13,22.13,0,0,0,3.3-2.9l.8-.3a9.12,9.12,0,0,1,2.4-2.6Zm14.1,75.8H506.2a21.44,21.44,0,0,1,25.2-17.9,24.61,24.61,0,0,1,5.1,1.5l.8.3A22.21,22.21,0,0,1,549.1,847.6Zm29.5-68.9c-1.1,0-2.6-.3-3.6-.3h0a11.94,11.94,0,0,0-3.3.3h-.3V738.3h7.2v40.4Zm14.7,25.2a17.73,17.73,0,0,1-7.2,14.6V803.9a11,11,0,0,0-10.2-11,11.16,11.16,0,0,0-8,2.9,11.57,11.57,0,0,0-3.6,8.4v14.2a18.09,18.09,0,0,1-3.6-25.5c2.3-2.9,4.7-5.1,8-6.2h.3a15.41,15.41,0,0,1,5.9-1.1,15.24,15.24,0,0,1,6.2,1.1h0A18.32,18.32,0,0,1,593.3,803.9ZM584.1,731H549.5V705.5h34.6a12.75,12.75,0,1,1,0,25.5Z"/></g></g><g id="Layer_8" data-name="Layer 8"><path d="M494.6,579.1l-3.8-2.2c-3-2.1-75.8-50.2-75.8-93.6,0-30.9,22-47,43.6-47,13.8,0,26.8,6.3,36,17.5,9.2-11.1,22.1-17.5,36-17.5,21.6,0,43.6,16.1,43.6,47,0,43.4-72.8,91.4-75.8,93.6Z"/></g></svg>