<svg xmlns="http://www.w3.org/2000/svg" viewBox="0 0 1117 1049.2"><defs><style>.cls-1{fill:#fff;}.cls-2{fill:#02c9fb;}</style></defs><title>Artboard 1</title><g id="Layer_1" data-name="Layer 1"><g id="TV_BKGD" data-name="TV BKGD"><rect class="cls-1" x="87.9" y="299.6" width="810.6" height="663.1"/><rect class="cls-1" x="898.5" y="232" width="203.3" height="796.3"/><rect class="cls-1" x="18" y="952.8" width="906.9" height="69.3"/><rect class="cls-1" x="18" y="268.5" width="74.1" height="711"/><rect class="cls-1" x="21.2" y="221.9" width="1073.2" height="86"/><rect class="cls-1" x="230.5" y="163.9" width="120" height="43.2"/><rect class="cls-1" x="257.2" y="153.1" width="65.6" height="14.9"/><rect x="979.9" y="653.2" width="29.8" height="26.2"/><rect x="967.4" y="769.6" width="67.8" height="53.5"/><rect x="971" y="905.6" width="56.9" height="56.9"/></g><g id="Shell"><g id="a79de169-09ec-4a7a-ab9c-8cdea5ef464a"><g id="ab7f11b5-6281-41fc-8479-8d7f2085a121"><polygon class="cls-2" points="261.33 748.78 338.09 881.72 642.04 881.72 718.7 748.78 739.67 771.6 658.93 911.5 320.28 911.5 239.74 772.01 261.33 748.78"/><polygon class="cls-2" points="231.66 697.2 186.11 618.29 338.09 354.76 642.04 354.76 794.02 618.29 747.97 698.02 769.25 720.33 828.2 618.29 658.93 324.98 320.28 324.98 150.91 618.29 209.75 720.12 231.66 697.2"/></g></g><g id="a6f45107-d82c-43d7-9f86-2a039e347489"><rect class="cls-2" x="324.07" y="340.85" width="332.3" height="554.58"/><rect class="cls-2" x="328.17" y="337.36" width="332.28" height="572.46" transform="matrix(0.51, -0.86, 0.86, 0.51, -293.56, 735.22)"/><rect class="cls-2" x="197.46" y="457.29" width="572.48" height="332.29" transform="translate(-246.92 325.38) rotate(-30)"/></g></g><g id="TV"><g id="layer1"><path id="path7416" class="cls-2" d="M12.9,0A13.63,13.63,0,0,0,0,14.34a13.46,13.46,0,0,0,5.7,10.4l208.1,156.2a81.7,81.7,0,0,0-8.1,23.8H81.9c-28.4,0-49.8,3-64.3,17.5S.1,258.14.1,286.54v681c0,28.4,3,49.3,17.5,63.8s35.9,17.9,64.3,17.9h953.4c28.4,0,49.8-3.4,64.3-17.9a49.05,49.05,0,0,0,11.9-18.7c4.4-12.2,5.5-27.4,5.5-45.1v-681c0-7.1-.3-13.8-.9-20-1-12.4-3-22.9-7.7-31.9a48.9,48.9,0,0,0-8.9-12.3c-14.5-14.5-35.9-17.5-64.3-17.5H366.6a80.7,80.7,0,0,0-8.1-23.8L566.6,24.84a13.64,13.64,0,0,0-9-24.7,13.28,13.28,0,0,0-7.2,3L341.8,159.34c-14.6-13.7-34.2-22.6-55.8-22.6a81.76,81.76,0,0,0-56.2,22.6L21.9,3A14,14,0,0,0,12.9,0Zm273.3,163.9c25.4,0,46.2,17.5,52.4,40.9H233.8C240,181.34,260.8,163.94,286.2,163.94ZM81.9,232H215.6a12.75,12.75,0,0,0,5.5,0H351.8a12.75,12.75,0,0,0,5.5,0h678c26.1,0,38.8,3.4,44.7,9.4s9.8,19,9.8,45.1v681c0,26.1-3.9,38.8-9.8,44.7s-18.6,9.8-44.7,9.8H81.9c-13.1,0-22.6-.8-29.8-2.6a43.87,43.87,0,0,1-8.9-3,23.72,23.72,0,0,1-6-4.3c-5.9-5.9-9.8-18.6-9.8-44.7v-681a166.37,166.37,0,0,1,.9-17c1.4-15,4.5-23.6,8.9-28.1,3-3,7.7-5.2,14.9-6.8a95.22,95.22,0,0,1,12.8-1.7C69.8,232.44,75.4,232,81.9,232Zm-2.6,40.8a13.64,13.64,0,0,0-11.1,13.6v681A13.61,13.61,0,0,0,81.8,981H899a13.61,13.61,0,0,0,13.6-13.6v-681a13.61,13.61,0,0,0-13.6-13.6H79.3Zm16.2,27.3h790v653.8H95.5ZM964.6,409a13.66,13.66,0,1,0,2.6,27.2h68.1a13.6,13.6,0,1,0,.4-27.2H964.6Zm0,68.1a13.66,13.66,0,1,0,2.6,27.2h68.1a13.6,13.6,0,1,0,.4-27.2H964.6Zm0,68.1a13.66,13.66,0,1,0,2.6,27.2h68.1a13.6,13.6,0,1,0,.4-27.2H964.6Zm36.6,81.8a34.1,34.1,0,1,0,34.1,34.1A34.34,34.34,0,0,0,1001.2,627Zm0,27.2a6.8,6.8,0,1,1-6.8,6.8A6.62,6.62,0,0,1,1001.2,654.24Zm0,95.3a47.7,47.7,0,1,0,47.7,47.7A47.89,47.89,0,0,0,1001.2,749.54Zm0,27.3a20.4,20.4,0,1,1-20.4,20.4A20.23,20.23,0,0,1,1001.2,776.84Zm0,108.9a47.7,47.7,0,1,0,47.7,47.7A47.89,47.89,0,0,0,1001.2,885.74Zm0,27.3a20.4,20.4,0,1,1-20.4,20.4A20.23,20.23,0,0,1,1001.2,913Z"/></g></g><g id="Robot"><g id="Bot_33" data-name="Bot 33"><path class="cls-1" d="M481.1,754.4A12.1,12.1,0,1,0,469,766.5,12,12,0,0,0,481.1,754.4Zm-19.3,0a7.3,7.3,0,1,1,7.3,7.3A7.15,7.15,0,0,1,461.8,754.4Z"/><path class="cls-1" d="M527.1,766.5A12.1,12.1,0,1,0,515,754.4,12,12,0,0,0,527.1,766.5Zm0-19.4a7.3,7.3,0,1,1-7.3,7.3A7.15,7.15,0,0,1,527.1,747.1Z"/><path class="cls-1" d="M557.3,773.7h-4.1a10.27,10.27,0,0,0,.5-2.4V739.9a7.15,7.15,0,0,0-7.3-7.3H449.6a7.15,7.15,0,0,0-7.3,7.3v31.4a6.87,6.87,0,0,0,.5,2.4h-4.1a13.58,13.58,0,0,0-14,12.6,13.42,13.42,0,0,0,12.8,14v28.3a17,17,0,0,0-8,22.5,18.21,18.21,0,0,0,5.1,6.3,4.85,4.85,0,0,0,2.9,1,5.85,5.85,0,0,0,2.2-.5,4.57,4.57,0,0,0,2.7-4.4v-9.7a2.12,2.12,0,0,1,1.2-1.9,1.91,1.91,0,0,1,1-.5,2.19,2.19,0,0,1,1.7.7,2.28,2.28,0,0,1,1,1.9v9.4a4.77,4.77,0,0,0,2.7,4.4,4.44,4.44,0,0,0,4.8-.5,17,17,0,0,0,3.6-23.7,18.81,18.81,0,0,0-6.3-5.3V800.2h9.7a36,36,0,0,0,4.8,15.7v42.6a18.63,18.63,0,0,0-9.4,13.5,5.14,5.14,0,0,0,1,3.9,4.44,4.44,0,0,0,3.6,1.7h28.5a4.46,4.46,0,0,0,3.6-1.7,5.23,5.23,0,0,0,1.2-3.9,19.19,19.19,0,0,0-9.4-13.5V832a37.16,37.16,0,0,0,24.2,0v26.6a18.63,18.63,0,0,0-9.4,13.5,4.53,4.53,0,0,0,1.2,3.9,4.44,4.44,0,0,0,3.6,1.7h28.5a4.46,4.46,0,0,0,3.6-1.7,5.23,5.23,0,0,0,1.2-3.9,19.19,19.19,0,0,0-9.4-13.5V816a35.1,35.1,0,0,0,4.8-15.7h9.7v28.3a16.83,16.83,0,0,0-8,22.5,18.21,18.21,0,0,0,5.1,6.3,4.93,4.93,0,0,0,4.8.5,5.07,5.07,0,0,0,2.9-4.4v-9.4a2.78,2.78,0,0,1,1-2.2,2.19,2.19,0,0,1,1.7-.7c.5,0,.7.2,1.2.5a2.53,2.53,0,0,1,1.2,1.9v9.7a4.77,4.77,0,0,0,2.7,4.4,8.73,8.73,0,0,0,2.2.5,4.27,4.27,0,0,0,2.9-1,17,17,0,0,0,3.4-23.7,18.21,18.21,0,0,0-6.3-5.1V800.3a13.07,13.07,0,0,0,12.6-14A13.21,13.21,0,0,0,557.3,773.7Zm-110-2.4V739.9a2.26,2.26,0,0,1,2.4-2.4h96.8a2.26,2.26,0,0,1,2.4,2.4v31.4a2.26,2.26,0,0,1-2.4,2.4H449.7A2.21,2.21,0,0,1,447.3,771.3Zm9.6,72.6a11.71,11.71,0,0,1-4.8,9.7v-9.4a8.21,8.21,0,0,0-2.4-5.6,7.21,7.21,0,0,0-12.1,5.4v9.7a12,12,0,0,1-2.4-16.9,11.88,11.88,0,0,1,5.6-4.1h.2a3.23,3.23,0,0,1,1.2-.2l.7-.2a5.55,5.55,0,0,1,1.9-.2,9.69,9.69,0,0,1,3.9.7h.2A11.32,11.32,0,0,1,456.9,843.9Zm-9.6-16.7a8.2,8.2,0,0,0-2.2-.2h0a8.2,8.2,0,0,0-2.2.2h-.5V800.4h4.8v26.8Zm-8.5-31.7a8.5,8.5,0,1,1,0-17h23v16.9l-23,.1Zm37,31.2.7.5c.5.5,1.2.7,1.7,1.2l1,.5,1.7,1,.5.2v26.6h-.5l-1-.2a9.68,9.68,0,0,1-1.2-.2H474l-1.2.2-1,.2h-.5V822.8l.2.2,1.7,1.7.2.2A15,15,0,0,1,475.8,826.7Zm14.8,46.2H462A14.26,14.26,0,0,1,478.7,861a14.6,14.6,0,0,1,3.4,1l.5.2A15,15,0,0,1,490.6,872.9Zm-6.1-46.4a21.4,21.4,0,0,1-2.2-1,32.11,32.11,0,0,1-15.7-27.6V778.5h62.9v19.4a31.33,31.33,0,0,1-31.4,31.4,32.52,32.52,0,0,1-13.6-2.8Zm40.2-3.9v33.9h-.5l-1-.2a9.68,9.68,0,0,1-1.2-.2h-4.4l-1.2.2-1,.2H515V829.9l.5-.2,1.5-1,1-.5c.5-.5,1.2-.7,1.7-1.2l.7-.5a18.62,18.62,0,0,0,2.2-1.9l.5-.2a8.27,8.27,0,0,1,1.6-1.8Zm9.4,50.3H505.6A14.26,14.26,0,0,1,522.3,861a14.6,14.6,0,0,1,3.4,1l.5.2A14.83,14.83,0,0,1,534.1,872.9Zm19.6-45.7c-.7,0-1.7-.2-2.4-.2h0a8.2,8.2,0,0,0-2.2.2h-.2V800.4h4.8v26.8Zm9.7,16.7a11.71,11.71,0,0,1-4.8,9.7v-9.7a7.25,7.25,0,0,0-6.8-7.3,7.39,7.39,0,0,0-5.3,1.9,7.79,7.79,0,0,0-2.4,5.6v9.4a12,12,0,0,1-2.4-16.9,11.12,11.12,0,0,1,5.3-4.1h.2a11.77,11.77,0,0,1,8,0h0A12,12,0,0,1,563.4,843.9Zm-6.1-48.4h-23V778.6h23a8.45,8.45,0,1,1,0,16.9Z"/></g></g><g id="Layer_8" data-name="Layer 8"><path d="M490.6,522.65l-3.29-2c-2.64-1.84-66.23-43.85-66.23-81.77,0-27,19.22-41.08,38.05-41.08a40.63,40.63,0,0,1,31.47,15.28,40.63,40.63,0,0,1,31.47-15.28c18.83,0,38,14.09,38,41.08,0,37.92-63.59,79.93-66.23,81.77Z"/></g><g id="Dots"><g id="Dots-2" data-name="Dots"><circle class="cls-1" cx="413.7" cy="711.5" r="2.3"/><circle class="cls-1" cx="420.4" cy="716.8" r="2.3"/><circle class="cls-1" cx="427.3" cy="722.3" r="2.3"/><circle class="cls-1" cx="433.6" cy="727.3" r="2.3"/></g></g></g><g id="Layer_2" data-name="Layer 2"><path class="cls-1" d="M213.09,559.54h-3.23V573h-4.55V559.54h-3.2v-3.25h11Z"/><path class="cls-1" d="M221.43,560c2.47,0,3.46,1.27,3.46,3.22V573h-4.42v-9.15c0-.39-.21-.57-.65-.57h-.44c-.47,0-.7.23-.7.78V573h-4.42V555.59h4.42v5.82A2.16,2.16,0,0,1,221,560Z"/><path class="cls-1" d="M233.7,560c2.79,0,3.7,1.27,3.7,3.22v6.53c0,2-.91,3.22-3.7,3.22h-3.3c-2.78,0-3.69-1.27-3.69-3.22v-6.53c0-2,.91-3.22,3.69-3.22Zm-.65,3.64c0-.39-.2-.57-.65-.57h-.7c-.44,0-.65.18-.65.57v5.69c0,.39.21.58.65.58h.7c.45,0,.65-.19.65-.58Z"/><path class="cls-1" d="M252.74,560c2.47,0,3.45,1.27,3.45,3.22V573h-4.42v-9.15c0-.39-.2-.57-.65-.57h-.44c-.47,0-.7.23-.7.78V573h-4.42v-9.15c0-.39-.21-.57-.65-.57h-.44c-.47,0-.7.23-.7.78V573h-4.42V560h4.34v1.66a2.13,2.13,0,0,1,2.36-1.66h.47c1.72,0,2.71.62,3.17,1.64a2.51,2.51,0,0,1,2.58-1.64Z"/><path class="cls-1" d="M268.52,560v13H264.1v-1.4a2.18,2.18,0,0,1-2.29,1.4h-.47c-2.47,0-3.46-1.27-3.46-3.22v-6.53c0-2,1-3.22,3.46-3.22h.47a2.14,2.14,0,0,1,2.37,1.66V560Zm-5.12,9.72c.46,0,.7-.23.7-.78V564c0-.55-.24-.78-.7-.78H263c-.44,0-.65.18-.65.57v5.33c0,.39.21.57.65.57Z"/><path class="cls-1" d="M276.19,568.51c0-.39-.21-.57-.65-.57H274c-2.78,0-3.74-1.25-3.74-3.2v-1.51c0-2,1-3.22,3.82-3.22h2.42c2.78,0,3.82,1.27,3.82,3.22v1.1h-4.21v-.89c0-.39-.21-.57-.65-.57h-.26c-.44,0-.65.18-.65.57v1.14c0,.39.21.58.65.58h1.58c2.79,0,3.75,1.22,3.75,3.17v1.43c0,2-1,3.22-3.83,3.22h-2.54c-2.79,0-3.83-1.27-3.83-3.22v-1.07h4.29v.86c0,.39.21.57.65.57h.32c.44,0,.65-.18.65-.57Z"/><path class="cls-1" d="M297.61,569.73V573H287.37V556.29h10v3.25h-5.46V563h4.7v3.25h-4.7v3.53Z"/><path class="cls-1" d="M309.41,555.59V573h-4.34v-1.66a2.13,2.13,0,0,1-2.36,1.66h-.47c-2.47,0-3.46-1.27-3.46-3.22v-6.53c0-2,1-3.22,3.46-3.22h.47a2.16,2.16,0,0,1,2.28,1.4v-5.82Zm-5.12,14.14c.47,0,.7-.23.7-.78V564c0-.55-.23-.78-.7-.78h-.44c-.44,0-.65.18-.65.57v5.33c0,.39.21.57.65.57Z"/><path class="cls-1" d="M311.42,555.59H316v3.12h-4.57Zm.07,17.39V560h4.42v13Z"/><path class="cls-1" d="M323.58,568.51c0-.39-.2-.57-.65-.57h-1.58c-2.78,0-3.75-1.25-3.75-3.2v-1.51c0-2,1-3.22,3.83-3.22h2.41c2.79,0,3.83,1.27,3.83,3.22v1.1h-4.22v-.89c0-.39-.2-.57-.65-.57h-.26c-.44,0-.65.18-.65.57v1.14c0,.39.21.58.65.58h1.59c2.78,0,3.74,1.22,3.74,3.17v1.43c0,2-1,3.22-3.82,3.22H321.5c-2.78,0-3.82-1.27-3.82-3.22v-1.07H322v.86c0,.39.21.57.65.57h.31c.45,0,.65-.18.65-.57Z"/><path class="cls-1" d="M336.43,560c2.78,0,3.69,1.27,3.69,3.22v6.53c0,2-.91,3.22-3.69,3.22h-3.3c-2.79,0-3.7-1.27-3.7-3.22v-6.53c0-2,.91-3.22,3.7-3.22Zm-.65,3.64c0-.39-.21-.57-.65-.57h-.7c-.45,0-.65.18-.65.57v5.69c0,.39.2.58.65.58h.7c.44,0,.65-.19.65-.58Z"/><path class="cls-1" d="M349.25,560c2.47,0,3.45,1.27,3.45,3.22V573h-4.42v-9.15c0-.39-.2-.57-.65-.57h-.44c-.47,0-.7.23-.7.78V573h-4.42V560h4.34v1.66a2.14,2.14,0,0,1,2.37-1.66Z"/><path class="cls-1" d="M366.72,560c2.78,0,3.69,1.27,3.69,3.22v6.53c0,2-.91,3.22-3.69,3.22h-3.3c-2.79,0-3.7-1.27-3.7-3.22v-6.53c0-2,.91-3.22,3.7-3.22Zm-.65,3.64c0-.39-.21-.57-.65-.57h-.7c-.45,0-.65.18-.65.57v5.69c0,.39.2.58.65.58h.7c.44,0,.65-.19.65-.58Z"/><path class="cls-1" d="M379.54,560c2.47,0,3.45,1.27,3.45,3.22V573h-4.42v-9.15c0-.39-.2-.57-.65-.57h-.44c-.47,0-.7.23-.7.78V573h-4.42V560h4.34v1.66a2.14,2.14,0,0,1,2.37-1.66Z"/><path class="cls-1" d="M390.84,565v-1.2c0-.39-.2-.57-.65-.57h-.44c-.44,0-.65.18-.65.57v5.33c0,.39.21.57.65.57h.44c.45,0,.65-.18.65-.57V568h4.27v1.8c0,2-1,3.22-3.82,3.22H388.5c-2.78,0-3.82-1.27-3.82-3.22v-6.53c0-2,1-3.22,3.82-3.22h2.79c2.78,0,3.82,1.27,3.82,3.22V565Z"/><path class="cls-1" d="M403.4,560c2.78,0,3.82,1.27,3.82,3.22v4.42h-6.63v1.72c0,.39.21.57.65.57h1.15a.57.57,0,0,0,.65-.62v-.73h4.18v1.17c0,2-1,3.22-3.82,3.22h-3.17c-2.78,0-3.82-1.27-3.82-3.22v-6.53c0-2,1-3.22,3.82-3.22Zm-.36,5.25v-1.64c0-.39-.21-.57-.65-.57h-1.15c-.44,0-.65.18-.65.57v1.64Z"/><path class="cls-1" d="M419.7,568.51c0-.39-.2-.57-.65-.57h-1.58c-2.78,0-3.75-1.25-3.75-3.2v-1.51c0-2,1-3.22,3.83-3.22H420c2.79,0,3.83,1.27,3.83,3.22v1.1h-4.22v-.89c0-.39-.2-.57-.65-.57h-.26c-.44,0-.65.18-.65.57v1.14c0,.39.21.58.65.58h1.59c2.78,0,3.74,1.22,3.74,3.17v1.43c0,2-1,3.22-3.82,3.22h-2.55c-2.78,0-3.82-1.27-3.82-3.22v-1.07h4.29v.86c0,.39.21.57.65.57h.31c.45,0,.65-.18.65-.57Z"/><path class="cls-1" d="M436.06,560v13h-4.42v-1.4a2.18,2.18,0,0,1-2.29,1.4h-.47c-2.47,0-3.46-1.27-3.46-3.22v-6.53c0-2,1-3.22,3.46-3.22h.47a2.14,2.14,0,0,1,2.37,1.66V560Zm-5.12,9.72c.46,0,.7-.23.7-.78V564c0-.55-.24-.78-.7-.78h-.45c-.44,0-.65.18-.65.57v5.33c0,.39.21.57.65.57Z"/><path class="cls-1" d="M438.06,555.59h4.58v3.12h-4.58Zm.08,17.39V560h4.42v13Z"/><path class="cls-1" d="M455,555.59V573h-4.34v-1.66A2.13,2.13,0,0,1,448.3,573h-.46c-2.47,0-3.46-1.27-3.46-3.22v-6.53c0-2,1-3.22,3.46-3.22h.46a2.17,2.17,0,0,1,2.29,1.4v-5.82Zm-5.12,14.14c.47,0,.7-.23.7-.78V564c0-.55-.23-.78-.7-.78h-.44c-.44,0-.65.18-.65.57v5.33c0,.39.21.57.65.57Z"/><path class="cls-1" d="M457.09,560h4.47v4.26h-4.47Zm0,8.71h4.47V573h-4.47Z"/><path class="cls-1" d="M472.82,556.29v6.92h-4v-6.92Zm5.23,0v6.92h-4v-6.92Z"/><path class="cls-1" d="M484.68,556.29V573h-4.55V556.29Z"/><path class="cls-1" d="M499.13,560c2.47,0,3.46,1.27,3.46,3.22V573h-4.42v-9.15c0-.39-.21-.57-.65-.57h-.44c-.47,0-.7.23-.7.78V573H492V555.59h4.42v5.82a2.17,2.17,0,0,1,2.29-1.4Z"/><path class="cls-1" d="M514.91,560v13h-4.42v-1.4a2.16,2.16,0,0,1-2.28,1.4h-.47c-2.47,0-3.46-1.27-3.46-3.22v-6.53c0-2,1-3.22,3.46-3.22h.47a2.13,2.13,0,0,1,2.36,1.66V560Zm-5.12,9.72c.47,0,.7-.23.7-.78V564c0-.55-.23-.78-.7-.78h-.44c-.44,0-.65.18-.65.57v5.33c0,.39.21.57.65.57Z"/><path class="cls-1" d="M521.93,568.33l1.56-8.32h4.4l-3.33,13h-5.28L516,560h4.4Z"/><path class="cls-1" d="M535.66,560c2.78,0,3.82,1.27,3.82,3.22v4.42h-6.63v1.72c0,.39.21.57.65.57h1.15a.57.57,0,0,0,.65-.62v-.73h4.18v1.17c0,2-1,3.22-3.82,3.22h-3.17c-2.78,0-3.82-1.27-3.82-3.22v-6.53c0-2,1-3.22,3.82-3.22Zm-.36,5.25v-1.64c0-.39-.21-.57-.65-.57H533.5c-.44,0-.65.18-.65.57v1.64Z"/><path class="cls-1" d="M553.55,560c2.47,0,3.46,1.27,3.46,3.22V573h-4.42v-9.15c0-.39-.21-.57-.65-.57h-.44c-.47,0-.71.23-.71.78V573h-4.42V560h4.35v1.66a2.13,2.13,0,0,1,2.36-1.66Z"/><path class="cls-1" d="M565.82,560c2.78,0,3.69,1.27,3.69,3.22v6.53c0,2-.91,3.22-3.69,3.22h-3.3c-2.78,0-3.69-1.27-3.69-3.22v-6.53c0-2,.91-3.22,3.69-3.22Zm-.65,3.64c0-.39-.21-.57-.65-.57h-.7c-.44,0-.65.18-.65.57v5.69c0,.39.21.58.65.58h.7c.44,0,.65-.19.65-.58Z"/><path class="cls-1" d="M576.4,563.26v5.9c0,.39.21.57.65.57h1V573H575.8c-2.78,0-3.82-1.27-3.82-3.22v-6.5h-1.43V560H572v-2.55h4.42V560H578v3.25Z"/><path class="cls-1" d="M590.16,558.71c-.45,0-.65.18-.65.57V560h2v3.25h-2V573h-4.42v-9.72h-1.33V560h1.33v-1.2c0-1.95,1-3.22,3.82-3.22h2.63v3.12Z"/><path class="cls-1" d="M603.08,560v13h-4.42v-1.4a2.18,2.18,0,0,1-2.29,1.4h-.47c-2.47,0-3.45-1.27-3.45-3.22v-6.53c0-2,1-3.22,3.45-3.22h.47a2.14,2.14,0,0,1,2.37,1.66V560ZM598,569.73c.47,0,.7-.23.7-.78V564c0-.55-.23-.78-.7-.78h-.44c-.45,0-.65.18-.65.57v5.33c0,.39.2.57.65.57Z"/><path class="cls-1" d="M605.08,555.59h4.58v3.12h-4.58Zm.08,17.39V560h4.42v13Z"/><path class="cls-1" d="M611.66,573V555.59h4.42V573Z"/><path class="cls-1" d="M624.89,560c2.78,0,3.82,1.27,3.82,3.22v4.42h-6.63v1.72c0,.39.21.57.65.57h1.15a.57.57,0,0,0,.65-.62v-.73h4.18v1.17c0,2-1,3.22-3.82,3.22h-3.17c-2.78,0-3.82-1.27-3.82-3.22v-6.53c0-2,1-3.22,3.82-3.22Zm-.36,5.25v-1.64c0-.39-.21-.57-.65-.57h-1.15c-.44,0-.65.18-.65.57v1.64Z"/><path class="cls-1" d="M640.78,555.59V573h-4.34v-1.66a2.14,2.14,0,0,1-2.37,1.66h-.47c-2.47,0-3.46-1.27-3.46-3.22v-6.53c0-2,1-3.22,3.46-3.22h.47a2.18,2.18,0,0,1,2.29,1.4v-5.82Zm-5.12,14.14c.46,0,.7-.23.7-.78V564c0-.55-.24-.78-.7-.78h-.45c-.44,0-.65.18-.65.57v5.33c0,.39.21.57.65.57Z"/><path class="cls-1" d="M642.86,568.72h4.47V573h-4.47Z"/><path class="cls-1" d="M659.16,556.29V573h-4.55V556.29Z"/><path class="cls-1" d="M665.48,556.29v6.92h-4.24v-6.92Z"/><path class="cls-1" d="M672.5,568.33l1.56-8.32h4.39l-3.33,13h-5.27l-3.33-13h4.39Z"/><path class="cls-1" d="M686.23,560c2.78,0,3.82,1.27,3.82,3.22v4.42h-6.63v1.72c0,.39.2.57.65.57h1.14a.57.57,0,0,0,.65-.62v-.73h4.19v1.17c0,2-1,3.22-3.82,3.22h-3.18c-2.78,0-3.82-1.27-3.82-3.22v-6.53c0-2,1-3.22,3.82-3.22Zm-.37,5.25v-1.64c0-.39-.21-.57-.65-.57h-1.14c-.45,0-.65.18-.65.57v1.64Z"/><path class="cls-1" d="M696.94,560h4.42v13.1c0,1.95-1,3.23-3.82,3.23h-2.11v-3.12h.86c.44,0,.65-.18.65-.57Zm-.08-4.42h4.58v3.12h-4.58Z"/><path class="cls-1" d="M713.94,560v13H709.6v-1.66a2.13,2.13,0,0,1-2.37,1.66h-.46c-2.47,0-3.46-1.27-3.46-3.22V560h4.42v9.15c0,.39.21.57.65.57h.44c.47,0,.7-.23.7-.78V560Z"/><path class="cls-1" d="M721.61,568.51c0-.39-.21-.57-.65-.57h-1.58c-2.79,0-3.75-1.25-3.75-3.2v-1.51c0-2,1-3.22,3.82-3.22h2.42c2.78,0,3.82,1.27,3.82,3.22v1.1h-4.21v-.89c0-.39-.21-.57-.65-.57h-.26c-.44,0-.65.18-.65.57v1.14c0,.39.21.58.65.58h1.59c2.78,0,3.74,1.22,3.74,3.17v1.43c0,2-1,3.22-3.82,3.22h-2.55c-2.78,0-3.82-1.27-3.82-3.22v-1.07H720v.86c0,.39.21.57.65.57H721c.44,0,.65-.18.65-.57Z"/><path class="cls-1" d="M732.53,563.26v5.9c0,.39.21.57.65.57h1V573h-2.21c-2.78,0-3.82-1.27-3.82-3.22v-6.5h-1.43V560h1.43v-2.55h4.42V560h1.64v3.25Z"/><path class="cls-1" d="M208.64,589.91c-.44,0-.65.18-.65.57v.73h2v3.25h-2v9.72h-4.42v-9.72h-1.33v-3.25h1.33V590c0-2,1-3.22,3.82-3.22H210v3.12Z"/><path class="cls-1" d="M218.05,591.21c2.78,0,3.69,1.27,3.69,3.22V601c0,1.95-.91,3.22-3.69,3.22h-3.3c-2.78,0-3.69-1.27-3.69-3.22v-6.53c0-1.95.91-3.22,3.69-3.22Zm-.65,3.64c0-.39-.21-.57-.65-.57h-.7c-.44,0-.65.18-.65.57v5.69c0,.39.21.58.65.58h.7c.44,0,.65-.19.65-.58Z"/><path class="cls-1" d="M234.2,591.21v13h-4.34v-1.66a2.14,2.14,0,0,1-2.37,1.66H227c-2.47,0-3.46-1.27-3.46-3.22v-9.75H228v9.15c0,.39.21.57.65.57h.45c.46,0,.7-.23.7-.78v-8.94Z"/><path class="cls-1" d="M243.45,591.21c2.47,0,3.46,1.27,3.46,3.22v9.75h-4.42V595c0-.39-.21-.57-.65-.57h-.44c-.47,0-.7.23-.7.78v8.94h-4.42v-13h4.34v1.66a2.13,2.13,0,0,1,2.37-1.66Z"/><path class="cls-1" d="M259.24,586.79v17.39h-4.35v-1.66a2.13,2.13,0,0,1-2.36,1.66h-.47c-2.47,0-3.46-1.27-3.46-3.22v-6.53c0-1.95,1-3.22,3.46-3.22h.47a2.19,2.19,0,0,1,2.29,1.4v-5.82Zm-5.13,14.14c.47,0,.71-.23.71-.78v-4.91c0-.55-.24-.78-.71-.78h-.44c-.44,0-.65.18-.65.57v5.33c0,.39.21.57.65.57Z"/><path class="cls-1" d="M272.83,604.18h-4.55V590.74h-2.34v-3.25h6.89Z"/><path class="cls-1" d="M285.94,601c0,1.95-1,3.22-3.83,3.22h-3.45c-2.79,0-3.83-1.27-3.83-3.22V590.71c0-2,1-3.22,3.83-3.22h3.45c2.79,0,3.83,1.27,3.83,3.22Zm-4.55-9.65c0-.39-.21-.57-.65-.57H280c-.44,0-.65.18-.65.57v9.05c0,.39.21.57.65.57h.71c.44,0,.65-.18.65-.57Z"/><path class="cls-1" d="M292.41,599.92v2.34l-3.12,5.8h-1.35v-8.14Z"/><path class="cls-1" d="M305.51,601c0,1.95-1,3.22-3.82,3.22h-3.46c-2.78,0-3.82-1.27-3.82-3.22V590.71c0-2,1-3.22,3.82-3.22h3.46c2.78,0,3.82,1.27,3.82,3.22ZM301,591.31c0-.39-.2-.57-.65-.57h-.7c-.44,0-.65.18-.65.57v9.05c0,.39.21.57.65.57h.7c.45,0,.65-.18.65-.57Z"/><path class="cls-1" d="M318.54,601c0,1.95-1,3.22-3.82,3.22h-3.46c-2.78,0-3.82-1.27-3.82-3.22V590.71c0-2,1-3.22,3.82-3.22h3.46c2.78,0,3.82,1.27,3.82,3.22ZM314,591.31c0-.39-.21-.57-.65-.57h-.7c-.44,0-.65.18-.65.57v9.05c0,.39.21.57.65.57h.7c.44,0,.65-.18.65-.57Z"/><path class="cls-1" d="M331.57,601c0,1.95-1,3.22-3.83,3.22h-3.45c-2.79,0-3.83-1.27-3.83-3.22V590.71c0-2,1-3.22,3.83-3.22h3.45c2.79,0,3.83,1.27,3.83,3.22ZM327,591.31c0-.39-.21-.57-.65-.57h-.71c-.44,0-.65.18-.65.57v9.05c0,.39.21.57.65.57h.71c.44,0,.65-.18.65-.57Z"/><path class="cls-1" d="M355.25,591.21l-2.78,13h-4.39l-1.59-7.64-1.61,7.64h-4.4l-2.62-13H342l1,8.19,1.69-8.19h3.87l1.51,8.14,1.2-8.14Z"/><path class="cls-1" d="M366.8,591.21v13h-4.42v-1.4a2.19,2.19,0,0,1-2.29,1.4h-.47c-2.47,0-3.46-1.27-3.46-3.22v-6.53c0-1.95,1-3.22,3.46-3.22h.47a2.13,2.13,0,0,1,2.36,1.66v-1.66Zm-5.13,9.72c.47,0,.71-.23.71-.78v-4.91c0-.55-.24-.78-.71-.78h-.44c-.44,0-.65.18-.65.57v5.33c0,.39.21.57.65.57Z"/><path class="cls-1" d="M372.46,591.21l1.59,7.9,1.4-7.9h4.45l-3.25,12.71c-.68,2.27-1.95,3.62-4.91,3.62h-2.19v-3.2h1.93a1.37,1.37,0,0,0,1.56-1l0-.16H371.4l-3.57-11.93Z"/><path class="cls-1" d="M386.53,599.71c0-.39-.21-.57-.65-.57h-1.59c-2.78,0-3.74-1.25-3.74-3.2v-1.51c0-1.95,1-3.22,3.82-3.22h2.42c2.78,0,3.82,1.27,3.82,3.22v1.1H386.4v-.89c0-.39-.21-.57-.65-.57h-.26c-.44,0-.65.18-.65.57v1.15c0,.39.21.57.65.57h1.59c2.78,0,3.74,1.22,3.74,3.17V601c0,1.95-1,3.22-3.82,3.22h-2.55c-2.78,0-3.82-1.27-3.82-3.22v-1.07h4.29v.86c0,.39.2.57.65.57h.31c.44,0,.65-.18.65-.57Z"/><path class="cls-1" d="M402.65,594.46v5.9c0,.39.21.57.65.57h1v3.25h-2.21c-2.78,0-3.82-1.27-3.82-3.22v-6.5H396.8v-3.25h1.43v-2.55h4.42v2.55h1.64v3.25Z"/><path class="cls-1" d="M412.76,591.21c2.47,0,3.46,1.27,3.46,3.22v9.75H411.8V595c0-.39-.21-.57-.65-.57h-.44c-.47,0-.7.23-.7.78v8.94h-4.42V586.79H410v5.82a2.16,2.16,0,0,1,2.28-1.4Z"/><path class="cls-1" d="M428.54,591.21v13h-4.42v-1.4a2.16,2.16,0,0,1-2.28,1.4h-.47c-2.47,0-3.46-1.27-3.46-3.22v-6.53c0-1.95,1-3.22,3.46-3.22h.47a2.13,2.13,0,0,1,2.36,1.66v-1.66Zm-5.12,9.72c.47,0,.7-.23.7-.78v-4.91c0-.55-.23-.78-.7-.78H423c-.44,0-.65.18-.65.57v5.33c0,.39.21.57.65.57Z"/><path class="cls-1" d="M435.56,594.46v5.9c0,.39.21.57.65.57h1v3.25H435c-2.79,0-3.83-1.27-3.83-3.22v-6.5h-1.43v-3.25h1.43v-2.55h4.42v2.55h1.64v3.25Z"/><path class="cls-1" d="M460.19,591.21l-2.79,13H453l-1.59-7.64-1.61,7.64h-4.39l-2.63-13h4.11l1,8.19,1.69-8.19h3.88l1.5,8.14,1.2-8.14Z"/><path class="cls-1" d="M468.22,591.21c2.78,0,3.69,1.27,3.69,3.22V601c0,1.95-.91,3.22-3.69,3.22h-3.3c-2.78,0-3.69-1.27-3.69-3.22v-6.53c0-1.95.91-3.22,3.69-3.22Zm-.65,3.64c0-.39-.21-.57-.65-.57h-.7c-.44,0-.65.18-.65.57v5.69c0,.39.21.58.65.58h.7c.44,0,.65-.19.65-.58Z"/><path class="cls-1" d="M481,591.21c2.47,0,3.46,1.27,3.46,3.22v9.75h-4.42V595c0-.39-.21-.57-.66-.57H479c-.46,0-.7.23-.7.78v8.94h-4.42v-13h4.34v1.66a2.14,2.14,0,0,1,2.37-1.66Z"/><path class="cls-1" d="M490.68,587.49v6.92h-4.24v-6.92Z"/><path class="cls-1" d="M497.7,594.46v5.9c0,.39.21.57.65.57h1v3.25H497.1c-2.78,0-3.82-1.27-3.82-3.22v-6.5h-1.43v-3.25h1.43v-2.55h4.42v2.55h1.64v3.25Z"/><path class="cls-1" d="M522.33,591.21l-2.79,13h-4.39l-1.59-7.64L512,604.18h-4.39l-2.63-13H509l1,8.19,1.69-8.19h3.88l1.5,8.14,1.2-8.14Z"/><path class="cls-1" d="M530.36,591.21c2.78,0,3.69,1.27,3.69,3.22V601c0,1.95-.91,3.22-3.69,3.22h-3.3c-2.79,0-3.7-1.27-3.7-3.22v-6.53c0-1.95.91-3.22,3.7-3.22Zm-.65,3.64c0-.39-.21-.57-.65-.57h-.7c-.45,0-.65.18-.65.57v5.69c0,.39.2.58.65.58h.7c.44,0,.65-.19.65-.58Z"/><path class="cls-1" d="M543.54,591.08v3.85h-1.48c-1.07,0-1.64.62-1.64,1.77v7.48H536v-13h4.34v2a2.65,2.65,0,0,1,2.81-2.13Z"/><path class="cls-1" d="M553.37,597.61l2.78,6.57h-4.6l-2.42-6.06v6.06h-4.42V586.79h4.42v10.32l2.44-5.9h4.58Z"/><path class="cls-1" d="M557.06,599.92h4.47v4.26h-4.47Z"/><path class="cls-1" d="M567.59,587.49v6.92h-4v-6.92Zm5.23,0v6.92h-4v-6.92Z"/><path class="cls-1" d="M605.73,587.49l-3.53,16.69H597l-1.85-9.95-1.84,9.95h-5.23l-3.54-16.69h4.74l1.4,11.23,2.24-11.23h4.44l2.24,11.23,1.66-11.23Z"/><path class="cls-1" d="M613.77,591.21c2.78,0,3.82,1.27,3.82,3.22v4.42H611v1.72c0,.39.21.57.65.57h1.14a.57.57,0,0,0,.65-.62v-.73h4.19V601c0,1.95-1,3.22-3.82,3.22h-3.18c-2.78,0-3.82-1.27-3.82-3.22v-6.53c0-1.95,1-3.22,3.82-3.22Zm-.37,5.25v-1.64c0-.39-.21-.57-.65-.57h-1.14c-.44,0-.65.18-.65.57v1.64Z"/><path class="cls-1" d="M631.65,591.21c2.47,0,3.46,1.27,3.46,3.22v9.75h-4.42V595c0-.39-.21-.57-.65-.57h-.44c-.47,0-.7.23-.7.78v8.94h-4.42V586.79h4.42v5.82a2.16,2.16,0,0,1,2.28-1.4Z"/><path class="cls-1" d="M647.43,591.21v13H643v-1.4a2.16,2.16,0,0,1-2.28,1.4h-.47c-2.47,0-3.46-1.27-3.46-3.22v-6.53c0-1.95,1-3.22,3.46-3.22h.47a2.13,2.13,0,0,1,2.36,1.66v-1.66Zm-5.12,9.72c.47,0,.7-.23.7-.78v-4.91c0-.55-.23-.78-.7-.78h-.44c-.44,0-.65.18-.65.57v5.33c0,.39.21.57.65.57Z"/><path class="cls-1" d="M654.45,599.53l1.56-8.32h4.4l-3.33,13H651.8l-3.33-13h4.4Z"/><path class="cls-1" d="M668.18,591.21c2.78,0,3.82,1.27,3.82,3.22v4.42h-6.63v1.72c0,.39.21.57.65.57h1.15a.57.57,0,0,0,.65-.62v-.73H672V601c0,1.95-1,3.22-3.82,3.22H665c-2.78,0-3.82-1.27-3.82-3.22v-6.53c0-1.95,1-3.22,3.82-3.22Zm-.36,5.25v-1.64c0-.39-.21-.57-.65-.57H666c-.44,0-.65.18-.65.57v1.64Z"/><path class="cls-1" d="M686.07,591.21c2.47,0,3.46,1.27,3.46,3.22V601c0,1.95-1,3.22-3.46,3.22h-.47a2.19,2.19,0,0,1-2.29-1.4v4.76h-4.42V591.21h4.35v1.66a2.13,2.13,0,0,1,2.36-1.66Zm-1,3.82c0-.39-.21-.57-.65-.57H684c-.47,0-.71.23-.71.78v4.91c0,.55.24.78.71.78h.44c.44,0,.65-.18.65-.57Z"/><path class="cls-1" d="M698.89,591.08v3.85h-1.48c-1.07,0-1.64.62-1.64,1.77v7.48h-4.42v-13h4.34v2a2.65,2.65,0,0,1,2.81-2.13Z"/><path class="cls-1" d="M706.92,591.21c2.78,0,3.69,1.27,3.69,3.22V601c0,1.95-.91,3.22-3.69,3.22h-3.3c-2.78,0-3.69-1.27-3.69-3.22v-6.53c0-1.95.91-3.22,3.69-3.22Zm-.65,3.64c0-.39-.21-.57-.65-.57h-.7c-.44,0-.65.18-.65.57v5.69c0,.39.21.58.65.58h.7c.44,0,.65-.19.65-.58Z"/><path class="cls-1" d="M722.94,586.79v17.39H718.6v-1.66a2.14,2.14,0,0,1-2.37,1.66h-.47c-2.47,0-3.46-1.27-3.46-3.22v-6.53c0-1.95,1-3.22,3.46-3.22h.47a2.18,2.18,0,0,1,2.29,1.4v-5.82Zm-5.12,14.14c.46,0,.7-.23.7-.78v-4.91c0-.55-.24-.78-.7-.78h-.45c-.44,0-.65.18-.65.57v5.33c0,.39.21.57.65.57Z"/><path class="cls-1" d="M735.52,591.21v13h-4.34v-1.66a2.13,2.13,0,0,1-2.37,1.66h-.47c-2.46,0-3.45-1.27-3.45-3.22v-9.75h4.42v9.15c0,.39.2.57.65.57h.44c.47,0,.7-.23.7-.78v-8.94Z"/><path class="cls-1" d="M743.5,596.23V595c0-.39-.21-.57-.65-.57h-.44c-.44,0-.65.18-.65.57v5.33c0,.39.21.57.65.57h.44c.44,0,.65-.18.65-.57v-1.19h4.27V601c0,1.95-1,3.22-3.82,3.22h-2.79c-2.78,0-3.82-1.27-3.82-3.22v-6.53c0-1.95,1-3.22,3.82-3.22H744c2.78,0,3.82,1.27,3.82,3.22v1.8Z"/><path class="cls-1" d="M754.27,594.46v5.9c0,.39.2.57.65.57h1v3.25h-2.21c-2.78,0-3.82-1.27-3.82-3.22v-6.5h-1.43v-3.25h1.43v-2.55h4.42v2.55h1.63v3.25Z"/><path class="cls-1" d="M762.79,599.71c0-.39-.2-.57-.65-.57h-1.58c-2.78,0-3.75-1.25-3.75-3.2v-1.51c0-1.95,1-3.22,3.83-3.22h2.41c2.79,0,3.83,1.27,3.83,3.22v1.1h-4.22v-.89c0-.39-.2-.57-.65-.57h-.26c-.44,0-.65.18-.65.57v1.15c0,.39.21.57.65.57h1.59c2.78,0,3.74,1.22,3.74,3.17V601c0,1.95-1,3.22-3.82,3.22h-2.55c-2.78,0-3.82-1.27-3.82-3.22v-1.07h4.29v.86c0,.39.21.57.65.57h.31c.45,0,.65-.18.65-.57Z"/><path class="cls-1" d="M213.53,622.41v13h-4.34v-1.66a2.14,2.14,0,0,1-2.37,1.66h-.47c-2.47,0-3.46-1.27-3.46-3.22v-9.75h4.42v9.15c0,.39.21.57.65.57h.45c.46,0,.7-.23.7-.78v-8.94Z"/><path class="cls-1" d="M222.78,622.41c2.47,0,3.46,1.27,3.46,3.22v9.75h-4.42v-9.15c0-.39-.21-.57-.65-.57h-.44c-.47,0-.7.23-.7.78v8.94h-4.42v-13H220v1.66a2.13,2.13,0,0,1,2.37-1.66Z"/><path class="cls-1" d="M238.57,618v17.39h-4.35v-1.66a2.13,2.13,0,0,1-2.36,1.66h-.47c-2.47,0-3.46-1.27-3.46-3.22v-6.53c0-2,1-3.22,3.46-3.22h.47a2.19,2.19,0,0,1,2.29,1.4V618Zm-5.13,14.14c.47,0,.71-.23.71-.78v-4.91c0-.55-.24-.78-.71-.78H233c-.44,0-.65.18-.65.57v5.33c0,.39.21.57.65.57Z"/><path class="cls-1" d="M247.38,622.41c2.78,0,3.82,1.27,3.82,3.22v4.42h-6.63v1.72c0,.39.21.57.65.57h1.15a.57.57,0,0,0,.65-.62V631h4.18v1.17c0,2-1,3.22-3.82,3.22h-3.17c-2.78,0-3.82-1.27-3.82-3.22v-6.53c0-2,1-3.22,3.82-3.22Zm-.36,5.25V626c0-.39-.21-.57-.65-.57h-1.15c-.44,0-.65.18-.65.57v1.64Z"/><path class="cls-1" d="M260.43,622.28v3.85H259c-1.07,0-1.64.62-1.64,1.77v7.48h-4.42v-13h4.34v2a2.65,2.65,0,0,1,2.81-2.13Z"/><path class="cls-1" d="M272.7,627.43v-1.2c0-.39-.2-.57-.65-.57h-.44c-.44,0-.65.18-.65.57v5.33c0,.39.21.57.65.57h.44c.45,0,.65-.18.65-.57v-1.19H277v1.79c0,2-1,3.22-3.82,3.22h-2.79c-2.78,0-3.82-1.27-3.82-3.22v-6.53c0-2,1-3.22,3.82-3.22h2.79c2.78,0,3.82,1.27,3.82,3.22v1.8Z"/><path class="cls-1" d="M285.39,622.41c2.78,0,3.69,1.27,3.69,3.22v6.53c0,2-.91,3.22-3.69,3.22h-3.3c-2.78,0-3.69-1.27-3.69-3.22v-6.53c0-2,.91-3.22,3.69-3.22Zm-.65,3.64c0-.39-.21-.57-.65-.57h-.7c-.44,0-.65.18-.65.57v5.69c0,.39.21.58.65.58h.7c.44,0,.65-.19.65-.58Z"/><path class="cls-1" d="M298.21,622.41c2.47,0,3.46,1.27,3.46,3.22v9.75h-4.42v-9.15c0-.39-.21-.57-.65-.57h-.45c-.46,0-.7.23-.7.78v8.94H291v-13h4.34v1.66a2.14,2.14,0,0,1,2.37-1.66Z"/><path class="cls-1" d="M309.21,630.91c0-.39-.21-.57-.65-.57H307c-2.78,0-3.74-1.25-3.74-3.2v-1.51c0-2,1-3.22,3.82-3.22h2.42c2.78,0,3.82,1.27,3.82,3.22v1.1h-4.21v-.89c0-.39-.21-.57-.65-.57h-.26c-.45,0-.65.18-.65.57V627c0,.39.2.57.65.57h1.58c2.78,0,3.75,1.22,3.75,3.17v1.43c0,2-1,3.22-3.83,3.22h-2.54c-2.79,0-3.83-1.27-3.83-3.22v-1.07h4.29V632c0,.39.21.57.65.57h.32c.44,0,.65-.18.65-.57Z"/><path class="cls-1" d="M320.13,625.66v5.9c0,.39.2.57.65.57h1v3.25h-2.21c-2.78,0-3.82-1.27-3.82-3.22v-6.5h-1.43v-3.25h1.43v-2.55h4.42v2.55h1.63v3.25Z"/><path class="cls-1" d="M330.6,622.28v3.85h-1.48c-1.06,0-1.64.62-1.64,1.77v7.48h-4.42v-13h4.35v2a2.64,2.64,0,0,1,2.8-2.13Z"/><path class="cls-1" d="M342.28,622.41v13h-4.34v-1.66a2.14,2.14,0,0,1-2.37,1.66h-.47c-2.47,0-3.46-1.27-3.46-3.22v-9.75h4.42v9.15c0,.39.21.57.65.57h.45c.46,0,.7-.23.7-.78v-8.94Z"/><path class="cls-1" d="M350.26,627.43v-1.2c0-.39-.21-.57-.65-.57h-.44c-.44,0-.65.18-.65.57v5.33c0,.39.21.57.65.57h.44c.44,0,.65-.18.65-.57v-1.19h4.26v1.79c0,2-1,3.22-3.82,3.22h-2.78c-2.78,0-3.82-1.27-3.82-3.22v-6.53c0-2,1-3.22,3.82-3.22h2.78c2.78,0,3.82,1.27,3.82,3.22v1.8Z"/><path class="cls-1" d="M361,625.66v5.9c0,.39.21.57.65.57h1v3.25h-2.21c-2.79,0-3.83-1.27-3.83-3.22v-6.5h-1.43v-3.25h1.43v-2.55H361v2.55h1.64v3.25Z"/><path class="cls-1" d="M363.88,618h4.58v3.12h-4.58Zm.08,17.39v-13h4.42v13Z"/><path class="cls-1" d="M377.33,622.41c2.78,0,3.69,1.27,3.69,3.22v6.53c0,2-.91,3.22-3.69,3.22H374c-2.78,0-3.69-1.27-3.69-3.22v-6.53c0-2,.91-3.22,3.69-3.22Zm-.65,3.64c0-.39-.21-.57-.65-.57h-.71c-.44,0-.65.18-.65.57v5.69c0,.39.21.58.65.58H376c.44,0,.65-.19.65-.58Z"/><path class="cls-1" d="M390.14,622.41c2.47,0,3.46,1.27,3.46,3.22v9.75h-4.42v-9.15c0-.39-.21-.57-.65-.57h-.44c-.47,0-.7.23-.7.78v8.94H383v-13h4.34v1.66a2.13,2.13,0,0,1,2.36-1.66Z"/><path class="cls-1" d="M400,631.12v2.34l-3.12,5.8h-1.35v-8.14Z"/><path class="cls-1" d="M417.68,622.41v13h-4.42V634a2.19,2.19,0,0,1-2.29,1.4h-.47c-2.47,0-3.46-1.27-3.46-3.22v-6.53c0-2,1-3.22,3.46-3.22H411a2.13,2.13,0,0,1,2.36,1.66v-1.66Zm-5.13,9.72c.47,0,.71-.23.71-.78v-4.91c0-.55-.24-.78-.71-.78h-.44c-.44,0-.65.18-.65.57v5.33c0,.39.21.57.65.57Z"/><path class="cls-1" d="M426.93,622.41c2.47,0,3.46,1.27,3.46,3.22v9.75H426v-9.15c0-.39-.21-.57-.65-.57h-.44c-.47,0-.7.23-.7.78v8.94h-4.42v-13h4.34v1.66a2.13,2.13,0,0,1,2.36-1.66Z"/><path class="cls-1" d="M442.71,618v17.39h-4.34v-1.66a2.13,2.13,0,0,1-2.36,1.66h-.47c-2.47,0-3.46-1.27-3.46-3.22v-6.53c0-2,1-3.22,3.46-3.22H436a2.16,2.16,0,0,1,2.28,1.4V618Zm-5.12,14.14c.47,0,.7-.23.7-.78v-4.91c0-.55-.23-.78-.7-.78h-.44c-.44,0-.65.18-.65.57v5.33c0,.39.21.57.65.57Z"/><path class="cls-1" d="M457.17,622.41c2.47,0,3.46,1.27,3.46,3.22v9.75h-4.42v-9.15c0-.39-.21-.57-.65-.57h-.44c-.47,0-.71.23-.71.78v8.94H450v-13h4.35v1.66a2.13,2.13,0,0,1,2.36-1.66Z"/><path class="cls-1" d="M469.31,622.41c2.78,0,3.82,1.27,3.82,3.22v4.42H466.5v1.72c0,.39.21.57.65.57h1.15a.57.57,0,0,0,.65-.62V631h4.18v1.17c0,2-1,3.22-3.82,3.22h-3.17c-2.78,0-3.82-1.27-3.82-3.22v-6.53c0-2,1-3.22,3.82-3.22Zm-.36,5.25V626c0-.39-.21-.57-.65-.57h-1.15c-.44,0-.65.18-.65.57v1.64Z"/><path class="cls-1" d="M479.76,630.73l1.56-8.32h4.4l-3.33,13h-5.28l-3.33-13h4.4Z"/><path class="cls-1" d="M493.49,622.41c2.78,0,3.82,1.27,3.82,3.22v4.42h-6.63v1.72c0,.39.21.57.65.57h1.15a.57.57,0,0,0,.65-.62V631h4.18v1.17c0,2-1,3.22-3.82,3.22h-3.17c-2.78,0-3.82-1.27-3.82-3.22v-6.53c0-2,1-3.22,3.82-3.22Zm-.36,5.25V626c0-.39-.21-.57-.65-.57h-1.15c-.44,0-.65.18-.65.57v1.64Z"/><path class="cls-1" d="M506.54,622.28v3.85h-1.48c-1.06,0-1.64.62-1.64,1.77v7.48H499v-13h4.34v2a2.65,2.65,0,0,1,2.81-2.13Z"/><path class="cls-1" d="M518.5,630.91c0-.39-.21-.57-.65-.57h-1.58c-2.79,0-3.75-1.25-3.75-3.2v-1.51c0-2,1-3.22,3.82-3.22h2.42c2.78,0,3.82,1.27,3.82,3.22v1.1h-4.21v-.89c0-.39-.21-.57-.65-.57h-.26c-.44,0-.65.18-.65.57V627c0,.39.21.57.65.57h1.59c2.78,0,3.74,1.22,3.74,3.17v1.43c0,2-1,3.22-3.82,3.22h-2.55c-2.78,0-3.82-1.27-3.82-3.22v-1.07h4.29V632c0,.39.21.57.65.57h.31c.44,0,.65-.18.65-.57Z"/><path class="cls-1" d="M529.42,625.66v5.9c0,.39.21.57.65.57h1v3.25h-2.22c-2.78,0-3.82-1.27-3.82-3.22v-6.5h-1.43v-3.25H525v-2.55h4.42v2.55h1.64v3.25Z"/><path class="cls-1" d="M539.22,622.41c2.79,0,3.7,1.27,3.7,3.22v6.53c0,2-.91,3.22-3.7,3.22h-3.3c-2.78,0-3.69-1.27-3.69-3.22v-6.53c0-2,.91-3.22,3.69-3.22Zm-.65,3.64c0-.39-.2-.57-.65-.57h-.7c-.44,0-.65.18-.65.57v5.69c0,.39.21.58.65.58h.7c.45,0,.65-.19.65-.58Z"/><path class="cls-1" d="M552,622.41c2.47,0,3.46,1.27,3.46,3.22v6.53c0,2-1,3.22-3.46,3.22h-.47a2.16,2.16,0,0,1-2.28-1.4v4.76h-4.42V622.41h4.34v1.66a2.13,2.13,0,0,1,2.36-1.66Zm-1,3.82c0-.39-.21-.57-.65-.57H550c-.47,0-.7.23-.7.78v4.91c0,.55.23.78.7.78h.44c.44,0,.65-.18.65-.57Z"/><path class="cls-1" d="M567.46,625.66v5.9c0,.39.21.57.65.57h1v3.25h-2.21c-2.78,0-3.82-1.27-3.82-3.22v-6.5h-1.43v-3.25H563v-2.55h4.42v2.55h1.64v3.25Z"/><path class="cls-1" d="M577.94,622.28v3.85h-1.48c-1.07,0-1.64.62-1.64,1.77v7.48H570.4v-13h4.34v2a2.65,2.65,0,0,1,2.81-2.13Z"/><path class="cls-1" d="M582.7,622.41l1.58,7.9,1.41-7.9h4.44l-3.25,12.71c-.67,2.27-2,3.62-4.91,3.62h-2.19v-3.2h1.93a1.37,1.37,0,0,0,1.56-1l.05-.16h-1.69l-3.56-11.93Z"/><path class="cls-1" d="M591.09,618h4.58v3.12h-4.58Zm.08,17.39v-13h4.42v13Z"/><path class="cls-1" d="M604.85,622.41c2.47,0,3.46,1.27,3.46,3.22v9.75h-4.43v-9.15c0-.39-.2-.57-.64-.57h-.45c-.46,0-.7.23-.7.78v8.94h-4.42v-13H602v1.66a2.14,2.14,0,0,1,2.37-1.66Z"/><path class="cls-1" d="M620.63,622.41v13.1c0,2-1,3.23-3.82,3.23h-6.22v-3.12h5c.44,0,.65-.18.65-.57V633.2a2.18,2.18,0,0,1-2.29,1.4h-.47c-2.47,0-3.45-1.27-3.45-3.22v-5.75c0-2,1-3.22,3.45-3.22h.47a2.14,2.14,0,0,1,2.37,1.66v-1.66Zm-5.12,8.94c.46,0,.7-.23.7-.78v-4.13c0-.55-.24-.78-.7-.78h-.44c-.45,0-.65.18-.65.57v4.55c0,.39.2.57.65.57Z"/><path class="cls-1" d="M632.85,625.66v5.9c0,.39.21.57.65.57h1v3.25h-2.21c-2.78,0-3.82-1.27-3.82-3.22v-6.5H627v-3.25h1.43v-2.55h4.42v2.55h1.64v3.25Z"/><path class="cls-1" d="M642.65,622.41c2.78,0,3.69,1.27,3.69,3.22v6.53c0,2-.91,3.22-3.69,3.22h-3.3c-2.78,0-3.69-1.27-3.69-3.22v-6.53c0-2,.91-3.22,3.69-3.22Zm-.65,3.64c0-.39-.21-.57-.65-.57h-.7c-.44,0-.65.18-.65.57v5.69c0,.39.21.58.65.58h.7c.44,0,.65-.19.65-.58Z"/><path class="cls-1" d="M660.67,622.41c2.47,0,3.46,1.27,3.46,3.22v6.53c0,2-1,3.22-3.46,3.22h-.47a2.14,2.14,0,0,1-2.37-1.66v1.66h-4.34V618h4.42v5.82a2.18,2.18,0,0,1,2.29-1.4Zm-1,3.82c0-.39-.21-.57-.65-.57h-.45c-.46,0-.7.23-.7.78v4.91c0,.55.24.78.7.78h.45c.44,0,.65-.18.65-.57Z"/><path class="cls-1" d="M673.49,622.28v3.85H672c-1.06,0-1.63.62-1.63,1.77v7.48H666v-13h4.34v2a2.64,2.64,0,0,1,2.81-2.13Z"/><path class="cls-1" d="M674.58,618h4.57v3.12h-4.57Zm.08,17.39v-13h4.42v13Z"/><path class="cls-1" d="M688.33,622.41c2.47,0,3.46,1.27,3.46,3.22v9.75h-4.42v-9.15c0-.39-.21-.57-.65-.57h-.44c-.47,0-.7.23-.7.78v8.94h-4.42v-13h4.34v1.66a2.13,2.13,0,0,1,2.36-1.66Z"/><path class="cls-1" d="M704.11,622.41v13.1c0,2-1,3.23-3.82,3.23h-6.21v-3.12h5c.45,0,.65-.18.65-.57V633.2a2.16,2.16,0,0,1-2.28,1.4h-.47c-2.47,0-3.46-1.27-3.46-3.22v-5.75c0-2,1-3.22,3.46-3.22h.47a2.13,2.13,0,0,1,2.36,1.66v-1.66ZM699,631.35c.47,0,.7-.23.7-.78v-4.13c0-.55-.23-.78-.7-.78h-.44c-.44,0-.65.18-.65.57v4.55c0,.39.21.57.65.57Z"/><path class="cls-1" d="M716.33,625.66v5.9c0,.39.21.57.65.57h1v3.25h-2.22c-2.78,0-3.82-1.27-3.82-3.22v-6.5h-1.43v-3.25h1.43v-2.55h4.42v2.55H718v3.25Z"/><path class="cls-1" d="M726.45,622.41c2.47,0,3.46,1.27,3.46,3.22v9.75h-4.43v-9.15c0-.39-.2-.57-.65-.57h-.44c-.47,0-.7.23-.7.78v8.94h-4.42V618h4.42v5.82a2.18,2.18,0,0,1,2.29-1.4Z"/><path class="cls-1" d="M738.59,622.41c2.78,0,3.82,1.27,3.82,3.22v4.42h-6.63v1.72c0,.39.21.57.65.57h1.14c.45,0,.65-.23.65-.62V631h4.19v1.17c0,2-1,3.22-3.82,3.22h-3.17c-2.79,0-3.83-1.27-3.83-3.22v-6.53c0-2,1-3.22,3.83-3.22Zm-.37,5.25V626c0-.39-.2-.57-.65-.57h-1.14c-.44,0-.65.18-.65.57v1.64Z"/><path class="cls-1" d="M762.69,622.41c2.47,0,3.46,1.27,3.46,3.22v9.75h-4.42v-9.15c0-.39-.21-.57-.65-.57h-.44c-.47,0-.71.23-.71.78v8.94h-4.42v-9.15c0-.39-.2-.57-.65-.57h-.44c-.47,0-.7.23-.7.78v8.94H749.3v-13h4.34v1.66a2.14,2.14,0,0,1,2.37-1.66h.47c1.71,0,2.7.62,3.17,1.64a2.49,2.49,0,0,1,2.57-1.64Z"/><path class="cls-1" d="M775,622.41c2.78,0,3.69,1.27,3.69,3.22v6.53c0,2-.91,3.22-3.69,3.22h-3.3c-2.78,0-3.69-1.27-3.69-3.22v-6.53c0-2,.91-3.22,3.69-3.22Zm-.65,3.64c0-.39-.21-.57-.65-.57H773c-.44,0-.65.18-.65.57v5.69c0,.39.21.58.65.58h.7c.44,0,.65-.19.65-.58Z"/><path class="cls-1" d="M786.19,630.91c0-.39-.2-.57-.65-.57H784c-2.78,0-3.75-1.25-3.75-3.2v-1.51c0-2,1-3.22,3.83-3.22h2.41c2.79,0,3.83,1.27,3.83,3.22v1.1h-4.22v-.89c0-.39-.2-.57-.65-.57h-.26c-.44,0-.65.18-.65.57V627c0,.39.21.57.65.57h1.59c2.78,0,3.74,1.22,3.74,3.17v1.43c0,2-1,3.22-3.82,3.22h-2.55c-2.78,0-3.82-1.27-3.82-3.22v-1.07h4.29V632c0,.39.21.57.65.57h.31c.45,0,.65-.18.65-.57Z"/><path class="cls-1" d="M797.11,625.66v5.9c0,.39.21.57.65.57h1v3.25h-2.21c-2.79,0-3.83-1.27-3.83-3.22v-6.5h-1.43v-3.25h1.43v-2.55h4.42v2.55h1.64v3.25Z"/><path class="cls-1" d="M208,661.93l1.56-8.32h4.4l-3.33,13h-5.28l-3.33-13h4.4Z"/><path class="cls-1" d="M225.33,653.61v13h-4.42v-1.4a2.17,2.17,0,0,1-2.29,1.4h-.46c-2.47,0-3.46-1.27-3.46-3.22v-6.53c0-2,1-3.22,3.46-3.22h.46a2.13,2.13,0,0,1,2.37,1.66v-1.66Zm-5.12,9.72c.47,0,.7-.23.7-.78v-4.91c0-.55-.23-.78-.7-.78h-.44c-.44,0-.65.18-.65.57v5.33c0,.39.21.57.65.57Z"/><path class="cls-1" d="M227.41,666.58V649.19h4.42v17.39Z"/><path class="cls-1" d="M244.42,653.61v13h-4.35v-1.66a2.13,2.13,0,0,1-2.36,1.66h-.47c-2.47,0-3.46-1.27-3.46-3.22v-9.75h4.42v9.15c0,.39.21.57.65.57h.44c.47,0,.71-.23.71-.78v-8.94Z"/><path class="cls-1" d="M253.23,653.61c2.78,0,3.82,1.27,3.82,3.22v4.42h-6.63V663c0,.39.21.57.65.57h1.15a.57.57,0,0,0,.65-.62v-.73h4.18v1.17c0,1.95-1,3.22-3.82,3.22h-3.17c-2.78,0-3.82-1.27-3.82-3.22v-6.53c0-2,1-3.22,3.82-3.22Zm-.36,5.25v-1.64c0-.39-.21-.57-.65-.57h-1.15c-.44,0-.65.18-.65.57v1.64Z"/><path class="cls-1" d="M268.88,656.86v5.9c0,.39.21.57.65.57h1v3.25h-2.21c-2.78,0-3.82-1.27-3.82-3.22v-6.5H263v-3.25h1.43v-2.55h4.42v2.55h1.64v3.25Z"/><path class="cls-1" d="M278.68,653.61c2.79,0,3.7,1.27,3.7,3.22v6.53c0,1.95-.91,3.22-3.7,3.22h-3.3c-2.78,0-3.69-1.27-3.69-3.22v-6.53c0-2,.91-3.22,3.69-3.22Zm-.65,3.64c0-.39-.2-.57-.65-.57h-.7c-.44,0-.65.18-.65.57v5.69c0,.39.21.57.65.57h.7c.45,0,.65-.18.65-.57Z"/><path class="cls-1" d="M296.39,653.61c2.78,0,3.69,1.27,3.69,3.22v6.53c0,1.95-.91,3.22-3.69,3.22h-3.3c-2.79,0-3.7-1.27-3.7-3.22v-6.53c0-2,.91-3.22,3.7-3.22Zm-.65,3.64c0-.39-.21-.57-.65-.57h-.7c-.45,0-.65.18-.65.57v5.69c0,.39.2.57.65.57h.7c.44,0,.65-.18.65-.57Z"/><path class="cls-1" d="M312.53,653.61v13h-4.34v-1.66a2.13,2.13,0,0,1-2.36,1.66h-.47c-2.47,0-3.46-1.27-3.46-3.22v-9.75h4.42v9.15c0,.39.21.57.65.57h.44c.47,0,.7-.23.7-.78v-8.94Z"/><path class="cls-1" d="M322.15,653.48v3.85h-1.48c-1.06,0-1.64.62-1.64,1.76v7.49h-4.42v-13H319v2a2.64,2.64,0,0,1,2.8-2.13Z"/><path class="cls-1" d="M335.26,653.61c2.78,0,3.82,1.27,3.82,3.22v4.42h-6.63V663c0,.39.21.57.65.57h1.14c.45,0,.65-.23.65-.62v-.73h4.19v1.17c0,1.95-1,3.22-3.82,3.22h-3.17c-2.79,0-3.83-1.27-3.83-3.22v-6.53c0-2,1-3.22,3.83-3.22Zm-.37,5.25v-1.64c0-.39-.2-.57-.65-.57H333.1c-.44,0-.65.18-.65.57v1.64Z"/><path class="cls-1" d="M348,653.61c2.47,0,3.45,1.27,3.45,3.22v9.75H347v-9.15c0-.39-.2-.57-.65-.57h-.44c-.47,0-.7.23-.7.78v8.94h-4.42v-13h4.34v1.66a2.14,2.14,0,0,1,2.37-1.66Z"/><path class="cls-1" d="M363.73,653.61v13.1c0,1.95-1,3.23-3.82,3.23h-6.22v-3.12h5c.44,0,.65-.19.65-.57V664.4a2.18,2.18,0,0,1-2.29,1.4h-.47c-2.47,0-3.46-1.27-3.46-3.22v-5.75c0-2,1-3.22,3.46-3.22H357a2.14,2.14,0,0,1,2.37,1.66v-1.66Zm-5.12,8.94c.46,0,.7-.23.7-.78v-4.13c0-.55-.24-.78-.7-.78h-.45c-.44,0-.65.18-.65.57V662c0,.39.21.57.65.57Z"/><path class="cls-1" d="M376.18,653.61v13h-4.42v-1.4a2.17,2.17,0,0,1-2.29,1.4H369c-2.47,0-3.46-1.27-3.46-3.22v-6.53c0-2,1-3.22,3.46-3.22h.46a2.13,2.13,0,0,1,2.37,1.66v-1.66Zm-5.12,9.72c.47,0,.7-.23.7-.78v-4.91c0-.55-.23-.78-.7-.78h-.44c-.44,0-.65.18-.65.57v5.33c0,.39.21.57.65.57Z"/><path class="cls-1" d="M388.64,653.61v13.1c0,1.95-1,3.23-3.83,3.23H378.6v-3.12h5c.45,0,.65-.19.65-.57V664.4a2.16,2.16,0,0,1-2.28,1.4h-.47c-2.47,0-3.46-1.27-3.46-3.22v-5.75c0-2,1-3.22,3.46-3.22h.47a2.13,2.13,0,0,1,2.36,1.66v-1.66Zm-5.13,8.94c.47,0,.7-.23.7-.78v-4.13c0-.55-.23-.78-.7-.78h-.44c-.44,0-.65.18-.65.57V662c0,.39.21.57.65.57Z"/><path class="cls-1" d="M397.45,653.61c2.78,0,3.82,1.27,3.82,3.22v4.42h-6.63V663c0,.39.21.57.65.57h1.15a.56.56,0,0,0,.64-.62v-.73h4.19v1.17c0,1.95-1,3.22-3.82,3.22h-3.17c-2.78,0-3.82-1.27-3.82-3.22v-6.53c0-2,1-3.22,3.82-3.22Zm-.37,5.25v-1.64c0-.39-.2-.57-.64-.57h-1.15c-.44,0-.65.18-.65.57v1.64Z"/><path class="cls-1" d="M416.35,653.61c2.47,0,3.46,1.27,3.46,3.22v9.75h-4.42v-9.15c0-.39-.21-.57-.65-.57h-.44c-.47,0-.71.23-.71.78v8.94h-4.42v-9.15c0-.39-.2-.57-.65-.57h-.44c-.47,0-.7.23-.7.78v8.94H403v-13h4.34v1.66a2.14,2.14,0,0,1,2.37-1.66h.47c1.71,0,2.7.62,3.17,1.64a2.49,2.49,0,0,1,2.57-1.64Z"/><path class="cls-1" d="M428.49,653.61c2.78,0,3.82,1.27,3.82,3.22v4.42h-6.63V663c0,.39.21.57.65.57h1.15a.57.57,0,0,0,.65-.62v-.73h4.18v1.17c0,1.95-1,3.22-3.82,3.22h-3.17c-2.78,0-3.82-1.27-3.82-3.22v-6.53c0-2,1-3.22,3.82-3.22Zm-.36,5.25v-1.64c0-.39-.21-.57-.65-.57h-1.15c-.44,0-.65.18-.65.57v1.64Z"/><path class="cls-1" d="M441.18,653.61c2.47,0,3.46,1.27,3.46,3.22v9.75h-4.42v-9.15c0-.39-.21-.57-.65-.57h-.44c-.47,0-.71.23-.71.78v8.94H434v-13h4.35v1.66a2.13,2.13,0,0,1,2.36-1.66Z"/><path class="cls-1" d="M451.53,656.86v5.9c0,.39.21.57.65.57h1v3.25h-2.21c-2.78,0-3.82-1.27-3.82-3.22v-6.5h-1.43v-3.25h1.43v-2.55h4.42v2.55h1.64v3.25Z"/><path class="cls-1" d="M460.06,662.11c0-.39-.21-.57-.65-.57h-1.59c-2.78,0-3.74-1.25-3.74-3.2v-1.51c0-2,1-3.22,3.82-3.22h2.42c2.78,0,3.82,1.27,3.82,3.22v1.09h-4.21V657c0-.39-.21-.57-.65-.57H459c-.45,0-.65.18-.65.57v1.14c0,.39.2.58.65.58h1.58c2.78,0,3.75,1.22,3.75,3.17v1.43c0,1.95-1,3.22-3.83,3.22H458c-2.79,0-3.83-1.27-3.83-3.22v-1.07h4.29v.86c0,.39.21.57.65.57h.32c.44,0,.65-.18.65-.57Z"/><path class="cls-1" d="M466,662.32h4.47v4.26H466Z"/><path class="cls-1" d="M484.18,660.39c0-.39-.2-.57-.65-.57H481c-2.71,0-3.51-1.32-3.51-3.27v-3.44c0-2,1-3.22,3.79-3.22h3.57c2.78,0,3.79,1.27,3.79,3.22v2h-4.55v-1.41c0-.39-.21-.57-.65-.57h-.75c-.44,0-.65.18-.65.57v2.47c0,.39.21.57.65.57h2.44c2.71,0,3.56,1.23,3.56,3.18v3.43c0,1.95-1,3.22-3.79,3.22H481.4c-2.78,0-3.82-1.27-3.82-3.22v-2h4.55v1.4c0,.39.21.57.65.57h.75c.45,0,.65-.18.65-.57Z"/><path class="cls-1" d="M495.49,656.86v5.9c0,.39.21.57.65.57h1v3.25H494.9c-2.79,0-3.83-1.27-3.83-3.22v-6.5h-1.43v-3.25h1.43v-2.55h4.42v2.55h1.64v3.25Z"/><path class="cls-1" d="M508.8,653.61v13h-4.42v-1.4a2.16,2.16,0,0,1-2.28,1.4h-.47c-2.47,0-3.46-1.27-3.46-3.22v-6.53c0-2,1-3.22,3.46-3.22h.47a2.13,2.13,0,0,1,2.36,1.66v-1.66Zm-5.12,9.72c.47,0,.7-.23.7-.78v-4.91c0-.55-.23-.78-.7-.78h-.44c-.44,0-.65.18-.65.57v5.33c0,.39.21.57.65.57Z"/><path class="cls-1" d="M514.47,653.61l1.59,7.9,1.4-7.9h4.45l-3.25,12.71c-.68,2.26-1.95,3.62-4.91,3.62h-2.19v-3.2h1.92a1.36,1.36,0,0,0,1.56-1l.06-.16h-1.69l-3.57-11.93Z"/><path class="cls-1" d="M533.09,656.86v5.9c0,.39.21.57.65.57h1v3.25h-2.21c-2.78,0-3.82-1.27-3.82-3.22v-6.5h-1.43v-3.25h1.43v-2.55h4.42v2.55h1.64v3.25Z"/><path class="cls-1" d="M546.53,653.61v13h-4.34v-1.66a2.14,2.14,0,0,1-2.37,1.66h-.47c-2.47,0-3.45-1.27-3.45-3.22v-9.75h4.42v9.15c0,.39.2.57.65.57h.44c.47,0,.7-.23.7-.78v-8.94Z"/><path class="cls-1" d="M555.79,653.61c2.47,0,3.46,1.27,3.46,3.22v9.75h-4.43v-9.15c0-.39-.2-.57-.65-.57h-.44c-.47,0-.7.23-.7.78v8.94h-4.42v-13H553v1.66a2.14,2.14,0,0,1,2.37-1.66Z"/><path class="cls-1" d="M567.93,653.61c2.78,0,3.82,1.27,3.82,3.22v4.42h-6.63V663c0,.39.21.57.65.57h1.14c.45,0,.65-.23.65-.62v-.73h4.19v1.17c0,1.95-1,3.22-3.82,3.22h-3.17c-2.79,0-3.83-1.27-3.83-3.22v-6.53c0-2,1-3.22,3.83-3.22Zm-.37,5.25v-1.64c0-.39-.2-.57-.65-.57h-1.14c-.44,0-.65.18-.65.57v1.64Z"/><path class="cls-1" d="M583.81,649.19v17.39h-4.34v-1.66a2.13,2.13,0,0,1-2.36,1.66h-.47c-2.47,0-3.46-1.27-3.46-3.22v-6.53c0-2,1-3.22,3.46-3.22h.47a2.16,2.16,0,0,1,2.28,1.4v-5.82Zm-5.12,14.14c.47,0,.7-.23.7-.78v-4.91c0-.55-.23-.78-.7-.78h-.44c-.44,0-.65.18-.65.57v5.33c0,.39.21.57.65.57Z"/><path class="cls-1" d="M596.71,652.31c-.44,0-.65.18-.65.57v.73h2v3.25h-2v9.72h-4.42v-9.72h-1.33v-3.25h1.33v-1.2c0-1.95,1-3.22,3.82-3.22h2.63v3.12Z"/><path class="cls-1" d="M606.12,653.61c2.78,0,3.69,1.27,3.69,3.22v6.53c0,1.95-.91,3.22-3.69,3.22h-3.3c-2.78,0-3.69-1.27-3.69-3.22v-6.53c0-2,.91-3.22,3.69-3.22Zm-.65,3.64c0-.39-.21-.57-.65-.57h-.7c-.44,0-.65.18-.65.57v5.69c0,.39.21.57.65.57h.7c.44,0,.65-.18.65-.57Z"/><path class="cls-1" d="M619.3,653.48v3.85h-1.48c-1.07,0-1.64.62-1.64,1.76v7.49h-4.42v-13h4.34v2a2.65,2.65,0,0,1,2.81-2.13Z"/><path class="cls-1" d="M636.05,653.61v13h-4.42v-1.4a2.18,2.18,0,0,1-2.29,1.4h-.47c-2.47,0-3.46-1.27-3.46-3.22v-6.53c0-2,1-3.22,3.46-3.22h.47a2.14,2.14,0,0,1,2.37,1.66v-1.66Zm-5.13,9.72c.47,0,.71-.23.71-.78v-4.91c0-.55-.24-.78-.71-.78h-.44c-.44,0-.65.18-.65.57v5.33c0,.39.21.57.65.57Z"/><path class="cls-1" d="M645.3,653.61c2.47,0,3.46,1.27,3.46,3.22v9.75h-4.42v-9.15c0-.39-.21-.57-.65-.57h-.44c-.47,0-.7.23-.7.78v8.94h-4.42v-13h4.34v1.66a2.13,2.13,0,0,1,2.36-1.66Z"/><path class="cls-1" d="M657.89,653.61c2.47,0,3.45,1.27,3.45,3.22v9.75h-4.42v-9.15c0-.39-.2-.57-.65-.57h-.44c-.47,0-.7.23-.7.78v8.94h-4.42v-13h4.34v1.66a2.14,2.14,0,0,1,2.37-1.66Z"/><path class="cls-1" d="M670.16,653.61c2.78,0,3.69,1.27,3.69,3.22v6.53c0,1.95-.91,3.22-3.69,3.22h-3.3c-2.79,0-3.7-1.27-3.7-3.22v-6.53c0-2,.91-3.22,3.7-3.22Zm-.65,3.64c0-.39-.21-.57-.65-.57h-.7c-.45,0-.65.18-.65.57v5.69c0,.39.2.57.65.57h.7c.44,0,.65-.18.65-.57Z"/><path class="cls-1" d="M686.3,653.61v13H682v-1.66a2.13,2.13,0,0,1-2.36,1.66h-.47c-2.47,0-3.46-1.27-3.46-3.22v-9.75h4.42v9.15c0,.39.21.57.65.57h.44c.47,0,.7-.23.7-.78v-8.94Z"/><path class="cls-1" d="M695.56,653.61c2.47,0,3.46,1.27,3.46,3.22v9.75H694.6v-9.15c0-.39-.21-.57-.65-.57h-.44c-.47,0-.71.23-.71.78v8.94h-4.42v-13h4.35v1.66a2.13,2.13,0,0,1,2.36-1.66Z"/><path class="cls-1" d="M706.87,658.63v-1.2c0-.39-.21-.57-.65-.57h-.44c-.44,0-.65.18-.65.57v5.33c0,.39.21.57.65.57h.44c.44,0,.65-.18.65-.57v-1.2h4.26v1.8c0,1.95-1,3.22-3.82,3.22h-2.78c-2.78,0-3.82-1.27-3.82-3.22v-6.53c0-2,1-3.22,3.82-3.22h2.78c2.78,0,3.82,1.27,3.82,3.22v1.8Z"/><path class="cls-1" d="M719.43,653.61c2.78,0,3.82,1.27,3.82,3.22v4.42h-6.63V663c0,.39.21.57.65.57h1.14c.45,0,.65-.23.65-.62v-.73h4.19v1.17c0,1.95-1,3.22-3.82,3.22h-3.17c-2.79,0-3.83-1.27-3.83-3.22v-6.53c0-2,1-3.22,3.83-3.22Zm-.37,5.25v-1.64c0-.39-.2-.57-.65-.57h-1.14c-.44,0-.65.18-.65.57v1.64Z"/><path class="cls-1" d="M738.33,653.61c2.47,0,3.46,1.27,3.46,3.22v9.75h-4.42v-9.15c0-.39-.21-.57-.65-.57h-.44c-.47,0-.71.23-.71.78v8.94h-4.42v-9.15c0-.39-.21-.57-.65-.57h-.44c-.47,0-.7.23-.7.78v8.94h-4.42v-13h4.34v1.66a2.13,2.13,0,0,1,2.37-1.66h.47c1.71,0,2.7.62,3.17,1.64a2.49,2.49,0,0,1,2.57-1.64Z"/><path class="cls-1" d="M750.47,653.61c2.78,0,3.82,1.27,3.82,3.22v4.42h-6.63V663c0,.39.21.57.65.57h1.15a.57.57,0,0,0,.65-.62v-.73h4.18v1.17c0,1.95-1,3.22-3.82,3.22H747.3c-2.78,0-3.82-1.27-3.82-3.22v-6.53c0-2,1-3.22,3.82-3.22Zm-.36,5.25v-1.64c0-.39-.21-.57-.65-.57h-1.15c-.44,0-.65.18-.65.57v1.64Z"/><path class="cls-1" d="M763.16,653.61c2.47,0,3.46,1.27,3.46,3.22v9.75H762.2v-9.15c0-.39-.21-.57-.65-.57h-.45c-.46,0-.7.23-.7.78v8.94H756v-13h4.34v1.66a2.14,2.14,0,0,1,2.37-1.66Z"/><path class="cls-1" d="M773.51,656.86v5.9c0,.39.2.57.65.57h1v3.25h-2.21c-2.78,0-3.82-1.27-3.82-3.22v-6.5h-1.43v-3.25h1.43v-2.55h4.42v2.55h1.63v3.25Z"/><path class="cls-1" d="M782,662.11c0-.39-.2-.57-.65-.57H779.8c-2.78,0-3.75-1.25-3.75-3.2v-1.51c0-2,1-3.22,3.83-3.22h2.41c2.79,0,3.83,1.27,3.83,3.22v1.09H781.9V657c0-.39-.2-.57-.65-.57H781c-.44,0-.65.18-.65.57v1.14c0,.39.21.58.65.58h1.59c2.78,0,3.74,1.22,3.74,3.17v1.43c0,1.95-1,3.22-3.82,3.22H780c-2.78,0-3.82-1.27-3.82-3.22v-1.07h4.29v.86c0,.39.21.57.65.57h.31c.45,0,.65-.18.65-.57Z"/><path class="cls-1" d="M218.6,684.81v13h-4.42v-1.4a2.18,2.18,0,0,1-2.29,1.4h-.47c-2.47,0-3.46-1.27-3.46-3.22V688c0-1.95,1-3.22,3.46-3.22h.47a2.14,2.14,0,0,1,2.37,1.66v-1.66Zm-5.12,9.72c.46,0,.7-.23.7-.78v-4.91c0-.55-.24-.78-.7-.78H213c-.44,0-.65.18-.65.57V694c0,.39.21.57.65.57Z"/><path class="cls-1" d="M227.85,684.81c2.47,0,3.46,1.27,3.46,3.22v9.75h-4.42v-9.15c0-.39-.21-.57-.65-.57h-.44c-.47,0-.7.23-.7.78v8.94h-4.42v-13H225v1.66a2.13,2.13,0,0,1,2.37-1.66Z"/><path class="cls-1" d="M243.64,680.39v17.39h-4.35v-1.66a2.13,2.13,0,0,1-2.36,1.66h-.47c-2.47,0-3.46-1.27-3.46-3.22V688c0-1.95,1-3.22,3.46-3.22h.47a2.19,2.19,0,0,1,2.29,1.4v-5.82Zm-5.13,14.14c.47,0,.71-.23.71-.78v-4.91c0-.55-.24-.78-.71-.78h-.44c-.44,0-.65.18-.65.57V694c0,.39.21.57.65.57Z"/><path class="cls-1" d="M257.78,684.81c2.78,0,3.69,1.27,3.69,3.22v6.53c0,2-.91,3.22-3.69,3.22h-3.3c-2.78,0-3.69-1.27-3.69-3.22V688c0-1.95.91-3.22,3.69-3.22Zm-.65,3.64c0-.39-.21-.57-.65-.57h-.7c-.45,0-.65.18-.65.57v5.69c0,.39.2.57.65.57h.7c.44,0,.65-.18.65-.57Z"/><path class="cls-1" d="M270.6,684.81c2.47,0,3.46,1.27,3.46,3.22v6.53c0,2-1,3.22-3.46,3.22h-.47a2.18,2.18,0,0,1-2.29-1.4v4.76h-4.42V684.81h4.34v1.66a2.14,2.14,0,0,1,2.37-1.66Zm-1,3.82c0-.39-.21-.57-.65-.57h-.45c-.46,0-.7.23-.7.78v4.91c0,.55.24.78.7.78H269c.44,0,.65-.18.65-.57Z"/><path class="cls-1" d="M283.05,684.81c2.47,0,3.46,1.27,3.46,3.22v6.53c0,2-1,3.22-3.46,3.22h-.47a2.19,2.19,0,0,1-2.29-1.4v4.76h-4.42V684.81h4.35v1.66a2.13,2.13,0,0,1,2.36-1.66Zm-1,3.82c0-.39-.21-.57-.65-.57H281c-.47,0-.71.23-.71.78v4.91c0,.55.24.78.71.78h.44c.44,0,.65-.18.65-.57Z"/><path class="cls-1" d="M295.19,684.81c2.78,0,3.69,1.27,3.69,3.22v6.53c0,2-.91,3.22-3.69,3.22h-3.3c-2.78,0-3.69-1.27-3.69-3.22V688c0-1.95.91-3.22,3.69-3.22Zm-.65,3.64c0-.39-.21-.57-.65-.57h-.7c-.44,0-.65.18-.65.57v5.69c0,.39.21.57.65.57h.7c.44,0,.65-.18.65-.57Z"/><path class="cls-1" d="M308.37,684.68v3.85h-1.48c-1.06,0-1.64.62-1.64,1.76v7.49h-4.42v-13h4.35v2a2.64,2.64,0,0,1,2.8-2.13Z"/><path class="cls-1" d="M314.48,688.06V694c0,.39.21.57.65.57h1v3.25h-2.21c-2.79,0-3.83-1.27-3.83-3.22v-6.5h-1.43v-3.25h1.43v-2.55h4.42v2.55h1.64v3.25Z"/><path class="cls-1" d="M327.93,684.81v13h-4.35v-1.66a2.13,2.13,0,0,1-2.36,1.66h-.47c-2.47,0-3.46-1.27-3.46-3.22v-9.75h4.42V694c0,.39.21.57.65.57h.44c.47,0,.71-.23.71-.78v-8.94Z"/><path class="cls-1" d="M337.18,684.81c2.47,0,3.46,1.27,3.46,3.22v9.75h-4.42v-9.15c0-.39-.21-.57-.65-.57h-.44c-.47,0-.7.23-.7.78v8.94H330v-13h4.34v1.66a2.13,2.13,0,0,1,2.36-1.66Z"/><path class="cls-1" d="M342.51,680.39h4.58v3.12h-4.58Zm.08,17.39v-13H347v13Z"/><path class="cls-1" d="M354,688.06V694c0,.39.21.57.65.57h1v3.25h-2.21c-2.78,0-3.82-1.27-3.82-3.22v-6.5h-1.43v-3.25h1.43v-2.55H354v2.55h1.64v3.25Z"/><path class="cls-1" d="M356.89,680.39h4.57v3.12h-4.57Zm.08,17.39v-13h4.42v13Z"/><path class="cls-1" d="M370.2,684.81c2.78,0,3.82,1.27,3.82,3.22v4.42h-6.63v1.72c0,.39.21.57.65.57h1.15a.57.57,0,0,0,.65-.62v-.73H374v1.17c0,2-1,3.22-3.82,3.22H367c-2.78,0-3.82-1.27-3.82-3.22V688c0-1.95,1-3.22,3.82-3.22Zm-.36,5.25v-1.64c0-.39-.21-.57-.65-.57H368c-.44,0-.65.18-.65.57v1.64Z"/><path class="cls-1" d="M381.3,693.31c0-.39-.2-.57-.65-.57h-1.58c-2.78,0-3.75-1.25-3.75-3.2V688c0-1.95,1-3.22,3.83-3.22h2.41c2.79,0,3.83,1.27,3.83,3.22v1.09h-4.22v-.88c0-.39-.21-.57-.65-.57h-.26c-.44,0-.65.18-.65.57v1.14c0,.4.21.58.65.58h1.59c2.78,0,3.74,1.22,3.74,3.17v1.43c0,2-1,3.22-3.82,3.22h-2.55c-2.78,0-3.82-1.27-3.82-3.22v-1.07h4.29v.86c0,.39.21.57.65.57h.31c.45,0,.65-.18.65-.57Z"/><path class="cls-1" d="M397.42,688.06V694c0,.39.21.57.65.57h1v3.25h-2.21c-2.78,0-3.82-1.27-3.82-3.22v-6.5h-1.43v-3.25H393v-2.55h4.42v2.55h1.64v3.25Z"/><path class="cls-1" d="M407.22,684.81c2.79,0,3.7,1.27,3.7,3.22v6.53c0,2-.91,3.22-3.7,3.22h-3.3c-2.78,0-3.69-1.27-3.69-3.22V688c0-1.95.91-3.22,3.69-3.22Zm-.65,3.64c0-.39-.2-.57-.65-.57h-.7c-.44,0-.65.18-.65.57v5.69c0,.39.21.57.65.57h.7c.45,0,.65-.18.65-.57Z"/><path class="cls-1" d="M424,689.83v-1.2c0-.39-.21-.57-.65-.57h-.44c-.45,0-.65.18-.65.57V694c0,.39.2.57.65.57h.44c.44,0,.65-.18.65-.57v-1.2h4.26v1.8c0,2-1,3.22-3.82,3.22h-2.78c-2.78,0-3.82-1.27-3.82-3.22V688c0-1.95,1-3.22,3.82-3.22h2.78c2.78,0,3.82,1.27,3.82,3.22v1.8Z"/><path class="cls-1" d="M436.66,684.81c2.78,0,3.69,1.27,3.69,3.22v6.53c0,2-.91,3.22-3.69,3.22h-3.31c-2.78,0-3.69-1.27-3.69-3.22V688c0-1.95.91-3.22,3.69-3.22Zm-.65,3.64c0-.39-.21-.57-.65-.57h-.71c-.44,0-.65.18-.65.57v5.69c0,.39.21.57.65.57h.71c.44,0,.65-.18.65-.57Z"/><path class="cls-1" d="M449.47,684.81c2.47,0,3.46,1.27,3.46,3.22v9.75h-4.42v-9.15c0-.39-.21-.57-.65-.57h-.44c-.47,0-.7.23-.7.78v8.94H442.3v-13h4.34v1.66a2.13,2.13,0,0,1,2.37-1.66Z"/><path class="cls-1" d="M462.06,684.81c2.47,0,3.46,1.27,3.46,3.22v9.75H461.1v-9.15c0-.39-.21-.57-.65-.57H460c-.46,0-.7.23-.7.78v8.94h-4.42v-13h4.34v1.66a2.14,2.14,0,0,1,2.37-1.66Z"/><path class="cls-1" d="M474.2,684.81c2.78,0,3.82,1.27,3.82,3.22v4.42h-6.63v1.72c0,.39.21.57.65.57h1.15a.56.56,0,0,0,.64-.62v-.73H478v1.17c0,2-1,3.22-3.82,3.22H471c-2.78,0-3.82-1.27-3.82-3.22V688c0-1.95,1-3.22,3.82-3.22Zm-.37,5.25v-1.64c0-.39-.2-.57-.64-.57H472c-.44,0-.65.18-.65.57v1.64Z"/><path class="cls-1" d="M485.61,689.83v-1.2c0-.39-.2-.57-.65-.57h-.44c-.44,0-.65.18-.65.57V694c0,.39.21.57.65.57H485c.45,0,.65-.18.65-.57v-1.2h4.27v1.8c0,2-1,3.22-3.82,3.22h-2.79c-2.78,0-3.82-1.27-3.82-3.22V688c0-1.95,1-3.22,3.82-3.22h2.79c2.78,0,3.82,1.27,3.82,3.22v1.8Z"/><path class="cls-1" d="M496.38,688.06V694c0,.39.2.57.65.57h1v3.25h-2.21c-2.78,0-3.82-1.27-3.82-3.22v-6.5h-1.43v-3.25H492v-2.55h4.42v2.55H498v3.25Z"/><path class="cls-1" d="M499.31,693.52h4.48v4.26h-4.48Z"/><path class="cls-1" d="M515.9,691.86h-.28v5.92h-4.55V681.09h7.72c2.78,0,3.82,1.27,3.82,3.22v4.32a2.78,2.78,0,0,1-2.23,3l3.06,6.11h-4.89Zm-.28-7.52v4.42h1.79c.44,0,.65-.18.65-.57v-3.28c0-.39-.21-.57-.65-.57Z"/><path class="cls-1" d="M532,681.09c2.78,0,3.82,1.27,3.82,3.22v10.25c0,2-1,3.22-3.82,3.22h-3.85c-2.78,0-3.82-1.27-3.82-3.22V684.31c0-1.95,1-3.22,3.82-3.22Zm-.73,3.82c0-.39-.2-.57-.65-.57h-1.09c-.44,0-.65.18-.65.57V694c0,.39.21.57.65.57h1.09c.45,0,.65-.18.65-.57Z"/><path class="cls-1" d="M545.49,681.09c2.78,0,3.82,1.27,3.82,3.22v2.14c0,1.35-.23,2.39-1.25,2.93,1,.45,1.25,1.36,1.25,2.68v2.5c0,2-1,3.22-3.82,3.22h-7.64V681.09Zm-.65,3.56c0-.39-.21-.57-.65-.57h-1.87v3.85h1.87c.44,0,.65-.18.65-.57Zm0,6.84c0-.39-.21-.57-.65-.57h-1.87v3.87h1.87c.44,0,.65-.18.65-.57Z"/><path class="cls-1" d="M558.85,681.09c2.79,0,3.83,1.27,3.83,3.22v10.25c0,2-1,3.22-3.83,3.22H555c-2.79,0-3.83-1.27-3.83-3.22V684.31c0-1.95,1-3.22,3.83-3.22Zm-.72,3.82c0-.39-.21-.57-.65-.57h-1.1c-.44,0-.65.18-.65.57V694c0,.39.21.57.65.57h1.1c.44,0,.65-.18.65-.57Z"/><path class="cls-1" d="M574.74,684.34h-3.22v13.44H567V684.34h-3.2v-3.25h11Z"/><path class="cls-1" d="M582.31,691.59c0-.38-.21-.57-.65-.57h-2.5c-2.7,0-3.51-1.32-3.51-3.27v-3.44c0-1.95,1-3.22,3.8-3.22H583c2.78,0,3.79,1.27,3.79,3.22v2h-4.55v-1.41c0-.39-.21-.57-.65-.57h-.75c-.44,0-.65.18-.65.57v2.47c0,.39.21.58.65.58h2.44c2.71,0,3.57,1.22,3.57,3.17v3.43c0,2-1,3.22-3.8,3.22h-3.54c-2.78,0-3.82-1.27-3.82-3.22v-2h4.55V694c0,.39.21.57.65.57h.76c.44,0,.65-.18.65-.57Z"/><path class="cls-1" d="M605.65,681.09v16.69h-3.9L598,689v8.76h-4.16V681.09h3.9l3.71,8.92v-8.92Z"/><path class="cls-1" d="M618,694.53v3.25H607.73V681.09h10v3.25h-5.46v3.41H617V691h-4.71v3.53Z"/><path class="cls-1" d="M632,681.09l-4.11,16.69h-5.27l-4.11-16.69h4.73l2,11.16,2-11.16Z"/><path class="cls-1" d="M643.51,694.53v3.25H633.26V681.09h10v3.25h-5.46v3.41h4.71V691h-4.71v3.53Z"/><path class="cls-1" d="M649.77,691.86h-.28v5.92h-4.55V681.09h7.72c2.78,0,3.82,1.27,3.82,3.22v4.32a2.78,2.78,0,0,1-2.23,3l3.06,6.11h-4.88Zm-.28-7.52v4.42h1.79c.44,0,.65-.18.65-.57v-3.28c0-.39-.21-.57-.65-.57Z"/><path class="cls-1" d="M670.16,686.81v-2.16c0-.39-.21-.57-.65-.57h-.94c-.44,0-.65.18-.65.57v9.57c0,.39.21.57.65.57h.94c.44,0,.65-.18.65-.57v-2.78h-1.3v-2.89h5.85v6c0,2-1,3.22-3.82,3.22h-3.7c-2.78,0-3.82-1.27-3.82-3.22V684.31c0-1.95,1-3.22,3.82-3.22h3.7c2.78,0,3.82,1.27,3.82,3.22v2.5Z"/><path class="cls-1" d="M681.08,681.09v16.69h-4.55V681.09Z"/><path class="cls-1" d="M695.79,681.09l-4.1,16.69h-5.28l-4.11-16.69H687l2,11.16,2-11.16Z"/><path class="cls-1" d="M707.26,694.53v3.25H697V681.09h10v3.25h-5.47v3.41h4.71V691h-4.71v3.53Z"/><path class="cls-1" d="M725.38,681.09v13.47c0,2-1,3.22-3.82,3.22h-3.85c-2.78,0-3.82-1.27-3.82-3.22V681.09h4.55V694c0,.39.21.57.65.57h1.09c.44,0,.65-.18.65-.57V681.09Z"/><path class="cls-1" d="M735.18,681.09c2.78,0,3.82,1.27,3.82,3.22v4.79c0,1.95-1,3.22-3.82,3.22H732v5.46h-4.55V681.09Zm-.73,3.82c0-.39-.2-.57-.65-.57H732v4.73h1.79c.45,0,.65-.18.65-.57Z"/><path class="cls-1" d="M746,681.09l-.78,10.63H741.6l-.78-10.63Zm-4.81,12.43h4.47v4.26h-4.47Z"/></g></svg>