<svg id="b97417de-4599-4269-9434-6ef6fea43b37" data-name="Layer 1" xmlns="http://www.w3.org/2000/svg" viewBox="0 0 1117.02 1049.21"><title>products-md-xl</title><g id="aca8ecad-8abe-464c-bf99-a7dbdb107a51" data-name="TV BKGD"><rect x="87.92" y="299.57" width="810.6" height="663.1" style="fill:#fff"/><rect x="898.52" y="231.97" width="203.3" height="796.3" style="fill:#fff"/><rect x="18.02" y="952.77" width="906.9" height="69.3" style="fill:#fff"/><rect x="18.02" y="268.47" width="74.1" height="711" style="fill:#fff"/><rect x="21.22" y="221.87" width="1073.2" height="86" style="fill:#fff"/><rect x="230.52" y="163.87" width="120" height="43.2" style="fill:#fff"/><rect x="257.22" y="153.07" width="65.6" height="14.9" style="fill:#fff"/><rect x="979.92" y="653.17" width="29.8" height="26.2"/><rect x="967.42" y="769.57" width="67.8" height="53.5"/><rect x="971.02" y="905.57" width="56.9" height="56.9"/></g><g id="b0ee64c9-7d2c-4a44-9aa9-65dcd0ba6bae" data-name="a79de169-09ec-4a7a-ab9c-8cdea5ef464a"><g id="ade543ce-0bd0-46f6-bb72-dc1403f4440c" data-name="ab7f11b5-6281-41fc-8479-8d7f2085a121"><polygon points="261.32 748.77 338.12 881.67 642.02 881.67 718.72 748.77 739.72 771.57 658.92 911.47 320.32 911.47 239.72 771.97 261.32 748.77" style="fill:#02c9fb"/><polygon points="231.72 697.17 186.12 618.27 338.12 354.77 642.02 354.77 794.02 618.27 748.02 697.97 769.32 720.27 828.22 618.27 658.92 324.97 320.32 324.97 150.92 618.27 209.82 720.07 231.72 697.17" style="fill:#02c9fb"/></g></g><rect x="324.12" y="340.77" width="332.3" height="554.6" style="fill:#02c9fb"/><rect x="322.21" y="337.39" width="332.28" height="572.47" transform="matrix(0.51, -0.86, 0.86, 0.51, -296.52, 730.05)" style="fill:#02c9fb"/><rect x="197.5" y="457.28" width="572.49" height="332.29" transform="translate(-246.89 325.38) rotate(-30)" style="fill:#02c9fb"/><g id="ad27ecb7-bfd1-40fc-a9db-ada83c99f4da" data-name="Layer 2"><rect x="226.62" y="160.57" width="121.4" height="55.8"/></g><g id="b3235022-2930-4da4-a17f-b79d08aac33b" data-name="TV"><g id="b119e3b2-7856-4f43-99c8-132edd694b8a" data-name="layer1"><path id="b2c74e93-ed0c-49f4-907a-d645e5659bf7" data-name="path7416" d="M12.9,0A13.63,13.63,0,0,0,0,14.34a13.46,13.46,0,0,0,5.7,10.4l208.1,156.2a81.7,81.7,0,0,0-8.1,23.8H81.9c-28.4,0-49.8,3-64.3,17.5S.1,258.14.1,286.54v681c0,28.4,3,49.3,17.5,63.8s35.9,17.9,64.3,17.9h953.4c28.4,0,49.8-3.4,64.3-17.9a49.05,49.05,0,0,0,11.9-18.7c4.4-12.2,5.5-27.4,5.5-45.1v-681c0-7.1-.3-13.8-.9-20-1-12.4-3-22.9-7.7-31.9a48.9,48.9,0,0,0-8.9-12.3c-14.5-14.5-35.9-17.5-64.3-17.5H366.6a80.7,80.7,0,0,0-8.1-23.8L566.6,24.84a13.64,13.64,0,0,0-9-24.7,13.28,13.28,0,0,0-7.2,3L341.8,159.34c-14.6-13.7-34.2-22.6-55.8-22.6a81.76,81.76,0,0,0-56.2,22.6L21.9,3A14,14,0,0,0,12.9,0Zm273.3,163.9c25.4,0,46.2,17.5,52.4,40.9H233.8C240,181.34,260.8,163.94,286.2,163.94ZM81.9,232H215.6a12.75,12.75,0,0,0,5.5,0H351.8a12.75,12.75,0,0,0,5.5,0h678c26.1,0,38.8,3.4,44.7,9.4s9.8,19,9.8,45.1v681c0,26.1-3.9,38.8-9.8,44.7s-18.6,9.8-44.7,9.8H81.9c-13.1,0-22.6-.8-29.8-2.6a43.87,43.87,0,0,1-8.9-3,23.72,23.72,0,0,1-6-4.3c-5.9-5.9-9.8-18.6-9.8-44.7v-681a166.37,166.37,0,0,1,.9-17c1.4-15,4.5-23.6,8.9-28.1,3-3,7.7-5.2,14.9-6.8a95.22,95.22,0,0,1,12.8-1.7C69.8,232.44,75.4,232,81.9,232Zm-2.6,40.8a13.64,13.64,0,0,0-11.1,13.6v681A13.61,13.61,0,0,0,81.8,981H899a13.61,13.61,0,0,0,13.6-13.6v-681a13.61,13.61,0,0,0-13.6-13.6H79.3Zm16.2,27.3h790v653.8H95.5ZM964.6,409a13.66,13.66,0,1,0,2.6,27.2h68.1a13.6,13.6,0,1,0,.4-27.2H964.6Zm0,68.1a13.66,13.66,0,1,0,2.6,27.2h68.1a13.6,13.6,0,1,0,.4-27.2H964.6Zm0,68.1a13.66,13.66,0,1,0,2.6,27.2h68.1a13.6,13.6,0,1,0,.4-27.2H964.6Zm36.6,81.8a34.1,34.1,0,1,0,34.1,34.1A34.34,34.34,0,0,0,1001.2,627Zm0,27.2a6.8,6.8,0,1,1-6.8,6.8A6.62,6.62,0,0,1,1001.2,654.24Zm0,95.3a47.7,47.7,0,1,0,47.7,47.7A47.89,47.89,0,0,0,1001.2,749.54Zm0,27.3a20.4,20.4,0,1,1-20.4,20.4A20.23,20.23,0,0,1,1001.2,776.84Zm0,108.9a47.7,47.7,0,1,0,47.7,47.7A47.89,47.89,0,0,0,1001.2,885.74Zm0,27.3a20.4,20.4,0,1,1-20.4,20.4A20.23,20.23,0,0,1,1001.2,913Z" transform="translate(0.02 -0.03)" style="fill:#02c9fb"/></g></g><g id="e3363a9f-bede-4469-bf87-982faca11473" data-name="Robot"><g id="b2b48572-e847-4936-a290-a3116bfa5ab8" data-name="Bot 33"><path d="M481.1,754.4A12.1,12.1,0,1,0,469,766.5,12,12,0,0,0,481.1,754.4Zm-19.3,0a7.3,7.3,0,1,1,7.3,7.3A7.15,7.15,0,0,1,461.8,754.4Z" transform="translate(0.02 -0.03)" style="fill:#fff"/><path d="M527.1,766.5A12.1,12.1,0,1,0,515,754.4,12,12,0,0,0,527.1,766.5Zm0-19.4a7.3,7.3,0,1,1-7.3,7.3A7.15,7.15,0,0,1,527.1,747.1Z" transform="translate(0.02 -0.03)" style="fill:#fff"/><path d="M557.3,773.7h-4.1a10.27,10.27,0,0,0,.5-2.4V739.9a7.15,7.15,0,0,0-7.3-7.3H449.6a7.15,7.15,0,0,0-7.3,7.3v31.4a6.87,6.87,0,0,0,.5,2.4h-4.1a13.58,13.58,0,0,0-14,12.6,13.42,13.42,0,0,0,12.8,14v28.3a17,17,0,0,0-8,22.5,18.21,18.21,0,0,0,5.1,6.3,4.85,4.85,0,0,0,2.9,1,5.85,5.85,0,0,0,2.2-.5,4.57,4.57,0,0,0,2.7-4.4v-9.7a2.12,2.12,0,0,1,1.2-1.9,1.91,1.91,0,0,1,1-.5,2.19,2.19,0,0,1,1.7.7,2.28,2.28,0,0,1,1,1.9v9.4a4.77,4.77,0,0,0,2.7,4.4,4.44,4.44,0,0,0,4.8-.5,17,17,0,0,0,3.6-23.7,18.81,18.81,0,0,0-6.3-5.3V800.2h9.7a36,36,0,0,0,4.8,15.7v42.6a18.63,18.63,0,0,0-9.4,13.5,5.14,5.14,0,0,0,1,3.9,4.44,4.44,0,0,0,3.6,1.7h28.5a4.46,4.46,0,0,0,3.6-1.7,5.23,5.23,0,0,0,1.2-3.9,19.19,19.19,0,0,0-9.4-13.5V832a37.16,37.16,0,0,0,24.2,0v26.6a18.63,18.63,0,0,0-9.4,13.5,4.53,4.53,0,0,0,1.2,3.9,4.44,4.44,0,0,0,3.6,1.7h28.5a4.46,4.46,0,0,0,3.6-1.7,5.23,5.23,0,0,0,1.2-3.9,19.19,19.19,0,0,0-9.4-13.5V816a35.1,35.1,0,0,0,4.8-15.7h9.7v28.3a16.83,16.83,0,0,0-8,22.5,18.21,18.21,0,0,0,5.1,6.3,4.93,4.93,0,0,0,4.8.5,5.07,5.07,0,0,0,2.9-4.4v-9.4a2.78,2.78,0,0,1,1-2.2,2.19,2.19,0,0,1,1.7-.7c.5,0,.7.2,1.2.5a2.53,2.53,0,0,1,1.2,1.9v9.7a4.77,4.77,0,0,0,2.7,4.4,8.73,8.73,0,0,0,2.2.5,4.27,4.27,0,0,0,2.9-1,17,17,0,0,0,3.4-23.7,18.21,18.21,0,0,0-6.3-5.1V800.3a13.07,13.07,0,0,0,12.6-14A13.21,13.21,0,0,0,557.3,773.7Zm-110-2.4V739.9a2.26,2.26,0,0,1,2.4-2.4h96.8a2.26,2.26,0,0,1,2.4,2.4v31.4a2.26,2.26,0,0,1-2.4,2.4H449.7A2.21,2.21,0,0,1,447.3,771.3Zm9.6,72.6a11.71,11.71,0,0,1-4.8,9.7v-9.4a8.21,8.21,0,0,0-2.4-5.6,7.21,7.21,0,0,0-12.1,5.4v9.7a12,12,0,0,1-2.4-16.9,11.88,11.88,0,0,1,5.6-4.1h.2a3.23,3.23,0,0,1,1.2-.2l.7-.2a5.55,5.55,0,0,1,1.9-.2,9.69,9.69,0,0,1,3.9.7h.2A11.32,11.32,0,0,1,456.9,843.9Zm-9.6-16.7a8.2,8.2,0,0,0-2.2-.2h0a8.2,8.2,0,0,0-2.2.2h-.5V800.4h4.8v26.8Zm-8.5-31.7a8.5,8.5,0,1,1,0-17h23v16.9l-23,.1Zm37,31.2.7.5c.5.5,1.2.7,1.7,1.2l1,.5,1.7,1,.5.2v26.6h-.5l-1-.2a9.68,9.68,0,0,1-1.2-.2H474l-1.2.2-1,.2h-.5V822.8l.2.2,1.7,1.7.2.2A15,15,0,0,1,475.8,826.7Zm14.8,46.2H462A14.26,14.26,0,0,1,478.7,861a14.6,14.6,0,0,1,3.4,1l.5.2A15,15,0,0,1,490.6,872.9Zm-6.1-46.4a21.4,21.4,0,0,1-2.2-1,32.11,32.11,0,0,1-15.7-27.6V778.5h62.9v19.4a31.33,31.33,0,0,1-31.4,31.4,32.52,32.52,0,0,1-13.6-2.8Zm40.2-3.9v33.9h-.5l-1-.2a9.68,9.68,0,0,1-1.2-.2h-4.4l-1.2.2-1,.2H515V829.9l.5-.2,1.5-1,1-.5c.5-.5,1.2-.7,1.7-1.2l.7-.5a18.62,18.62,0,0,0,2.2-1.9l.5-.2a8.27,8.27,0,0,1,1.6-1.8Zm9.4,50.3H505.6A14.26,14.26,0,0,1,522.3,861a14.6,14.6,0,0,1,3.4,1l.5.2A14.83,14.83,0,0,1,534.1,872.9Zm19.6-45.7c-.7,0-1.7-.2-2.4-.2h0a8.2,8.2,0,0,0-2.2.2h-.2V800.4h4.8v26.8Zm9.7,16.7a11.71,11.71,0,0,1-4.8,9.7v-9.7a7.25,7.25,0,0,0-6.8-7.3,7.39,7.39,0,0,0-5.3,1.9,7.79,7.79,0,0,0-2.4,5.6v9.4a12,12,0,0,1-2.4-16.9,11.12,11.12,0,0,1,5.3-4.1h.2a11.77,11.77,0,0,1,8,0h0A12,12,0,0,1,563.4,843.9Zm-6.1-48.4h-23V778.6h23a8.45,8.45,0,1,1,0,16.9Z" transform="translate(0.02 -0.03)" style="fill:#fff"/></g></g><g id="e78c4758-b944-4c76-a821-e85ddc4b6d7e" data-name="Layer 8"><path d="M490.6,522.7l-3.3-2c-2.6-1.8-66.2-43.8-66.2-81.8,0-27,19.2-41.1,38.1-41.1,12.1,0,23.4,5.5,31.5,15.3a40.84,40.84,0,0,1,31.5-15.3c18.8,0,38.1,14.1,38.1,41.1,0,37.9-63.6,79.9-66.2,81.8Z" transform="translate(0.02 -0.03)"/></g><g id="ff46bc3e-8ed8-4226-b1fc-8e590896011c" data-name="Dots"><g id="f1f846c0-d766-4dc0-bdeb-21b841a10f53" data-name="Dots"><circle cx="413.72" cy="711.47" r="2.3" style="fill:#fff"/><circle cx="420.42" cy="716.77" r="2.3" style="fill:#fff"/><circle cx="427.32" cy="722.27" r="2.3" style="fill:#fff"/><circle cx="433.62" cy="727.27" r="2.3" style="fill:#fff"/></g></g><g id="e7d588de-cdd1-409b-b5db-d25cbded6975" data-name="Layer 2"><g style="isolation:isolate"><path d="M213.09,556.29v3.25h-3.23V573h-4.55V559.54h-3.2v-3.25Z" transform="translate(0.02 -0.03)" style="fill:#fff"/><path d="M221,560h.47q3.47,0,3.46,3.22V573h-4.42v-9.15c0-.38-.22-.57-.65-.57h-.44c-.47,0-.7.26-.7.78V573h-4.42V555.59h4.42v5.82A2.14,2.14,0,0,1,221,560Z" transform="translate(0.02 -0.03)" style="fill:#fff"/><path d="M230.4,560h3.3a4,4,0,0,1,2.84.83,3.19,3.19,0,0,1,.86,2.39v6.53a3.18,3.18,0,0,1-.86,2.39,4,4,0,0,1-2.84.83h-3.3a3.94,3.94,0,0,1-2.83-.83,3.18,3.18,0,0,1-.86-2.39v-6.53a3.19,3.19,0,0,1,.86-2.39A4,4,0,0,1,230.4,560Zm2.65,9.33v-5.69c0-.38-.21-.57-.65-.57h-.7c-.43,0-.65.19-.65.57v5.69c0,.38.22.58.65.58h.7C232.84,569.92,233.05,569.72,233.05,569.34Z" transform="translate(0.02 -0.03)" style="fill:#fff"/><path d="M252.27,560h.47q3.45,0,3.45,3.22V573h-4.42v-9.15c0-.38-.21-.57-.65-.57h-.44c-.47,0-.7.26-.7.78V573h-4.42v-9.15c0-.38-.22-.57-.65-.57h-.44c-.47,0-.7.26-.7.78V573h-4.42V560h4.34v1.66a2.09,2.09,0,0,1,2.36-1.66h.47c1.61,0,2.67.55,3.17,1.64a2.05,2.05,0,0,1,.91-1.2A3.13,3.13,0,0,1,252.27,560Z" transform="translate(0.02 -0.03)" style="fill:#fff"/><path d="M264.17,560h4.35v13H264.1v-1.4a2.15,2.15,0,0,1-2.29,1.4h-.47c-2.3,0-3.46-1.07-3.46-3.22v-6.53c0-2.15,1.16-3.22,3.46-3.22h.47a2.09,2.09,0,0,1,2.36,1.66ZM263,569.73h.45c.46,0,.7-.26.7-.78V564c0-.52-.24-.78-.7-.78H263c-.43,0-.65.19-.65.57v5.33C262.3,569.54,262.52,569.73,263,569.73Z" transform="translate(0.02 -0.03)" style="fill:#fff"/><path d="M276.19,569.55v-1c0-.38-.22-.57-.65-.57H274c-2.5,0-3.74-1.07-3.74-3.2v-1.51q0-3.22,3.82-3.22h2.42c2.54,0,3.82,1.07,3.82,3.22v1.1h-4.21v-.89c0-.38-.22-.57-.65-.57h-.26c-.44,0-.65.19-.65.57v1.14c0,.39.21.58.65.58h1.58a4.13,4.13,0,0,1,2.88.82,3.06,3.06,0,0,1,.87,2.35v1.43q0,3.22-3.83,3.22h-2.54q-3.83,0-3.83-3.22v-1.07h4.29v.86c0,.38.22.57.65.57h.32C276,570.12,276.19,569.93,276.19,569.55Z" transform="translate(0.02 -0.03)" style="fill:#fff"/><path d="M291.92,569.73h5.69V573H287.37V556.29h10v3.25h-5.46V563h4.7v3.25h-4.7Z" transform="translate(0.02 -0.03)" style="fill:#fff"/><path d="M305,555.59h4.42V573h-4.34v-1.66a2.09,2.09,0,0,1-2.36,1.66h-.47q-3.47,0-3.46-3.22v-6.53q0-3.22,3.46-3.22h.47a2.15,2.15,0,0,1,2.28,1.4Zm-1.14,14.14h.44c.47,0,.7-.26.7-.78V564c0-.52-.23-.78-.7-.78h-.44c-.43,0-.65.19-.65.57v5.33C303.2,569.54,303.42,569.73,303.85,569.73Z" transform="translate(0.02 -0.03)" style="fill:#fff"/><path d="M311.42,558.71v-3.12H316v3.12ZM315.91,573h-4.42V560h4.42Z" transform="translate(0.02 -0.03)" style="fill:#fff"/><path d="M323.58,569.55v-1c0-.38-.21-.57-.65-.57h-1.58q-3.75,0-3.75-3.2v-1.51q0-3.22,3.83-3.22h2.41q3.82,0,3.83,3.22v1.1h-4.22v-.89c0-.38-.21-.57-.65-.57h-.26c-.43,0-.65.19-.65.57v1.14c0,.39.22.58.65.58h1.59A4.1,4.1,0,0,1,327,566a3.06,3.06,0,0,1,.87,2.35v1.43q0,3.22-3.82,3.22H321.5c-2.54,0-3.82-1.07-3.82-3.22v-1.07H322v.86c0,.38.22.57.65.57h.31C323.37,570.12,323.58,569.93,323.58,569.55Z" transform="translate(0.02 -0.03)" style="fill:#fff"/><path d="M333.13,560h3.3a4,4,0,0,1,2.83.83,3.19,3.19,0,0,1,.86,2.39v6.53a3.18,3.18,0,0,1-.86,2.39,4,4,0,0,1-2.83.83h-3.3a4,4,0,0,1-2.84-.83,3.18,3.18,0,0,1-.86-2.39v-6.53a3.19,3.19,0,0,1,.86-2.39A4,4,0,0,1,333.13,560Zm2.65,9.33v-5.69c0-.38-.22-.57-.65-.57h-.7c-.44,0-.65.19-.65.57v5.69c0,.38.21.58.65.58h.7C335.56,569.92,335.78,569.72,335.78,569.34Z" transform="translate(0.02 -0.03)" style="fill:#fff"/><path d="M348.78,560h.47q3.45,0,3.45,3.22V573h-4.42v-9.15c0-.38-.21-.57-.65-.57h-.44c-.47,0-.7.26-.7.78V573h-4.42V560h4.34v1.66A2.09,2.09,0,0,1,348.78,560Z" transform="translate(0.02 -0.03)" style="fill:#fff"/><path d="M363.42,560h3.3a4,4,0,0,1,2.83.83,3.19,3.19,0,0,1,.86,2.39v6.53a3.18,3.18,0,0,1-.86,2.39,4,4,0,0,1-2.83.83h-3.3a4,4,0,0,1-2.84-.83,3.18,3.18,0,0,1-.86-2.39v-6.53a3.19,3.19,0,0,1,.86-2.39A4,4,0,0,1,363.42,560Zm2.65,9.33v-5.69c0-.38-.22-.57-.65-.57h-.71c-.43,0-.65.19-.65.57v5.69c0,.38.22.58.65.58h.71C365.85,569.92,366.07,569.72,366.07,569.34Z" transform="translate(0.02 -0.03)" style="fill:#fff"/><path d="M379.07,560h.46q3.47,0,3.46,3.22V573h-4.42v-9.15c0-.38-.21-.57-.65-.57h-.44c-.47,0-.7.26-.7.78V573h-4.42V560h4.34v1.66A2.09,2.09,0,0,1,379.07,560Z" transform="translate(0.02 -0.03)" style="fill:#fff"/><path d="M395.11,565h-4.27v-1.2c0-.38-.21-.57-.65-.57h-.44c-.43,0-.65.19-.65.57v5.33c0,.38.22.57.65.57h.44c.44,0,.65-.19.65-.57V568h4.27v1.79c0,2.15-1.28,3.22-3.82,3.22H388.5c-2.54,0-3.82-1.07-3.82-3.22v-6.53c0-2.15,1.28-3.22,3.82-3.22h2.79c2.54,0,3.82,1.07,3.82,3.22Z" transform="translate(0.02 -0.03)" style="fill:#fff"/><path d="M400.23,560h3.17q3.83,0,3.82,3.22v4.42h-6.63v1.72c0,.38.22.57.65.57h1.15c.43,0,.65-.21.65-.62v-.73h4.18v1.17q0,3.22-3.82,3.22h-3.17q-3.83,0-3.82-3.22v-6.53Q396.41,560,400.23,560Zm.36,5.25H403v-1.64c0-.38-.22-.57-.65-.57h-1.15c-.43,0-.65.19-.65.57Z" transform="translate(0.02 -0.03)" style="fill:#fff"/><path d="M419.7,569.55v-1c0-.38-.21-.57-.65-.57h-1.58q-3.75,0-3.75-3.2v-1.51q0-3.22,3.83-3.22H420q3.82,0,3.83,3.22v1.1h-4.22v-.89c0-.38-.21-.57-.65-.57h-.26c-.43,0-.65.19-.65.57v1.14c0,.39.22.58.65.58h1.59a4.1,4.1,0,0,1,2.87.82,3.06,3.06,0,0,1,.87,2.35v1.43q0,3.22-3.82,3.22h-2.55c-2.54,0-3.82-1.07-3.82-3.22v-1.07h4.29v.86c0,.38.22.57.65.57h.31C419.49,570.12,419.7,569.93,419.7,569.55Z" transform="translate(0.02 -0.03)" style="fill:#fff"/><path d="M431.72,560h4.34v13h-4.42v-1.4a2.14,2.14,0,0,1-2.29,1.4h-.47c-2.3,0-3.46-1.07-3.46-3.22v-6.53c0-2.15,1.16-3.22,3.46-3.22h.47a2.11,2.11,0,0,1,2.37,1.66Zm-1.23,9.72h.45c.46,0,.7-.26.7-.78V564c0-.52-.24-.78-.7-.78h-.45c-.43,0-.65.19-.65.57v5.33C429.84,569.54,430.06,569.73,430.49,569.73Z" transform="translate(0.02 -0.03)" style="fill:#fff"/><path d="M438.06,558.71v-3.12h4.58v3.12Zm4.5,14.27h-4.42V560h4.42Z" transform="translate(0.02 -0.03)" style="fill:#fff"/><path d="M450.59,555.59H455V573h-4.34v-1.66A2.09,2.09,0,0,1,448.3,573h-.46q-3.46,0-3.46-3.22v-6.53q0-3.22,3.46-3.22h.46a2.15,2.15,0,0,1,2.29,1.4Zm-1.14,14.14h.44c.47,0,.7-.26.7-.78V564c0-.52-.23-.78-.7-.78h-.44c-.44,0-.65.19-.65.57v5.33C448.8,569.54,449,569.73,449.45,569.73Z" transform="translate(0.02 -0.03)" style="fill:#fff"/><path d="M457.09,564.27V560h4.47v4.26Zm0,8.71v-4.26h4.47V573Z" transform="translate(0.02 -0.03)" style="fill:#fff"/><path d="M468.84,556.29h4v6.92h-4Zm5.23,0h4v6.92h-4Z" transform="translate(0.02 -0.03)" style="fill:#fff"/><path d="M480.13,556.29h4.55V573h-4.55Z" transform="translate(0.02 -0.03)" style="fill:#fff"/><path d="M498.66,560h.47q3.47,0,3.46,3.22V573h-4.42v-9.15c0-.38-.22-.57-.65-.57h-.44c-.47,0-.7.26-.7.78V573H492V555.59h4.42v5.82A2.15,2.15,0,0,1,498.66,560Z" transform="translate(0.02 -0.03)" style="fill:#fff"/><path d="M510.57,560h4.34v13h-4.42v-1.4a2.13,2.13,0,0,1-2.28,1.4h-.47q-3.47,0-3.46-3.22v-6.53q0-3.22,3.46-3.22h.47a2.09,2.09,0,0,1,2.36,1.66Zm-1.22,9.72h.44c.47,0,.7-.26.7-.78V564c0-.52-.23-.78-.7-.78h-.44c-.43,0-.65.19-.65.57v5.33C508.7,569.54,508.92,569.73,509.35,569.73Z" transform="translate(0.02 -0.03)" style="fill:#fff"/><path d="M516,560h4.4l1.58,8.32,1.56-8.32h4.4l-3.33,13h-5.28Z" transform="translate(0.02 -0.03)" style="fill:#fff"/><path d="M532.49,560h3.17q3.83,0,3.82,3.22v4.42h-6.63v1.72c0,.38.22.57.65.57h1.15c.43,0,.65-.21.65-.62v-.73h4.18v1.17q0,3.22-3.82,3.22h-3.17q-3.82,0-3.82-3.22v-6.53Q528.67,560,532.49,560Zm.36,5.25h2.45v-1.64c0-.38-.22-.57-.65-.57H533.5c-.43,0-.65.19-.65.57Z" transform="translate(0.02 -0.03)" style="fill:#fff"/><path d="M553.08,560h.47c2.3,0,3.46,1.07,3.46,3.22V573h-4.42v-9.15c0-.38-.22-.57-.65-.57h-.44c-.47,0-.71.26-.71.78V573h-4.42V560h4.35v1.66A2.09,2.09,0,0,1,553.08,560Z" transform="translate(0.02 -0.03)" style="fill:#fff"/><path d="M562.52,560h3.3a4,4,0,0,1,2.84.83,3.19,3.19,0,0,1,.85,2.39v6.53a3.17,3.17,0,0,1-.85,2.39,4,4,0,0,1-2.84.83h-3.3a3.94,3.94,0,0,1-2.83-.83,3.14,3.14,0,0,1-.86-2.39v-6.53a3.15,3.15,0,0,1,.86-2.39A4,4,0,0,1,562.52,560Zm2.65,9.33v-5.69c0-.38-.21-.57-.65-.57h-.7c-.43,0-.65.19-.65.57v5.69c0,.38.22.58.65.58h.7C565,569.92,565.17,569.72,565.17,569.34Z" transform="translate(0.02 -0.03)" style="fill:#fff"/><path d="M578,563.26H576.4v5.9c0,.38.22.57.65.57h1V573H575.8c-2.54,0-3.82-1.07-3.82-3.22v-6.5h-1.43V560H572v-2.55h4.42V560H578Z" transform="translate(0.02 -0.03)" style="fill:#fff"/><path d="M591.54,558.71h-1.38c-.44,0-.65.19-.65.57V560h2v3.25h-2V573h-4.42v-9.72h-1.33V560h1.33v-1.2q0-3.22,3.82-3.22h2.63Z" transform="translate(0.02 -0.03)" style="fill:#fff"/><path d="M598.74,560h4.34v13h-4.42v-1.4a2.14,2.14,0,0,1-2.29,1.4h-.47q-3.45,0-3.45-3.22v-6.53q0-3.22,3.45-3.22h.47a2.1,2.1,0,0,1,2.37,1.66Zm-1.22,9.72H598c.46,0,.7-.26.7-.78V564c0-.52-.24-.78-.7-.78h-.44c-.44,0-.65.19-.65.57v5.33C596.87,569.54,597.08,569.73,597.52,569.73Z" transform="translate(0.02 -0.03)" style="fill:#fff"/><path d="M605.08,558.71v-3.12h4.58v3.12Zm4.5,14.27h-4.42V560h4.42Z" transform="translate(0.02 -0.03)" style="fill:#fff"/><path d="M616.08,573h-4.42V555.59h4.42Z" transform="translate(0.02 -0.03)" style="fill:#fff"/><path d="M621.72,560h3.17q3.83,0,3.82,3.22v4.42h-6.63v1.72c0,.38.22.57.65.57h1.15c.43,0,.65-.21.65-.62v-.73h4.18v1.17q0,3.22-3.82,3.22h-3.17q-3.83,0-3.82-3.22v-6.53Q617.9,560,621.72,560Zm.36,5.25h2.45v-1.64c0-.38-.22-.57-.65-.57h-1.15c-.43,0-.65.19-.65.57Z" transform="translate(0.02 -0.03)" style="fill:#fff"/><path d="M636.36,555.59h4.42V573h-4.34v-1.66a2.11,2.11,0,0,1-2.37,1.66h-.47c-2.3,0-3.46-1.07-3.46-3.22v-6.53c0-2.15,1.16-3.22,3.46-3.22h.47a2.15,2.15,0,0,1,2.29,1.4Zm-1.15,14.14h.45c.46,0,.7-.26.7-.78V564c0-.52-.24-.78-.7-.78h-.45c-.43,0-.65.19-.65.57v5.33C634.56,569.54,634.78,569.73,635.21,569.73Z" transform="translate(0.02 -0.03)" style="fill:#fff"/><path d="M642.86,573v-4.26h4.47V573Z" transform="translate(0.02 -0.03)" style="fill:#fff"/><path d="M654.61,556.29h4.55V573h-4.55Z" transform="translate(0.02 -0.03)" style="fill:#fff"/><path d="M661.24,556.29h4.24v6.92h-4.24Z" transform="translate(0.02 -0.03)" style="fill:#fff"/><path d="M666.52,560h4.39l1.59,8.32,1.56-8.32h4.39l-3.33,13h-5.27Z" transform="translate(0.02 -0.03)" style="fill:#fff"/><path d="M683.05,560h3.18c2.54,0,3.82,1.07,3.82,3.22v4.42h-6.63v1.72c0,.38.21.57.65.57h1.14c.43,0,.65-.21.65-.62v-.73h4.19v1.17c0,2.15-1.28,3.22-3.82,3.22h-3.18c-2.54,0-3.82-1.07-3.82-3.22v-6.53C679.23,561.08,680.51,560,683.05,560Zm.37,5.25h2.44v-1.64c0-.38-.22-.57-.65-.57h-1.14c-.44,0-.65.19-.65.57Z" transform="translate(0.02 -0.03)" style="fill:#fff"/><path d="M696.94,572.65V560h4.42v13.1c0,2.15-1.28,3.23-3.82,3.23h-2.11v-3.12h.86C696.72,573.22,696.94,573,696.94,572.65Zm-.08-13.94v-3.12h4.58v3.12Z" transform="translate(0.02 -0.03)" style="fill:#fff"/><path d="M709.52,560h4.42v13H709.6v-1.66a2.09,2.09,0,0,1-2.37,1.66h-.46q-3.46,0-3.46-3.22V560h4.42v9.15c0,.38.21.57.65.57h.44c.47,0,.7-.26.7-.78Z" transform="translate(0.02 -0.03)" style="fill:#fff"/><path d="M721.61,569.55v-1c0-.38-.22-.57-.65-.57h-1.58q-3.75,0-3.75-3.2v-1.51q0-3.22,3.82-3.22h2.42q3.82,0,3.82,3.22v1.1h-4.21v-.89c0-.38-.22-.57-.65-.57h-.26c-.43,0-.65.19-.65.57v1.14c0,.39.22.58.65.58h1.59A4.1,4.1,0,0,1,725,566a3.06,3.06,0,0,1,.87,2.35v1.43q0,3.22-3.82,3.22h-2.55q-3.82,0-3.82-3.22v-1.07H720v.86c0,.38.21.57.65.57H721C721.39,570.12,721.61,569.93,721.61,569.55Z" transform="translate(0.02 -0.03)" style="fill:#fff"/><path d="M734.17,563.26h-1.64v5.9c0,.38.22.57.65.57h1V573h-2.21q-3.82,0-3.82-3.22v-6.5h-1.43V560h1.43v-2.55h4.42V560h1.64Z" transform="translate(0.02 -0.03)" style="fill:#fff"/></g><g style="isolation:isolate"><path d="M210,589.91h-1.38c-.43,0-.65.19-.65.57v.73h2v3.25h-2v9.72h-4.42v-9.72h-1.33v-3.25h1.33V590q0-3.22,3.82-3.22H210Z" transform="translate(0.02 -0.03)" style="fill:#fff"/><path d="M214.75,591.21h3.3a4,4,0,0,1,2.84.83,3.19,3.19,0,0,1,.85,2.39V601a3.17,3.17,0,0,1-.85,2.39,4,4,0,0,1-2.84.83h-3.3a3.94,3.94,0,0,1-2.83-.83,3.14,3.14,0,0,1-.86-2.39v-6.53a3.15,3.15,0,0,1,.86-2.39A4,4,0,0,1,214.75,591.21Zm2.65,9.33v-5.69c0-.38-.21-.57-.65-.57h-.7c-.43,0-.65.19-.65.57v5.69c0,.38.22.58.65.58h.7C217.19,601.12,217.4,600.92,217.4,600.54Z" transform="translate(0.02 -0.03)" style="fill:#fff"/><path d="M229.78,591.21h4.42v13h-4.34v-1.66a2.11,2.11,0,0,1-2.37,1.66H227c-2.3,0-3.46-1.07-3.46-3.22v-9.75H228v9.15c0,.38.22.57.65.57h.45c.46,0,.7-.26.7-.78Z" transform="translate(0.02 -0.03)" style="fill:#fff"/><path d="M243,591.21h.46q3.47,0,3.46,3.22v9.75h-4.42V595c0-.38-.22-.57-.65-.57h-.44c-.47,0-.7.26-.7.78v8.94h-4.42v-13h4.34v1.66A2.09,2.09,0,0,1,243,591.21Z" transform="translate(0.02 -0.03)" style="fill:#fff"/><path d="M254.82,586.79h4.42v17.39h-4.35v-1.66a2.09,2.09,0,0,1-2.36,1.66h-.47q-3.47,0-3.46-3.22v-6.53q0-3.23,3.46-3.22h.47a2.16,2.16,0,0,1,2.29,1.4Zm-1.15,14.14h.44c.47,0,.71-.26.71-.78v-4.91c0-.52-.24-.78-.71-.78h-.44c-.43,0-.65.19-.65.57v5.33C253,600.74,253.24,600.93,253.67,600.93Z" transform="translate(0.02 -0.03)" style="fill:#fff"/><path d="M272.83,587.49v16.69h-4.55V590.74h-2.34v-3.25Z" transform="translate(0.02 -0.03)" style="fill:#fff"/><path d="M285.94,590.72V601q0,3.22-3.83,3.22h-3.45q-3.82,0-3.83-3.22V590.72q0-3.22,3.83-3.23h3.45Q285.94,587.49,285.94,590.72Zm-4.55,9.64v-9.05c0-.38-.22-.57-.65-.57H280c-.43,0-.65.19-.65.57v9.05c0,.38.22.57.65.57h.71C281.17,600.93,281.39,600.74,281.39,600.36Z" transform="translate(0.02 -0.03)" style="fill:#fff"/><path d="M287.94,608.06v-8.14h4.47v2.34l-3.12,5.8Z" transform="translate(0.02 -0.03)" style="fill:#fff"/><path d="M305.51,590.72V601q0,3.22-3.82,3.22h-3.46c-2.54,0-3.82-1.07-3.82-3.22V590.72c0-2.15,1.28-3.23,3.82-3.23h3.46Q305.52,587.49,305.51,590.72ZM301,600.36v-9.05c0-.38-.21-.57-.65-.57h-.7c-.43,0-.65.19-.65.57v9.05c0,.38.22.57.65.57h.7C300.75,600.93,301,600.74,301,600.36Z" transform="translate(0.02 -0.03)" style="fill:#fff"/><path d="M318.54,590.72V601q0,3.22-3.82,3.22h-3.46q-3.83,0-3.82-3.22V590.72q0-3.22,3.82-3.23h3.46Q318.54,587.49,318.54,590.72ZM314,600.36v-9.05c0-.38-.22-.57-.65-.57h-.7c-.44,0-.65.19-.65.57v9.05c0,.38.21.57.65.57h.7C313.77,600.93,314,600.74,314,600.36Z" transform="translate(0.02 -0.03)" style="fill:#fff"/><path d="M331.57,590.72V601q0,3.22-3.83,3.22h-3.45q-3.82,0-3.83-3.22V590.72q0-3.22,3.83-3.23h3.45Q331.57,587.49,331.57,590.72ZM327,600.36v-9.05c0-.38-.22-.57-.65-.57h-.71c-.43,0-.65.19-.65.57v9.05c0,.38.22.57.65.57h.71C326.8,600.93,327,600.74,327,600.36Z" transform="translate(0.02 -0.03)" style="fill:#fff"/><path d="M351.2,591.21h4.05l-2.78,13h-4.39l-1.59-7.64-1.61,7.64h-4.4l-2.62-13H342l1,8.19,1.69-8.19h3.87l1.51,8.14Z" transform="translate(0.02 -0.03)" style="fill:#fff"/><path d="M362.45,591.21h4.35v13h-4.42v-1.4a2.15,2.15,0,0,1-2.29,1.4h-.47q-3.47,0-3.46-3.22v-6.53q0-3.23,3.46-3.22h.47a2.09,2.09,0,0,1,2.36,1.66Zm-1.22,9.72h.44c.47,0,.71-.26.71-.78v-4.91c0-.52-.24-.78-.71-.78h-.44c-.43,0-.65.19-.65.57v5.33C360.58,600.74,360.8,600.93,361.23,600.93Z" transform="translate(0.02 -0.03)" style="fill:#fff"/><path d="M371.73,607.54h-2.18v-3.2h1.93a2,2,0,0,0,1-.21,1.74,1.74,0,0,0,.63-1H371.4l-3.57-11.93h4.63l1.59,7.9,1.4-7.9h4.45l-3.25,12.71a5.36,5.36,0,0,1-1.67,2.71A5.06,5.06,0,0,1,371.73,607.54Z" transform="translate(0.02 -0.03)" style="fill:#fff"/><path d="M386.53,600.75v-1c0-.38-.22-.57-.65-.57h-1.59q-3.74,0-3.74-3.2v-1.51q0-3.23,3.82-3.22h2.42q3.82,0,3.82,3.22v1.1H386.4v-.89c0-.38-.22-.57-.65-.57h-.26c-.43,0-.65.19-.65.57v1.15c0,.38.22.57.65.57h1.58a4.11,4.11,0,0,1,2.88.82,3.06,3.06,0,0,1,.87,2.35V601c0,2.15-1.28,3.22-3.82,3.22h-2.55q-3.82,0-3.82-3.22v-1.07h4.29v.86c0,.38.21.57.65.57h.31C386.31,601.32,386.53,601.13,386.53,600.75Z" transform="translate(0.02 -0.03)" style="fill:#fff"/><path d="M404.29,594.46h-1.64v5.9c0,.38.21.57.65.57h1v3.25h-2.21q-3.82,0-3.82-3.22v-6.5H396.8v-3.25h1.43v-2.55h4.42v2.55h1.64Z" transform="translate(0.02 -0.03)" style="fill:#fff"/><path d="M412.29,591.21h.47q3.47,0,3.46,3.22v9.75H411.8V595c0-.38-.22-.57-.65-.57h-.44c-.47,0-.7.26-.7.78v8.94h-4.42V586.79H410v5.82A2.15,2.15,0,0,1,412.29,591.21Z" transform="translate(0.02 -0.03)" style="fill:#fff"/><path d="M424.2,591.21h4.34v13h-4.42v-1.4a2.14,2.14,0,0,1-2.28,1.4h-.47q-3.47,0-3.46-3.22v-6.53q0-3.23,3.46-3.22h.47a2.09,2.09,0,0,1,2.36,1.66ZM423,600.93h.44c.47,0,.7-.26.7-.78v-4.91c0-.52-.23-.78-.7-.78H423c-.43,0-.65.19-.65.57v5.33C422.33,600.74,422.55,600.93,423,600.93Z" transform="translate(0.02 -0.03)" style="fill:#fff"/><path d="M437.2,594.46h-1.64v5.9c0,.38.22.57.65.57h1v3.25H435q-3.83,0-3.83-3.22v-6.5h-1.43v-3.25h1.43v-2.55h4.42v2.55h1.64Z" transform="translate(0.02 -0.03)" style="fill:#fff"/><path d="M456.13,591.21h4.06l-2.79,13H453l-1.59-7.64-1.61,7.64h-4.39l-2.63-13h4.11l1,8.19,1.69-8.19h3.88l1.5,8.14Z" transform="translate(0.02 -0.03)" style="fill:#fff"/><path d="M464.92,591.21h3.3a4,4,0,0,1,2.83.83,3.15,3.15,0,0,1,.86,2.39V601a3.14,3.14,0,0,1-.86,2.39,3.94,3.94,0,0,1-2.83.83h-3.3a4,4,0,0,1-2.84-.83,3.17,3.17,0,0,1-.85-2.39v-6.53a3.19,3.19,0,0,1,.85-2.39A4,4,0,0,1,464.92,591.21Zm2.65,9.33v-5.69c0-.38-.22-.57-.65-.57h-.7c-.44,0-.65.19-.65.57v5.69c0,.38.21.58.65.58h.7C467.35,601.12,467.57,600.92,467.57,600.54Z" transform="translate(0.02 -0.03)" style="fill:#fff"/><path d="M480.57,591.21H481q3.45,0,3.45,3.22v9.75h-4.42V595c0-.38-.21-.57-.65-.57H479c-.47,0-.7.26-.7.78v8.94h-4.42v-13h4.34v1.66A2.1,2.1,0,0,1,480.57,591.21Z" transform="translate(0.02 -0.03)" style="fill:#fff"/><path d="M486.44,587.49h4.24v6.92h-4.24Z" transform="translate(0.02 -0.03)" style="fill:#fff"/><path d="M499.34,594.46H497.7v5.9c0,.38.22.57.65.57h1v3.25H497.1c-2.54,0-3.82-1.07-3.82-3.22v-6.5h-1.43v-3.25h1.43v-2.55h4.42v2.55h1.64Z" transform="translate(0.02 -0.03)" style="fill:#fff"/><path d="M518.27,591.21h4.05l-2.78,13h-4.39l-1.59-7.64L512,604.18h-4.39l-2.63-13H509l1,8.19,1.69-8.19h3.87l1.51,8.14Z" transform="translate(0.02 -0.03)" style="fill:#fff"/><path d="M527.06,591.21h3.3a4,4,0,0,1,2.83.83,3.19,3.19,0,0,1,.86,2.39V601a3.18,3.18,0,0,1-.86,2.39,3.94,3.94,0,0,1-2.83.83h-3.3a4,4,0,0,1-2.84-.83,3.18,3.18,0,0,1-.86-2.39v-6.53a3.19,3.19,0,0,1,.86-2.39A4,4,0,0,1,527.06,591.21Zm2.65,9.33v-5.69c0-.38-.22-.57-.65-.57h-.7c-.44,0-.65.19-.65.57v5.69c0,.38.21.58.65.58h.7C529.49,601.12,529.71,600.92,529.71,600.54Z" transform="translate(0.02 -0.03)" style="fill:#fff"/><path d="M543.15,591.08h.39v3.85h-1.48c-1.09,0-1.64.59-1.64,1.77v7.48H536v-13h4.34v2a2.57,2.57,0,0,1,.94-1.56A2.94,2.94,0,0,1,543.15,591.08Z" transform="translate(0.02 -0.03)" style="fill:#fff"/><path d="M549.13,604.18h-4.42V586.79h4.42v10.32l2.44-5.9h4.58l-2.78,6.4,2.78,6.57h-4.6l-2.42-6Z" transform="translate(0.02 -0.03)" style="fill:#fff"/><path d="M557.06,604.18v-4.26h4.47v4.26Z" transform="translate(0.02 -0.03)" style="fill:#fff"/><path d="M563.61,587.49h4v6.92h-4Zm5.23,0h4v6.92h-4Z" transform="translate(0.02 -0.03)" style="fill:#fff"/><path d="M601.23,587.49h4.5l-3.53,16.69H597l-1.85-9.95-1.84,9.95h-5.23l-3.54-16.69h4.74l1.4,11.23,2.24-11.23h4.44l2.24,11.23Z" transform="translate(0.02 -0.03)" style="fill:#fff"/><path d="M610.59,591.21h3.17q3.82,0,3.83,3.22v4.42H611v1.72c0,.38.21.57.65.57h1.14c.43,0,.65-.21.65-.62v-.73h4.19V601q0,3.22-3.83,3.22h-3.17q-3.83,0-3.82-3.22v-6.53Q606.77,591.2,610.59,591.21Zm.37,5.25h2.44v-1.64c0-.38-.22-.57-.65-.57h-1.14c-.44,0-.65.19-.65.57Z" transform="translate(0.02 -0.03)" style="fill:#fff"/><path d="M631.18,591.21h.47q3.47,0,3.46,3.22v9.75h-4.42V595c0-.38-.22-.57-.65-.57h-.44c-.47,0-.7.26-.7.78v8.94h-4.42V586.79h4.42v5.82A2.15,2.15,0,0,1,631.18,591.21Z" transform="translate(0.02 -0.03)" style="fill:#fff"/><path d="M643.09,591.21h4.34v13H643v-1.4a2.13,2.13,0,0,1-2.28,1.4h-.47q-3.46,0-3.46-3.22v-6.53q0-3.23,3.46-3.22h.47a2.09,2.09,0,0,1,2.36,1.66Zm-1.22,9.72h.44c.47,0,.7-.26.7-.78v-4.91c0-.52-.23-.78-.7-.78h-.44c-.43,0-.65.19-.65.57v5.33C641.22,600.74,641.44,600.93,641.87,600.93Z" transform="translate(0.02 -0.03)" style="fill:#fff"/><path d="M648.47,591.21h4.4l1.58,8.32,1.56-8.32h4.4l-3.33,13H651.8Z" transform="translate(0.02 -0.03)" style="fill:#fff"/><path d="M665,591.21h3.17q3.83,0,3.82,3.22v4.42h-6.63v1.72c0,.38.22.57.65.57h1.15c.43,0,.65-.21.65-.62v-.73H672V601q0,3.22-3.82,3.22H665q-3.82,0-3.82-3.22v-6.53Q661.19,591.2,665,591.21Zm.36,5.25h2.45v-1.64c0-.38-.22-.57-.65-.57H666c-.43,0-.65.19-.65.57Z" transform="translate(0.02 -0.03)" style="fill:#fff"/><path d="M685.6,591.21h.47q3.46,0,3.46,3.22V601q0,3.22-3.46,3.22h-.47a2.15,2.15,0,0,1-2.29-1.4v4.76h-4.42V591.21h4.35v1.66A2.09,2.09,0,0,1,685.6,591.21Zm-.49,9.15V595c0-.38-.22-.57-.65-.57H684c-.47,0-.71.26-.71.78v4.91c0,.52.24.78.71.78h.44C684.89,600.93,685.11,600.74,685.11,600.36Z" transform="translate(0.02 -0.03)" style="fill:#fff"/><path d="M698.5,591.08h.39v3.85h-1.48c-1.1,0-1.64.59-1.64,1.77v7.48h-4.42v-13h4.34v2a2.61,2.61,0,0,1,.93-1.56A3,3,0,0,1,698.5,591.08Z" transform="translate(0.02 -0.03)" style="fill:#fff"/><path d="M703.62,591.21h3.3a4,4,0,0,1,2.83.83,3.15,3.15,0,0,1,.86,2.39V601a3.14,3.14,0,0,1-.86,2.39,3.94,3.94,0,0,1-2.83.83h-3.3a3.94,3.94,0,0,1-2.83-.83,3.14,3.14,0,0,1-.86-2.39v-6.53a3.15,3.15,0,0,1,.86-2.39A4,4,0,0,1,703.62,591.21Zm2.65,9.33v-5.69c0-.38-.22-.57-.65-.57h-.7c-.43,0-.65.19-.65.57v5.69c0,.38.22.58.65.58h.7C706.05,601.12,706.27,600.92,706.27,600.54Z" transform="translate(0.02 -0.03)" style="fill:#fff"/><path d="M718.52,586.79h4.42v17.39h-4.35v-1.66a2.09,2.09,0,0,1-2.36,1.66h-.47c-2.3,0-3.46-1.07-3.46-3.22v-6.53c0-2.15,1.16-3.22,3.46-3.22h.47a2.16,2.16,0,0,1,2.29,1.4Zm-1.15,14.14h.44c.47,0,.71-.26.71-.78v-4.91c0-.52-.24-.78-.71-.78h-.44c-.43,0-.65.19-.65.57v5.33C716.72,600.74,716.94,600.93,717.37,600.93Z" transform="translate(0.02 -0.03)" style="fill:#fff"/><path d="M731.1,591.21h4.42v13h-4.34v-1.66a2.09,2.09,0,0,1-2.37,1.66h-.47q-3.45,0-3.45-3.22v-9.75h4.42v9.15c0,.38.21.57.65.57h.44c.47,0,.7-.26.7-.78Z" transform="translate(0.02 -0.03)" style="fill:#fff"/><path d="M747.77,596.23H743.5V595c0-.38-.21-.57-.65-.57h-.44c-.43,0-.65.19-.65.57v5.33c0,.38.22.57.65.57h.44c.44,0,.65-.19.65-.57v-1.19h4.27V601q0,3.22-3.83,3.22h-2.78c-2.54,0-3.82-1.07-3.82-3.22v-6.53c0-2.15,1.28-3.22,3.82-3.22h2.78q3.82,0,3.83,3.22Z" transform="translate(0.02 -0.03)" style="fill:#fff"/><path d="M755.9,594.46h-1.63v5.9c0,.38.21.57.65.57h1v3.25h-2.21q-3.82,0-3.82-3.22v-6.5h-1.43v-3.25h1.43v-2.55h4.42v2.55h1.63Z" transform="translate(0.02 -0.03)" style="fill:#fff"/><path d="M762.79,600.75v-1c0-.38-.21-.57-.65-.57h-1.58q-3.75,0-3.75-3.2v-1.51q0-3.23,3.83-3.22h2.41q3.83,0,3.83,3.22v1.1h-4.22v-.89c0-.38-.21-.57-.65-.57h-.26c-.43,0-.65.19-.65.57v1.15c0,.38.22.57.65.57h1.59a4.1,4.1,0,0,1,2.87.82,3.06,3.06,0,0,1,.87,2.35V601q0,3.22-3.82,3.22h-2.55c-2.54,0-3.82-1.07-3.82-3.22v-1.07h4.29v.86c0,.38.22.57.65.57h.31C762.58,601.32,762.79,601.13,762.79,600.75Z" transform="translate(0.02 -0.03)" style="fill:#fff"/></g><g style="isolation:isolate"><path d="M209.11,622.41h4.42v13h-4.34v-1.66a2.11,2.11,0,0,1-2.37,1.66h-.47c-2.3,0-3.46-1.07-3.46-3.22v-9.75h4.42v9.15c0,.38.22.57.65.57h.45c.46,0,.7-.26.7-.78Z" transform="translate(0.02 -0.03)" style="fill:#fff"/><path d="M222.32,622.41h.46q3.47,0,3.46,3.22v9.75h-4.42v-9.15c0-.38-.22-.57-.65-.57h-.44c-.47,0-.7.26-.7.78v8.94h-4.42v-13H220v1.66A2.09,2.09,0,0,1,222.32,622.41Z" transform="translate(0.02 -0.03)" style="fill:#fff"/><path d="M234.15,618h4.42v17.39h-4.35v-1.66a2.09,2.09,0,0,1-2.36,1.66h-.47q-3.46,0-3.46-3.22v-6.53q0-3.23,3.46-3.22h.47a2.16,2.16,0,0,1,2.29,1.4ZM233,632.13h.44c.47,0,.71-.26.71-.78v-4.91c0-.52-.24-.78-.71-.78H233c-.43,0-.65.19-.65.57v5.33C232.35,631.94,232.57,632.13,233,632.13Z" transform="translate(0.02 -0.03)" style="fill:#fff"/><path d="M244.21,622.41h3.17q3.83,0,3.82,3.22v4.42h-6.63v1.72c0,.38.22.57.65.57h1.15c.43,0,.65-.21.65-.62V631h4.18v1.17q0,3.23-3.82,3.22h-3.17q-3.83,0-3.82-3.22v-6.53Q240.39,622.41,244.21,622.41Zm.36,5.25H247V626c0-.38-.22-.57-.65-.57h-1.15c-.43,0-.65.19-.65.57Z" transform="translate(0.02 -0.03)" style="fill:#fff"/><path d="M260,622.28h.39v3.85H259c-1.09,0-1.64.59-1.64,1.76v7.49h-4.42v-13h4.34v2a2.57,2.57,0,0,1,.94-1.56A2.94,2.94,0,0,1,260,622.28Z" transform="translate(0.02 -0.03)" style="fill:#fff"/><path d="M277,627.43H272.7v-1.2c0-.38-.21-.57-.65-.57h-.44c-.43,0-.65.19-.65.57v5.33c0,.38.22.57.65.57h.44c.44,0,.65-.19.65-.57v-1.19H277v1.79q0,3.23-3.83,3.22h-2.78q-3.83,0-3.82-3.22v-6.53q0-3.23,3.82-3.22h2.78q3.83,0,3.83,3.22Z" transform="translate(0.02 -0.03)" style="fill:#fff"/><path d="M282.09,622.41h3.3a4,4,0,0,1,2.83.83,3.15,3.15,0,0,1,.86,2.39v6.53a3.14,3.14,0,0,1-.86,2.39,3.94,3.94,0,0,1-2.83.83h-3.3a4,4,0,0,1-2.84-.83,3.17,3.17,0,0,1-.85-2.39v-6.53a3.19,3.19,0,0,1,.85-2.39A4,4,0,0,1,282.09,622.41Zm2.65,9.33v-5.69c0-.38-.22-.57-.65-.57h-.7c-.43,0-.65.19-.65.57v5.69c0,.38.22.57.65.57h.7C284.52,632.31,284.74,632.12,284.74,631.74Z" transform="translate(0.02 -0.03)" style="fill:#fff"/><path d="M297.74,622.41h.47c2.3,0,3.46,1.07,3.46,3.22v9.75h-4.42v-9.15c0-.38-.22-.57-.65-.57h-.45c-.46,0-.7.26-.7.78v8.94H291v-13h4.34v1.66A2.11,2.11,0,0,1,297.74,622.41Z" transform="translate(0.02 -0.03)" style="fill:#fff"/><path d="M309.21,632v-1c0-.38-.22-.57-.65-.57H307c-2.5,0-3.74-1.07-3.74-3.2v-1.51q0-3.23,3.82-3.22h2.42c2.54,0,3.82,1.07,3.82,3.22v1.09h-4.21v-.88c0-.38-.22-.57-.65-.57h-.26c-.44,0-.65.19-.65.57V627c0,.39.21.58.65.58h1.58a4.08,4.08,0,0,1,2.87.82,3,3,0,0,1,.88,2.35v1.43q0,3.23-3.83,3.22h-2.54q-3.83,0-3.83-3.22v-1.07h4.29V632c0,.38.22.57.65.57h.32C309,632.52,309.21,632.33,309.21,632Z" transform="translate(0.02 -0.03)" style="fill:#fff"/><path d="M321.76,625.66h-1.63v5.9c0,.38.21.57.65.57h1v3.25h-2.21q-3.82,0-3.82-3.22v-6.5h-1.43v-3.25h1.43v-2.55h4.42v2.55h1.63Z" transform="translate(0.02 -0.03)" style="fill:#fff"/><path d="M330.21,622.28h.39v3.85h-1.48c-1.09,0-1.64.59-1.64,1.76v7.49h-4.42v-13h4.35v2a2.56,2.56,0,0,1,.93-1.56A3,3,0,0,1,330.21,622.28Z" transform="translate(0.02 -0.03)" style="fill:#fff"/><path d="M337.86,622.41h4.42v13h-4.34v-1.66a2.11,2.11,0,0,1-2.37,1.66h-.47c-2.3,0-3.46-1.07-3.46-3.22v-9.75h4.42v9.15c0,.38.22.57.65.57h.45c.46,0,.7-.26.7-.78Z" transform="translate(0.02 -0.03)" style="fill:#fff"/><path d="M354.52,627.43h-4.26v-1.2c0-.38-.22-.57-.65-.57h-.44c-.44,0-.65.19-.65.57v5.33c0,.38.21.57.65.57h.44c.43,0,.65-.19.65-.57v-1.19h4.26v1.79q0,3.23-3.82,3.22h-2.78q-3.82,0-3.82-3.22v-6.53q0-3.23,3.82-3.22h2.78q3.82,0,3.82,3.22Z" transform="translate(0.02 -0.03)" style="fill:#fff"/><path d="M362.66,625.66H361v5.9c0,.38.22.57.65.57h1v3.25h-2.21c-2.54,0-3.82-1.07-3.82-3.22v-6.5h-1.43v-3.25h1.43v-2.55H361v2.55h1.64Z" transform="translate(0.02 -0.03)" style="fill:#fff"/><path d="M363.88,621.11V618h4.58v3.12Zm4.5,14.27H364v-13h4.42Z" transform="translate(0.02 -0.03)" style="fill:#fff"/><path d="M374,622.41h3.3a4,4,0,0,1,2.84.83,3.19,3.19,0,0,1,.86,2.39v6.53a3.18,3.18,0,0,1-.86,2.39,4,4,0,0,1-2.84.83H374a4,4,0,0,1-2.83-.83,3.18,3.18,0,0,1-.86-2.39v-6.53a3.19,3.19,0,0,1,.86-2.39A4,4,0,0,1,374,622.41Zm2.65,9.33v-5.69c0-.38-.21-.57-.65-.57h-.7c-.43,0-.65.19-.65.57v5.69c0,.38.22.57.65.57h.7C376.46,632.31,376.67,632.12,376.67,631.74Z" transform="translate(0.02 -0.03)" style="fill:#fff"/><path d="M389.67,622.41h.47q3.47,0,3.46,3.22v9.75h-4.42v-9.15c0-.38-.22-.57-.65-.57h-.44c-.47,0-.7.26-.7.78v8.94H383v-13h4.34v1.66A2.09,2.09,0,0,1,389.67,622.41Z" transform="translate(0.02 -0.03)" style="fill:#fff"/><path d="M395.55,639.26v-8.14H400v2.34l-3.12,5.8Z" transform="translate(0.02 -0.03)" style="fill:#fff"/><path d="M413.33,622.41h4.35v13h-4.42V634a2.15,2.15,0,0,1-2.29,1.4h-.47q-3.47,0-3.46-3.22v-6.53q0-3.23,3.46-3.22H411a2.09,2.09,0,0,1,2.36,1.66Zm-1.22,9.72h.44c.47,0,.71-.26.71-.78v-4.91c0-.52-.24-.78-.71-.78h-.44c-.43,0-.65.19-.65.57v5.33C411.46,631.94,411.68,632.13,412.11,632.13Z" transform="translate(0.02 -0.03)" style="fill:#fff"/><path d="M426.46,622.41h.47q3.46,0,3.46,3.22v9.75H426v-9.15c0-.38-.22-.57-.65-.57h-.44c-.47,0-.7.26-.7.78v8.94h-4.42v-13h4.34v1.66A2.09,2.09,0,0,1,426.46,622.41Z" transform="translate(0.02 -0.03)" style="fill:#fff"/><path d="M438.29,618h4.42v17.39h-4.34v-1.66a2.09,2.09,0,0,1-2.36,1.66h-.47q-3.46,0-3.46-3.22v-6.53q0-3.23,3.46-3.22H436a2.15,2.15,0,0,1,2.28,1.4Zm-1.14,14.14h.44c.47,0,.7-.26.7-.78v-4.91c0-.52-.23-.78-.7-.78h-.44c-.43,0-.65.19-.65.57v5.33C436.5,631.94,436.72,632.13,437.15,632.13Z" transform="translate(0.02 -0.03)" style="fill:#fff"/><path d="M456.7,622.41h.47c2.3,0,3.46,1.07,3.46,3.22v9.75h-4.42v-9.15c0-.38-.22-.57-.65-.57h-.44c-.47,0-.71.26-.71.78v8.94H450v-13h4.34v1.66A2.11,2.11,0,0,1,456.7,622.41Z" transform="translate(0.02 -0.03)" style="fill:#fff"/><path d="M466.14,622.41h3.17q3.82,0,3.82,3.22v4.42H466.5v1.72c0,.38.22.57.65.57h1.15c.43,0,.65-.21.65-.62V631h4.18v1.17q0,3.23-3.82,3.22h-3.17q-3.83,0-3.82-3.22v-6.53Q462.32,622.41,466.14,622.41Zm.36,5.25H469V626c0-.38-.22-.57-.65-.57h-1.15c-.43,0-.65.19-.65.57Z" transform="translate(0.02 -0.03)" style="fill:#fff"/><path d="M473.78,622.41h4.4l1.58,8.32,1.56-8.32h4.4l-3.33,13h-5.28Z" transform="translate(0.02 -0.03)" style="fill:#fff"/><path d="M490.32,622.41h3.17q3.83,0,3.82,3.22v4.42h-6.63v1.72c0,.38.22.57.65.57h1.15c.43,0,.65-.21.65-.62V631h4.18v1.17q0,3.23-3.82,3.22h-3.17q-3.82,0-3.82-3.22v-6.53Q486.5,622.41,490.32,622.41Zm.36,5.25h2.45V626c0-.38-.22-.57-.65-.57h-1.15c-.43,0-.65.19-.65.57Z" transform="translate(0.02 -0.03)" style="fill:#fff"/><path d="M506.15,622.28h.39v3.85h-1.48c-1.09,0-1.64.59-1.64,1.76v7.49H499v-13h4.34v2a2.62,2.62,0,0,1,.94-1.56A3,3,0,0,1,506.15,622.28Z" transform="translate(0.02 -0.03)" style="fill:#fff"/><path d="M518.5,632v-1c0-.38-.21-.57-.65-.57h-1.58q-3.75,0-3.75-3.2v-1.51c0-2.15,1.28-3.22,3.82-3.22h2.42q3.82,0,3.82,3.22v1.09h-4.21v-.88c0-.38-.21-.57-.65-.57h-.26c-.43,0-.65.19-.65.57V627c0,.39.22.58.65.58h1.59a4.1,4.1,0,0,1,2.87.82,3.06,3.06,0,0,1,.87,2.35v1.43q0,3.23-3.82,3.22h-2.55q-3.82,0-3.82-3.22v-1.07h4.29V632c0,.38.22.57.65.57h.31C518.29,632.52,518.5,632.33,518.5,632Z" transform="translate(0.02 -0.03)" style="fill:#fff"/><path d="M531.06,625.66h-1.64v5.9c0,.38.22.57.65.57h1v3.25h-2.21c-2.54,0-3.82-1.07-3.82-3.22v-6.5h-1.43v-3.25H525v-2.55h4.42v2.55h1.64Z" transform="translate(0.02 -0.03)" style="fill:#fff"/><path d="M535.92,622.41h3.3a4,4,0,0,1,2.84.83,3.19,3.19,0,0,1,.86,2.39v6.53a3.18,3.18,0,0,1-.86,2.39,4,4,0,0,1-2.84.83h-3.3a3.94,3.94,0,0,1-2.83-.83,3.18,3.18,0,0,1-.86-2.39v-6.53a3.19,3.19,0,0,1,.86-2.39A4,4,0,0,1,535.92,622.41Zm2.65,9.33v-5.69c0-.38-.21-.57-.65-.57h-.7c-.43,0-.65.19-.65.57v5.69c0,.38.22.57.65.57h.7C538.36,632.31,538.57,632.12,538.57,631.74Z" transform="translate(0.02 -0.03)" style="fill:#fff"/><path d="M551.57,622.41H552q3.47,0,3.46,3.22v6.53q0,3.23-3.46,3.22h-.47a2.13,2.13,0,0,1-2.28-1.4v4.76h-4.42V622.41h4.34v1.66A2.09,2.09,0,0,1,551.57,622.41Zm-.49,9.15v-5.33c0-.38-.22-.57-.65-.57H550c-.47,0-.7.26-.7.78v4.91c0,.52.23.78.7.78h.44C550.86,632.13,551.08,631.94,551.08,631.56Z" transform="translate(0.02 -0.03)" style="fill:#fff"/><path d="M569.1,625.66h-1.64v5.9c0,.38.22.57.65.57h1v3.25h-2.21q-3.83,0-3.82-3.22v-6.5h-1.43v-3.25H563v-2.55h4.42v2.55h1.64Z" transform="translate(0.02 -0.03)" style="fill:#fff"/><path d="M577.55,622.28h.39v3.85h-1.48c-1.1,0-1.64.59-1.64,1.76v7.49H570.4v-13h4.34v2a2.57,2.57,0,0,1,.94-1.56A2.94,2.94,0,0,1,577.55,622.28Z" transform="translate(0.02 -0.03)" style="fill:#fff"/><path d="M582,638.74h-2.19v-3.2h1.93a2,2,0,0,0,1-.21,1.74,1.74,0,0,0,.62-1h-1.69l-3.56-11.93h4.63l1.58,7.9,1.41-7.9h4.44l-3.25,12.71a5.42,5.42,0,0,1-1.66,2.71A5.09,5.09,0,0,1,582,638.74Z" transform="translate(0.02 -0.03)" style="fill:#fff"/><path d="M591.09,621.11V618h4.58v3.12Zm4.5,14.27h-4.42v-13h4.42Z" transform="translate(0.02 -0.03)" style="fill:#fff"/><path d="M604.38,622.41h.47q3.45,0,3.45,3.22v9.75h-4.42v-9.15c0-.38-.21-.57-.65-.57h-.44c-.47,0-.7.26-.7.78v8.94h-4.42v-13H602v1.66A2.1,2.1,0,0,1,604.38,622.41Z" transform="translate(0.02 -0.03)" style="fill:#fff"/><path d="M616.29,622.41h4.34v13.1c0,2.15-1.28,3.23-3.82,3.23h-6.22v-3.12h5c.43,0,.65-.19.65-.58V633.2a2.15,2.15,0,0,1-2.29,1.4h-.47c-2.3,0-3.46-1.07-3.46-3.22v-5.75c0-2.15,1.16-3.22,3.46-3.22h.47a2.11,2.11,0,0,1,2.37,1.66Zm-1.23,8.94h.45c.46,0,.7-.26.7-.78v-4.13c0-.52-.24-.78-.7-.78h-.45c-.43,0-.65.19-.65.57v4.55C614.41,631.16,614.63,631.35,615.06,631.35Z" transform="translate(0.02 -0.03)" style="fill:#fff"/><path d="M634.49,625.66h-1.64v5.9c0,.38.21.57.65.57h1v3.25h-2.21q-3.82,0-3.82-3.22v-6.5H627v-3.25h1.43v-2.55h4.42v2.55h1.64Z" transform="translate(0.02 -0.03)" style="fill:#fff"/><path d="M639.35,622.41h3.3a4,4,0,0,1,2.83.83,3.15,3.15,0,0,1,.86,2.39v6.53a3.14,3.14,0,0,1-.86,2.39,3.94,3.94,0,0,1-2.83.83h-3.3a4,4,0,0,1-2.84-.83,3.17,3.17,0,0,1-.85-2.39v-6.53a3.19,3.19,0,0,1,.85-2.39A4,4,0,0,1,639.35,622.41Zm2.65,9.33v-5.69c0-.38-.22-.57-.65-.57h-.7c-.44,0-.65.19-.65.57v5.69c0,.38.21.57.65.57h.7C641.78,632.31,642,632.12,642,631.74Z" transform="translate(0.02 -0.03)" style="fill:#fff"/><path d="M660.2,622.41h.47q3.45,0,3.45,3.22v6.53q0,3.23-3.45,3.22h-.47a2.11,2.11,0,0,1-2.37-1.66v1.66h-4.34V618h4.42v5.82A2.15,2.15,0,0,1,660.2,622.41Zm-.49,9.15v-5.33c0-.38-.22-.57-.65-.57h-.45c-.46,0-.7.26-.7.78v4.91c0,.52.24.78.7.78h.45C659.49,632.13,659.71,631.94,659.71,631.56Z" transform="translate(0.02 -0.03)" style="fill:#fff"/><path d="M673.1,622.28h.39v3.85H672c-1.09,0-1.63.59-1.63,1.76v7.49H666v-13h4.34v2a2.61,2.61,0,0,1,.93-1.56A3,3,0,0,1,673.1,622.28Z" transform="translate(0.02 -0.03)" style="fill:#fff"/><path d="M674.58,621.11V618h4.57v3.12Zm4.5,14.27h-4.42v-13h4.42Z" transform="translate(0.02 -0.03)" style="fill:#fff"/><path d="M687.86,622.41h.47q3.46,0,3.46,3.22v9.75h-4.42v-9.15c0-.38-.22-.57-.65-.57h-.44c-.47,0-.7.26-.7.78v8.94h-4.42v-13h4.34v1.66A2.09,2.09,0,0,1,687.86,622.41Z" transform="translate(0.02 -0.03)" style="fill:#fff"/><path d="M699.77,622.41h4.34v13.1q0,3.22-3.82,3.23h-6.21v-3.12h5c.44,0,.65-.19.65-.58V633.2a2.15,2.15,0,0,1-2.29,1.4h-.46q-3.47,0-3.46-3.22v-5.75q0-3.23,3.46-3.22h.46a2.09,2.09,0,0,1,2.37,1.66Zm-1.22,8.94H699c.47,0,.7-.26.7-.78v-4.13c0-.52-.23-.78-.7-.78h-.44c-.43,0-.65.19-.65.57v4.55C697.9,631.16,698.12,631.35,698.55,631.35Z" transform="translate(0.02 -0.03)" style="fill:#fff"/><path d="M718,625.66h-1.64v5.9c0,.38.22.57.65.57h1v3.25h-2.21c-2.54,0-3.82-1.07-3.82-3.22v-6.5h-1.43v-3.25h1.43v-2.55h4.42v2.55H718Z" transform="translate(0.02 -0.03)" style="fill:#fff"/><path d="M726,622.41h.47q3.45,0,3.45,3.22v9.75h-4.42v-9.15c0-.38-.21-.57-.65-.57h-.44c-.47,0-.7.26-.7.78v8.94h-4.42V618h4.42v5.82A2.15,2.15,0,0,1,726,622.41Z" transform="translate(0.02 -0.03)" style="fill:#fff"/><path d="M735.42,622.41h3.17q3.82,0,3.82,3.22v4.42h-6.63v1.72c0,.38.22.57.65.57h1.14c.44,0,.65-.21.65-.62V631h4.19v1.17q0,3.23-3.82,3.22h-3.17q-3.82,0-3.83-3.22v-6.53Q731.59,622.41,735.42,622.41Zm.36,5.25h2.44V626c0-.38-.21-.57-.65-.57h-1.14c-.43,0-.65.19-.65.57Z" transform="translate(0.02 -0.03)" style="fill:#fff"/><path d="M762.22,622.41h.47q3.46,0,3.46,3.22v9.75h-4.42v-9.15c0-.38-.22-.57-.65-.57h-.44c-.47,0-.71.26-.71.78v8.94h-4.42v-9.15c0-.38-.21-.57-.65-.57h-.44c-.47,0-.7.26-.7.78v8.94H749.3v-13h4.34v1.66a2.09,2.09,0,0,1,2.37-1.66h.47c1.61,0,2.67.55,3.17,1.64a2,2,0,0,1,.91-1.2A3.09,3.09,0,0,1,762.22,622.41Z" transform="translate(0.02 -0.03)" style="fill:#fff"/><path d="M771.66,622.41H775a4,4,0,0,1,2.84.83,3.19,3.19,0,0,1,.85,2.39v6.53a3.17,3.17,0,0,1-.85,2.39,4,4,0,0,1-2.84.83h-3.3a3.94,3.94,0,0,1-2.83-.83,3.14,3.14,0,0,1-.86-2.39v-6.53a3.15,3.15,0,0,1,.86-2.39A4,4,0,0,1,771.66,622.41Zm2.65,9.33v-5.69c0-.38-.21-.57-.65-.57H773c-.43,0-.65.19-.65.57v5.69c0,.38.22.57.65.57h.7C774.1,632.31,774.31,632.12,774.31,631.74Z" transform="translate(0.02 -0.03)" style="fill:#fff"/><path d="M786.19,632v-1c0-.38-.21-.57-.65-.57H784q-3.75,0-3.75-3.2v-1.51q0-3.23,3.83-3.22h2.41q3.82,0,3.83,3.22v1.09h-4.22v-.88c0-.38-.21-.57-.65-.57h-.26c-.43,0-.65.19-.65.57V627c0,.39.22.58.65.58h1.59a4.1,4.1,0,0,1,2.87.82,3.06,3.06,0,0,1,.87,2.35v1.43q0,3.23-3.82,3.22h-2.55c-2.54,0-3.82-1.07-3.82-3.22v-1.07h4.29V632c0,.38.22.57.65.57h.31C786,632.52,786.19,632.33,786.19,632Z" transform="translate(0.02 -0.03)" style="fill:#fff"/><path d="M798.75,625.66h-1.64v5.9c0,.38.22.57.65.57h1v3.25h-2.2q-3.82,0-3.83-3.22v-6.5h-1.43v-3.25h1.43v-2.55h4.42v2.55h1.64Z" transform="translate(0.02 -0.03)" style="fill:#fff"/></g><g style="isolation:isolate"><path d="M202,653.61h4.4l1.58,8.32,1.56-8.32h4.4l-3.33,13h-5.28Z" transform="translate(0.02 -0.03)" style="fill:#fff"/><path d="M221,653.61h4.34v13h-4.42v-1.4a2.14,2.14,0,0,1-2.29,1.4h-.46q-3.47,0-3.46-3.22v-6.53q0-3.23,3.46-3.22h.46a2.09,2.09,0,0,1,2.37,1.66Zm-1.22,9.72h.44c.47,0,.7-.26.7-.78v-4.91c0-.52-.23-.78-.7-.78h-.44c-.44,0-.65.19-.65.57v5.33C219.12,663.14,219.33,663.33,219.77,663.33Z" transform="translate(0.02 -0.03)" style="fill:#fff"/><path d="M231.83,666.58h-4.42V649.19h4.42Z" transform="translate(0.02 -0.03)" style="fill:#fff"/><path d="M240,653.61h4.42v13h-4.35v-1.66a2.09,2.09,0,0,1-2.36,1.66h-.47q-3.47,0-3.46-3.22v-9.75h4.42v9.15c0,.38.22.57.65.57h.44c.47,0,.71-.26.71-.78Z" transform="translate(0.02 -0.03)" style="fill:#fff"/><path d="M250.06,653.61h3.17q3.83,0,3.82,3.22v4.42h-6.63V663c0,.38.22.57.65.57h1.15c.43,0,.65-.21.65-.62v-.73h4.18v1.17q0,3.23-3.82,3.22h-3.17q-3.83,0-3.82-3.22v-6.53Q246.24,653.6,250.06,653.61Zm.36,5.25h2.45v-1.64c0-.38-.22-.57-.65-.57h-1.15c-.43,0-.65.19-.65.57Z" transform="translate(0.02 -0.03)" style="fill:#fff"/><path d="M270.52,656.86h-1.64v5.9c0,.38.22.57.65.57h1v3.25h-2.21c-2.54,0-3.82-1.07-3.82-3.22v-6.5H263v-3.25h1.43v-2.55h4.42v2.55h1.64Z" transform="translate(0.02 -0.03)" style="fill:#fff"/><path d="M275.38,653.61h3.3a4,4,0,0,1,2.84.83,3.19,3.19,0,0,1,.86,2.39v6.53a3.18,3.18,0,0,1-.86,2.39,4,4,0,0,1-2.84.83h-3.3a3.94,3.94,0,0,1-2.83-.83,3.14,3.14,0,0,1-.86-2.39v-6.53a3.15,3.15,0,0,1,.86-2.39A4,4,0,0,1,275.38,653.61Zm2.65,9.33v-5.69c0-.38-.21-.57-.65-.57h-.7c-.43,0-.65.19-.65.57v5.69c0,.38.22.57.65.57h.7C277.82,663.51,278,663.32,278,662.94Z" transform="translate(0.02 -0.03)" style="fill:#fff"/><path d="M293.09,653.61h3.3a4,4,0,0,1,2.83.83,3.19,3.19,0,0,1,.86,2.39v6.53a3.18,3.18,0,0,1-.86,2.39,3.94,3.94,0,0,1-2.83.83h-3.3a4,4,0,0,1-2.84-.83,3.18,3.18,0,0,1-.86-2.39v-6.53a3.19,3.19,0,0,1,.86-2.39A4,4,0,0,1,293.09,653.61Zm2.65,9.33v-5.69c0-.38-.22-.57-.65-.57h-.7c-.44,0-.65.19-.65.57v5.69c0,.38.21.57.65.57h.7C295.52,663.51,295.74,663.32,295.74,662.94Z" transform="translate(0.02 -0.03)" style="fill:#fff"/><path d="M308.11,653.61h4.42v13h-4.34v-1.66a2.09,2.09,0,0,1-2.36,1.66h-.47q-3.47,0-3.46-3.22v-9.75h4.42v9.15c0,.38.22.57.65.57h.44c.47,0,.7-.26.7-.78Z" transform="translate(0.02 -0.03)" style="fill:#fff"/><path d="M321.76,653.48h.39v3.85h-1.48c-1.09,0-1.64.59-1.64,1.76v7.49h-4.42v-13H319v2a2.56,2.56,0,0,1,.93-1.56A3,3,0,0,1,321.76,653.48Z" transform="translate(0.02 -0.03)" style="fill:#fff"/><path d="M332.09,653.61h3.17q3.83,0,3.82,3.22v4.42h-6.63V663c0,.38.22.57.65.57h1.14c.44,0,.65-.21.65-.62v-.73h4.19v1.17q0,3.23-3.82,3.22h-3.17q-3.82,0-3.83-3.22v-6.53Q328.26,653.6,332.09,653.61Zm.36,5.25h2.44v-1.64c0-.38-.21-.57-.65-.57H333.1c-.43,0-.65.19-.65.57Z" transform="translate(0.02 -0.03)" style="fill:#fff"/><path d="M347.48,653.61H348q3.45,0,3.45,3.22v9.75H347v-9.15c0-.38-.21-.57-.65-.57h-.44c-.47,0-.7.26-.7.78v8.94h-4.42v-13h4.34v1.66A2.09,2.09,0,0,1,347.48,653.61Z" transform="translate(0.02 -0.03)" style="fill:#fff"/><path d="M359.39,653.61h4.34v13.1c0,2.15-1.28,3.23-3.82,3.23h-6.22v-3.12h5c.43,0,.65-.19.65-.57V664.4a2.15,2.15,0,0,1-2.29,1.4h-.47c-2.3,0-3.46-1.07-3.46-3.22v-5.75c0-2.15,1.16-3.22,3.46-3.22H357a2.11,2.11,0,0,1,2.37,1.66Zm-1.23,8.94h.45c.46,0,.7-.26.7-.78v-4.13c0-.52-.24-.78-.7-.78h-.45c-.43,0-.65.19-.65.57V662C357.51,662.36,357.73,662.55,358.16,662.55Z" transform="translate(0.02 -0.03)" style="fill:#fff"/><path d="M371.84,653.61h4.34v13h-4.42v-1.4a2.14,2.14,0,0,1-2.29,1.4H369q-3.45,0-3.45-3.22v-6.53q0-3.23,3.45-3.22h.47a2.09,2.09,0,0,1,2.37,1.66Zm-1.22,9.72h.44c.47,0,.7-.26.7-.78v-4.91c0-.52-.23-.78-.7-.78h-.44c-.44,0-.65.19-.65.57v5.33C370,663.14,370.18,663.33,370.62,663.33Z" transform="translate(0.02 -0.03)" style="fill:#fff"/><path d="M384.29,653.61h4.34v13.1q0,3.22-3.82,3.23H378.6v-3.12h5c.44,0,.65-.19.65-.57V664.4a2.14,2.14,0,0,1-2.28,1.4h-.47q-3.46,0-3.46-3.22v-5.75q0-3.23,3.46-3.22h.47a2.09,2.09,0,0,1,2.36,1.66Zm-1.22,8.94h.44c.47,0,.7-.26.7-.78v-4.13c0-.52-.23-.78-.7-.78h-.44c-.43,0-.65.19-.65.57V662C382.42,662.36,382.64,662.55,383.07,662.55Z" transform="translate(0.02 -0.03)" style="fill:#fff"/><path d="M394.28,653.61h3.17q3.82,0,3.82,3.22v4.42h-6.63V663c0,.38.22.57.65.57h1.14c.44,0,.65-.21.65-.62v-.73h4.19v1.17q0,3.23-3.82,3.22h-3.17q-3.82,0-3.83-3.22v-6.53Q390.45,653.6,394.28,653.61Zm.36,5.25h2.44v-1.64c0-.38-.21-.57-.65-.57h-1.14c-.43,0-.65.19-.65.57Z" transform="translate(0.02 -0.03)" style="fill:#fff"/><path d="M415.88,653.61h.47q3.47,0,3.46,3.22v9.75h-4.42v-9.15c0-.38-.22-.57-.65-.57h-.44c-.47,0-.71.26-.71.78v8.94h-4.42v-9.15c0-.38-.21-.57-.65-.57h-.44c-.47,0-.7.26-.7.78v8.94H403v-13h4.34v1.66a2.09,2.09,0,0,1,2.37-1.66h.47c1.61,0,2.67.55,3.17,1.64a2,2,0,0,1,.91-1.2A3.09,3.09,0,0,1,415.88,653.61Z" transform="translate(0.02 -0.03)" style="fill:#fff"/><path d="M425.32,653.61h3.17q3.83,0,3.82,3.22v4.42h-6.63V663c0,.38.22.57.65.57h1.15c.43,0,.65-.21.65-.62v-.73h4.18v1.17q0,3.23-3.82,3.22h-3.17q-3.82,0-3.82-3.22v-6.53Q421.5,653.6,425.32,653.61Zm.36,5.25h2.45v-1.64c0-.38-.22-.57-.65-.57h-1.15c-.43,0-.65.19-.65.57Z" transform="translate(0.02 -0.03)" style="fill:#fff"/><path d="M440.71,653.61h.47c2.3,0,3.46,1.07,3.46,3.22v9.75h-4.42v-9.15c0-.38-.22-.57-.65-.57h-.44c-.47,0-.71.26-.71.78v8.94H434v-13h4.35v1.66A2.09,2.09,0,0,1,440.71,653.61Z" transform="translate(0.02 -0.03)" style="fill:#fff"/><path d="M453.17,656.86h-1.64v5.9c0,.38.21.57.65.57h1v3.25h-2.21q-3.82,0-3.82-3.22v-6.5h-1.43v-3.25h1.43v-2.55h4.42v2.55h1.64Z" transform="translate(0.02 -0.03)" style="fill:#fff"/><path d="M460.06,663.15v-1c0-.38-.22-.57-.65-.57h-1.59c-2.5,0-3.74-1.07-3.74-3.2v-1.51q0-3.23,3.82-3.22h2.42c2.54,0,3.82,1.07,3.82,3.22v1.09h-4.21V657c0-.38-.22-.57-.65-.57H459c-.44,0-.65.19-.65.57v1.14c0,.39.21.58.65.58h1.58a4.08,4.08,0,0,1,2.87.82,3,3,0,0,1,.88,2.35v1.43q0,3.23-3.83,3.22H458q-3.83,0-3.83-3.22v-1.07h4.29v.86c0,.38.22.57.65.57h.32C459.84,663.72,460.06,663.53,460.06,663.15Z" transform="translate(0.02 -0.03)" style="fill:#fff"/><path d="M466,666.58v-4.26h4.47v4.26Z" transform="translate(0.02 -0.03)" style="fill:#fff"/><path d="M484.18,662.76v-2.37c0-.38-.21-.57-.65-.57H481a3.63,3.63,0,0,1-2.72-.84,3.42,3.42,0,0,1-.79-2.43v-3.43q0-3.23,3.79-3.23h3.57q3.8,0,3.79,3.23v2h-4.55v-1.41c0-.38-.22-.57-.65-.57h-.75c-.44,0-.65.19-.65.57v2.47c0,.38.21.57.65.57h2.44a3.8,3.8,0,0,1,2.74.81,3.17,3.17,0,0,1,.82,2.37v3.43q0,3.23-3.79,3.22H481.4q-3.82,0-3.82-3.22v-2h4.55v1.4c0,.38.22.57.65.57h.75C484,663.33,484.18,663.14,484.18,662.76Z" transform="translate(0.02 -0.03)" style="fill:#fff"/><path d="M497.13,656.86h-1.64v5.9c0,.38.22.57.65.57h1v3.25h-2.2q-3.82,0-3.83-3.22v-6.5h-1.43v-3.25h1.43v-2.55h4.42v2.55h1.64Z" transform="translate(0.02 -0.03)" style="fill:#fff"/><path d="M504.46,653.61h4.35v13h-4.42v-1.4a2.15,2.15,0,0,1-2.29,1.4h-.47q-3.47,0-3.46-3.22v-6.53q0-3.23,3.46-3.22h.47a2.09,2.09,0,0,1,2.36,1.66Zm-1.22,9.72h.44c.47,0,.71-.26.71-.78v-4.91c0-.52-.24-.78-.71-.78h-.44c-.43,0-.65.19-.65.57v5.33C502.59,663.14,502.81,663.33,503.24,663.33Z" transform="translate(0.02 -0.03)" style="fill:#fff"/><path d="M513.74,669.94h-2.18v-3.2h1.92a2,2,0,0,0,1-.21,1.74,1.74,0,0,0,.63-1h-1.69l-3.57-11.93h4.63l1.59,7.9,1.4-7.9h4.45l-3.25,12.71A5.43,5.43,0,0,1,517,669,5.06,5.06,0,0,1,513.74,669.94Z" transform="translate(0.02 -0.03)" style="fill:#fff"/><path d="M534.73,656.86h-1.64v5.9c0,.38.21.57.65.57h1v3.25h-2.21q-3.82,0-3.82-3.22v-6.5h-1.43v-3.25h1.43v-2.55h4.42v2.55h1.64Z" transform="translate(0.02 -0.03)" style="fill:#fff"/><path d="M542.11,653.61h4.42v13h-4.34v-1.66a2.09,2.09,0,0,1-2.37,1.66h-.47q-3.45,0-3.45-3.22v-9.75h4.42v9.15c0,.38.21.57.65.57h.44c.47,0,.7-.26.7-.78Z" transform="translate(0.02 -0.03)" style="fill:#fff"/><path d="M555.32,653.61h.47q3.45,0,3.45,3.22v9.75h-4.42v-9.15c0-.38-.21-.57-.65-.57h-.44c-.47,0-.7.26-.7.78v8.94h-4.42v-13H553v1.66A2.09,2.09,0,0,1,555.32,653.61Z" transform="translate(0.02 -0.03)" style="fill:#fff"/><path d="M564.76,653.61h3.17q3.83,0,3.82,3.22v4.42h-6.63V663c0,.38.22.57.65.57h1.14c.44,0,.65-.21.65-.62v-.73h4.19v1.17q0,3.23-3.82,3.22h-3.17q-3.82,0-3.83-3.22v-6.53Q560.93,653.6,564.76,653.61Zm.36,5.25h2.44v-1.64c0-.38-.21-.57-.65-.57h-1.14c-.43,0-.65.19-.65.57Z" transform="translate(0.02 -0.03)" style="fill:#fff"/><path d="M579.39,649.19h4.42v17.39h-4.34v-1.66a2.09,2.09,0,0,1-2.36,1.66h-.47q-3.46,0-3.46-3.22v-6.53q0-3.23,3.46-3.22h.47a2.15,2.15,0,0,1,2.28,1.4Zm-1.14,14.14h.44c.47,0,.7-.26.7-.78v-4.91c0-.52-.23-.78-.7-.78h-.44c-.43,0-.65.19-.65.57v5.33C577.6,663.14,577.82,663.33,578.25,663.33Z" transform="translate(0.02 -0.03)" style="fill:#fff"/><path d="M598.09,652.31h-1.38c-.43,0-.65.19-.65.57v.73h2v3.25h-2v9.72h-4.42v-9.72h-1.33v-3.25h1.33v-1.2q0-3.23,3.82-3.22h2.63Z" transform="translate(0.02 -0.03)" style="fill:#fff"/><path d="M602.82,653.61h3.3a4,4,0,0,1,2.84.83,3.19,3.19,0,0,1,.85,2.39v6.53a3.17,3.17,0,0,1-.85,2.39,4,4,0,0,1-2.84.83h-3.3a3.94,3.94,0,0,1-2.83-.83,3.14,3.14,0,0,1-.86-2.39v-6.53a3.15,3.15,0,0,1,.86-2.39A4,4,0,0,1,602.82,653.61Zm2.65,9.33v-5.69c0-.38-.22-.57-.65-.57h-.7c-.43,0-.65.19-.65.57v5.69c0,.38.22.57.65.57h.7C605.25,663.51,605.47,663.32,605.47,662.94Z" transform="translate(0.02 -0.03)" style="fill:#fff"/><path d="M618.91,653.48h.39v3.85h-1.48c-1.09,0-1.64.59-1.64,1.76v7.49h-4.42v-13h4.35v2a2.56,2.56,0,0,1,.93-1.56A3,3,0,0,1,618.91,653.48Z" transform="translate(0.02 -0.03)" style="fill:#fff"/><path d="M631.71,653.61h4.34v13h-4.42v-1.4a2.14,2.14,0,0,1-2.29,1.4h-.47c-2.3,0-3.46-1.07-3.46-3.22v-6.53c0-2.15,1.16-3.22,3.46-3.22h.47a2.11,2.11,0,0,1,2.37,1.66Zm-1.23,9.72h.44c.47,0,.71-.26.71-.78v-4.91c0-.52-.24-.78-.71-.78h-.44c-.43,0-.65.19-.65.57v5.33C629.83,663.14,630.05,663.33,630.48,663.33Z" transform="translate(0.02 -0.03)" style="fill:#fff"/><path d="M644.83,653.61h.47q3.47,0,3.46,3.22v9.75h-4.42v-9.15c0-.38-.22-.57-.65-.57h-.44c-.47,0-.7.26-.7.78v8.94h-4.42v-13h4.34v1.66A2.09,2.09,0,0,1,644.83,653.61Z" transform="translate(0.02 -0.03)" style="fill:#fff"/><path d="M657.42,653.61h.47q3.45,0,3.45,3.22v9.75h-4.42v-9.15c0-.38-.21-.57-.65-.57h-.44c-.47,0-.7.26-.7.78v8.94h-4.42v-13h4.34v1.66A2.09,2.09,0,0,1,657.42,653.61Z" transform="translate(0.02 -0.03)" style="fill:#fff"/><path d="M666.86,653.61h3.3a4,4,0,0,1,2.83.83,3.19,3.19,0,0,1,.86,2.39v6.53a3.18,3.18,0,0,1-.86,2.39,4,4,0,0,1-2.83.83h-3.3a4,4,0,0,1-2.84-.83,3.18,3.18,0,0,1-.86-2.39v-6.53a3.19,3.19,0,0,1,.86-2.39A4,4,0,0,1,666.86,653.61Zm2.65,9.33v-5.69c0-.38-.22-.57-.65-.57h-.7c-.44,0-.65.19-.65.57v5.69c0,.38.21.57.65.57h.7C669.29,663.51,669.51,663.32,669.51,662.94Z" transform="translate(0.02 -0.03)" style="fill:#fff"/><path d="M681.88,653.61h4.42v13H682v-1.66a2.09,2.09,0,0,1-2.36,1.66h-.47q-3.46,0-3.46-3.22v-9.75h4.42v9.15c0,.38.22.57.65.57h.44c.47,0,.7-.26.7-.78Z" transform="translate(0.02 -0.03)" style="fill:#fff"/><path d="M695.09,653.61h.47q3.47,0,3.46,3.22v9.75H694.6v-9.15c0-.38-.22-.57-.65-.57h-.44c-.47,0-.71.26-.71.78v8.94h-4.42v-13h4.35v1.66A2.09,2.09,0,0,1,695.09,653.61Z" transform="translate(0.02 -0.03)" style="fill:#fff"/><path d="M711.13,658.63h-4.26v-1.2c0-.38-.22-.57-.65-.57h-.44c-.44,0-.65.19-.65.57v5.33c0,.38.21.57.65.57h.44c.43,0,.65-.19.65-.57v-1.19h4.26v1.79q0,3.23-3.82,3.22h-2.78q-3.82,0-3.82-3.22v-6.53q0-3.23,3.82-3.22h2.78q3.83,0,3.82,3.22Z" transform="translate(0.02 -0.03)" style="fill:#fff"/><path d="M716.25,653.61h3.18c2.54,0,3.82,1.07,3.82,3.22v4.42h-6.63V663c0,.38.22.57.65.57h1.14c.44,0,.65-.21.65-.62v-.73h4.19v1.17c0,2.15-1.28,3.22-3.82,3.22h-3.18c-2.54,0-3.82-1.07-3.82-3.22v-6.53C712.43,654.68,713.71,653.61,716.25,653.61Zm.37,5.25h2.44v-1.64c0-.38-.21-.57-.65-.57h-1.14c-.43,0-.65.19-.65.57Z" transform="translate(0.02 -0.03)" style="fill:#fff"/><path d="M737.86,653.61h.47c2.3,0,3.46,1.07,3.46,3.22v9.75h-4.42v-9.15c0-.38-.22-.57-.65-.57h-.44c-.47,0-.71.26-.71.78v8.94h-4.42v-9.15c0-.38-.21-.57-.65-.57h-.44c-.47,0-.7.26-.7.78v8.94h-4.42v-13h4.34v1.66a2.09,2.09,0,0,1,2.37-1.66h.47c1.61,0,2.66.55,3.17,1.64a2,2,0,0,1,.91-1.2A3.09,3.09,0,0,1,737.86,653.61Z" transform="translate(0.02 -0.03)" style="fill:#fff"/><path d="M747.3,653.61h3.17q3.82,0,3.82,3.22v4.42h-6.63V663c0,.38.22.57.65.57h1.15c.43,0,.65-.21.65-.62v-.73h4.18v1.17q0,3.23-3.82,3.22H747.3q-3.82,0-3.82-3.22v-6.53Q743.48,653.6,747.3,653.61Zm.36,5.25h2.45v-1.64c0-.38-.22-.57-.65-.57h-1.15c-.43,0-.65.19-.65.57Z" transform="translate(0.02 -0.03)" style="fill:#fff"/><path d="M762.69,653.61h.47c2.3,0,3.46,1.07,3.46,3.22v9.75H762.2v-9.15c0-.38-.22-.57-.65-.57h-.45c-.46,0-.7.26-.7.78v8.94H756v-13h4.34v1.66A2.11,2.11,0,0,1,762.69,653.61Z" transform="translate(0.02 -0.03)" style="fill:#fff"/><path d="M775.14,656.86h-1.63v5.9c0,.38.21.57.65.57h1v3.25h-2.21q-3.82,0-3.82-3.22v-6.5h-1.43v-3.25h1.43v-2.55h4.42v2.55h1.63Z" transform="translate(0.02 -0.03)" style="fill:#fff"/><path d="M782,663.15v-1c0-.38-.21-.57-.65-.57H779.8q-3.75,0-3.75-3.2v-1.51q0-3.23,3.83-3.22h2.41q3.83,0,3.83,3.22v1.09H781.9V657c0-.38-.21-.57-.65-.57H781c-.43,0-.65.19-.65.57v1.14c0,.39.22.58.65.58h1.59a4.08,4.08,0,0,1,2.87.82,3.06,3.06,0,0,1,.87,2.35v1.43q0,3.23-3.82,3.22H780c-2.54,0-3.82-1.07-3.82-3.22v-1.07h4.29v.86c0,.38.22.57.65.57h.31C781.82,663.72,782,663.53,782,663.15Z" transform="translate(0.02 -0.03)" style="fill:#fff"/></g><g style="isolation:isolate"><path d="M214.26,684.81h4.34v13h-4.42v-1.4a2.14,2.14,0,0,1-2.29,1.4h-.47c-2.3,0-3.46-1.07-3.46-3.22V688c0-2.15,1.16-3.22,3.46-3.22h.47a2.11,2.11,0,0,1,2.37,1.66ZM213,694.53h.45c.46,0,.7-.26.7-.78v-4.91c0-.52-.24-.78-.7-.78H213c-.43,0-.65.19-.65.57V694C212.38,694.34,212.6,694.53,213,694.53Z" transform="translate(0.02 -0.03)" style="fill:#fff"/><path d="M227.39,684.81h.46q3.47,0,3.46,3.22v9.75h-4.42v-9.15c0-.38-.22-.57-.65-.57h-.44c-.47,0-.7.26-.7.78v8.94h-4.42v-13H225v1.66A2.09,2.09,0,0,1,227.39,684.81Z" transform="translate(0.02 -0.03)" style="fill:#fff"/><path d="M239.22,680.39h4.42v17.39h-4.35v-1.66a2.09,2.09,0,0,1-2.36,1.66h-.47q-3.47,0-3.46-3.22V688q0-3.22,3.46-3.22h.47a2.16,2.16,0,0,1,2.29,1.4Zm-1.15,14.14h.44c.47,0,.71-.26.71-.78v-4.91c0-.52-.24-.78-.71-.78h-.44c-.43,0-.65.19-.65.57V694C237.42,694.34,237.64,694.53,238.07,694.53Z" transform="translate(0.02 -0.03)" style="fill:#fff"/><path d="M254.48,684.81h3.3a4,4,0,0,1,2.83.83,3.15,3.15,0,0,1,.86,2.39v6.53a3.14,3.14,0,0,1-.86,2.39,3.94,3.94,0,0,1-2.83.83h-3.3a4,4,0,0,1-2.84-.83,3.17,3.17,0,0,1-.85-2.39V688a3.19,3.19,0,0,1,.85-2.39A4,4,0,0,1,254.48,684.81Zm2.65,9.33v-5.69c0-.38-.22-.57-.65-.57h-.7c-.44,0-.65.19-.65.57v5.69c0,.38.21.57.65.57h.7C256.91,694.71,257.13,694.52,257.13,694.14Z" transform="translate(0.02 -0.03)" style="fill:#fff"/><path d="M270.13,684.81h.47q3.45,0,3.45,3.22v6.53q0,3.23-3.45,3.22h-.47a2.14,2.14,0,0,1-2.29-1.4v4.76h-4.42V684.81h4.34v1.66A2.1,2.1,0,0,1,270.13,684.81Zm-.5,9.15v-5.33c0-.38-.21-.57-.65-.57h-.44c-.47,0-.7.26-.7.78v4.91c0,.52.23.78.7.78H269C269.42,694.53,269.63,694.34,269.63,694Z" transform="translate(0.02 -0.03)" style="fill:#fff"/><path d="M282.58,684.81h.47q3.46,0,3.46,3.22v6.53q0,3.23-3.46,3.22h-.47a2.15,2.15,0,0,1-2.29-1.4v4.76h-4.42V684.81h4.35v1.66A2.09,2.09,0,0,1,282.58,684.81Zm-.49,9.15v-5.33c0-.38-.22-.57-.65-.57H281c-.47,0-.71.26-.71.78v4.91c0,.52.24.78.71.78h.44C281.87,694.53,282.09,694.34,282.09,694Z" transform="translate(0.02 -0.03)" style="fill:#fff"/><path d="M291.89,684.81h3.3a4,4,0,0,1,2.84.83,3.19,3.19,0,0,1,.85,2.39v6.53A3.17,3.17,0,0,1,298,697a4,4,0,0,1-2.84.83h-3.3a3.94,3.94,0,0,1-2.83-.83,3.14,3.14,0,0,1-.86-2.39V688a3.15,3.15,0,0,1,.86-2.39A4,4,0,0,1,291.89,684.81Zm2.65,9.33v-5.69c0-.38-.21-.57-.65-.57h-.7c-.43,0-.65.19-.65.57v5.69c0,.38.22.57.65.57h.7C294.33,694.71,294.54,694.52,294.54,694.14Z" transform="translate(0.02 -0.03)" style="fill:#fff"/><path d="M308,684.68h.39v3.85h-1.48c-1.09,0-1.64.59-1.64,1.76v7.49h-4.42v-13h4.35v2a2.56,2.56,0,0,1,.93-1.56A3,3,0,0,1,308,684.68Z" transform="translate(0.02 -0.03)" style="fill:#fff"/><path d="M316.12,688.06h-1.64V694c0,.38.22.57.65.57h1v3.25h-2.21q-3.83,0-3.83-3.22v-6.5h-1.43v-3.25h1.43v-2.55h4.42v2.55h1.64Z" transform="translate(0.02 -0.03)" style="fill:#fff"/><path d="M323.51,684.81h4.42v13h-4.35v-1.66a2.09,2.09,0,0,1-2.36,1.66h-.47q-3.47,0-3.46-3.22v-9.75h4.42V694c0,.38.22.57.65.57h.44c.47,0,.71-.26.71-.78Z" transform="translate(0.02 -0.03)" style="fill:#fff"/><path d="M336.71,684.81h.47q3.46,0,3.46,3.22v9.75h-4.42v-9.15c0-.38-.22-.57-.65-.57h-.44c-.47,0-.7.26-.7.78v8.94H330v-13h4.34v1.66A2.09,2.09,0,0,1,336.71,684.81Z" transform="translate(0.02 -0.03)" style="fill:#fff"/><path d="M342.51,683.51v-3.12h4.58v3.12Zm4.5,14.27h-4.42v-13H347Z" transform="translate(0.02 -0.03)" style="fill:#fff"/><path d="M355.67,688.06H354V694c0,.38.22.57.65.57h1v3.25h-2.21q-3.82,0-3.82-3.22v-6.5h-1.43v-3.25h1.43v-2.55H354v2.55h1.64Z" transform="translate(0.02 -0.03)" style="fill:#fff"/><path d="M356.89,683.51v-3.12h4.57v3.12Zm4.5,14.27H357v-13h4.42Z" transform="translate(0.02 -0.03)" style="fill:#fff"/><path d="M367,684.81h3.17q3.82,0,3.82,3.22v4.42h-6.63v1.72c0,.38.22.57.65.57h1.15c.43,0,.65-.21.65-.62v-.73H374v1.17q0,3.23-3.82,3.22H367q-3.82,0-3.82-3.22V688Q363.21,684.81,367,684.81Zm.36,5.25h2.45v-1.64c0-.38-.22-.57-.65-.57H368c-.43,0-.65.19-.65.57Z" transform="translate(0.02 -0.03)" style="fill:#fff"/><path d="M381.3,694.35v-1c0-.38-.21-.57-.65-.57h-1.58q-3.75,0-3.75-3.2V688q0-3.22,3.83-3.22h2.41q3.82,0,3.82,3.22v1.09h-4.21v-.88c0-.38-.21-.57-.65-.57h-.26c-.43,0-.65.19-.65.57v1.14c0,.39.22.58.65.58h1.59a4.1,4.1,0,0,1,2.87.82,3.06,3.06,0,0,1,.87,2.35v1.43q0,3.23-3.82,3.22h-2.55q-3.83,0-3.82-3.22v-1.07h4.29v.86c0,.38.22.57.65.57h.31C381.09,694.92,381.3,694.73,381.3,694.35Z" transform="translate(0.02 -0.03)" style="fill:#fff"/><path d="M399.06,688.06h-1.64V694c0,.38.22.57.65.57h1v3.25h-2.21c-2.54,0-3.82-1.07-3.82-3.22v-6.5h-1.43v-3.25H393v-2.55h4.42v2.55h1.64Z" transform="translate(0.02 -0.03)" style="fill:#fff"/><path d="M403.92,684.81h3.3a4,4,0,0,1,2.84.83,3.19,3.19,0,0,1,.86,2.39v6.53a3.18,3.18,0,0,1-.86,2.39,4,4,0,0,1-2.84.83h-3.3a3.94,3.94,0,0,1-2.83-.83,3.18,3.18,0,0,1-.86-2.39V688a3.19,3.19,0,0,1,.86-2.39A4,4,0,0,1,403.92,684.81Zm2.65,9.33v-5.69c0-.38-.21-.57-.65-.57h-.7c-.43,0-.65.19-.65.57v5.69c0,.38.22.57.65.57h.7C406.36,694.71,406.57,694.52,406.57,694.14Z" transform="translate(0.02 -0.03)" style="fill:#fff"/><path d="M428.23,689.83H424v-1.2c0-.38-.22-.57-.65-.57h-.44c-.44,0-.65.19-.65.57V694c0,.38.21.57.65.57h.44c.43,0,.65-.19.65-.57v-1.19h4.26v1.79q0,3.23-3.82,3.22h-2.78q-3.83,0-3.82-3.22V688q0-3.22,3.82-3.22h2.78q3.82,0,3.82,3.22Z" transform="translate(0.02 -0.03)" style="fill:#fff"/><path d="M433.35,684.81h3.31a4,4,0,0,1,2.83.83,3.19,3.19,0,0,1,.86,2.39v6.53a3.18,3.18,0,0,1-.86,2.39,4,4,0,0,1-2.83.83h-3.31a4,4,0,0,1-2.83-.83,3.18,3.18,0,0,1-.86-2.39V688a3.19,3.19,0,0,1,.86-2.39A4,4,0,0,1,433.35,684.81Zm2.66,9.33v-5.69c0-.38-.22-.57-.65-.57h-.71c-.43,0-.65.19-.65.57v5.69c0,.38.22.57.65.57h.71C435.79,694.71,436,694.52,436,694.14Z" transform="translate(0.02 -0.03)" style="fill:#fff"/><path d="M449,684.81h.46q3.46,0,3.46,3.22v9.75h-4.42v-9.15c0-.38-.22-.57-.65-.57h-.44c-.47,0-.7.26-.7.78v8.94H442.3v-13h4.34v1.66A2.09,2.09,0,0,1,449,684.81Z" transform="translate(0.02 -0.03)" style="fill:#fff"/><path d="M461.59,684.81h.47q3.45,0,3.45,3.22v9.75h-4.42v-9.15c0-.38-.21-.57-.65-.57H460c-.47,0-.7.26-.7.78v8.94h-4.42v-13h4.34v1.66A2.1,2.1,0,0,1,461.59,684.81Z" transform="translate(0.02 -0.03)" style="fill:#fff"/><path d="M471,684.81h3.17q3.82,0,3.82,3.22v4.42h-6.63v1.72c0,.38.22.57.65.57h1.14c.44,0,.65-.21.65-.62v-.73H478v1.17q0,3.23-3.82,3.22H471q-3.82,0-3.83-3.22V688Q467.2,684.81,471,684.81Zm.36,5.25h2.44v-1.64c0-.38-.21-.57-.65-.57H472c-.43,0-.65.19-.65.57Z" transform="translate(0.02 -0.03)" style="fill:#fff"/><path d="M489.88,689.83h-4.27v-1.2c0-.38-.21-.57-.65-.57h-.44c-.43,0-.65.19-.65.57V694c0,.38.22.57.65.57H485c.44,0,.65-.19.65-.57v-1.19h4.27v1.79q0,3.23-3.83,3.22h-2.78c-2.54,0-3.82-1.07-3.82-3.22V688c0-2.15,1.28-3.22,3.82-3.22h2.78q3.82,0,3.83,3.22Z" transform="translate(0.02 -0.03)" style="fill:#fff"/><path d="M498,688.06h-1.63V694c0,.38.21.57.65.57h1v3.25h-2.21q-3.82,0-3.82-3.22v-6.5h-1.43v-3.25H492v-2.55h4.42v2.55H498Z" transform="translate(0.02 -0.03)" style="fill:#fff"/><path d="M499.31,697.78v-4.26h4.48v4.26Z" transform="translate(0.02 -0.03)" style="fill:#fff"/><path d="M515.62,691.86v5.92h-4.55V681.09h7.72q3.83,0,3.82,3.23v4.31a2.8,2.8,0,0,1-2.24,3l3.07,6.11h-4.89l-2.65-5.92Zm1.79-7.52h-1.79v4.42h1.79c.43,0,.65-.19.65-.57v-3.28C518.06,684.53,517.84,684.34,517.41,684.34Z" transform="translate(0.02 -0.03)" style="fill:#fff"/><path d="M528.17,681.09H532q3.83,0,3.82,3.23v10.24q0,3.23-3.82,3.22h-3.85c-2.54,0-3.82-1.07-3.82-3.22V684.32C524.35,682.17,525.63,681.09,528.17,681.09ZM531.29,694v-9.05c0-.38-.21-.57-.65-.57h-1.09c-.43,0-.65.19-.65.57V694c0,.38.22.57.65.57h1.09C531.08,694.53,531.29,694.34,531.29,694Z" transform="translate(0.02 -0.03)" style="fill:#fff"/><path d="M537.85,681.09h7.64q3.82,0,3.82,3.23v2.13c0,1.51-.41,2.48-1.25,2.93a1.75,1.75,0,0,1,1,1,4.77,4.77,0,0,1,.26,1.73v2.5q0,3.23-3.82,3.22h-7.64Zm7,6.27v-2.71c0-.38-.22-.57-.65-.57h-1.87v3.85h1.87C544.62,687.93,544.84,687.74,544.84,687.36Zm0,6.86v-2.73c0-.38-.22-.57-.65-.57h-1.87v3.87h1.87C544.62,694.79,544.84,694.6,544.84,694.22Z" transform="translate(0.02 -0.03)" style="fill:#fff"/><path d="M555,681.09h3.84q3.82,0,3.83,3.23v10.24q0,3.23-3.83,3.22H555q-3.82,0-3.83-3.22V684.32Q551.18,681.09,555,681.09ZM558.13,694v-9.05c0-.38-.22-.57-.65-.57h-1.1c-.43,0-.65.19-.65.57V694c0,.38.22.57.65.57h1.1C557.91,694.53,558.13,694.34,558.13,694Z" transform="translate(0.02 -0.03)" style="fill:#fff"/><path d="M574.74,681.09v3.25h-3.22v13.44H567V684.34h-3.19v-3.25Z" transform="translate(0.02 -0.03)" style="fill:#fff"/><path d="M582.3,694v-2.37c0-.38-.21-.57-.64-.57h-2.5a3.64,3.64,0,0,1-2.72-.84,3.42,3.42,0,0,1-.79-2.43v-3.43c0-2.15,1.26-3.23,3.8-3.23H583q3.79,0,3.79,3.23v2h-4.55v-1.41c0-.38-.21-.57-.65-.57h-.75c-.43,0-.65.19-.65.57v2.47c0,.38.22.58.65.58h2.44a3.83,3.83,0,0,1,2.75.8,3.22,3.22,0,0,1,.82,2.37v3.43q0,3.23-3.8,3.22h-3.54q-3.82,0-3.82-3.22v-2h4.55V694c0,.38.22.57.65.57h.76C582.09,694.53,582.3,694.34,582.3,694Z" transform="translate(0.02 -0.03)" style="fill:#fff"/><path d="M601.49,681.09h4.16v16.69h-3.9L598,689v8.76h-4.16V681.09h3.9l3.71,8.92Z" transform="translate(0.02 -0.03)" style="fill:#fff"/><path d="M612.28,694.53H618v3.25H607.73V681.09h10v3.25h-5.46v3.41H617V691h-4.71Z" transform="translate(0.02 -0.03)" style="fill:#fff"/><path d="M627.31,681.09H632l-4.11,16.69h-5.27l-4.11-16.69h4.73l2,11.16Z" transform="translate(0.02 -0.03)" style="fill:#fff"/><path d="M637.81,694.53h5.7v3.25H633.26V681.09h10v3.25h-5.46v3.41h4.71V691h-4.71Z" transform="translate(0.02 -0.03)" style="fill:#fff"/><path d="M649.49,691.86v5.92h-4.55V681.09h7.72q3.83,0,3.82,3.23v4.31a2.79,2.79,0,0,1-2.23,3l3.06,6.11h-4.88l-2.66-5.92Zm1.79-7.52h-1.79v4.42h1.79c.43,0,.65-.19.65-.57v-3.28C651.93,684.53,651.71,684.34,651.28,684.34Z" transform="translate(0.02 -0.03)" style="fill:#fff"/><path d="M674.71,686.81h-4.55v-2.16c0-.38-.22-.57-.65-.57h-.94c-.43,0-.65.19-.65.57v9.57c0,.38.22.57.65.57h.94c.43,0,.65-.19.65-.57v-2.78h-1.3v-2.89h5.85v6q0,3.23-3.83,3.22h-3.69c-2.54,0-3.82-1.07-3.82-3.22V684.32c0-2.15,1.28-3.23,3.82-3.23h3.69q3.82,0,3.83,3.23Z" transform="translate(0.02 -0.03)" style="fill:#fff"/><path d="M676.53,681.09h4.55v16.69h-4.55Z" transform="translate(0.02 -0.03)" style="fill:#fff"/><path d="M691.06,681.09h4.73l-4.1,16.69h-5.28l-4.11-16.69H687l2,11.16Z" transform="translate(0.02 -0.03)" style="fill:#fff"/><path d="M701.56,694.53h5.7v3.25H697V681.09h10v3.25h-5.46v3.41h4.71V691h-4.71Z" transform="translate(0.02 -0.03)" style="fill:#fff"/><path d="M720.83,681.09h4.55v13.47q0,3.23-3.82,3.22h-3.85q-3.83,0-3.82-3.22V681.09h4.55V694c0,.38.22.57.65.57h1.09c.43,0,.65-.19.65-.57Z" transform="translate(0.02 -0.03)" style="fill:#fff"/><path d="M727.46,681.09h7.72q3.83,0,3.82,3.23v4.78q0,3.23-3.82,3.22H732v5.46h-4.55Zm7,7.41v-3.59c0-.38-.21-.57-.65-.57H732v4.73h1.79C734.24,689.07,734.45,688.88,734.45,688.5Z" transform="translate(0.02 -0.03)" style="fill:#fff"/><path d="M740.82,681.09H746l-.78,10.64H741.6Zm.32,16.69v-4.26h4.47v4.26Z" transform="translate(0.02 -0.03)" style="fill:#fff"/></g></g><rect x="712.41" y="742.23" width="74.1" height="8.5" transform="translate(-272.96 1017.61) rotate(-59.74)" style="fill:#02c9fb"/></svg>