<svg id="b45e6fa8-aaff-4d75-8b25-1e5823aa88cb" data-name="Layer 1" xmlns="http://www.w3.org/2000/svg" viewBox="0 0 1117.02 1049.21"><title>products-xs-sm</title><g id="e009b31b-3e3c-49bc-b38d-03c98fea5a54" data-name="TV BKGD"><rect x="87.92" y="299.57" width="810.6" height="663.1" style="fill:#fff"/><rect x="898.52" y="231.97" width="203.3" height="796.3" style="fill:#fff"/><rect x="18.02" y="952.77" width="906.9" height="69.3" style="fill:#fff"/><rect x="18.02" y="268.47" width="74.1" height="711" style="fill:#fff"/><rect x="21.22" y="221.87" width="1073.2" height="86" style="fill:#fff"/><rect x="230.52" y="163.87" width="120" height="43.2" style="fill:#fff"/><rect x="257.22" y="153.07" width="65.6" height="14.9" style="fill:#fff"/><rect x="979.92" y="653.17" width="29.8" height="26.2"/><rect x="967.42" y="769.57" width="67.8" height="53.5"/><rect x="971.02" y="905.57" width="56.9" height="56.9"/></g><g id="b5462250-fb4c-4791-a39a-ac179a3ff3e2" data-name="Shell"><g id="b3be5bf3-70cb-4c45-a7f8-12a3721f8108" data-name="a79de169-09ec-4a7a-ab9c-8cdea5ef464a"><g id="f3e68f15-0c14-40aa-b255-20496d3c2858" data-name="ab7f11b5-6281-41fc-8479-8d7f2085a121"><polygon points="264.32 752.47 339.32 882.37 636.32 882.37 711.22 752.47 731.72 774.77 652.82 911.47 321.92 911.47 243.22 775.17 264.32 752.47" style="fill:#02c9fb"/><polygon points="235.32 702.07 190.82 624.97 339.32 367.47 636.32 367.47 784.82 624.97 739.82 702.87 760.62 724.67 818.22 624.97 652.82 338.37 321.92 338.37 156.42 624.97 213.92 724.47 235.32 702.07" style="fill:#02c9fb"/></g></g><g id="e6577193-a86c-4134-a458-520891a6cc94" data-name="a6f45107-d82c-43d7-9f86-2a039e347489"><rect x="325.62" y="353.87" width="324.7" height="541.9" style="fill:#02c9fb"/><rect x="329.59" y="350.51" width="324.68" height="559.37" transform="matrix(0.51, -0.86, 0.86, 0.51, -300.43, 736.39)" style="fill:#02c9fb"/><rect x="201.9" y="467.68" width="559.39" height="324.69" transform="translate(-250.48 325.18) rotate(-30)" style="fill:#02c9fb"/></g></g><g id="af803ced-55c7-434e-84af-4751b055a866" data-name="TV"><g id="a7b4b9f8-97c1-48e5-a6a2-cad383cce512" data-name="layer1"><path id="acffeb11-9ef0-4207-a93e-3be784d51a1f" data-name="path7416" d="M12.9,0A13.63,13.63,0,0,0,0,14.34a13.46,13.46,0,0,0,5.7,10.4l208.1,156.2a81.7,81.7,0,0,0-8.1,23.8H81.9c-28.4,0-49.8,3-64.3,17.5S.1,258.14.1,286.54v681c0,28.4,3,49.3,17.5,63.8s35.9,17.9,64.3,17.9h953.4c28.4,0,49.8-3.4,64.3-17.9a49.05,49.05,0,0,0,11.9-18.7c4.4-12.2,5.5-27.4,5.5-45.1v-681c0-7.1-.3-13.8-.9-20-1-12.4-3-22.9-7.7-31.9a48.9,48.9,0,0,0-8.9-12.3c-14.5-14.5-35.9-17.5-64.3-17.5H366.6a80.7,80.7,0,0,0-8.1-23.8L566.6,24.84a13.64,13.64,0,0,0-9-24.7,13.28,13.28,0,0,0-7.2,3L341.8,159.34c-14.6-13.7-34.2-22.6-55.8-22.6a81.76,81.76,0,0,0-56.2,22.6L21.9,3A14,14,0,0,0,12.9,0Zm273.3,163.9c25.4,0,46.2,17.5,52.4,40.9H233.8C240,181.34,260.8,163.94,286.2,163.94ZM81.9,232H215.6a12.75,12.75,0,0,0,5.5,0H351.8a12.75,12.75,0,0,0,5.5,0h678c26.1,0,38.8,3.4,44.7,9.4s9.8,19,9.8,45.1v681c0,26.1-3.9,38.8-9.8,44.7s-18.6,9.8-44.7,9.8H81.9c-13.1,0-22.6-.8-29.8-2.6a43.87,43.87,0,0,1-8.9-3,23.72,23.72,0,0,1-6-4.3c-5.9-5.9-9.8-18.6-9.8-44.7v-681a166.37,166.37,0,0,1,.9-17c1.4-15,4.5-23.6,8.9-28.1,3-3,7.7-5.2,14.9-6.8a95.22,95.22,0,0,1,12.8-1.7C69.8,232.44,75.4,232,81.9,232Zm-2.6,40.8a13.64,13.64,0,0,0-11.1,13.6v681A13.61,13.61,0,0,0,81.8,981H899a13.61,13.61,0,0,0,13.6-13.6v-681a13.61,13.61,0,0,0-13.6-13.6H79.3Zm16.2,27.3h790v653.8H95.5ZM964.6,409a13.66,13.66,0,1,0,2.6,27.2h68.1a13.6,13.6,0,1,0,.4-27.2H964.6Zm0,68.1a13.66,13.66,0,1,0,2.6,27.2h68.1a13.6,13.6,0,1,0,.4-27.2H964.6Zm0,68.1a13.66,13.66,0,1,0,2.6,27.2h68.1a13.6,13.6,0,1,0,.4-27.2H964.6Zm36.6,81.8a34.1,34.1,0,1,0,34.1,34.1A34.34,34.34,0,0,0,1001.2,627Zm0,27.2a6.8,6.8,0,1,1-6.8,6.8A6.62,6.62,0,0,1,1001.2,654.24Zm0,95.3a47.7,47.7,0,1,0,47.7,47.7A47.89,47.89,0,0,0,1001.2,749.54Zm0,27.3a20.4,20.4,0,1,1-20.4,20.4A20.23,20.23,0,0,1,1001.2,776.84Zm0,108.9a47.7,47.7,0,1,0,47.7,47.7A47.89,47.89,0,0,0,1001.2,885.74Zm0,27.3a20.4,20.4,0,1,1-20.4,20.4A20.23,20.23,0,0,1,1001.2,913Z" transform="translate(0.02 -0.03)" style="fill:#02c9fb"/></g></g><g id="b4024d2b-c29d-489c-a1c8-7a19e0828ecd" data-name="Robot"><g id="fe17c0d9-08d1-412e-b90d-59a015cda018" data-name="Bot 33"><path d="M469.31,669a18.2,18.2,0,1,0-18.2,18.2A18,18,0,0,0,469.31,669Zm-29.1,0a11,11,0,1,1,11,11A10.78,10.78,0,0,1,440.21,669Z" transform="translate(0.02 -0.03)" style="fill:#fff"/><path d="M538.61,687.3a18.2,18.2,0,1,0-18.2-18.2A18,18,0,0,0,538.61,687.3Zm0-29.2a11,11,0,1,1-11,11A10.78,10.78,0,0,1,538.61,658.1Z" transform="translate(0.02 -0.03)" style="fill:#fff"/><path d="M584.11,698.1h-6.2a16.75,16.75,0,0,0,.8-3.6V647.2a10.78,10.78,0,0,0-11-11H421.81a10.78,10.78,0,0,0-11,11v47.3a9,9,0,0,0,.8,3.6h-6.2a20.51,20.51,0,0,0-21.1,19c-.8,11,8.4,20.8,19.3,21.1v42.6a25.71,25.71,0,0,0-12.1,33.9,28.1,28.1,0,0,0,7.7,9.5,7.09,7.09,0,0,0,4.4,1.5,7.64,7.64,0,0,0,3.3-.8,6.87,6.87,0,0,0,4.1-6.6V803.7a3.29,3.29,0,0,1,1.8-2.9,3.15,3.15,0,0,1,1.5-.8,3.27,3.27,0,0,1,2.6,1.1,3.39,3.39,0,0,1,1.5,2.9v14.2a7.06,7.06,0,0,0,4.1,6.6,6.39,6.39,0,0,0,7.2-.8,25.47,25.47,0,0,0,5.4-35.7,29,29,0,0,0-9.5-8V738h14.6a56.43,56.43,0,0,0,7.2,23.7v64.2a28.25,28.25,0,0,0-14.2,20.3,7.78,7.78,0,0,0,1.5,5.9,6.71,6.71,0,0,0,5.4,2.6H483a6.59,6.59,0,0,0,5.4-2.6c1.5-1.5,1.8-3.6,1.8-5.9A28.61,28.61,0,0,0,476,825.9v-40a55.69,55.69,0,0,0,36.5,0V826a28.25,28.25,0,0,0-14.2,20.3,6.85,6.85,0,0,0,1.8,5.9,6.71,6.71,0,0,0,5.4,2.6h43.2a6.59,6.59,0,0,0,5.4-2.6c1.5-1.5,1.8-3.6,1.8-5.9a28.61,28.61,0,0,0-14.2-20.3V761.8a52.44,52.44,0,0,0,7.2-23.7h14.6v42.6c-12.8,6.2-18.2,21.5-12.1,33.9a28.1,28.1,0,0,0,7.7,9.5,7.3,7.3,0,0,0,11.6-5.8V804.1a4.05,4.05,0,0,1,1.5-3.3,3.27,3.27,0,0,1,2.6-1.1c.8,0,1.1.3,1.8.8a3.74,3.74,0,0,1,1.8,2.9V818a7.06,7.06,0,0,0,4.1,6.6,14.37,14.37,0,0,0,3.3.8,6.53,6.53,0,0,0,4.4-1.5,25.59,25.59,0,0,0,5.1-35.7,28.1,28.1,0,0,0-9.5-7.7V738.2a19.75,19.75,0,0,0,19-21.1C604.51,706.1,595.11,697.8,584.11,698.1Zm-165.7-3.6V647.2a3.36,3.36,0,0,1,3.6-3.6h145.8a3.36,3.36,0,0,1,3.6,3.6v47.3a3.36,3.36,0,0,1-3.6,3.6H422A3.27,3.27,0,0,1,418.41,694.5Zm14.4,109.4a17.73,17.73,0,0,1-7.2,14.6V804.3a12.22,12.22,0,0,0-3.6-8.4c-2.3-2.3-5.1-2.9-8-2.9a10.75,10.75,0,0,0-10.2,11v14.6a18.22,18.22,0,0,1,4.8-31.7h.3a5,5,0,0,1,1.8-.3l1.1-.3a8.63,8.63,0,0,1,2.9-.3,13.81,13.81,0,0,1,5.9,1.1h.3C428.11,789.3,432.81,796.2,432.81,803.9Zm-14.4-25.2a12.68,12.68,0,0,0-3.3-.3h0a11.94,11.94,0,0,0-3.3.3H411V738.3h7.2v40.4ZM405.51,731a12.8,12.8,0,0,1,0-25.6h34.6v25.5l-34.6.1Zm55.8,47,1.1.8c.8.8,1.8,1.1,2.6,1.8l1.5.8,2.6,1.5.8.3v40.1h-.8l-1.5-.3a13,13,0,0,1-1.8-.3h-7.2l-1.8.3-1.5.3h-.8V772.2l.3.3,2.6,2.6.3.3A18.31,18.31,0,0,1,461.31,778Zm22.3,69.6h-43.1a21.44,21.44,0,0,1,25.2-17.9,24.61,24.61,0,0,1,5.1,1.5l.8.3A22.45,22.45,0,0,1,483.61,847.6Zm-9.2-69.9a33.1,33.1,0,0,1-3.3-1.5,48.4,48.4,0,0,1-23.7-41.6V705.4h94.8v29.2a47.2,47.2,0,0,1-47.3,47.3,50.85,50.85,0,0,1-20.5-4.2Zm60.6-5.9v51.1h-.8l-1.5-.3a13,13,0,0,1-1.8-.3h-6.8l-1.8.3-1.5.3h-.6V782.8l.8-.3,2.3-1.5,1.5-.8c.8-.8,1.8-1.1,2.6-1.8l1.1-.8a22.13,22.13,0,0,0,3.3-2.9l.8-.3a9.12,9.12,0,0,1,2.4-2.6Zm14.1,75.8h-42.9a21.44,21.44,0,0,1,25.2-17.9,24.61,24.61,0,0,1,5.1,1.5l.8.3A22.21,22.21,0,0,1,549.11,847.6Zm29.5-68.9c-1.1,0-2.6-.3-3.6-.3h0a11.94,11.94,0,0,0-3.3.3h-.3V738.3h7.2v40.4Zm14.7,25.2a17.73,17.73,0,0,1-7.2,14.6V803.9a11,11,0,0,0-10.2-11,11.16,11.16,0,0,0-8,2.9,11.57,11.57,0,0,0-3.6,8.4v14.2a18.09,18.09,0,0,1-3.6-25.5c2.3-2.9,4.7-5.1,8-6.2h.3a15.41,15.41,0,0,1,5.9-1.1,15.24,15.24,0,0,1,6.2,1.1h0A18.32,18.32,0,0,1,593.31,803.9Zm-9.2-72.9h-34.6V705.5h34.6a12.75,12.75,0,1,1,0,25.5Z" transform="translate(0.02 -0.03)" style="fill:#fff"/></g></g><g id="a55e6b9c-3598-4612-be81-939026f4620b" data-name="Layer 8"><path d="M494.55,579.13l-3.75-2.23c-3-2.09-75.77-50.16-75.77-93.57,0-30.89,22-47,43.56-47,13.84,0,26.78,6.33,36,17.46,9.19-11.13,22.13-17.46,36-17.46,21.57,0,43.55,16.14,43.55,47,0,43.41-72.77,91.41-75.76,93.57Z" transform="translate(0.02 -0.03)"/></g></svg>